<?xml version="1.0" encoding="utf-8"?>
<!-- Generator: Adobe Illustrator 21.0.0, SVG Export Plug-In . SVG Version: 6.00 Build 0)  -->
<svg version="1.1" id="Layer_1" xmlns="http://www.w3.org/2000/svg" xmlns:xlink="http://www.w3.org/1999/xlink" x="0px" y="0px"
	 viewBox="0 0 1385.557 677.395" enable-background="new 0 0 1385.557 677.395" xml:space="preserve">
<linearGradient id="SVGID_1_" gradientUnits="userSpaceOnUse" x1="692.778" y1="1371.441" x2="692.778" y2="736.8745" gradientTransform="matrix(1 0 0 1 0 -747.2101)">
	<stop  offset="0.0161" style="stop-color:#F3DFA0"/>
	<stop  offset="0.2043" style="stop-color:#EEAE54"/>
	<stop  offset="0.5269" style="stop-color:#CB4C4C"/>
	<stop  offset="0.5959" style="stop-color:#AB3F40"/>
	<stop  offset="0.845" style="stop-color:#6F272A"/>
	<stop  offset="0.9687" style="stop-color:#44151A"/>
	<stop  offset="1" style="stop-color:#290A10"/>
	<stop  offset="1" style="stop-color:#1F060C"/>
</linearGradient>
<rect fill="url(#SVGID_1_)" width="1385.556" height="677.395"/>
<linearGradient id="SVGID_2_" gradientUnits="userSpaceOnUse" x1="692.7785" y1="974.0048" x2="692.7785" y2="1350.4628" gradientTransform="matrix(1 0 0 1 0 -747.2101)">
	<stop  offset="0" style="stop-color:#F3DFA0"/>
	<stop  offset="0.4355" style="stop-color:#EEAE54"/>
	<stop  offset="1" style="stop-color:#6C1E1E"/>
</linearGradient>
<path fill="url(#SVGID_2_)" d="M0,378.544c0,0,204.876-7.224,253.456,14.556c48.579,21.779,103.494,46.282,139.401,49.005
	c35.906,2.722,109.831-36.958,135.176-36.958c25.346,0,86.597,29.946,107.718,29.946s131.625-41.871,145.737-38.114
	c14.113,3.756,154.185,49.005,181.643,49.005s107.718,73.579,147.849,65.411c40.13-8.167,133.446-62.043,154.185-68.134
	c20.74-6.092,101.383,43.56,120.392,43.56c0,68.061,0,190.574,0,190.574H0V378.544z"/>
<g>
	<g opacity="0.7">
		<g>
			
				<radialGradient id="SVGID_3_" cx="470.7439" cy="-2807.1926" r="33.3514" gradientTransform="matrix(0 -1.2437 0.1146 0 801.3882 1015.5833)" gradientUnits="userSpaceOnUse">
				<stop  offset="0" style="stop-color:#FFFFFF"/>
				<stop  offset="0.9458" style="stop-color:#FFFFFF;stop-opacity:0"/>
			</radialGradient>
			<ellipse fill="url(#SVGID_3_)" cx="479.684" cy="430.119" rx="12.743" ry="41.505"/>
		</g>
		<g>
			
				<radialGradient id="SVGID_4_" cx="250.6235" cy="1322.4752" r="16.926" gradientTransform="matrix(1.3092 -0.8795 0.081 0.0544 44.4453 578.5999)" gradientUnits="userSpaceOnUse">
				<stop  offset="0" style="stop-color:#FFFFFF"/>
				<stop  offset="0.9458" style="stop-color:#FFFFFF;stop-opacity:0"/>
			</radialGradient>
			<path fill="url(#SVGID_4_)" d="M501.828,415.244c2.523,1.694-5.349,9.727-17.579,17.943c-12.23,8.215-24.19,13.502-26.712,11.808
				c-2.523-1.695,5.348-9.728,17.579-17.944C487.347,418.836,499.307,413.55,501.828,415.244z"/>
		</g>
		<g>
			
				<radialGradient id="SVGID_5_" cx="615.1658" cy="6848.6909" r="16.913" gradientTransform="matrix(1.3092 0.8795 -0.081 0.0544 229.0426 -483.4817)" gradientUnits="userSpaceOnUse">
				<stop  offset="0" style="stop-color:#FFFFFF"/>
				<stop  offset="0.9458" style="stop-color:#FFFFFF;stop-opacity:0"/>
			</radialGradient>
			<path fill="url(#SVGID_5_)" d="M501.828,444.995c-2.521,1.694-14.481-3.593-26.712-11.808
				c-12.231-8.216-20.102-16.249-17.579-17.943c2.522-1.695,14.481,3.591,26.714,11.807
				C496.48,435.266,504.352,443.3,501.828,444.995z"/>
		</g>
		<g>
			
				<radialGradient id="SVGID_6_" cx="310.8207" cy="5325.7588" r="33.3713" gradientTransform="matrix(1.8515 0 0 0.0769 -95.8005 20.5315)" gradientUnits="userSpaceOnUse">
				<stop  offset="0" style="stop-color:#FFFFFF"/>
				<stop  offset="0.9458" style="stop-color:#FFFFFF;stop-opacity:0"/>
			</radialGradient>
			<ellipse fill="url(#SVGID_6_)" cx="479.684" cy="430.119" rx="61.792" ry="8.559"/>
		</g>
		
			<radialGradient id="SVGID_7_" cx="353.4944" cy="1412.3179" r="23.6678" gradientTransform="matrix(1.0057 0 0 0.6755 124.3947 -523.8517)" gradientUnits="userSpaceOnUse">
			<stop  offset="0.133" style="stop-color:#FFFFFF"/>
			<stop  offset="0.9015" style="stop-color:#FFFFFF;stop-opacity:0"/>
		</radialGradient>
		<ellipse fill="url(#SVGID_7_)" cx="479.904" cy="430.169" rx="23.802" ry="15.988"/>
	</g>
	
		<radialGradient id="SVGID_8_" cx="353.4944" cy="1412.2998" r="8.772" gradientTransform="matrix(1.0057 0 0 0.6755 124.3947 -523.8517)" gradientUnits="userSpaceOnUse">
		<stop  offset="0.0985" style="stop-color:#FFFFFF"/>
		<stop  offset="0.9163" style="stop-color:#FFFFFF;stop-opacity:0"/>
	</radialGradient>
	<ellipse fill="url(#SVGID_8_)" cx="479.904" cy="430.17" rx="8.812" ry="5.919"/>
</g>
<g>
	<g opacity="0.7">
		<g>
			
				<radialGradient id="SVGID_9_" cx="665.5819" cy="-2158.7283" r="22.5696" gradientTransform="matrix(0 -1.2437 0.1146 0 974.7892 1015.5833)" gradientUnits="userSpaceOnUse">
				<stop  offset="0" style="stop-color:#FFFFFF"/>
				<stop  offset="0.9458" style="stop-color:#FFFFFF;stop-opacity:0"/>
			</radialGradient>
			<ellipse fill="url(#SVGID_9_)" cx="727.399" cy="187.799" rx="8.631" ry="28.114"/>
		</g>
		<g>
			
				<radialGradient id="SVGID_10_" cx="482.9931" cy="1113.218" r="11.4569" gradientTransform="matrix(1.3092 -0.8795 0.081 0.0544 4.8853 552.0266)" gradientUnits="userSpaceOnUse">
				<stop  offset="0" style="stop-color:#FFFFFF"/>
				<stop  offset="0.9458" style="stop-color:#FFFFFF;stop-opacity:0"/>
			</radialGradient>
			<path fill="url(#SVGID_10_)" d="M742.399,177.723c1.708,1.148-3.624,6.589-11.908,12.153c-8.284,5.565-16.385,9.146-18.093,7.998
				c-1.709-1.148,3.622-6.589,11.907-12.154C732.591,180.157,740.691,176.576,742.399,177.723z"/>
		</g>
		<g>
			
				<radialGradient id="SVGID_11_" cx="571.9949" cy="5721.9897" r="11.4554" gradientTransform="matrix(1.3092 0.8795 -0.081 0.0544 442.0037 -626.5326)" gradientUnits="userSpaceOnUse">
				<stop  offset="0" style="stop-color:#FFFFFF"/>
				<stop  offset="0.9458" style="stop-color:#FFFFFF;stop-opacity:0"/>
			</radialGradient>
			<path fill="url(#SVGID_11_)" d="M742.399,197.875c-1.708,1.147-9.81-2.434-18.094-7.998
				c-8.285-5.564-13.616-11.006-11.907-12.153c1.708-1.148,9.809,2.433,18.094,7.998
				C738.776,191.285,744.107,196.726,742.399,197.875z"/>
		</g>
		<g>
			
				<radialGradient id="SVGID_12_" cx="444.6122" cy="4380.9053" r="22.5706" gradientTransform="matrix(1.8515 0 0 0.0769 -95.8005 -149.0926)" gradientUnits="userSpaceOnUse">
				<stop  offset="0" style="stop-color:#FFFFFF"/>
				<stop  offset="0.9458" style="stop-color:#FFFFFF;stop-opacity:0"/>
			</radialGradient>
			<ellipse fill="url(#SVGID_12_)" cx="727.399" cy="187.799" rx="41.854" ry="5.797"/>
		</g>
		
			<radialGradient id="SVGID_13_" cx="599.7348" cy="1053.5673" r="16.0486" gradientTransform="matrix(1.0057 0 0 0.6755 124.3947 -523.8517)" gradientUnits="userSpaceOnUse">
			<stop  offset="0.133" style="stop-color:#FFFFFF"/>
			<stop  offset="0.9015" style="stop-color:#FFFFFF;stop-opacity:0"/>
		</radialGradient>
		<ellipse fill="url(#SVGID_13_)" cx="727.548" cy="187.833" rx="16.122" ry="10.829"/>
	</g>
	
		<radialGradient id="SVGID_14_" cx="599.7626" cy="1053.5673" r="5.9387" gradientTransform="matrix(1.0057 0 0 0.6755 124.3947 -523.8517)" gradientUnits="userSpaceOnUse">
		<stop  offset="0.0985" style="stop-color:#FFFFFF"/>
		<stop  offset="0.9163" style="stop-color:#FFFFFF;stop-opacity:0"/>
	</radialGradient>
	<ellipse fill="url(#SVGID_14_)" cx="727.548" cy="187.833" rx="5.968" ry="4.009"/>
</g>
<g>
	<g opacity="0.7">
		<g>
			
				<radialGradient id="SVGID_15_" cx="720.6185" cy="-3770.8176" r="20.2106" gradientTransform="matrix(0 -1.2437 0.1146 0 543.8971 1015.5833)" gradientUnits="userSpaceOnUse">
				<stop  offset="0" style="stop-color:#FFFFFF"/>
				<stop  offset="0.9458" style="stop-color:#FFFFFF;stop-opacity:0"/>
			</radialGradient>
			<ellipse fill="url(#SVGID_15_)" cx="111.839" cy="119.35" rx="7.717" ry="25.138"/>
		</g>
		<g>
			
				<radialGradient id="SVGID_16_" cx="286.8358" cy="-215.3226" r="10.2439" gradientTransform="matrix(1.3092 -0.8795 0.081 0.0544 -246.2258 383.3492)" gradientUnits="userSpaceOnUse">
				<stop  offset="0" style="stop-color:#FFFFFF"/>
				<stop  offset="0.9458" style="stop-color:#FFFFFF;stop-opacity:0"/>
			</radialGradient>
			<path fill="url(#SVGID_16_)" d="M125.252,110.341c1.528,1.026-3.24,5.891-10.648,10.867c-7.408,4.976-14.65,8.178-16.178,7.152
				c-1.529-1.027,3.239-5.892,10.646-10.867C116.48,112.517,123.723,109.315,125.252,110.341z"/>
		</g>
		<g>
			
				<radialGradient id="SVGID_17_" cx="298.0051" cy="6673.1489" r="10.2422" gradientTransform="matrix(1.3092 0.8795 -0.081 0.0544 262.2224 -505.7693)" gradientUnits="userSpaceOnUse">
				<stop  offset="0" style="stop-color:#FFFFFF"/>
				<stop  offset="0.9458" style="stop-color:#FFFFFF;stop-opacity:0"/>
			</radialGradient>
			<path fill="url(#SVGID_17_)" d="M125.252,128.359c-1.528,1.026-8.771-2.176-16.179-7.152s-12.174-9.841-10.646-10.867
				s8.77,2.175,16.178,7.151C122.012,122.467,126.778,127.333,125.252,128.359z"/>
		</g>
		<g>
			
				<radialGradient id="SVGID_18_" cx="112.1461" cy="4114.1641" r="20.2113" gradientTransform="matrix(1.8515 0 0 0.0769 -95.8005 -197.0065)" gradientUnits="userSpaceOnUse">
				<stop  offset="0" style="stop-color:#FFFFFF"/>
				<stop  offset="0.9458" style="stop-color:#FFFFFF;stop-opacity:0"/>
			</radialGradient>
			<ellipse fill="url(#SVGID_18_)" cx="111.838" cy="119.35" rx="37.424" ry="5.184"/>
		</g>
		
			<radialGradient id="SVGID_19_" cx="-12.3513" cy="952.2305" r="14.3339" gradientTransform="matrix(1.0057 0 0 0.6755 124.3947 -523.8517)" gradientUnits="userSpaceOnUse">
			<stop  offset="0.133" style="stop-color:#FFFFFF"/>
			<stop  offset="0.9015" style="stop-color:#FFFFFF;stop-opacity:0"/>
		</radialGradient>
		<ellipse fill="url(#SVGID_19_)" cx="111.973" cy="119.38" rx="14.415" ry="9.683"/>
	</g>
	
		<radialGradient id="SVGID_20_" cx="-12.3513" cy="952.232" r="5.307" gradientTransform="matrix(1.0057 0 0 0.6755 124.3947 -523.8517)" gradientUnits="userSpaceOnUse">
		<stop  offset="0.0985" style="stop-color:#FFFFFF"/>
		<stop  offset="0.9163" style="stop-color:#FFFFFF;stop-opacity:0"/>
	</radialGradient>
	<ellipse fill="url(#SVGID_20_)" cx="111.973" cy="119.381" rx="5.337" ry="3.585"/>
</g>
<g>
	<g opacity="0.7">
		<g>
			
				<radialGradient id="SVGID_21_" cx="492.098" cy="-725.1214" r="26.1922" gradientTransform="matrix(0 -1.2437 0.1146 0 1357.99 1015.5833)" gradientUnits="userSpaceOnUse">
				<stop  offset="0" style="stop-color:#FFFFFF"/>
				<stop  offset="0.9458" style="stop-color:#FFFFFF;stop-opacity:0"/>
			</radialGradient>
			<ellipse fill="url(#SVGID_21_)" cx="1274.829" cy="403.561" rx="10.001" ry="32.577"/>
		</g>
		<g>
			
				<radialGradient id="SVGID_22_" cx="569.3782" cy="2721.6946" r="13.2766" gradientTransform="matrix(1.3092 -0.8795 0.081 0.0544 308.9079 756.2456)" gradientUnits="userSpaceOnUse">
				<stop  offset="0" style="stop-color:#FFFFFF"/>
				<stop  offset="0.9458" style="stop-color:#FFFFFF;stop-opacity:0"/>
			</radialGradient>
			<path fill="url(#SVGID_22_)" d="M1292.211,391.885c1.98,1.33-4.199,7.635-13.798,14.083s-18.986,10.598-20.966,9.268
				c-1.981-1.33,4.197-7.635,13.797-14.084C1280.844,394.705,1290.23,390.555,1292.211,391.885z"/>
		</g>
		<g>
			
				<radialGradient id="SVGID_23_" cx="903.7205" cy="5303.0864" r="13.2745" gradientTransform="matrix(1.3092 0.8795 -0.081 0.0544 521.1817 -679.7184)" gradientUnits="userSpaceOnUse">
				<stop  offset="0" style="stop-color:#FFFFFF"/>
				<stop  offset="0.9458" style="stop-color:#FFFFFF;stop-opacity:0"/>
			</radialGradient>
			<path fill="url(#SVGID_23_)" d="M1292.211,415.236c-1.98,1.33-11.367-2.82-20.967-9.268
				c-9.601-6.448-15.778-12.753-13.797-14.083c1.979-1.33,11.366,2.819,20.967,9.267
				C1288.012,407.6,1294.19,413.906,1292.211,415.236z"/>
		</g>
		<g>
			
				<radialGradient id="SVGID_24_" cx="740.28" cy="5222.2158" r="26.1926" gradientTransform="matrix(1.8515 0 0 0.0769 -95.8005 1.9407)" gradientUnits="userSpaceOnUse">
				<stop  offset="0" style="stop-color:#FFFFFF"/>
				<stop  offset="0.9458" style="stop-color:#FFFFFF;stop-opacity:0"/>
			</radialGradient>
			<ellipse fill="url(#SVGID_24_)" cx="1274.828" cy="403.561" rx="48.5" ry="6.718"/>
		</g>
		
			<radialGradient id="SVGID_25_" cx="1144.1376" cy="1372.9855" r="18.5853" gradientTransform="matrix(1.0057 0 0 0.6755 124.3947 -523.8517)" gradientUnits="userSpaceOnUse">
			<stop  offset="0.133" style="stop-color:#FFFFFF"/>
			<stop  offset="0.9015" style="stop-color:#FFFFFF;stop-opacity:0"/>
		</radialGradient>
		<ellipse fill="url(#SVGID_25_)" cx="1275.002" cy="403.6" rx="18.683" ry="12.549"/>
	</g>
	
		<radialGradient id="SVGID_26_" cx="1144.1376" cy="1372.9679" r="6.8772" gradientTransform="matrix(1.0057 0 0 0.6755 124.3947 -523.8517)" gradientUnits="userSpaceOnUse">
		<stop  offset="0.0985" style="stop-color:#FFFFFF"/>
		<stop  offset="0.9163" style="stop-color:#FFFFFF;stop-opacity:0"/>
	</radialGradient>
	<ellipse fill="url(#SVGID_26_)" cx="1275.002" cy="403.6" rx="6.916" ry="4.646"/>
</g>
<g>
	<g opacity="0.7">
		<g>
			
				<radialGradient id="SVGID_27_" cx="709.8506" cy="-569.902" r="26.1921" gradientTransform="matrix(0 -1.2437 0.1146 0 1399.4791 1015.5833)" gradientUnits="userSpaceOnUse">
				<stop  offset="0" style="stop-color:#FFFFFF"/>
				<stop  offset="0.9458" style="stop-color:#FFFFFF;stop-opacity:0"/>
			</radialGradient>
			<ellipse fill="url(#SVGID_27_)" cx="1334.099" cy="132.742" rx="10.001" ry="32.577"/>
		</g>
		<g>
			
				<radialGradient id="SVGID_28_" cx="745.9854" cy="2084.8862" r="13.2764" gradientTransform="matrix(1.3092 -0.8795 0.081 0.0544 188.543 675.3936)" gradientUnits="userSpaceOnUse">
				<stop  offset="0" style="stop-color:#FFFFFF"/>
				<stop  offset="0.9458" style="stop-color:#FFFFFF;stop-opacity:0"/>
			</radialGradient>
			<path fill="url(#SVGID_28_)" d="M1351.481,121.066c1.979,1.33-4.199,7.635-13.798,14.083c-9.6,6.448-18.986,10.598-20.966,9.268
				c-1.981-1.33,4.196-7.635,13.797-14.084C1340.114,123.886,1349.5,119.737,1351.481,121.066z"/>
		</g>
		<g>
			
				<radialGradient id="SVGID_29_" cx="772.3519" cy="4446.7739" r="13.2774" gradientTransform="matrix(1.3092 0.8795 -0.081 0.0544 683.0356 -788.4395)" gradientUnits="userSpaceOnUse">
				<stop  offset="0" style="stop-color:#FFFFFF"/>
				<stop  offset="0.9458" style="stop-color:#FFFFFF;stop-opacity:0"/>
			</radialGradient>
			<path fill="url(#SVGID_29_)" d="M1351.481,144.418c-1.98,1.33-11.367-2.82-20.967-9.268
				c-9.601-6.448-15.778-12.753-13.797-14.083c1.98-1.33,11.366,2.819,20.967,9.267
				C1347.282,136.781,1353.46,143.087,1351.481,144.418z"/>
		</g>
		<g>
			
				<radialGradient id="SVGID_30_" cx="772.2919" cy="4166.375" r="26.1926" gradientTransform="matrix(1.8515 0 0 0.0769 -95.8005 -187.6323)" gradientUnits="userSpaceOnUse">
				<stop  offset="0" style="stop-color:#FFFFFF"/>
				<stop  offset="0.9458" style="stop-color:#FFFFFF;stop-opacity:0"/>
			</radialGradient>
			<ellipse fill="url(#SVGID_30_)" cx="1334.098" cy="132.742" rx="48.5" ry="6.718"/>
		</g>
		
			<radialGradient id="SVGID_31_" cx="1203.0743" cy="972.0692" r="18.5787" gradientTransform="matrix(1.0057 0 0 0.6755 124.3947 -523.8517)" gradientUnits="userSpaceOnUse">
			<stop  offset="0.133" style="stop-color:#FFFFFF"/>
			<stop  offset="0.9015" style="stop-color:#FFFFFF;stop-opacity:0"/>
		</radialGradient>
		<ellipse fill="url(#SVGID_31_)" cx="1334.272" cy="132.781" rx="18.683" ry="12.549"/>
	</g>
	
		<radialGradient id="SVGID_32_" cx="1203.0743" cy="972.0706" r="6.8799" gradientTransform="matrix(1.0057 0 0 0.6755 124.3947 -523.8517)" gradientUnits="userSpaceOnUse">
		<stop  offset="0.0985" style="stop-color:#FFFFFF"/>
		<stop  offset="0.9163" style="stop-color:#FFFFFF;stop-opacity:0"/>
	</radialGradient>
	<ellipse fill="url(#SVGID_32_)" cx="1334.272" cy="132.782" rx="6.916" ry="4.646"/>
</g>
<g>
	<g opacity="0.7">
		<g>
			
				<radialGradient id="SVGID_33_" cx="487.9104" cy="-2632.2126" r="19.6293" gradientTransform="matrix(0 -1.2437 0.1146 0 848.2217 1015.5833)" gradientUnits="userSpaceOnUse">
				<stop  offset="0" style="stop-color:#FFFFFF"/>
				<stop  offset="0.9458" style="stop-color:#FFFFFF;stop-opacity:0"/>
			</radialGradient>
			<ellipse fill="url(#SVGID_33_)" cx="546.588" cy="408.769" rx="7.489" ry="24.394"/>
		</g>
		<g>
			
				<radialGradient id="SVGID_34_" cx="288.3127" cy="1387.5414" r="9.9435" gradientTransform="matrix(1.3092 -0.8795 0.081 0.0544 56.7376 586.8568)" gradientUnits="userSpaceOnUse">
				<stop  offset="0" style="stop-color:#FFFFFF"/>
				<stop  offset="0.9458" style="stop-color:#FFFFFF;stop-opacity:0"/>
			</radialGradient>
			<path fill="url(#SVGID_34_)" d="M559.604,400.026c1.482,0.996-3.145,5.717-10.333,10.545s-14.217,7.935-15.699,6.94
				c-1.483-0.996,3.143-5.717,10.332-10.546C551.092,402.137,558.121,399.031,559.604,400.026z"/>
		</g>
		<g>
			
				<radialGradient id="SVGID_35_" cx="628.5567" cy="6665.9453" r="9.9407" gradientTransform="matrix(1.3092 0.8795 -0.081 0.0544 263.5841 -506.684)" gradientUnits="userSpaceOnUse">
				<stop  offset="0" style="stop-color:#FFFFFF"/>
				<stop  offset="0.9458" style="stop-color:#FFFFFF;stop-opacity:0"/>
			</radialGradient>
			<path fill="url(#SVGID_35_)" d="M559.604,417.511c-1.482,0.995-8.511-2.111-15.7-6.94c-7.189-4.828-11.815-9.55-10.332-10.545
				c1.482-0.996,8.51,2.111,15.7,6.939C556.46,411.793,561.086,416.515,559.604,417.511z"/>
		</g>
		<g>
			
				<radialGradient id="SVGID_36_" cx="346.9557" cy="5242.52" r="19.6128" gradientTransform="matrix(1.8515 0 0 0.0769 -95.8005 5.5862)" gradientUnits="userSpaceOnUse">
				<stop  offset="0" style="stop-color:#FFFFFF"/>
				<stop  offset="0.9458" style="stop-color:#FFFFFF;stop-opacity:0"/>
			</radialGradient>
			<ellipse fill="url(#SVGID_36_)" cx="546.588" cy="408.769" rx="36.316" ry="5.03"/>
		</g>
		
			<radialGradient id="SVGID_37_" cx="419.9297" cy="1380.6805" r="13.9285" gradientTransform="matrix(1.0057 0 0 0.6755 124.3947 -523.8517)" gradientUnits="userSpaceOnUse">
			<stop  offset="0.133" style="stop-color:#FFFFFF"/>
			<stop  offset="0.9015" style="stop-color:#FFFFFF;stop-opacity:0"/>
		</radialGradient>
		<ellipse fill="url(#SVGID_37_)" cx="546.718" cy="408.798" rx="13.989" ry="9.396"/>
	</g>
	
		<radialGradient id="SVGID_38_" cx="419.9488" cy="1380.6627" r="5.1494" gradientTransform="matrix(1.0057 0 0 0.6755 124.3947 -523.8517)" gradientUnits="userSpaceOnUse">
		<stop  offset="0.0985" style="stop-color:#FFFFFF"/>
		<stop  offset="0.9163" style="stop-color:#FFFFFF;stop-opacity:0"/>
	</radialGradient>
	<ellipse fill="url(#SVGID_38_)" cx="546.718" cy="408.798" rx="5.179" ry="3.479"/>
</g>
<radialGradient id="SVGID_39_" cx="566.7789" cy="1209.3475" r="302.6125" gradientTransform="matrix(1.1618 -0.0232 -0.0232 1.2311 -62.3625 -936.235)" gradientUnits="userSpaceOnUse">
	<stop  offset="0.0161" style="stop-color:#412124"/>
	<stop  offset="1" style="stop-color:#1F060C"/>
</radialGradient>
<path fill="url(#SVGID_39_)" d="M616.937,330.521c-13.327-2.101-26.695-4.003-39.979-6.334c-5.989-1.054-11.854-2.822-17.701-4.515
	c-3.471-1.003-6.76-2.623-10.2-3.745c-6.625-2.166-12.036-5.677-14.731-12.884c-0.797-2.128-2.425-3.87-3.646-5.81
	c-6.318-10.045-13.438-19.735-11.751-33.257c0.141-1.14-0.07-2.396-0.406-3.491c-1.314-4.262,0.422-7.327,3.285-10.353
	c3.028-3.194,5.679-6.795,8.491-10.219c-0.353-0.514-0.704-1.027-1.056-1.539c-8.504,4.996-16.937,10.139-25.541,14.92
	c-3.97,2.206-8.19,4.007-12.439,5.447c-4.975,1.684-10.293,2.231-15.139,4.231c-16.884,6.97-33.596,14.443-50.446,21.52
	c-3.417,1.435-7.141,1.969-10.727,2.918c-0.21-0.426-0.42-0.856-0.628-1.285c1.72-2.126,3.615-4.127,5.101-6.416
	c1.211-1.869,2.374-4.01,2.761-6.165c0.491-2.734-0.468-5.825,0.401-8.341c0.815-2.349,3.2-4.147,4.9-6.187
	c-3.155-2.45-6.769-2.009-9.096,2.167c-2.195,3.942-3.697,8.447-4.783,12.874c-1.792,7.305-8.722,14.262-15.595,15.529
	c-3.255,0.6-6.86,1.494-9.481,3.505c-10.842,8.322-23.042,13.061-35.452,17.375c-12.123,4.214-24.225,8.436-37.076,8.61
	c-5.717,0.074-11.594-0.005-17.14,1.373c-7.363,1.828-14.614,3.114-22.09,2.668c-5.863-0.348-11.75-0.432-17.616-0.722
	c-1.297-0.063-2.563-0.487-4.546-0.889c1.719-2.527,2.98-4.382,4.665-6.858c-3.673-0.898-6.7-1.635-10.032-2.451
	c-0.32-1.913-0.618-3.709-1.005-6.038c-3.547-0.124-7.222-0.249-11.371-0.387c0.927-1.789,1.57-3.027,2.43-4.685
	c-3.731-0.422-7.083-0.803-10.455-1.189c0.084-1.852,0.138-3.1,0.154-3.452c-3.159-3.072-5.784-5.62-8.347-8.112
	c1.221-1.998,1.898-3.102,2.399-3.92c-1.209-3.105-2.962-5.798-3.223-8.697c-0.373-4.21,0.333-8.577,0.632-13.853
	c0.789-3.032,1.858-7.136,2.925-11.238c0.18,0.029,0.359,0.057,0.537,0.088c0.05-1.472,0.095-2.941,0.106-3.177
	c5.455-8.956,5.469-19.577,13.123-26.626c-1.629,12.471-1.629,12.471,0.114,13.78c3.759-5.525,7.515-11.048,10.833-15.927
	c0.869-10.444-1.921-20.055,0.755-29.817c0.22-0.802,0.1-1.836-0.189-2.618c-2.594-7.079-1.025-13.609,3.287-20.085
	c-0.97-1.9-1.802-3.89-2.934-5.66c-1.453-2.28-3.22-5.443-6.2-3.557c-3.354,2.127-7.5,4.959-8.697,8.407
	c-1.954,5.634-4.478,10.524-8.268,14.821c-4.772,5.404-9.822,10.539-14.442,16.074c-1.455,1.749-1.914,4.411-2.951,6.946
	c1.549,0.244,2.597,0.407,4.738,0.744c-3.017,8.99-4.854,17.815-8.822,25.458c-5.221,10.057-9.349,20.423-12.197,31.266
	c-1.53,5.827-1.16,12.163-6.048,16.791c2.494,3.927,1.706,7.71-0.576,11.036c-2.065,3.015-2.27,5.615-0.519,8.587
	c0.474,0.806,0.459,1.944,0.766,3.38c-2.093,2.093-4.225,4.224-6.401,6.402c0.347,1.388,0.654,2.621,0.957,3.816
	c-7.482,4.473-9.308,11.904-10.383,19.718c-0.77,5.612-1.438,11.24-1.949,15.26c-4.885,3.988-8.742,6.418-11.744,9.717
	c-10.872,11.937-24.287,16.786-39.132,18.008c-3.298,0.272-6.605,0.322-9.478,0.452c-5.804,9.682-15.711,15.444-25.512,15.799
	c-7.565,0.28-14.449,2.21-16.346,11.134c-1.994,1.692-3.755,2.823-5.066,4.371c-4.872,5.758-10.665,9.654-17.407,12.672
	c-4.198,1.875-7.551,6.055-11.282,9.198c0.251,0.333,0.498,0.668,0.752,0.999c1.653-0.828,3.266-2.148,4.965-2.361
	c2.376-0.306,5.273-0.602,7.145,0.524c9.138,5.485,16.413,13.067,21.145,23.175c1.643,3.508,4.736,6.917,4.75,10.478
	c0.029,8.048-0.73,16.32-2.545,24.193c-1.413,6.135-5.062,11.744-7.42,17.71c-1.924,4.861-3.406,9.902-5.085,14.865
	c0.325,0.162,0.654,0.318,0.981,0.48c1.286-1.889,2.597-3.765,3.853-5.679c2.575-3.916,4.485-8.673,7.804-11.621
	c7.688-6.835,16.051-12.794,25.151-19.895c3.499,0.347,8.168,2.754,13.836,0.814c4.936-1.692,10.468-1.191,15.087-1.603
	c5.393,1.193,10.244,2.263,15.502,3.423c6.167,2.967,9.865,8.194,9.055,16.724c1.404-4.219,1.974-8.3,2.404-12.391
	c0.352-3.341,0.191-6.763,0.883-10.031c0.972-4.591,2.518-9.069,3.892-13.843c0.807-0.185,2.439-0.075,3.445-0.874
	c3.867-3.069,7.381-6.662,11.313-9.623c5.499-4.14,11.117-8.149,16.941-11.714c4.211-2.577,8.186-0.657,11.879,1.775
	c-3.33-5.6-6.659-11.208-10.104-17.007c0.74-1.091,1.456-2.142,2.17-3.19c-1.509-5.44-2.131-10.86-2.638-16.3
	c-0.138-1.439-0.238-3.028,0.176-4.388c2.386-7.839,4.914-15.634,7.447-23.424c0.339-1.041,0.993-1.979,1.436-2.839
	c0.716,0.128,1.079,0.067,1.243,0.234c6.827,6.761,12.124,15.473,21.691,18.734c8.339,10.017,14.625,20.524,10.553,35.448
	c-2.018,7.403-2.801,15.286-3.095,22.958c-0.213,5.601,1.284,11.206,1.98,16.487c2.472,0.142,3.892-0.004,5.181,0.332
	c5.386,1.396,10.697,3.071,16.098,4.399c15.045,3.704,24.033,14.41,28.602,29.165c2,6.453,4.263,12.472,7.356,18.362
	c2.331,4.438,5.604,6.849,9.861,7.79c4.186,0.925,8.568,1.201,12.891,1.264c2.867,0.038,5.059-1.535,5.062-5.147
	c-6.424-0.864-6.424-0.864-6.715-5.633c8.464,2.916,14.634-0.815,18.462-8.251c10.808,0.526,11.969,0.074,12.835-4.621
	c-8.322-1.822-8.322-1.822-8.419-6.072c3.759,2.056,7.129,3.892,10.497,5.745c11.622,6.382,22.898,13.57,34.935,18.986
	c18.875,8.499,38.824,13.848,59.385,16.675c3.451,0.471,5.383,2.245,6.916,5.347c1.871,3.802,4.209,7.327,6.423,11.098
	c2.1-0.929,3.352-1.63,4.675-2.046c8.643-2.714,17.224-5.778,25.971-7.934c10.701-2.638,21.549-4.485,32.324-6.729
	c1.352-0.281,2.652-0.942,3.979-1.427c-1.158-1.353-2.129-1.908-3.174-2.111c-10.335-2.049-20.75-3.778-31.006-6.169
	c-4.07-0.953-8.335-2.604-11.551-5.229c-3.751-3.063-7.616-3.99-12.015-3.347c-3.179,0.471-6.286,1.656-9.426,2.519
	c-2.214-0.712-4.254-0.431-6.28-0.052c-1.485,0.276-3.019,1.127-4.417,0.954c-5.12-0.629-10.322-1.128-15.26-2.499
	c-24.756-6.899-48.309-16.548-67.756-34.405c-9.626-8.841-19.128-17.961-27.718-27.903c-9.806-11.348-18.539-23.744-27.721-35.698
	c-0.424-0.554-0.707-1.235-1.041-1.865c-1.554-2.978-3.133-5.944-4.641-8.952c-0.703-1.408-1.221-2.923-1.896-4.348
	c-1.442-3.037-2.619-6.298-4.484-9.009c-1.905-2.767-2.878-5.21-0.905-8.454c0.507-0.824,0.599-1.919,0.916-3.004
	c-2.452-2.079-4.775-4.045-6.7-5.674c-0.197-3.224-0.357-5.772-0.491-7.962c-3.197-0.551-5.616-0.972-7.392-1.276
	c-1.866-3.485-3.339-6.228-5.223-9.745c-2.075,3.954-3.499,6.665-5.291,10.083c-2.017-1.288-3.67-2.344-5.012-3.202
	c-2.433-0.59-4.609-1.116-6.229-1.507c-0.214-3.046-0.36-5.153-0.546-7.786c3.605-5.171,7.48-9.942,15.209-10.252
	c6.114-0.244,11.319,0.051,15.713,4.631c0.959,0.997,2.525,1.36,3.433,2.386c4.571,5.189,12.257,8.158,10.826,17.512
	c0.318,0.082,0.479,0.184,0.554,0.134c0.593-0.4,1.134-0.906,1.755-1.232c5.998-3.163,11.904-6.21,18.799-3.465
	c5.414,2.159,11.098,3.607,16.624,5.479c4.718,1.598,9.517,3.05,14.012,5.163c2.386,1.123,4.19,3.529,6.283,5.324
	c4.235,3.634,8.372,7.41,12.777,10.805c2.443,1.885,5.345,3.119,8.932,5.146c1.427,2.904,3.34,7.217,5.621,11.294
	c1.902,3.401,2.905,6.813,2.195,10.894c-0.293,1.693,0.114,3.494,0.203,5.244c2.11-3.955,3.44-7.848,4.891-11.684
	c3.462-9.144,12.728-9.933,19.795-15.034c0.292,0.043,1.374,0.213,2.424,0.376c0.662-0.829,1.256-1.57,1.343-1.679
	c10.263-1.657,19.588-2.116,25.953-8.858c10.01,3.651,19.382,7.323,28.93,10.465c7.979,2.63,15.595,5.38,21.773,11.855
	c2.898,3.037,7.717,4.014,11.667,5.925c0.351-0.465,0.702-0.93,1.053-1.395c-9.04-5.43-6.158-14.808-6.818-22.019
	c4.217-7.026,10.833-11.383,11.342-18.375c2.524-1.659,4.793-2.757,6.599-4.42c4.5-4.144,8.8-8.535,13.164-12.85
	c1.446-1.431,3.465-2.677,4.141-4.439c2.345-6.087,7.149-9.282,11.962-12.609c-0.246-0.71-0.486-1.399-1.062-3.068
	c2.445,1.089,4.026,1.792,6.594,2.936c5.532-1.745,11.942-3.531,18.21-5.805c7.328-2.655,14.449-6.106,21.844-8.463
	c3.141-1,7.005-0.89,10.104,0.094c7.561,2.401,14.435-1.297,21.679-2.231C617.834,330.96,617.41,330.596,616.937,330.521z
	 M257.826,446.472c1.989,0.385,4.033,0.574,5.945,1.183c14.172,4.525,23.514,15.188,31.213,27.745
	c1.518,2.478,2.49,5.616,2.848,8.602c0.913,7.585,2.445,14.785,7.104,20.776c0.811,1.043,1.176,2.473,2.311,4.951
	c-3.697-0.532-6.267-0.9-9.623-1.385c2.888-10.376-5.744-13.308-10.35-20.337c3.532,0.233,5.887,0.393,8.239,0.549
	c0.261-0.308,0.521-0.61,0.779-0.92c-1.393-1.415-2.582-3.194-4.223-4.164c-2.87-1.705-6.162-2.654-8.999-4.41
	c-1.845-1.147-3.197-3.155-4.707-4.714c1.03-1.998,1.621-3.145,2.694-5.227c-8.781-5.968-17.539-11.92-26.615-18.094
	C255.283,449.89,256.392,448.398,257.826,446.472z"/>
<radialGradient id="SVGID_40_" cx="1269.5834" cy="1318.2347" r="255.5041" gradientTransform="matrix(1 0 0 1 0 -747.2101)" gradientUnits="userSpaceOnUse">
	<stop  offset="0.0161" style="stop-color:#412124"/>
	<stop  offset="1" style="stop-color:#1F060C"/>
</radialGradient>
<path fill="url(#SVGID_40_)" d="M1193.756,454.315c-0.551-1.147-0.934-3.687-1.553-6.728s-0.768-7.193-0.806-10.327
	c-0.04-3.135-0.531-6.691-1.369-9.725c-0.837-3.033-2.448-11.363-3.629-17.885s-2.731-11.134-3.923-15.906
	c-1.19-4.771-2.244-7.724-3.069-10.393s-1.166-4.043-1.155-5.794s0.167-11.676,0.492-16.866c0.326-5.19-0.174-8.966-0.13-11.812
	s1.399-9.823,1.723-13.044c0.315-3.151-0.246-4.857-1.395-6.34l0.788-0.877c0,0-2.187-3.007-5.412-3.991
	c1.149-1.366,0.274-2.734-0.71-2.734c-0.93-1.913-2.897-2.897-3.389-2.897c-0.145-0.38-0.518-0.844-0.961-1.296
	c0.025-0.147,0.031-0.312,0.046-0.493c0.012-0.19,0.018-0.397-0.003-0.614c-0.012-0.217-0.029-0.448-0.086-0.679
	c-0.052-0.232-0.094-0.474-0.171-0.711c-0.066-0.24-0.159-0.476-0.265-0.706c-0.093-0.233-0.206-0.458-0.29-0.689
	c-0.081-0.232-0.168-0.456-0.226-0.687c-0.076-0.223-0.137-0.448-0.229-0.642c-0.071-0.15-0.149-0.284-0.227-0.412
	c0.205-2.94-0.018-6.616-0.268-9.252c-0.382-4.045-2.787-11.699-2.787-11.699s0.079-0.441,0.182-1.118
	c0.141,0.272,0.287,0.543,0.409,0.819c0.146,0.309,0.291,0.614,0.41,0.917c0.125,0.301,0.247,0.593,0.34,0.876
	c0.096,0.283,0.203,0.547,0.267,0.801c0.072,0.252,0.138,0.483,0.197,0.687c0.045,0.208,0.084,0.389,0.117,0.538
	c0.064,0.3,0.101,0.472,0.101,0.472s-0.023-0.174-0.064-0.478c-0.021-0.152-0.046-0.336-0.076-0.548
	c-0.043-0.21-0.091-0.447-0.143-0.705c-0.045-0.261-0.132-0.533-0.206-0.827c-0.072-0.295-0.172-0.598-0.275-0.913
	c-0.096-0.316-0.218-0.635-0.341-0.96c-0.09-0.254-0.198-0.503-0.304-0.755c0.101,0.052,0.201,0.103,0.306,0.144
	c0.245,0.106,0.482,0.207,0.706,0.304c0.226,0.092,0.432,0.196,0.634,0.262c0.809,0.258,1.348,0.43,1.348,0.43
	s-0.518-0.222-1.294-0.555c-0.193-0.084-0.388-0.207-0.601-0.32c-0.211-0.116-0.433-0.238-0.664-0.365
	c-0.225-0.114-0.438-0.272-0.663-0.413c-0.03-0.065-0.059-0.129-0.089-0.194c0.149-1.055,0.306-2.388,0.359-3.565
	c0.11-2.405-1.859-2.843-1.859-2.843s0.064-1.198,0.071-2.548c0.164,0.201,0.323,0.4,0.459,0.599
	c0.172,0.245,0.35,0.467,0.484,0.692c0.14,0.221,0.269,0.423,0.383,0.602c0.103,0.187,0.193,0.349,0.267,0.483
	c0.146,0.269,0.23,0.423,0.23,0.423s-0.071-0.16-0.196-0.439c-0.064-0.14-0.141-0.31-0.229-0.504
	c-0.1-0.189-0.214-0.402-0.337-0.635c-0.117-0.237-0.277-0.474-0.432-0.734c-0.153-0.262-0.334-0.524-0.523-0.796
	c-0.033-0.05-0.07-0.1-0.105-0.15c-0.005-1.013-0.049-2.045-0.18-2.678c-0.328-1.585-1.64-2.569-2.405-3.498
	c-0.984-3.28-3.444-5.74-7.38-6.342c-1.203-0.601-4.429-0.711-4.429-0.711s-2.459-1.913-6.012-0.656
	c-1.585,0.055-3.007,0.11-3.007,0.11s-1.695,0.328-2.569,0.929c-0.875,0.601-3.062,1.64-3.827,3.061s-1.421,3.171-1.694,3.553
	c-0.274,0.383-0.055,1.585-0.055,1.585s-0.765,1.366-2.242,3.717c-1.476,2.35-1.859,3.772-1.476,5.849
	c-1.257,1.64-1.585,2.569-1.093,3.061s1.968-0.273,1.968-0.273s-2.023,4.537-3.444,8.145c-0.094,0.238-0.181,0.476-0.264,0.714
	c-0.215,0.223-0.46,0.502-0.709,0.847c-0.185,0.243-0.359,0.523-0.54,0.821c-0.161,0.309-0.322,0.641-0.463,0.994
	c-0.145,0.35-0.294,0.711-0.445,1.078c-0.158,0.364-0.318,0.735-0.478,1.105c-0.179,0.366-0.285,0.758-0.417,1.136
	c-0.121,0.381-0.19,0.769-0.284,1.139c-0.087,0.371-0.117,0.74-0.159,1.087c-0.053,0.346-0.037,0.678-0.04,0.982
	c0.004,0.305-0.019,0.583,0.019,0.83c0.001,0.007,0.001,0.013,0.002,0.021c-0.519,1.251-0.868,2.712-0.868,4.115
	c0,2.296,0.328,3.061-0.875,4.592c-1.202,1.531-2.022,3.171-0.655,6.177c-5.686,1.859-13.449,4.811-15.689,8.036
	c0.929-0.055,1.913,0.875,1.913,0.875s-1.859,2.843-1.968,7.544c-0.109,4.701,0.056,17.111,0.383,22.741
	c0.328,5.631,0.328,11.589,0.382,15.744c0.055,4.155,0.11,9.457,0.219,11.644s0.765,4.045,1.202,5.194
	c0.438,1.148,0.274,2.897,1.914,4.646c1.64,1.749,2.678,3.007,4.756,3.061c-0.219,0.656-0.164,1.749-0.164,1.749
	s-4.264,1.64-8.856,8.31c-2.132,0.219-6.177,1.859-7.818,3.334c-1.64,1.476-2.022,4.264-1.749,5.904
	c-3.281,3.28-3.608,5.412-3.827,10.223c-0.218,4.81-1.749,7.271-3.443,8.91c-1.695,1.64-7.599,7.107-7.435,9.239
	c-3.882,1.531-9.348,5.084-10.769,8.473c-1.422,3.389-2.35,7.216-3.17,8.091c-6.396,0.875-7.599,2.679-10.168,5.248
	s-3.663,3.061-7.271,4.373c-3.608,1.312-6.942,6.287-7.872,8.801c-0.929,2.515-3.007,9.785-6.287,14.322s-7.854,7.873-7.854,7.873
	s-10.496,13.12-13.995,16.181c-8.164,0-13.703-1.458-15.161,0s-7.289,3.207-9.184,5.248c-1.895,2.04-4.811,4.373-8.455,3.499
	c-3.644-0.875-2.769,2.77-1.02,2.915c1.749,0.146,8.163,1.75,12.828,5.394c4.664,3.645,13.412,9.33,13.412,9.33l-8.018,6.268
	c0,0,3.936,1.75,4.811,4.082s5.248,0.874,8.309,1.603c3.061,0.729,2.041,3.062,4.082,5.832c2.041,2.77,5.831,3.79,5.831,3.79
	l4.665-4.519c0,0,3.644,1.167,6.268,5.103c2.624,3.936,1.021,8.454,1.166,11.224c0.146,2.77,2.333,4.228,8.018,7.726
	c5.686,3.5,13.266,8.748,20.846,10.788c7.581,2.04,17.057,4.665,22.742,3.499c6.851,3.498,16.619,9.621,19.389,10.496
	c0.145,1.894-1.521,13.558-1.521,13.558s8.155,1.423,12.966,1.715c4.811,0.292,11.641-3.156,17.034-1.698
	c5.394,1.458,8.839-0.017,8.839-0.017s1.02-1.385,0.583-2.405c-0.437-1.021-1.895-1.386-1.24-2.187
	c0.656-0.802,2.479-1.677,2.479-3.061c0-1.385-0.51-3.571,0.437-5.175c0.949-1.604,2.989-8.529,3.937-15.161
	c0.947-6.633,2.843-20.336,4.592-27.99c1.749-7.653,5.175-21.867,5.175-21.867s7.326-9.402,8.965-15.307
	c1.64-5.904,0.328-27.989,0.328-27.989s1.714-9.622,3.462-14.869c1.749-5.248,2.915-9.33,3.644-10.642s5.248-26.386,5.103-45.191
	c-0.098-12.645-3.689-24.295-6.74-31.86c2.317,5.411,5.673,13.85,6.775,16.53c1.477,3.594,4.521,11.217,4.904,12.771
	c0.384,1.554,0.543,3.956,0.35,4.692s-0.26,1.905-0.158,4.783c0.103,2.877,0.452,6.511,0.387,7.753
	c-0.066,1.243-0.697,2.979-1.624,4.58s-2.236,2.742-2.977,3.425c-0.741,0.682-0.823,1.452-0.269,1.65
	c0.554,0.199,1.827,0.081,2.864-0.467c1.038-0.548,1.459-1,2.406-2.055s2.595-2.901,2.595-2.901s-1.497,3.044-2.044,4.048
	c-0.548,1.005-2.14,2.374-4.285,3.581c-0.74-0.302-2.623-0.964-2.94-0.625c-0.316,0.34-0.364,1.034,0.341,1.374
	s1.262,0.611,1.262,0.611s-1.406,0.452-1.453,1.183c-0.047,0.73,1.175,0.214,2.284,0.648c1.11,0.434,1.886,0.734,2.358,0.682
	c0.472-0.054,1.961-0.216,3.197-0.37c1.234-0.153,2.141-0.295,2.425-0.524c0.283-0.229,1.093-1.024,2.39-2.492
	c0.137,0.761-0.497,2.424-1.518,3.445s-1.931,2.075-3.061,3.1c-1.13,1.024-1.611,1.881-1.443,2.495s0.754,0.702,1.535,0.091
	s1.819-1.159,2.705-1.847c0.887-0.688,2.894-2.693,3.918-3.641c1.024-0.948,1.044-2.408,1.357-3.878s0.968-3.535,1.428-4.937
	C1194.773,456.249,1194.307,455.463,1193.756,454.315z M1122.348,305.643c0.002-0.021,0.005-0.04,0.007-0.061
	c0.035-0.296,0.052-0.617,0.112-0.952c0.061-0.334,0.083-0.692,0.151-1.057c0.07-0.364,0.12-0.746,0.212-1.124
	c0.044-0.191,0.087-0.383,0.131-0.575c0.036-0.196,0.082-0.39,0.139-0.58c0.106-0.384,0.208-0.773,0.375-1.13
	c0.144-0.366,0.333-0.705,0.531-1.023c0.186-0.324,0.411-0.611,0.583-0.904c0.193-0.281,0.346-0.564,0.517-0.808
	c0.042-0.066,0.082-0.127,0.122-0.189c-0.926,3.05-1.145,5.897-2.078,7.109C1122.866,304.717,1122.596,305.156,1122.348,305.643z
	 M1125.265,318.803c-0.113,0.148-0.219,0.287-0.318,0.416c-0.324,0.165-0.523,0.255-0.523,0.255s0.292-3.134,1.458-5.685
	c0.438-0.96,0.919-1.837,1.351-2.709c-0.051,0.583-0.1,1.166-0.162,1.737c-0.06,0.623-0.148,1.232-0.252,1.815
	c-0.103,0.584-0.233,1.142-0.39,1.658c-0.147,0.52-0.344,0.99-0.535,1.416C1125.693,318.126,1125.474,318.491,1125.265,318.803z
	 M1127.705,317.579c-0.575,0.4-1.139,0.746-1.635,1.032c0.008-0.016,0.016-0.031,0.024-0.046c0.1-0.201,0.182-0.424,0.287-0.647
	c0.185-0.456,0.353-0.96,0.505-1.496c0.154-0.537,0.275-1.111,0.398-1.704c0.227-1.188,0.409-2.461,0.572-3.729
	c0.112-0.811,0.23-1.611,0.38-2.381c0.099-0.345,0.181-0.698,0.239-1.066c0.018-0.067,0.031-0.137,0.05-0.203
	c0.252-0.946,0.57-1.792,0.927-2.514c0.001,0.024,0.001,0.047,0.002,0.071C1129.673,309.707,1129.527,313.643,1127.705,317.579z
	 M1129.422,302.271c-0.211,0.392-0.456,0.871-0.699,1.433c0.201-2.668,0.605-5.739,1.242-7.117
	C1129.965,296.587,1129.491,298.865,1129.422,302.271z M1167.749,312.75c0.094,0.153,0.197,0.307,0.298,0.472
	c0.118,0.199,0.241,0.407,0.316,0.638c0.088,0.227,0.144,0.468,0.185,0.712c0.049,0.242,0.074,0.487,0.117,0.723
	c0.05,0.234,0.072,0.469,0.101,0.695c0.037,0.225,0.047,0.444,0.078,0.649c0.031,0.206,0.054,0.402,0.067,0.584
	c0.007,0.056,0.014,0.108,0.02,0.161c-0.829-0.787-1.756-1.467-1.885-1.499C1167.403,315.137,1167.623,314.033,1167.749,312.75z"/>
<radialGradient id="SVGID_41_" cx="467.1691" cy="1026.8983" r="115.227" gradientTransform="matrix(1 0 0 1 0 -747.2101)" gradientUnits="userSpaceOnUse">
	<stop  offset="0.0161" style="stop-color:#412124"/>
	<stop  offset="1" style="stop-color:#1F060C"/>
</radialGradient>
<path fill="url(#SVGID_41_)" d="M344.143,139.126c2.17-0.674,7.255-0.782,9.061-0.282c1.806,0.501,2.385,0.997,2.782,1.378
	c0.397,0.381,1.675,1.371,2.988,2.63c1.314,1.259,2.3,1.208,3.196,1.13c0.896-0.079,4.424,2.6,4.4,2.87
	c-0.024,0.27,1.821,1.219,2.366,1.506c0.545,0.288,0.122,1.524-0.255,2.1c-0.376,0.576,0.864,1.239,1.002,2.074
	c0.137,0.835,1.508,1.973,1.497,2.901c-0.01,0.928,1.577,2.391,2.363,2.734c0.785,0.342,0.676,0.823,0.846,1.807
	c0.17,0.984,1.488,5.296,2.176,5.251c0.687-0.045,0.207,1.312-0.46,2.314s-0.264,1.682-0.424,2.583
	c-0.16,0.901-2.461,2.506-6.692,4.78c2.416-0.381,5.14-1.755,6.949-2.541s2.558-0.772,3.456-0.732
	c0.899,0.041,2.321,0.76,3.229,1.279c0.909,0.52,2.691,1.29,3.68,1.359c0.989,0.069,1.204-1.073,2.355-0.438
	c1.15,0.634,0.005,1.646,0.342,2.028s1.79,1.129,3.448,1.723c1.658,0.593,2.493,0.396,3.327,0.259
	c0.835-0.137,2.175,0.971,3.18,1.818c1.005,0.846,1.814,0.859,3.109,1.281c1.296,0.422,2.753,1.409,2.753,1.409
	s0.402,3.433-0.234,5.93c1.441-2.604,1.655-5.212,1.655-5.212s0.531-0.37,0.702-0.793c14.198,11.97,28.359,13.706,28.359,13.706
	l0.079,0.896c0,0-1.719,0.814-1.887,1.356c-0.168,0.543-1.354,1.046-2.441,0.59c-1.087-0.456-1.9,0.758-2.579,2.568
	c-0.68,1.81-2.365,1.367-3.546-0.703c-0.191,2.279-1.446,2.365-2.742,0.536c-0.627,1.51,0.797,3.694,1.88,4.031
	c1.085,0.336,2.363,1.326,3.213,1.907c0.851,0.581,3.154-0.845,4.29-0.928c1.135-0.084,2.246-1.364,2.099-2.678
	c-0.148-1.314,1.143-2.538,2.826-2.214c-0.988,1.397,1.715,4.692,3.276,4.899c1.56,0.206,1.871,0.738,2.631,2.757
	c-0.279-1.909,2.081-3.515,3.514-3.665c1.434-0.15,1.579-1.769,1.661-3.566s3.189-1.983,4.901-0.343
	c1.71,1.639,2.417,3.958,2.478,6.83c3.094-3.716,4.759-7.043,5.518-10.77s1.816-4.706,3.851-7.562
	c2.034-2.856,5.855-3.296,8.538-3.771c2.684-0.476,2.926-3.174,4.227-3.92c1.301-0.745,2.207-0.346,5.88-2.099
	c3.674-1.753,7.628-4.411,9.998-5.538s7.849-2.44,12.266-3.012c4.417-0.572,17.701-3.546,21.458-4.164s6.924-0.865,8.353-1.254
	c1.428-0.389,3.177,0.233,3.431,0.945c0.255,0.713,2.064,4.206,2.034,5.583c-0.031,1.377-0.767,3.368,3.053,8.554
	c-0.687-1.362-0.391-4.36-0.48-5.735s0.556-2.047-0.12-2.81c-0.675-0.764-1.507-3.32-1.766-4.272
	c-0.26-0.952,0.461-3.661,0.461-3.661s11.433,0.059,15.033,0.461c3.599,0.403,10.715,0.073,14.617,0.649
	c3.903,0.576,10.219,2.058,13.536,3.245s6.165,2.863,8.744,5.921c-0.242-2.928-3.525-5.372-4.017-5.96
	c-0.491-0.588-1.756-0.98-3.036-2.09s-1.305-2.307-0.863-3.992c0.443-1.685,1.591-1.171,4.185-0.208
	c2.594,0.962,10.98,1.264,13.136,1.338c2.156,0.074,3.031,1.851,3.8,4.229c0.626-1.509,0.215-4.014-0.837-5.608
	c-1.051-1.594-3.024-1.493-5.361-1.623c-2.338-0.13-8.177-1.742-10.346-2.415c-2.169-0.673-4.503-0.683-13.393,0.642
	c-7.296-2.539-22.104-3.723-23.593-3.392c-1.49,0.33-3.887-2.671-5.025-2.707c-1.139-0.036-1.525,1.469-3.122,2.4
	c-1.596,0.931-5.692,2.514-9.356,4.746c-3.663,2.232-6.998,0.207-10.348-2.535c-1.726,0.455-6.043,0.068-8.25-2.399
	c-1.19,0.384-3.531,0.015-6.069-1.129c-0.817,0.975-3.096,0.784-3.951,2.777c0.874-1.156,2.434-0.95,3.167-0.246
	c0.733,0.703-0.28,0.904-1.413,1.107c-1.133,0.204-2.485,1.369-3.595,2.65c-1.11,1.28-2.546,1.311-4.689,1.835
	c-2.144,0.524-5.005,1.063-7.874,1.244c-2.869,0.18-5.601-1.618-5.955-1.371s0.382,1.069,0.585,2.202
	c0.204,1.133-1.578,1.769-1.578,1.769s0.025,1.196-0.68,1.81c-0.706,0.613-2.19,1.183-2.19,1.183s-0.752,1.273-2.565,3.286
	s-4.341,4.162-5.313,3.464c-0.973-0.698-4.289-1.885-5.027-2.827s-0.179-2.749,1.09-5.05c-1.126,0.562-3.188,2.102-3.725,2.174
	c-0.537,0.071-0.494-0.708,0.181-2.757c-1.547,0.392-2.668,4.007-3.562,4.205c-0.893,0.198-1.102-1.173-1.01-2.492
	s0.513-6.894-0.253-9.152c-0.512,1.268-0.836,2.95-0.836,2.95l-0.982-1.176l-1.572,7.754c0,0-1.527-1.464-2.118-1.092
	c1.291,1.589-0.225,3.535-0.225,3.535s-2.14-2.169-4.503-3.496c0.858,0.939,0.763,2.138,0.318,3.704
	c-0.446,1.565-1.103,1.639-3.898,2.476c-2.795,0.838-4.323,2.187-4.323,2.187s-0.338-1.849-1.186-2.309
	c-0.212,4.134-3.706,3.011-3.706,3.011s-1.402-1.168-3.227-2.565c-1.825-1.398-2.945-3.409-3.634-4.891
	c-0.69-1.482-2.017-1.992-4.25-2.843s-6.473-4.682-9.489-7.222s-4.851-4.416-5.75-5.864c-0.898-1.447-1.665-5.172-1.847-6.694
	c-0.182-1.522-1.236-1.829-1.798-1.548c-0.562,0.281-1.824-1.338-2.68-2.218c-0.857-0.879-1.09-3.448-1.073-4.077
	c0.016-0.629-1.838-0.589-2.7-0.302s-0.969-0.519-1.746-1.909s-0.708-2.379-1.666-2.359c-0.957,0.02-2.357-2.494-3.609-3.694
	s-1.915-4.239-2.169-4.892c-0.253-0.653-2.004-1.394-4.019-1.86s-3.147-3.076-3.994-4.883c-0.846-1.808-2.772-2.305-6.226-2.921
	c2.621,0.813,2.806,2.515,2.891,3.71c0.086,1.195-1.519,3.174-2.341,5.377c-0.821,2.202-5.323,5.798-7.521,8.029
	c-2.197,2.231-6.262,2.496-8.582,3.144c-2.321,0.647-5.794,0.541-8.23-0.036C353.606,136.592,350.115,137.055,344.143,139.126z
	 M412.998,178.64c0.422,0.171,1.129,1.024,1.654,0.354c0.524-0.67,1.304-2.033,2.058-1.72c0.755,0.313,1.277,0.931,2.024,0.885
	c0.747-0.046,1.021,0.158,1.73-0.276s1.138,0.036,2.607,0.154c1.469,0.119,1.893,0.349,2.436,0.577s2.1,0.255,3.16,0.861
	c1.06,0.606,1.73,1.131,2.421,2.672c0.294-1.653,1.212-2.121,2.292-1.964c1.081,0.157,2.208-0.286,2.208-0.286
	s1.239,1.949,2.119,2.558c0.881,0.61,2.578,0.185,2.578,0.185s0.155,1.672-0.968,2.354s-14.432,3.866-27.635-4.923
	C411.682,180.075,412.576,178.47,412.998,178.64z"/>
<radialGradient id="SVGID_42_" cx="1152.3691" cy="1211.9896" r="349.1863" gradientTransform="matrix(1 0 0 1 0 -747.2101)" gradientUnits="userSpaceOnUse">
	<stop  offset="0.0161" style="stop-color:#412124"/>
	<stop  offset="1" style="stop-color:#1F060C"/>
</radialGradient>
<path fill="url(#SVGID_42_)" d="M1331.788,275.112c-2.729-6.425-6.195-12.687-9.504-16.822c-3.306-4.135-14.374-13.349-18.62-18.592
	c-4.247-5.244-7.599-6.432-15.402-9.96c-7.806-3.53-21.499-9.234-34.215-11.911c-12.71-2.674-73.337-18.793-81.835-23.714
	c-0.896-3.354-5.879-7.737-5.588-10.271c0.29-2.534,2.138-9.199,3.824-14.512c1.682-5.315,3.122-8.953,4.68-10.997
	c1.554-2.041,1.726-7.563,1.726-7.563s0.954-7.931,0.916-10.548c-0.038-2.619-4.862-3.482-4.862-3.482s-1.839-2.376-3.636-2.829
	c-1.798-0.452-3.112,1.304-5.325,5.962c-2.216,4.661-2.016,8.709,0.516,11.087c-0.54,6.992-6.043,20.561-9.811,24.48
	c-3.77,3.921-6.997,3.629-8.058,0.927c-1.058-2.7-4.946-1.765-9.481-3.078c-4.538-1.315-9.912-8.289-30.932-27.949
	c-21.02-19.659-47.039-50.778-82.455-68.495c-35.414-17.718-77.08-14.288-77.08-14.288c16.684,0.952,48.182,13.973,51.554,19.922
	c12.368,7.055,34.419,28.129,37.535,60.902c17.226,4.334,27.555,24.088,27.51,56.53c23.199-18.504,49.342,3.833,53.039,9.401
	c3.7,5.568,0.034,16.467-1.939,20.61c-1.969,4.137-12.787,19.503-17.6,29.419c-4.81,9.913-11.217,27.083-19.572,38.193
	c-8.362,11.112-26.953,10.375-65.058,4.27c48.939,17.406,64.933,5.434,74.112-6.166c9.175-11.6,17.269-28.11,23.771-37.372
	c6.502-9.258,16.118-23.531,16.118-23.531s3.299-0.212,3.541,2.051c0.245,2.262-3.606,6.045-4.866,10.133
	c-1.26,4.089-1.86,3.241-2.76,5.447c-0.906,2.209,0.944,4.994,1.322,6.712c0.38,1.718-3.63,4.302-3.63,4.302
	s2.724,0.688,4.582-0.238c0.104,1.884-1.972,5.067-4.703,6.698c1.198,0.304,3.901-0.756,5.154-2.062
	c0.191,1.556-0.028,3.351-3.03,5.61c4.936-0.729,7.366-3.942,7.971-6.804c0.605-2.861-1.031-4.199-1.031-4.199
	s1.45-3.924,1.263-5.944c-0.188-2.017-3.243-1.856-3.347-4.201c-0.108-2.345,6.091-9.016,9.259-12.392
	c3.167-3.378,4.291-6.685,5.818-16.214c28.163,7.608,29.615,21.88,26.735,34.717c30.277-10.463,50.435-7.654,55.007-2.332
	c8.512-4.118,24.179-7.654,38.818-5.709c14.634,1.94,30.286,10.921,30.286,10.921s13.288,3.167,22.845,9.396
	c9.562,6.23,23.684,24.736,23.684,24.736S1334.518,281.541,1331.788,275.112z"/>
<g>
	<path fill="#1F060C" d="M1171.089,660.689c-21.844-14.887-15.45-33-21.275-33c-5.824,0-108.21,5.429-108.21,5.429
		s-32.038-25.31-52.426-38.709c-15.151-9.956-34.331-16.624-58.12-22.447c-4.348-10.068-16.149-19.694-16.149-19.694l13.297,19.01
		c-6.222-1.484-12.755-2.921-19.604-4.347l-9.157-15.251c0,0,3.046,8.1,7.556,14.917c-0.766-0.157-1.512-0.316-2.285-0.474
		c-3.244-0.663-6.548-1.154-9.898-1.511c-3.798-12.64-19.676-19.398-19.676-19.398l16.619,19.115c-1.241-0.1-2.489-0.184-3.742-0.25
		l-7.905-9.461c0,0,1.528,4.581,5.595,9.362c-3.606-0.129-7.258-0.128-10.948-0.022l-6.247-16.392c0,0,0.005,8.951,4.195,16.454
		c-2.334,0.092-4.685,0.223-7.045,0.385c-3.304-9.912-15.93-20.366-15.93-20.366l14.783,20.448c-2.174,0.158-4.357,0.343-6.55,0.548
		l-12.653-13.943c0,0,3.376,8.768,10.43,14.161c-23.438,2.336-47.671,6.826-70.442,6.826c-15.663,0-30.395-0.946-43.655-2.366
		c-1.928-8.878-10.668-20.971-10.668-20.971l9.561,20.852c-6.809-0.746-13.216-1.617-19.154-2.545
		c4.216-6.56,4.622-13.017,4.622-13.017l-5.639,12.428c-2.67-3.044-5.861-6.359-8.744-8.578c2.814-5.27-1.635-9.727-1.635-9.727
		l-2.998,6.605c-1.861-1.351-3.924-3.062-5.907-4.808l5.667,5.338l-3.825,8.43c-3.421-0.704-6.558-1.399-9.367-2.062
		c-1.09-0.257-2.297-0.432-3.588-0.548c-1.499-1.939-3.095-3.854-4.694-5.676c0.118-4.547-1.248-7.279-1.248-7.279l-0.784,5.01
		c-5.678-6.22-10.815-10.887-10.815-10.887l10.408,13.481l-0.775,4.946l-11.451-8.029c-0.895-1.717-1.495-2.758-1.495-2.758
		l1.134,2.504l-7.761-5.442c0,0,3.348,2.672,8.081,6.15l3.98,8.794c-2.655,0.383-5.442,0.87-8.311,1.433
		c-10.207-11.943-25.843-19.903-25.843-19.903l22.051,20.678c-2.203,0.471-4.442,0.98-6.711,1.521l-14.236-15.147
		c0,0,3.532,8.626,11.99,15.692c-5.788,1.419-11.7,3.013-17.492,4.643c-0.844-1.765-1.817-3.541-2.879-5.295
		c0.94-8.408-3.219-16.216-3.219-16.216l-2.17,8.311c-5.793-7.721-11.639-13.6-11.639-13.6l10.852,16.615l-1.715,6.571l-8.584-6.73
		c0,0,3.17,3.571,8.299,7.819l-1.611,6.168c-2.426,0.709-4.795,1.404-7.073,2.069l-12.871-18.995c0,0,3.747,9.959,11.545,19.381
		c-5.435,1.583-10.356,2.99-14.434,4.036c1.656-9.788-5.397-16.365-5.397-16.365l3.705,16.755c-3.558,0.78-7.876,1.327-12.756,1.688
		c-2.018-17.107-17.462-31.961-17.462-31.961l16.332,32.039c-2.188,0.147-4.479,0.261-6.859,0.343
		c-4.876-10.183-11.131-18.276-11.131-18.276l10.687,18.292c-9.181,0.301-19.601,0.16-30.232-0.175l-15.253-18.117
		c0,0,2.584,8.851,11.055,17.975c-10.231-0.365-20.514-0.874-29.931-1.308c-3.179-4.186-5.98-7.852-5.98-7.852l5.961,7.851
		c-10.254-0.472-19.478-0.853-26.468-0.853c-27.669,0-147.205-7.444-163.224,1.49C307.53,591.434,5.409,603.344,5.409,603.344
		L0,677.23h1211.612C1173.664,668.851,1179.861,666.669,1171.089,660.689z M710.823,559.122l7.978,7.513
		c-5.141-0.837-9.898-1.712-14.221-2.581C707.625,562.429,709.605,560.752,710.823,559.122z M686.854,560.96
		c-0.785-0.009-1.597,0-2.432,0.028c0.23-0.85,0.425-1.679,0.555-2.46L686.854,560.96z M671.01,553.452
		c3.261,2.388,7.127,5.116,10.995,7.613l-0.007,0.046c-2.246,0.154-4.638,0.416-7.144,0.771
		C673.542,558.599,672.115,555.617,671.01,553.452z M631.262,571.955c0.482-0.962,0.858-1.939,1.153-2.923l1.555,2.38
		c-0.834,0.238-1.668,0.474-2.494,0.711L631.262,571.955z"/>
	<path fill="#1F060C" d="M701.084,549.949l-8.77-8.26C692.314,541.689,696.468,545.888,701.084,549.949z"/>
</g>
<g id="Layer_2">
</g>
</svg>
