<?xml version="1.0" encoding="utf-8"?>
<!-- Generator: Adobe Illustrator 21.0.0, SVG Export Plug-In . SVG Version: 6.00 Build 0)  -->
<svg version="1.1" id="Layer_1" xmlns="http://www.w3.org/2000/svg" xmlns:xlink="http://www.w3.org/1999/xlink" x="0px" y="0px"
	 viewBox="0 0 734 973" style="enable-background:new 0 0 734 973;" xml:space="preserve">
    <script src="https://ajax.googleapis.com/ajax/libs/jquery/3.2.1/jquery.min.js"></script>
<style type="text/css">
	.st0{fill:url(#SVGID_1_);}
	.st1{opacity:0.7;}
	.st2{fill:url(#SVGID_2_);}
	.st3{fill:url(#SVGID_3_);}
	.st4{fill:url(#SVGID_4_);}
	.st5{fill:url(#SVGID_5_);}
	.st6{fill:url(#SVGID_6_);}
	.st7{fill:url(#SVGID_7_);}
	.st8{fill:url(#SVGID_8_);}
	.st9{fill:url(#SVGID_9_);}
	.st10{fill:url(#SVGID_10_);}
	.st11{fill:url(#SVGID_11_);}
	.st12{fill:url(#SVGID_12_);}
	.st13{fill:url(#SVGID_13_);}
	.st14{fill:url(#SVGID_14_);}
	.st15{fill:url(#SVGID_15_);}
	.st16{fill:url(#SVGID_16_);}
	.st17{fill:url(#SVGID_17_);}
	.st18{fill:url(#SVGID_18_);}
	.st19{fill:url(#SVGID_19_);}
	.st20{fill:url(#SVGID_20_);}
	.st21{fill:url(#SVGID_21_);}
	.st22{fill:url(#SVGID_22_);}
	.st23{fill:url(#SVGID_23_);}
	.st24{fill:url(#SVGID_24_);}
	.st25{fill:url(#SVGID_25_);}
	.st26{fill:url(#SVGID_26_);}
	.st27{fill:url(#SVGID_27_);}
	.st28{fill:url(#SVGID_28_);}
	.st29{fill:url(#SVGID_29_);}
	.st30{fill:url(#SVGID_30_);}
	.st31{fill:url(#SVGID_31_);}
	.st32{fill:url(#SVGID_32_);}
	.st33{fill:url(#SVGID_33_);}
	.st34{fill:url(#SVGID_34_);}
	.st35{fill:url(#SVGID_35_);}
	.st36{fill:url(#SVGID_36_);}
	.st37{fill:url(#SVGID_37_);}
	.st38{fill:url(#SVGID_38_);}
	.st39{fill:#1F060C;}
	.st40{fill:url(#SVGID_39_);}
</style>
<linearGradient id="SVGID_1_" gradientUnits="userSpaceOnUse" x1="367" y1="-400.0969" x2="367" y2="510.8371" gradientTransform="matrix(1 0 0 -1 0 496)">
	<stop  offset="1.610000e-02" style="stop-color:#F3DFA0"/>
	<stop  offset="0.2043" style="stop-color:#EEAE54"/>
	<stop  offset="0.5269" style="stop-color:#CB4C4C"/>
	<stop  offset="0.5959" style="stop-color:#AB3F40"/>
	<stop  offset="0.735" style="stop-color:#6F272A"/>
	<stop  offset="0.8537" style="stop-color:#44151A"/>
	<stop  offset="0.9457" style="stop-color:#290A10"/>
	<stop  offset="1" style="stop-color:#1F060C"/>
</linearGradient>
<rect class="st0" width="734" height="972.4"/>
<g>
	<g class="st1">
		<g>
			
				<radialGradient id="SVGID_2_" cx="4.097" cy="-1541.0756" r="30.2056" gradientTransform="matrix(0 -1.7483 -6.710000e-02 0 160.1662 395.3128)" gradientUnits="userSpaceOnUse">
				<stop  offset="0" style="stop-color:#FFFFFF"/>
				<stop  offset="0.9458" style="stop-color:#FFFFFF;stop-opacity:0"/>
			</radialGradient>
			<path class="st2" d="M263.5,335.3c3.7,0,6.8,23.6,6.8,52.8s-3,52.9-6.8,52.9c-3.7,0-6.8-23.6-6.8-52.9
				C256.8,359,259.8,335.3,263.5,335.3z"/>
		</g>
		<g>
			
				<radialGradient id="SVGID_3_" cx="-28.1297" cy="526.8375" r="15.3209" gradientTransform="matrix(0.7665 -1.2363 -4.740000e-02 -7.650000e-02 310.1303 393.6009)" gradientUnits="userSpaceOnUse">
				<stop  offset="0" style="stop-color:#FFFFFF"/>
				<stop  offset="0.9458" style="stop-color:#FFFFFF;stop-opacity:0"/>
			</radialGradient>
			<path class="st3" d="M275.3,369.2c1.4,2.1-2.8,12.4-9.3,22.9c-6.5,10.4-12.8,17.2-14.2,15s2.8-12.4,9.3-22.9
				C267.6,373.8,273.9,367.1,275.3,369.2z"/>
		</g>
		<g>
			
				<radialGradient id="SVGID_4_" cx="-94.5484" cy="2533.7212" r="15.3288" gradientTransform="matrix(0.7665 1.2363 4.740000e-02 -7.650000e-02 215.791 698.7193)" gradientUnits="userSpaceOnUse">
				<stop  offset="0" style="stop-color:#FFFFFF"/>
				<stop  offset="0.9458" style="stop-color:#FFFFFF;stop-opacity:0"/>
			</radialGradient>
			<path class="st4" d="M275.3,407.1c-1.4,2.1-7.7-4.6-14.2-15s-10.7-20.7-9.3-22.9s7.7,4.6,14.2,15
				C272.4,394.7,276.6,405,275.3,407.1z"/>
		</g>
		<g>
			
				<radialGradient id="SVGID_5_" cx="-68.6603" cy="2215.4092" r="30.2372" gradientTransform="matrix(1.0839 0 0 -0.1082 337.9209 627.6894)" gradientUnits="userSpaceOnUse">
				<stop  offset="0" style="stop-color:#FFFFFF"/>
				<stop  offset="0.9458" style="stop-color:#FFFFFF;stop-opacity:0"/>
			</radialGradient>
			<ellipse class="st5" cx="263.5" cy="388.2" rx="32.8" ry="10.9"/>
		</g>
		
			<radialGradient id="SVGID_6_" cx="303.622" cy="124.7057" r="21.4106" gradientTransform="matrix(0.5887 0 0 -0.9496 84.9157 506.6206)" gradientUnits="userSpaceOnUse">
			<stop  offset="0.133" style="stop-color:#FFFFFF"/>
			<stop  offset="0.9015" style="stop-color:#FFFFFF;stop-opacity:0"/>
		</radialGradient>
		<ellipse class="st6" cx="263.7" cy="388.2" rx="12.6" ry="20.4"/>
	</g>
	
		<radialGradient id="SVGID_7_" cx="303.5813" cy="124.6888" r="7.9397" gradientTransform="matrix(0.5887 0 0 -0.9496 84.9157 506.6206)" gradientUnits="userSpaceOnUse">
		<stop  offset="9.849999e-02" style="stop-color:#FFFFFF"/>
		<stop  offset="0.9163" style="stop-color:#FFFFFF;stop-opacity:0"/>
	</radialGradient>
	<ellipse class="st7" cx="263.7" cy="388.2" rx="4.7" ry="7.5"/>
</g>
<g>
	<g class="st1">
		<g>
			
				<radialGradient id="SVGID_8_" cx="23.2871" cy="-1979.7863" r="20.4787" gradientTransform="matrix(0 -1.7483 -6.710000e-02 0 252.1343 395.3128)" gradientUnits="userSpaceOnUse">
				<stop  offset="0" style="stop-color:#FFFFFF"/>
				<stop  offset="0.9458" style="stop-color:#FFFFFF;stop-opacity:0"/>
			</radialGradient>
			<ellipse class="st8" cx="384.9" cy="354.6" rx="4.6" ry="35.8"/>
		</g>
		<g>
			
				<radialGradient id="SVGID_9_" cx="64.6318" cy="-975.9338" r="10.3791" gradientTransform="matrix(0.7665 -1.2363 -4.740000e-02 -7.650000e-02 289.1485 359.7578)" gradientUnits="userSpaceOnUse">
				<stop  offset="0" style="stop-color:#FFFFFF"/>
				<stop  offset="0.9458" style="stop-color:#FFFFFF;stop-opacity:0"/>
			</radialGradient>
			<path class="st9" d="M392.9,341.8c0.9,1.5-1.9,8.4-6.3,15.5s-8.7,11.7-9.6,10.2s1.9-8.4,6.3-15.5
				C387.7,344.9,392,340.3,392.9,341.8z"/>
		</g>
		<g>
			
				<radialGradient id="SVGID_10_" cx="-28.9572" cy="1651.2043" r="10.3866" gradientTransform="matrix(0.7665 1.2363 4.740000e-02 -7.650000e-02 328.7408 516.5343)" gradientUnits="userSpaceOnUse">
				<stop  offset="0" style="stop-color:#FFFFFF"/>
				<stop  offset="0.9458" style="stop-color:#FFFFFF;stop-opacity:0"/>
			</radialGradient>
			<path class="st10" d="M392.9,367.4c-0.9,1.5-5.2-3.1-9.6-10.2s-7.2-14-6.3-15.5c0.9-1.5,5.2,3.1,9.6,10.2
				S393.8,365.9,392.9,367.4z"/>
		</g>
		<g>
			
				<radialGradient id="SVGID_11_" cx="43.3427" cy="528.9277" r="20.4795" gradientTransform="matrix(1.0839 0 0 -0.1082 337.9209 411.6616)" gradientUnits="userSpaceOnUse">
				<stop  offset="0" style="stop-color:#FFFFFF"/>
				<stop  offset="0.9458" style="stop-color:#FFFFFF;stop-opacity:0"/>
			</radialGradient>
			<ellipse class="st11" cx="384.9" cy="354.6" rx="22.2" ry="7.4"/>
		</g>
		
			<radialGradient id="SVGID_12_" cx="509.6915" cy="160.0891" r="14.5415" gradientTransform="matrix(0.5887 0 0 -0.9496 84.9157 506.6206)" gradientUnits="userSpaceOnUse">
			<stop  offset="0.133" style="stop-color:#FFFFFF"/>
			<stop  offset="0.9015" style="stop-color:#FFFFFF;stop-opacity:0"/>
		</radialGradient>
		<ellipse class="st12" cx="385" cy="354.6" rx="8.5" ry="13.8"/>
	</g>
	
		<radialGradient id="SVGID_13_" cx="509.6914" cy="160.1059" r="5.3701" gradientTransform="matrix(0.5887 0 0 -0.9496 84.9157 506.6206)" gradientUnits="userSpaceOnUse">
		<stop  offset="9.849999e-02" style="stop-color:#FFFFFF"/>
		<stop  offset="0.9163" style="stop-color:#FFFFFF;stop-opacity:0"/>
	</radialGradient>
	<ellipse class="st13" cx="385" cy="354.6" rx="3.2" ry="5.1"/>
</g>
<g>
	<g class="st1">
		<g>
			
				<radialGradient id="SVGID_14_" cx="73.1641" cy="-519.3108" r="18.3101" gradientTransform="matrix(0 -1.7483 -6.710000e-02 0 23.5985 395.3128)" gradientUnits="userSpaceOnUse">
				<stop  offset="0" style="stop-color:#FFFFFF"/>
				<stop  offset="0.9458" style="stop-color:#FFFFFF;stop-opacity:0"/>
			</radialGradient>
			<ellipse class="st14" cx="58.4" cy="267.4" rx="4.1" ry="32"/>
		</g>
		<g>
			
				<radialGradient id="SVGID_15_" cx="-113.0837" cy="227.6457" r="9.2903" gradientTransform="matrix(0.7665 -1.2363 -4.740000e-02 -7.650000e-02 155.9647 144.9359)" gradientUnits="userSpaceOnUse">
				<stop  offset="0" style="stop-color:#FFFFFF"/>
				<stop  offset="0.9458" style="stop-color:#FFFFFF;stop-opacity:0"/>
			</radialGradient>
			<path class="st15" d="M65.6,255.9c0.8,1.3-1.7,7.5-5.7,13.9c-3.9,6.3-7.8,10.4-8.6,9.1c-0.8-1.3,1.7-7.5,5.7-13.9
				C60.9,258.7,64.8,254.6,65.6,255.9z"/>
		</g>
		<g>
			
				<radialGradient id="SVGID_16_" cx="-277.1874" cy="789.4382" r="9.2753" gradientTransform="matrix(0.7665 1.2363 4.740000e-02 -7.650000e-02 233.3888 670.3346)" gradientUnits="userSpaceOnUse">
				<stop  offset="0" style="stop-color:#FFFFFF"/>
				<stop  offset="0.9458" style="stop-color:#FFFFFF;stop-opacity:0"/>
			</radialGradient>
			<path class="st16" d="M65.6,278.9c-0.8,1.3-4.7-2.8-8.6-9.1c-3.9-6.3-6.5-12.6-5.7-13.9s4.7,2.8,8.6,9.1
				C63.8,271.3,66.4,277.5,65.6,278.9z"/>
		</g>
		<g>
			
				<radialGradient id="SVGID_17_" cx="-257.8844" cy="770.6948" r="18.3138" gradientTransform="matrix(1.0839 0 0 -0.1082 337.9209 350.6399)" gradientUnits="userSpaceOnUse">
				<stop  offset="0" style="stop-color:#FFFFFF"/>
				<stop  offset="0.9458" style="stop-color:#FFFFFF;stop-opacity:0"/>
			</radialGradient>
			<ellipse class="st17" cx="58.4" cy="267.4" rx="19.9" ry="6.6"/>
		</g>
		
			<radialGradient id="SVGID_18_" cx="-44.8712" cy="251.9172" r="12.978" gradientTransform="matrix(0.5887 0 0 -0.9496 84.9157 506.6206)" gradientUnits="userSpaceOnUse">
			<stop  offset="0.133" style="stop-color:#FFFFFF"/>
			<stop  offset="0.9015" style="stop-color:#FFFFFF;stop-opacity:0"/>
		</radialGradient>
		<ellipse class="st18" cx="58.5" cy="267.4" rx="7.6" ry="12.3"/>
	</g>
	
		<radialGradient id="SVGID_19_" cx="-44.8712" cy="251.8961" r="4.8111" gradientTransform="matrix(0.5887 0 0 -0.9496 84.9157 506.6206)" gradientUnits="userSpaceOnUse">
		<stop  offset="9.849999e-02" style="stop-color:#FFFFFF"/>
		<stop  offset="0.9163" style="stop-color:#FFFFFF;stop-opacity:0"/>
	</radialGradient>
	<ellipse class="st19" cx="58.5" cy="267.4" rx="2.8" ry="4.6"/>
</g>
<g>
	<g class="st1">
		<g>
			
				<radialGradient id="SVGID_20_" cx="-133.837" cy="-3278.5149" r="23.6991" gradientTransform="matrix(0 -1.7483 -6.710000e-02 0 455.3755 395.3128)" gradientUnits="userSpaceOnUse">
				<stop  offset="0" style="stop-color:#FFFFFF"/>
				<stop  offset="0.9458" style="stop-color:#FFFFFF;stop-opacity:0"/>
			</radialGradient>
			<ellipse class="st20" cx="675.3" cy="629.3" rx="5.3" ry="41.5"/>
		</g>
		<g>
			
				<radialGradient id="SVGID_21_" cx="142.8935" cy="-2433.1758" r="12.0314" gradientTransform="matrix(0.7665 -1.2363 -4.740000e-02 -7.650000e-02 450.3954 619.8448)" gradientUnits="userSpaceOnUse">
				<stop  offset="0" style="stop-color:#FFFFFF"/>
				<stop  offset="0.9458" style="stop-color:#FFFFFF;stop-opacity:0"/>
			</radialGradient>
			<path class="st21" d="M684.4,614.5c1.1,1.7-2.2,9.7-7.3,17.9S667,645.9,666,644.2c-1.1-1.7,2.2-9.7,7.3-17.9
				S683.4,612.8,684.4,614.5z"/>
		</g>
		<g>
			
				<radialGradient id="SVGID_22_" cx="271.5773" cy="2030.6907" r="12.0273" gradientTransform="matrix(0.7665 1.2363 4.740000e-02 -7.650000e-02 370.7351 448.7986)" gradientUnits="userSpaceOnUse">
				<stop  offset="0" style="stop-color:#FFFFFF"/>
				<stop  offset="0.9458" style="stop-color:#FFFFFF;stop-opacity:0"/>
			</radialGradient>
			<path class="st22" d="M684.4,644.2c-1.1,1.7-6-3.6-11.1-11.8s-8.4-16.2-7.3-17.9s6,3.6,11.1,11.8
				C682.3,634.5,685.5,642.6,684.4,644.2z"/>
		</g>
		<g>
			
				<radialGradient id="SVGID_23_" cx="311.2641" cy="-233.182" r="23.7308" gradientTransform="matrix(1.0839 0 0 -0.1082 337.9209 604.0128)" gradientUnits="userSpaceOnUse">
				<stop  offset="0" style="stop-color:#FFFFFF"/>
				<stop  offset="0.9458" style="stop-color:#FFFFFF;stop-opacity:0"/>
			</radialGradient>
			<ellipse class="st23" cx="675.3" cy="629.3" rx="25.7" ry="8.6"/>
		</g>
		
			<radialGradient id="SVGID_24_" cx="1002.861" cy="-129.296" r="16.8621" gradientTransform="matrix(0.5887 0 0 -0.9496 84.9157 506.6206)" gradientUnits="userSpaceOnUse">
			<stop  offset="0.133" style="stop-color:#FFFFFF"/>
			<stop  offset="0.9015" style="stop-color:#FFFFFF;stop-opacity:0"/>
		</radialGradient>
		<ellipse class="st24" cx="675.3" cy="629.4" rx="9.9" ry="16"/>
	</g>
	
		<radialGradient id="SVGID_25_" cx="1002.861" cy="-129.2751" r="6.2388" gradientTransform="matrix(0.5887 0 0 -0.9496 84.9157 506.6206)" gradientUnits="userSpaceOnUse">
		<stop  offset="9.849999e-02" style="stop-color:#FFFFFF"/>
		<stop  offset="0.9163" style="stop-color:#FFFFFF;stop-opacity:0"/>
	</radialGradient>
	<ellipse class="st25" cx="675.3" cy="629.4" rx="3.7" ry="5.9"/>
</g>
<g>
	<g class="st1">
		<g>
			
				<radialGradient id="SVGID_26_" cx="63.4404" cy="-3419.1599" r="23.7046" gradientTransform="matrix(0 -1.7483 -6.710000e-02 0 477.3803 395.3128)" gradientUnits="userSpaceOnUse">
				<stop  offset="0" style="stop-color:#FFFFFF"/>
				<stop  offset="0.9458" style="stop-color:#FFFFFF;stop-opacity:0"/>
			</radialGradient>
			<ellipse class="st26" cx="706.7" cy="284.4" rx="5.3" ry="41.5"/>
		</g>
		<g>
			
				<radialGradient id="SVGID_27_" cx="302.8705" cy="-1856.2345" r="12.0295" gradientTransform="matrix(0.7665 -1.2363 -4.740000e-02 -7.650000e-02 386.5565 516.8743)" gradientUnits="userSpaceOnUse">
				<stop  offset="0" style="stop-color:#FFFFFF"/>
				<stop  offset="0.9458" style="stop-color:#FFFFFF;stop-opacity:0"/>
			</radialGradient>
			<path class="st27" d="M715.9,269.6c1.1,1.7-2.2,9.7-7.3,17.9c-5.1,8.2-10.1,13.5-11.1,11.8c-1.1-1.7,2.2-9.7,7.3-17.9
				S714.9,267.9,715.9,269.6z"/>
		</g>
		<g>
			
				<radialGradient id="SVGID_28_" cx="152.6044" cy="2806.4146" r="12.0452" gradientTransform="matrix(0.7665 1.2363 4.740000e-02 -7.650000e-02 456.5789 310.3349)" gradientUnits="userSpaceOnUse">
				<stop  offset="0" style="stop-color:#FFFFFF"/>
				<stop  offset="0.9458" style="stop-color:#FFFFFF;stop-opacity:0"/>
			</radialGradient>
			<path class="st28" d="M715.9,299.3c-1.1,1.7-6-3.6-11.1-11.8c-5.1-8.2-8.4-16.2-7.3-17.9c1.1-1.7,6,3.6,11.1,11.8
				C713.7,289.6,717,297.6,715.9,299.3z"/>
		</g>
		<g>
			
				<radialGradient id="SVGID_29_" cx="340.2336" cy="723.3937" r="23.7289" gradientTransform="matrix(1.0839 0 0 -0.1082 337.9209 362.5786)" gradientUnits="userSpaceOnUse">
				<stop  offset="0" style="stop-color:#FFFFFF"/>
				<stop  offset="0.9458" style="stop-color:#FFFFFF;stop-opacity:0"/>
			</radialGradient>
			<ellipse class="st29" cx="706.7" cy="284.4" rx="25.7" ry="8.6"/>
		</g>
		
			<radialGradient id="SVGID_30_" cx="1056.2924" cy="233.9096" r="16.8712" gradientTransform="matrix(0.5887 0 0 -0.9496 84.9157 506.6206)" gradientUnits="userSpaceOnUse">
			<stop  offset="0.133" style="stop-color:#FFFFFF"/>
			<stop  offset="0.9015" style="stop-color:#FFFFFF;stop-opacity:0"/>
		</radialGradient>
		<ellipse class="st30" cx="706.8" cy="284.5" rx="9.9" ry="16"/>
	</g>
	
		<radialGradient id="SVGID_31_" cx="1056.2665" cy="233.9096" r="6.2388" gradientTransform="matrix(0.5887 0 0 -0.9496 84.9157 506.6206)" gradientUnits="userSpaceOnUse">
		<stop  offset="9.849999e-02" style="stop-color:#FFFFFF"/>
		<stop  offset="0.9163" style="stop-color:#FFFFFF;stop-opacity:0"/>
	</radialGradient>
	<ellipse class="st31" cx="706.8" cy="284.5" rx="3.7" ry="5.9"/>
</g>
<g>
	<g class="st1">
		<g>
			
				<radialGradient id="SVGID_32_" cx="-122.2257" cy="-2713.9109" r="17.7769" gradientTransform="matrix(0 -1.7483 -6.710000e-02 0 185.0056 395.3128)" gradientUnits="userSpaceOnUse">
				<stop  offset="0" style="stop-color:#FFFFFF"/>
				<stop  offset="0.9458" style="stop-color:#FFFFFF;stop-opacity:0"/>
			</radialGradient>
			<ellipse class="st32" cx="367" cy="609" rx="4" ry="31.1"/>
		</g>
		<g>
			
				<radialGradient id="SVGID_33_" cx="-49.9411" cy="-1870.4656" r="9.0057" gradientTransform="matrix(0.7665 -1.2363 -4.740000e-02 -7.650000e-02 316.6498 404.1166)" gradientUnits="userSpaceOnUse">
				<stop  offset="0" style="stop-color:#FFFFFF"/>
				<stop  offset="0.9458" style="stop-color:#FFFFFF;stop-opacity:0"/>
			</radialGradient>
			<path class="st33" d="M373.9,597.8c0.8,1.3-1.7,7.3-5.5,13.4s-7.6,10.1-8.3,8.8c-0.8-1.3,1.7-7.3,5.5-13.4
				C369.4,600.5,373.1,596.6,373.9,597.8z"/>
		</g>
		<g>
			
				<radialGradient id="SVGID_34_" cx="62.2549" cy="1795.0078" r="9.006" gradientTransform="matrix(0.7665 1.2363 4.740000e-02 -7.650000e-02 234.111 669.1697)" gradientUnits="userSpaceOnUse">
				<stop  offset="0" style="stop-color:#FFFFFF"/>
				<stop  offset="0.9458" style="stop-color:#FFFFFF;stop-opacity:0"/>
			</radialGradient>
			<path class="st34" d="M373.9,620.1c-0.8,1.3-4.5-2.7-8.3-8.8s-6.3-12.2-5.5-13.4c0.8-1.3,4.5,2.7,8.3,8.8
				S374.7,618.8,373.9,620.1z"/>
		</g>
		<g>
			
				<radialGradient id="SVGID_35_" cx="26.8282" cy="-1.9891" r="17.7823" gradientTransform="matrix(1.0839 0 0 -0.1082 337.9209 608.6555)" gradientUnits="userSpaceOnUse">
				<stop  offset="0" style="stop-color:#FFFFFF"/>
				<stop  offset="0.9458" style="stop-color:#FFFFFF;stop-opacity:0"/>
			</radialGradient>
			<ellipse class="st35" cx="367" cy="609" rx="19.3" ry="6.4"/>
		</g>
		
			<radialGradient id="SVGID_36_" cx="479.3075" cy="-107.8132" r="12.5953" gradientTransform="matrix(0.5887 0 0 -0.9496 84.9157 506.6206)" gradientUnits="userSpaceOnUse">
			<stop  offset="0.133" style="stop-color:#FFFFFF"/>
			<stop  offset="0.9015" style="stop-color:#FFFFFF;stop-opacity:0"/>
		</radialGradient>
		<ellipse class="st36" cx="367.1" cy="609" rx="7.4" ry="12"/>
	</g>
	
		<radialGradient id="SVGID_37_" cx="479.278" cy="-107.8132" r="4.6653" gradientTransform="matrix(0.5887 0 0 -0.9496 84.9157 506.6206)" gradientUnits="userSpaceOnUse">
		<stop  offset="9.849999e-02" style="stop-color:#FFFFFF"/>
		<stop  offset="0.9163" style="stop-color:#FFFFFF;stop-opacity:0"/>
	</radialGradient>
	<ellipse class="st37" cx="367.1" cy="609" rx="2.8" ry="4.4"/>
</g>
<linearGradient id="SVGID_38_" gradientUnits="userSpaceOnUse" x1="367" y1="-100.6105" x2="367" y2="-415.0878" gradientTransform="matrix(1 0 0 -1 0 496)">
	<stop  offset="0" style="stop-color:#F3DFA0"/>
	<stop  offset="0.4355" style="stop-color:#EEAE54"/>
	<stop  offset="1" style="stop-color:#6C1E1E"/>
</linearGradient>
<path class="st38" d="M0,723.4c0,0,108.5-6,134.3,12.2c25.7,18.2,54.8,38.7,73.9,40.9s58.2-30.9,71.6-30.9s45.9,25,57.1,25
	s69.7-35,77.2-31.8c7.5,3.1,81.6,40.9,96.2,40.9c14.6,0,57.1,61.5,78.3,54.6c21.2-6.8,70.7-51.8,81.6-56.9s53.7,36.4,63.8,36.4
	c0,56.9,0,159.2,0,159.2H0V723.4z"/>
<g>
	<path class="st39" d="M0,973l733-0.2c-31.9-7.5-59.1-14-66.3-19.2c-18-13-20.4-23.5-25.2-23.5s-49.3,3.9-49.3,3.9
		s-26.4-22.2-43.2-33.9c-12.5-8.7-28.4-14.5-47.9-19.6c-3.6-8.8-13.3-17.2-13.3-17.2l11,16.6c-5.2-1.3-10.5-2.6-16.2-3.8l-7.6-13.3
		c0,0,2.5,7.1,6.3,13.1c-0.6-0.1-1.3-0.3-1.8-0.4c-2.7-0.6-5.4-1-8.1-1.3c-3.1-11.1-16.3-17-16.3-17l13.8,16.7c-1-0.1-2-0.2-3-0.2
		l-6.6-8.3c0,0,1.3,4,4.6,8.2c-3-0.1-6-0.1-9.1,0l-5.2-14.3c0,0,0,7.8,3.4,14.4c-1.9,0.1-3.9,0.2-5.8,0.3
		c-2.8-8.7-13.1-17.8-13.1-17.8l12.2,17.9c-1.8,0.1-3.6,0.3-5.4,0.5l-10.4-12.2c0,0,2.8,7.7,8.6,12.4c-19.3,2-39.3,6-58.1,6
		c-12.9,0-25.1-0.8-36-2.1c-1.6-7.8-8.8-18.4-8.8-18.4l7.9,18.2c-5.6-0.7-10.9-1.4-15.8-2.2c3.5-5.7,3.8-11.4,3.8-11.4l-4.6,10.9
		c-2.2-2.7-4.8-5.6-7.2-7.5c2.3-4.6-1.4-8.5-1.4-8.5l-2.5,5.8c-1.6-1.2-3.2-2.7-4.9-4.2l4.7,4.7l-3.1,7.4c-2.9-0.6-5.4-1.2-7.8-1.8
		c-0.9-0.2-1.9-0.4-3-0.5c-1.2-1.7-2.6-3.4-3.9-5c0.1-4-1-6.4-1-6.4l-0.6,4.4c-4.7-5.4-9-9.5-9-9.5l8.6,11.8l-0.6,4.3l-9.4-7
		c-0.7-1.5-1.2-2.4-1.2-2.4l0.9,2.2l-6.4-4.8c0,0,2.8,2.3,6.6,5.4l3.3,7.7c-2.2,0.3-4.5,0.8-6.8,1.3c-8.4-10.5-21.3-17.4-21.3-17.4
		l18.2,18.1c-1.8,0.4-3.7,0.9-5.5,1.3l-11.7-13.3c0,0,3,7.5,9.9,13.7c-4.8,1.2-9.7,2.6-14.4,4.1c-0.7-1.5-1.5-3.1-2.4-4.6
		c0.7-7.4-2.7-14.2-2.7-14.2l-1.8,7.3c-4.8-6.8-9.6-11.9-9.6-11.9l9,14.5l-1.4,5.8l-7.1-5.9c0,0,2.6,3.1,6.8,6.8l-1.3,5.4
		c-2,0.6-4,1.2-5.8,1.8l-10.6-16.6c0,0,3,8.7,9.5,17c-4.5,1.4-8.6,2.6-11.9,3.5c1.4-8.6-4.4-14.3-4.4-14.3l3,14.7
		c-3,0.7-6.5,1.2-10.5,1.5c-1.7-15-14.4-28-14.4-28l13.5,28c-1.8,0.1-3.7,0.2-5.6,0.3c-4.1-8.9-9.1-16-9.1-16l8.9,16
		c-7.6,0.3-16.2,0.1-24.9-0.2l-12.6-15.9c0,0,2.1,7.7,9.1,15.7c-8.4-0.3-16.9-0.8-24.7-1.1c-2.6-3.7-4.9-6.9-4.9-6.9l4.9,6.9
		c-8.5-0.4-16.1-0.7-21.9-0.7c-22.8,0-121.5-6.5-134.8,1.3L0,973z M319.1,869.3l6.6,6.6c-4.2-0.7-8.1-1.5-11.7-2.3
		C316.5,872.2,318.1,870.7,319.1,869.3z M299.4,870.9c-0.6,0-1.3,0-2,0c0.2-0.7,0.4-1.5,0.5-2.2L299.4,870.9z M286.3,864.3
		c2.7,2.1,5.9,4.5,9.1,6.7l0,0c-1.8,0.1-3.8,0.4-5.9,0.7C288.4,868.8,287.2,866.2,286.3,864.3z M253.5,880.5
		c0.4-0.8,0.7-1.7,0.9-2.6l1.3,2.1c-0.6,0.2-1.4,0.4-2,0.6L253.5,880.5z"/>
	<path class="st39" d="M311.1,861.2l-7.2-7.2C303.9,854,307.3,857.7,311.1,861.2z"/>
</g>
<path class="st39" d="M39.1,636.7c3.2-1,10.5-1.2,13.2-0.4c2.6,0.7,3.5,1.4,4,2c0.6,0.6,2.5,2,4.3,3.8c1.9,1.8,3.3,1.7,4.6,1.7
	c1.3-0.1,6.4,3.7,6.4,4.2c0,0.4,2.7,1.8,3.5,2.2s0.1,2.2-0.4,3c-0.6,0.9,1.2,1.8,1.4,3s2.2,2.9,2.2,4.3s2.3,3.5,3.5,4s1,1.2,1.2,2.6
	c0.2,1.4,2.2,7.7,3.2,7.6c1-0.1,0.3,1.9-0.6,3.4c-0.9,1.4-0.4,2.5-0.6,3.7c-0.2,1.3-3.6,3.7-9.7,6.9c3.5-0.6,7.5-2.5,10.1-3.7
	s3.7-1.2,5-1.1c1.3,0.1,3.4,1.1,4.7,1.9c1.3,0.7,3.9,1.9,5.3,1.9c1.4,0.1,1.7-1.6,3.5-0.6c1.7,0.9,0,2.4,0.5,3s2.6,1.7,5,2.5
	c2.4,0.9,3.6,0.6,4.8,0.4c1.2-0.2,3.2,1.4,4.6,2.7c1.4,1.2,2.7,1.2,4.5,1.9c1.9,0.6,4,2,4,2s0.6,5-0.4,8.7c2.1-3.8,2.4-7.6,2.4-7.6
	s0.8-0.5,1-1.2c20.6,17.4,41.2,20,41.2,20l0.1,1.3c0,0-2.5,1.2-2.7,1.9c-0.2,0.8-1.9,1.5-3.5,0.9s-2.7,1.1-3.7,3.7
	c-1,2.7-3.5,2-5.2-1c-0.3,3.3-2.1,3.5-4,0.8c-0.9,2.2,1.2,5.4,2.7,5.8c1.6,0.5,3.5,1.9,4.7,2.7c1.2,0.9,4.6-1.2,6.3-1.4
	c1.7-0.1,3.2-2,3-3.9s1.7-3.7,4.1-3.2c-1.4,2,2.5,6.8,4.8,7.1c2.2,0.3,2.7,1.1,3.8,4c-0.4-2.8,3-5.1,5.1-5.3s2.3-2.6,2.5-5.2
	s4.6-2.9,7.1-0.5s3.5,5.8,3.6,9.9c4.5-5.4,6.9-10.2,8-15.6c1.1-5.4,2.7-6.8,5.6-11c3-4.2,8.5-4.8,12.4-5.5s4.3-4.6,6.1-5.7
	s3.2-0.5,8.6-3c5.3-2.5,11.1-6.4,14.6-8.1c3.5-1.7,11.4-3.5,17.9-4.4c6.4-0.9,25.7-5.2,31.2-6.1s10.1-1.2,12.2-1.8s4.6,0.4,5,1.4
	s3,6.1,3,8.1c-0.1,2-1.1,4.9,4.5,12.5c-1-1.9-0.6-6.3-0.7-8.4s0.8-3-0.1-4.1c-1-1.1-2.2-4.8-2.6-6.2s0.6-5.3,0.6-5.3
	s16.7,0.1,21.8,0.6c5.3,0.6,15.6,0.1,21.3,0.9c5.7,0.9,14.9,3,19.7,4.7c4.8,1.7,8.9,4.2,12.7,8.6c-0.4-4.3-5.1-7.8-5.8-8.7
	c-0.7-0.9-2.5-1.4-4.4-3s-1.9-3.4-1.2-5.8s2.3-1.7,6.1-0.3c3.7,1.4,16,1.9,19.1,1.9c3.1,0.1,4.4,2.7,5.6,6.1
	c0.9-2.2,0.3-5.8-1.2-8.1s-4.4-2.2-7.8-2.4s-11.9-2.5-15.1-3.5s-6.6-1-19.5,0.9c-10.6-3.7-32.2-5.4-34.3-4.9s-5.6-3.9-7.3-4
	s-2.2,2.2-4.5,3.5c-2.3,1.4-8.3,3.7-13.6,6.9c-5.3,3.2-10.2,0.3-15.1-3.7c-2.5,0.6-8.8,0.1-12-3.5c-1.7,0.6-5.1,0-8.8-1.7
	c-1.2,1.4-4.5,1.2-5.8,4c1.3-1.7,3.5-1.4,4.6-0.4s-0.4,1.3-2.1,1.6s-3.6,2-5.3,3.8c-1.6,1.9-3.7,1.9-6.8,2.7
	c-3.1,0.8-7.3,1.5-11.5,1.8s-8.1-2.4-8.7-2c-0.5,0.4,0.6,1.6,0.9,3.2c0.3,1.7-2.3,2.6-2.3,2.6s0.1,1.7-1,2.7c-1,0.9-3.2,1.7-3.2,1.7
	s-1.1,1.9-3.7,4.8c-2.7,3-6.3,6.1-7.7,5c-1.4-1-6.3-2.7-7.3-4.1c-1.1-1.4-0.3-4,1.6-7.4c-1.7,0.8-4.6,3-5.4,3.2
	c-0.8,0.1-0.7-1,0.3-4c-2.2,0.6-3.9,5.8-5.2,6.1s-1.6-1.7-1.4-3.6c0.1-1.9,0.7-10-0.4-13.3c-0.7,1.9-1.2,4.3-1.2,4.3l-1.4-1.7
	l-2.3,11.2c0,0-2.2-2.2-3.1-1.6c1.9,2.3-0.4,5.1-0.4,5.1s-3.1-3.2-6.6-5.1c1.2,1.4,1.1,3.1,0.4,5.4c-0.6,2.3-1.6,2.4-5.7,3.6
	c-4,1.2-6.3,3.2-6.3,3.2s-0.5-2.7-1.7-3.4c-0.3,6-5.4,4.4-5.4,4.4s-2-1.7-4.7-3.7s-4.3-5-5.3-7.1c-1-2.2-3-2.9-6.2-4.1
	c-3.2-1.2-9.4-6.8-13.8-10.5c-4.4-3.7-7.1-6.4-8.4-8.5c-1.3-2.1-2.5-7.5-2.7-9.7c-0.3-2.2-1.8-2.7-2.6-2.2s-2.7-1.9-3.9-3.2
	s-1.6-5-1.6-5.9s-2.7-0.9-3.9-0.4c-1.2,0.4-1.4-0.7-2.5-2.8c-1.2-2-1-3.5-2.5-3.5c-1.4,0-3.5-3.6-5.3-5.4c-1.8-1.7-2.8-6.2-3.2-7.1
	c-0.4-0.9-2.9-2-5.8-2.7c-3-0.6-4.6-4.5-5.8-7.1c-1.2-2.6-4-3.4-9.1-4.3c3.8,1.2,4.1,3.7,4.2,5.4s-2.2,4.6-3.4,7.8
	c-1.2,3.2-7.7,8.4-11,11.7c-3.2,3.2-9.1,3.6-12.5,4.5s-8.4,0.8-12-0.1C52.9,633.1,47.8,633.7,39.1,636.7z M139.3,694.3
	c0.6,0.2,1.7,1.5,2.4,0.5c0.8-1,1.9-3,3-2.5c1.1,0.4,1.9,1.4,3,1.3c1.1-0.1,1.5,0.2,2.5-0.4c1-0.6,1.7,0.1,3.8,0.2s2.7,0.5,3.5,0.9
	s3,0.4,4.6,1.2c1.5,0.9,2.5,1.7,3.5,3.9c0.4-2.4,1.7-3.1,3.3-2.9s3.2-0.4,3.2-0.4s1.8,2.8,3.1,3.7s3.7,0.3,3.7,0.3s0.2,2.5-1.4,3.5
	c-1.7,1-21,5.6-40.2-7.1C137.3,696.3,138.7,694,139.3,694.3z"/>
<radialGradient id="SVGID_39_" cx="758.8213" cy="-386.9758" r="227.8034" gradientTransform="matrix(1 0 0 -1 0 496)" gradientUnits="userSpaceOnUse">
	<stop  offset="1.610000e-02" style="stop-color:#412124"/>
	<stop  offset="1" style="stop-color:#1F060C"/>
</radialGradient>
<path class="st40" d="M690.9,779.7c-0.5-1-0.8-3.3-1.4-6c-0.5-2.7-0.7-6.5-0.7-9.2s-0.4-6-1.3-8.7c-0.7-2.7-2.2-10.1-3.2-16.1
	c-1.1-5.8-2.4-10-3.5-14.3s-2-6.9-2.8-9.3c-0.7-2.4-1.1-3.6-1.1-5.2c0-1.5,0.2-10.5,0.4-15.1c0.3-4.7-0.2-8.1-0.1-10.6
	c0-2.5,1.3-8.8,1.5-11.7c0.3-2.8-0.2-4.3-1.3-5.7l0.7-0.8c0,0-2-2.7-4.8-3.6c1-1.3,0.3-2.4-0.6-2.4c-0.8-1.7-2.6-2.6-3-2.6
	c-0.1-0.4-0.4-0.7-0.9-1.2c0-0.1,0-0.3,0-0.4s0-0.4,0-0.5s0-0.4-0.1-0.6c-0.1-0.2-0.1-0.4-0.2-0.6s-0.2-0.4-0.3-0.6
	c-0.1-0.2-0.2-0.4-0.3-0.6c-0.1-0.2-0.2-0.4-0.2-0.6c-0.1-0.2-0.1-0.4-0.2-0.5c-0.1-0.1-0.1-0.3-0.2-0.4c0.2-2.6,0-5.9-0.3-8.3
	c-0.4-3.6-2.5-10.5-2.5-10.5s0.1-0.4,0.2-1c0.1,0.3,0.3,0.4,0.4,0.7c0.1,0.3,0.3,0.5,0.4,0.8s0.2,0.5,0.3,0.8s0.2,0.4,0.3,0.7
	s0.1,0.4,0.2,0.6c0,0.2,0.1,0.4,0.1,0.4c0.1,0.3,0.1,0.4,0.1,0.4s0-0.2-0.1-0.4c0-0.2,0-0.3-0.1-0.4c0-0.2-0.1-0.4-0.1-0.6
	s-0.1-0.4-0.2-0.7c-0.1-0.3-0.2-0.5-0.3-0.8s-0.2-0.5-0.3-0.9c-0.1-0.3-0.2-0.4-0.3-0.7c0.1,0.1,0.2,0.1,0.3,0.1
	c0.2,0.1,0.4,0.2,0.6,0.3c0.2,0.1,0.4,0.2,0.5,0.3c0.7,0.3,1.2,0.4,1.2,0.4s-0.4-0.2-1.2-0.5c-0.2-0.1-0.4-0.2-0.5-0.3
	c-0.2-0.1-0.4-0.2-0.6-0.4c-0.2-0.1-0.4-0.3-0.6-0.4c0-0.1-0.1-0.1-0.1-0.2c0.1-1,0.3-2.2,0.4-3.2c0.1-2.2-1.7-2.5-1.7-2.5
	s0.1-1.1,0.1-2.2c0.2,0.2,0.3,0.4,0.4,0.5s0.3,0.4,0.4,0.6c0.1,0.2,0.3,0.4,0.4,0.5s0.2,0.3,0.3,0.4c0.1,0.3,0.2,0.4,0.2,0.4
	s-0.1-0.2-0.2-0.4c-0.1-0.1-0.1-0.3-0.2-0.4c-0.1-0.2-0.2-0.4-0.3-0.5c-0.1-0.2-0.3-0.4-0.4-0.6c-0.2-0.3-0.3-0.4-0.4-0.7
	c0-0.1-0.1-0.1-0.1-0.1c0-0.9,0-1.8-0.2-2.4c-0.3-1.4-1.4-2.3-2.2-3.1c-0.9-3-3-5.1-6.6-5.7c-1.1-0.5-3.9-0.6-3.9-0.6
	s-2.2-1.7-5.4-0.6c-1.4,0.1-2.7,0.1-2.7,0.1s-1.5,0.3-2.3,0.8s-2.8,1.4-3.4,2.8c-0.7,1.3-1.3,2.9-1.5,3.1c-0.3,0.4-0.1,1.4-0.1,1.4
	s-0.7,1.3-2,3.3c-1.3,2.1-1.7,3.4-1.3,5.2c-1.2,1.4-1.4,2.3-1,2.8s1.8-0.3,1.8-0.3s-1.8,4-3,7.3c-0.1,0.2-0.2,0.4-0.3,0.6
	c-0.2,0.2-0.4,0.4-0.6,0.7c-0.2,0.2-0.4,0.4-0.4,0.7c-0.2,0.3-0.3,0.5-0.4,0.9c-0.1,0.3-0.3,0.6-0.4,1c-0.2,0.4-0.3,0.6-0.4,1
	c-0.2,0.4-0.3,0.7-0.4,1c-0.1,0.4-0.2,0.7-0.3,1c-0.1,0.4-0.1,0.6-0.2,1c-0.1,0.3,0,0.6,0,0.9s0,0.5,0,0.7l0,0
	c-0.4,1.1-0.8,2.4-0.8,3.7c0,2.1,0.3,2.8-0.8,4.1s-1.8,2.9-0.6,5.6c-5.1,1.7-12,4.3-14.1,7.2c0.8-0.1,1.7,0.8,1.7,0.8
	s-1.7,2.5-1.8,6.7s0.1,15.3,0.4,20.4s0.3,10.4,0.4,14.1s0.1,8.4,0.2,10.4c0.1,2,0.7,3.6,1.1,4.7c0.4,1,0.3,2.6,1.7,4.1
	s2.4,2.7,4.2,2.8c-0.2,0.6-0.2,1.5-0.2,1.5s-3.9,1.4-7.9,7.4c-1.9,0.2-5.6,1.7-7,3s-1.8,3.9-1.5,5.3c-3,3-3.2,4.8-3.4,9.2
	s-1.5,6.5-3,8c-1.5,1.4-6.8,6.4-6.6,8.3c-3.5,1.3-8.3,4.6-9.7,7.6c-1.3,3-2.1,6.5-2.9,7.3c-5.7,0.8-6.8,2.4-9.2,4.7
	c-2.3,2.3-3.3,2.8-6.5,3.9c-3.2,1.2-6.2,5.7-7.1,7.9c-0.8,2.2-2.7,8.8-5.7,12.8s-7,7.1-7,7.1s-9.4,11.8-12.6,14.5
	c-7.4,0-12.3-1.3-13.5,0c-1.3,1.3-6.5,2.9-8.3,4.7c-1.7,1.8-4.3,3.9-7.5,3.1s-2.5,2.5-0.9,2.6c1.5,0.1,7.3,1.5,11.5,4.8
	c4.2,3.2,12,8.3,12,8.3l-7.2,5.7c0,0,3.5,1.5,4.3,3.7c0.8,2.1,4.7,0.8,7.4,1.4s1.8,2.8,3.7,5.2c1.8,2.5,5.2,3.4,5.2,3.4l4.2-4
	c0,0,3.2,1.1,5.7,4.6c2.3,3.5,0.9,7.5,1.1,10c0.1,2.5,2.1,3.8,7.2,6.9s11.8,7.8,18.7,9.7c6.8,1.8,15.3,4.2,20.4,3.1
	c6.1,3.1,14.9,8.6,17.4,9.4c0.1,1.7-0.8,6.3-0.8,6.3s6.4,2.9,10.7,3.1s10-0.1,14.7,1.2c4.8,1.3,8.8,1.5,8.8,1.5s0.9-1.3,0.5-2.2
	s-1.7-1.3-1.1-2s2.2-1.5,2.2-2.8s-0.4-3.2,0.4-4.7c0.8-1.4,2.7-7.6,3.5-13.5s2.5-18.2,4.1-25c1.5-6.8,4.7-19.6,4.7-19.6
	s6.5-8.4,8.1-13.7c1.4-5.3,0.3-25,0.3-25s1.5-8.6,3.1-13.3c1.5-4.7,2.6-8.3,3.2-9.5c0.6-1.2,4.7-23.6,4.6-40.5
	c-0.1-11.3-3.3-21.8-6-28.5c2.1,4.8,5.1,12.4,6.1,14.8c1.3,3.2,4,10,4.4,11.4s0.4,3.5,0.3,4.2c-0.2,0.6-0.3,1.7-0.2,4.3
	s0.4,5.8,0.4,6.9c-0.1,1.1-0.6,2.7-1.4,4.1c-0.8,1.4-2,2.4-2.7,3c-0.6,0.6-0.7,1.3-0.3,1.4c0.5,0.2,1.6,0.1,2.6-0.4
	c0.9-0.4,1.3-0.9,2.2-1.9s2.3-2.6,2.3-2.6s-1.3,2.7-1.8,3.6s-1.9,2.2-3.9,3.2c-0.6-0.3-2.3-0.9-2.6-0.5c-0.3,0.3-0.4,0.9,0.3,1.3
	c0.6,0.3,1.2,0.5,1.2,0.5s-1.3,0.4-1.3,1.1c0,0.6,1.1,0.2,2.1,0.5c1,0.4,1.7,0.6,2.2,0.6c0.4-0.1,1.8-0.2,2.9-0.4
	c1.1-0.2,1.9-0.3,2.2-0.4s1-0.9,2.2-2.2c0.1,0.7-0.4,2.2-1.3,3c-0.9,0.9-1.7,1.9-2.8,2.8c-1,0.9-1.4,1.7-1.3,2.2
	c0.2,0.5,0.7,0.6,1.3,0.1c0.7-0.5,1.6-1.1,2.4-1.6c0.8-0.6,2.6-2.4,3.5-3.2s0.9-2.2,1.3-3.5s0.9-3.1,1.3-4.4
	C691.9,781.4,691.4,780.8,690.9,779.7z M627,646.6L627,646.6c0-0.4,0.1-0.6,0.1-0.9c0.1-0.3,0.1-0.6,0.2-1c0.1-0.4,0.1-0.6,0.2-1
	c0-0.2,0.1-0.4,0.1-0.5s0.1-0.4,0.1-0.5c0.1-0.4,0.2-0.7,0.4-1c0.1-0.4,0.3-0.6,0.4-0.9c0.2-0.3,0.4-0.5,0.5-0.8s0.3-0.5,0.4-0.7
	c0-0.1,0.1-0.1,0.1-0.2c-0.8,2.7-1,5.3-1.9,6.4C627.4,645.8,627.2,646.2,627,646.6z M629.6,658.4c-0.1,0.1-0.2,0.3-0.3,0.4
	c-0.3,0.2-0.4,0.3-0.4,0.3s0.3-2.8,1.3-5.1c0.4-0.9,0.8-1.6,1.2-2.4c-0.1,0.5-0.1,1.1-0.2,1.5c-0.1,0.5-0.1,1.1-0.3,1.6
	c-0.1,0.5-0.2,1-0.4,1.5c-0.1,0.4-0.3,0.9-0.4,1.3C630,657.8,629.8,658.1,629.6,658.4z M631.8,657.3c-0.5,0.4-1,0.6-1.4,0.9l0,0
	c0.1-0.2,0.2-0.4,0.3-0.5c0.2-0.4,0.4-0.9,0.4-1.3c0.2-0.4,0.3-1,0.4-1.5c0.2-1.1,0.4-2.2,0.5-3.3c0.1-0.7,0.2-1.4,0.4-2.2
	c0.1-0.3,0.2-0.6,0.2-1c0-0.1,0-0.1,0-0.2c0.3-0.8,0.5-1.6,0.8-2.2c0,0,0,0,0,0.1C633.5,650.3,633.4,653.8,631.8,657.3z
	 M633.3,643.6c-0.2,0.4-0.4,0.8-0.6,1.3c0.2-2.4,0.5-5.1,1.1-6.4C633.8,638.5,633.4,640.5,633.3,643.6z M667.6,653
	c0.1,0.2,0.2,0.3,0.3,0.4c0.1,0.2,0.2,0.4,0.3,0.5c0.1,0.2,0.1,0.4,0.2,0.6c0,0.2,0.1,0.4,0.1,0.6c0.1,0.2,0.1,0.4,0.1,0.6
	s0,0.4,0.1,0.5c0,0.2,0.1,0.4,0.1,0.5s0,0.1,0,0.2c-0.7-0.7-1.6-1.3-1.7-1.3C667.3,655.1,667.5,654.1,667.6,653z"/>
<path class="st39" id="dragon1" d="M686.4,459.7c-10.5-1.7-20.9-3.3-31.3-5.3c-4.7-0.9-9.3-2.3-13.9-3.6c-2.7-0.8-5.3-2-8-2.9
	c-5.2-1.7-9.5-4.4-11.7-9.7c-0.7-1.6-2-2.9-2.9-4.3c-5.1-7.5-10.8-14.8-9.7-24.7c0.1-0.8-0.1-1.8-0.4-2.6c-1.1-3.2,0.2-5.4,2.4-7.6
	c2.3-2.3,4.3-4.9,6.5-7.4c-0.3-0.4-0.6-0.8-0.8-1.2c-6.6,3.6-13.1,7.2-19.7,10.6c-3.1,1.6-6.3,2.8-9.6,3.8c-3.9,1.2-8,1.5-11.8,2.9
	c-13.1,4.9-26.1,10.2-39.1,15.1c-2.7,1-5.6,1.3-8.3,2c-0.2-0.3-0.3-0.6-0.5-1c1.3-1.5,2.8-3,3.9-4.7c0.9-1.4,1.8-2.9,2.1-4.5
	c0.3-2-0.5-4.3,0.2-6.1c0.6-1.7,2.4-3,3.7-4.5c-2.5-1.9-5.3-1.6-7.1,1.5c-1.7,2.9-2.8,6.2-3.5,9.4c-1.3,5.4-6.6,10.4-12,11.2
	c-2.5,0.4-5.3,1-7.4,2.4c-8.4,6-17.8,9.3-27.5,12.3c-9.4,2.9-18.8,5.9-28.9,5.8c-4.5,0-9.1-0.2-13.4,0.8c-5.7,1.2-11.4,2.1-17.2,1.6
	c-4.6-0.3-9.2-0.5-13.8-0.8c-1-0.1-2-0.4-3.6-0.7c1.3-1.8,2.3-3.2,3.5-5c-2.9-0.7-5.3-1.3-7.9-2c-0.3-1.4-0.5-2.7-0.9-4.5
	c-2.8-0.1-5.6-0.3-8.9-0.5c0.7-1.3,1.2-2.2,1.8-3.4c-2.9-0.4-5.5-0.7-8.2-1c0-1.4,0.1-2.3,0.1-2.5c-2.5-2.3-4.6-4.2-6.6-6.1
	c0.9-1.5,1.4-2.3,1.8-2.9c-1-2.3-2.4-4.3-2.6-6.5c-0.4-3.1,0.1-6.3,0.3-10.2c0.6-2.2,1.3-5.2,2.1-8.2c0.1,0,0.3,0,0.4,0.1
	c0-1.1,0-2.2,0-2.3c4.1-6.5,4-14.4,9.9-19.5c-1.1,9.2-1.1,9.2,0.3,10.2c2.9-4,5.7-8,8.2-11.6c0.5-7.7-1.8-14.8,0.2-22
	c0.2-0.6,0.1-1.4-0.2-1.9c-2.1-5.3-1-10.1,2.3-14.8c-0.8-1.4-1.5-2.9-2.4-4.2c-1.2-1.7-2.6-4.1-4.9-2.7c-2.6,1.5-5.8,3.5-6.7,6.1
	c-1.4,4.1-3.3,7.7-6.2,10.8c-3.7,3.9-7.5,7.6-11.1,11.6c-1.1,1.3-1.4,3.2-2.2,5.1c1.2,0.2,2,0.3,3.7,0.6c-2.2,6.6-3.5,13.1-6.5,18.7
	c-3.9,7.3-7,14.9-9.1,22.9c-1.1,4.3-0.7,9-4.5,12.3c2,2.9,1.4,5.7-0.3,8.1c-1.6,2.2-1.7,4.1-0.3,6.3c0.4,0.6,0.4,1.4,0.6,2.5
	c-1.6,1.5-3.2,3.1-4.9,4.6c0.3,1,0.6,1.9,0.8,2.8c-5.8,3.2-7.1,8.6-7.8,14.4c-0.5,4.1-1,8.3-1.3,11.2c-3.8,2.9-6.7,4.6-9,7
	c-8.3,8.6-18.7,12-30.3,12.7c-2.6,0.2-5.2,0.1-7.4,0.2c-4.4,7.1-12.1,11.2-19.7,11.3c-5.9,0.1-11.3,1.4-12.6,8
	c-1.5,1.2-2.9,2-3.9,3.1c-3.7,4.2-8.2,7-13.4,9.1c-3.3,1.3-5.8,4.4-8.7,6.6c0.2,0.2,0.4,0.5,0.6,0.7c1.3-0.6,2.5-1.5,3.8-1.7
	c1.9-0.2,4.1-0.4,5.6,0.5c7.2,4.2,13,9.9,16.9,17.4c1.3,2.6,3.8,5.2,3.9,7.8c0.1,5.9-0.3,12-1.6,17.8c-1,4.5-3.8,8.6-5.5,13
	c-1.4,3.6-2.5,7.3-3.8,10.9c0.3,0.1,0.5,0.2,0.8,0.4c1-1.4,2-2.7,2.9-4.1c2-2.9,3.4-6.3,5.9-8.5c5.9-4.9,12.4-9.2,19.4-14.3
	c2.7,0.3,6.4,2.2,10.8,0.8c3.8-1.2,8.2-0.7,11.8-1c4.2,1,8,1.8,12.2,2.8c4.9,2.3,7.8,6.2,7.3,12.5c1-3.1,1.4-6.1,1.7-9.1
	c0.2-2.5,0-5,0.5-7.4c0.7-3.4,1.8-6.7,2.8-10.2c0.6-0.1,1.9,0,2.7-0.6c3-2.2,5.7-4.8,8.7-6.9c4.2-3,8.6-5.8,13.1-8.4
	c3.3-1.8,6.4-0.4,9.3,1.5c-2.7-4.2-5.4-8.4-8.2-12.7c0.6-0.8,1.1-1.6,1.6-2.3c-1.3-4-1.8-8-2.3-12.1c-0.1-1.1-0.2-2.2,0.1-3.2
	c1.8-5.7,3.6-11.5,5.5-17.2c0.3-0.8,0.7-1.4,1.1-2.1c0.6,0.1,0.8,0.1,1,0.2c5.4,5.1,9.7,11.6,17.2,14.1c6.7,7.5,11.7,15.4,8.8,26.3
	c-1.5,5.4-2,11.2-2.1,16.9c-0.1,4.1,1.2,8.3,1.8,12.2c1.9,0.1,3,0.1,4.1,0.3c4.2,1.1,8.4,2.4,12.7,3.5c11.8,3,19,11,22.8,21.9
	c1.7,4.8,3.5,9.3,6,13.7c1.9,3.3,4.5,5.1,7.8,5.9c3.3,0.7,6.7,1,10.1,1.1c2.2,0.1,3.9-1.1,3.9-3.7c-5-0.7-5-0.7-5.3-4.3
	c6.7,2.3,11.4-0.4,14.3-5.8c8.5,0.5,9.4,0.2,10-3.2c-6.5-1.5-6.5-1.5-6.7-4.6c3,1.6,5.6,3,8.3,4.4c9.2,4.9,18.1,10.4,27.6,14.5
	c14.9,6.5,30.6,10.8,46.7,13.2c2.7,0.4,4.2,1.7,5.5,4c1.5,2.8,3.4,5.5,5.2,8.3c1.6-0.7,2.6-1.2,3.6-1.4c6.7-1.9,13.4-4,20.2-5.5
	c8.3-1.8,16.8-3,25.2-4.5c1.1-0.2,2.1-0.7,3.1-1c-0.9-1-1.7-1.4-2.5-1.6c-8.1-1.7-16.3-3.1-24.3-5c-3.2-0.8-6.6-2-9.1-4
	c-3-2.3-6-3.1-9.4-2.6c-2.5,0.3-4.9,1.1-7.3,1.7c-1.7-0.6-3.3-0.4-4.9-0.1c-1.2,0.2-2.3,0.8-3.4,0.6c-4-0.5-8.1-1-12-2.1
	c-19.5-5.5-38-12.9-53.5-26.4c-7.7-6.7-15.2-13.5-22.1-21c-7.8-8.5-14.8-17.8-22.2-26.7c-0.3-0.4-0.6-0.9-0.8-1.4
	c-1.3-2.2-2.5-4.4-3.8-6.7c-0.6-1-1-2.2-1.5-3.2c-1.2-2.3-2.1-4.7-3.6-6.7c-1.5-2.1-2.3-3.9-0.8-6.3c0.4-0.6,0.4-1.4,0.7-2.2
	c-1.9-1.6-3.8-3.1-5.3-4.3c-0.2-2.4-0.4-4.3-0.5-5.9c-2.5-0.5-4.4-0.8-5.8-1.1c-1.5-2.6-2.7-4.6-4.2-7.3c-1.6,2.9-2.6,4.9-4,7.4
	c-1.6-1-2.9-1.8-4-2.4c-1.9-0.5-3.6-0.9-4.9-1.2c-0.2-2.3-0.4-3.8-0.5-5.8c2.7-3.8,5.7-7.2,11.7-7.3c4.8-0.1,8.9,0.2,12.4,3.6
	c0.8,0.8,2,1,2.7,1.8c3.6,3.9,9.7,6.2,8.7,13.1c0.2,0.1,0.4,0.1,0.4,0.1c0.5-0.3,0.9-0.7,1.4-0.9c4.6-2.2,9.2-4.4,14.6-2.3
	c4.3,1.7,8.7,2.8,13.1,4.3c3.7,1.2,7.5,2.4,11,4c1.9,0.9,3.3,2.7,5,4c3.4,2.7,6.7,5.6,10.1,8.2c1.9,1.4,4.2,2.4,7.1,3.9
	c1.2,2.2,2.7,5.4,4.6,8.4c1.5,2.5,2.4,5.1,1.9,8.1c-0.2,1.2,0.1,2.6,0.2,3.9c1.6-2.9,2.6-5.7,3.7-8.5c2.6-6.7,9.8-7.1,15.3-10.8
	c0.2,0,1.1,0.2,1.9,0.3c0.5-0.6,1-1.1,1-1.2c8-1.1,15.3-1.3,20.2-6.2c7.9,2.8,15.3,5.7,22.8,8.1c6.3,2.1,12.3,4.2,17.2,9.1
	c2.3,2.3,6.1,3.1,9.2,4.5c0.3-0.3,0.5-0.7,0.8-1c-7.1-4.1-5-11-5.7-16.3c3.2-5.1,8.3-8.2,8.6-13.4c1.9-1.2,3.7-2,5.1-3.2
	c3.5-3,6.8-6.2,10.1-9.3c1.1-1,2.7-1.9,3.2-3.2c1.7-4.5,5.5-6.7,9.2-9.1c-0.2-0.5-0.4-1-0.9-2.3c1.9,0.8,3.2,1.4,5.2,2.3
	c4.3-1.2,9.3-2.4,14.2-4c5.7-1.9,11.2-4.3,17-5.9c2.4-0.7,5.5-0.6,7.9,0.2c5.9,1.9,11.3-0.7,16.9-1.3
	C687.1,460,686.7,459.7,686.4,459.7z M407.3,539.9c1.6,0.3,3.2,0.5,4.7,1c11.1,3.5,18.6,11.6,24.8,20.9c1.2,1.9,2,4.2,2.4,6.4
	c0.8,5.6,2.1,10.9,5.9,15.4c0.6,0.8,1,1.8,1.9,3.7c-2.9-0.4-4.9-0.8-7.5-1.2c2.1-7.6-4.7-9.9-8.4-15.2c2.8,0.2,4.6,0.4,6.4,0.5
	c0.2-0.2,0.4-0.4,0.6-0.7c-1.1-1.1-2.1-2.4-3.4-3.1c-2.3-1.3-4.9-2-7.1-3.4c-1.5-0.9-2.5-2.4-3.7-3.5c0.8-1.5,1.2-2.3,2-3.8
	c-7-4.5-13.9-9.1-21.1-13.7C405.4,542.4,406.2,541.3,407.3,539.9z"/>
<path class="st39" d="M33.4,521.9c0,0,5.8-7.6,9.6-10.1c3.9-2.5,9.3-3.8,9.3-3.8s6.3-3.7,12.3-4.5c5.9-0.8,12.3,0.6,15.8,2.3
	c1.9-2.2,10.1-3.3,22.4,0.9c-1.2-5.2-0.6-11,10.9-14.1c0.6,3.9,1.1,5.3,2.3,6.6s3.8,4.1,3.8,5s-1.3,0.9-1.3,1.7
	c-0.1,0.8,0.5,2.4,0.5,2.4s-0.6,0.5-0.4,1.7s1.2,2.5,3.2,2.8c-1.2-0.9-1.3-1.6-1.2-2.3c0.5,0.5,1.6,0.9,2.1,0.8
	c-1.1-0.6-2-1.9-1.9-2.7c0.8,0.4,1.9,0.1,1.9,0.1s-1.6-1.1-1.5-1.8c0.1-0.7,0.9-1.9,0.5-2.8s-0.6-0.6-1.1-2.2s-2.1-3.2-2-4.1
	s1.5-0.8,1.5-0.8s3.9,5.8,6.6,9.6c2.6,3.8,5.9,10.4,9.7,15.2c3.7,4.8,10.2,9.6,30.2,2.5c-15.5,2.5-23.1,2.8-26.5-1.8s-6-11.5-8-15.5
	s-6.3-10.3-7.2-12c-0.8-1.7-2.3-6.1-0.8-8.4c1.5-2.2,12.1-11.3,21.6-3.8c0-13.2,4.2-21.2,11.2-23c1.3-13.4,10.3-21.9,15.3-24.8
	c1.4-2.4,14.2-7.7,21-8.1c0,0-17-1.4-31.4,5.8c-14.4,7.2-25,19.9-33.6,27.9s-10.7,10.9-12.6,11.4s-3.5,0.1-3.9,1.2s-1.8,1.2-3.3-0.4
	s-3.8-7.1-4-10c1.1-1,1.1-2.6,0.2-4.5s-1.5-2.6-2.2-2.4s-1.5,1.2-1.5,1.2s-2,0.4-2,1.4c-0.1,1.1,0.4,4.3,0.4,4.3s0.1,2.3,0.7,3.1
	c0.6,0.8,1.2,2.3,1.9,4.5c0.7,2.2,1.5,4.9,1.6,5.9s-1.9,2.8-2.3,4.2c-3.5,2.1-28.2,8.6-33.3,9.7c-5.2,1.1-10.8,3.4-14,4.9
	c-3.2,1.4-4.6,1.9-6.3,4s-6.2,5.9-7.6,7.6c-1.3,1.7-2.8,4.2-3.9,6.9C35.2,516.4,33.4,521.9,33.4,521.9z"/>
    
    <script src="jquery.min.js"></script>
    <script src="jqfloat.js"></script>
   <script src="jquery.svg.min.js"></script>
    <script type="text/ecmascript"><![CDATA[

        $(document).ready(function() {
   
    
    $('#dragon1').jqFloat({
        width: 300,
        height: 300,
        speed: 100,
    });
 
    
});
    ]]></script>
</svg>
