<svg xmlns="http://www.w3.org/2000/svg" viewBox="0 0 102 100.1"><defs><style>.cls-1{fill:#f6d30a;}</style></defs><title>Asset 1</title><g id="Layer_2" data-name="Layer 2"><g id="Layer_1-2" data-name="Layer 1"><g id="Layer_2-2" data-name="Layer 2"><g id="Layer_2-2-2" data-name="Layer 2-2"><path class="cls-1" d="M46.11,60.5s0-1.29-2.26-.89c0-1.29-1.13,0-1.65.4l-3.4-.4,5.66-3.07s6.69-3.07,7.82-3.07-1.13,2.18-1.13,2.18-1.13,3.55,1.65.4,2.26-1.77,2.26-1.77,18,.4,5-5.73c-2.78-.4,4.53-3.07,4.53-3.07s6.69,5.73,7.82-1.29c.21-2.26-.51-3.07-.72-3.15-.41.08-2.06,1.29-2.06,1.86s.41.56.72.56c.1,0,.31.08.31.16v.08c-.41.89-1.65,2.74-4.32-.4v-.4c2.26-1.29.51-6.13-2.78-2.66L63.09,39v1.77s0,1.29-2.26.89c-6.18-.89-7.31-4.44-13.17,3.71L37,46.62,102,0,73.7,32.34H89.44l-21.31,19H80L0,100.1,37.57,65.82,24.7,68.48l6.69-5.73L52.18,61Z"/><path class="cls-1" d="M35.41,58.8,51.67,44.69l-1.65.4,1.65-1.77s3.91-2.18,5,0-5.66,6.13-5.66,6.13l-14,9.36Z"/><path class="cls-1" d="M55.89,50.65s5.66,1.77-2.26,2.18Z"/></g></g></g></g></svg>