<svg xmlns="http://www.w3.org/2000/svg" viewBox="0 0 132.57 63.7"><defs><style>.cls-1{fill:#f6d30a;}.cls-2{fill:#e41601;}</style></defs><title>Asset 2</title><g id="Layer_2" data-name="Layer 2"><g id="Layer_1-2" data-name="Layer 1"><g id="Layer_2-2" data-name="Layer 2"><g id="Layer_2-2-2" data-name="Layer 2-2"><path class="cls-1" d="M63.28,34.8a3.07,3.07,0,0,1,3.3-.5c1.4-1.9,6.2-4.3,9.9-2.4,1.4-1.9,3.8-.9,3.8-.9L47.58,47.6l8.1,16.1,10.4-18.5,10.5,18.5s10.9-20.4,14.2-26.5,2.8-5.2,18-5.2c5.2-1.4,6.6-5.7,7.1-9,6.2-.9,9-7.1,8.5-9.5,2.4-.9,9-7.6,8.1-10.9-55.4,0-45-3.3-56.1,16.3.2.2-9.9-18.9-9.9-18.9L56.18,18.9C45.08-.8,55.48,2.6.08,2.6c-.9,3.3,5.7,9.9,8.1,10.9-.5,2.4,2.4,8.5,8.5,9.5.5,3.3,1.9,7.6,7.1,9,15.2,0,15.1-1.4,18.4,4.7,0,0,5.7-.9,7.1.9C50.48,34.3,57.58,31,63.28,34.8Z"/></g></g><path class="cls-2" d="M87,29.6l12.5-6.8s-.4-1.7,1.7-1.6c1.8-.6,1.6-2.1,1.5-3a.43.43,0,0,0-.4-.4c-.5,0-1.3-.2-.8-.9a6.31,6.31,0,0,0,.4-.9,1.44,1.44,0,0,1,.9-1.1c.7-.3,1.5-.8,1.5-1.5,0-1,3.6-.5,5.1-.1a1.91,1.91,0,0,1,1,.5c.3.3,1.2.8,1.7.3,1.2-1.2-.5-1.2-.5-1.2s-4.4-1.3-6.2-.9c-.8-.4.7-4-1.3-3.8-.4,0-.5-.2-.6-.6.1-1.9-3.7-2.2-3.7.6-1.7-.1-2.2,1.1-1.8,2,.1,1.1-6.7.5-6.7.5s-1.9,0-1.8,1.5,1.9-.4,1.9-.4a26.3,26.3,0,0,0,5.4.2c-.9.7-1,1.2-.9,1.9a.31.31,0,0,1-.4.4c-1.6-.1-1.3,1.4-.2,2.2.2.2.3.5,0,.7-1.8,1.4-1,2.1.1,3.3a.35.35,0,0,1-.2.6c-2.1.2-2,1.3-3,3.3-1.1,2.2-1.8.7-1.8,1.6s-2.2.2-2.2,1C88.18,27.5,87,27.6,87,29.6Z"/></g></g></svg>