<?xml version="1.0" encoding="utf-8"?>
<!-- Generator: Adobe Illustrator 21.0.0, SVG Export Plug-In . SVG Version: 6.00 Build 0)  -->
<svg version="1.1" id="Layer_1" xmlns="http://www.w3.org/2000/svg" xmlns:xlink="http://www.w3.org/1999/xlink" x="0px" y="0px"
	 viewBox="0 0 1310.3 742.2" style="enable-background:new 0 0 1310.3 742.2;" xml:space="preserve">
<style type="text/css">
	.st0{fill:#FFFFFF;stroke:#000000;stroke-miterlimit:10;}
</style>
<g>
	<g>
		<path class="st0" d="M452.9,159.1c-5.2,2.9-7.8,8-7.8,15.4v96.1c0,0.3-0.3,0.6-0.8,1.1c-6.1,4.6-12.7,8.2-19.9,11
			c-7.2,2.8-14.7,4.9-22.4,6.3c-7.7,1.4-15.4,2.3-23.2,2.7c-7.7,0.4-15.3,0.6-22.6,0.6c-11.1,0-22.4-0.4-33.8-1.1
			c-20-1.5-38-6.6-54.1-15.2c-16.1-8.6-29.8-19.8-41-33.6c-11.3-13.8-19.9-29.5-26-47.1c-6.1-17.6-9.1-36.1-9.1-55.6
			c0-22.5,4-42.5,12.2-59.8c8.1-17.3,19.2-31.9,33.2-43.7c14.1-11.8,30.4-20.6,49.2-26.6c18.7-5.9,38.7-8.9,60-8.9
			c11.4,0,22.8,0.6,34.4,1.9c11.5,1.3,22.8,2.7,34,4.2c5.1,0.8,10.1,1.5,15,2.3c4.9,0.8,9.9,1.4,15,1.9c1,0,1.5,0.5,1.5,1.5
			c-0.5,9.1-1.4,18-2.7,26.8c-1.3,8.7-2.5,17.5-3.8,26.4c-0.3,1.8-0.5,3.5-0.8,5.1c-0.3,1.6-0.5,3.2-0.8,4.7c0,0.8-0.4,1.2-1.3,1.3
			c-0.9,0.1-1.5-0.2-1.7-1c-2-10.9-5.7-20.3-11-28.1c-5.3-7.8-11.8-14.4-19.6-19.6c-7.7-5.2-16.4-9-26-11.4
			c-9.6-2.4-19.6-3.6-30-3.6c-17.5,0-33.7,2.9-48.8,8.7c-15.1,5.8-28.2,14-39.3,24.5c-11.1,10.5-19.9,23.2-26.4,38
			c-6.5,14.8-9.7,31.1-9.7,48.8c0,19.2,3.5,37.4,10.6,54.5c7.1,17.1,16.8,32,29.1,44.8c12.3,12.8,26.8,22.9,43.7,30.4
			c16.8,7.5,35,11.2,54.5,11.2c8.4,0,16.8-1,25.4-2.9c8.6-1.9,16-6,22-12.3v-85.5c0-6.1-1.9-10.2-5.7-12.3c-3.8-2.1-8.1-4-12.9-5.5
			c-2-0.5-4.1-1.1-6.1-1.9c-2-0.8-4.1-1.8-6.1-3c-0.8-0.5-1-1.1-0.8-1.7c0.2-0.6,0.8-0.9,1.5-0.9c15.2,0,30.2,0.1,45,0.4
			c14.8,0.3,29.8,0.8,45,1.5l0.4,3C464,154.1,458.1,156.2,452.9,159.1z"/>
		<path class="st0" d="M652.9,259.9c-3.2-0.2-6.5-0.5-10.1-0.8c-2-0.3-4.1-0.4-6.3-0.6c-2.2-0.1-4.4-0.2-6.6-0.2
			c-5.8,0-11.6,0.3-17.5,0.8c-5.8,0.5-11.7,1-17.5,1.5c-0.8,0-1.3-0.4-1.5-1.1c-0.3-0.8,0-1.4,0.8-1.9l14.8-7.2
			c-4.3-11.9-8.8-23.6-13.5-35.1c-4.7-11.5-9.2-23.4-13.5-35.5h-58.9c-1.3,3.3-3.1,8.2-5.5,14.6c-2.4,6.5-4.7,13.2-7,20.1
			c-2.3,7-4.3,13.6-6.1,19.8c-1.8,6.2-2.7,10.7-2.7,13.5c0,3.8,1.6,6.3,4.9,7.4c3.3,1.1,6.5,2,9.5,2.5v3c-4.8-0.5-9.7-1-14.8-1.3
			c-5.1-0.4-10.1-0.6-15.2-0.6c-5.1,0-10.1,0.2-15.2,0.6c-5.1,0.4-10.1,0.8-15.2,1.3c-0.8,0.3-1.2-0.1-1.3-1.1c-0.1-1,0.2-1.6,1-1.9
			c13.9-1.8,23.7-9.1,29.2-22v0.4c7.3-18.5,14.4-37,21.3-55.5c6.8-18.5,13.5-37.1,20.1-55.8c4.6-12.7,9-25.3,13.3-37.8
			c4.3-12.5,8.9-25.1,13.7-37.8c0.3-0.8,0.8-1.1,1.5-1.1s1.3,0.4,1.5,1.1c1.3,3.5,2.6,7,4,10.4c1.4,3.4,2.7,6.9,4,10.4
			c10.4,28.4,21.2,56.8,32.5,85.5c11.3,28.6,24.1,56.6,38.5,83.9c3,5.8,6.9,10,11.6,12.5c4.7,2.5,10.1,4.1,16.1,4.6v3
			C659.4,260,656.1,260.2,652.9,259.9z M552.8,88.2c-4.3,13.4-8.4,26.5-12.3,39.3c-3.9,12.8-8.3,26-13.1,39.7h49L552.8,88.2z"/>
		<path class="st0" d="M937,260.3c-10.1,0-20.4,0-30.8,0c-10.1,0-20.1-0.2-30-0.8c-1.5,0-2-0.6-1.5-1.9c0.2-0.5,0.4-1,0.6-1.5
			c0.1-0.5,0.3-1,0.6-1.5c0.8-2.3,1.5-4.6,2.3-6.8c0.8-2.3,1.1-4.4,1.1-6.5c0-14.4-0.7-28.7-2.1-42.7c-1.4-14.1-3-28.2-4.7-42.3
			c-1-8.6-2-16.3-2.8-23c-0.9-6.7-1.6-14.5-2.1-23.4c-9.6,18.5-18.9,37-27.7,55.4c-8.9,18.5-17.7,37.2-26.6,56.2
			c-3,6.3-6,12.6-8.9,18.8c-2.9,6.2-5.9,12.5-8.9,18.8c-0.3,0.5-0.6,0.8-1.1,0.8c-0.5,0-1-0.2-1.5-0.8
			c-11.6-16.2-21.7-32.7-30.2-49.6c-8.5-16.8-16.5-33.7-24.1-50.7c-4.1-8.9-7.7-16.9-10.8-24.1c-3.2-7.2-6.9-15.1-11.2-23.7
			c-0.8,6.3-1.5,12.5-2.3,18.4c-0.8,6-1.5,11.8-2.3,17.7c-2,15.7-3.8,31.3-5.3,46.7c-1.5,15.4-2.3,31.1-2.3,47.1
			c0,4.6,1.1,7.7,3.4,9.3c2.3,1.7,5.1,3.1,8.4,4.4c1,0.5,2.4,1.1,4.2,1.7c1.8,0.6,2.9,1.1,3.4,1.3c0.8,0.5,1,1.1,0.8,1.9
			c-0.3,0.8-0.8,1.1-1.5,1.1c-3.5,0-7-0.1-10.4-0.2c-3.4-0.1-6.9-0.3-10.4-0.6c-3.5-0.2-7.1-0.4-10.6-0.6c-3.5-0.1-7.1-0.2-10.6-0.2
			c-2.5,0-5.1,0-7.6,0c-2.3,0-4.8,0.3-7.6,0.8c-0.8,0.3-1.3-0.1-1.5-1.1c-0.3-1,0-1.6,0.8-1.9c2-0.5,3.5-0.8,4.6-0.8
			c2.8-0.5,5.2-1.1,7.2-1.7c2-0.6,3.9-2.3,5.7-5.1c0.5-0.8,1.2-4,2.1-9.9c0.9-5.8,1.9-13.2,3-22.2c1.1-9,2.4-19.2,3.8-30.6
			c1.4-11.4,2.7-23,4-34.9c1.3-11.9,2.5-23.6,3.8-35.1c1.3-11.5,2.4-22.1,3.4-31.7c1-8.4,1.8-15.8,2.3-22.2c0.5-6.5,1-11.1,1.5-13.9
			c0-0.8,0.3-1.2,1-1.3c0.6-0.1,1.2,0.1,1.7,0.6c3,3.3,7.3,9.8,12.9,19.6c5.6,9.8,11.6,21.1,18,34c6.5,12.9,13.2,26.6,20.1,41
			c7,14.4,13.4,27.9,19.2,40.3c4.3,8.9,7.8,16.5,10.6,22.8c2.8,6.3,5.3,11.6,7.6,16c4-8.1,8.2-16.9,12.3-26.4s8.3-18.9,12.3-28.3
			c8.9-20.5,18.2-41.3,28.1-62.3c9.9-21,20.4-39.7,31.5-56.2c0.5-0.5,1-0.7,1.5-0.6c0.5,0.1,0.8,0.6,0.8,1.3c0.5,3,1,7.3,1.3,12.7
			c0.4,5.4,1,11.7,1.7,18.8c0.8,9.4,1.7,19.6,2.8,30.8c1.1,11.1,2.3,22.5,3.6,34.2c1.3,11.6,2.5,23,3.8,34c1.3,11,2.6,21.1,4,30.2
			c1.4,9.1,2.7,16.8,4,23c1.3,6.2,2.5,10.1,3.8,11.6c2.8,4.1,5.4,6.7,8,7.8c2.5,1.1,5.6,2,9.1,2.5c1.8,0.5,3.6,0.8,5.5,1
			c1.9,0.1,3.9,0.7,5.9,1.7L937,260.3z"/>
		<path class="st0" d="M1058.8,241.1c-0.8,5.4-1.5,11.1-2.3,16.9c0,0.8-0.5,1.1-1.5,1.1l-0.4,0.4c-2,0.8-3.7,1.1-4.9,1.1
			c-5.8,0-11.7-0.1-17.7-0.2c-6-0.1-11.8-0.2-17.7-0.2c-5.1,0-10-0.1-14.8-0.2c-4.8-0.1-9.8-0.2-14.8-0.2c-6.8,0-13.7,0.1-20.7,0.2
			c-7,0.1-13.9,0.3-20.7,0.6v-3c3.8,0,6.9-0.8,9.3-2.5c2.4-1.6,4.2-3.7,5.5-6.3c1.3-2.5,2.1-5.4,2.5-8.5c0.4-3.2,0.6-6.4,0.6-9.7
			v-158c0-5.1-1.2-8.4-3.6-9.9c-2.4-1.5-5-2.8-7.8-3.8c-1.5-0.5-3.2-1.1-5.1-1.7c-1.9-0.6-3.9-1.6-5.9-2.8c-0.5-0.5-0.7-1.1-0.6-1.7
			c0.1-0.6,0.6-1,1.3-1h108.2c1-0.5,2.1-1,3.2-1.3c1.1-0.4,2.2-0.8,3.2-1.3c1.3-0.5,1.9,0,1.9,1.5c-0.8,6.6-1.7,12.7-2.8,18.4
			c-1.1,5.7-2.3,11.5-3.6,17.3c-0.3,0.8-0.8,1.1-1.7,1c-0.9-0.1-1.3-0.6-1.3-1.3c-0.5-8.9-3.5-14.7-9.1-17.5
			c-5.6-2.8-12.4-4.2-20.5-4.2h-30v77.9h44.1c1.3,0,2.9-0.4,4.9-1.1c2-0.8,4-1.5,6.1-2.3c2.8-1.5,5.6-2.7,8.4-3.4
			c1.3-0.5,1.9,0,1.9,1.5c-0.3,3-0.6,6.3-1,9.9c-0.4,3.5-0.8,6.8-1.3,9.9c-0.5,3-0.9,6.2-1.1,9.5c-0.3,3.3-0.6,6.5-1.1,9.5
			c0,0.8-0.3,1.3-0.9,1.5c-0.6,0.3-1.2,0.1-1.7-0.4c-1.3-1.3-2.1-2.5-2.5-3.8c-0.4-1.3-0.8-2.7-1.3-4.2c-0.5-1.5-1-3-1.5-4.6
			c-0.5-1.5-1.4-2.9-2.7-4.2c-1.3-1.3-3.6-2.2-7-2.9c-3.4-0.6-7.1-1.1-11-1.5c-3.9-0.4-7.8-0.6-11.6-0.6s-6.7,0-8.7,0h-11.4v78.2
			c3.8,5.6,9.2,9.8,16.1,12.7c7,2.9,13.7,4.4,20.3,4.4c8.9,0,16.4-2.3,22.6-7c6.2-4.7,10.3-11.3,12.3-19.9l3,0.8
			C1060.6,230,1059.6,235.7,1058.8,241.1z"/>
	</g>
	<g>
		<path class="st0" d="M1210.9,472.8c-0.3,8.9-1.5,17-3.6,24.2c-0.3,0.8-0.8,1.2-1.6,1.2c-0.8,0-1.3-0.4-1.6-1.2
			c-1.3-6.7-3.4-12-6.2-16.2c-2.8-4.1-6.3-7.4-10.6-9.8c-4.3-2.4-9.1-4.1-14.4-5c-5.3-0.9-10.9-1.4-16.8-1.4H143.4v233.1
			c0,10.6,3.4,19.7,10.2,27.1c6.8,7.5,15.2,12,25.3,13.6c0.8,0.3,1.1,0.9,1,1.8c-0.1,0.9-0.6,1.4-1.4,1.4c-9.3-0.8-18.7-1.5-28.1-2
			c-9.5-0.5-19-0.8-28.5-0.8c-6.9,0-13.8,0.2-20.6,0.6c-6.8,0.4-13.6,0.9-20.6,1.4c-0.8,0-1.3-0.5-1.4-1.4c-0.1-0.9,0.2-1.5,1-1.8
			c6.4-1.3,11.4-2.8,15-4.4c3.6-1.6,6.2-3.7,8-6.4c1.7-2.7,2.8-6,3.2-10.2c0.4-4.1,0.6-9.4,0.6-15.8V465H41.2c-8.5,0-16,3-22.6,9
			c-6.5,6-11.4,12.7-14.6,20.2c-0.5,0.8-1.1,1.1-1.8,1c-0.7-0.1-1-0.6-1-1.4c-0.5-2.7-0.8-5.1-0.8-7.2c0-5.3,0.7-10.5,2-15.6
			c1.3-5.1,2.8-10.2,4.4-15.6c0.8-2.7,1.6-5.3,2.4-7.8c0.8-2.5,1.5-5,2-7.4c0.5-1.6,1.3-1.9,2.4-0.8c5.6,3.5,11,5.7,16.4,6.6
			c5.3,0.9,11.4,1.4,18.4,1.4h1137.8c2.1,0,4.5-0.3,7-1c2.5-0.7,4.9-1.3,7-1.8c1.3-0.3,2.9-0.5,4.6-0.8c1.7-0.3,3.5-0.5,5.4-0.8
			c0.8,0,1.2,0.5,1.2,1.6v3.2C1211.3,455.6,1211.2,463.9,1210.9,472.8z"/>
		<path class="st0" d="M388,714.3c-13.4-0.8-26.7-1.1-39.9-1.1c-4.8,0-9.6,0.1-14.2,0.2c-4.7,0.1-9.6,0.3-14.6,0.6
			c-0.8,0-1.2-0.4-1.3-1.3c-0.1-0.9,0.2-1.5,1-1.7c7.8-2.3,12.9-5.3,15.2-9.1c2.3-3.8,3.4-9.7,3.4-17.9v-79H220.9v79.8
			c0,16,8.2,24.7,24.7,26.2c0.8,0,1.1,0.5,1.1,1.5c0,1-0.4,1.5-1.1,1.5c-4.1,0-8,0-11.8,0c-3.5,0-7.3,0.1-11.4,0.4
			c-2.8,0-6,0.1-9.7,0.2c-3.7,0.1-6.9,0.2-9.7,0.2c-3,0-6.2,0-9.5,0c-3.3,0-6.6-0.1-9.9-0.4c-1,0-2.2-0.1-3.6-0.2
			c-1.4-0.1-2.6-0.2-3.6-0.2c-0.8,0-1.2-0.4-1.3-1.3c-0.1-0.9,0.2-1.5,0.9-1.7c4-0.8,7.3-1.6,9.9-2.5c2.5-0.9,4.4-2.1,5.7-3.8
			c1.3-1.6,2.1-3.7,2.5-6.3c0.4-2.5,0.6-5.8,0.6-9.9V526.7c0-5.6-2.2-9.7-6.6-12.5c-4.4-2.8-9.2-4.3-14.2-4.6v-3
			c10.6,0.8,21.1,1.1,31.5,1.1c4.3,0,8.6-0.1,12.9-0.2c4.3-0.1,8.6-0.2,12.9-0.2h8c0.8,0,1.1,0.5,1.1,1.5c0,1-0.4,1.5-1.1,1.5
			c-4.6,0-8.7,1.4-12.3,4.2c-3.7,2.8-5.5,6.7-5.5,11.8v66.1h116.2v-64.6c0-6.1-1.6-9.9-4.8-11.6c-3.2-1.6-7-3.1-11.6-4.4
			c-1-0.3-2-0.5-2.9-0.8c-0.9-0.3-1.8-0.5-2.8-0.8c-0.8-0.3-1.1-0.8-0.9-1.7c0.1-0.9,0.6-1.3,1.3-1.3c12.1,0.8,23.9,1.1,35.3,1.1
			c5.1,0,10.2-0.1,15.4-0.2c5.2-0.1,10.3-0.3,15.4-0.6c0.8,0,1.2,0.4,1.3,1.3c0.1,0.9-0.2,1.5-1,1.7c-5.6,1-10,2.5-13.3,4.4
			c-3.3,1.9-4.9,6-4.9,12.3v155.7c0,8.6,1.9,15.1,5.7,19.4c3.8,4.3,10,7.2,18.6,8.7L388,714.3z"/>
		<path class="st0" d="M591.7,717.2c-4.7,1.1-9.3,1.7-13.9,1.7c-7.6,0-14.4-1.4-20.5-4.2c-6.1-2.8-11.5-6.3-16.3-10.6
			c-4.8-4.3-9.3-9.2-13.5-14.8c-4.2-5.6-8.2-11.3-12-17.1c-3.5-5.3-7.3-10.6-11.2-15.8c-3.9-5.2-8.2-9.9-12.9-14.1
			c-4.7-4.2-9.7-7.5-15.2-10.1c-5.4-2.5-11.6-3.8-18.4-3.8c-2,0-4.1,0-6.1,0c-1.8,0-3.7,0.3-5.7,0.8v53.9c0,7.3,2.2,13.6,6.6,18.8
			c4.4,5.2,10.3,8.2,17.7,8.9v3c-5.8-0.5-11.6-0.9-17.3-1.3c-5.7-0.4-11.5-0.6-17.3-0.6c-5.8,0-11.5,0.3-16.9,0.8
			c-5.4,0.5-11.1,1.1-16.9,1.9c-0.8,0.3-1.3-0.1-1.7-1c-0.4-0.9-0.2-1.6,0.6-2.1c5.3-2.5,9.7-6.3,13.3-11.4
			c3.5-5.1,5.3-10.5,5.3-16.3V532.4c0-5.8-2.1-10.9-6.3-15.4c-4.2-4.4-9.2-7.4-15-8.9c-0.8-0.3-1.1-0.8-1-1.7
			c0.1-0.9,0.6-1.3,1.3-1.3h74.8c7.8,0,15.6,1,23.2,2.8c7.6,1.9,14.3,4.9,20.1,8.9c5.8,4.1,10.5,9.4,14.1,16
			c3.5,6.6,5.3,14.4,5.3,23.5c0,12.2-3.4,23.7-10.1,34.6c-6.7,10.9-14.2,20.3-22.6,28.1c2.8,3,5.8,6.9,9.1,11.6
			c3.3,4.7,6.8,9.6,10.6,14.6c5.6,7.6,11.5,15.4,17.7,23.4c6.2,8,12.7,15.2,19.6,21.6c6.8,6.5,13.9,11.5,21.3,15.2
			c7.3,3.7,14.8,5,22.4,4l1.1,3C600.9,714.5,596.4,716,591.7,717.2z M506.3,550.6c-1.9-6.6-4.7-12.5-8.5-17.9
			c-3.8-5.3-8.5-9.7-14.1-13.1c-5.6-3.4-12-5.1-19.4-5.1c-3,0-6.1,0.2-9.1,0.6c-3,0.4-6,1.2-8.7,2.5v94.6c4.3,0.8,8.5,1.3,12.5,1.5
			c4,0.3,8.2,0.4,12.5,0.4c14.2,0,24-3.9,29.4-11.6c5.4-7.7,8.2-18.4,8.2-32.1C509.1,563.8,508.2,557.2,506.3,550.6z"/>
		<path class="st0" d="M784.6,656.8c-6,12.5-13.9,23.4-23.7,32.5c-9.9,9.1-21.3,16.2-34.4,21.3c-13,5.1-26.8,7.6-41.2,7.6
			c-11.9,0-24.2-2.9-37-8.7c-12.8-5.8-24.5-13.4-35.1-22.8c-10.6-9.4-19.4-20-26.4-31.9c-7-11.9-10.4-23.9-10.4-36.1
			c0-18.5,1.7-34.4,5.1-47.7s8.9-24.6,16.5-33.8c7.6-9.2,17.6-16.8,30-22.8c12.4-5.9,27.6-10.8,45.6-14.6l4.9-0.4
			c16.2-1.3,31.3,1.1,45.2,7c13.9,6,26.1,14.3,36.5,25.1c10.4,10.8,18.5,23.5,24.5,38.2c5.9,14.7,8.9,30.1,8.9,46.3
			C793.6,630.6,790.6,644.3,784.6,656.8z M681.5,511.9c-3.2,0.1-6.4,0.3-9.5,0.6l0,191.7c3.1,0.7,6.2,1.1,9.5,1.4L681.5,511.9z
			 M704.2,704.7c6.8-1.2,13-3.2,18.8-6.1c9.9-4.9,18.2-11.5,24.9-19.8c6.7-8.2,11.8-17.8,15.2-28.7c3.4-10.9,5.1-22.4,5.1-34.6
			c0-12.4-1.8-24.8-5.5-37.2c-3.7-12.4-9.1-23.5-16.3-33.4c-7.2-9.9-16.1-17.9-26.6-23.9c-4.8-2.8-10-5-15.5-6.5V704.7z
			 M697.6,513.1c-3.1-0.5-6.2-0.9-9.5-1.1v194c0.2,0,0.4,0,0.6,0c3,0,6-0.1,8.9-0.4L697.6,513.1z M665.6,513.6
			c-5.9,1.2-11.4,3-16.5,5.3c-10,4.7-18.4,11.1-25.3,19.4c-6.8,8.2-12.1,17.7-15.8,28.5c-3.7,10.8-5.5,22.2-5.5,34.4
			c0,12.7,1.9,25.2,5.7,37.6c3.8,12.4,9.4,23.6,16.9,33.6c7.5,10,16.5,18.1,27.2,24.3c4.2,2.4,8.6,4.4,13.3,5.9L665.6,513.6z"/>
		<path class="st0" d="M1018.9,509.4c-0.1-0.1-0.4-0.1-0.9,0.2c-3.5,1-7.3,2.3-11.2,3.8c-3.9,1.5-5.9,4.2-5.9,8l0.4,91.5v15.6
			c0,14.7-0.3,29.2-0.8,43.5c-0.5,14.3-1.4,28.7-2.7,43.1c0,0.5-0.3,1-1,1.3c-0.6,0.4-1.2,0.3-1.7-0.2
			c-12.2-10.4-24.3-21.6-36.5-33.6c-12.2-12-24.1-24.3-35.9-36.8c-11.8-12.5-23.4-25.2-34.8-38c-11.4-12.8-22.3-25.3-32.7-37.4
			c-3.5-3.8-6.7-7.4-9.5-10.8c-2.8-3.4-6-7-9.5-10.8c-0.8,6.8-1.1,13.4-1.1,19.8c0,9.6,0.1,19.2,0.4,28.9c0.3,9.6,0.6,19.2,1.1,28.9
			c0.5,9.6,0.9,19.2,1.1,28.9c0.3,9.6,0.4,19.4,0.4,29.2c0,4.3,0.4,7.8,1.1,10.4c0.8,2.7,1.7,4.7,2.8,6.3s2.5,2.6,4.2,3.2
			c1.6,0.6,3.4,1.1,5.1,1.3c2,0.5,4,1.1,6.1,1.7c2,0.6,4.4,2,7.2,4c0.5,0.5,0.7,1.1,0.6,1.7c-0.1,0.6-0.6,0.9-1.3,0.9
			c-2.5-0.3-5-0.5-7.4-0.8c-2.4-0.2-4.9-0.5-7.4-0.8c-3.5-0.5-7.2-0.9-10.8-1.1c-3.7-0.3-7.3-0.4-10.8-0.4c-4.6,0-9.2,0.3-14.1,1
			c-4.8,0.6-9.6,1.3-14.4,2.1c-0.8,0.3-1.3,0-1.7-0.8c-0.4-0.8-0.3-1.4,0.2-1.9c2-1.8,3.9-3.2,5.5-4.2c1.6-1,3.2-1.9,4.7-2.7
			c3-1.5,5.8-3.6,8.2-6.3c2.4-2.7,3.6-6.9,3.6-12.7V507.7l3-6.1c0.3-0.5,0.6-0.9,1.1-1.1c0.5-0.3,0.9-0.1,1.1,0.4
			c27.6,28.6,54.3,56.8,80.1,84.5c25.8,27.7,52,56.4,78.6,86v-1.1c0-11.6-0.1-23.2-0.2-34.6c-0.1-11.4-0.3-23-0.6-34.9
			c-0.3-10.9-0.5-22.5-0.8-34.8c-0.3-12.3-0.4-23.9-0.4-34.8c0-4.3-0.4-7.8-1.3-10.4c-0.9-2.7-2.1-4.7-3.6-6.1
			c-1.5-1.4-3.2-2.3-4.9-2.8c-1.8-0.5-3.5-0.9-5.3-1.1c-2-0.3-3.9-0.6-5.5-1c-1.6-0.4-3.1-1.2-4.4-2.5c-0.5-0.5-0.6-1.1-0.2-1.9
			c0.4-0.8,0.8-1,1.3-0.8c5.8,0.8,11.3,1.1,16.3,1.1c5.3,0,10.6,0,16,0c3.3,0,6.6-0.1,10.1-0.2c3.4-0.1,6.9-0.1,10.4,0.2
			c1.3,0,2.7,0.1,4.2,0.2c1.5,0.1,2.9,0.2,4.2,0.2l0.8,3C1019.3,509.5,1019,509.6,1018.9,509.4z"/>
		<path class="st0" d="M1162.7,694c-0.8,5.4-1.5,11.1-2.3,16.9c0,0.8-0.5,1.1-1.5,1.1l-0.4,0.4c-2,0.8-3.7,1.1-4.9,1.1
			c-5.8,0-11.7-0.1-17.7-0.2c-6-0.1-11.8-0.2-17.7-0.2c-5.1,0-10-0.1-14.8-0.2c-4.8-0.1-9.7-0.2-14.8-0.2c-6.8,0-13.7,0.1-20.7,0.2
			c-7,0.1-13.9,0.3-20.7,0.6v-3c3.8,0,6.9-0.8,9.3-2.5c2.4-1.6,4.2-3.7,5.5-6.3c1.3-2.5,2.1-5.4,2.5-8.5c0.4-3.2,0.6-6.4,0.6-9.7
			v-158c0-5.1-1.2-8.4-3.6-9.9c-2.4-1.5-5-2.8-7.8-3.8c-1.5-0.5-3.2-1.1-5.1-1.7c-1.9-0.6-3.9-1.6-5.9-2.8c-0.5-0.5-0.7-1.1-0.6-1.7
			c0.1-0.6,0.6-1,1.3-1h108.2c1-0.5,2.1-1,3.2-1.3c1.1-0.4,2.2-0.8,3.2-1.3c1.3-0.5,1.9,0,1.9,1.5c-0.8,6.6-1.7,12.7-2.9,18.4
			c-1.1,5.7-2.3,11.5-3.6,17.3c-0.3,0.8-0.8,1.1-1.7,1c-0.9-0.1-1.3-0.6-1.3-1.3c-0.5-8.9-3.5-14.7-9.1-17.5
			c-5.6-2.8-12.4-4.2-20.5-4.2h-30v77.9h44.1c1.3,0,2.9-0.4,4.9-1.1c2-0.8,4-1.5,6.1-2.3c2.8-1.5,5.6-2.7,8.4-3.4
			c1.3-0.5,1.9,0,1.9,1.5c-0.3,3-0.6,6.3-0.9,9.9c-0.4,3.5-0.8,6.8-1.3,9.9c-0.5,3-0.9,6.2-1.1,9.5c-0.3,3.3-0.6,6.5-1.1,9.5
			c0,0.8-0.3,1.3-1,1.5c-0.6,0.3-1.2,0.1-1.7-0.4c-1.3-1.3-2.1-2.5-2.5-3.8c-0.4-1.3-0.8-2.7-1.3-4.2c-0.5-1.5-1-3-1.5-4.6
			c-0.5-1.5-1.4-2.9-2.7-4.2c-1.3-1.3-3.6-2.2-7-2.9c-3.4-0.6-7.1-1.1-11-1.5c-3.9-0.4-7.8-0.6-11.6-0.6c-3.8,0-6.7,0-8.7,0h-11.4
			v78.2c3.8,5.6,9.2,9.8,16.1,12.7c7,2.9,13.7,4.4,20.3,4.4c8.9,0,16.4-2.3,22.6-7c6.2-4.7,10.3-11.3,12.3-19.9l3,0.8
			C1164.4,682.9,1163.4,688.6,1162.7,694z"/>
		<path class="st0" d="M1302.8,682.8c-4.7,7.3-10.6,13.6-17.8,18.8c-7.2,5.2-15.2,9.2-23.9,12.1c-8.7,2.9-17,4.4-24.9,4.4
			c-3.8,0-7.8-0.4-12-1.3c-4.2-0.9-8-2.3-11.4-4.4c-3.4-2-6.2-4.6-8.4-7.8c-2.2-3.2-3.2-7.1-3.2-12c0-3,0.3-6.1,1-9.1
			s1.2-5.9,1.7-8.7l1.9-9.1c0-0.8,0.5-1.1,1.5-1.1c1,0,1.5,0.4,1.5,1.1v5.7c0,5.3,1.1,10,3.4,14.1c2.3,4.1,5.2,7.5,8.7,10.4
			c3.5,2.9,7.7,5.1,12.3,6.5c4.7,1.4,9.4,2.1,14.2,2.1c4.6,0,9.2-0.8,14.1-2.3c4.8-1.5,9.2-3.7,13.1-6.6c3.9-2.9,7.2-6.5,9.7-10.6
			c2.5-4.2,3.8-8.8,3.8-13.9c0-4.8-1.1-9.6-3.4-14.2c-2.3-4.7-5.3-9.4-9.1-14.2c-3.8-4.8-8.1-9.6-12.9-14.4
			c-4.8-4.8-9.7-9.6-14.8-14.4c-5.3-5.1-10.6-10.2-16-15.4c-5.3-5.2-10-10.5-14.1-16c-4.1-5.4-7.3-10.9-9.9-16.5
			c-2.5-5.6-3.8-11.3-3.8-17.1c0-8.6,2.4-16,7.2-22.2c4.8-6.2,10.8-11.3,17.9-15.2c7.1-3.9,14.8-6.8,23.2-8.7
			c8.4-1.9,16.1-2.9,23.2-2.9c10.1,0,19.4,1.3,27.7,3.8c0.8,0.5,1.1,1,1.1,1.5c-1,12.4-2.5,25.2-4.6,38.4c-0.3,0.8-0.8,1.1-1.5,1.1
			c-0.8,0-1.3-0.4-1.5-1.1c-2-8.9-5.9-16.5-11.6-22.8c-5.7-6.3-13.2-9.5-22.6-9.5c-9.6,0-17.7,3.1-24.1,9.3
			c-6.5,6.2-9.7,14.1-9.7,23.7c0,5.1,1.1,9.8,3.2,14.1c2.1,4.3,4.9,8.5,8.4,12.5c3.4,4.1,7.4,8,12,12c4.6,3.9,9.2,7.9,14.1,12
			c5.3,4.3,10.6,8.8,15.8,13.5c5.2,4.7,9.8,9.6,13.9,14.8c4,5.2,7.3,10.7,9.9,16.5c2.5,5.8,3.8,12.2,3.8,19
			C1309.8,667.4,1307.4,675.5,1302.8,682.8z"/>
	</g>
	<g>
		<path class="st0" d="M766.2,327.2c-0.1,0.4-0.5,0.6-1,0.5c-0.5-0.1-0.8-0.3-0.8-0.8c0-4.8-1.3-8.2-3.9-10.1
			c-2.6-2-6.2-2.9-10.9-2.9c-2,0-4,0.1-5.8,0.3c-1.8,0.2-3.7,0.5-5.8,0.8c-1.5,0.3-3,0.5-4.8,0.7c-1.7,0.1-3.3,0.2-4.8,0.2v42.7
			h29.4c1,0,2.2-0.4,3.5-1.3c1.3-0.9,2.3-1.7,3.1-2.6c0.3-0.3,0.6-0.4,1-0.2c0.4,0.1,0.5,0.4,0.5,0.9c-0.3,4.1-0.7,8-1.2,11.9
			c-0.5,3.8-1.1,7.7-1.9,11.4c-0.1,0.4-0.5,0.6-1,0.5c-0.5-0.1-0.8-0.3-0.8-0.8c0.1-4.8-1.1-8.1-3.6-9.9c-2.5-1.8-6.1-2.7-10.8-2.7
			h-18.3v43.6c0,1.7,0.4,3.6,1.1,5.4c0.7,1.9,1.7,3.6,3.1,5c1.3,1.5,2.8,2.6,4.6,3.5c1.7,0.9,3.6,1.3,5.7,1.3v1.7h-1.5
			c-1.6,0-3.1-0.1-4.6-0.2c-1.5-0.1-3-0.3-4.6-0.4c-1.6-0.1-3.1-0.2-4.6-0.3c-1.5-0.1-2.9-0.1-4.4-0.1c-1.5,0-2.9,0.1-4.4,0.2
			c-1.5,0.1-2.9,0.3-4.4,0.4c-1.7,0.1-3.5,0.3-5.1,0.3c-1.7,0.1-3.3,0.1-4.9,0.1h-1.3c-0.4,0-0.7-0.3-0.8-0.8
			c-0.1-0.5,0.1-0.8,0.5-1c2.6-0.4,4.6-1,6.1-1.6c1.4-0.7,2.5-1.5,3.2-2.6c0.7-1.1,1-2.5,1.1-4.1c0.1-1.7,0.1-3.8,0.1-6.4v-91.1
			c0-3.3-0.7-5.4-2-6.2c-1.3-0.8-2.8-1.4-4.6-1.8c-0.7-0.3-1.6-0.6-2.7-1c-1.1-0.4-2.2-0.9-3.4-1.6c-0.4-0.3-0.6-0.6-0.4-1
			c0.1-0.4,0.4-0.5,0.9-0.5c9.2,0.4,18.4,0.7,27.7,0.7h15.5c0.7,0,1.5,0,2.3,0.1c0.8,0.1,1.6,0.1,2.5,0.1c3.3,0.1,6.8,0.1,10.3,0
			c3.6-0.1,6.6-0.9,9.3-2.4c0.3-0.3,0.6-0.3,1,0c0.4,0.3,0.5,0.7,0.3,1.1L766.2,327.2z"/>
		<path class="st0" d="M674.2,392.9c-3.4,7.1-7.9,13.3-13.5,18.5c-5.6,5.2-12.1,9.2-19.5,12.1c-7.4,2.9-15.2,4.3-23.4,4.3
			c-6.8,0-13.8-1.7-21-5c-7.3-3.3-13.9-7.6-20-13c-6-5.3-11-11.4-15-18.1c-4-6.8-5.9-13.6-5.9-20.5c0-10.5,1-19.5,2.9-27.1
			c1.9-7.6,5.1-14,9.4-19.2c4.3-5.3,10-9.6,17.1-13c7-3.4,15.7-6.2,25.9-8.3l2.8-0.2c9.2-0.7,17.8,0.6,25.7,4
			c7.9,3.4,14.8,8.1,20.7,14.2c5.9,6.1,10.5,13.4,13.9,21.7c3.4,8.3,5.1,17.1,5.1,26.3C679.2,378,677.6,385.8,674.2,392.9z
			 M615.6,310.6c-1.8,0-3.6,0.2-5.4,0.4v109c1.7,0.4,3.5,0.6,5.4,0.8L615.6,310.6z M628.4,420.1c3.8-0.7,7.4-1.8,10.7-3.5
			c5.6-2.8,10.3-6.5,14.1-11.2c3.8-4.7,6.7-10.1,8.6-16.3c1.9-6.2,2.9-12.7,2.9-19.6c0-7-1-14.1-3.1-21.1c-2.1-7.1-5.2-13.4-9.3-19
			c-4.1-5.6-9.1-10.1-15.1-13.6c-2.8-1.6-5.7-2.8-8.8-3.7L628.4,420.1L628.4,420.1z M624.7,311.2c-1.7-0.3-3.5-0.5-5.4-0.6v110.2
			c0.1,0,0.2,0,0.3,0c1.7,0,3.4-0.1,5-0.2L624.7,311.2z M606.5,311.5c-3.3,0.7-6.5,1.7-9.4,3c-5.7,2.7-10.5,6.3-14.4,11
			c-3.9,4.7-6.9,10.1-9,16.2c-2.1,6.1-3.1,12.6-3.1,19.5c0,7.2,1.1,14.3,3.2,21.4c2.2,7.1,5.4,13.4,9.6,19.1
			c4.2,5.7,9.4,10.3,15.4,13.8c2.4,1.4,4.9,2.5,7.5,3.3L606.5,311.5z"/>
	</g>
</g>
</svg>
