<?xml version="1.0" encoding="utf-8"?>
<!-- Generator: Adobe Illustrator 21.0.0, SVG Export Plug-In . SVG Version: 6.00 Build 0)  -->
<svg version="1.1" id="Layer_1" xmlns="http://www.w3.org/2000/svg" xmlns:xlink="http://www.w3.org/1999/xlink" x="0px" y="0px"
	 viewBox="0 0 127.9 93.1" style="enable-background:new 0 0 127.9 93.1;" xml:space="preserve">
<style type="text/css">
	.st0{fill:#EEE8D7;}
</style>
<g>
	<path class="st0" d="M8.1,45.9c0.2-0.3,0.4-0.5,0.6-0.8c0.2-0.2,0.4-0.4,0.6-0.6c0.2-0.4,0.1-0.8-0.4-0.9c-2.3-0.6-4.4-1.5-6.4-2.8
		c-0.9-0.5-1.6-1.3-2.3-2c-0.1-0.1-0.1-0.3-0.2-0.5c0.2,0,0.3-0.1,0.5-0.1c0.9,0,1.9,0.1,2.8,0c2.9-0.1,5.4-1.2,7.7-2.9
		c0.6-0.5,0.6-0.8-0.1-1.1c-1.2-0.6-2.4-1.3-3.5-2C7,31.9,6.7,31.4,6.2,31c0.3-0.1,0.4-0.1,0.5-0.1c1.5,0.6,2.9,0.2,4.4,0
		c1.5-0.2,3.1-0.4,4.6-0.8c1.4-0.4,2.8-1.1,4.2-1.7c0.5-0.2,0.4-0.5,0-0.8c-0.6-0.3-1.2-0.6-1.7-0.9c-1-0.6-1.9-1.3-2.8-2
		c-0.2-0.1-0.3-0.3-0.5-0.6c0.4,0,0.6-0.1,0.8,0c1.5,0.1,3,0.3,4.6,0.2c1.8-0.1,3.6-0.3,5.3-0.6c1.5-0.3,3-1,4.5-1.6
		c0.2-0.1,0.4-0.4,0.5-0.5c-0.2-0.2-0.4-0.4-0.6-0.5c-1.1-0.5-2.2-0.9-3.2-1.4c-0.8-0.4-1.5-0.9-2.3-1.4c-0.2-0.1-0.3-0.3-0.4-0.4
		c0-0.1,0-0.1,0.1-0.1c0.2,0,0.3,0,0.5,0.1c1.2,0.6,2.6,0.8,3.9,0.6c2.3-0.3,4.7-0.5,6.9-1.3c1.2-0.4,2.3-1,3.5-1.5
		c0.6-0.3,0.5-0.6,0-0.9c-1.5-0.8-2.8-1.7-4-2.9c-0.1-0.1-0.2-0.3-0.3-0.5c0.2,0,0.4-0.1,0.6-0.1c0.9,0.2,1.8,0.5,2.8,0.6
		c0.9,0.2,1.7,0.4,2.6,0.3c2.3-0.1,4.5-0.2,6.8-0.5c1-0.1,1.9-0.6,2.9-0.9c0.6-0.2,0.6-0.6,0.1-1c-0.6-0.5-1.2-0.9-1.8-1.4
		c-0.7-0.6-1.3-1.3-1.9-2c-0.1-0.1-0.2-0.4-0.3-0.5c0,0,0.1-0.1,0.1-0.1c0.4,0.1,0.7,0.1,1.1,0.2c1.2,0.4,2.3,0.9,3.5,1.1
		c3.4,0.6,6.8,0.9,10.3,0c0.8-0.2,0.8-0.5,0.2-1.2c-1-1.3-2.1-2.5-3.1-3.9c-0.3-0.4-0.5-1-0.7-1.5c0.1-0.1,0.1-0.1,0.2-0.2
		c0.2,0.1,0.5,0.2,0.7,0.4c1.2,1.1,2.4,2,3.9,2.5c1.1,0.4,2.2,0.8,3.4,1.1c2.4,0.7,4.9,0.7,7.4,0.5c1.6-0.1,3.2-0.3,4.8-0.6
		c0.7-0.1,1.3-0.6,2-0.8c0.4-0.1,1-0.3,1.3-0.2c2.2,0.7,4.4,1.3,6.7,1.6c1.2,0.2,2.4,0.7,3.6,1.1c0.9,0.3,1.8,0.6,2.7,0.8
		c1.7,0.4,3.4,0.8,5.1,1.1c0.6,0.1,1.1,0.2,1.7,0.2c0.5,0,0.9,0.2,1.2,0.6c1.2,1.3,2.5,2.7,3.8,4c0.3,0.3,0.8,0.4,1.2,0.5
		c1.8,0.3,3.7,0.5,5.5,0.9c2.7,0.6,5.3,1.4,7.8,2.4c1,0.4,2.2,0.5,3.3,0.7c1,0.1,2,0.2,3,0.3c0.7,0.1,1,0.4,0.9,1.1
		c-0.1,1.3-0.6,2.4-1.5,3.4c-0.6,0.6-1,1.3-1.1,2c-0.4,1.7-1.4,2.8-2.8,3.8c-0.6,0.4-0.9,1.2-1.5,1.7c-0.7,0.6-1.4,1.3-2.1,1.8
		c-0.5,0.3-0.8,0.7-1.1,1.2c-0.7,1.6-1.6,3.1-3.2,4.1c-0.9,0.5-1.8,0.6-2.7,0.6c-0.5,0-0.4-0.3-0.2-0.6c0.4-0.6,0.8-1.2,1.1-1.8
		c0.2-0.4,0.2-0.8,0.2-1.2c0-0.4-0.3-0.6-0.6-0.3c-0.5,0.3-1.1,0.7-1.6,1c-0.7,0.5-1.6,0.4-2.4,0.4c-0.5,0-0.8-0.2-0.7-0.8
		c0-0.4,0-0.8,0-1.2c-0.1-0.9-1.1-1.4-1.9-1c-0.4,0.2-0.6,0.5-1,0.8c-0.3,0.3-0.6,0.7-1,0.9c-0.5,0.4-0.9,0.2-1.1-0.4
		c-0.2-0.6-0.4-1.3-0.6-1.9c-0.3-0.7-0.8-0.8-1.3-0.3c-0.4,0.4-0.8,0.7-1.1,1.1c-0.9,1-1.6,1.2-2.5,0.1c-0.4-0.5-0.8-1.1-1.2-1.7
		c-0.3-0.6-0.8-0.8-1.4-0.5c-0.5,0.3-1,0.8-1.3,1.2c-0.5,0.6-0.8,0.7-1.4,0.1c-0.5-0.6-0.9-1.3-1.4-1.9c-0.1-0.2-0.2-0.5-0.4-0.7
		C90,28,89.8,28,89.5,28.2c-0.9,0.6-1.5,1.3-1.5,2.4c0,1.9,1.4,2.7,3.2,2.4c0.3-0.1,0.7-0.2,0.9-0.4c0.6-0.4,1.2-0.2,1.3,0.6
		c0.1,0.4,0,0.8,0,1.1c0,0.4,0.1,1.1,0.2,1.1c0.5,0,1-0.1,1.5-0.2c0.2-0.1,0.3-0.3,0.5-0.4c0.3-0.4,0.6-0.3,0.9,0.1
		c0.6,0.8,0.9,1.7,1,2.8c0,1,0.4,1.2,1.3,0.9c0.9-0.3,1.7-0.6,2.5-1.3c0.3-0.3,0.7-0.2,0.8,0.2c0.3,0.7,0.4,1.3,0.6,2
		c0.1,0.3,0.2,0.6,0.3,0.9c0.3-0.1,0.6-0.3,0.9-0.4c0.1-0.1,0.2-0.2,0.2-0.3c0.6-0.8,0.7-0.8,1.4-0.1c0.4,0.4,0.6,0.9,0.9,1.3
		c0.3,0.6,0.6,0.8,1.2,0.4c0.6-0.4,1.1-0.8,1.5-1.3c0.6-0.6,1.2-1.1,2.1-1.3c0.5-0.1,0.8,0.1,0.8,0.6c0,0.6,0,1.3-0.1,1.9
		c-0.4,1.7-1.5,3-2.8,4.2c-0.5,0.5-0.9,1.1-1.1,1.8c-0.4,2.1-1.3,3.9-3.1,5c-1.1,0.7-2.2,1.3-3.3,1.9c-0.6,0.3-1.1,0.7-1.3,1.3
		c-0.1,0.2-0.3,0.3-0.4,0.4c-0.1-0.2-0.4-0.3-0.4-0.5c-0.1-1-0.3-2,0.1-3.1c0.3-0.8,0.1-1.1-0.8-1.1c-1.2,0-2.4,0.2-3.4,0.8
		c-0.1,0.1-0.3,0.1-0.7,0.2c0.2-0.4,0.3-0.7,0.5-0.9c0.9-1.6,0.8-3.1-0.5-4.4c-1.8-1.9-4-2.1-6.3-1.5c-3.2,0.8-5.7,2.7-7.5,5.4
		c-1.1,1.6-1.9,3.4-2.3,5.3c-0.3,1.2-0.5,2.4-0.7,3.7c0,0.2-0.2,0.4-0.3,0.5c-0.2-0.1-0.4-0.2-0.5-0.3c-0.5-0.9-1-1.7-1.5-2.6
		c-0.4-0.7-0.6-0.8-1.1-0.2c-1.1,1.3-1.9,2.8-2.4,4.4c-0.7,2.1-1,4.2-0.8,6.4c0,0.1,0,0.2,0,0.4c0,0.1,0,0.1-0.1,0.3
		c-0.2-0.2-0.5-0.3-0.6-0.5c-0.6-1.3-1.2-2.5-1.7-3.8c-0.2-0.6-0.7-0.8-1.1-0.4c-1.5,1.5-2.6,3.3-3.3,5.3c-0.8,2.2-0.9,4.5-0.6,6.8
		c0.1,0.5,0.1,1.1,0.2,1.6c0,0.1-0.1,0.3-0.1,0.5c-0.2-0.1-0.4-0.1-0.4-0.2c-0.9-1.1-1.7-2.3-2.2-3.7c-0.1-0.2-0.1-0.4-0.3-0.5
		c-0.3-0.5-0.6-0.5-1-0.1c-1.2,1.3-2.1,2.8-2.7,4.5c-0.8,2.4-1.1,4.8-1.1,7.3c0,0.2-0.1,0.4-0.2,0.6c-0.2-0.1-0.4-0.2-0.5-0.3
		c-0.7-1.2-1.3-2.3-1.9-3.6c-0.4-0.7-0.8-0.9-1.4-0.3c-1.1,1.1-1.9,2.4-2.5,3.9c-1,2.3-1.2,4.7-1.3,7.2c0,0.2-0.2,0.4-0.2,0.6
		c-0.2-0.1-0.4-0.1-0.5-0.3c-0.8-1.4-1.7-2.7-2.4-4.2c-1-2.2-1.6-4.5-1.7-6.9c-0.1-1.3-0.1-2.6-0.1-3.9c0-0.5-0.3-0.8-0.7-0.7
		c-1.6,0.3-3.3,0-4.9-0.1c-0.1,0-0.1,0-0.2,0c-0.9,0-1.8,0-2.6,0.6c-0.2,0.1-0.5,0.1-0.8,0.1c0-0.2,0-0.5,0.1-0.6
		c0.6-0.7,0.6-1.6,0.5-2.4c-0.2-1.6-0.2-3.3,0.1-4.9c0-0.1,0.1-0.3,0.1-0.4c0-0.2,0-0.4,0-0.7c-0.3,0-0.6-0.1-0.8,0
		c-1.3,0.6-2.7,0.7-4.1,0.6c-1.8-0.1-3.6,0-5.2,0.9c-0.2,0.1-0.4,0-0.6,0c0-0.2,0-0.5,0-0.7c0.2-0.4,0.5-0.7,0.7-1
		c0.5-0.9,0.6-1.9,0.6-2.9c0-1.4,0.1-2.7,0.2-4.1c0-0.7-0.2-0.9-0.9-0.8c-1.3,0.2-2.6,0.3-4,0.5c-1.1,0.2-2.2,0.4-3.3,0.7
		c-0.2,0-0.4,0-0.7,0c0-0.2,0-0.4,0.1-0.6c0.5-1.3,0.7-2.5,0.5-3.9c-0.2-1.6-0.1-3.1,0.5-4.5c0.3-0.5,0-0.8-0.6-0.8
		c-1.2,0.1-2.5,0.2-3.7,0.2c-1.2,0-2.3,0.3-3.4,0.8c-0.3,0.1-0.6,0.2-1,0.3c-0.1,0-0.3-0.1-0.4-0.2c-0.1-0.1,0-0.3,0.1-0.4
		c0.8-0.7,0.9-1.7,0.9-2.7c0.1-1.3,0-2.7,0.6-4c0.1-0.2,0.1-0.7-0.1-0.8c-0.2-0.1-0.6-0.1-0.8,0c-0.6,0.2-1.1,0.4-1.7,0.6
		C8.2,46,8.2,45.9,8.1,45.9z M79.4,25.5c0-0.1,0.1-0.1,0.1-0.2c-0.1-0.2-0.2-0.4-0.3-0.5c-0.1-0.1-0.2-0.2-0.3-0.3
		c-1.3-1.3-3-1.6-4.8-1.4c-1.5,0.2-2.9,0.5-4.4,0.6c-2.4,0.2-4.6-0.5-6.4-2.2c-0.8-0.7-1.5-1.5-2.2-2.2c-1.7-1.7-3.4-3.2-5.6-4.1
		c-0.4-0.2-0.8-0.4-1.2-0.5c-0.3-0.2-0.8-0.3-0.7-0.8c0.1-0.5,0.5-0.5,0.9-0.6c0.3,0,0.6,0,0.8,0c3.1,0,6-0.7,8.8-2.1
		c1.4-0.7,2.8-1.3,4.3-1.5c1.3-0.2,2.6-0.1,4,0.2c1.4,0.3,2.7,0.9,3.7,2c0.8,0.9,1.6,1.9,2.5,2.8c0.1,0.1,0.3,0.1,0.4,0.2
		c0.1-0.1,0.2-0.3,0.2-0.4c0-0.2-0.1-0.4-0.1-0.5c-1-1.9-2.3-3.5-4.1-4.7c-0.8-0.5-1.5-1.1-1.3-2.2c0-0.1-0.1-0.4-0.2-0.4
		c-0.2,0-0.5,0-0.7,0.1c-0.3,0.3-0.5,0.6-0.6,1c-0.2,0.5-0.5,0.7-1,0.5c-1.9-0.7-3.7-0.3-5.5,0.3c-1.6,0.5-3.2,1-4.9,0.8
		c-0.3,0-0.6,0.1-0.9,0.2c0.1,0.3,0.2,0.6,0.4,0.8c0.4,0.5,0.4,0.6-0.2,0.8c-1.1,0.6-2.3,0.5-3.5,0.5c-0.7,0-1.4,0-2,0.1
		c-1.4,0.2-1.9,1-1.8,2.3c0.1,1,0.7,1.4,1.5,1.9c1,0.6,2.1,1.2,3.1,2c2,1.7,3.9,3.7,6,5.4c2.2,1.8,4.6,2.7,7.5,2.1
		c1.4-0.3,2.9-0.6,4.3-0.9c1-0.2,2,0,2.9,0.5C78.5,25.2,79,25.3,79.4,25.5z M97.3,14.3C97.3,14.3,97.3,14.3,97.3,14.3
		c-0.7,0-1.3,0.1-1.9,0.2c-0.2,0-0.3,0.3-0.4,0.4c0.1,0.1,0.3,0.3,0.4,0.4c0.4,0.2,0.8,0.3,1.3,0.5c0.6,0.2,1.1,0.4,1.7,0.6
		c0.6,0.2,1.1-0.1,1.2-0.8c0.1-0.8-0.1-1.3-0.8-1.3C98.2,14.3,97.8,14.3,97.3,14.3z"/>
</g>
</svg>
