<?xml version="1.0" encoding="utf-8"?>
<!-- Generator: Adobe Illustrator 21.0.0, SVG Export Plug-In . SVG Version: 6.00 Build 0)  -->
<svg version="1.1" id="Layer_1" xmlns="http://www.w3.org/2000/svg" xmlns:xlink="http://www.w3.org/1999/xlink" x="0px" y="0px"
	 viewBox="0 0 96.8 96.7" style="enable-background:new 0 0 96.8 96.7;" xml:space="preserve">
<style type="text/css">
	.st0{fill:#EEE8D7;}
</style>
<g>
	<path class="st0" d="M50.3,0c-14.5-0.5-27,4.6-37.1,15.1C4.4,24.4,0,35.6,0,48.4C-0.1,75,21.6,96.8,48.4,96.7
		C75.2,96.8,97.1,75,96.8,48.1C96.6,21.1,75.3,0.9,50.3,0z M48.5,92.1c-24,0-44.1-19.5-43.7-44.6C5.2,24.9,23.8,3.9,50.6,4.9
		c21.5,0.8,42.2,18.9,41.6,44.9C91.6,72.6,72.8,92.1,48.5,92.1z M83,34.8c-0.6-0.3-1.3-0.5-1.6-1.3c-0.1-0.3-0.7-0.5-1.1-0.5
		c-0.6,0-1.2,0.2-1.8,0.4c-2.5,0.9-5.1,1.9-7.6,2.7c-3.3,1-6.7,1.9-10.1,2.7c-1.9,0.5-3.9,0.8-5.9,1.1c-0.6,0.1-1.2,0.1-1.2-0.8
		c0-0.5-0.2-0.9-0.8-0.9c-0.4,0-0.6-0.1-0.6-0.7c0.1-0.6-0.3-1-0.9-1.1c-0.6-0.1-0.8-0.4-0.8-1c0-0.6-0.2-1-0.7-1.2
		c-0.6-0.2-0.6-0.6-0.3-1.1c0.1-0.3,0.2-0.7,0.1-0.9c-0.6-0.9,0-1.4,0.4-2.1c0.4-0.5,1-1,0.7-1.9c-0.7,0.3-1.9,0.9-2.5,1.2
		c-0.1-0.1,0.7-0.9,0.8-1.1c0.1-0.2,0.2-0.3,0.4-0.4c1.3-1.5,2.7-2.8,3.9-4.4c0.2-0.3,0.2-0.9,0.1-1c-1.9,1.1-4.2,2.5-6.2,3.6
		c-0.1-0.1,4.6-4,6.5-7.1c0.1-0.2,0.2-0.9,0.2-1c-2.4,1.6-5.4,3.7-7.8,5.3c-0.1-0.1,1.2-1.5,2-2.2c0.8-0.7,1.6-1.5,2.1-1.9
		c2-1.5,3.6-3.3,4.9-5.3c0.2-0.4,0.7-1.1,0.6-1.3c-0.2,0.1-0.4,0.2-0.5,0.3c-2.5,1.8-5,3.6-7.5,5.5c-1.8,1.3-3.4,2.8-5.1,4.2
		c-2.2,1.9-3.9,4.3-5.4,6.7c-0.9,1.5-1.8,3-2.6,4.6c-0.8,1.6-0.4,2.1,1.3,2.4c2.2,0.3,4.1,1.2,5.4,3c0.8,1.2,1.5,2.5,1.5,4
		c0,0.3-0.2,0.7-0.5,0.9c-0.7,0.4-1.5,0.7-2.3,1.2c-2.4,1.5-4.3,3.6-5.4,6.2c-0.7,1.7-0.7,3.6,0.1,5c0.2,0.4,0.9,1.2,1.8,1.6
		c0-0.2,0-0.6,0-0.8c0.1-0.7,0.7-1.6,1.4-1.7c1-0.2,2.1-0.4,3.1-0.6c1.6-0.3,3.2-0.5,4.9-0.7c0.7-0.1,1.2,0.1,1.4,0.9
		c0.1,0.8,0.3,1.7,0.6,2.5c0.4,1.4,0.1,2.8-0.5,4.1c-0.6,1.1-1.4,2-2.1,2.9c-0.9,1.1-0.8,1.9,0.4,2.6c1.7,0.9,3.4,1.7,5.2,2.3
		c1.6,0.6,3.4,1,5.1,1.3c2.1,0.4,4.3,0.8,6.4,0.8c3.6,0.1,7.3-0.1,10.9-0.3c1,0,2.1-0.1,3-0.9c-4.6-1-9.1-1.3-13.7-1.7
		c2.8-0.9,5.8-0.5,8.6-1.8c-3.4-1.2-7-1-10.4-1.6c0.2-0.1,2.6-0.4,4.7-0.7c0.7-0.1,2.7-0.3,3-0.4c-0.6-0.7-2-1-2.5-1.1
		c-1.4-0.3-2.8-0.3-4.2-0.3c-0.6,0-1.2,0-1.8-0.1c-0.4,0-2-0.1-2-0.2c1.4-0.3,3.7-0.7,5.1-1c0.2-0.5-0.1-0.8-0.5-0.9
		c-0.7-0.2-1.4-0.4-2.1-0.6c-0.3-0.1-0.5-0.4-0.6-0.7c-0.1-0.5-0.2-0.9-0.7-1c-0.2-0.1-0.4-0.3-0.5-0.5c-0.4-0.9-0.5-1.7-0.4-2.7
		c0.1-1-0.1-2,0.1-3c0,0,0-0.1-0.1-0.2c-0.3-0.5-0.1-1,0.4-1.3c1.6-1,3.2-2,4.8-2.8c3.2-1.6,6.3-3.2,9.6-4.7
		c2.8-1.3,5.6-2.5,8.6-3.3c1.2-0.3,1.9-0.6,1.7-2.2c0-0.4,0.2-0.8,0.4-1.2C84.2,36.1,83.9,35.2,83,34.8z M38.8,73.1
		c-8.3-6.3-13.3-14.7-14.3-25C23,33.8,28.5,22.5,39.6,14c0.8-0.6,2-1.5,2.9-2.1c-0.4-0.1-2.9,0.6-3.7,0.8c-1.8,0.6-3.6,1.3-5.4,2
		c-4.7,1.9-8.6,4.9-12,8.6c-1.7,1.9-3.2,4.1-4.6,6.2c-1,1.5-1.8,3.2-2.5,4.9c-0.8,1.9-1.3,3.9-1.8,5.9c-0.4,1.6-0.4,3.4-0.7,5
		c-0.5,2.6-0.1,5.2,0.2,7.7c0.2,2.2,0.8,4.4,1.5,6.5c1,3.1,2.4,6.1,4.2,8.8c2.7,4.1,6.1,7.6,10.3,10.4c3.4,2.2,7,4,11,5
		c2.5,0.6,5.1,1.1,7.7,1.3c4,0.2,7.9-0.1,11.7-1.3c1.3-0.4,2.7-0.8,4-1.3c1.4-0.5,5-2.6,4.9-2.7c-2,0.3-4.3,0.5-6.2,0.5
		C52.9,80.5,45.5,78.2,38.8,73.1z"/>
</g>
</svg>
