<?xml version="1.0" encoding="utf-8"?>
<!-- Generator: Adobe Illustrator 21.0.0, SVG Export Plug-In . SVG Version: 6.00 Build 0)  -->
<svg version="1.1" id="Layer_1" xmlns="http://www.w3.org/2000/svg" xmlns:xlink="http://www.w3.org/1999/xlink" x="0px" y="0px"
	 viewBox="0 0 88.8 125.6" style="enable-background:new 0 0 88.8 125.6;" xml:space="preserve">
<style type="text/css">
	.st0{fill:#EEE8D7;}
</style>
<g>
	<path class="st0" d="M88.8,12.8c0-0.4,0-0.8,0-1.2s0-0.9-0.1-1.3C88,6.9,86.4,4,83.9,1.5c-0.4-0.4-0.8-0.9-1.2-1.3
		C82.5,0,82.4,0,82.2,0C82,0.1,81.9,0.3,82,0.5s0.1,0.4,0.3,0.6c0.1,0.2,0.3,0.4,0.5,0.6c0.6,0.7,1.1,1.4,1.7,2.2
		c0.5,0.7,0.9,1.5,1.1,2.3c0.2,1,0.2,1.9-0.2,2.9c-0.4,0.8-1,1.1-1.8,1.1c-0.5,0-1-0.2-1.4-0.5c-0.9-0.5-1.7-1.1-2.5-1.8
		c-0.1-0.1-0.2-0.2-0.3-0.3c-0.1-0.1-0.3-0.2-0.4,0c-0.1,0.1-0.1,0.3-0.1,0.4c0.1,0.2,0.3,0.5,0.5,0.7c0.3,0.3,0.7,0.5,1,0.7
		c0.9,0.6,1.8,1.3,2.6,2.1c0.7,0.7,1.3,1.6,1.5,2.6c0.3,1.3-0.1,2.3-1,3.1c-0.6,0.6-1.3,0.6-2.1,0.2c-0.3-0.2-0.6-0.4-0.9-0.6
		c-0.7-0.6-1.3-1.3-1.8-2.1c-0.3-0.4-0.7-0.6-1.2-0.7c-0.1,0.3-0.1,0.6,0.1,0.8c0.2,0.4,0.4,0.8,0.6,1.1c0.8,1.2,1.2,2.5,1.3,4
		c0.1,1.1-0.1,2.2-0.6,3.2c-0.7,1.3-1.7,2.1-3.2,2.3c-0.3,0-0.7,0.1-1,0.1c-0.1,0-0.2,0-0.3,0c0-0.3-0.1-0.6-0.1-0.9
		c0-1.2,0.1-2.5,0.3-3.7c0.2-1.2,0.7-2.2,1.5-3.2c0.2-0.3,0.4-0.6,0.5-0.8c0-0.1,0-0.2,0.1-0.3c-0.5,0-0.8,0.2-1.1,0.5
		c-0.3,0.3-0.6,0.7-0.8,1.1c-1,1.5-1.9,3-2.5,4.7c-0.2,0.6-0.4,1.2-0.7,1.7c-0.5,1-1.3,1.4-2.5,1.3c-0.8-0.1-1.5-0.2-2.3-0.3
		c-1.7-0.3-3.3-0.6-5-0.9c-0.1,0-0.3-0.1-0.4-0.1v-0.1c0.2,0,0.4,0,0.6,0c0.3,0,0.3-0.1,0.3-0.4s0-0.6,0-0.9c0-0.9,0.2-1.8,0.4-2.7
		c0.1-0.6,0.2-1.2,0.4-1.7c0-0.2,0.1-0.4-0.1-0.5c-0.2,0.1-0.3,0.2-0.5,0.4c-0.6,0.6-1,1.3-1.2,2.1c-0.3,1.1-0.6,2.2-0.9,3.3v0.1
		c0.2,0.1,0.4,0.2,0.6,0.4c0,0,0,0,0,0.1c-1.1-0.2-2.2-0.4-3.3-0.5c0-0.2-0.1-0.4-0.1-0.6c0-0.8,0-1.5,0-2.3
		c0.1-1.2,0.1-2.4-0.4-3.5c-0.8-2-1.8-3.8-2.9-5.6c-0.2-0.3-0.5-0.6-0.8-0.8c-0.2-0.2-0.5-0.4-0.8-0.6c-0.1-0.1-0.2-0.1-0.2-0.1
		c-0.2,0.5-0.2,0.6,0.1,0.9c1.2,1.5,2,3.1,2.6,4.9c0.5,1.5,0.6,3,0.5,4.5c0,0.4-0.1,0.7-0.1,1.1c-0.1,0.8-0.6,1.2-1.3,1.4
		c-0.2,0-0.3,0.1-0.5,0.1c-0.7,0-1.3,0.1-2,0.1c-0.3,0-0.7,0-1.1,0c0.1-0.1,0.1-0.1,0.1-0.2c0.2-0.1,0.5-0.1,0.8-0.2
		c0-0.2-0.1-0.4-0.1-0.6c-0.2-0.7-0.5-1.3-0.9-1.9c-0.7-0.9-1.4-1.8-2.1-2.7c-0.6-0.7-1.2-1.3-1.8-2c-0.1-0.1-0.2-0.2-0.3-0.3
		c-0.1,0-0.3,0-0.3,0C46,15.9,46,16,46,16.1c0.1,0.2,0.2,0.4,0.4,0.6c0.9,0.8,1.5,1.8,2,2.9c0.5,1.3,0.9,2.7,1.4,4.1
		c-0.2,0.1-0.3,0.1-0.4,0.1c-0.8,0.1-1.6,0.4-2.4,0.7c-0.9,0.4-1.8,0.8-2.7,1.2c-0.5,0.2-1,0.3-1.5,0.1c-0.4-0.2-0.8-0.3-1.1-0.5
		c-0.7-0.4-1.3-0.9-1.9-1.5c-1.1-1-2-2-2.7-3.3c-0.4-0.8-0.8-1.7-0.8-2.6c0-0.1,0-0.2-0.1-0.2c-0.2-0.2-0.5-0.4-0.8-0.5
		c0,0.6,0.1,1.1,0.1,1.7c0,0.7,0.2,1.5,0.5,2.1c0.5,1,1,2,1.8,2.8c0.9,1,1.8,2,2.7,3.1c0.4,0.5,0.8,1,1.2,1.5
		c0.1,0.1,0.2,0.4,0.2,0.5c-0.1,0.6-0.2,1.2-0.4,1.9c-0.2,0-0.3,0-0.5,0c-0.6,0.1-1.2,0.1-1.8,0.2c-1.6,0.3-3.1,1-4.5,1.8
		c-1.2,0.8-2.4,1.6-3.7,2.3c-0.9,0.6-1.8,1-2.8,1.3c-0.8,0.2-1.6,0.5-2.3,0.7c-0.4,0.1-0.9,0.3-1.3,0.4c-0.1,0.5-0.2,0.9-0.3,1.3
		c0,0.1,0,0.3,0,0.4c0.2,0.5,0.4,1,0.7,1.6c0.3-0.1,0.5-0.1,0.7-0.3c0.2-0.1,0.5-0.2,0.7-0.2c0.4,0,0.9,0,1.3,0c0.1,0,0.2,0,0.3,0.1
		c-0.2,0.2-0.3,0.3-0.5,0.4c-0.4,0.3-0.6,0.8-0.6,1.2c-0.1,0.4,0.1,0.5,0.5,0.4c0.3-0.1,0.7-0.3,1-0.4c1.8-0.8,3.7-1.2,5.8-1
		c1.1,0.1,2.2,0,3.3-0.2c1.9-0.4,3.2-1.6,3.8-3.4c0.2-0.5,0.3-1.1,0.3-1.6c0-0.7,0.2-0.8,0.9-0.9c0.1,0,0.1,0,0.2,0
		c0.9,0,1.7-0.1,2.6-0.1c0.2,0,0.4,0,0.6,0v0.1C45.7,35,45.6,35,45.4,35c-0.4,0.1-0.9,0.1-1.3,0.2c-0.5,0.1-1,0.1-1.4,0.2
		c-0.6,0.2-0.8,0.4-0.8,1.1c0,0.6-0.1,1.2-0.4,1.7c-0.9,2.1-3.5,3.5-5.5,3c-0.3-0.1-0.5,0-0.7,0.2c-0.7,0.7-1.5,1.4-2.2,2
		c-1.3,1.1-2.5,2.2-4,3c-0.1,0.1-0.2,0.1-0.3,0.2c-0.2-0.5-0.3-1-0.5-1.4c0.1-0.1,0.3-0.2,0.4-0.3c0.2-0.2,0.3-0.5,0.3-0.8
		c-0.1-0.5-0.5-1-1-1.1c-0.4-0.1-1,0.1-1.3,0.5c-0.2,0.2-0.2,0.5,0,0.7c0.1,0.2,0.2,0.3,0.4,0.4c0.4,0.4,0.5,0.8,0.3,1.3
		c0,0.1-0.1,0.2-0.1,0.3c-0.2,0.8-0.5,1.5-0.7,2.3c-0.2,0.6-0.4,1.1-0.6,1.7c-0.1,0.4-0.4,0.6-0.7,0.7c-0.4,0.1-0.7,0.2-1,0.3
		c-0.6,0.3-1.1,0.5-1.7,0.8c-0.3,0.1-0.5,0.3-0.6,0.7c0.4,0.2,0.7-0.1,1-0.1s0.7-0.1,1.1-0.1c-0.1,0.3-0.4,0.6-0.6,0.7
		c-0.8,0.4-1.4,1.1-2,1.8c-0.1,0.1-0.3,0.3-0.4,0.5c0.6-0.1,1-0.3,1.5-0.3c-1.1,1.1-1.9,2.3-2.7,3.7c0.4,0,0.8-0.1,1.2-0.1
		c-0.3,0.5-0.6,0.8-0.9,1.2s-0.5,0.8-0.7,1.2h-0.1c0.3-0.4,0-0.6-0.2-0.9c-0.7-0.8-1.4-1.5-1.8-2.4c-0.3-0.5-0.5-0.9-0.8-1.4
		c-0.2-0.2-0.3-0.4-0.6-0.5c-0.8-0.3-1.7-0.2-2.5,0c-0.4,0.1-0.6,0.4-0.8,0.6c-0.4,0.6-0.9,1.1-1.3,1.6c-1.2,1.3-2.5,2.6-3.9,3.8
		c-0.5,0.4-1,0.9-1.7,1.1c-0.8,0.3-1.4,0.7-1.9,1.3C2,65.9,1,67.4,0,68.9c0,0,0,0.1,0,0.2c0.6,0.2,1.1,0.1,1.6,0s1.1-0.2,1.6-0.2
		c0.3,0,0.6,0,0.9-0.1c0.5-0.2,0.8-0.6,0.9-1.1c0-0.4,0.2-0.7,0.3-1c0.2,0,0.3,0,0.4,0c0.7,0,0.7,0,1-0.6c0-0.1,0-0.1,0-0.2
		c0.1-0.6,0.5-1,0.8-1.4c0.3-0.3,0.6-0.6,1-1c0.7-0.7,1.5-1.3,2.2-2c0.7-0.6,1.4-1.2,2.2-1.7s1.2-0.4,1.6,0.5
		c0.2,0.4,0.4,0.8,0.7,1.2c0.6,1.1,1.6,1.5,2.8,1.4c0.1-0.2,0.2-0.4,0.3-0.6c0.1,0.4,0,0.8,0.2,1.1c0.2,0.1,0.3,0,0.4-0.2
		c0.2-0.4,0.5-0.7,1-0.9c-0.1,0.3-0.2,0.6-0.2,0.8c0,0.3,0,0.6-0.1,0.8c0.7,0.5,3.2,1.6,3.9,1.8c0-0.1,0-0.1,0-0.2
		c0.1-1,0.4-2,0.9-2.9c0.2-0.3,0.4-0.5,0.6-0.8c0.1-0.1,0.2-0.2,0.4-0.2c-0.5,1.6-0.9,3.1-1.4,4.7c-0.2-0.1-0.4-0.1-0.6-0.2
		c-2-0.9-4.1-1.7-6.1-2.6c-0.7-0.3-1.3-0.7-1.9-1.3c-0.2-0.1-0.3-0.3-0.5-0.4c-0.7-0.6-1.5-0.6-2.2-0.1c-0.4,0.3-0.8,0.7-1,1.2
		c-0.2,0.4-0.3,0.9-0.2,1.4c0.1,1.2,0.3,2.4,0.4,3.6c0.1,1,0.2,2,0.3,3c0,1.1,0,2.1,0,3.2c0,0.7-0.2,1.4-0.3,2c0,0.4,0,0.7,0.2,1
		c0.4,0.7,0.7,1.5,0.9,2.3c0.1,0.6,0.1,1.3,0.1,1.9c0,0.1,0,0.3,0,0.5c0.2-0.1,0.2-0.2,0.3-0.2c0.4-0.4,0.8-0.7,1.2-1.1
		c0.3-0.4,0.7-0.7,1-1.2c0.5-0.8,0.4-1.6-0.3-2.3c-0.2-0.2-0.3-0.3-0.5-0.5c0.1-0.2,0.2-0.3,0.3-0.5s0.2-0.3,0.3-0.5
		c0.1-0.1,0.1-0.3,0.1-0.4s-0.1-0.2-0.1-0.3c-0.6-1.7-0.8-3.5-0.8-5.3c0-1,0.1-2,0.2-3c0-0.3,0.1-0.5,0.1-0.8c0.2,0,0.3,0,0.4,0.1
		c0.3,0.1,0.6,0.2,0.9,0.3c1.6,0.7,3.2,1.5,4.7,2.3c2.1,1.1,4.1,2.3,5.8,4c0.1,0.1,0.3,0.2,0.5,0.2c0.5,0,1-0.1,1.4-0.3
		c0.4-0.2,0.6-0.5,0.6-0.9c0-0.2,0.1-0.5,0.1-0.7c0-0.6,0-1.2,0-1.8c0-0.3,0.1-0.6,0.5-0.7c-0.1,1.4-0.3,2.7-0.4,4
		C29,72.4,28.5,72.7,28,73c-0.3,0.2-0.6,0.2-0.9,0s-0.5-0.3-0.8-0.5c-0.6-0.5-1.2-1-1.8-1.4c-0.9-0.7-1.9-1.1-3-1.5
		c0.1,1.6,0.3,3.1,0.7,4.6c0.3-0.5,0.6-1,0.9-1.5c0.2,0.3,0.4,0.5,0.6,0.8c0.2,0.2,0.3,0.5,0.5,0.7s0.4,0.5,0.6,0.7s0.4,0.4,0.6,0.6
		s0.4,0.5,0.7,0.6c0-0.4,0.1-0.7,0.1-1h0.1c1.3,1.2,2.4,2.5,3.9,3.6c0-0.5-0.2-0.9-0.2-1.4c0.1,0,0.1,0,0.1,0.1
		c2.3,1.5,4.7,2.7,7.1,3.9c3.2,1.6,6.4,3.1,9.5,4.9c0.1,0,0.1,0.1,0.2,0.1c0.3-0.6,0.4-1.2,0.3-1.8c-0.1-0.6-0.2-1.2-0.3-1.7
		c0-0.1,0-0.3,0-0.4H47c0.1,0.2,0.1,0.3,0.2,0.5c0.4,1.8,0.5,3.7,0.6,5.5c0.1,2.2,0.2,4.3,0.6,6.4c0.2,1.1,0.4,2.3,0.8,3.3
		c0.9,2.2,2,4.2,3.5,6c0.9,1.1,1.8,2.2,2.7,3.3c0.5,0.5,0.7,1.1,0.7,1.7c0.1,2.3,0.2,4.7,0.1,7c-0.1,1.5-0.2,3-0.7,4.5
		c-0.2,0.6-0.4,1.2-0.8,1.7c-0.2,0.3-0.4,0.5-0.7,0.5c-0.3,0.1-0.5,0.3-0.6,0.6c-0.3,0.7-0.5,1.3-0.8,2c0,0.1-0.1,0.2-0.1,0.3
		c0.1,0,0.1,0,0.1,0c1.1,0,2.1,0,3.2,0c0.1,0,0.3-0.1,0.4-0.1c0-0.4-0.1-0.8-0.1-1.1c0-0.4,0-0.7,0.1-1.1c0.8-0.1,1.6-0.3,2.4-0.4
		c0-0.6-0.1-1.2-0.1-1.8c0-0.5-0.1-1-0.1-1.5c0-0.8,0.1-1.7,0.2-2.5c0.1-1.1,0.2-2.2,0.5-3.3c0.4-1.9,0.9-3.8,1.4-5.7
		c0.1-0.2,0.1-0.4,0.1-0.6c0.1-0.4-0.1-0.7-0.4-0.9c-0.1-0.1-0.3-0.2-0.4-0.3c-0.4-0.3-0.8-0.7-1.1-1.1c-0.8-1.2-1.3-2.6-1.5-4.1
		c-0.1-1.7,0.2-3.3,0.8-4.8c0.5-1.4,1.2-2.6,2-3.9c0.6-1,1.3-2,1.7-3.2c0,0,0,0,0.1-0.1c-0.1,0.5-0.3,1-0.4,1.5
		c0.4-0.2,0.7-0.4,1-0.6c0,0.1,0,0.2,0,0.3c0.1,0.7,0.1,1.3,0.2,2c0.1,0.5,0.3,0.8,0.7,1.1c0.1-0.4,0.2-0.8,0.3-1.1
		c0.2,0.2,0.5,0.4,0.7,0.6c0.4,0.3,0.7,0.6,1.2,0.8c0.6,0.2,1.1,0,1.6-0.4c0.2-0.2,0.4-0.4,0.5-0.6c0.1-0.1,0.1-0.1,0.2-0.3
		c-0.4,0.2-0.8,0.3-1.2,0.4c-0.6,0.2-1,0-1.3-0.6c-0.2-0.4-0.3-0.8-0.3-1.2c-0.1-0.9-0.2-1.8-0.4-2.7c-0.4-2.4-1.3-4.5-2.6-6.5
		c-1.5-2.4-3.4-4.5-5.5-6.5c-1.6-1.4-3.3-2.6-5.1-3.8c-0.8-0.5-1.5-1-2.2-1.5c-2.6-1.7-4.9-3.8-7.1-6c-1.6-1.7-2.5-3.7-3.2-5.9
		c0,0,0,0,0-0.1L39,58c1.2-0.9,2.4-1.8,3.6-2.8c0.4-0.3,0.7-0.4,1.1-0.2c0.3,0.1,0.6,0.1,0.9-0.1c0.5-0.3,0.8-0.8,0.7-1.3
		c-0.1-0.6-0.5-1.1-1.1-1.2c-0.6-0.1-0.8,0.1-1,0.6c-0.1,0.4-0.3,0.9-0.4,1.3c-0.9-0.1-1.9,0-2.8-0.1c0.2-0.2,0.3-0.4,0.5-0.6
		c0.9-0.8,1.6-1.8,2.3-2.8c1.6-2.2,2.8-4.6,3.5-7.3c0.5-1.9,0.5-3.8,0.5-5.7c0-0.1,0-0.2-0.1-0.4c0-0.2-0.1-0.3-0.4-0.4
		c-0.3-0.1-0.6-0.1-0.9-0.2c-0.3-0.1-0.9-0.5-1.2-0.8c0.2,0,0.3,0,0.4,0c0.5,0,0.9,0,1.4,0c1-0.1,1.9-0.4,2.8-0.9
		c0.6-0.3,1.2-0.5,1.8-0.5c0.3,0,0.6-0.1,1-0.1c-0.2-0.2-0.3-0.3-0.5-0.2c-0.7,0.1-1.4-0.2-2-0.5s-1.1-0.7-1.7-1
		c-0.4-0.3-0.9-0.5-1.3-0.7c-0.5-0.2-1.1-0.3-1.7-0.2c-0.5,0.1-1,0.2-1.5,0.3c-0.3,0-0.5,0.1-0.8,0.1c0.1-0.3,0.2-0.4,0.4-0.4
		c0.2-0.1,0.5-0.2,0.8-0.2c0.7-0.1,1.4-0.2,2.1-0.3c-0.1-0.3-0.4-0.4-0.6-0.5c-0.3-0.1-0.5-0.3-0.6-0.6c-0.5-1-0.4-2.2,0.6-3
		c0.5-0.4,1.1-0.7,1.7-0.9c0.7-0.2,1.4-0.4,2.1-0.5c2-0.5,4-0.7,6-0.4c1.6,0.2,3.2,0.4,4.9,0.6c3.5,0.5,7,1.2,10.5,1.5
		c1.2,0.1,2.5,0.2,3.7,0c1.1-0.2,2.1-0.3,3.2-0.6c1.6-0.5,3-1.2,4.4-2.1c1.1-0.7,2-1.6,3-2.5c0.4-0.3,0.7-0.8,1-1.1
		c1.2-1.4,2.1-2.9,2.6-4.6C88.5,15.6,88.8,14.2,88.8,12.8z M37,36.2c-0.7,0-1.2-0.6-1.3-1.3c0-0.6,0.6-1.3,1.4-1.3
		c0.6,0,1.1,0.6,1.1,1.3C38.2,35.7,37.7,36.2,37,36.2z M44.1,53.1c0.4,0,0.7,0.3,0.7,0.8c0,0.4-0.3,0.7-0.7,0.7s-0.7-0.4-0.7-0.7
		C43.3,53.4,43.7,53.1,44.1,53.1z M38.8,49.4c0.3,0,0.6,0.3,0.6,0.7c0,0.3-0.3,0.5-0.7,0.5s-0.5-0.1-0.5-0.6
		C38.2,49.6,38.4,49.4,38.8,49.4z M33.2,46.2c0.3,0,0.5,0.3,0.5,0.6s-0.3,0.6-0.6,0.6s-0.6-0.3-0.6-0.6
		C32.6,46.6,32.9,46.2,33.2,46.2z M26.7,44c0-0.4,0.2-0.7,0.5-0.7s0.6,0.3,0.6,0.7s-0.2,0.6-0.6,0.6C26.9,44.6,26.7,44.3,26.7,44z
		 M38.6,57.5c-0.1-0.1-0.3-0.1-0.4-0.2c-3.5-2.1-7-4.1-10.4-6.2c-0.4-0.2-0.8-0.5-1.3-0.7c-0.2-0.1-0.4-0.2-0.3-0.5
		c0.3-0.1,0.5,0.1,0.7,0.2c1.8,1.1,3.7,2.1,5.5,3.2c1.9,1.1,3.9,2.2,5.8,3.3c0.3,0.2,0.6,0.3,0.9,0.5C38.9,57.2,38.8,57.3,38.6,57.5
		z M41.7,55L41.7,55c-0.6,0.6-1.3,1.1-2,1.7c-0.1,0-0.2-0.1-0.3-0.1c-4.1-2.3-8.2-4.6-12.3-7c-0.9-0.5-0.8-0.3-0.5-1.3
		c0.2-0.6,0.4-1.3,0.6-1.9c0.1-0.2,0.1-0.3,0.2-0.5h0.1c0.4,1.1,0.8,2.1,1.2,3.2c1.3-0.4,2.6-0.8,4-1.2c0.2,1.6,0.4,3.1,0.6,4.8
		c1.6-0.5,3.1-1,4.8-1.5c0,1.2,0,2.4,0,3.5C39.3,54.9,40.5,54.9,41.7,55z M47.6,98.9c-0.2-0.3-0.2-0.6-0.2-1c0-0.9,0.2-1.8,0.5-2.7
		c0.1-0.4,0.1-0.7,0.1-1.1c-0.1-0.7-0.2-1.3-0.3-2c-0.1-1.3-0.2-2.6-0.3-3.9c0-0.4-0.1-0.9-0.1-1.2c-0.8-0.7-1.6-1.2-2.5-1.6
		S43,84.6,42,84.2c-0.1,0.2-0.2,0.4-0.3,0.6c-0.7,1.3-0.9,2.6-1,4c-0.1,2,0.4,3.9,1.4,5.6c0.4,0.7,0.8,1.4,1.2,2.1
		c0.2,0.4,0.5,0.8,0.6,1.3c0.1,0.3,0.2,0.6,0.2,0.9c0.1,0.4-0.1,0.7-0.4,0.9c-0.2,0.2-0.4,0.3-0.7,0.4c-0.5,0.2-0.9,0.3-1.4,0.4
		c-0.8,0.1-1.5,0.2-2.3,0.3c-1.8,0.1-3.6,0.2-5.3,0.3c-1.4,0-1.4,0-2.4,0.9c-0.7,0.6-1.4,1-2.2,1.3c-0.1,0-0.2,0.1-0.4,0.2
		c0.4,0.4,1.1,0.7,4.4,1.8c0.4-0.6,0.8-1.1,1.2-1.7c0.3,0.2,0.5,0.4,0.8,0.5c0.2,0.2,0.4,0.4,0.8,0.4c0.5-0.7,1.2-1,2-1.2
		c0.6-0.1,1.2-0.3,1.9-0.3c1.8-0.1,3.5-0.1,5.3-0.2c0.5,0,1-0.1,1.4-0.3c0.2-0.1,0.3-0.2,0.5-0.2c0.5-0.3,1-0.5,1.6-0.8
		c-0.1-0.3-0.2-0.6-0.4-0.9C48.1,99.8,47.8,99.3,47.6,98.9z M61.1,16.9c0.2,0.1,0.4,0.3,0.6,0.3c0.4,0.2,0.7,0.3,1.1,0.4
		c0.4,0.2,0.9,0.4,1.3,0.6c0.3,0.2,0.5,0.4,0.6,0.7c0.6,1.3,1.1,2.5,1.7,3.8c0.1,0.3,0.2,0.5,0.1,0.8c-0.1,0.4-0.2,0.9-0.2,1.3
		c0.2,0,0.3,0.1,0.4,0.1c0.7,0.1,1.4,0.2,2.1,0.4c0.4,0.1,0.7,0,1-0.4c1.3-1.5,2.2-3.3,2.6-5.2c0.5-2.1,0.7-4.2,0.4-6.3
		c-0.1-0.9-0.2-1.7-0.5-2.5c-0.8-2.3-2.1-4.4-3.7-6.3c-0.8-1-1.8-1.6-2.9-2.3c-0.3-0.2-0.5,0-0.5,0.3c0,0.1,0,0.2,0,0.3
		c0.1,0.3,0.3,0.5,0.5,0.8c0.7,0.8,1.3,1.5,2,2.3c0.5,0.6,1,1.3,1.4,2.1c0.2,0.4,0.3,0.8,0.4,1.3c0,0.2,0,0.3-0.2,0.5
		c-0.4,0.4-0.8,0.9-1.2,1.3c-0.1,0.2-0.3,0.2-0.5,0.2c-0.7,0-1.4-0.2-2-0.6c-0.4-0.2-0.7-0.5-1-0.7c-0.5-0.4-1-0.7-1.5-1.1
		c0,0-0.1,0-0.1,0.1c-0.3,0.2-0.3,0.4-0.1,0.7c0.1,0.2,0.3,0.4,0.5,0.6c1.1,0.9,2,1.9,2.9,2.9c0.2,0.2,0.4,0.5,0.6,0.7
		c0.3,0.6,0.6,1.1,0.8,1.7c0.1,0.1,0.1,0.3,0.1,0.4c-0.1,0.6-0.4,0.9-1,1c-0.7,0.2-1.3,0-2-0.1c-0.9-0.2-1.7-0.5-2.5-0.9
		c-0.2-0.1-0.5-0.2-0.7-0.1c-0.2,0.1-0.5,0.2-0.7,0.3C60.8,16.5,60.9,16.7,61.1,16.9z M49.8,27.3c-0.2,0.1-0.4,0.1-0.6,0.1
		c-0.6,0-1.2,0-1.7,0c-0.3,0-0.6,0.1-0.8,0.2c-0.7,0.5-1.5,1-2.2,1.5c0.1,0.3,0.1,0.6,0.2,0.9c0.7-0.1,1.3-0.2,1.9-0.3
		c1.6-0.3,3.2-0.3,4.8-0.2c2.1,0.2,4.3,0.4,6.4,0.6c1,0.1,2,0.1,3,0c1.5-0.2,2.9-0.6,4.3-1.1c0.4-0.1,0.7-0.4,1-0.8
		c-0.2-0.3-0.5-0.5-0.8-0.5c-0.5-0.1-1-0.1-1.5,0c-0.3,0-0.7,0.1-1,0.1c-0.2,0-0.4,0-0.5-0.3c-0.2-0.4-0.5-0.5-0.9-0.6
		c-0.2,0-0.4,0-0.6,0c-0.3,0-0.5,0-0.8,0c0.1,0.4,0.1,0.8,0.2,1.2c-0.1,0-0.2,0-0.3,0c-1.5,0-3,0-4.5,0c-0.7,0-1.5-0.1-2.2-0.3
		c-0.4-0.1-0.7-0.3-0.7-0.8c0-0.3-0.2-0.6-0.4-0.7c-0.1-0.1-0.2-0.2-0.3-0.2C51.7,26,51.6,26,51.4,26c-0.4,0-0.8,0.1-1.1,0.3
		c0,0.2,0,0.4,0,0.5C50.2,27.1,50.1,27.2,49.8,27.3z M30.8,23.2c1.3,1.9,3.1,3.4,5.3,4.4c1.1,0.5,2.1,0.9,3.2,1.4
		c0.2,0.1,0.4,0.2,0.6,0.3c0,0.3,0,0.6-0.1,0.9c0.5-0.1,0.9-0.1,1.3-0.2c0.1-0.5,0.1-1,0-1.4c-0.1-0.6-0.4-1.1-1-1.3
		c-0.3-0.1-0.7-0.3-1.1-0.4c-1.4-0.4-2.7-0.8-3.9-1.6c-1.2-0.7-2.3-1.5-3.2-2.6c-0.8-0.9-1.5-1.8-2.2-2.6c-0.1-0.1-0.1-0.1-0.3-0.3
		c0,0.2,0,0.3,0,0.4C29.7,21.3,30.2,22.3,30.8,23.2z M37.6,29.7c-0.1-0.1-0.3-0.2-0.5-0.3c-0.3-0.1-0.6-0.2-0.9-0.2
		c-0.4-0.1-0.8-0.1-1.2-0.2c-0.3,0-0.6-0.2-0.7-0.5c-0.1-0.3-0.3-0.6-0.5-0.9c-0.4,0.1-0.5,0.1-0.5,0.5c0.1,1.1,0.4,2.1,1,3
		c0.4,0.5,0.7,0.6,1.3,0.4c0.8-0.3,1.7-0.6,2.5-0.9c0.1,0,0.2-0.1,0.3-0.1c0-0.1,0-0.1,0-0.1C38,30.2,37.8,30,37.6,29.7z M37,34.1
		c-0.5,0-0.9,0.4-0.9,0.8c0,0.5,0.4,0.9,0.9,0.9s0.9-0.4,0.8-0.8C37.8,34.5,37.4,34.1,37,34.1z"/>
</g>
</svg>
