<?xml version="1.0" encoding="utf-8"?>
<!-- Generator: Adobe Illustrator 21.0.0, SVG Export Plug-In . SVG Version: 6.00 Build 0)  -->
<svg version="1.1" id="Layer_1" xmlns="http://www.w3.org/2000/svg" xmlns:xlink="http://www.w3.org/1999/xlink" x="0px" y="0px"
	 viewBox="0 0 97.1 121.4" style="enable-background:new 0 0 97.1 121.4;" xml:space="preserve">
<style type="text/css">
	.st0{fill:#EEE8D7;}
</style>
<g>
	<g>
		<path class="st0" d="M96.3,23.9c0.6-0.6,0.7-1.4,0.8-2.1c-0.8,0.1-0.9,0.2-0.9,0.8c-0.1,0.7-0.8,1.4-1.6,1.4c-0.4,0-0.8-0.1-1.2,0
			c-1.4,0.2-2.5-0.8-2.7-2.1c0-0.2-0.3-0.5-0.5-0.6c-0.5-0.2-1.1-0.4-1.6-0.6c-0.2-0.1-0.4-0.3-0.6-0.4c0.2-0.3,0.4-0.7,0.7-0.7
			c0.8-0.2,1.3-0.7,1.6-1.5c0.6-1.5,0.7-1.7-0.4-2.8c0,0.1-0.1,0.1-0.1,0.2c-0.3,1.6-1.1,2.3-2.6,2.5c-0.2,0-0.5,0-0.7,0.1
			c-0.7,0.3-1.5,0.6-2.2,0.9c-1.1,0.5-1.9-0.3-2.7-0.7c-0.9-0.4-1.9-0.6-2.9-0.8c-1.7-0.3-3.3,0.1-4.9,0.8c-1,0.4-1.8,1-2.7,1.6
			c-1.6,1.2-2.9,2.6-3.8,4.3c-0.2,0.4-0.4,0.8-0.6,1.2c-0.5,1-1,2-0.9,3.2c0,0.4-0.1,0.8-0.1,1.1c-0.1,0.6-0.3,1.3-0.3,1.9
			c0,1,0.2,1.9,0.3,2.9c0.2,1.5,0.3,3,0.7,4.5c0.2,0.8,0.4,1.7,0.6,2.5c0.5,1.3,1,2.5,1.5,3.7c0.2,0.6,0.4,1.2,0.7,1.9
			c-2.1,0-4.4-0.5-5.6,1.8c-1.4,2.8-1.4,4.2-0.2,6c0-0.4,0-0.6,0.1-0.9c0.1-0.4,0.1-0.9,0.3-1.3c0.5-1,1.9-1.4,3-1.1
			c0.8,0.2,1.2,1,0.8,1.5c-0.3,0.4-0.5,0.8-0.8,1.1C65.9,55.2,66,56,67,56.8c0-0.2,0.1-0.3,0.1-0.4c0.2-1.6,1.2-2.4,2.8-2.1
			c0.2,0,0.5,0.2,0.7,0.3c-0.1,0.3-0.3,0.6-0.5,0.8c-0.8,0.8-1,1.6-0.5,2.6c0.3-0.6,0.5-1.2,0.8-1.8c0.3-0.6,0.8-0.9,1.5-0.7
			c0.8,0.2,1.6,0.3,2.3,0.6c0.2,0.1,0.4,0.3,0.5,0.5c0.3,0.5,0.4,1,0.6,1.5c0.3,0.7,0.7,1.3,0.9,2c0.1,0.2-0.1,0.7-0.3,0.9
			c-0.3,0.3-0.8,0.4-1.2,0.6c-1.3,0.5-1.7,1.7-2.2,2.8c-0.1,0.2,0,0.4,0,0.7c1.4-0.8,1.5-0.8,2.1-0.4c-0.9,1.1-2,1.9-3.5,1.9
			c-1.1,0.1-2.3,0.3-3.3-0.5c-0.5-0.4-1-1.6-0.7-2.2c0.2-0.3,0.2-0.8,0.3-1.1c-0.1,0-0.2-0.1-0.4-0.1c-0.3,0.6-0.6,1.2-0.8,1.8
			c-0.2,0.5-0.3,1.1-0.3,1.7c0,0.5,0,1,0.1,1.6c0,0.3,0.2,0.6,0.3,0.9c0.1,0.9,0.7,1.8,1.6,1.8c1.2,0.1,2.5,0,3.7-0.2
			c1.7-0.3,3.4,0.2,4.4,1.7c0.6,0.9,0.5,2.9-0.3,3.7c-1.1,1.2-2.7,1.7-4.2,2c-2.2,0.4-4.4,0.5-6.5-0.9c-1.2-0.8-1.8-1.6-2.1-2.9
			c-0.2-0.9-0.4-1.8-0.7-2.6c-0.3-0.7-0.7-1.4-1-2.1c-0.2-0.4-0.4-0.8-0.6-1.3c-0.3-0.6-0.6-1.1-0.9-1.7c-0.3-0.7-0.4-1.4-0.7-2
			c-0.3-0.7-0.7-1.5-1-2.2c-0.4-1-0.6-2-0.9-3c-0.5-1.8-0.9-3.6-1.3-5.3c-0.2-0.9-0.3-1.8-0.4-2.5c0.5-0.7,1.1-1.2,1.4-1.9
			c0.4-1.1,0.4-2.2-0.3-3.3c-0.4-0.5-0.6-1.1-0.7-1.7c-0.3-1.6,0.1-1.8,1.5-1.2c1.2,0.4,2.6,0.2,3.3-0.8c0.2-0.3,1-0.5,0.6-1
			c-0.5,0.2-0.9,0.6-1.3,0.6c-1.3,0.1-2.6-1.4-2.4-2.8c0.2-1.4,0.6-2.8,0-4.1c-0.1-0.2-0.1-0.4,0-0.6c0-0.1,0.4-0.2,0.4-0.1
			c0.3,0.3,0.5,0.7,0.8,1c0.2,0.3,0.5,0.5,0.8,0.7c0.5,0.3,1.1,0.6,1.7,0.8c0.2,0.1,0.5,0.1,0.7,0.1c-0.1-0.2-0.2-0.4-0.3-0.6
			c-0.2-0.4-0.7-0.7-0.7-1c-0.1-1.4,0-2.8,0-4.1c0.2-0.1,0.4-0.1,0.6-0.2c1.3-0.4,1.8-1.4,1.7-2.7c-0.1-1.1-0.8-1.8-1.4-2.6
			c-0.1-0.2-0.2-0.3-0.3-0.5c0.2-0.1,0.5-0.1,0.7-0.2c0.3,0,0.7,0,1-0.1c0-0.1,0-0.2,0-0.3c-0.2-0.1-0.4-0.2-0.5-0.3
			c-0.6-1.2-1.3-2.4-1.3-3.8c0-0.5,0.2-0.6,0.6-0.7c0.6-0.1,1.2-0.4,1.8-0.6c0-0.1,0-0.2,0-0.2c-1,0-1.9-0.2-2.2-1.1
			c-0.3-0.8-1.4-1.2-1.1-2.1c0.8,0.1,1.4,0.1,2.1,0.2c0-0.1,0.1-0.2,0.1-0.2c-0.2-0.2-0.3-0.5-0.5-0.7c-0.2-0.3-0.5-0.5-0.8-0.7
			c-0.5-0.5-0.9-1.2-1.5-1.4c-0.7-0.3-0.7-0.7-0.6-1.2c0.1-0.6,0.2-1.2-0.1-1.5c-0.6,0.5-1.2,1-1.8,1.4c-0.1-0.1-0.1-0.1-0.2-0.2
			c0.1-0.6,0.4-1.3,0.3-1.9c0-0.6-0.4-1.2-0.6-1.8c-0.1,0-0.1,0.1-0.2,0.1c-0.1,0.6-0.1,1.2-0.4,1.7c-0.3,0.5-0.8,0.8-1.3,1.1
			C55.2,10,55.1,9.9,55,9.8c0.1-0.4,0.3-0.7,0.4-1.1c0.1-0.2,0.1-0.5,0-0.7c-0.1-0.4-0.2-0.7-0.5-1c-0.2-0.3-0.5-0.5-0.8-0.8
			c-0.1,0.3-0.1,0.6-0.2,0.9c-0.1,0.4-0.1,1-0.4,1.2C52.9,9,52,9,51,8.9c-1.5-0.1-3.1-0.2-4.6-0.2c-0.6,0-1,0.3-1.4,0.8
			c-0.3,0.5-0.9,0.9-1.4,1.1c-1,0.3-2.1,0.4-3.1,0.5c-0.5,0.1-1.1,0-1.5,0.2c-0.4,0.2-1.1,0.2-1.1,0.9c0,0.7,0,1.4,0.1,2.1
			c0.1,0.9,0.4,1.7,0.6,2.6c0.1,0.2,0.1,0.4,0.2,0.7c-0.2,0-0.5,0.1-0.7,0.2c-1.1,0.1-2-0.2-3-0.5c-0.4-0.2-0.9-0.2-1-0.7
			c-0.1-0.5-0.2-1.1,0.4-1.5c0.1-0.1,0.2-0.4,0.1-0.4c-0.3-0.2-0.6-0.6-1-0.6c-1.2-0.2-2.3,0.1-3.1,1c-0.3,0.4-0.6,1-0.6,1.5
			c0,1,1.3,2.3,2.3,2.4c0.3,0,0.5,0.2,0.7,0.2c0.6,0.1,1.3,0.2,1.9,0.1c1.2-0.2,2.4-0.6,3.6-0.8c1.3-0.2,2.6-0.1,3.9-0.2
			c0.8,0,1.3,0.8,0.8,1.5c-0.1,0.1-0.4,0.3-0.6,0.2c-0.4-0.2-0.7-0.5-1.1-0.8c0,0,0,0,0,0c-0.9,0.4-1.1,0.7-1.8-0.2
			c0-0.1-0.4,0-0.5,0.1c-0.2,0.4-0.4,0.9-0.6,1.4c-0.3,0.7-0.6,1.4-1,2.3c1.8,0.2,3.4-0.3,5,0.2c-0.4,2.3-2,2.9-3.7,2.6
			c-0.6-0.1-1.2-0.4-1.8-0.6c-1.8-0.3-3.2,0.3-4.5,1.5c-0.5,0.5-0.8,0.4-1.1-0.1c-0.8-1.1-1.6-2.2-2.6-3.2c-0.4-0.4-0.9-0.8-1.2-1.3
			c-0.5-0.7-0.9-1.4-1.4-2.1c-0.3-0.4-0.5-1.1-0.9-1.3c-0.7-0.2-0.7-0.8-1-1.2c-0.5-0.6-0.9-1.2-1.3-1.8c-0.2-0.3-0.5-0.5-0.5-0.8
			c0-1.3,0-2.7,0.1-4c0.1-1.3,0.2-2.7,0.3-4c0-0.2,0-0.4-0.1-0.6c-0.3-1.1-0.7-2.2-1-3.2c-0.1-0.2-0.1-0.4,0-0.5
			c0.2-0.5,0.1-1-0.4-1.4c-0.3-0.3-0.6-0.5-1-0.7c-0.6,0.6,0,0.9,0.3,1.1c-0.4,0.4-2.1,0.5-2.4,0.2C18,1.5,18,1.3,18,1.1
			c-0.3-1.1-1.1-1.5-2.1-0.8c0.3,0.2,0.6,0.4,0.7,0.7c0.1,0.3,0.1,0.8,0,1.1C16.4,2.5,16,2.7,15.8,3c-0.4,0.6-0.8,0.4-1.2,0.2
			c-0.5-0.3-0.9-0.6-1.3-0.8c-0.6,0.3-1,0.5-1.5,0.8c0.6,0.4,1.1,0.7,1.6,1c0,0.6,0.1,1.3,0,1.9c-0.1,1,0.3,1.8,1.2,2.3
			c1.3,0.7,1.4,1.2,1,2.6c-0.1,0.4-0.1,0.8-0.1,1.3c-0.4,0-0.9,0-1.5,0c0-0.4,0.1-0.7,0.1-1.1c0-0.2,0-0.4-0.1-0.5
			c-0.1-0.1-0.3,0-0.4,0c-0.9,0.3-1.4,1.7-0.9,2.6c0.2,0.4,0.3,0.9,0.4,1.4c0.1,0.4-0.1,1,0.2,1.2c0.6,0.5,0.8,1.3,1.7,1.6
			c0.3,0.1,1,0.6,0.6,1.2c-0.8-0.1-1.5-0.2-2.2-0.2c-0.5,0-1.2,1.1-1.2,1.5c0.1,0,0.2,0,0.3,0c0.5-0.1,0.8-0.6,1.4-0.2
			c0.8,0.5,1.7,0.9,2.5,1.5c0.3,0.2,0.5,0.6,0.1,1c-0.2,0.1-0.3,0.4-0.4,0.6c-0.4,1.3,0,2.3,1.2,2.9c0.4,0.2,0.8,0.1,0.8-0.4
			c-0.1-1.2,0.8-1,1.4-1.1c0.8-0.1,1,0.2,0.9,1c0,0.5,0,1.1,0.2,1.4c0.4,0.6,0.4,1.2,0.1,1.9c-0.1,0.2-0.2,0.6-0.1,0.8
			c0.3,0.6,0.7,1.1,1.2,1.8c0.2-0.5,0.3-0.8,0.3-1.1c1.1-0.2,1.1-0.2,1.1,0.9c0,0.3,0,0.6,0,0.8c0,0.2-0.1,0.4-0.2,0.5
			c-0.6,0.5-1.1,1.1-1.8,1.4c-0.4,0.2-1,0.2-1.4,0.1c-0.2-0.1-0.4-0.6-0.5-0.9c-0.1-0.3-0.1-0.6-0.1-0.9c-0.1,0-0.1,0-0.2,0
			c-0.2,0.3-0.4,0.7-0.6,1.1c0.1,0.1,0.2,0.3,0.2,0.5c0.3,1,0.9,1.5,1.9,1.4c0.9-0.1,1.8-0.2,2.5-0.7c0.6-0.5,1.1-0.3,1.8-0.3
			c0,0.3,0,0.6-0.1,0.9c-0.4,0.1-0.8,0.3-1.1,0.4c-0.6,0.2-0.6,0.5-0.2,0.9c1,1,2.2,1.1,3.5,1c0.2,0,0.4,0.1,0.6,0.2
			c-0.2,0.1-0.3,0.4-0.5,0.4c-0.9,0.2-1.8,0.4-2.7,0.5c0,0.4-0.1,0.8-0.1,1.1c0.6,0,1.1,0,1.8,0c-0.1,0.4,0,0.7-0.1,1
			c-1,1.3-2.6,1.3-3.9,0.2c-0.1-0.1-0.3-0.1-0.4-0.1c0,0.1-0.1,0.3,0,0.4c0.3,0.3,0.6,0.6,0.9,0.7c0.8,0.1,0.7,0.5,0.6,1.1
			c-0.9,0.1-1.9-0.2-2.6,0.7c-0.1,0.1-0.4,0.1-0.7,0.1c-0.3,0-0.6,0.1-0.9,0.1c-0.1,0.3-0.1,0.6-0.1,0.8c-0.4,0.1-0.8,0.2-1.1,0.1
			c-1,0-2,0-3-0.2c-0.8-0.1-1.6-0.6-2.4-0.8c-1.2-0.2-2.3-0.4-3.3-1.2c-0.4-0.3-0.7-0.6-1.1-0.6c-0.8-0.1-1.7-0.1-2.5-0.2
			c-0.5,0-1.1,0.2-1.4,0c-1-0.7-1.7-0.3-2.5,0.4c-0.2,0.2-0.3,0.5-0.5,0.7c0.3,0,0.5,0,0.8,0c0.3,0,0.6,0.1,0.8,0.2
			c-0.1,0.2-0.2,0.6-0.3,0.7c-0.5,0.4-1,0.6-1.5,0.9c-0.6,0.4-0.7,1.7-0.1,2.2c0.1-0.2,0.1-0.4,0.2-0.5c0.3-0.1,0.6-0.2,0.8-0.2
			c0.1,0,0.3,0.2,0.3,0.3c-0.1,0.5-0.2,1-0.4,1.4c-0.2,0.4-0.6,0.8-0.7,1.2c-0.2,0.8,0.1,1.4,0.9,1.9c0-0.1,0.1-0.3,0.1-0.4
			c0.2-1,0.5-1.2,1.5-1c0.7,0.2,1.4,0.2,1.9-0.4c0.1-0.1,0.2-0.1,0.3-0.1c1.3,0.1,2.5,0,3.7-0.6c0.1-0.1,0.6,0.2,0.6,0.3
			c0,0.3-0.1,0.6-0.3,0.7c-0.2,0.2-0.5,0.1-0.8,0.2c-0.2,1.6-1.4,0.9-2.4,0.9c0.1,0.4,0.1,0.7,0.2,0.9c0.3,0.6,1.1,0.8,1.5,0.7
			c0.4-0.2,0.9-0.4,1.4-0.4c1.1,0.1,2.2-0.1,3.1-0.7c0.7-0.5,1.3-1.2,2-1.8c0.5,0.9,0.4,2-0.5,2.6c-0.5,0.3-0.3,0.5-0.2,0.9
			c0.7-0.2,1.4-0.3,2-0.6c0.6-0.3,1-0.9,1.6-1.4c0,1.1,0.4,1.8,1.3,1.9c0.8,0.1,1.7,0.1,2.6,0.2C21,52.3,21,52.3,21,52.2
			c0,0-0.1-0.1-0.1-0.1c-0.5-0.6-1.2-1.1-0.9-2c0.1-0.5,0.3-0.9,0.9-0.6c0.4,0.2,0.6,0.5,1,0.7c0.6,0.4,1.3,0.9,2,1.2
			c0.4,0.2,0.9,0,1.2,0c0-1,0-1.8,0-2.6c1.4-0.3,1.9-0.2,2.2,0.4c0.5,1.2,0,2-1.1,2.6c0.2,0.1,0.4,0.2,0.5,0.2
			c1.5,0.6,1.6,0.5,2.5-0.9c0.3-0.5,0.3-0.9,0.4-1.4c0-0.2,0.2-0.4,0.4-0.5c0.3-0.1,0.8-0.3,1-0.1c0.4,0.3,0.7,0.7,1.2,1.2
			c0.1-0.4,0-0.8,0.2-1.1c0.2-0.4,0.4-0.8,0.7-1.1c0.2-0.1,0.6,0,0.9,0c-0.1,0.3-0.1,0.6-0.2,0.8c-0.1,0.2-0.2,0.4-0.3,0.7
			c0.1,0.1,0.1,0.1,0.2,0.2c0.4-0.1,0.8-0.3,1.3-0.4c1,1.5,2.1,3.1,3.1,4.7c0.8,1.2,1.8,2.3,2.9,3.2c2.1,1.8,4.2,3.5,5.8,5.6
			c0.7,1,1.5,1.9,1.8,3.2c0.1,0.6,0.3,1.2,0.7,1.7c0.6,0.6,0.2,1.2,0.3,2c-1.1-0.7-2-1.4-2.9-2c-0.6-0.4-1-0.9-1.6-1.2
			c-0.5-0.3-1-0.6-1.5-0.6c-2-0.1-4.1-0.1-6.1-0.2c-0.6,0-1.2-0.2-1.8-0.3c-0.4,0-0.7,0-1.3,0c0.4,0.3,0.6,0.5,0.9,0.8
			c-1,0.3-1.8,0.6-2.7,0.7c-0.8,0.2-1.8-0.2-2.7,0.2c0.4,0.2,0.6,0.4,0.9,0.5c-0.1,0.1-0.1,0.2-0.2,0.2c-1.5,0.6-2.7,1.6-3.8,2.8
			c-0.9,1-1.8,1.8-3.3,1.7c-1.4-0.1-1.5,0-2-1.3c-0.3,0.2-0.5,0.3-0.8,0.5c0.1,0.2,0.3,0.3,0.4,0.4c0.5,1,1.1,1.8,2.2,2.2
			c0.3,0.1,1,0.5,0.6,1.1c-0.8,1-1.6,2-3,2.2c-0.2,0-0.4,0.1-0.5,0.1c2,0.6,4,0.9,5.9-0.2c-0.1,1,1,1.6,0.4,2.5
			c-0.4,0.7-0.7,1.5-1.1,2.3c0.3,0.1,0.5,0.2,0.9,0.3c-0.3,0.5-0.5,0.9-0.6,1.1c0.2,0.3,0.5,0.6,0.5,0.8c0,0.3-0.2,0.7-0.3,1
			c0.1,0,0.3,0.1,0.4,0c0.6-0.4,1.3-0.8,1.9-1.2c0.1,0.2,0.1,0.4,0.3,0.6c0.8,1.1,0.4,2.5-0.8,2.9c-0.8,0.3-1.6,0.4-2.4,0.5
			c-1.7,0.1-3.4,0.4-4.9,1.3c-0.7,0.4-1.4,1.1-2,1.7c-0.6,0.6-1,1.5-1.6,2.1c-0.9,0.9-1,1.6-0.2,2.7c0.3-0.5,0.7-1,1-1.5
			c0.3,0.5,0.5,1-0.1,1.4c-0.2,0.1-0.3,0.5-0.2,0.7c0,0.4,0.1,0.7,0.2,1.1c0.3,0,0.5,0.1,0.8,0.1c0.1-0.2,0.1-0.5,0.2-0.6
			c0.2-0.3,0.4-0.8,0.8-0.9c0.3-0.1,0.8,0.2,1,0.5c0.3,0.4,0.3,0.9,0.5,1.3c0.1,0.3,0,0.6,0.1,0.9c0.2,0.7,1,1,1.6,0.7
			c-0.6-0.3-0.5-0.8-0.2-1.2c0.3-0.3,0.6-0.5,1-0.6c0.8-0.2,1.4-0.7,2-1.3c0.5-0.6,1.1-1.2,1.7-1.8c0.1-0.1,0.3-0.1,0.5-0.2
			c0,0.2,0.1,0.4,0.1,0.5c-0.2,0.7-0.2,1.3,0,2c0.1,0.2-0.1,0.7-0.3,0.8c-0.4,0.3-0.8,0.5-1.3,0.8c0.4,0.2,0.8,0.6,1.2,0.6
			c0.4,0,1.1-0.2,1.3-0.5c0.5-0.9,1.4-1,2.1-1.4c1.1-0.6,1.4-1.6,1.9-2.6c0.3-0.6,0.4-1.3,0.7-1.9c0.2-0.4,0.6-0.8,1-1.1
			c0.2-0.2,0.6-0.2,0.8-0.3c0.1,0.3,0.2,0.5,0.2,0.8c0,0.5-0.2,1.1-0.1,1.6c0,0.6,0.2,1.2,0.3,1.8c0.1,0,0.2,0,0.3,0.1
			c0-1.5,1-2,2.1-2.5c0.3-0.1,0.6-0.4,0.8-0.7c0.3-0.5,0.6-1.1,0.9-1.8c0.4,0.3,1,0.6,1.6,1c-0.2-0.8-0.4-1.4-0.4-1.9
			c0-1.8-0.9-2.9-2.5-3.6c-0.7-0.3-1.2-0.8-1.8-1.2c-0.1-0.1-0.1-0.3,0-0.5c0.1-0.1,0.3-0.1,0.4-0.1c0.2,0.1,0.3,0.2,0.5,0.3
			c0.9,0.6,1.8,1,2.7,0.7c-0.2-0.5-0.5-0.9-0.5-1.4c-0.1-0.6,0.1-1.2,0.1-1.7c0-0.2-0.2-0.3-0.3-0.5c-0.3-0.6-0.7-1.1-0.9-1.7
			c-0.1-0.1,0.3-0.6,0.5-0.7c0.7-0.1,1.4,0.6,1.4,1.3c0,0.4,0,0.7,0,1.2c0.3-0.1,0.4-0.2,0.5-0.3c0.6-0.6,1.2-1.2,1.1-2.2
			c0-0.2,0.1-0.6,0.2-0.6c0.3,0,0.6,0,0.8,0.2c0.2,0.1,0.2,0.4,0.3,0.6c0.1-0.1,0.2-0.1,0.3-0.2c0-0.2,0-0.4,0-0.6
			c-0.1-1.2,0.5-1.7,1.6-1.7c0.2,0,0.7,0.2,0.7,0.3c0,0.3-0.1,0.6-0.2,0.9c-0.2,0.5-0.6,0.9-0.8,1.4c-0.3,0.7-0.7,1.4-0.9,2.2
			c-0.3,0.9-0.8,1.8-0.6,2.9c0.1,0.2,0,0.5,0,0.8c-0.2,0.9-0.4,1.7-0.5,2.6c0.2,0.1,0.4,0.2,0.8,0.4c-0.3,0.8-0.6,1.6-0.8,2.5
			c-0.1,0.2,0.1,0.5,0.2,0.8c0.1,0.2,0.4,0.5,0.4,0.7c-0.1,0.6-0.3,1.1-0.4,1.5c0,0.6,0.2,1.1,0.1,1.5c-0.3,0.7-0.8,1.3-1.3,2
			c0.4,0.2,0.8,0.4,1.1,0.6c0.2-0.3,0.4-0.7,0.7-0.9c1-0.9,2.3-1.4,2.9-2.7c0.2-0.4,1.1-0.3,1.2,0.1c0.2,0.6,0.1,1.4,1,1.5
			c0,0,0.1,0.1,0.1,0.2c-0.2,0.9,0.4,0.9,1,0.9c0.1,0.4,0.2,0.7,0.2,1c0.4,0,0.8,0,0.9,0.1c0.4,0.9,1.6,0.9,1.8,2
			c0,0.1,0.2,0.1,0.3,0.2c0.3,0.4,0.6,0.7,0.8,1.1c0.5,0.9,0.3,1.8,0.1,2.7c-0.2,0.8-0.4,1.6-0.8,2.2c-1.1,1.8-3,2.7-4.6,3.9
			c-0.8,0.6-1.6,1.1-2.4,1.6c-0.6,0.4-1.1,1-1.2,1.8c-0.1,0.4-0.3,0.8-0.5,1.1c-0.7,1-0.7,1.6-0.2,2.6c0.5-0.4,0.2-1.5,1.3-1.6
			c0,1,0,2,0,3c0,0.8,0.8,1.4,1.6,1.4c0-0.2,0-0.5,0-0.8c-0.1-0.5-0.1-1,0.5-1.2c0.6-0.2,1.3,0.3,1.4,0.9c0.2,1.8,2,2.3,3.3,1.4
			c-0.2-0.1-0.5-0.1-0.7-0.2c-0.6-0.1-0.8-0.8-0.5-1.2c0.3-0.3,0.7-0.6,0.9-0.9c0.4-0.5,0.9-0.9,1.2-1.5c0.3-0.5,0.5-0.9,1.1-1
			c0.7-0.1,1.7-1.2,1.7-2c0-1.1,0.6-1.8,1.5-2.4c0.1,0.3,0.1,0.7,0,0.9c-0.5,0.7-0.6,1.3,0.1,1.9c0.1,0.1,0.1,0.3,0.1,0.4
			c0.1,0.8,0.1,1.6-0.8,2.1c0.4,0.1,0.7,0.1,0.9,0c0.4-0.3,0.7-0.6,0.9-1c0.4-0.6,0.6-1.5,1.2-2c0.8-0.7,1.1-1.5,1.1-2.5
			c0-0.3-0.1-0.6-0.1-0.9c0-0.2,0.2-0.4,0.3-0.6c0.3,0.1,0.6,0.2,0.7,0.4c0.2,0.3,0.4,0.7,0.6,1c0.1,0.1,0.4,0.2,0.5,0.1
			c0.6-0.7,1.2-1.5,1.6-2.3c0.2-0.3-0.2-0.9-0.4-1.3c-0.1-0.4-0.3-0.7-0.5-1.1c-0.2-0.6,0-1,0.5-1.2c0.3-0.1,0.8,0.2,1,0.4
			c0.7,0.7,0.8,1.6,0.2,2.4c0,0.1,0,0.2,0,0.5c0.2-0.3,0.3-0.4,0.4-0.5c1.2-0.4,1.7-1.3,1.6-2.5c0-0.2,0.2-0.4,0.3-0.5
			c0.6-0.5,1.2-1,1.8-1.5c0.6-0.5,0.8-1.1,0.7-1.9c0-0.1-0.1-0.3-0.2-0.4c-0.1,0-0.3,0-0.4,0.1c-0.6,0.8-1.4,0.4-2,0.4
			c-0.3,0-0.7-0.6-0.8-0.9c-0.2-0.6,0.5-1.2,1.2-1.3c0.3,0,0.6-0.1,0.9-0.1c0-0.1,0-0.1,0.1-0.2c-0.4-0.3-0.8-0.6-1.1-0.9
			c-0.9-0.9-1.8-1.5-3.2-1.4c-0.6,0.1-1.1-0.1-1.5-0.6c-0.3-0.4-0.4-1.1,0-1.4c0.4-0.4,0.9-0.3,1.3,0c0.3,0.3,0.7,0.6,1,0.8
			c0.1-0.1,0.2-0.1,0.3-0.2c-0.1-0.5-0.2-1.1-0.4-1.6c-0.5-0.9-1.3-1.1-2.2-1.1c-0.4,0-0.9-0.3-1.3-0.5c-0.1,0,0-0.4,0.1-0.5
			c0.4-0.4,0.9-0.8,1.3-1.2c0.2-0.3,0.2-0.8,0.5-1c0.4-0.4,0.3-0.7,0.2-1c-0.7,0.3-1.3,0.7-2,0.8c-1.7,0.3-3-1-3-2.8
			c0-0.6,0.7-1.1,1.4-1.1c0.6,0,1.1,0.2,1,0.9c0,0.2,0.1,0.3,0.2,0.5c0.8-1,1.2-1.4,0.4-2.5c-0.2-0.3-0.3-0.8,0.3-1.1
			c0.5-0.3,0.9-0.7,0.6-1.4c-0.4,0.2-0.8,0.2-1,0.5c-0.5,0.7-0.7-0.1-1-0.1c-0.8-0.2-0.9-1.2-0.5-1.8c0.5-0.8,1-1.6,1.5-2.4
			c0.4-0.7,0.8-1,1.4-0.7c0.7,0.4,1.5,1,2.3,1.3c1.6,0.7,3.4,1.2,5.1,1.2c2.1,0,4-0.8,5.8-2c1.7-1.2,2.9-2.7,4-4.4
			c0.5,0.1,1.1,0.2,1.6,0.2c0.8-0.1,1.6-0.2,2.3-0.4c0.3-0.1,0.6-0.3,0.6-0.6c0.1-1,0.9-1.5,1.5-2c0.3-0.3,0.4-0.3,0.1-0.6
			c-0.1-0.1-0.2-0.3-0.3-0.5c0-0.5,0-1,0-1.5c0-1.4-0.4-2.6-1.6-3.6c-0.5-0.4-0.9-0.9-1.1-1.5c-0.4-1.4-1.3-2.3-2.6-2.7
			c-0.9-0.4-1.2-1-1.5-1.7c-0.3-0.7-0.6-1.4-0.9-2.1c-0.5-1.1-1.1-2.2-1.3-3.4c-0.3-1.2-0.3-2.4,0.5-3.5c0.1-0.2-0.1-0.8-0.3-0.9
			c-1.3-0.2-1.3-1.4-1.8-2.3c-0.3-0.5,0.1-1,0.3-1.6c0.4-1.1,1.5-1.2,2.2-1.7c0.1-0.1,0.5,0.1,0.8,0.2c0.2,0.1,0.3,0.2,0.4,0.2
			c0.6,0.2,1.2,0.9,1.2,1.5c0.1,1.1-0.5,1.9-1.4,2.7c0.3,0,0.5,0.2,0.6,0.1c1.3-0.8,2.2-1.9,2.2-3.5c0-0.5-0.2-1.1-0.5-1.6
			c-0.2-0.5-0.5-1-0.9-1.4c-0.7-0.7-1.7-1-2.6-1.4c-1.3-0.5-2.3,0-3.3,0.4c-1,0.3-1.7,1.3-2.6,1.9c-0.5,0.3-0.7,1.2-1.4,0.7
			c-0.3-0.8-0.6-1.6-0.8-2.4c-0.3-1.1-0.7-2.1-1-3.2c-0.2-1.1-0.4-2.2-0.5-3.3c-0.4-3.8-0.1-7.5,1.9-10.9c0.7-1.1,1.5-2,2.6-2.7
			c1.7-1.1,3.5-1.6,5.6-1.4c0.9,0.1,1.2,0.8,0.8,1.7C79.2,22,79,22.4,79,22.8c-0.1,1.1-0.7,1.9-1.5,2.6c-0.7,0.6-1.7,0.6-2.2,0.1
			c-0.2-0.2-0.4-0.4-0.6-0.7c-0.1,1.1,0.5,2,1.4,2.3c1.7,0.5,3.7-0.3,4.9-2.3c0.2,0.1,0.6,0.2,0.7,0.5c0.3,0.6,0.5,1.1,0.6,1.7
			c0.1,1.1,0.3,2.1-0.3,3.2c-0.4,0.7-1,1-1.6,1.1c-0.7,0.2-1.6-0.4-1.3-1.4C79,29.6,79,29.3,79,29c-0.1-0.1-0.1-0.1-0.2-0.2
			c-0.3,0.3-0.6,0.6-0.9,0.9c-0.6,0.7-1,1.4-0.6,2.3c0.5,0.9,1,1.9,2.3,1.8c0.6,0,1.3,0,2.1,0c-0.3,0.5-0.6,0.9-0.6,1.3
			c-0.1,1.1,0,2.1,0,3.2c0,0.1,0.1,0.3,0.2,0.4c0.8,0.7,1.5,1.3,2.4,1.9c0.2,0.1,0.6,0.1,0.8,0.1c0-0.1,0-0.2,0-0.2
			c-0.2-0.1-0.5-0.1-0.6-0.2c-1-0.9-0.9-3.1,0.1-3.9c1.4-1.1,2.2-2.5,2.1-4.3c0-0.2,0.1-0.4,0.1-0.8c0.3,0.2,0.7,0.2,0.9,0.4
			c0.4,0.5,0.8,0.9,1,1.5c0.6,1.4,0.5,3.2-1.6,3.3c-0.3,0-0.5,0.1-0.8,0.1c0,0.1,0,0.1,0,0.2c1.2,0.1,2.4,0.6,3.4-0.4
			c0.7-0.7,1.8-0.9,2.2-2c0.2-0.6,0.6-1,0.8-1.6c0.1-0.4,0-0.9-0.1-1.3c-0.1-0.6-0.3-1.3-0.4-1.9c0-0.1,0.2-0.3,0.4-0.4
			c0.6-0.3,1.1-0.5,1.7-0.8c0,0,1.4,3.3,1.4,3.8c0.3-0.4,0.9-0.7,0.9-1.1c0.1-1.3,0.5-2.7-0.5-3.8c-0.2-0.3-0.5-0.6-0.7-0.9
			c-0.1-0.2-0.2-0.7-0.1-0.9C95.3,25,95.7,24.4,96.3,23.9z M42.8,17.1c0,0.1-0.1,0.2-0.2,0.2c-0.7,0-1.3,0-2.1-0.1
			c0.3-0.5,0.5-0.8,0.6-1.1c0.3-0.6,0.7-0.8,1.3-0.5C42.8,15.8,43.1,16.7,42.8,17.1z M46.9,11.6c-0.6,0.1-1.1,0-1.8,0
			c0.1-0.3,0.2-0.4,0.2-0.5c0.6-1.1,0.6-1.1,1.7-0.6c0.2,0.1,0.4,0.4,0.4,0.6C47.4,11.3,47.1,11.6,46.9,11.6z"/>
	</g>
	<g>
		<path class="st0" d="M41.3,19.1C41.3,19.1,41.3,19.1,41.3,19.1C41.3,19.1,41.3,19.1,41.3,19.1z"/>
	</g>
	<g>
		<path class="st0" d="M93.7,19.3c-0.1,0-0.1,0.1-0.2,0.1c0,0-0.1,0.1-0.1,0.1c-0.2,1-0.7,1.6-1.7,1.8c-0.2,0.1-0.4,0.3-0.7,0.6
			C93,22.1,94.3,20.7,93.7,19.3z"/>
	</g>
	<g>
		<path class="st0" d="M27.9,66.6c1,0.5,1.4,0.5,1.9,0C29.2,66.6,28.5,66.6,27.9,66.6z"/>
	</g>
</g>
</svg>
