<?xml version="1.0" encoding="utf-8"?>
<!-- Generator: Adobe Illustrator 21.0.0, SVG Export Plug-In . SVG Version: 6.00 Build 0)  -->
<svg version="1.1" id="Layer_1" xmlns="http://www.w3.org/2000/svg" xmlns:xlink="http://www.w3.org/1999/xlink" x="0px" y="0px"
	 viewBox="0 0 58.4 117.7" style="enable-background:new 0 0 58.4 117.7;" xml:space="preserve">
<style type="text/css">
	.st0{fill:#EEE8D7;}
</style>
<g>
	<g>
		<path class="st0" d="M58.4,39.3c-0.1-0.1-0.7,0.1-0.9,0.2c-0.3,0.2-0.5,0.4-0.8,0.6c-0.4-0.5-0.1-0.8,0.1-1.3
			c0.1-0.2,0.3-0.6,0.3-0.8c-0.4-0.1-0.9,0.1-1.1,0.2c-0.3,0.1-0.7,0.5-1,0.6c-0.1,0,0.2-1.4,0.4-1.9c-0.7,0.2-1.5,0.7-2,1.3
			c-0.2-0.7-0.1-1.1,0-1.7c-0.2,0-1.3,0.7-1.2,1.3c0,0.3,0,0.7-0.2,0.9c-0.6,0.6-0.6,1.4-0.4,2.1c0.2,0.8,0.5,1.5,0.8,2.3
			c0.4,0.9,0.1,2.1-0.6,2.9c-0.6,0.7-1.4,0.6-2.2,0.8c-0.5,0.1-0.7-0.2-0.7-0.8c0-0.3-0.1-0.6-0.1-0.9c-0.7,0.3-1.2,0.5-1.8,0.8
			c0-0.7,0.7-1.3,0.2-1.8c-0.6,0.1-1.1,0.3-1.5,0.3c-0.3,0-0.7-0.3-0.9-0.5c-0.3-0.4,0.3-0.5,0.4-0.8c0,0,0-0.1,0-0.2
			c-0.5-0.5-1-0.2-1.6-0.2c-0.3,0-0.7,0-1-0.1c-1.4-0.9-2.4-2.1-3.4-3.4c-0.9-1.2-1.7-2.4-2.6-3.6c-0.6-0.8-1.2-1.6-1.8-2.3
			c-0.8-1-1.7-1.9-2.6-2.8c-0.7-0.7-1.6-1.2-2.3-1.8c-0.9-0.8-1.7-1.6-2.5-2.5c-0.5-0.5-0.9-1.1-1.3-1.6c-0.7-0.8-0.5-1.9-0.7-2.8
			c-0.2-1.8,1.5-3.6,3.4-3.7c2-0.1,3.9-0.4,5.9-0.6c0.1,0,0.2,0,0.3-0.1c0.5-0.1,0.8-0.7,0.7-1.1c-0.1-0.4-0.3-0.9-0.5-1.2
			c-0.1-0.2-0.8-0.2-0.8-0.2c-0.2,0.6-0.8,0.7-1.2,0.7c-1.2,0.2-2.4,0.4-3.5-0.4c-0.6-0.5-1-1.4-0.6-1.9c0.5-0.9,1.2-1.6,2.2-2.1
			c1.1-0.5,2.1-0.2,2.6,0.9c0,0.1,0.1,0.4,0.1,0.5c0.1,0,0.3-0.9,0.3-1.2c0-0.4,0.3-0.5,0.5-0.2c0.2,0.2,0.4,0.6,0.5,0.9
			c0.1,0.1,0.1,0.2,0.3,0.5c0.1-0.4,0.1-0.7,0.2-0.9c0.1-0.2,0.2-0.4,0.4-0.5c0.7-0.3,1.2-1,1.2-1.8c0-0.9,0.2-1.8,0.8-2.6
			c0.2-0.3,0.3-0.7,0.4-1.1c0.1-0.4-0.1-0.6-0.5-0.6C37.6,5,36.8,4.8,36.2,5c-1.7,0.4-3.4,0-5-0.3c-0.2-0.1-0.5-0.3-0.6-0.5
			C30.2,3.6,30,3,29.6,2.4C29.5,2.2,29.2,2,29,2c-0.9-0.1-1.8-0.1-2.7-0.2c-1.6-0.1-3.2-0.1-4.8,0.6c-0.6,0.3-0.8,0.2-0.7-0.5
			c0.1-1.1-1.8-2.1-2.6-1.9c-1.4,0.3-2.5,1.2-3.6,2c-1.1,0.7-1.1,2.3-0.2,3c0.2,0.2,0.5,0.3,0.9,0.5c-0.2,0.3-0.3,0.6-0.5,0.7
			c-1.4,0.9-2.7,2-3.8,3.2c-1.3,1.5-2.5,2.9-3.2,4.8c-1,2.5-1.5,5-1.6,7.7c0,0.7-0.3,1.3-0.8,1.7c-1,0.8-1.6,1.9-1.7,3.1
			c-0.1,1,0,2.1,0.1,3.2c0,0.2,0,0.4-0.1,0.5c-0.6,0.9-1.5,1.3-2.5,1.3c-0.5,0-0.8,0.3-0.6,0.6c0.3,0.8,0.4,1.7,1.5,2
			c0.2,0,0.5,0.6,0.4,0.6C2,35.5,2,36.3,1.2,36.5c-0.4,0.1-0.8,0.4-1.2,0.6c0.6,0.9,1.4,1.4,2.4,1.4c0.5,0,0.6,0.2,0.4,0.7
			c-0.3,0.6-0.5,1.3-0.8,1.9c-0.2,0.4-0.6,0.8-0.8,1.2C1.1,42.5,1,42.7,1,42.9c0,0.2,0.2,0.4,0.4,0.4c0.4,0.1,0.9,0.2,1.4,0.1
			c0.8,0,1,0.2,0.7,1c-0.1,0.3-0.3,0.8-0.1,1c0.4,0.7,0.1,1.1-0.2,1.7C3,47.4,3,47.7,2.9,48c0.3,0,0.7,0.1,1,0
			c0.4-0.1,0.8-0.4,1.3-0.7c0.4,0.9,0.9,1.7,1.3,2.6c0.6,1.3,1,2.7,0.8,4.1c-0.2,1.6-0.8,3.2-1.1,4.7c-0.3,1.1-0.7,2.2-0.8,3.3
			c-0.2,1.8-0.2,3.6-0.2,5.3c0,0.7-0.3,1.2-0.7,1.6c-0.8,0.9-1.3,1.8-1.2,3.1c0.1,1.2-0.1,2.4-0.2,3.5c0,0.4-0.3,0.8-0.6,1.1
			c-0.5,0.7-1.1,1.3-1.7,1.9c0.4,0.4,2.8,0.4,3.4,0C4.7,78.4,5,78.4,5,79c0,0.6-0.2,1.3-0.2,1.9c0,0.4,0,0.9,0.2,1.2
			c0.4,0.5,0.4,0.9,0,1.3c0.3,0.4,0.7,0.9,0.1,1.3c-0.5,0.3-0.3,0.5,0.1,0.7c0.5,0.2,0.7,0.6,0.6,1.2c0,0.5-0.1,1-0.1,1.5
			c0,0.4,0.1,0.8,0.7,0.7c0.1,0,0.4,0.3,0.4,0.4c0,0.3-0.2,0.6-0.3,1c-0.1,0.2-0.2,0.5-0.1,0.7c0,0.1,0.4,0.1,0.6,0.2
			c0.2,0.1,0.5,0.1,0.6,0.2c0.5,0.4,0.6,1,0.5,1.6C7.9,94,6.9,94.5,6,94.9c-0.5,0.3-1.1,0.5-1.7,0.7c1,1.2,2.5,1.1,3.8,1.7
			c-0.4,0.3-0.6,0.6-0.9,0.7c-0.4,0.2-0.9,0.2-1.3,0.3c-0.2,0-0.4,0-0.7,0.1c0.1,0.3,0.1,0.6,0.3,0.8c0.5,0.7,1.3,1,2.1,1.1
			c0.3,0,0.5,0.5,0.7,0.7c-0.2,0.1-0.4,0.2-0.6,0.4c-0.1,0.1-0.4,0.3-0.3,0.5c0.1,0.2,0.3,0.5,0.5,0.5c0.4,0.2,0.9,0.2,1.3,0.3
			c0.2,0.1,0.3,0.4,0.4,0.6c-0.2,0.1-0.4,0.2-0.6,0.3c-0.2,0.1-0.5,0.2-0.5,0.2c0,0.2,0.1,0.5,0.2,0.6c0.4,0.3,0.8,0.4,1.2,0.6
			c0.3,0.2,0.7,0.3,1,0.6c0.1,0.1,0.1,0.5,0.1,0.7c0,0.1-0.3,0.1-0.5,0.1c-0.2,0-0.4,0-0.8-0.1c0.3,0.5,0.4,1,0.7,1.2
			c0.8,0.5,1.7,0.9,2.6,1.3c1.1,0.5,2,1.2,2.3,2.3c0.3,1.2,0.4,2.5,0.6,3.7c0.1,0.6,0.2,1.2,0.5,1.8c0.6,1,2,1.2,2.9,0.4
			c1-1,2-2.1,3.1-3.1c1.1-1,2.2-2,3.6-2.5c0.7-0.2,1.4-0.5,2.1-0.7c1.2-0.2,2.4-0.4,3.6-0.6c0.5-0.1,1.1-0.1,1.5-0.3
			c0.7-0.5,1.8-1.1,2.9-0.6c-0.1-0.8-0.6-1.4-1.5-1.5c-0.5-0.1-0.4-0.6-0.3-0.8c0.4-0.9,1.8-0.8,1.8-0.8c-0.6-1-1.2-1.4-1.9-1.3
			c0.4-1.3,1.8-0.8,2.2-0.9c-0.8-0.9-1.5-1.5-2.7-1.3c-0.4,0.1-0.6-0.3-0.6-0.6c0-0.6,0.8-1.4,1.4-1.5c-0.3-0.3-1.4-0.4-1.8-0.3
			c-0.3,0.1-0.6,0.2-0.8,0.4c-0.3,0.2-0.5,0.6-0.8,0.8c-1.4,0.7-2.2,2.1-3.3,3.1c-0.8,0.7-1.6,1.4-2.5,1.9c-0.4,0.2-0.9,0.3-1.4-0.2
			c-1.2-1.2-1.7-2.9-2.1-4.5c-0.4-1.7-0.3-3.5-0.1-5.3c0-0.4-0.2-0.7-0.2-1.1c-0.1-0.5-0.3-1.1-0.1-1.5c0.2-0.5,0.8-0.6,1.5-0.3
			c0.5,0.2,1.1,0.2,1.7,0.3c0.2,0,0.3-0.1,0.6-0.2c-1.1-1-1.1-1.5,0.2-2.1c0.8-0.4,0.9-0.6,0.4-1.4c-0.1-0.1-0.1-0.3-0.2-0.4
			c0.6-0.4,1.6-0.1,1.8-1.1c-0.4-0.1-0.8-0.2-1.1-0.4c0-0.1,0-0.1,0-0.2c0.5-0.2,1-0.4,1.4-0.7c0.8-0.4,1-0.8,0.6-1.5
			c-0.3-0.5-0.5-1-0.7-1.5c-0.9-1.6-0.1-3.3,1.6-3.9c1.6-0.5,4,0.2,5,1.5c0.6,0.8,1.2,1.6,1.8,2.5c0.6,0.9,0.9,2,1.3,3
			c0.5,1.3,0.7,2.7,1.1,4c0.2,0.8,0.8,1.1,1.6,1.3c0.9,0.1,1.5-0.4,2.1-0.8c1.4-0.9,2-2.5,2.8-3.9c0.4-0.7,0.8-1.5,1.4-2
			c1.1-0.9,2.3-1.7,3.5-2.6c0.4-0.3,0.8-0.7,1.2-1.1c0.1-0.1,0.3-0.3,0.5-0.4c0.7-0.4,1.1-0.9,1.9-0.7c0.4,0.1,0.8,0.1,0.8,0.1
			c-0.1-0.5-0.7-1.5-1.4-1.6c-0.1,0-0.2-0.2-0.5-0.4c0.9-0.4,1.6-0.6,2.5-1c-0.6-0.4-1.1-0.7-1.6-0.9c-0.2-0.1-0.5,0-0.7,0
			c-0.1,0-0.3,0.1-0.4,0c-0.1,0-0.1-0.2-0.1-0.3c0.1-0.2,0.2-0.4,0.3-0.5c0.5-0.3,1-0.5,1.4-0.8c-0.4-0.8-1.4-1.2-2.3-0.9
			c-0.5,0.2-0.6-0.1-0.6-0.5c0-0.2,0.1-0.4,0.2-0.5c0.4-0.5,0.8-0.9,1.3-1.5c-0.5,0-1-0.1-1.4-0.1c-1.2-0.2-2,0.9-2.4,1.7
			c-0.2,0.3-0.4,0.6-0.7,0.7c-0.7,0.2-0.9,0.6-0.8,1.2c0.2,1.5-0.8,2.5-1.7,3.3c-1.2,1.1-4.1,0.9-5.3-0.1c-0.5-0.4-1-0.9-1.4-1.5
			c-0.3-0.6-0.5-1.3-0.4-1.9c0.1-1.3,1.1-1.8,2.4-1.7c0.6,0.1,1.2-0.1,1.8-0.2c0.2-0.1,0.3-0.4,0.5-0.7c-0.2-0.1-0.4-0.2-0.6-0.3
			c-0.2-0.1-0.4-0.1-0.6-0.2c0-0.1,0-0.1,0-0.2c0.2,0,0.3-0.1,0.5-0.1c0.2-0.1,0.4-0.2,0.6-0.3c-0.1-0.2-0.3-0.5-0.4-0.7
			c-0.4-0.4-0.8-0.8-1.1-1.3c-0.3-0.5,0-0.9,0.5-1c0.7-0.2,1.6-0.4,2.1-1.1c0.1-0.1,0.2-0.4,0.1-0.5c-0.1-0.1-0.3-0.2-0.5-0.2
			c-0.3,0-0.7,0.2-1,0.1c-0.6-0.4-1.3-0.8-1.8-1.3c-0.8-0.9-1.5-2-2.3-2.8c-0.4-0.4-1-0.8-1.6-1c-1.9-0.5-3.8-0.1-5.6,0.8
			c-0.5,0.3-1.1,0.1-1.2-0.5c-0.1-0.7-0.1-1.4-0.1-2.1c0-0.2,0.2-0.4,0.3-0.5c0.6-0.6,1.1-1.2,1.7-1.9c1-1.3,1.9-2.6,1.8-4.4
			c0-0.6,0.6-0.9,1-0.6c0.2,0.2,0.4,0.5,0.6,0.8c0.2,0.5,1.1,1.3,1.7,1.3c0.1,0,0.2-0.1,0.4-0.1c-0.1-0.2-0.2-0.3-0.3-0.4
			c-0.3-0.5-0.3-1.3,0.1-1.6c0.6-0.5,0.9-0.5,1.5,0.2c0.2,0.2,0.3,0.6,0.3,0.9c0,0.6,0.2,0.8,0.7,0.5c0.6-0.3,0.9-0.8,0.9-1.4
			c0-0.5,0.6-0.8,0.9-0.5c0.3,0.4,0.7,0.8,0.4,1.4c-0.2,0.6,0.1,0.7,0.5,0.6c0.3,0,0.6-0.2,0.8-0.4c0.3-0.2,0.6-0.4,0.9-0.6
			c0.1,0.5,0.2,0.9,0.3,1.4c0.5-0.3,0.9-0.6,1.4-0.8c0.6-0.3,1.3-0.6,2-0.7c1.3-0.2,2.4,0.4,3.4,1.1c0.9,0.6,1.9,0.7,3,0.6
			c1-0.1,1.9-1.1,1.9-2.1c0-1.1-0.2-2.2-0.2-3.2c0-1.1,0.1-2.1,0.4-3.1c0.2-0.7,0.9-1.4,1.2-2.1c0.2-0.5,0.4-1.1,0.4-1.7
			c0-1-0.4-2.1,0.1-3.1C58.3,39.8,58.4,39.3,58.4,39.3z M25.7,7.1c0.1-1.1,0.9-2,2-1.9c0.7,0.1,2,1.1,1.8,2c-0.1,1-1.1,1.8-2.1,1.8
			C26.2,9,25.6,8.3,25.7,7.1z"/>
	</g>
	<g>
		<path class="st0" d="M37.6,24.2c-0.4,0.3-0.7,0.8-1.1,1.1c-0.1,0.1-0.3,0.2-0.5,0.3c-0.8,0.1-1.6,0.2-2.4,0.5
			c-0.8,0.3-1.7,0.4-2.5,0.6c0,0-0.1,0.1-0.2,0.2c0.3,0.4,0.5,0.9,0.8,1.2c0.8,0.8,1.6,1.6,2.4,2.2c0.7,0.5,1.6,0.8,2.4,1.2
			c0.4,0.2,0.5,0.6,0.6,1c0.2,0.8,0.4,1.6,0.8,2.3c0.5,0.9,1.2,1.6,2.1,2.2c0.7,0.5,0.7,0.5,1-0.3c0.6-1.5,1.4-1.7,2.6-0.6
			c0.1,0.1,0.4,0,0.5-0.1c0.7-0.6,0.6-1.6,0.6-2.4c0-0.8,0.3-1,1-0.7c0.5,0.2,0.7-0.1,0.8-0.5c0.1-0.2,0-0.5,0.1-0.7
			c0.1-0.4,0.3-0.5,0.6-0.2c0.5,0.4,0.6,0.4,0.9-0.2c0.1-0.2,0.3-0.5,0.5-0.5c1-0.2,1-0.2,0.9-1.2c-0.1-1.1,0.5-1.6,1.6-1.3
			c0.4,0.1,0.7-0.1,0.6-0.5c-0.2-0.6-0.1-1.1,0.2-1.6c0.6-1.2,1.5-1.9,2.7-2.3c0.7-0.3,1.3-0.5,1.3-1.4c0-0.6,0-1.2-0.1-1.8
			c-0.1-0.8-0.4-1.6-0.6-2.3c-0.1-0.8,0-1.6,0-2.3c0-0.4,0-0.8,0.1-1.1c0.5-1,0.9-2,1.2-3.1c0.1-0.6,0.1-1.1,0-1.7
			c-0.1-0.4-0.2-1-0.1-1.4c0.1-0.4,0.3-0.9,0.8-1.2c-0.6-0.4-1.1-0.3-1.5,0.3c-0.1,0.2-0.4,0.3-0.7,0.4c-0.2-0.2-0.3-0.5-0.3-0.7
			c0-0.3,0.1-0.6,0.1-0.9c0.1-0.3,0.2-0.6,0.4-0.9c-0.2,0-0.7-0.1-0.8,0c-0.4,0.3-1,0.7-1,1.8c-0.1,0-0.2,0-0.3,0
			c-0.3-0.3-0.4-0.6-0.5-1.1c-0.1-0.3,0-0.8,0.2-1.1c-0.3,0.1-0.8,0.1-1,0.3c-0.2,0.2-0.3,0.5-0.5,0.8c-0.1,0.2-0.2,0.5-0.3,0.8
			c-0.1,0.1-0.3,0.3-0.4,0.3c-0.2,0-0.5-0.7-0.6-1c-0.1-0.2,0.1-0.7,0.2-0.9c-0.4,0-0.9,0.3-1,0.6c-0.1,0.2-0.1,0.5-0.1,0.7
			c0,1.1,0,2.2,0.1,3.3c0,0.2,0.1,0.4,0.2,0.6c0.1,0.4,0.3,0.8,0.3,1.2c0.1,0.6,0.1,1.3,0.2,1.9c0.4,2.1,0.1,4.2-0.9,6.1
			c-0.5,1-1.5,1.6-2.4,2.1c-0.7,0.4-1.6,0.6-2.5,0.8c-1.9,0.6-3.8,0.8-5.8,0.8C38.2,23.9,37.8,24,37.6,24.2z"/>
	</g>
	<g>
		<path class="st0" d="M33.3,13.2c-1.3,0-2.3,0.5-3,1.6c0.3-0.1,0.6-0.1,0.8-0.2c1-0.5,1.9-0.9,3.1-0.8c1,0.1,2,0.3,3,0.3
			c0.4,0,0.9,0,1.3-0.1c0.6-0.2,1.1-0.6,1.7-0.9c0.1,0,0.2-0.2,0.1-0.2c0-0.1-0.2-0.2-0.3-0.2c-0.2,0-0.4,0.1-0.6,0.2
			c-0.3,0.1-0.7,0.4-1,0.4C36.7,13.3,35,13.3,33.3,13.2z"/>
	</g>
	<g>
		<path class="st0" d="M27.6,8.3c0.4,0,1.1-0.8,1.1-1.2C28.7,6.7,28,6,27.5,6c-0.4,0-1.2,0.7-1.2,1.1C26.4,7.5,27.2,8.3,27.6,8.3z"
			/>
	</g>
</g>
</svg>
