<?xml version="1.0" encoding="utf-8"?>
<!-- Generator: Adobe Illustrator 21.0.0, SVG Export Plug-In . SVG Version: 6.00 Build 0)  -->
<svg version="1.1" id="Layer_1" xmlns="http://www.w3.org/2000/svg" xmlns:xlink="http://www.w3.org/1999/xlink" x="0px" y="0px"
	 viewBox="0 0 96 99.5" style="enable-background:new 0 0 96 99.5;" xml:space="preserve">
<style type="text/css">
	.st0{fill:#EEE8D7;}
</style>
<g>
	<g>
		<path class="st0" d="M0,55.3c0-0.4,0-0.8,0-1.1c0.1,0,0.2,0.1,0.2,0.1c0.5,0.3,0.9,0.7,1.4,1c0.1,0.1,0.1,0.1,0.3,0.2
			c0-0.2-0.1-0.3-0.1-0.3c-0.1-0.4-0.3-0.7-0.4-1.1c-0.3-1.1-0.4-2.1-0.4-3.2c0-0.3,0-0.7-0.1-1c-0.1-0.5-0.2-1.1-0.2-1.6
			c0-0.3,0-0.6,0-1c0-0.6,0.2-1.2,0.3-1.8c0.1,0,0.2,0,0.3,0c0.4,0,0.8,0,1.2,0c0.2,0,0.3,0,0.5-0.1c0.4-0.3,0.9-0.6,1.3-0.8
			c0,0,0.1,0,0.2-0.1c-0.2,1.2-0.4,2.3-0.4,3.5c-0.3,0-0.6,0-0.9,0c0.2,0.3,0.3,0.5,0.5,0.7C3.8,48.8,3.9,49,4,49.2
			c0.1,0.5,0,0.9-0.3,1.2c-0.2-0.1-0.3-0.3-0.6-0.4c0.2,0.4,0.4,0.8,0.6,1.1c0.3,0.4,0.2,0.8,0.2,1.2c-0.2,0-0.3-0.2-0.6-0.2
			c0.2,0.2,0.4,0.4,0.6,0.6C4,52.8,4.1,52.9,4.1,53c0,0.3,0,0.5,0,0.8c-0.3,0-0.5-0.2-0.8-0.2c0.3,0.3,0.6,0.6,0.8,0.8
			c0.1,0.1,0.2,0.2,0.2,0.3c0.1,0.4,0.1,0.8,0.1,1.2c-0.2,0-0.3,0-0.5,0c0.5,0.4,1,0.6,1.2,1.3c-0.2,0-0.4,0-0.6,0c0,0,0,0,0,0.1
			c0.6,0.4,1.3,0.7,1.6,1.4c-0.1,0.1-0.2,0.1-0.3,0.2C6.2,59,6.5,59,6.9,59.1c0.1,0,0.2,0,0.2,0.1c0.2,0.2,0.4,0.5,0.5,0.8
			c-0.3,0.1-0.6,0.2-0.8,0.3c0,0,0,0,0,0.1c0.3,0,0.6,0.1,1,0.1c0.4,0,0.6,0.2,0.8,0.5C8.3,61,8.1,61,7.8,61.1
			c0.1,0.1,0.2,0.1,0.3,0.1c0.5,0.1,0.9,0.1,1.4,0.1c0.3,0,0.4,0.1,0.5,0.3c0.1,0.1,0.2,0.3,0.3,0.4c0.1-0.2,0.2-0.3,0.3-0.5
			c0-0.1,0.1-0.1,0.2-0.2c0.4-0.1,0.7-0.1,1.1-0.1c0,0.4,0,0.8,0.1,1.2c0.1-0.1,0.1-0.1,0.1-0.2c0.2-0.3,0.4-0.7,0.6-1
			c0-0.1,0.1-0.2,0.2-0.2c0.2,0,0.5,0,0.8,0c0,0.2,0,0.3,0.1,0.4c0,0,0,0,0,0c0.1-0.4,0.2-0.8,0.3-1.2c0.2,0,0.3,0.1,0.5,0.1
			c0.2,0,0.3,0.1,0.5,0.1c0-0.4,0-0.7,0-1.1c0.2,0,0.4,0.1,0.6,0.1c0-0.5,0-1.1,0-1.6c0.3,0,0.6,0.1,0.9,0.1
			c-0.3-0.6-0.5-1.2-0.7-1.8c0.3,0.1,0.6,0.1,0.9,0.2c0,0,0,0,0-0.1c-0.4-0.5-0.8-1-1.2-1.5c0,0,0,0,0,0c0.4,0.1,0.8,0.2,1.2,0.3
			c-0.1-0.2-0.2-0.3-0.3-0.5c-0.1-0.1-0.2-0.2-0.3-0.2c-0.4,0-0.8-0.1-1.2-0.2c-0.1,0-0.2,0-0.2-0.1c-0.2-0.3-0.3-0.5-0.5-0.9
			c0.3,0,0.5,0,0.7,0c0.2,0,0.4,0.1,0.6-0.1c-0.5-0.5-1.2-0.5-1.8-0.6c0-0.2,0-0.4,0-0.5c-0.4,0.1-0.8,0.2-1.3,0.3
			c-0.1-0.2-0.2-0.4-0.2-0.6c0.2-0.1,0.5-0.3,0.7-0.4c-0.8-0.1-0.8-0.1-1.2,0.4c0,0,0,0.1-0.1,0.1c-0.1,0-0.1,0.1-0.2,0.1
			c-0.2,0-0.3,0-0.5,0c0-0.3,0-0.5,0-0.7c0,0,0,0-0.1,0c-0.3,0.4-0.6,0.7-0.9,1.1c-0.4-0.3-0.9-0.4-1-1c0,0,0,0-0.1,0
			c0,0.1,0,0.2,0,0.3c-0.1,0.6-0.3,1.2-0.6,1.7c-0.1,0.1-0.2,0.2-0.4,0.2c0-0.3,0-0.5,0-0.7c-0.2,0.3-0.3,0.6-0.4,0.8
			c-0.2,0.3-0.5,0.3-0.8,0.5c0,0.8,0.1,1.6,0.1,2.5c-0.3-0.3-0.5-0.6-0.7-0.8c0,0,0,0-0.1,0c0.1,0.8,0.2,1.5,0.3,2.3c0,0,0,0-0.1,0
			C6,58,5.8,57.8,5.7,57.6c-0.3-0.6-0.6-1.2-0.8-1.9c-0.2-0.6-0.3-1.2-0.5-1.8c-0.1-0.4-0.1-0.8-0.1-1.2c0-0.1,0-0.2,0.1-0.3
			c0.4-0.6,0.8-1.2,1-1.9c0.1-0.3,0.2-0.5,0.3-0.7c0.5-0.8,1.2-1.5,2-2c0.5-0.3,0.9-0.5,1.5-0.6c0.4,0,0.7-0.1,1-0.2c0,0,0,0,0,0.1
			c-0.5,0.6-0.9,1.1-1.4,1.7c0,0,0,0,0,0c0.1-0.1,0.2-0.1,0.3-0.2c0.9-0.5,1.8-0.7,2.8-0.8c0.6-0.1,1.2,0,1.8,0
			c0.5,0,0.8,0.3,1.1,0.6c-0.2,0-0.5,0-0.7,0c-0.5,0-1,0.1-1.5,0.2c-0.2,0.1-0.4,0.1-0.6,0.3c0.2,0,0.3,0,0.4,0c1.1,0,2.2,0,3.2,0
			c0.2,0,0.3,0,0.4,0.1c0.3,0.3,0.6,0.5,0.9,0.8c0.4,0.3,0.7,0.8,1,1.3c0.1,0.2,0.2,0.4,0.3,0.6c-0.6-0.2-1.1-0.4-1.7-0.6
			c0,0,0,0,0,0.1c0.1,0,0.1,0.1,0.2,0.1c0.6,0.3,1.1,0.8,1.6,1.3c0.4,0.5,0.7,1,0.9,1.6c0.3,0.8,0.5,1.6,0.5,2.4
			c0,0.9,0,1.7-0.1,2.6c0,0.7,0,1.4,0,2.2c0,0.4-0.1,0.8-0.3,1.1c-0.2,0.3-0.3,0.5-0.4,0.8c0-0.1-0.1-0.1-0.1-0.2
			c-0.2-0.7-0.4-1.4-0.6-2.1c-0.1-0.4-0.4-0.6-0.7-0.9c0.3,2.7-1,4.5-3.2,5.9c0.2-0.9,0.5-1.8,0.7-2.6c-0.1,0-0.1,0-0.1,0
			c-0.5,0.2-1,0.5-1.5,0.7c-0.1,0.1-0.2,0.2-0.2,0.3c0,0.2-0.1,0.4-0.1,0.6c0,0.2-0.1,0.3-0.4,0.4c-0.8,0.2-1.7,0.4-2.5,0.7
			c-0.3,0.1-0.6,0.2-1,0.2c0,0,0,0,0,0c0.5-0.5,0.9-0.9,1.4-1.4c-0.1,0-0.1,0-0.1,0c-0.1,0-0.1,0-0.2,0c-0.6,0.2-1.3,0.2-1.9,0
			c-0.6-0.1-1.2-0.3-1.7-0.5c-0.1,0-0.2-0.1-0.4,0c0.3,0,0.4,0.2,0.6,0.4c0.1,0.2,0.3,0.4,0.5,0.6c0,0.1,0.1,0.1,0.1,0.2
			c-0.4-0.1-0.7-0.3-1.2-0.4c0.6,0.6,1.1,1.1,1.5,1.9c-0.3-0.1-0.6-0.2-1-0.3c0.1,0.1,0.1,0.1,0.1,0.2c0.1,0.1,0.1,0.1,0.2,0.2
			c0.6,0.5,1.1,1.1,1.6,1.8c0.1,0.2,0.3,0.5,0.3,0.8c-0.5-0.2-0.9-0.5-1.4-0.6c0.9,0.8,1.8,1.6,2.4,2.8c-0.5-0.1-1-0.4-1.5-0.5
			c0.8,0.7,1.6,1.4,2.4,2.2c-0.2,0-0.4,0-0.5,0c0.6,0.4,1.1,0.9,1.6,1.3c0.5,0.5,1,1,1.3,1.7c-0.2-0.1-0.3-0.1-0.4-0.2
			c-0.1,0-0.3-0.1-0.4-0.1c-0.1,0-0.2-0.1-0.3-0.1c0.9,0.6,1.7,1.2,2.2,2.1c-0.2,0.1-0.3,0-0.5,0.1c0.8,0.5,1.5,1.1,2.1,1.9
			c-0.3,0-0.6,0-0.9-0.1c0.3,0.3,0.5,0.6,0.7,0.9c0,0,0,0,0.1,0c0-0.2,0-0.3,0-0.5c0.4,0.6,0.8,1.2,1.2,1.8c0.3,0.3,0.6,0.6,1,0.7
			c0.3,0.1,0.4,0.2,0.6,0.4c0.5,0.7,1.3,0.9,2.1,0.9c0.2,0,0.5,0,0.7-0.1c0.2,0.3,0.3,0.6,0.5,0.9c0.2,0.2,0.6,0.3,0.9,0.5
			c1.1,0.6,2.1,1.1,3.2,1.7c0.5,0.3,1,0.5,1.5,0.8c1.7,0.6,3.3,1.3,5,1.9c0.5,0.2,1,0.3,1.5,0.3c0.7,0,1.5,0,2.2,0.1
			c0.4,0,0.8,0,1.2,0.1c0.1,0,0.2,0,0.3,0c0.4-0.2,0.8-0.3,1.2-0.3c1-0.1,2.1-0.2,3.1-0.3c0.7-0.1,1.4-0.1,2.2-0.1
			c0.2,0,0.4-0.1,0.6-0.1c2.1-0.7,4.3-1.4,6.4-2.1c0.4-0.1,0.7-0.3,1.1-0.4c1.1-0.6,2.2-1.1,3.3-1.7c0.3-0.1,0.5-0.3,0.7-0.5
			c0.2-0.2,0.3-0.4,0.5-0.6c0.8-0.8,1.5-1.7,2.3-2.5c0.3-0.3,0.5-0.6,0.7-1c0.3-0.5,0.5-1.1,0.8-1.6c0.2-0.3,0.3-0.7,0.3-1.1
			c0-0.1,0-0.3,0-0.4c0.2-1,0.4-1.9,0.8-2.8c0.1-0.2,0.1-0.4,0.1-0.6c0-0.3,0-0.7-0.1-1c0-0.6,0-1.1-0.1-1.7c0,0,0-0.1,0-0.1
			c0,0,0,0-0.1,0c-0.1,0.6-0.2,1.2-0.4,1.8c0-0.2,0-0.4,0-0.6c0-1.1,0-2.3,0.1-3.5c0-0.6-0.2-1.1-0.5-1.6c-0.2-0.3-0.3-0.4-0.6-0.3
			c0,0-0.1,0-0.2,0c0-0.3,0-0.5,0-0.8c-0.6,0-1.1,0.3-1.6,0.6c-0.6,0.4-0.8,1-1,1.7c-0.2,0.9-0.3,1.7-0.3,2.6c0,0.2,0,0.4,0.1,0.6
			c0.2,0.6,0.3,1.3,0.3,2c0,0.5-0.2,0.9-0.4,1.4c0,0.1-0.1,0.2-0.1,0.3c0,0.2,0.1,0.4,0.1,0.6c0,0.6,0,1.2-0.2,1.7
			c-0.4,1.1-1.4,1.6-2.6,1.6c0.4-0.5,0.8-1,0.9-1.6c0.1-0.7-0.2-1.2-0.6-1.7c-0.1,0-0.2,0.1-0.3,0.1c-0.7,0.2-1.3,0.5-2,0.7
			c-1,0.3-2,0.5-3,0.7c-1.2,0.2-2.4,0.3-3.6,0.3c-0.9,0-1.8,0-2.7-0.1c-0.8-0.1-1.6-0.2-2.4-0.3c-0.6-0.1-1.2-0.3-1.9-0.4
			c-0.6-0.2-1.1-0.4-1.7-0.5c-0.1,0-0.2,0-0.2,0c0,0.3,0,0.5-0.1,0.7c-0.1,0.5-0.2,1-0.3,1.4c0,0.1,0,0.2,0,0.3
			c0,0.2,0.1,0.4,0.1,0.6c0.1,0.7,0,1.4-0.6,2c-0.1,0.1-0.1,0.2-0.2,0.3c-0.1,0.5-0.3,0.9-0.5,1.3c-0.2,0.4-0.5,0.7-1,0.8
			c-0.6,0.2-1.1,0.2-1.7,0.1c-0.2,0-0.4,0-0.6-0.2c0.2-0.1,0.4-0.2,0.6-0.4c0.4-0.3,0.7-0.6,0.9-1.1c0.1-0.4,0.2-0.7-0.1-1.1
			c-0.2-0.3-0.4-0.6-0.4-1c-0.1-0.6-0.1-1.2-0.1-1.8c0-0.8-0.3-1.4-1-1.8c-0.7-0.5-1.4-1-2.2-1.5c-0.2-0.1-0.3-0.2-0.5-0.2
			c-0.5,0-1,0-1.5,0c-0.4,0-0.7,0.1-1,0.3c-0.3,0.2-0.6,0.4-1,0.5c-0.4,0.1-0.6,0-0.8-0.4c-0.1-0.1-0.1-0.3-0.2-0.4
			c-0.5-0.1-0.8,0.1-1,0.5c-0.1,0.3-0.3,0.5-0.4,0.8c0,0.1-0.1,0.2-0.1,0.3c-0.3-0.6-0.5-1.2-0.6-1.8c-0.1-0.6,0.1-1.1,0.5-1.5
			c0.3-0.3,0.6-0.5,0.9-0.7c0.3-0.2,0.6-0.3,0.8-0.6c0.2-0.2,0.4-0.4,0.6-0.6c0,0,0.1-0.1,0.2-0.2c-0.2,0-0.3,0.1-0.5,0.1
			c-0.2-0.2-0.4-0.5-0.6-0.7c-0.5,0.3-0.9,0.6-1.3,0.9c-0.1-0.4-0.1-0.7,0-1.1c0.1-0.7,0.4-1.2,1-1.6c0.5-0.3,1-0.4,1.5-0.4
			c0.2,0,0.3,0,0.4-0.2c0.3-0.3,0.7-0.3,1,0c0.2,0.2,0.4,0.1,0.7,0.1c-0.2-0.2-0.3-0.4-0.5-0.6c-0.1-0.1-0.2-0.2-0.3-0.2
			c-0.4,0-0.8,0-1.2-0.1c-0.1,0-0.3,0-0.4,0c0.3-0.4,0.6-0.9,0.9-1.3c0.1-0.1,0.2-0.2,0.4-0.2c0.6,0,1.1,0,1.7,0
			c0.2,0,0.3,0.1,0.4,0.2c0.5,0.7,1,1.3,1.7,1.7c0.1,0.1,0.2,0.2,0.3,0.3c0.4,0.8,0.9,1.6,1.5,2.3c0.3,0.4,0.7,0.8,1.1,1.1
			c0.4,0.3,0.8,0.6,1.2,0.9c0.5,0.4,1,0.6,1.6,0.7c0.1,0,0.2,0,0.3,0.1c1.2,0.3,2.5,0.5,3.8,0.6c1.4,0.1,2.8,0.1,4.1-0.1
			c1.7-0.3,3.4-0.8,4.9-1.6c0.2-0.1,0.4-0.3,0.5-0.5c0-0.1,0.1-0.3,0.1-0.4c0-0.5,0.1-1-0.4-1.3c0,0-0.1-0.1-0.1-0.1
			c-0.9-1.2-1.6-2.5-2-3.9c-0.4-1.5-0.6-3-0.6-4.6c0-0.3,0-0.6,0-0.9c0-0.1,0-0.2,0-0.2c-0.3,0-0.6-0.1-0.9,0.2
			c-0.6,0.7-1.3,1.4-1.9,2.1c-0.2,0.3-0.4,0.5-0.4,0.9c0,0.1-0.1,0.2-0.1,0.3c-0.3,0.9-0.8,1.7-1.5,2.4c-0.5,0.5-0.9,0.9-1.3,1.5
			c-0.6,0.9-1.5,1.2-2.5,1.3c-0.2,0-0.4,0-0.6,0c0-0.2-0.1-0.4-0.1-0.5c0.1,0,0.2-0.1,0.3-0.1c0.3-0.1,0.6-0.3,0.9-0.4
			c0.3-0.2,0.5-0.4,0.5-0.7c0-0.5,0-1,0-1.5c-0.2-0.1-0.5-0.1-0.7-0.2c-0.8-0.2-1.6-0.4-2.4-0.8c-0.7-0.3-1.4-0.7-2.1-1
			c-1.2-0.6-2.2-1.4-3.2-2.2c-0.7-0.6-1.4-1.3-2.1-2c-0.9-0.9-1.7-2-2.4-3c-0.2-0.4-0.5-0.7-0.8-1.1c-0.3,0.1-0.5,0.1-0.8,0.2
			c0,0.4,0,0.7,0,1c0,0.7,0,1.4-0.3,2c-0.1,0.2-0.2,0.4-0.4,0.5c-0.1-0.1-0.2-0.2-0.3-0.3c-0.2,0.3-0.4,0.6-0.6,0.8
			c-0.4,0.4-0.8,0.7-1.4,0.7c-0.6,0-1.2-0.2-1.7-0.5c-0.2-0.1-0.3-0.2-0.5-0.4c0.2,0,0.3-0.1,0.4-0.1c0.5-0.1,1-0.2,1.5-0.5
			c0.2-0.1,0.3-0.2,0.4-0.5c0-0.1-0.1-0.1-0.1-0.2c-0.2-0.2-0.4-0.4-0.5-0.6c-0.3-0.4-0.4-0.8-0.4-1.3c0-0.5,0.2-1,0.5-1.4
			c0.1-0.1,0.1-0.2,0.2-0.3c0-0.6,0.1-1.1,0-1.7c-0.2-0.8-0.4-1.6-0.9-2.3c-0.3-0.5-0.7-0.9-1.1-1.2c-0.2-0.2-0.3-0.3-0.6-0.4
			c-0.7-0.3-1.3-0.6-2-1.1c-0.5-0.4-1-0.8-1.4-1.3c-0.1-0.2-0.3-0.4-0.4-0.5c-0.2-0.1-0.4,0-0.7,0c-0.3,0-0.5,0.1-0.7,0.3
			c-0.4,0.3-0.8,0.6-1.4,0.6c0.1-0.1,0.1-0.2,0.2-0.3c0.2-0.3,0.4-0.7,0.6-1.1c0.2-0.4,0.4-0.8,0.7-1.1c0.4-0.4,0.9-0.7,1.5-0.6
			c0.2,0,0.4,0.1,0.7,0.1c0.1-0.4,0.2-0.8,0.5-1c0.3-0.2,0.7-0.3,1.2-0.3c-0.1-0.1-0.1-0.2-0.2-0.2c-0.2-0.2-0.4-0.3-0.5-0.5
			c-0.2-0.2-0.4-0.2-0.6-0.2c-0.3,0.1-0.6,0.1-0.9,0.1c0-0.5,0.3-0.8,0.7-1.1c0.5-0.3,1-0.4,1.5-0.5c0.2,0,0.4,0,0.7,0
			c0.6,0.1,0.9,0.4,1.3,0.8c0.1,0.1,0.1,0.2,0.2,0.3c0.1,0,0.1-0.1,0.2-0.1c0.4-0.2,0.7-0.2,1,0.2c0.1,0.1,0.2,0.3,0.2,0.5
			c0,0.1,0.1,0.2,0.1,0.3c0.4-0.3,0.4-0.3,0.4-0.7c0-0.5-0.2-0.9-0.5-1.2C22.1,40,22,40,21.9,40c-0.2,0-0.4,0-0.7,0
			c0.1-0.2,0.1-0.4,0.2-0.6c0.5,0,0.9,0,1.4,0c0.5,0,1,0.1,1.4,0.5c0.1,0.1,0.3,0.2,0.3,0.4c0.2,0.5,0.4,1.1,0.3,1.6
			c0,0.1,0,0.1,0,0.2c0.1,0,0.1,0.1,0.2,0.1c0.6,0.2,0.5,0.4,0.6,0.7c0,0.2,0,0.3,0,0.5c0.1,1,0.2,2,0.2,3c0.1,0.7,0.1,1.4,0.1,2.1
			c0,0.2,0.1,0.3,0.1,0.4c0.4,0.6,0.8,1.2,1.2,1.9c1.2,1.8,2.5,3.5,4,5.1c1,1.1,2.2,1.9,3.5,2.6c0.2,0.1,0.5,0.2,0.8,0.3
			c0-0.1,0.1-0.1,0.1-0.2c0.1-0.4-0.1-0.8-0.4-1.1c-0.4-0.4-0.9-0.8-1.3-1.3c-0.2-0.3-0.6-0.5-0.9-0.6c0-0.1-0.1-0.3-0.1-0.4
			c-0.1-0.4-0.2-0.8-0.5-1.1c-0.1-0.1-0.2-0.3-0.2-0.4c-0.1-0.6-0.1-1.2-0.3-1.7c-0.1-0.4-0.2-0.8-0.6-1c-0.1-0.1-0.1-0.1-0.1-0.2
			c-0.1-0.5-0.1-0.9-0.2-1.4c-0.2-0.8-0.5-1.6-1-2.3c-0.1-0.1-0.2-0.2-0.3-0.4c0.2,0,0.4,0,0.5,0c0-0.1,0.1-0.2,0.1-0.2
			c0.1-0.6,0-1.2-0.2-1.8c-0.1-0.2-0.1-0.5-0.3-0.7c-0.4-0.4-0.9-0.7-1.3-1.1c-0.1-0.1-0.3-0.2-0.4-0.2c-0.3,0-0.6,0-0.9,0
			c0.1-0.1,0.1-0.2,0.1-0.2c0.3-0.4,0.6-0.7,0.9-1.1c0.2-0.3,0.4-0.6,0.4-1c0-0.2,0-0.3,0-0.5c0-0.1,0-0.2-0.1-0.3
			c-0.3-0.4-0.7-0.7-1-1.1c-0.2-0.2-0.3-0.3-0.6-0.3c-0.1,0-0.1,0-0.2,0c0.4-0.4,0.3-0.9,0.3-1.3c-0.1,0-0.2,0-0.3-0.1
			c0-0.3,0.1-0.5,0.1-0.8c0.1-0.2,0-0.4-0.1-0.6c-0.2-0.2-0.3-0.5-0.4-0.7c-0.1-0.1-0.2-0.2-0.3-0.2c-0.4,0-0.7,0-1.1,0
			c-0.1,0-0.2,0-0.4,0c0.1-0.1,0.1-0.2,0.2-0.2c0.3-0.2,0.4-0.5,0.6-0.8c0.2-0.3,0.2-0.5,0.1-0.8c-0.1-0.4-0.4-0.5-0.7-0.7
			c-0.6-0.4-1.3-0.6-2-0.7c-0.3-0.1-0.6-0.1-0.9-0.2c0-0.3,0-0.5,0-0.7c0-0.1,0-0.2-0.1-0.3c-0.2-0.3-0.4-0.5-0.6-0.8
			c-0.5,0.2-0.9,0.4-1.3,0.7c-0.4-0.3-0.7-0.7-1.1-1c-0.2-0.2-0.3-0.4-0.6-0.5c-0.2-0.1-0.4,0-0.7,0c-0.1,0-0.1,0-0.2,0
			c-0.5,0.1-1,0.1-1.4,0.3c-0.4,0.2-0.7,0.3-1.1,0.5c0,0.2,0,0.3,0,0.4c-0.5-0.2-0.9-0.4-1.4-0.6c-0.1,0-0.1,0.1-0.1,0.1
			c-0.6,0.5-1.2,1-1.8,1.5C11.4,31,11.3,31,11.1,31c-0.3,0-0.7,0-1,0c-0.2,0-0.4,0-0.5,0c-0.3,0.1-0.6,0.3-0.9,0.5
			c0.1,0.1,0.2,0.1,0.3,0.1c0.5,0,0.9,0,1.4-0.1c0.5,0,1-0.1,1.4-0.2c0.5-0.2,0.9-0.3,1.4-0.5c0.2-0.1,0.4-0.1,0.7-0.2
			c-0.2,0.5-0.3,0.7-0.8,0.9c-1,0.6-1.9,1.1-2.9,1.7C9.8,33.5,9.4,33.7,9,34c0,0.2,0,0.4,0,0.6c0,0.2,0,0.4,0,0.6c0,0,0,0,0.1,0
			c0.6-0.6,1.3-1.3,2-1.9c0.1,0.1,0.3,0.1,0.4,0.2c-0.4,0.5-0.7,1-1,1.6c-0.3,0.5-0.7,1-0.9,1.5c0.2-0.2,0.3-0.3,0.5-0.5
			c0.1-0.1,0.1-0.2,0.2-0.2c0.6-0.2,1.1-0.4,1.8-0.6c-0.1,0.1-0.1,0.1-0.2,0.2c-0.6,0.6-1.1,1.2-1.7,1.9c-0.5,0.6-0.9,1.2-1.2,1.9
			c-0.1,0.2-0.1,0.3,0,0.5C9,40,9.2,40.2,9.3,40.4c0.1,0.2,0.2,0.3,0.4,0.3c0.2,0,0.4,0.1,0.7,0.1c-0.2,0.3-0.4,0.6-0.6,1
			c0.6,0,1.2,0,1.8,0c-0.5,0.4-1,0.7-1.6,0.9c-0.3,0.1-0.7,0.1-1-0.1c0,0-0.1-0.1-0.2-0.1c-0.4-0.2-0.8-0.1-1.1,0
			c-0.4,0.1-0.8,0-1.1-0.2c-0.1-0.1-0.2-0.1-0.3-0.3c0.1,0,0.1,0,0.2,0c0.2,0,0.3,0,0.4-0.2c0.1-0.1,0.2-0.2,0.4-0.3
			c0.2-0.1,0.4-0.2,0.6-0.4c-0.4-0.1-0.8-0.2-1.2-0.4c0.3-0.1,0.6-0.2,0.9-0.3c0-0.1,0-0.3,0-0.4c0-0.2-0.1-0.2-0.2-0.3
			c-0.1,0-0.1,0-0.2-0.1c-0.3-0.1-0.7-0.2-1-0.3c0.4-0.3,0.9-0.4,1.3-0.7c-0.3-0.2-0.6-0.3-0.9-0.4c0.1-0.1,0.2-0.1,0.3-0.1
			C7.3,38,7.3,38,7.2,37.5c0,0,0,0-0.1-0.1c-0.2,0-0.5,0-0.8,0C6.6,37.2,6.8,37,7,36.7c-0.2-0.1-0.3-0.3-0.5-0.2
			c-0.2,0.1-0.6,0.5-0.6,0.8c0,0.4-0.1,0.8-0.1,1.2c0,0.6,0,1.2-0.1,1.8c0,0.1,0,0.2,0,0.4c-0.2,0-0.4,0-0.6,0
			c0.1-1.6,0.2-3.2,0.3-4.8c-0.1,0-0.2,0-0.2,0c0,0.2,0,0.4,0,0.6c-0.2,0-0.4,0-0.7-0.1c0.2,0.4,0.4,0.8,0.6,1.2c0,0,0,0,0,0
			c-0.2-0.1-0.5-0.3-0.8-0.4c-0.1,0.1-0.1,0.3-0.2,0.4c-0.1,0.1-0.1,0.2,0,0.4c0.1,0.2,0.3,0.4,0.4,0.5c0,0,0,0,0,0
			C4.2,38.2,4,38.1,3.8,38c-0.1,0.2-0.2,0.4-0.3,0.6c0.3,0.3,0.7,0.7,1,1c0,0,0,0,0,0c-0.3-0.1-0.7-0.1-1.1-0.2
			c-0.1,0.1-0.1,0.3-0.2,0.4c0.3,0.3,0.6,0.6,0.9,0.9c-0.2,0-0.4-0.2-0.6-0.2c-0.2,0-0.4,0.1-0.6,0.2c0.6,0.4,1.1,0.8,1.7,1.3
			c-0.3,0.1-0.6,0.2-1,0.3c-0.2-0.2-0.4-0.4-0.6-0.6c-0.1-0.1-0.2-0.2-0.4-0.2c-0.3,0.1-0.6,0.1-0.8,0.1c-0.1-0.3-0.2-0.5-0.3-0.8
			c-0.2-0.6-0.1-1.2-0.2-1.7c0-0.4,0.1-0.6,0.4-0.8C2,38.2,2.1,38,2.1,37.7c0.1-1.2,0.4-2.3,1-3.3c0.1-0.1,0.1-0.2,0-0.4
			c-0.2-0.3-0.3-0.7-0.3-1.1c0-0.4,0-0.8,0.2-1.2c0.7-1.4,1.5-2.7,2.5-3.9c0.4-0.5,0.7-1,0.9-1.7c0,0,0-0.1,0-0.1
			c0.3-1,0.6-2,1.2-2.8c0.3-0.5,0.6-0.9,1.1-1.2c0.2-0.1,0.3-0.2,0.3-0.4c0.2-0.4,0.3-0.7,0.5-1.1c0-0.1,0.1-0.2,0.1-0.3
			c0-0.5,0.1-0.9,0.1-1.4c0-0.3,0-0.6,0.1-0.9c0.4,0.6,0.7,1.2,1.1,1.8c0,0.1,0,0.2,0,0.3c0,0.3-0.1,0.7-0.1,1
			c0,0.5-0.2,0.8-0.5,1.2c-0.2,0.2-0.4,0.5-0.6,0.8c0.2,0.3,0.3,0.6,0.5,0.9C10,23.9,9.9,24,9.8,24c-0.4,0.4-0.7,0.7-1.1,1.1
			c-0.1,0.1-0.1,0.2-0.1,0.3c0,0.3,0,0.5,0.1,0.8c0,0.1,0,0.2,0.1,0.4c0.1-0.2,0.2-0.2,0.2-0.3C9.1,26.1,9.2,26,9.4,26
			c0.1,0,0.3,0,0.4-0.1c0.4-0.4,0.8-0.7,1.2-1.1c0.7-0.7,1.5-1.3,2.2-2c0.5-0.5,0.5-0.5,1.2-0.5c0.4,0,0.7,0,1.1,0c0,0,0,0,0,0.1
			c-0.8,0.5-1.5,0.9-2.3,1.3c0,0.5,0,0.9,0,1.3c0.4-0.2,0.8-0.3,1.2-0.5c0.2-0.1,0.3-0.2,0.3-0.3c0.2-0.7,0.7-1.2,1.2-1.6
			c0.3-0.2,0.6-0.4,0.9-0.4c0.5-0.1,1-0.2,1.5-0.2c0.1,0,0.2,0,0.3,0c0.2,0.2,0.4,0.4,0.6,0.6c-1,0.4-1.9,0.9-2.8,1.3c0,0,0,0,0,0.1
			c0.1,0,0.2,0,0.2,0c0.6,0,1.3-0.1,1.9-0.1c0.2,0,0.3-0.1,0.5-0.2c0.4-0.3,0.7-0.6,1.1-0.9c0.2-0.2,0.4-0.3,0.7-0.2
			c0.2,0,0.4,0,0.5,0c0.8,0,1.6,0.1,2.4,0.1c0,0,0.1,0,0.2,0.1c-1.1,0.4-2.2,0.7-3.3,1.1c0.6,0.3,1.3,0.5,1.9,0.8
			c0.1,0,0.2,0,0.3-0.1c0.3-0.1,0.6-0.3,0.9-0.4c0.1-0.1,0.2-0.1,0.4-0.1c0.5,0,1.1,0,1.6,0c0.1,0,0.2,0,0.2,0.1
			c0.2,0.2,0.5,0.4,0.7,0.7c-0.9,0.1-1.7,0.2-2.5,0.3c0,0.1,0,0.1,0,0.1c0.4,0.3,0.8,0.5,1.2,0.8c0.1,0,0.2,0.1,0.3,0.1
			c0.5,0,1-0.1,1.5-0.2c0.5-0.1,1-0.1,1.6-0.2c0.3,0.5,0.6,0.9,0.8,1.5c-0.8,0-1.5,0-2.1,0c0,0,0,0.1,0,0.1c0.2,0.4,0.4,0.8,0.6,1.1
			c0,0.1,0.1,0.1,0.2,0.1c0.3,0.1,0.7,0.1,1,0.2c0.7,0.1,1.5,0.3,2.2,0.4c0.1,0,0.2,0,0.2,0.2c0.1,0.4,0.2,0.8,0.4,1.3
			c-0.7-0.1-1.4-0.3-2.2-0.4c0.3,0.4,0.5,0.8,0.8,1.2c0,0.1,0.1,0.1,0.2,0.1c0.3,0.1,0.6,0.3,0.9,0.4c0.3,0.1,0.5,0.2,0.9,0.3
			c0-0.1,0-0.2-0.1-0.3c-0.1-0.3-0.1-0.5,0.1-0.8c0.2-0.4,0.3-0.7,0.3-1.1c0-0.4,0-0.9,0-1.3c0-0.2,0-0.4-0.1-0.7
			c0.4,0.3,0.7,0.6,1,0.8c0.2-0.6,0.2-0.7,0.1-0.9c-0.1,0.1-0.2,0.1-0.3,0.2c-0.2-0.4-0.5-0.7-0.7-1c-0.2-0.3-0.2-0.5,0-0.8
			c0.3-0.5,0.6-1,0.9-1.5c0.1-0.2,0.2-0.4,0.2-0.6c0-0.4,0.1-0.8,0.3-1.2c0.1-0.3,0.2-0.6,0.4-0.8c0-0.1,0.1-0.2,0.1-0.3
			c0-0.4,0-0.8,0-1.2c0-0.6-0.2-1.1-0.7-1.4c-0.3-0.1-0.5-0.4-0.8-0.6c0.3-0.1,0.6-0.1,0.9-0.2c0.1,0.2,0.3,0.3,0.4,0.5
			c0-0.5,0.1-0.8,0.4-1.1c0.1-0.1,0.1-0.2,0-0.4c-0.1-0.4-0.3-0.9-0.4-1.4c-0.1-0.2-0.2-0.4-0.4-0.6c-0.3-0.3-0.6-0.6-0.8-1
			c-0.1-0.2-0.2-0.5-0.3-0.7c-0.3,0-0.5-0.1-0.8-0.1c-0.3,0-0.5-0.1-0.6-0.3c-0.5-0.7-1.1-1.4-1.6-2.1C29.9,11,29.8,11,29.6,11
			c-0.7,0.2-1.3,0.4-2,0.5c-0.1,0-0.2,0.1-0.4,0.1c1,0.6,1.9,1.2,2.8,1.8c0,0,0,0,0,0.1c-1.9,0.1-3.7,0.3-5.7,0.7c1,0.6,2,0.5,3,0.6
			c-0.2,0.2-0.4,0.3-0.7,0.5c-1,0.5-2,1-3.1,1.4c-0.1,0-0.2,0.1-0.3,0.1c0.1,0.1,0.2,0.1,0.2,0.1c0.5,0,1-0.1,1.4-0.1
			c0.4,0,0.8,0,1.1,0.2c-0.2,0.1-0.4,0.2-0.6,0.3c-1.3,0.6-2.7,1.2-4,1.9c-0.1,0.1-0.2,0.1-0.2,0.3c0,0.3,0,0.7-0.1,1
			c0,0.2,0,0.3,0.1,0.4c0.2,0.2,0.4,0.4,0.6,0.6c-0.3,0.1-0.6,0.2-0.9,0.4c-0.3-0.3-0.5-0.8-0.8-1.1c0,0,0,0-0.1,0c0,0.3,0,0.6,0,1
			c-0.2,0-0.4,0-0.6,0c0.1-0.4,0.2-0.7,0.3-1.1c-0.3,0-0.6,0-0.8,0c-0.4,0-0.8-0.1-1.1-0.3c-0.3-0.2-0.5-0.4-0.6-0.7
			c0.1,0,0.2,0,0.3,0c0.6,0,1.3,0.1,1.9,0.1c0.1,0,0.2,0,0.2-0.1c0.1-0.2,0.3-0.5,0.4-0.8c-0.3-0.2-0.6-0.3-0.8-0.5
			c0.2,0,0.4,0,0.6,0c0.2,0,0.4,0,0.7,0.1c0.2,0,0.3,0,0.4-0.2c0.3-0.6,0.7-1.1,1-1.7c0.3-0.5,0.5-1,0.5-1.6
			c-0.1,0.1-0.2,0.1-0.3,0.2c-0.9,0.7-1.7,1.4-2.6,2.1c-0.1,0.1-0.1,0.1-0.2,0.2c-0.3,0.4-0.6,0.7-1,1c-0.7,0.5-1.5,1-2.1,1.7
			c-0.3,0.4-0.7,0.6-1.1,0.8c-0.7,0.2-1.4,0.4-2.1,0.2c-0.3-0.1-0.6-0.2-0.9-0.4c-0.5-0.4-0.8-0.9-1.1-1.5c0.6,0.1,1.2,0.1,1.8,0.2
			c-0.1-0.1-0.1-0.2-0.2-0.3c-0.2-0.4-0.5-0.7-0.7-1.1c-0.1-0.2-0.3-0.4-0.3-0.6c0-0.2,0.1-0.5,0.2-0.7c0.1-0.3,0.2-0.7,0.3-1
			c0.1,0.4,0.2,0.9,0.2,1.3c0,0.1,0,0.2,0,0.3c0,0.2,0.1,0.4,0.2,0.5c0.2,0.3,0.4,0.7,0.6,1c0.2,0.3,1.1,0.8,1.4,0.8
			c0.5,0,1,0,1.5,0c0.2,0,0.3-0.1,0.4-0.2c0.4-0.5,0.9-1,1.3-1.4c0.4-0.4,0.8-0.9,1.2-1.3c0.4-0.4,0.8-0.8,1.2-1.3
			c0.6-0.7,1.2-1.3,1.6-2.1c0-0.1,0.1-0.1,0.1-0.2c-0.6-0.1-1.2,0-1.7,0.4c0.1,0.3,0.1,0.7,0.2,1c-0.3-0.3-0.6-0.2-1-0.2
			c0,0.3-0.1,0.5-0.1,0.7c0,0.1,0,0.2-0.1,0.3c-0.2,0-0.2,0.1-0.2,0.3c-0.1,0.2-0.2,0.5-0.4,0.8c-0.1-0.2-0.1-0.3-0.2-0.4
			c-0.1-0.1-0.1-0.3-0.2-0.4c-0.2-0.2-0.3-0.3-0.6-0.2c0.1,0.6,0.1,1.3,0.2,1.9c-0.5-0.4-0.7-1-0.9-1.7c-0.2,0.2-0.4,0.4-0.6,0.6
			c0.3,0.5,0.3,1,0.1,1.6c-0.3-0.4-0.5-0.7-0.7-1c-0.2,0.1-0.4,0.2-0.5,0.3c0.3,0.7,0.6,1.4,0.9,2.2c-0.4-0.1-0.7-0.3-0.9-0.5
			c-0.3-0.3-0.6-0.6-0.9-1c-0.1-0.2-0.3-0.3-0.5-0.2c-0.2,0-0.3,0-0.5,0c-0.1,0-0.2,0-0.2-0.1c-0.1-0.2-0.3-0.4-0.4-0.6
			c0.4-0.7,0.8-1.3,1.4-1.8c0.2-0.2,0.4-0.5,0.7-0.6c0.2-0.1,0.6-0.1,0.8,0c0.2,0,0.4-0.1,0.5-0.2c0.5-0.5,1.1-1,1.7-1.5
			c0.4-0.3,0.8-0.5,1.2-0.8c-0.1-0.5-0.1-1-0.2-1.5c0.1-0.1,0.2-0.1,0.3-0.2c1-0.5,2.1-1,3.1-1.6c0.9-0.4,1.7-0.9,2.5-1.6
			C25.8,7,26.2,6.5,26.5,6c0.1-0.2,0.2-0.3,0.4-0.3c0.7-0.3,1.5-0.6,2.2-0.9c1.3-0.5,2.3-1.4,3-2.6C32,2.1,32.1,2,32.2,1.9
			c0,0.1,0,0.2,0,0.3c-0.1,0.6-0.3,1.1-0.7,1.5c-0.7,0.9-1.4,1.8-2.2,2.6c0,0-0.1,0.1-0.1,0.2c0.2,0.1,0.3,0.2,0.5,0.3
			c0.2-0.1,0.4-0.3,0.6-0.4c0.3-0.2,0.5-0.3,0.8-0.2c0.4,0.1,0.8,0.1,1.2,0.2c0,0,0,0,0,0.1c-0.5,0.3-1,0.6-1.5,0.9
			c0.1,0,0.1,0.1,0.1,0.1c0.5,0.1,1,0.2,1.5,0.3c0.1,0,0.2,0,0.3,0c0.3-0.1,0.6-0.2,0.9-0.2c0.1,0,0.2,0,0.4,0.1
			c0.5,0.3,1,0.7,1.4,1.2c0,0,0,0.1,0.1,0.2c-0.4,0-0.8,0-1.3,0c0.3,0.3,0.5,0.5,0.7,0.7c0.1,0.1,0.2,0.2,0.4,0.2
			c0.3,0,0.6,0,0.9,0.1c0.8,0.2,1.4,0.7,2,1.3c0.3,0.3,0.5,0.7,0.7,1.2c-0.1-0.1-0.2-0.1-0.2-0.1c-0.4-0.3-0.8-0.5-1.2-0.8
			c-0.3-0.2-0.5-0.1-0.9,0c0.1,0.1,0.2,0.2,0.3,0.3c0.7,0.7,1.5,1.5,2.2,2.2c0.2,0.2,0.3,0.3,0.6,0.3c0.2,0,0.3,0,0.4,0.2
			c0.3,0.4,0.5,0.8,0.8,1.2c0.6,0.9,0.8,2,0.8,3.1c0,0.5-0.2,0.9-0.4,1.4c-0.3-1.2-0.7-2.3-1.5-3.2c0,0.1,0,0.2,0,0.2
			c0,0.7,0.1,1.4,0.1,2.1c0,0.5,0.1,0.9,0.3,1.3c0.1,0.1,0.1,0.2,0.2,0.3c0,0.1,0.1,0.2,0.1,0.3c0,0.6,0,1.2,0,1.8
			c0,0.1,0,0.1,0,0.2c-0.2-0.1-0.3-0.2-0.4-0.3c-0.2-0.1-0.3-0.3-0.3-0.5c0-0.1,0-0.2-0.1-0.2c-0.2-0.1-0.4-0.3-0.6-0.3
			c-0.1,0.4,0,2.4,0,2.6c0.1-0.1,0.3-0.1,0.4-0.2c0.7-0.3,1.3-0.8,1.6-1.5c0.2-0.4,0.3-0.7,0.5-1.1c0.1-0.4,0.2-0.8,0.3-1.2
			c0.2,0.1,0.4,0.3,0.6,0.3c1,0.3,1.9-0.2,2.2-1.2c0.1-0.4,0.2-0.8,0.1-1.2c0,0,0-0.1,0-0.2c0.8,0.2,1.7,0.4,2.4,0.6
			c0.5-0.2,0.6-0.6,0.5-1c0-0.3,0-0.5,0-0.8c0.1,0,0.2,0,0.3,0c0.5,0,1,0,1.5,0c0.1,0,0.2,0,0.3-0.1c0.4-0.3,0.7-0.6,1.1-0.9
			c0.1-0.1,0.1-0.2,0.1-0.3c0-0.2,0-0.4,0-0.6c0.1-0.1,0.2-0.1,0.3-0.2c0.2-0.1,0.5-0.3,0.7-0.4c0.2-0.1,0.2-0.2,0.2-0.4
			c0-0.2,0-0.3,0-0.5c0-0.2,0-0.3,0.1-0.4c0.3-0.4,0.6-0.7,0.9-1.1c0.3-0.4,0.3-0.8,0-1.1c-0.1-0.1-0.2-0.2-0.4-0.4
			c-0.2-0.1-0.2-0.3-0.2-0.5c0-0.6,0-1.1,0-1.7c0-0.2-0.1-0.4-0.3-0.5c-0.9-0.6-1.7-1.3-2.5-2c-0.2-0.2-0.5-0.4-0.7-0.5
			c0,0.1,0,0.2,0,0.3c0.2,0.4,0.4,0.9,0.8,1.2c0.4,0.5,0.9,1,1.5,1.5c0,0,0.1,0.1,0.2,0.2c-0.6-0.1-1.1-0.1-1.5-0.3
			c-0.7-0.3-1.3-0.7-1.9-1.2c-0.1-0.1-0.2-0.2-0.4-0.2c-0.6,0-1.2-0.1-1.8-0.1c0,0,0,0,0,0.1C47,7.5,48,8.2,48.9,9
			c-1.5-0.8-3-0.9-4.7-0.8c0.1,0.1,0.1,0.1,0.2,0.1c0.4,0.3,0.9,0.6,1.3,0.9c0.3,0.2,0.5,0.3,0.8,0.3c0.2,0,0.4,0.1,0.6,0.1
			c0.4,0,0.6,0.3,0.9,0.6c-0.1,0-0.2,0-0.2-0.1c-0.7-0.2-1.5-0.4-2.2-0.6c-0.2-0.1-0.5-0.1-0.7-0.2c-0.7-0.1-1.4-0.2-2.1-0.3
			c-0.4,0-0.8,0-1.2,0.1c-0.3,0.1-0.5,0.2-0.6,0.5c-0.1,0.2-0.1,0.4,0.2,0.5c0.2,0.1,0.4,0.2,0.5,0.3c0.2,0.1,0.1,0.3-0.1,0.4
			c-0.2,0-0.3,0-0.5,0c-0.4-0.1-0.8-0.3-1.1-0.5c-0.1-0.1-0.2-0.2-0.4-0.3c0,0.3,0,0.5,0,0.8c0,0.1,0,0.2,0,0.3
			c0,0.1-0.1,0.2-0.2,0.2c-0.1,0-0.2,0-0.3-0.2c-0.2-0.4-0.3-0.8-0.1-1.3c0.1-0.3,0-0.5-0.1-0.7c-0.2-0.2-0.3-0.5-0.4-0.8
			c0,0,0,0,0,0c0.3,0.3,0.6,0.7,0.9,1c0.3-0.1,0.6-0.3,0.9-0.4c-0.3-0.1-0.5-0.2-0.7-0.2c0-0.5,0.1-0.9,0.1-1.4c0,0,0,0,0.1,0
			c0,0.6,0.5,1,0.8,1.4c0.2-0.1,0.2-0.3,0.2-0.4c0-0.4,0-0.8-0.1-1.2c0-0.1,0-0.3,0-0.4c0,0,0,0,0.1,0C41,7,41.2,7.5,41.5,8
			c0.6-0.2,0.6-0.3,0.5-0.8c-0.1,0-0.3,0-0.4,0c0-0.3,0-0.7,0-1c0.4,0.5,0.8,0.9,1.2,1.3c0.1-0.1,0.3-0.2,0.4-0.2
			c-0.1-0.5-0.3-1-0.4-1.4c0.2,0.2,0.4,0.3,0.6,0.5c0.4,0.4,0.4,0.4,0.5,0.9c0.2-0.1,0.3-0.2,0.5-0.3c-0.2-0.5-0.3-0.9-0.5-1.4
			c0,0,0,0,0.1,0c0.3,0.3,0.7,0.6,1,0.8c0.3-0.2,0.5-0.3,0.7-0.5c0.1-0.1,0.1-0.1,0.2-0.2c0.1-0.5,0.1-0.9,0-1.4
			c0-0.1-0.1-0.2-0.2-0.2c-0.3-0.1-0.7-0.3-1-0.4c-0.1,0-0.2,0-0.3,0c-0.1,0-0.3,0-0.4,0c-0.7,0-1.4,0.1-2.1,0.2
			c-0.1,0-0.2,0.1-0.3,0.2c0,0.2-0.1,0.3-0.2,0.6c-0.1-0.3-0.1-0.5-0.2-0.7c-0.2,0-0.3,0-0.5,0c-0.2,0.4-0.4,0.8-0.5,1.2
			c-0.2-0.4-0.3-0.8-0.4-1.1c-0.2,0-0.3,0-0.4,0c0.1,0.2,0.1,0.4,0.2,0.6c-0.2,0.3-0.4,0.5-0.6,0.8c-0.1-0.5,0-0.9-0.1-1.4
			c-0.5,0.1-1-0.1-1.5-0.2c-0.6-0.2-0.6-0.2-0.6-0.8c0,0,0-0.1,0-0.1c0.3-0.2,0.6-0.3,0.9-0.5c0.2-0.1,0.5-0.2,0.8-0.1
			c0.2,0,0.5,0.1,0.7,0.1c0.8,0.1,1.6,0.1,2.4,0.2c0.3,0,0.4,0,0.6-0.2c0.2-0.3,0.6-0.4,1-0.5c0.4,0,0.8,0,1.2,0.1
			c0.1,0,0.2,0,0.2,0c0.1-0.3,0.3-0.5,0.4-0.8c0.3-0.5,0.8-0.7,1.3-0.5c0.2,0,0.4,0.1,0.6,0.1c0.3,0,0.5,0,0.7,0.1
			c0.7,0.1,1.4,0.4,2,0.8c0.1,0.1,0.2,0.1,0.3,0.1c0.8,0,1.6,0,2.4,0.1c0.3,0,0.5-0.1,0.7-0.3c0.2-0.2,0.3-0.4,0.5-0.5
			c0.4-0.2,0.8-0.4,1.2-0.5c0.2-0.1,0.4-0.1,0.6,0c0.5,0.3,1.1,0.5,1.6,0.8c0.2,0.1,0.5,0.1,0.8,0.1c0.7,0,1.3-0.1,2-0.3
			c0.5-0.1,1-0.1,1.4-0.5c0.5-0.2,1.1-0.4,1.6-0.6c0,0.1,0,0.1-0.1,0.1c-0.4,0.4-0.7,0.8-1.1,1.2c-0.1,0.1-0.2,0.1-0.3,0.1
			c-0.2,0-0.3,0.1-0.5,0.1c-0.4,0.2-0.7,0.4-1.1,0.5c-1.2,0.4-2.5,0.7-3.8,0.5c-0.3,0-0.6,0-0.9,0.1c-0.1,0.1-0.3,0.1-0.5,0.2
			C54.1,3,54,3,53.9,3c-0.7-0.1-1.4-0.1-2.1-0.2c-0.1,0-0.2,0-0.3,0c0.2,0.2,0.3,0.3,0.5,0.5c0.1,0.1,0.3,0.2,0.5,0.2
			c0.1,0,0.3,0,0.4,0c0,0.1,0,0.2,0,0.2c-0.1,0.5,0.1,0.9,0.6,1.2c0.2,0.1,0.4,0.4,0.6,0.5c0-0.1-0.1-0.2-0.1-0.3
			c-0.2-0.3-0.4-0.6-0.6-0.8c-0.3-0.3-0.2-0.6-0.2-1c0.7,0.3,1.4,0.5,1.9,0.9c0.2,0.1,0.4,0.2,0.5,0.2c0.4,0.1,0.7,0.2,1,0.4
			c0.3,0.2,0.6,0.4,0.7,0.7c0.1,0.2,0.2,0.2,0.3,0.2c0,0,0.1,0,0.2,0c0.1,0.3,0.1,0.5,0.2,0.9c-0.2-0.1-0.4-0.2-0.6-0.2
			c-0.2-0.1-0.3-0.2-0.5-0.2C57,6.1,56.8,6,56.6,6c-0.2-0.1-0.3-0.2-0.5-0.2c0.1,0.1,0.1,0.2,0.1,0.2c0.2,0.3,0.4,0.6,0.6,0.9
			c0.2,0.4,0.5,0.6,0.9,0.7c0.3,0.1,0.4,0.3,0.6,0.5c0.4,0.8,0.8,1.7,1,2.5c0.1,0.3,0.1,0.6,0.2,0.9c0,0,0,0-0.1,0
			c-0.2-0.3-0.3-0.6-0.5-0.8c-0.2-0.5-0.5-0.9-1-1.2c-0.1-0.1-0.2-0.1-0.3-0.2c0,0.1,0,0.2,0,0.2c0.2,0.3,0.3,0.6,0.2,0.9
			c0,0.4,0,0.8,0.2,1.2c0.4,1.2,0.5,2.5,0.4,3.8c0,0.4-0.2,0.6-0.5,0.8c0-0.1,0-0.1,0-0.1c-0.1-0.6-0.1-1.2-0.2-1.7
			c0-0.1,0-0.2-0.1-0.3c-0.2-0.2-0.4-0.3-0.6-0.4c0,0.1-0.1,0.2-0.1,0.2c-0.1,0.5-0.3,1-0.4,1.5c0,0.1,0,0.3,0,0.4
			c0,0.4,0.1,0.9,0.1,1.3c0,0.1,0,0.2,0,0.3c-0.3,0.8-0.6,1.5-1.1,2.2c-0.1,0.2-0.3,0.3-0.4,0.5c0-0.1,0-0.1,0-0.1
			c0.1-0.9,0.3-1.8,0.4-2.7c0-0.1,0.1-0.2,0-0.4c-0.3,0.3-0.7,0.7-1,1c-0.1,0.1-0.2,0.2-0.2,0.4c0,0.4,0,0.9,0,1.3
			c0,0.1,0,0.3-0.1,0.4c-0.3,0.6-0.6,1.1-1,1.5c-0.3,0.3-0.6,0.5-1.1,0.6c0.3-1,0.7-1.9,1-3c-0.1,0-0.1,0-0.2,0.1
			c-0.5,0.3-1.1,0.6-1.6,1c-0.1,0.1-0.1,0.1-0.1,0.3c0,0.3,0,0.7,0,1c0,0.2,0,0.3-0.1,0.5c0,0.1-0.1,0.1-0.1,0.2
			c-0.4,0.7-0.8,1.3-1.4,1.9c-0.2,0.2-0.5,0.4-0.9,0.5c0.5-1.1,1-2.2,1.4-3.3c-0.1,0-0.1,0.1-0.1,0.1c-0.6,0.4-1.1,0.9-1.7,1.3
			c-0.1,0.1-0.1,0.2-0.1,0.3c0,0.3-0.1,0.7-0.1,1c0,0.3-0.1,0.5-0.2,0.7c-0.2,0.3-0.4,0.5-0.6,0.8c-0.1,0.2-0.3,0.4-0.5,0.5
			c-0.3,0.2-0.6,0.4-0.9,0.6c-0.1,0.1-0.3,0.2-0.4,0.3c0.1-0.4,0.2-0.8,0.4-1.1c0.1-0.4,0.3-0.8,0.5-1.1c0.1-0.4,0.3-0.7,0.4-1.2
			c-0.1,0.1-0.2,0.1-0.3,0.1c-0.3,0.2-0.5,0.5-0.8,0.8c-0.2,0.2-0.4,0.4-0.6,0.4c-0.2,0-0.4,0.1-0.5,0.1c0,1.4-0.4,2.6-1.4,3.5
			c0-0.2,0-0.4,0-0.5c0-0.5,0.1-0.9,0-1.4c0-0.2-0.1-0.3-0.3-0.3c-0.2,0.2-0.4,0.5-0.7,0.7c-0.2,0.2-0.2,0.3-0.2,0.6
			c0.1,0.9,0.2,1.7,0.1,2.6c-0.1,0.6-0.1,1.2-0.2,1.8c0,0.1,0,0.2-0.1,0.4c-0.1-0.1-0.1-0.2-0.1-0.2c-0.2-0.3-0.4-0.7-0.5-1
			c-0.1-0.1-0.1-0.3-0.1-0.4c0-0.4,0-0.8,0-1.2c0-0.1,0-0.1,0-0.2c-0.3,0.2-0.5,0.4-0.6,0.7c-0.2,0.3-0.3,0.6-0.5,0.9
			c-0.1,0.2-0.1,0.3,0,0.5c0.4,0.9,0.8,1.9,1.2,2.8c0.1,0.2,0.2,0.5,0.3,0.8c-0.4-0.2-0.7-0.3-1.1-0.4c-0.1-0.1-0.3-0.1-0.4-0.2
			c-0.2-0.2-0.5-0.5-0.7-0.7c0,0-0.1-0.1-0.2-0.1c0,0.3,0.1,0.6,0,0.9c0,0.4,0.1,0.7,0.5,0.9c0.8,0.5,1.5,1,2.2,1.5
			c0.3,0.2,0.5,0.8,0.3,1.1c-0.9-0.5-1.9-0.8-2.7-1.5c0,0.1,0,0.2,0,0.2c0.4,0.9,0.9,1.7,1.5,2.4c0.1,0.1,0.2,0.2,0.4,0.2
			c0.2,0,0.4,0,0.6,0c0.1,0,0.2,0,0.3-0.1c0.6-0.5,0.9-1.2,0.7-2c0-0.1,0-0.2,0-0.3c0.1,0.1,0.1,0.1,0.2,0.2
			c0.5,0.7,0.9,1.3,1.5,1.9c0.5,0.5,1.1,0.6,1.7,0.5c0.4-0.1,0.5-0.3,0.5-0.7c0-0.2-0.1-0.4-0.2-0.7c0-0.2-0.1-0.3-0.1-0.6
			c0.2,0.3,0.4,0.5,0.6,0.7c0.4,0.5,1,0.8,1.7,0.7c0.1,0,0.2,0,0.3,0c0.5,0,0.9-0.1,1.3-0.5c0.5-0.4,0.9-0.9,1.2-1.5
			c0.1-0.2,0.2-0.4,0.1-0.6c0-0.6-0.1-1.2-0.1-1.9c0-0.4,0-0.7-0.3-1.1c-0.1-0.1-0.2-0.3-0.2-0.4c-0.5-1.1-1.2-2.1-1.9-3.1
			c-0.2-0.3-0.4-0.3-0.6-0.3c-0.5,0-0.9,0-1.4-0.1c-0.9-0.1-1-0.1-1.7,0.3c-0.1,0-0.1,0.1-0.2,0.1c-0.4,0.2-0.7,0.4-1.1,0.5
			c0-0.1,0-0.1,0-0.1c0.8-1.1,1.7-2.2,2.5-3.2c0.1-0.1,0.2-0.2,0.3-0.2c1.6-1,3.1-2,4.7-3c0.2-0.1,0.4-0.2,0.6-0.3
			c2-0.4,3.9-0.7,5.9-1.1c0.2,0,0.5-0.1,0.7-0.1c0.4,0,0.9,0.1,1.3,0.1c0.6,0,1.1,0.1,1.7,0.1c1.1,0.1,2.2,0.2,3.3,0.2
			c0.8,0.1,1.5,0.1,2.3,0.1c0.2,0,0.4,0.1,0.6,0.2c1.7,0.7,3.4,1.4,5.1,2.1c2,0.8,4,1.6,6,2.5c0.1,0,0.2,0.1,0.2,0.1
			c0.8,0.8,1.6,1.5,2.4,2.3c0.6,0.5,1.2,1.1,1.7,1.6c0.8,0.8,1.7,1.6,2.5,2.4c0.5,0.4,0.9,0.8,1.4,1.3c0.2,0.2,0.5,0.4,0.6,0.7
			c0.6,1.2,1.1,2.5,1.7,3.7c1.3,2.8,2.6,5.6,3.8,8.3c0.1,0.2,0.1,0.4,0.2,0.5c0.1,0.5,0.1,1,0.1,1.5c0.1,1,0.2,2,0.2,3
			c0.1,0.6,0.1,1.2,0.1,1.8c0.1,1.1,0.2,2.2,0.3,3.3c0.1,0.7,0.1,1.4,0.2,2c0,0.2,0,0.4-0.1,0.6c-0.4,1.2-0.9,2.5-1.3,3.7
			c-0.8,2.2-1.6,4.4-2.4,6.7c-0.2,0.5-0.3,0.9-0.6,1.3c-1.3,1.9-2.6,3.8-3.9,5.7c-1.1,1.6-2.2,3.2-3.3,4.8c-0.1,0.1-0.2,0.2-0.3,0.3
			c-0.9,0.7-1.9,1.4-2.8,2.1c-3.1,2.4-6.2,4.7-9.3,7.1c-0.1,0.1-0.2,0.2-0.4,0.2c-2.4,1-4.8,2-7.2,2.9c-1.9,0.8-3.8,1.6-5.7,2.3
			c-0.2,0.1-0.5,0.2-0.7,0.2c-0.4,0.1-0.9,0.1-1.3,0.1c-1.3,0.1-2.7,0.3-4,0.4c-1.1,0.1-2.2,0.2-3.3,0.3c-1.2,0.1-2.4,0.2-3.7,0.3
			c-0.1,0-0.1,0-0.2,0.1c-0.3,0-0.5,0-0.8,0c0,0-0.1-0.1-0.1-0.1c-0.4-0.1-0.8-0.2-1.3-0.3c-0.5-0.1-1-0.2-1.5-0.3
			c0.4-0.1,0.8-0.1,1.2-0.2c1.2-0.1,2.4-0.3,3.6-0.4c0.4,0,0.8-0.1,1.1-0.2c1.6-0.4,3.2-0.7,4.7-1.1c3-0.7,6-1.4,9-2.1
			c0.2,0,0.4-0.2,0.5-0.3c0.4-0.4,0.8-0.9,1.2-1.3c0.2-0.2,0.2-0.3,0.2-0.5c0-0.9,0-1.9,0-2.8c0.5-0.3,1-0.6,1.5-0.9
			c0.1,0.1,0.1,0.3,0.2,0.4c0,0,0.1,0,0.1,0c2.1-0.6,4.2-1.2,6.3-1.9c0.1,0,0.2-0.1,0.3-0.2c0.8-0.7,1.6-1.4,2.4-2
			c0.1-0.1,0.1-0.2,0.2-0.3c0.4-1.3-0.1-2.6-1-3.4c-0.2-0.1-0.3-0.3-0.5-0.5c0.6-0.5,1.2-1,1.8-1.4c1.3-1.1,2.7-2.2,4-3.2
			c0.1-0.1,0.2-0.2,0.2-0.3c0.5-1.1,0.8-2.3,0.9-3.5c0-0.7,0-1.3-0.4-1.9c-0.3-0.3-0.5-0.7-0.7-1.1c-0.4,0.1-0.7,0.2-1,0.2
			c-0.4,0.1-0.9,0.1-1.3,0c-0.1,0-0.2,0-0.4-0.2c0.2-0.2,0.3-0.3,0.5-0.5c0.7-0.7,1.2-1.4,1.6-2.3c0.2-0.4,0.4-0.9,0.3-1.4
			c0-0.3,0-0.7-0.1-1c0-0.8,0-1.7-0.1-2.5c0-0.9-0.4-1.6-1.1-2.2c-0.3-0.3-0.7-0.5-1.1-0.7c-0.1-0.1-0.2-0.1-0.3,0
			c-0.6,0.1-1.3,0.3-1.9,0.4c-0.3,0.1-0.5,0.1-0.8,0.2c0.1,0.2,0.2,0.4,0.3,0.6c0.3,0.7,0.4,1.4,0.2,2.1c-0.1,0.2-0.1,0.3-0.2,0.5
			c0.2,0.2,0.4,0.4,0.5,0.5c0.4,0.4,0.8,0.9,1.1,1.4c0.6,1,0.8,2,0.6,3.2c-0.1,0.4-0.2,0.8-0.4,1.3c-0.4-1-1.1-1.8-1.7-2.6
			c0,0.1,0,0.2,0.1,0.3c0.4,0.9,0.7,1.8,0.9,2.7c0.3,1.1,0.4,2.2,0.5,3.4c0,0.2,0,0.3-0.1,0.5c-0.2,0.3-0.3,0.7-0.5,1
			c-0.2,0.3-0.3,0.7-0.5,1c-0.2-0.1-0.4-0.2-0.5-0.4c-0.2-0.3-0.3-0.6-0.4-0.9c-0.1-0.5-0.2-1-0.4-1.4c-0.1-0.3-0.4-0.5-0.7-0.6
			c0,0.1,0.1,0.2,0.1,0.3c0.3,0.6,0.5,1.2,0.6,1.8c0.1,0.7,0.1,1.4-0.2,2.1c-0.2,0.5-0.4,1-0.8,1.4c-0.1,0.2-0.2,0.3-0.2,0.5
			c-0.1,0.8-0.1,1.7-0.2,2.5c0,0.2,0,0.3-0.1,0.5c-0.2-0.3-0.4-0.5-0.4-0.8c-0.1-0.4-0.1-0.9-0.1-1.3c0-0.2,0.1-0.5,0-0.7
			c-0.1-0.2-0.3-0.4-0.5-0.5c-0.1-0.1-0.3-0.2-0.4-0.4c0.1,0.8,0.3,1.5,0.4,2.2c0,0.2,0,0.4-0.1,0.6c-0.6,1-1.2,2-1.9,3
			c-0.4,0.7-0.8,1.3-0.9,2.1c0,0.1-0.1,0.2-0.1,0.3C65.2,85.1,65,84,65,82.8c-0.2,0.2-0.3,0.4-0.3,0.6c-0.1,0.3-0.1,0.6-0.1,0.9
			c-0.1,0.6-0.1,1.2-0.2,1.8c0,0.1-0.1,0.2-0.1,0.3c-0.6,0.5-1,1.1-1.5,1.6c-0.2,0.3-0.5,0.5-0.8,0.8c-0.3,0.2-0.7,0.4-1.1,0.4
			c0.2-0.8,0.3-1.5,0.5-2.4c-0.4,0.2-0.7,0.4-1,0.6c0,0.4,0,0.7,0,1.1c0,0.1,0,0.2-0.1,0.3c-0.8,0.9-1.5,1.9-2.3,2.8
			c-0.1,0.1-0.2,0.1-0.3,0.2c-0.4,0.1-0.8,0.1-1.3,0.2c-0.1,0-0.3,0-0.5,0c0.1-0.8,0.2-1.5,0.2-2.2c0,0,0,0-0.1,0
			c-0.1,0.2-0.2,0.4-0.3,0.6c-0.2,0.5-0.3,1-0.4,1.6c0,0.2-0.1,0.3-0.3,0.4c-0.3,0.2-0.7,0.4-1,0.6c-0.1,0.1-0.2,0.1-0.4,0.1
			c-0.3-0.1-0.6-0.1-1-0.1c-0.2,0-0.3,0-0.4,0.1c-1,0.8-2.1,1.6-3.1,2.4c-0.2,0.1-0.4,0.3-0.6,0.5c0-0.6,0.1-1.1,0.3-1.6
			s0.5-1,0.7-1.5c-0.3,0.1-0.5,0.2-0.8,0.3c-0.1,0-0.1,0.1-0.2,0.2c-0.1,0.4-0.3,0.7-0.4,1.1c-0.1,0.2-0.2,0.3-0.4,0.4
			c-0.7,0.1-1.3,0.3-2,0.5c-1.2,0.3-2.4,0.7-3.4,1.4c-0.6,0.4-1.2,0.6-1.8,0.8c-0.1,0-0.1,0-0.2,0c0-0.4,0-0.8,0-1.3
			c0-0.2,0.1-0.4,0.2-0.5c0.7-0.6,1.4-1.2,2.1-1.8c0.1,0,0.1-0.1,0.2-0.2c-0.3,0-0.6,0-0.8,0c-0.2,0-0.4,0.1-0.5,0.2
			c-0.5,0.6-1.1,1.1-1.6,1.7c-0.2,0.2-0.3,0.2-0.6,0.3c-0.8,0-1.7,0.1-2.5,0.1c-0.8,0.1-1.7,0.1-2.5,0.2c-0.2,0-0.4,0-0.6,0
			c0-0.1,0-0.2,0-0.3c0-0.3,0.1-0.5,0.3-0.7c0.5-0.4,1.1-0.8,1.6-1.2c0.1-0.1,0.2-0.1,0.2-0.2c0,0,0,0,0-0.1c-0.1,0-0.2,0.1-0.3,0.1
			c-0.2,0.1-0.5,0.3-0.8,0.3c-0.3,0-0.6,0-0.8,0.1c-0.7,0.1-1.4,0.1-2.1,0.3c-0.1,0-0.3,0.1-0.4,0.1c-0.5,0-1-0.1-1.5-0.3
			c-0.2-0.1-0.4-0.1-0.6-0.1c-0.9,0-1.7,0-2.5,0c-0.1,0-0.2,0-0.3-0.1c-0.2-0.1-0.3-0.3-0.5-0.5c0.4-0.2,0.7-0.3,1-0.4
			c0-0.2,0-0.3,0-0.5c0.3,0,0.5-0.1,0.8-0.1c0.4-0.1,0.8-0.2,1.1-0.4c0.1-0.1,0.2-0.2,0.2-0.4c-1.1,0-2.2-0.1-3.2-0.9
			c-0.1,0.1-0.2,0.3-0.3,0.4c-0.4-0.2-0.7-0.5-1-0.7c-0.1-0.1-0.2-0.1-0.3-0.2c-0.9-0.2-1.7-0.4-2.6-0.5c-0.6-0.1-1.1-0.2-1.7-0.4
			c-0.3-0.1-0.4-0.4-0.4-0.7c0.3-0.1,0.7-0.2,1-0.3c0.3-0.1,0.7,0,1.1,0c-0.2-0.3-0.4-0.5-0.8-0.4c-0.2,0-0.4-0.1-0.6-0.2
			c-0.2-0.1-0.3-0.3-0.5-0.4c-0.2-0.2-0.5-0.3-0.8-0.3c-0.3,0-0.5,0-0.8,0c-0.1-0.2-0.3-0.4-0.4-0.6c-0.1-0.1-0.2-0.2-0.3-0.2
			c-0.4,0-0.7,0-1.1,0c-0.2,0-0.4-0.1-0.6-0.2c-0.5-0.3-1-0.7-1.5-1c-0.1,0-0.1-0.1-0.2-0.2c0.4,0,0.6,0,0.9,0c0.3,0,0.6,0,0.9,0
			c-0.4-0.4-0.7-0.8-1.1-1.2c-0.2-0.3-0.5-0.5-0.9-0.7c-0.3-0.2-0.6-0.4-0.9-0.6c-0.7-0.6-1.4-1.2-2.1-1.8c-0.3-0.3-0.6-0.6-0.9-0.9
			c0.6,0.1,1.2,0.4,1.9,0.5c-0.1-0.1-0.1-0.1-0.1-0.2c-0.4-0.5-0.8-1-1.2-1.5c-0.2-0.3-0.4-0.5-0.7-0.7c-0.5-0.3-1-0.7-1.4-1.1
			c-0.6-0.5-1.1-1.1-1.7-1.7c-0.1-0.1-0.1-0.1-0.2-0.2c0.7,0.2,1.2,0.4,1.8,0.6c0-0.1,0-0.1,0-0.1c0-0.1-0.1-0.1-0.1-0.2
			C8,74.8,7.6,74.3,7,73.8c-0.2-0.2-0.5-0.4-0.7-0.6C6.2,73.1,6.1,73,6,72.9c-0.3-0.5-0.7-1.1-1-1.6c-0.2-0.4-0.4-0.8-0.7-1.2
			c0.7,0.6,1.3,1.3,2.3,1.6c-0.3-0.6-0.6-1.1-1-1.6c-0.3-0.3-0.5-0.5-0.9-0.7c-0.2-0.1-0.3-0.1-0.3-0.3c-0.6-1.2-1.3-2.4-1.9-3.6
			c-0.1-0.1-0.1-0.2-0.2-0.3c0.6,0.4,1.2,0.9,1.8,1.4c0-0.4-0.1-0.8-0.1-1.1c0-0.1-0.1-0.2-0.2-0.2c-0.2-0.2-0.5-0.3-0.7-0.5
			c-0.1-0.1-0.2-0.2-0.2-0.3c-0.3-0.7-0.6-1.4-1-2.1c0-0.1-0.1-0.2-0.1-0.3C2,61.7,2,61.3,2,60.9c0-0.3,0-0.6,0-1
			c0.2,0.2,0.3,0.3,0.4,0.4c0.7,0.9,1.5,1.7,2.5,2.3c0.6,0.4,1.3,0.7,2.1,0.8c0.2,0,0.3,0,0.5,0c0,0,0-0.1,0-0.1
			c-1.1-0.3-2-0.9-2.9-1.6c-0.9-0.7-1.7-1.4-2.4-2.3c0.6,0,1,0,1.5,0c-0.3-0.9-0.7-1.4-2-1.5c0-0.1-0.1-0.2-0.1-0.2
			C1,57,0.6,56.3,0.2,55.6C0.2,55.5,0.1,55.4,0,55.3z M6.6,29.1c-0.2,0-0.2,0-0.3,0c-0.3,0-0.5,0.1-0.6,0.3c-0.3,0.4-0.7,0.8-1,1.2
			c-0.1,0.1-0.2,0.2-0.4,0.2c-0.1,0-0.2,0-0.2,0.1c-0.2,0.3-0.4,0.7-0.3,1.1c0,0.6,0.3,1.1,0.6,1.6c0.1,0.1,0.1,0.1,0.2,0.2
			c0,0,0,0,0.1,0c0-0.1,0-0.2,0-0.3c0-0.6,0-1.1,0-1.7c0-0.2,0-0.3,0.2-0.4C5,31,5.3,30.7,5.5,30.4C5.9,30,6.2,29.6,6.6,29.1z
			 M23.1,10.3c-1,0.3-2,0.5-2.9,0.8c0,0.3,0,0.5,0,0.7c0,0.2,0,0.4,0,0.7c0.1-0.1,0.2-0.1,0.2-0.1c0.8-0.5,1.6-1,2.4-1.5
			C23.1,10.7,23.2,10.6,23.1,10.3z M47.9,2.6c-0.3-0.4-0.8-0.7-1.3-0.7c-0.5-0.1-1-0.1-1.4-0.2c-0.1,0-0.2,0-0.2,0.1
			c-0.1,0.2-0.3,0.5-0.4,0.7C45.8,2.5,46.8,2.6,47.9,2.6z M6.5,64.6c-0.3-0.3-0.6-0.6-0.9-0.9c-0.2,0.1-0.5,0.2-0.7,0.5
			C5.5,64.3,6,64.5,6.5,64.6z"/>
	</g>
	<g>
		<path class="st0" d="M68.8,12.1c0.4,0.1,0.8,0.1,1.1,0.2c0.8,0.1,1.5,0.4,2.3,0.7c0.2,0.1,0.3,0.2,0.3,0.5c0,0.3,0,0.5,0,0.8
			c0,0.1,0,0.1,0,0.2c0.4-0.2,0.8-0.4,1.3-0.3c0,0.1,0,0.2,0,0.2c0,0.5,0,0.9,0,1.4c0,0.1,0,0.3-0.1,0.4c-0.4,0.5-0.8,0.9-1.2,1.4
			c0,0,0,0.1-0.1,0.1c0.5,0,0.9-0.1,1.4-0.1c-0.2,0.3-0.4,0.6-0.7,0.8c-0.8,0.7-1.7,1.2-2.6,1.6c-0.1,0-0.2,0.1-0.3,0.2
			c0.3,0.5,0.6,1,0.9,1.6c-0.1,0-0.1,0-0.2,0c-0.6,0-1.1-0.1-1.7-0.1c-0.1,0-0.3-0.1-0.4-0.1c-0.1,0-0.2-0.1-0.3-0.1
			c-0.4-0.3-0.8-0.2-1.2,0c0,0-0.1,0-0.1,0.1c-0.4-0.2-0.7-0.5-1.2-0.8c0.1,0.5,0.1,0.8,0.2,1.3c-0.3-0.1-0.6-0.1-0.9-0.2
			c-0.2,0-0.4-0.1-0.6-0.1c-0.5-0.1-0.8-0.3-1.2-0.6c-0.6-0.6-1.1-1.2-1.5-2c-0.1-0.1-0.1-0.2-0.2-0.4c-0.2,0.5-0.3,1-0.7,1.3
			c-0.1-0.2-0.2-0.4-0.3-0.6c-0.3-0.6-0.4-1.3-0.6-2c0-0.1,0-0.1-0.1-0.2c-0.2-0.7-0.2-1.5-0.1-2.2c0-0.2,0-0.5,0-0.7
			c-0.3,0.2-0.6,0.3-0.9,0.5c0.1-0.5,0.1-0.9,0.4-1.3c0.8-0.9,1.4-1.9,2-2.9c0,0,0-0.1,0.1-0.1c0,0,0,0,0-0.1
			c-0.4-0.2-0.9-0.5-1.4-0.7c0.1,0,0.1-0.1,0.2-0.1c0.3-0.2,0.6-0.3,1-0.5c0.2-0.1,0.5-0.2,0.8-0.2c0.9,0,1.8-0.1,2.6-0.2
			c0.5-0.1,1.1-0.1,1.6-0.3c-0.5-0.2-1.1-0.4-1.6-0.5c-0.5-0.2-1.1,0-1.7-0.1C63,7.3,63.1,7,63.3,6.6C63,6.8,62.8,6.9,62.6,7
			c-0.1,0.1-0.2,0.1-0.4,0.1c-0.4,0-0.8,0-1.3,0c0.1-0.5,0.1-1,0.2-1.5c-0.3,0.2-0.5,0.4-0.7,0.6c-0.1,0.1-0.2,0.1-0.4,0.1
			c-0.3-0.1-0.6-0.2-0.9-0.3c-0.1,0-0.2-0.1-0.2-0.2c-0.2-0.7-0.5-1.4-0.7-2.1c0.4-0.1,0.7-0.1,1.1-0.1c0.8-0.1,1.6-0.1,2.4-0.1
			c0.3,0,0.5-0.1,0.8-0.1c0.1,0,0.3,0,0.4,0.1c1.8,0.8,3.6,1.5,5.5,2.3C68.5,6,68.8,6.1,69.1,6c0.1,0,0.2,0,0.3,0c0,0.1,0,0.2,0,0.3
			c-0.1,0.3-0.1,0.6-0.2,0.9c-0.1,0.3-0.1,0.3-0.4,0.3c-0.4,0.1-0.9,0.1-1.3,0.2c0.6,0.3,1.2,0.5,1.8,0.7c0.6,0.2,1.2,0.5,1.9,0.7
			c0-0.8,0-1.5,0-2.4c1.7,1.6,3.3,3.1,5,4.7C76.1,10.6,76.1,9.8,76,9c0,0,0,0,0,0c1.6,2.2,3.2,4.4,4.8,6.5c0,0,0,0,0.1,0
			c0.2-0.8,0.4-1.7,0.5-2.5c0,0,0,0,0.1,0c1,2.3,1.9,4.6,2.9,6.9c0,0,0,0,0.1,0c0.2-0.8,0.3-1.5,0.4-2.3c0,0,0,0,0,0c0,0,0,0,0,0
			c0.9,2.2,1.8,4.4,2.7,6.7c0.2-0.4,0.3-0.7,0.4-1c0.1-0.3,0.3-0.7,0.4-1c0.4,2.3,0.8,4.7,1.2,7c0,0,0.1,0,0.1,0
			c0.4-0.7,0.8-1.4,1.3-2.2c0,0.1,0.1,0.2,0.1,0.2c0,0.9,0.1,1.8,0.1,2.6c0,1,0.2,2,0.4,3c0,0,0,0,0.1,0c0.3-1,0.6-2.1,0.9-3.2
			c0.2,0.4,0.4,0.8,0.6,1.2c0,0.1,0,0.2,0,0.3c0,1.9,0,3.7,0,5.6c0,0.1,0,0.2,0,0.4c0.1,0,0.3,0,0.4,0c0.2,0,0.3-0.1,0.4-0.2
			c0.3-0.5,0.6-0.9,0.9-1.4c0-0.1,0.1-0.1,0.1-0.2c0,0.1,0,0.2,0.1,0.2c0,0.5,0,1.1,0.1,1.6c0,0.7,0.1,1.4,0.1,2.1
			c0,0.6,0.1,1.2,0.1,1.8c0,0.7,0.1,1.4,0.1,2.1c0,0.6,0,1.2,0.1,1.8c0,0.7,0.1,1.4,0.1,2c0,0.6,0.1,1.2,0.1,1.8
			c0,0.7,0.1,1.5,0.1,2.2c0,0.6,0,1.2,0.1,1.8c0,0.7,0.1,1.4,0.1,2.1c0,0.7,0.1,1.5,0,2.2c-0.1-0.3-0.1-0.6-0.2-0.9
			c-0.5-2.6-1-5.2-1.5-7.8c-0.1-0.4-0.2-0.8-0.2-1.2c-0.1-0.5-0.3-0.8-0.5-1.2c-0.7-1.5-1.4-3-2.1-4.5c-0.5-1.1-1-2.2-1.6-3.3
			c-0.1-0.1-0.1-0.2-0.2-0.4c0.5,0.1,0.9,0.3,1.4,0.4c0,0,0,0,0-0.1c-0.2-0.2-0.3-0.5-0.5-0.7c-0.2-0.4-0.5-0.7-0.8-1
			c-0.5-0.5-1-1.1-1.6-1.6c-0.3-0.3-0.4-0.6-0.5-1.1c0.4,0.3,0.8,0.5,1.3,0.8c0.1-0.3,0.2-0.5,0.3-0.8c-0.4-0.2-0.8-0.4-1.1-0.6
			c-0.1,0-0.1-0.1-0.2-0.1c-0.5-0.2-0.8-0.5-1.1-1c-0.3-0.6-0.7-1.2-1-1.8c0,0,0-0.1-0.1-0.2c0.6,0.2,1.2,0.4,1.8,0.6c0,0,0,0,0,0
			c0-0.1-0.1-0.1-0.1-0.2c-0.4-0.4-0.8-0.8-1.3-1.2c-0.2-0.2-0.4-0.3-0.6-0.4c-0.7-0.4-1.3-0.8-1.8-1.4c-0.2-0.3-0.4-0.5-0.6-0.9
			c0.4,0.1,0.7,0.2,1,0.2c0.3,0,0.6,0,1,0c-0.1-0.1-0.1-0.2-0.2-0.3c-0.2-0.5-0.5-0.8-1-1.1c-1.3-0.7-2.6-1.5-3.9-2.2
			c-0.1-0.1-0.2-0.1-0.4-0.2c0.1-0.2,0.3-0.5,0.4-0.7c0.5,0.1,1,0.1,1.5,0.2c0,0,0,0,0,0c-0.1,0-0.1-0.1-0.1-0.1
			c-0.9-0.6-1.9-1.1-2.9-1.7c-0.1-0.1-0.2-0.1-0.4-0.1c-0.2,0-0.4,0-0.6,0c0-0.2,0-0.4,0-0.7c0.7-0.1,1.4-0.3,2.1-0.4
			c-0.1-0.1-0.1-0.1-0.2-0.2c-0.3-0.2-0.6-0.5-0.9-0.7c-0.1-0.1-0.3-0.2-0.5-0.2c-0.9-0.2-1.8-0.3-2.6-0.5c-0.1,0-0.2-0.1-0.4-0.1
			c0-0.2,0-0.4,0-0.7c0.5-0.1,1-0.1,1.4-0.2c0,0,0,0,0-0.1c-0.7-0.4-1.4-0.8-2.1-1.2c0.1-0.6,0.1-1.2,0.2-1.8c-0.5,0-1,0-1.6,0
			c0.2-0.4,0.4-0.7,0.7-1c-0.3-0.1-0.6,0-0.8-0.1c-0.3,0-0.6,0-0.9,0c-0.3,0-0.5,0-0.9,0c-0.1-0.3-0.1-0.6-0.2-1
			c-0.4,0.2-0.8,0.3-1.2,0.5c0-0.2,0-0.4,0-0.7c-0.7,0.2-1.4,0.3-2.1,0.5c0-0.3,0-0.5,0-0.8c-0.3,0-0.4,0.2-0.6,0.3
			c-0.2,0.1-0.4,0.3-0.6,0.4c-0.2,0.1-0.4,0.2-0.7,0.4c0-0.4,0-0.7,0-1c0,0,0,0-0.1,0c-0.2,0.3-0.4,0.6-0.5,0.9
			c-0.2,0.3-0.3,0.6-0.5,0.9c-0.3-0.2-0.6-0.4-1-0.7c0,0.7,0.1,1.4,0.1,2.1c-0.3-0.3-0.6-0.5-0.8-0.8c0,0,0,0-0.1,0
			c0.2,0.6,0.3,1.1,0.5,1.8c-0.3-0.2-0.6-0.3-0.9-0.5c0,0,0,0,0,0c0.4,0.5,0.7,0.9,1.1,1.4c-0.2,0.2-0.4,0.4-0.6,0.6
			c0.6,0.2,1.2,0.4,1.8,0.7c-0.3,0.2-0.5,0.3-0.8,0.5c0.4,0.2,0.7,0,1.1,0.2c0.1-0.2,0.2-0.2,0.4-0.2c0.3,0,0.6,0,0.9,0.1
			c0.2,0.1,0.5,0,0.7,0c0.1,0,0.3,0,0.4-0.1c0,0.2,0,0.3,0.1,0.6c0.1-0.1,0.2-0.2,0.3-0.3c0.3-0.4,0.5-0.8,0.7-1.2
			c0-0.1,0.1-0.2,0.2-0.3c0.1,0.5,0.3,1.1,0.5,1.7c0.1-0.1,0.1-0.2,0.1-0.2c0.2-0.8,0.4-1.6,0.7-2.4c0.1-0.4,0.1-0.9,0-1.3
			c-0.1-0.3-0.1-0.7-0.2-1c0-0.2-0.1-0.3-0.3-0.5C69.4,12.6,69.1,12.4,68.8,12.1C68.8,12.1,68.8,12.1,68.8,12.1z"/>
	</g>
	<g>
		<path class="st0" d="M32.9,3.4c0.2,0.5,0.5,0.9,0.8,1.3C33.9,4.8,34,5,34.2,5.3c0-0.1,0-0.2,0-0.3c0-0.6,0-1.2,0.3-1.8
			c0-0.1,0.1-0.2,0.1-0.2c0.3-0.2,0.5-0.5,0.9-0.7c-0.1,0.3-0.1,0.6-0.3,0.8C35,3.6,34.9,4,34.9,4.4c0,0.6,0.2,1.1,0.6,1.5
			c0.4,0.3,0.8,0.5,1.3,0.5c0.6,0,1.2-0.1,1.8-0.3c0.5-0.2,0.9-0.3,1.4-0.5c0.3-0.1,0.6-0.4,1-0.5c0.9-0.4,1.8-0.7,2.7-0.6
			c0.4,0,0.8,0,1.1,0C45,5,45,5.4,44.6,5.7c-0.2-0.1-0.4-0.3-0.6-0.4c-0.2-0.2-0.5-0.2-0.7-0.2c-0.5,0.1-1,0.2-1.5,0.3
			c-0.7,0.2-1.4,0.4-2.1,0.6c-0.2,0.1-0.4,0.1-0.6,0.2c-0.7,0.4-1.5,0.7-2.3,0.7c-0.7,0-1.5,0-2.2-0.3c-0.6-0.2-1-0.6-1.4-1.1
			c-0.1-0.1-0.1-0.3-0.2-0.4c-0.2-0.2-0.3-0.5-0.2-0.8c0-0.3,0-0.7,0.1-1C32.9,3.4,32.9,3.4,32.9,3.4z"/>
	</g>
	<g>
		<path class="st0" d="M5.3,42c0,0.5-0.3,0.9-0.6,1.2c-0.4,0.5-0.9,0.9-1.4,1.3c-0.5,0.4-1.1,0.6-1.8,0.5c-0.2,0-0.4,0-0.7,0
			c0.1-0.2,0.2-0.2,0.3-0.3c0.5-0.3,0.9-0.5,1.5-0.6c0.1,0,0.1,0,0.2-0.1c-0.5-0.3-1-0.3-1.5-0.3c-0.3-0.5-0.5-1.1-0.8-1.6
			c0,0,0,0,0,0c0.1,0.1,0.2,0.2,0.4,0.3c0.3,0.2,0.6,0.5,0.9,0.7c0.1,0.1,0.2,0.1,0.4,0.1c0.3,0,0.7,0,1,0c0.1,0,0.3,0,0.4-0.1
			c0.3-0.3,0.6-0.6,0.9-0.9C4.8,42,5,41.9,5.3,42z"/>
	</g>
</g>
</svg>
