<?xml version="1.0" encoding="UTF-8"?>
<svg width="201.86" height="188.69" version="1.1" viewBox="0 0 201.86171 188.68941" xml:space="preserve" xmlns="http://www.w3.org/2000/svg" xmlns:cc="http://creativecommons.org/ns#" xmlns:dc="http://purl.org/dc/elements/1.1/" xmlns:rdf="http://www.w3.org/1999/02/22-rdf-syntax-ns#"><metadata><rdf:RDF><cc:Work rdf:about=""><dc:format>image/svg+xml</dc:format><dc:type rdf:resource="http://purl.org/dc/dcmitype/StillImage"/><dc:title/></cc:Work></rdf:RDF></metadata>
<style type="text/css">
	.st0{fill:#663300;stroke:#2F2507;stroke-miterlimit:10;}
	.st1{fill:#9C9264;}
	.st2{fill:#42270A;}

	#hat-one{ animation: hat-one-anim 1.5s  infinite;}
	@keyframes hat-one-anim{
	0%{ stroke-opacity: 1; fill-opacity: 1;}
	13%{ stroke-opacity: 1; fill-opacity: 1;}
	14%{ stroke-opacity: 0; fill-opacity: 0;}
	83%{ stroke-opacity: 0; fill-opacity: 0;}
	84%{ stroke-opacity: 1; fill-opacity: 1;}
	100{ stroke-opacity: 1; fill-opacity: 1;}
	}
	#hat-two{ animation: hat-two-anim 1.5s  infinite;}
	@keyframes hat-two-anim{
	0%{ stroke-opacity: 0; fill-opacity: 0;}
	13%{ stroke-opacity: 0; fill-opacity: 0;}
	14%{ stroke-opacity: 1; fill-opacity: 1;}
	27%{ stroke-opacity: 1; fill-opacity: 1;}
	28%{ stroke-opacity: 0; fill-opacity: 0;}
	69%{ stroke-opacity: 0; fill-opacity: 0;}
	70%{ stroke-opacity: 1; fill-opacity: 1;}
	83%{ stroke-opacity: 1; fill-opacity: 1;}
	84%{ stroke-opacity: 0; fill-opacity: 0;}
	100%{ stroke-opacity: 0; fill-opacity: 0;}
	}
	#hat-three{ animation: hat-three-anim 1.5s  infinite;}
	@keyframes hat-three-anim{
	0%{ stroke-opacity: 0; fill-opacity: 0;}
	27%{ stroke-opacity: 0; fill-opacity: 0;}
	28%{ stroke-opacity: 1; fill-opacity: 1;}
	41%{ stroke-opacity: 1; fill-opacity: 1;}
	42%{ stroke-opacity: 0; fill-opacity: 0;}
	55%{ stroke-opacity: 0; fill-opacity: 0;}
	56%{ stroke-opacity: 1; fill-opacity: 1;}
	69%{ stroke-opacity: 1; fill-opacity: 1;}
	70%{ stroke-opacity: 0; fill-opacity: 0;}
	100%{ stroke-opacity: 0; fill-opacity: 0;}
	}
	#hat-four{ animation: hat-four-anim 1.5s  infinite;}
	@keyframes hat-four-anim{
	0%{ stroke-opacity: 0; fill-opacity: 0;}
	41%{ stroke-opacity: 0; fill-opacity: 0;}
	42%{ stroke-opacity: 1; fill-opacity: 1;}
	55%{ stroke-opacity: 1; fill-opacity: 1;}
	56%{ stroke-opacity: 0; fill-opacity: 0;}
	100%{ stroke-opacity: 0; fill-opacity: 0;}
	}
</style>
<g id="hat-one" transform="translate(-58.504 -310.33)"><path class="st0" d="m189.6 389.8s0.4 2.9 3.3 5.4 2.1 6.2 1.7 7.4-1.2 3.7 0 8.3 1.7 7.4 8.3 19.8 9.5 15.7 9.5 15.7 2.5 2.5 2.9 5.8 4.1 4.5 7.9 2.5 10.3-5.4 23.2-6.2c14.1-1.2 19.8 14.9 3.3 19s-27.3 9.9-38.5 10.3-18.6-1.7-64.1 14.1c-59.1 14.9-81.9 0-81.9 0s-19-9.1 9.5-20.3c11.6-2.5 24.4 1.2 24.4 1.2s18.6 5.4 14.9-11.6 2.9-20.3 2.9-20.3 3.3-1.7 4.1-9.5c0.8-7.9 2.9-10.8 2.9-10.8s2.5-4.5-0.4-13.2 12.5-32 12.5-32l2.3-7.2s1.7-2.1-3.7-4.5c-4.2-2-4.2-5.6-3.5-6.8 3.1-6-2.3-5.2-2.3-5.2h-6.2c-42.2-0.4-6.6-14.1 3.7-16.5 10.3-2.5 7.4-2.1 9.9-5s15.3 0 15.3 0 8.7 2.9 12 3.7 5 5.8 5 5.8l3.3 11.6c1.6 11.2 17.8 38.5 17.8 38.5z" fill="#493716" stroke="#2f2507" stroke-miterlimit="10"/><path class="st1" d="m156.6 423.5s13.6-6.2 0-7.4c-6.2-1.2-7-5-7-5.8s-2.1-4.5-5-5.8c-2.9-1.2-5.8-1.7-1.7-4.5 4.1-2.9 0.8-4.1 0-4.5s-8.6-2.4 0.2-4.5c0.1 0 0.3-0.1 0.4-0.1 9.4-1 18 11.2 24.2 18.6s8.7 5 13.6 0.8 13.6-9.1 10.8-0.8c-2.5 6.2-5.8 7.4-5.8 7.4s-5 2.1-1.2 5c3.7 2.9 0.4 2.5-1.2 1.7s-5.8-3.3-5.8-3.3-3.3-5.4-12.4 0.4l-9.1 5.8s-9.5 3.7 0-3z" fill="#9c9264"/><path class="st2" d="m231.4 458.7s14.5-7 21.9-1.7c7.4 5.4-7 9.1-7 9.1s-13.6 2.5-16.1 4.1c-2.5 1.7-11.2 3.3-16.1 4.1-5 0.8-11.6 1.2-11.6 1.2s-7.9 0.8 0-3.3 28.9-13.5 28.9-13.5z" fill="#42270a"/><path class="st1" d="m124.8 454.5s2.5 2.5 7.4 0c5-2.5 30.2-19 45.5-19.4s17-0.8 19.4 2.9c2.5 3.7 3.7 5 3.7 5s3.7 2.9 3.3-0.4 1.7 0 1.7 0l3.3 4.5s2.5 4.1-2.5 1.7c-5-2.5-8.7-5-17.8-4.5-9.1 0.4-33.9 5-33.9 5s-12 2.5-16.1 5l-9.9 4.1s-2.9 2.9-5 0.4c-2-2.7-3.6-6.8 0.9-4.3z" fill="#9c9264"/><path class="st1" d="m152.4 347.5s3.3 9.1-9.5 18.6c-4.1 4.1 2.1-0.4 2.1-0.4s4.5-2.9 2.1 1.7c-2.5 4.5-1.7 3.7-1.7 3.7s1.2 0.4 4.1-4.5c2.9-5 4.1-1.2 4.1-1.2l2.1 4.1s1.7-5.8 3.3-7c1.7-1.2 2.5-1.2 2.5-1.2s0.4-0.8 0-1.2-0.8-2.1 1.2-6.6 2.1-3.3 2.9-6.2-1.2-2.1-1.7-0.8c-0.4 1.2-5 11.6-6.2 13.2s-3.3 2.9-3.3 0v-9.5s0.1-4.8-2-2.7z" fill="#9c9264"/></g>
<g id="hat-two" transform="translate(-58.504 -310.33)"><path class="st0" d="m183 351.5c0.7 1.3-2 2-3 7-1.2 5.8 0.5 11.8 0.5 11.8l9.1 19.4s0.4 2.9 3.3 5.4 2.1 6.2 1.7 7.4-1.2 3.7 0 8.3 1.7 7.4 8.3 19.8 9.5 15.7 9.5 15.7 2.5 2.5 2.9 5.8 4.1 4.5 7.9 2.5 10.3-5.4 23.2-6.2c14.1-1.2 19.8 14.9 3.3 19s-27.3 9.9-38.5 10.3-18.6-1.7-64.1 14.1c-59.1 14.9-81.9 0-81.9 0s-19-9.1 9.5-20.3c11.6-2.5 24.4 1.2 24.4 1.2s18.6 5.4 14.9-11.6 2.9-20.3 2.9-20.3 3.3-1.7 4.1-9.5c0.8-7.9 2.9-10.8 2.9-10.8s2.5-4.5-0.4-13.2-1.7-14.5 2.5-17.8c4.1-3.3 5.4-5.8 7.4-15.3 2.1-9.5 7-10.8 7-10.8s5 0.8 6.6-10.3l3.9-7.9s0-4 2-7c0-2 4-4 6-6 1-14 6-38 15-4 0 0 9 15.6 8 16-1 0.8-0.6 4.1 1.1 7.3z" fill="#493716" stroke="#2f2507" stroke-miterlimit="10"/><path class="st1" d="m152.4 351.9s7.9 5.5 20.4-4.4c5.1-2.9-0.9 1.9-0.9 1.9s-4 3.6 1.1 2.4c5-1.2 4-0.6 4-0.6s0.1 1.3-5.5 2.8c-5.5 1.5-2.3 3.7-2.3 3.7l3.5 3.1s-6 0.1-7.6 1.4-1.8 2.1-1.8 2.1-0.9 0.2-1.2-0.3-1.8-1.3-6.7-0.5-3.7 1.1-6.7 1.2c-3 0-1.7-1.7-0.4-1.8s12.5-1.8 14.4-2.6 3.7-2.4 0.9-3.2-9.2-2.5-9.2-2.5-4.6-1.3-2-2.7z" fill="#9c9264"/><path class="st1" d="m156.6 423.2s13.6-6.2 0-7.4c-6.2-1.2-7-5-7-5.8s-2.1-4.5-5-5.8c-2.9-1.2-5.8-1.7-1.7-4.5 4.1-2.9 0.8-4.1 0-4.5s-8.6-2.4 0.2-4.5c0.1 0 0.3-0.1 0.4-0.1 9.4-1 18 11.2 24.2 18.6s8.7 5 13.6 0.8 13.6-9.1 10.8-0.8c-2.5 6.2-5.8 7.4-5.8 7.4s-5 2.1-1.2 5c3.7 2.9 0.4 2.5-1.2 1.7s-5.8-3.3-5.8-3.3-3.3-5.4-12.4 0.4l-9.1 5.8s-9.5 3.7 0-3z" fill="#9c9264"/><path class="st1" d="m121.8 452.2s2.5 2.5 7.4 0c5-2.5 30.2-19 45.5-19.4s17-0.8 19.4 2.9 3.7 5 3.7 5 3.7 2.9 3.3-0.4 1.7 0 1.7 0l3.3 4.5s2.5 4.1-2.5 1.7c-5-2.5-7.1 2.2-16.2 2.6s-34 4-34 4-15.9 5.5-20 8l-7.5-5.1s-2.9 2.9-5 0.4c-2-2.6-3.6-6.7 0.9-4.2z" fill="#9c9264"/><path class="st2" d="m231.4 458.4s14.5-7 21.9-1.7c7.4 5.4-7 9.1-7 9.1s-13.6 2.5-16.1 4.1c-2.5 1.7-11.2 3.3-16.1 4.1-5 0.8-11.6 1.2-11.6 1.2s-7.9 0.8 0-3.3 28.9-13.5 28.9-13.5z" fill="#42270a"/></g>
<g id="hat-three" transform="translate(-58.504 -310.33)"><path class="st0" d="m187.8 358.9c0.7 1.3 0.7 4.9-3.5 6.8-5.4 2.5-3.7 4.5-3.7 4.5l9.1 19.4s0.4 2.9 3.3 5.4 2.1 6.2 1.7 7.4-1.2 3.7 0 8.3 1.7 7.4 8.3 19.8 9.5 15.7 9.5 15.7 2.5 2.5 2.9 5.8 4.1 4.5 7.9 2.5 10.3-5.4 23.2-6.2c14.1-1.2 19.8 14.9 3.3 19s-27.3 9.9-38.5 10.3-18.6-1.7-64.1 14.1c-59.1 14.9-81.9 0-81.9 0s-19-9.1 9.5-20.3c11.6-2.5 24.4 1.2 24.4 1.2s18.6 5.4 14.9-11.6 2.9-20.3 2.9-20.3 3.3-1.7 4.1-9.5c0.8-7.9 2.9-10.8 2.9-10.8s2.5-4.5-0.4-13.2-1.7-14.5 2.5-17.8c4.1-3.3 5.4-5.8 7.4-15.3 2.1-9.5 7-10.8 7-10.8s5 0.8 6.6-10.3l3.3-11.6s1.7-5 5-5.8 12-3.7 12-3.7 12.8-2.9 15.3 0 0.4-3.8 8.4-5.8c10.3 2.5 54-20 17 13l-17.9 14.3c-0.1 0.4-5.6-0.5-2.4 5.5z" fill="#493716" stroke="#2f2507" stroke-miterlimit="10"/><path class="st1" d="m169.4 342.2s-1.2 9.6 13.5 16c5 3.1-2.1 0.1-2.1 0.1s-5.1-1.8-1.6 2.1c3.4 3.9 2.4 3.3 2.4 3.3s-1.1 0.7-5.1-3.5c-3.9-4.2-4.3-0.3-4.3-0.3l-1.1 4.5s-2.9-5.3-4.8-6.1-2.7-0.7-2.7-0.7-0.6-0.7-0.3-1.2 0.3-2.2-2.7-6.2-2.8-2.8-4.2-5.4c-1.5-2.6 0.7-2.3 1.4-1.2s7.4 10.2 9 11.5 3.9 2.1 3.2-0.7-2.1-9.3-2.1-9.3-0.9-4.4 1.5-2.9z" fill="#9c9264"/><path class="st1" d="m156.6 423.2s13.6-6.2 0-7.4c-6.2-1.2-7-5-7-5.8s-2.1-4.5-5-5.8c-2.9-1.2-5.8-1.7-1.7-4.5 4.1-2.9 0.8-4.1 0-4.5s-8.6-2.4 0.2-4.5c0.1 0 0.3-0.1 0.4-0.1 9.4-1 17.8 9.1 23.9 16.4 6.2 7.4 9 4.1 14 0s13.5-6.1 10.6 2.2c-2.5 6.2-5.8 7.4-5.8 7.4s-5 2.1-1.2 5c3.7 2.9 0.4 2.5-1.2 1.7s-5.8-3.3-5.8-3.3-3.3-5.4-12.4 0.4l-9.1 5.8s-9.4 3.7 0.1-3z" fill="#9c9264"/><path class="st1" d="m121.8 452.2s2.5 2.5 7.4 0c5-2.5 30.2-19 45.5-19.4s17-0.8 19.4 2.9 3.7 5 3.7 5 3.7 2.9 3.3-0.4 1.7 0 1.7 0l3.3 4.5s2.5 4.1-2.5 1.7c-5-2.5-8.1 2.2-17.2 2.6s-33 1-33 1-13.5-0.7-17.6 1.8l-9.9 4.1s-2.9 2.9-5 0.4c-2-2.6-3.6-6.7 0.9-4.2z" fill="#9c9264"/><path class="st2" d="m231.4 458.4s14.5-7 21.9-1.7c7.4 5.4-7 9.1-7 9.1s-13.6 2.5-16.1 4.1c-2.5 1.7-11.2 3.3-16.1 4.1-5 0.8-11.6 1.2-11.6 1.2s-7.9 0.8 0-3.3 28.9-13.5 28.9-13.5z" fill="#42270a"/></g>
<g id="hat-four" transform="translate(-58.504 -310.33)"><path class="st0" d="m187.8 358.9c0.7 1.3 0.7 4.9-3.5 6.8-5.4 2.5-3.7 4.5-3.7 4.5l9.1 19.4s0.4 2.9 3.3 5.4 2.1 6.2 1.7 7.4-1.2 3.7 0 8.3 1.7 7.4 8.3 19.8 9.5 15.7 9.5 15.7 2.5 2.5 2.9 5.8 4.1 4.5 7.9 2.5 10.3-5.4 23.2-6.2c14.1-1.2 19.8 14.9 3.3 19s-27.3 9.9-38.5 10.3-18.6-1.7-64.1 14.1c-59.1 14.9-81.9 0-81.9 0s-19-9.1 9.5-20.3c11.6-2.5 24.4 1.2 24.4 1.2s18.6 5.4 14.9-11.6 2.9-20.3 2.9-20.3 3.3-1.7 4.1-9.5c0.8-7.9 2.9-10.8 2.9-10.8s2.5-4.5-0.4-13.2-1.7-14.5 2.5-17.8c4.1-3.3 5.4-5.8 7.4-15.3 2.1-9.5 7-10.8 7-10.8s5 0.8 6.6-10.3l3.3-11.6s1.7-5 5-5.8 12-3.7 12-3.7 12.8-2.9 15.3 0-0.4 2.5 9.9 5 45.9 16.1 3.7 16.5h-6.2c0 0.4-5.5-0.5-2.3 5.5z" fill="#493716" stroke="#2f2507" stroke-miterlimit="10"/><path class="st1" d="m171.9 342.2s-3.3 9.1 9.5 18.6c4.1 4.1-2.1-0.4-2.1-0.4s-4.5-2.9-2.1 1.7c2.5 4.5 1.7 3.7 1.7 3.7s-1.2 0.4-4.1-4.5c-2.9-5-4.1-1.2-4.1-1.2l-2.1 4.1s-1.7-5.8-3.3-7c-1.7-1.2-2.5-1.2-2.5-1.2s-0.4-0.8 0-1.2 0.8-2.1-1.2-6.6-2.1-3.3-2.9-6.2 1.2-2.1 1.7-0.8c0.4 1.2 5 11.6 6.2 13.2 1.2 1.7 3.3 2.9 3.3 0v-9.5s-0.1-4.8 2-2.7z" fill="#9c9264"/><path class="st1" d="m156.6 423.2s13.6-6.2 0-7.4c-6.2-1.2-7-5-7-5.8s-2.1-4.5-5-5.8c-2.9-1.2-5.8-1.7-1.7-4.5 4.1-2.9 0.8-4.1 0-4.5s-8.6-2.4 0.2-4.5c0.1 0 0.3-0.1 0.4-0.1 9.4-1 18 11.2 24.2 18.6s8.7 5 13.6 0.8 13.6-9.1 10.8-0.8c-2.5 6.2-5.8 7.4-5.8 7.4s-5 2.1-1.2 5c3.7 2.9 0.4 2.5-1.2 1.7s-5.8-3.3-5.8-3.3-3.3-5.4-12.4 0.4l-9.1 5.8s-9.5 3.7 0-3z" fill="#9c9264"/><path class="st1" d="m121.8 452.2s2.5 2.5 7.4 0c5-2.5 30.2-19 45.5-19.4s17-0.8 19.4 2.9 3.7 5 3.7 5 3.7 2.9 3.3-0.4 1.7 0 1.7 0l3.3 4.5s2.5 4.1-2.5 1.7c-5-2.5-8.7-5-17.8-4.5-9.1 0.4-33.9 5-33.9 5s-12 2.5-16.1 5l-9.9 4.1s-2.9 2.9-5 0.4c-2-2.7-3.6-6.8 0.9-4.3z" fill="#9c9264"/><path class="st2" d="m231.4 458.4s14.5-7 21.9-1.7c7.4 5.4-7 9.1-7 9.1s-13.6 2.5-16.1 4.1c-2.5 1.7-11.2 3.3-16.1 4.1-5 0.8-11.6 1.2-11.6 1.2s-7.9 0.8 0-3.3 28.9-13.5 28.9-13.5z" fill="#42270a"/></g></svg>
