<?xml version="1.0" encoding="UTF-8" standalone="no"?>
<!-- Created with Inkscape (http://www.inkscape.org/) -->

<svg
   xmlns:dc="http://purl.org/dc/elements/1.1/"
   xmlns:cc="http://creativecommons.org/ns#"
   xmlns:rdf="http://www.w3.org/1999/02/22-rdf-syntax-ns#"
   xmlns:svg="http://www.w3.org/2000/svg"
   xmlns="http://www.w3.org/2000/svg"
   xmlns:sodipodi="http://sodipodi.sourceforge.net/DTD/sodipodi-0.dtd"
   xmlns:inkscape="http://www.inkscape.org/namespaces/inkscape"
   width="179.14066mm"
   height="264.86557mm"
   viewBox="0 0 634.75035 938.50005"
   id="svg6972"
   version="1.1"
   inkscape:version="0.91 r13725"
   sodipodi:docname="house_r.svg">
  <defs
     id="defs6974" />
  <sodipodi:namedview
     id="base"
     pagecolor="#ffffff"
     bordercolor="#000000"
     borderopacity="0"
     inkscape:pageopacity="0.0"
     inkscape:pageshadow="2"
     inkscape:zoom="0.85722656"
     inkscape:cx="261.33393"
     inkscape:cy="765.27187"
     inkscape:document-units="px"
     inkscape:current-layer="layer1"
     showgrid="false"
     fit-margin-top="0"
     fit-margin-left="0"
     fit-margin-right="0"
     fit-margin-bottom="0"
     inkscape:window-width="1301"
     inkscape:window-height="744"
     inkscape:window-x="65"
     inkscape:window-y="24"
     inkscape:window-maximized="1" />
  <metadata
     id="metadata6977">
    <rdf:RDF>
      <cc:Work
         rdf:about="">
        <dc:format>image/svg+xml</dc:format>
        <dc:type
           rdf:resource="http://purl.org/dc/dcmitype/StillImage" />
        <dc:title></dc:title>
      </cc:Work>
    </rdf:RDF>
  </metadata>
  <g
     inkscape:label="Layer 1"
     inkscape:groupmode="layer"
     id="layer1"
     transform="translate(179.72194,14.162801)">
    <path
       style="opacity:1;fill:#47589c;fill-opacity:1;fill-rule:evenodd;stroke:#47589c;stroke-width:1px;stroke-linecap:butt;stroke-linejoin:miter;stroke-opacity:1"
       d="m -179.22161,-13.662801 633.75,0 0,937.500001 -633.125,0 z"
       id="path6646-6-1"
       inkscape:connector-curvature="0" />
    <path
       inkscape:connector-curvature="0"
       id="path4748-2"
       style="opacity:0.81999966;fill:#ce7d28;fill-opacity:1;stroke:#a1714f;stroke-opacity:1"
       d="m 59.051789,427.0376 c 3.3594,-4.4687 12.0754,-14.0312 19.3688,-21.25 14.541,-14.392 18.0827,-17.5 19.9419,-17.5 0.6797,0 1.2358,-0.4943 1.2358,-1.0984 0,-0.6041 1.687501,-1.7972 3.750001,-2.6516 2.0625,-0.8544 3.75,-1.9526 3.75,-2.4406 0,-1.5694 15.0244,-7.6488 22.1656,-8.9689 3.8054,-0.7035 9.7968,-0.9131 13.3142,-0.4657 6.9566,0.8846 20.7702,5.6607 20.7702,7.1813 0,0.5191 0.6017,0.9439 1.3372,0.9439 3.6576,0 23.4676,15.7366 33.6409,26.7235 3.1058,3.3541 7.4271,7.9281 9.6029,10.1644 2.1758,2.2362 6.5352,7.5694 9.6875,11.8515 7.9357,10.7798 7.1732,8.0247 -1.456,-5.2613 -15.1887,-23.3852 -40.0125,-50.3562 -44.0504,-47.8606 -0.6855,0.4236 -0.9267,-0.038 -0.5429,-1.0374 0.4474,-1.1657 -0.6585,-2.397 -3.1393,-3.4951 -2.1065,-0.9324 -3.8299,-2.1205 -3.8299,-2.6401 0,-0.5198 -0.8116,-0.9449 -1.8036,-0.9449 -0.9919,0 -3.6638,-1.0438 -5.9375,-2.3194 -7.5059,-4.2111 -17.3553,-5.7265 -26.2367,-4.0366 -7.8278,1.4894 -24.7714,8.6155 -24.7719,10.4185 -2e-4,0.5156 -0.5778,0.9375 -1.2837,0.9375 -2.3934,0 -19.397601,16.156 -28.943601,27.5 -5.7676,6.8539 -16.5899,22.3846 -22.2114,31.875 -3.7399,6.3137 -2.1161,4.6947 5.6419,-5.625 z m 290.499701,16.1163 c 3.495,-4.8248 7.7403,-12.995 13.6024,-26.1785 3.4595,-7.7804 7.4882,-23.6054 8.4842,-33.3269 1.3251,-12.9339 -2.4703,-30.2731 -9.3231,-42.5924 -3.3407,-6.0055 -2.6227,-6.168 -12.6185,2.8565 -10.0336,9.0587 -17.4601,17.4144 -20.6365,23.2186 -6.3941,11.684 -8.8923,30.028 -5.2644,38.6561 l 1.6973,4.0368 0.8648,-7.6433 c 0.4756,-4.2037 1.3012,-7.6432 1.8347,-7.6432 0.5336,0 2.2912,1.4062 3.9059,3.125 3.4634,3.6866 8.7383,4.091 11.6335,0.8917 7.5918,-8.3888 7.8775,-25.8985 0.5501,-33.7205 -2.7914,-2.9797 -3.9451,-7.9013 -1.6532,-7.0525 0.7395,0.2739 4.1571,-2.0162 7.5946,-5.0891 3.4375,-3.0728 6.5938,-5.6022 7.014,-5.6208 1.8709,-0.083 6.4637,15.1778 7.048,23.4187 0.789,11.1269 -1.9045,23.4654 -7.857,35.9929 -4.0311,8.4836 -4.4918,8.9546 -12.0649,12.3336 -6.5313,2.914 -9.0474,3.405 -14.757,2.8794 -7.8098,-0.7189 -19.0622,-5.4458 -27.8469,-11.6977 l -5.9638,-4.2443 3.354,5.3293 c 10.2132,16.228 23.0029,30.315 31.3683,34.5498 2.5879,1.3101 7.0924,2.4434 10.0099,2.5182 4.8385,0.1238 5.6315,-0.3148 9.0236,-4.9975 z m -407.854501,3.6326 c 2.2832,-0.8256 4.1513,-1.9507 4.1513,-2.5 0,-0.5494 0.7193,-0.9989 1.5986,-0.9989 2.6293,0 16.2996,-14.8895 23.9207,-26.054 3.9154,-5.736 6.3847,-9.9942 5.4873,-9.463 -0.8974,0.5312 -3.8816,2.392 -6.6316,4.1349 -9.2157,5.8407 -17.3827,9.0236 -24.9701,9.7312 -6.4013,0.597 -8.6541,0.2003 -15.0299,-2.6466 -7.0559,-3.1505 -7.7375,-3.8441 -11.510597,-11.7131 -9.4048,-19.6143 -10.7837,-39.0053 -3.9157,-55.0653 l 2.331,-5.4508 5.922597,4.8239 c 3.2575,2.6532 7.1708,5.8954 8.6962,7.2049 l 2.7735,2.381 -3.7327,3.8179 c -6.9319,7.0901 -7.7282,18.4961 -2.0738,29.7041 3.4839,6.906 7.7495,7.8294 14.0318,3.0377 l 4.2453,-3.2382 1.591,7.703 c 1.2775,6.1853 1.7562,7.1134 2.4291,4.7103 1.507,-5.3819 1.0963,-21.5973 -0.7198,-28.4206 -3.2226,-12.1073 -12.4584,-24.6656 -26.3446,-35.8223 -3.4229,-2.75 -6.410797,-5.4219 -6.639997,-5.9375 -1.032,-2.3221 -2.794,-0.3726 -6.2136,6.875 -11.848902,25.1124 -10.0092,52.7666 5.592,84.0625 5.831997,11.6991 9.780597,18.2059 11.839597,19.5104 2.4238,1.5357 8.3362,1.3622 13.1724,-0.3865 z M 143.33129,682.3501 c 2.2718,-4.6406 4.1893,-9.9291 4.2612,-11.7521 0.072,-1.823 0.4333,-3.1293 0.803,-2.9026 0.7138,0.4373 1.4398,-1.1729 6.7777,-15.0328 3.1537,-8.1885 6.4446,-14.2154 14.3046,-26.1974 9.1143,-13.8941 24.9427,-28.8712 48.8932,-46.2638 11.3312,-8.2287 20.8835,-15.3009 21.2273,-15.7162 0.3437,-0.4152 1.75,-1.2013 3.125,-1.7468 1.7673,-0.7012 2.0059,-1.1749 0.8142,-1.6166 -0.9272,-0.3436 -3.1772,0.079 -5,0.9378 -4.577,2.1579 -7.6777,3.4482 -12.0642,5.0207 -4.2276,1.5155 -20.3748,10.9424 -22.9018,13.3703 -0.9085,0.8729 -2.0335,1.596 -2.5,1.607 -0.4665,0.013 -2.817,1.7665 -5.2232,3.9011 -2.4063,2.1348 -6.3438,5.3583 -8.75,7.1635 -2.4063,1.8053 -5.8663,4.831 -7.6891,6.7239 -1.8227,1.8929 -3.7278,3.4415 -4.2336,3.4415 -1.989,0 0.5279,-16.1023 3.8101,-24.375 5.7459,-14.4825 14.7683,-26.1544 31.9469,-41.3281 5.8063,-5.1286 22.5262,-16.3949 31.7907,-21.4211 4.125,-2.2379 7.2187,-4.1218 6.875,-4.1864 -0.3438,-0.065 -7.9547,-0.5654 -16.9132,-1.113 -12.5555,-0.7675 -17.4252,-1.5821 -21.25,-3.5551 -10.4839,-5.4079 -17.3534,-16.218 -20.5592,-32.3525 -0.797,-4.0117 -1.9731,-9.3278 -2.6134,-11.8138 -0.6403,-2.486 -1.1642,-6.077 -1.1642,-7.98 0,-1.903 -0.5294,-5.494 -1.1765,-7.98 -0.647,-2.486 -1.7889,-11.27 -2.5374,-19.52 -1.9529,-21.5242 -3.0342,-25.2967 -8.8311,-30.8112 -2.7055,-2.5737 -7.0365,-5.6647 -9.6246,-6.8689 -2.588,-1.2044 -4.9867,-2.557 -5.3304,-3.006 -2.2415,-2.9276 -27.5957,-4.6203 -36.1787,-2.4154 -8.0552,2.0694 -16.1094,6.205 -20.9335,10.7491 -2.2758,2.1436 -4.160301,3.5499 -4.187701,3.125 -0.027,-0.425 -1.0821,1.2928 -2.3439,3.8171 -1.2617,2.5245 -2.6571,8.4308 -3.1007,13.125 -3.0707,32.4916 -8.2153,62.6717 -12.2154,71.6603 -5.6204,12.6297 -8.2501,15.6137 -18.0967,20.5354 -5.6557,2.8269 -7.9929,3.2166 -19.375,3.2317 -7.1189,0.013 -14.1952,0.3525 -15.725,0.7626 -2.4151,0.6474 -1.9209,1.1697 3.75,3.9625 3.5923,1.7693 6.8128,3.5363 7.1566,3.9268 0.3437,0.3905 2.059,1.4469 3.8118,2.3475 11.4145,5.8655 37.1667,28.9697 44.556,39.9746 5.9016,8.7894 10.3557,17.6598 10.3707,20.6535 0.01,1.2484 0.5244,3.2281 1.1513,4.3995 0.6269,1.1714 1.4549,5.6709 1.840001,9.9989 l 0.7001,7.869 -9.027501,-7.9381 c -15.0944,-13.273 -37.1422,-28.4739 -41.2995,-28.4739 -0.8816,0 -2.1373,-0.497 -2.7904,-1.1044 -1.8469,-1.7177 -16.9098,-6.715 -17.7396,-5.8852 -0.4068,0.4067 -0.1236,0.7396 0.6294,0.7396 0.753,0 2.1124,0.7237 3.0209,1.6084 0.9085,0.8846 5.308,4.119 9.7768,7.1875 4.4687,3.0685 8.4062,5.8975 8.75,6.2866 0.3437,0.3891 3.4375,2.6046 6.875,4.9234 15.0997,10.1855 28.1205,21.7467 38.0042,33.7441 1.4159,1.7188 3.156301,3.8139 3.867401,4.656 0.7111,0.842 3.798,5.1144 6.8598,9.4943 6.0733,8.6879 8.5112,13.8034 15.6095,32.7543 4.7181,12.5962 10.5251,25.6698 12.1026,27.2473 2.1219,2.1219 4.0791,0.245 7.9145,-7.5894 z" />
    <path
       inkscape:connector-curvature="0"
       id="path4720-7"
       style="opacity:0.81999966;fill:#ce7d28;fill-opacity:1;stroke:#a1714f;stroke-opacity:1"
       d="m 198.01799,170.2707 c 2.1158,-2.2432 2.1038,-2.2989 -0.2947,-1.3728 -11.627,4.489 -22.5413,2.607 -29.2604,-5.0457 -5.7629,-6.5636 -7.2304,-12.9371 -4.5778,-19.8827 2.5803,-6.7564 6.8949,-10.0738 14.3544,-11.0366 8.0576,-1.0401 14.4209,1.8495 16.8247,7.6401 l 1.9052,4.5896 0.064,-7.0853 c 0.035,-3.8969 0.4059,-7.975 0.8232,-9.0625 0.4173,-1.0874 0.136,-1.9772 -0.625,-1.9772 -0.7611,0 -1.3838,0.9886 -1.3838,2.1968 0,1.9512 -1.1223,2.1458 -10.0419,1.7407 -18.0125,-0.818 -27.7982,6.0702 -29.13,20.5047 -0.7358,7.9748 1.9699,13.7498 8.5469,18.2422 5.4737,3.7388 10.7004,4.5502 22.7948,3.5387 5.3666,-0.4488 8.4817,-1.3802 10,-2.99 z m 105.2453,-13.02 c 2.7967,-7.0198 5.085,-13.7083 5.085,-14.8632 0,-1.6233 0.3375,-1.7623 1.4873,-0.6125 0.818,0.818 1.592,2.1961 1.72,3.0625 0.1279,0.8663 1.3608,4.1064 2.7397,7.2001 1.3788,3.0938 3.2105,7.5938 4.0704,10 0.8598,2.4063 2.4326,6.4655 3.4951,9.0207 l 1.9316,4.6456 4.1275,-10.8956 c 2.2702,-5.9927 4.139,-11.7863 4.153,-12.8749 0.014,-1.0885 0.4416,-2.3954 0.9504,-2.9042 0.5088,-0.5088 1.8243,-3.8369 2.9234,-7.3958 1.2887,-4.1732 2.9575,-6.9089 4.6999,-7.7047 4.4711,-2.0421 3.102,-2.7998 -4.7956,-2.6543 -4.1234,0.076 -7.4984,0.5601 -7.5,1.0757 -0.001,0.5156 1.1717,0.9375 2.6071,0.9375 2.3492,0 2.5261,0.4958 1.7711,4.9647 -0.4613,2.7306 -1.9127,8.4963 -3.2253,12.8125 -1.3126,4.3163 -2.3908,8.799 -2.3961,9.9615 0,1.1626 -0.4646,2.395 -1.0207,2.7387 -0.8423,0.5206 -2.9515,-4.6913 -11.1553,-27.5654 -0.2886,-0.8047 0.7839,-1.7125 2.3834,-2.0173 1.5994,-0.3048 -0.7482,-0.5656 -5.2169,-0.5795 -4.4688,-0.014 -7.1065,0.2386 -5.8616,0.5611 1.8283,0.4736 2.101,1.347 1.4182,4.5425 -0.4649,2.1759 -1.2255,4.5187 -1.6903,5.2062 -0.4647,0.6875 -1.6107,3.4965 -2.5467,6.2421 -0.936,2.7457 -2.5309,6.9645 -3.5442,9.375 -1.7797,4.2336 -1.8791,4.2848 -2.9191,1.5017 -1.111,-2.9731 -7.3563,-25.9916 -7.3563,-27.1132 0,-0.3468 1.125,-0.6306 2.5,-0.6306 1.375,0 2.4997,-0.4219 2.4994,-0.9375 -4e-4,-0.5156 -3.9379,-0.9751 -8.75,-1.021 -4.8122,-0.046 -8.7494,0.376 -8.7494,0.9375 0,0.5616 1.0496,1.021 2.3325,1.021 2.4402,0 5.4661,6.8703 9.3592,21.25 1.0237,3.7813 2.8441,10.1669 4.0453,14.1904 2.1029,7.0436 2.2428,7.2034 3.7636,4.3007 0.8688,-1.658 3.8677,-8.7581 6.6644,-15.778 z m -159.261,11.9767 c 0.1348,-30.4254 0.5246,-34.9052 3.096,-35.5776 4.6876,-1.2259 2.5101,-2.2371 -4.9082,-2.2794 -4.0729,-0.023 -7.1329,0.3986 -6.7998,0.9375 0.333,0.5388 1.6317,0.9797 2.8859,0.9797 1.3083,0 2.6018,1.199 3.0342,2.8125 0.981,3.6605 1.015,27.1875 0.039,27.1875 -0.6741,0 -6.5998,-6.2196 -8.9431,-9.3866 -0.5134,-0.6939 -2.6209,-3.2846 -4.6834,-5.7572 -2.0625,-2.4726 -5.9889,-7.3892 -8.7254,-10.9259 -4.6111,-5.9595 -5.366,-6.4303 -10.3125,-6.4303 -2.9354,0 -5.3371,0.5625 -5.3371,1.25 0,0.6875 0.8774,1.25 1.9497,1.25 1.6864,0 1.9149,2.3807 1.6917,17.6221 -0.2336,15.9456 -0.5009,17.8484 -2.8105,20 -2.5277,2.355 -2.4748,2.3774 5.4959,2.329 8.0312,-0.049 8.0396,-0.053 3.9857,-1.8147 l -4.0625,-1.7657 0,-16.5604 c 0,-9.1082 0.4528,-16.0259 1.0061,-15.3728 4.6371,5.4728 17.6839,20.5391 19.9619,23.0517 1.5636,1.7247 4.9386,5.7851 7.5,9.0232 2.5613,3.238 4.9382,5.9109 5.282,5.9398 0.3437,0.029 0.6381,-2.9018 0.6541,-6.5124 z m -199.291701,-26.3945 0.2526,-9.5453 4.2494,0 c 4.5897,0 10.3857,4.5372 10.3857,8.1303 0,3.1583 -3.6467,9.3697 -5.5009,9.3697 -0.9277,0 -3.476,0.3579 -5.6631,0.7953 l -3.9764,0.7953 0.2527,-9.5453 z m 35.3043,30.3755 c 5.2721,-0.065 5.9258,-0.2928 3.559,-1.2419 -1.944,-0.7795 -2.6948,-1.886 -2.2788,-3.3582 0.3413,-1.2076 0.9989,-4.6255 1.4614,-7.5952 0.806,-5.1754 1.8122,-6.3254 6.083,-6.9523 3.0616,-0.4493 3.4047,-1.4802 0.5638,-1.6942 -1.4232,-0.1072 -2.8113,-0.4186 -3.0847,-0.692 -0.4698,-0.4698 1.1828,-5.605 4.5091,-14.012 l 1.4838,-3.75 2.2292,5.8232 c 4.0667,10.6234 4.2143,12.3018 1.0814,12.3018 -3.1733,0 -1.7301,2.0096 1.9327,2.6912 1.62209997,0.3018 3.04269997,2.7157 4.669,7.9338 2.9592,9.4943 3.0007,9.1141 -1.063,9.7297 -1.89070003,0.2864 1.3437,0.5284 7.1875,0.5378 5.8437,0.01 9.3081,-0.2334 7.6986,-0.5396 -3.3711,-0.6412 -6.3549,-6.6544 -12.8941,-25.9851 C 0.12538897,137.456 -0.58331103,133.9731 0.54648897,133.5965 4.288089,132.3493 1.466789,131.4042 -6.308111,131.3003 c -6.148,-0.082 -7.7054,0.2 -5.7989,1.0507 2.5826,1.1524 2.5668,1.2681 -1.7234,12.6123 -9.6739,25.5797 -13.5433,31.2249 -16.6299,24.2618 -0.6857,-1.5469 -3.6561,-6.1001 -6.6009,-10.1182 l -5.3541,-7.3057 4.1318,-4.1318 c 2.9274,-2.9274 4.1318,-5.2799 4.1318,-8.0706 0,-3.3566 -0.6928,-4.2393 -4.6875,-5.9722 -5.3645,-2.3271 -29.0625,-3.6075 -29.0625,-1.5702 0,0.6772 1.4062,1.2312 3.125,1.2312 l 3.125,0 0,19.292 0,19.292 -3.4375,0.5207 c -1.8907,0.2864 1.3437,0.5385 7.1875,0.5601 6.0057,0.022 9.0085,-0.3068 6.9068,-0.7569 -3.6528,-0.7824 -3.7261,-0.9554 -4.173,-9.8521 -0.4333,-8.6249 -0.3245,-9.0558 2.2847,-9.0558 1.8024,0 6.6185,3.946 14.0782,11.5346 6.2573,6.3655 11.5678,10.8469 11.8501,10 0.3113,-0.934 3.0391,-1.5656 6.9698,-1.6138 z m 114.5644,-7.7333 c 0.01,-0.5156 -0.5435,-0.9375 -1.231,-0.9375 -0.6875,0 -1.25,1.1143 -1.25,2.4762 0,2.6023 -1.9653,3.4068 -10.3125,4.2216 l -4.6875,0.4576 0,-9.8277 0,-9.8277 4.0625,0.019 c 4.5533,0.022 6.4774,0.9753 7.5263,3.7309 0.4676,1.2283 0.7478,0.8766 0.8125,-1.0197 0.054,-1.5921 0.6809,-3.9827 1.3926,-5.3125 0.78,-1.4574 0.8214,-2.4178 0.1042,-2.4178 -0.6544,0 -1.3954,0.6166 -1.6466,1.3703 -0.2512,0.7536 -3.1106,1.5499 -6.3542,1.7695 l -5.8974,0.3992 0,-8.6445 0,-8.6445 4.0625,0.017 c 6.4677,0.027 9.5077,1.2867 10.072,4.1729 0.3602,1.8417 0.5785,1.4412 0.6953,-1.2752 0.094,-2.1782 0.5045,-4.9907 0.9131,-6.25 0.5441,-1.6768 0.4242,-1.8449 -0.4475,-0.6281 -0.8994,1.2553 -6.3997,1.7137 -22.498,1.875 -11.7191,0.1173 -21.047,0.6352 -20.7287,1.1508 0.3184,0.5157 1.6218,0.9375 2.8965,0.9375 2.0537,0 2.1665,0.4627 0.9904,4.0625 -0.73,2.2344 -3.8251,9.4009 -6.8779,15.9257 l -5.5507,11.8631 -1.6028,-3.7381 c -3.4595,-8.0684 -9.5267,-21.3492 -10.6939,-23.4087 -1.8684,-3.2963 -1.4883,-4.7044 1.2698,-4.7044 1.375,0 2.5,-0.4467 2.5,-0.9927 0,-0.5459 -3.9672,-0.9926 -8.816,-0.9926 -8.1854,0 -8.6387,0.1381 -6.3369,1.9301 2.1744,1.693 7.2323,11.6546 17.6402,34.7427 1.6271,3.6094 3.2799,6.5447 3.673,6.5229 0.3931,-0.022 4.6522,-8.2804 9.4647,-18.3523 7.8325,-16.3925 12.776,-24.1413 15.3693,-24.091 0.4843,0.01 2.1463,0.3562 3.6932,0.7708 2.7614,0.74 2.8125,1.1012 2.8125,19.8999 l 0,19.1462 -3.4375,0.5207 c -1.8907,0.2864 2.8906,0.605 10.625,0.708 12.4531,0.1659 14.072,0.4377 14.1461,2.3748 0.075,1.9565 3.6011,-7.7115 3.6474,-10 z m 154.061401,-15 c 0.3079,-0.8594 1.6074,-4.5244 2.8877,-8.1445 1.2802,-3.6201 2.8747,-6.3997 3.5431,-6.1769 0.6684,0.2228 2.1974,3.8878 3.3978,8.1445 l 2.1824,7.7394 -6.2855,0 c -4.4936,0 -6.1258,-0.4454 -5.7255,-1.5625 z m -7.4442,22.6423 c 4.2772,-0.094 6.4692,-0.4195 4.8711,-0.7242 -2.6556,-0.5062 -2.835,-1.0024 -2.0845,-5.7672 1.5613,-9.9131 2.962,-11.746 9.6545,-12.6338 3.3234,-0.4409 6.539,-0.4947 7.1459,-0.1196 0.9118,0.5635 6.3148,15.4528 6.3148,17.4019 0,0.3241 -1.2657,0.833 -2.8125,1.1309 -1.5469,0.298 1.2656,0.6183 6.25,0.712 5.6521,0.1061 9.0625,-0.328 9.0625,-1.1536 0,-0.7281 -0.4488,-1.0464 -0.9972,-0.7075 -2.0879,1.2904 -3.8854,-1.4559 -8.2221,-12.5618 -8.8381,-22.634 -9.5372,-25.4069 -6.4057,-25.4069 1.0312,0 1.875,-0.4219 1.875,-0.9375 0,-0.5156 -3.9479,-0.9375 -8.773,-0.9375 -6.7357,0 -8.3322,0.3223 -6.875,1.3878 1.0439,0.7633 1.901,1.8883 1.9047,2.5 0.01,1.1717 -6.4473,18.0935 -9.6933,25.4135 -1.0491,2.3658 -2.2897,5.7408 -2.7571,7.5 -0.533,2.0067 -1.884,3.3499 -3.6252,3.6043 -2.4511,0.3582 -2.6848,-0.01 -1.9989,-3.125 0.4271,-1.9418 0.9932,-4.2337 1.2579,-5.0931 0.2648,-0.8594 0,-1.5625 -0.5939,-1.5625 -0.5914,0 -1.4241,1.39 -1.8505,3.0889 -0.9458,3.7682 -3.5646,5.2812 -10.122,5.8479 l -4.9987,0.432 -0.3451,-19.0594 -0.3451,-19.0594 3.7826,0 c 2.0804,0 3.7826,-0.4883 3.7826,-1.085 0,-0.5968 -4.5956,-1.0555 -10.2124,-1.0193 -7.6599,0.049 -9.5345,0.3683 -7.5,1.276 2.5751,1.1491 2.7203,2.0548 2.8686,17.8943 0.086,9.1762 0.2266,17.6629 0.3125,18.8592 0.105,1.4622 -1.073,2.4381 -3.5937,2.9771 -2.0625,0.4411 2.5781,0.8685 10.3125,0.9498 l 14.0625,0.1479 0.1127,4.0625 0.1128,4.0625 1.173,-4.0625 c 1.1535,-3.9951 1.302,-4.0653 8.9497,-4.2327 z" />
  </g>
</svg>
