<?xml version="1.0" encoding="utf-8"?>
<!-- Generator: Adobe Illustrator 21.0.0, SVG Export Plug-In . SVG Version: 6.00 Build 0)  -->
<svg version="1.1" id="Layer_1" xmlns="http://www.w3.org/2000/svg" xmlns:xlink="http://www.w3.org/1999/xlink" x="0px" y="0px"
	 viewBox="0 0 3600 5165" style="enable-background:new 0 0 3600 5165;" xml:space="preserve">
<style type="text/css">
	.st0{fill:#FDFEFF;}
	/* <![CDATA[ */
    #a{ animation: floata 2s ease-in-out infinite; }
	@keyframes floata{
	0%{transform: translatey(0px)}
	50%{transform: translatey(50px)}
	100%{transform: translatey(0px)}
	}
	#b{ animation: floatb 2s ease-in-out infinite; }
	@keyframes floatb{
	0%{transform: translatey(50px)}
	50%{transform: translatey(0px)}
	100%{transform: translatey(50px)}
	}
	/* ]]> */
</style>
<g>
	<path class="st0" id="a" d="M2111.1,3774.2l-21,215.7l-103.1,55.3l-73.5-76.3l1,204.2l-36.3-55.3l-3.8-7.6l5.7,249.1l-30.5-47.7l-21,229
		l-68.7-394.1l34.4,22.9l-36.3-236.7l47.7,21l-40.1-334.9h147v51.5l91.6-38.2L2111.1,3774.2z M1998.5,3961.3l-11.5-279.7l-74.4,31
		l1,239.2l65.8,34.3L1998.5,3961.3z"/>
	<path class="st0" id="b" d="M2388.8,4192.2c3.2,15.9-14.3,33.7-52.5,53.4c-31.8,16.6-57.9,26.1-78.3,28.6l-17.2-2.9
		c-64.3-49.6-98.3-81.4-102.1-95.4c-1.3-29.9,1.6-103.7,8.6-221.4c43.9-31.8,89.4-56,136.5-72.5l67.8,46.8l7.6,12.4
		c14,13.4,22.3,42,24.8,85.9C2385.3,4049.4,2386.9,4104.4,2388.8,4192.2z M2297.2,4215.1c0-166-6.1-264.3-18.1-294.9l-30.5,18.1
		c-10.8,8.3-17.8,16.9-21,25.8l4.8,251c4.4,12.7,13,21.9,25.8,27.7C2277.2,4237,2290.2,4227.8,2297.2,4215.1z"/>
	<path class="st0" id="a" d="M2588.3,3869.6h-53.4l-8.6,405.6c-1.3,2.5-1.9,5.1-1.9,7.6c0,11.5,15.3,30.2,45.8,56.3l-78.3-28.6
		c-30.5-11.5-46.8-25.1-48.7-41l4.8-403.7h-80.2c54.7-30.5,109.4-83.3,164.1-158.4l-1.9,121.2h49.6L2588.3,3869.6z"/>
	<path class="st0" id="b" d="M2781,3869.6h-53.4l-8.6,405.6c-1.3,2.5-1.9,5.1-1.9,7.6c0,11.5,15.3,30.2,45.8,56.3l-78.3-28.6
		c-30.5-11.5-46.8-25.1-48.7-41l4.8-403.7h-80.2c54.7-30.5,109.4-83.3,164.1-158.4l-1.9,121.2h49.6L2781,3869.6z"/>
	<path class="st0" id="a" d="M3037.7,4000.4l-23.9,49.6c-24.8-14.6-53.1-21.9-84.9-21.9c-19.1,0-30.9,2.5-35.3,7.6l6.7,156.5
		c5.1,10.8,15.9,20.7,32.4,29.6c12.7-16.5,21.3-37.2,25.8-62c0.6-2.5,2.2-18.8,4.8-48.7l42,53.4l-58.2,83l-48.7,1l-96.4-84
		c-5.1-24.2-7.6-51.8-7.6-83c0-44.5,4.4-91.3,13.4-140.3l106.9-84c7.6-2.5,14-2.2,19.1,1l77.3,50.6L3037.7,4000.4z M2969,4006.1
		l-48.7-109.7c-4.5-5.7-7.3-8.6-8.6-8.6c-2.5,0-5.1,2.2-7.6,6.7l-11.5,108.8C2928.3,4001.3,2953.7,4002.3,2969,4006.1z"/>
	<path class="st0" id="b" d="M3048.2,3812.4c32.4-22.3,69.3-49.9,110.7-83v85.9c33.1-28.6,54.7-42.9,64.9-42.9c3.2,0,5.4,1,6.7,2.9
		l44.9,78.3c5.1,5.7,7.6,11.5,7.6,17.2c0,6.4-3.2,10.5-9.5,12.4l-87.8,51.5v-3.8c13.4-12.7,21-24.5,22.9-35.3
		c-2.6-9.5-7-21.3-13.4-35.3c-8.3-17.8-14.6-26.1-19.1-24.8c-3.8,0.6-8.6,4.8-14.3,12.4c-2.5,94.8-1,188.3,4.8,280.6
		c1.3,20.4,11.1,32.8,29.6,37.2c-8.9,0-22.4,0-40.6,0c-18.1,0-31.7,0-40.6,0c-5.7,0-14.5,0-26.2,0c-11.8,0-20.5,0-26.2,0
		c16.5-7,26.4-12.7,29.6-17.2c2.5-2.5,3.8-8.9,3.8-19.1v-318.7L3048.2,3812.4z"/>
<g>
</g>	
	<path class="st0" id="a" d="M560.1,3238.3l-36.5,14.2c-9.5,4.7-13.5,11.2-12.2,19.3c0.7,27,22.9,47,66.6,59.8l-3.2-316.2
		c-2.8-23.6-15.9-40.5-39.1-50.7h189.5c-15.5,12.2-23.3,26.4-23.3,42.6l5.1,326.3c27.7-9.5,61-26,100-49.6v-284.7
		c0-16.9-1.3-28-3.9-33.4c-5.3-10.1-18.7-20.3-40.3-30.4l195.6-3c-25,21.6-38.5,40.2-40.5,55.7L922,3216
		c29.6-15.8,51.4-23.6,65.5-23.6s31.9,4.1,53.5,12.2c-23.7,18.3-35.3,41.7-34.6,70.2c-13.6-18.9-28.1-28.4-43.7-28.4
		c-10.9,0-24.4,4.7-40.7,14.2l7,366.2c0,17.6,15.2,32.5,45.5,44.6l-213.8-3c25.4-10.8,40.8-27.1,46.3-48.7v-286.1
		c-37.6,20.9-71,35.1-100,42.6v201.6c3.4,20.3,19.3,36.2,47.6,47.6l-232.1-3c37-11.5,55.5-31.7,55.5-60.8V3366
		c-65.4-15.5-97.4-52-96-109.4c23.6-12.8,43.9-19.3,60.8-19.3C548.2,3237.3,554,3237.7,560.1,3238.3z"/>
	<path class="st0" id="b" d="M1051.6,3181.6l-30.4-40.5c-10.8-14.2-16.2-29.4-16.2-45.6c0-6.1,1.7-11.1,5.1-15.2
		c6.8-8.8,39.9-30.7,99.3-65.9c22.3,16.2,46,34.1,71,53.7c35.8,28.4,52,51.3,48.6,68.9l-4.1,231l37.5,2l-74.2,82.1
		c-17.2,12.2-29.6,18.2-37.1,18.2c-6.8,0-9.3-4-7.2-12.2v-36.5l-64,40.5c-29.3,5.4-56.7-53.4-82-176.3c11.5-23,32.4-41.2,62.8-54.7
		l66.9-30.4c-23,25-34.1,44.6-33.5,58.8c-1.4,9.5-2,18.9-2,28.4c0,45.3,9.8,81.1,29.4,107.4c10.8,1.4,18.3-4.7,22.3-18.3v-297
		l-15.2,8.1c-3.4,2-12.5,7.8-27.4,17.2c-25,15.5-37.5,29.4-37.5,41.5l9.1,33.5L1051.6,3181.6z"/>
	<path class="st0" id="a" d="M1267.6,3038.7c34.6-23.7,73.9-53.1,118-88.3v91.3c35.2-30.4,58.2-45.6,69-45.6c3.4,0,5.8,1,7.1,3l47.7,83.1
		c5.4,6.1,8.1,12.2,8.1,18.3c0,6.8-3.4,11.2-10.2,13.2l-93.9,54.7v-4c14.2-13.5,22.3-26,24.3-37.5c-2.7-10.1-7.4-22.6-14.1-37.5
		c-8.7-18.9-15.4-27.7-20.1-26.3c-4,0.7-9,5.1-15.1,13.2c-2.7,100.6-1,199.8,5,297.7c1.3,21.6,11.7,34.8,31.1,39.5
		c-9.5,0-23.8,0-43.1,0s-33.6,0-43.1,0c-6.1,0-15.4,0-27.9,0s-21.8,0-27.9,0c17.7-7.4,28.3-13.5,31.7-18.2c2.7-2.7,4.1-9.4,4.1-20.3
		v-338.3L1267.6,3038.7z"/>
	<path class="st0" id="b" d="M1502.7,3038.7c34.6-23.7,73.9-53.1,118-88.3v91.3c35.2-30.4,58.2-45.6,69-45.6c3.4,0,5.8,1,7.1,3l47.7,83.1
		c5.4,6.1,8.1,12.2,8.1,18.3c0,6.8-3.4,11.2-10.2,13.2l-93.9,54.7v-4c14.2-13.5,22.3-26,24.3-37.5c-2.7-10.1-7.4-22.6-14.1-37.5
		c-8.7-18.9-15.4-27.7-20.1-26.3c-4,0.7-9,5.1-15.1,13.2c-2.7,100.6-1,199.8,5,297.7c1.3,21.6,11.7,34.8,31.1,39.5
		c-9.5,0-23.8,0-43.1,0s-33.6,0-43.1,0c-6.1,0-15.4,0-27.9,0s-21.8,0-27.9,0c17.7-7.4,28.3-13.5,31.7-18.2c2.7-2.7,4.1-9.4,4.1-20.3
		v-338.3L1502.7,3038.7z"/>
	<path class="st0" id="a" d="M1748.7,3159.3h149c-18.9,4.1-28.7,12.8-29.4,26.3l12.2,71c5.4,31.8,11.1,48,17.2,48.6
		c4-0.7,30.4-52.2,79-154.6c-0.7-7.4-2.4-11.8-5.1-13.1l-25.3-12.1l119.6,2c-33.8,62.7-76,139.6-126.7,230.6
		c-77.7,139.6-123,209.4-135.8,209.4c-0.7,0-1.3-0.3-2-1c-84.5-7.4-132.8-13.5-144.9-18.2c-30.4-4-66.2-17.9-107.4-41.5
		c-6.8-4-10.1-8.1-10.1-12.1c0-4.7,4.1-11.8,12.2-21.2c16.9-19.5,26-30.3,27.4-32.4c28.4-1.3,51.3-2,68.9-2c16.9,0,28.7,0.7,35.5,2
		c-0.7,4.7-3,7.7-7.1,9c-8.1,4-29.4,10.1-63.8,18.1l-18.3,23.1c23.7,12.1,84.5,17.8,182.4,17.1l50.7-89c4.7-12.1,7.1-24.6,7.1-37.5
		c0-32.4-19.6-100.5-58.8-204.4C1769.6,3171.5,1760.8,3165.4,1748.7,3159.3z"/>
</g>>
</svg>
