<?xml version="1.0" encoding="UTF-8" standalone="no"?>
<!-- Created with Inkscape (http://www.inkscape.org/) -->

<svg
   xmlns:dc="http://purl.org/dc/elements/1.1/"
   xmlns:cc="http://creativecommons.org/ns#"
   xmlns:rdf="http://www.w3.org/1999/02/22-rdf-syntax-ns#"
   xmlns:svg="http://www.w3.org/2000/svg"
   xmlns="http://www.w3.org/2000/svg"
   xmlns:sodipodi="http://sodipodi.sourceforge.net/DTD/sodipodi-0.dtd"
   xmlns:inkscape="http://www.inkscape.org/namespaces/inkscape"
   id="svg4778"
   version="1.1"
   inkscape:version="0.91 r13725"
   width="413.60022"
   height="271.88739"
   viewBox="0 0 413.60022 271.88739"
   sodipodi:docname="specs.svg">
  <metadata
     id="metadata4784">
    <rdf:RDF>
      <cc:Work
         rdf:about="">
        <dc:format>image/svg+xml</dc:format>
        <dc:type
           rdf:resource="http://purl.org/dc/dcmitype/StillImage" />
        <dc:title></dc:title>
      </cc:Work>
    </rdf:RDF>
  </metadata>
  <defs
     id="defs4782" />
  <sodipodi:namedview
     pagecolor="#ffffff"
     bordercolor="#000000"
     borderopacity="0"
     objecttolerance="10"
     gridtolerance="10"
     guidetolerance="10"
     inkscape:pageopacity="0"
     inkscape:pageshadow="2"
     inkscape:window-width="1301"
     inkscape:window-height="744"
     id="namedview4780"
     showgrid="false"
     fit-margin-top="0"
     fit-margin-left="0"
     fit-margin-right="0"
     fit-margin-bottom="0"
     inkscape:zoom="0.8702509"
     inkscape:cx="142.13363"
     inkscape:cy="58.929339"
     inkscape:window-x="65"
     inkscape:window-y="24"
     inkscape:window-maximized="1"
     inkscape:current-layer="svg4778" />
  <path
     style="fill:#000000"
     d="m 96.484969,118.73735 c -6.6927,0.0482 -13.10564,0.6165 -17.17969,1.73437 -28.14705,7.7232 -49.02105,29.14867 -54.92383,56.37891 -1.19226,5.5 -2.34962,10.61856 -2.57226,11.37304 -0.22265,0.75449 -4.52446,1.71647 -9.56055,2.13868 -6.5967398,0.55304 -9.5993398,1.3721 -10.7382798,2.92968 -2.50939004,3.43181 -1.85038004,7.80376 1.66797,11.06446 2.62614,2.43381 4.82704,3.08048 11.4746098,3.37695 l 8.22265,0.36719 1.98438,8.125 c 1.09148,4.46875 3.06067,10.375 4.375,13.125 4.88132,10.21325 18.07915,24.54734 30.07031,32.6582 4.21931,2.85396 19.60591,7.97621 28.125,9.36328 7.74821,1.26155 25.445181,0.0793 32.382811,-2.16406 15.26561,-4.93635 23.71477,-10.11976 34.35157,-21.06836 11.01027,-11.33304 16.84314,-23.34604 20.74218,-42.72852 1.32639,-6.59358 3.29179,-12.96188 4.36914,-14.15234 1.07735,-1.19045 4.89989,-3.79545 8.49414,-5.78711 6.14695,-3.40616 7.38877,-3.62109 20.91016,-3.62109 13.61675,0 14.69291,0.19066 20.39258,3.60351 7.7853,4.6617 9.1701,7.06164 10.1875,17.64649 1.05518,10.97813 2.53598,16.72957 6.39844,24.8457 8.88975,18.67995 25.54054,33.35872 45.56054,40.16797 7.68826,2.61494 11.477,3.11133 23.72852,3.11133 12.28224,0 16.2342,-0.52044 25.08008,-3.30469 13.17,-4.14526 18.1523,-7.33409 29.92968,-19.15234 10.31554,-10.35132 19.54174,-26.30765 20.84961,-36.0586 l 0.70118,-5.23437 6.12695,0 c 12.01954,0 18.46055,-5.57687 15.06055,-13.03906 -1.4212,-3.11918 -5.87051,-4.46094 -14.79688,-4.46094 -4.88525,0 -5.46875,-0.30856 -5.46875,-2.89649 0,-5.13966 -4.55826,-20.06741 -7.89453,-25.85351 -1.78385,-3.09375 -3.96544,-7.03125 -4.84766,-8.75 -0.88221,-1.71875 -2.30011,-3.85474 -3.15234,-4.74805 -0.85222,-0.89331 -1.98483,-2.3096 -2.51563,-3.14648 -1.83121,-2.88722 -15.84353,-14.60547 -17.46484,-14.60547 -0.89402,0 -1.625,-0.51816 -1.625,-1.15235 0,-0.63418 -2.10938,-1.8317 -4.6875,-2.66211 -2.57813,-0.83041 -5.25,-1.93236 -5.9375,-2.44726 -6.36427,-4.76656 -34.93117,-6.62938 -48.125,-3.13867 -12.36471,3.27135 -24.49873,10.397 -34.48047,20.25 -5.09806,5.03233 -9.26953,9.67196 -9.26953,10.31054 0,0.63859 -0.7829,1.94503 -1.74023,2.90235 -2.50991,2.50993 -7.80289,13.37401 -8.83008,18.125 -0.48309,2.23438 -1.15328,4.0625 -1.48828,4.0625 -0.33499,0 -2.47912,-1.42592 -4.76563,-3.16992 -4.20898,-3.21035 -5.11365,-3.53381 -16.30078,-5.82618 -13.12516,-2.6895 -35.31191,1.18227 -42.12891,7.35157 -2.37979,2.15368 -2.53843,2.14548 -4.23437,-0.17383 -0.96915,-1.3254 -1.76172,-3.12771 -1.76172,-4.00586 0,-0.87817 -2.30659,-6.10841 -5.125,-11.62305 -9.0014,-17.61254 -25.95297,-31.28789 -46.75,-37.71484 -5.14848,-1.59105 -14.21541,-2.38812 -22.820311,-2.32617 z m 1.57031,15.68359 c 6.187501,-0.0385 13.781251,0.67454 16.875001,1.58399 16.874,4.96034 31.9851,17.85748 39.51563,33.72656 l 4.36328,9.19531 -0.42774,17.08789 c -0.35102,13.99757 -0.92377,18.3129 -3.16406,23.87109 -1.50409,3.73166 -3.16707,7.10666 -3.69727,7.5 -0.5302,0.39334 -3.06684,3.33381 -5.63671,6.53321 -5.19423,6.46659 -17.76623,15.94261 -25.35938,19.11523 -5.54938,2.31867 -29.591741,3.70603 -36.843751,2.12695 -6.2602,-1.3631 -17.51152,-6.88958 -21.75781,-10.6875 -1.99756,-1.78664 -4.01608,-3.24804 -4.48633,-3.24804 -1.53371,0 -12.30647,-14.68818 -15.75977,-21.48828 -2.96421,-5.83702 -3.42389,-8.38231 -3.82617,-21.15039 -0.54527,-17.30668 1.6234,-26.04251 9.03321,-36.36524 14.09932,-19.64195 28.86247,-27.66215 51.17187,-27.80078 z m 216.875001,0.17383 c 21.52267,-0.0802 32.32633,4.81259 48.89844,22.14258 7.48002,7.8221 14.31746,30.35262 13.05273,43.00976 -2.36358,23.65424 -14.72869,41.05943 -37.1875,52.33985 -5.43072,2.7277 -8.36451,3.26313 -19.63672,3.58398 -19.35064,0.55077 -25.3252,-0.8977 -37.9082,-9.19336 -10.2209,-6.7384 -16.10639,-13.70244 -22.23633,-26.31055 -11.03069,-22.68801 -5.98917,-50.51773 12.36914,-68.27539 8.68196,-8.39792 11.89778,-10.49503 22.03125,-14.37695 6.05106,-2.31803 10.01766,-2.88042 20.61719,-2.91992 z"
     id="path4796"
     inkscape:connector-curvature="0" />
  <path
     style="fill:#000000"
     d="m 187.14982,104.27643 c -2.25205,-2.44736 -6.34465,-6.858705 -9.09465,-9.802995 -2.75,-2.94428 -8.09375,-8.9067 -11.875,-13.24978 -3.78125,-4.3431 -7.71875,-8.81416 -8.75,-9.9357 -1.03125,-1.12154 -3.92245,-4.54738 -6.42489,-7.61298 -2.50242,-3.0656 -6.01737,-7.26131 -7.81096,-9.32381 -1.7936,-2.0625 -3.26179,-4.48407 -3.26262,-5.38129 -0.001,-1.75547 10.55574,-6.86105 17.16867,-8.30281 l 4.04521,-0.88194 -2.17021,-3.81771 c -1.19361,-2.09975 -2.80764,-4.91552 -3.58672,-6.25729 -0.77909,-1.34177 -2.44129,-4.92456 -3.69378,-7.96177 -1.25249,-3.0372 -2.72443,-5.52219 -3.27097,-5.52219 -0.54655,0 -0.99373,-0.76789 -0.99373,-1.70643 0,-0.93853 -1.09013,-3.0923 -2.42251,-4.7861499 -1.33239,-1.69384 -2.79962,-4.58221 -3.26051,-6.41857 -0.73169,-2.91527997 -0.464,-3.33572997 2.11001,-3.31425997004 3.51399,0.0294 22.38053,3.27595997004 22.71481,3.90887997004 0.12826,0.24284 0.9614,1.73967 1.85141,3.32628 0.89002,1.58661 3.31785,6.3678599 5.39519,10.6249999 2.07734,4.25714 4.53225,9.1465 5.45536,10.86525 0.92312,1.71875 1.73055,3.54646 1.79433,4.06157 0.0638,0.51512 2.08288,5.19489 4.48695,10.3995 6.77921,14.67654 6.77945,14.66059 -0.25014,16.67932 -3.29995,0.94765 -6.66406,2.24028 -7.47583,2.87251 -1.66213,1.29454 1.28797,10.07341 9.63913,28.68396 7.98525,17.795135 7.88674,21.770245 -0.31855,12.853405 z"
     id="path4788"
     inkscape:connector-curvature="0" />
</svg>
