<?xml version="1.0" encoding="UTF-8" standalone="no"?>
<!-- Created with Inkscape (http://www.inkscape.org/) -->

<svg
   xmlns:dc="http://purl.org/dc/elements/1.1/"
   xmlns:cc="http://creativecommons.org/ns#"
   xmlns:rdf="http://www.w3.org/1999/02/22-rdf-syntax-ns#"
   xmlns:svg="http://www.w3.org/2000/svg"
   xmlns="http://www.w3.org/2000/svg"
   xmlns:sodipodi="http://sodipodi.sourceforge.net/DTD/sodipodi-0.dtd"
   xmlns:inkscape="http://www.inkscape.org/namespaces/inkscape"
   width="74mm"
   height="243mm"
   viewBox="0 0 74 243"
   version="1.1"
   id="svg7209"
   inkscape:version="0.92.1 r15371"
   sodipodi:docname="wand separator.svg">
  <defs
     id="defs7203" />
  <sodipodi:namedview
     id="base"
     pagecolor="#ffffff"
     bordercolor="#666666"
     borderopacity="1.0"
     inkscape:pageopacity="0.0"
     inkscape:pageshadow="2"
     inkscape:zoom="0.44"
     inkscape:cx="400"
     inkscape:cy="565.08911"
     inkscape:document-units="mm"
     inkscape:current-layer="layer1"
     showgrid="false"
     inkscape:window-width="1366"
     inkscape:window-height="715"
     inkscape:window-x="-8"
     inkscape:window-y="-8"
     inkscape:window-maximized="1" />
  <metadata
     id="metadata7206">
    <rdf:RDF>
      <cc:Work
         rdf:about="">
        <dc:format>image/svg+xml</dc:format>
        <dc:type
           rdf:resource="http://purl.org/dc/dcmitype/StillImage" />
        <dc:title></dc:title>
      </cc:Work>
    </rdf:RDF>
  </metadata>
  <g
     inkscape:label="Layer 1"
     inkscape:groupmode="layer"
     id="layer1"
     transform="translate(0,-54)">
    <path
       inkscape:connector-curvature="0"
       id="path7237"
       d="m 61.35846,295.9833 c -0.30378,-0.21171 -0.77473,-0.48237 -1.04658,-0.60147 -0.27185,-0.11909 -0.8478,-0.55526 -1.2799,-0.96928 -0.66249,-0.63475 -0.80255,-0.84326 -0.89352,-1.33017 -0.18747,-1.0035 -0.54585,-1.58473 -1.15314,-1.87018 -0.48128,-0.22623 -0.56463,-0.32802 -0.73304,-0.89512 -0.24489,-0.82463 -0.23956,-1.10929 0.0254,-1.35944 0.40803,-0.38516 0.52751,-0.58514 0.57058,-0.95497 0.0237,-0.20399 0.10964,-0.45095 0.19086,-0.54882 0.11662,-0.14052 0.10402,-0.24462 -0.0599,-0.49475 -0.1648,-0.25151 -0.18072,-0.3864 -0.0773,-0.65465 0.0717,-0.18583 0.16579,-0.58721 0.20922,-0.89194 0.15609,-1.09513 0.51371,-1.8469 0.87858,-1.8469 0.19021,0 0.20026,-0.0479 0.21926,-1.04658 0.008,-0.40631 0.0571,-0.86058 0.10963,-1.00948 0.0693,-0.19645 0.0281,-0.33824 -0.15044,-0.51675 -0.23014,-0.23015 -0.62847,-0.89921 -0.62847,-1.05565 0,-0.0385 0.13852,-0.0353 0.30782,0.008 0.37338,0.0937 0.38849,0.008 0.0571,-0.32332 -0.13791,-0.13791 -0.22009,-0.30034 -0.18263,-0.36097 0.0374,-0.0606 -0.0389,-0.18519 -0.16982,-0.27685 -0.29434,-0.20619 -0.7512,-1.46994 -0.7512,-2.07797 0,-0.24803 0.0863,-0.65758 0.19185,-0.91012 0.19556,-0.46801 0.19678,-0.45301 -0.15568,-1.89878 -0.0496,-0.20347 -0.004,-0.34666 0.14769,-0.45709 0.20552,-0.15027 0.2067,-0.18098 0.018,-0.46893 -0.11103,-0.16945 -0.20189,-0.39318 -0.20189,-0.49714 0,-0.10397 -0.0684,-0.17516 -0.15193,-0.15824 -0.0965,0.0195 -0.18116,-0.19397 -0.23199,-0.58485 -0.044,-0.3386 -0.22699,-1.05888 -0.4066,-1.60064 -0.1796,-0.54176 -0.55255,-1.67759 -0.82876,-2.52409 -0.81903,-2.51002 -1.00998,-2.90748 -1.69097,-3.51976 -0.34256,-0.30799 -0.67525,-0.73901 -0.75356,-0.9763 -0.0771,-0.23367 -0.30551,-0.54256 -0.50755,-0.68643 -0.24823,-0.17675 -0.35515,-0.34709 -0.32974,-0.52535 0.0518,-0.36345 0.87223,-0.44169 1.23783,-0.11803 0.24777,0.21933 0.25121,0.21772 0.17985,-0.0842 -0.043,-0.18182 -1.2e-4,-0.40564 0.10469,-0.54682 0.20131,-0.27113 0.24147,-1.3691 0.0543,-1.48476 -0.0678,-0.0418 -0.12313,-0.29232 -0.12313,-0.55658 0,-0.26427 -0.18765,-1.05054 -0.417,-1.7473 -0.22935,-0.69673 -0.47453,-1.48842 -0.54485,-1.7593 -0.0703,-0.27088 -0.2705,-0.96674 -0.44488,-1.54636 -0.17438,-0.57961 -0.31704,-1.09765 -0.31704,-1.15118 0,-0.0536 -0.25044,-0.7233 -0.55652,-1.48835 -0.30609,-0.76504 -0.66092,-1.85381 -0.78851,-2.41947 -0.39106,-1.73377 -0.7445,-3.10934 -0.86533,-3.36788 -0.0633,-0.13544 -0.15145,-0.48554 -0.19588,-0.778 -0.0549,-0.36109 -0.1316,-0.51226 -0.2391,-0.47102 -0.17528,0.0673 -0.67908,-0.2404 -0.67908,-0.41469 0,-0.0609 -0.14276,-0.32092 -0.31724,-0.57787 -0.26339,-0.3879 -0.31086,-0.58212 -0.27969,-1.14439 0.0206,-0.37246 -0.004,-0.74291 -0.0545,-0.82321 -0.0507,-0.0803 -0.0386,-0.38408 0.0267,-0.67503 0.11505,-0.51204 0.10526,-0.54022 -0.30542,-0.87874 -0.23336,-0.19234 -0.42429,-0.45324 -0.42429,-0.57975 0,-0.12651 -0.0553,-0.26427 -0.12313,-0.30612 -0.0677,-0.0419 -0.12312,-0.24082 -0.12312,-0.44216 0,-0.44794 -0.29949,-1.19134 -0.61544,-1.52765 -0.12887,-0.13718 -0.31579,-0.55349 -0.41539,-0.92514 -0.24729,-0.92272 -0.43764,-1.49205 -0.59455,-1.77826 -0.0956,-0.17441 -0.0935,-0.25349 0.008,-0.28729 0.0769,-0.0256 0.1399,-0.10205 0.1399,-0.16976 0,-0.0678 -0.0686,-0.10027 -0.15239,-0.0723 -0.13451,0.0448 -0.31142,-0.29435 -0.54891,-1.05235 -0.0382,-0.12197 0.0323,-0.41068 0.15661,-0.64157 0.25051,-0.46515 0.16345,-0.68135 -0.1864,-0.46287 -0.2479,0.15482 -0.37705,0.0915 -0.37705,-0.18502 0,-0.10705 0.0732,-0.14924 0.18469,-0.10647 0.12761,0.049 0.18469,-0.008 0.18469,-0.18469 0,-0.18814 -0.0542,-0.23475 -0.20563,-0.17666 -0.20803,0.0798 -0.40465,-0.10863 -0.40812,-0.39115 -9.3e-4,-0.0846 0.0813,-0.15391 0.18281,-0.15391 0.29682,0 0.21875,-0.48565 -0.0974,-0.60586 -0.4606,-0.17511 -0.61674,-0.45141 -0.52661,-0.93187 0.0508,-0.27032 0.0328,-0.4323 -0.0476,-0.4323 -0.0707,0 -0.1287,-0.14046 -0.1287,-0.31214 0,-0.17168 -0.0824,-0.43786 -0.18303,-0.59149 -0.6541,-0.99828 -1.00223,-3.45765 -0.61282,-4.32923 0.43448,-0.97246 0.54591,-1.3631 0.54774,-1.92016 9.4e-4,-0.40775 0.0707,-0.628 0.24811,-0.78863 0.13544,-0.12256 0.24625,-0.3068 0.24625,-0.40941 0,-0.10261 -0.22205,-0.97928 -0.49344,-1.94813 -0.2714,-0.96886 -0.48125,-1.80439 -0.46635,-1.85672 0.0149,-0.0524 -0.0331,-0.20597 -0.10678,-0.34141 -0.18587,-0.3419 -0.78033,-2.89051 -0.78033,-3.34547 0,-0.39212 -0.15433,-0.94876 -0.44311,-1.59819 -0.0949,-0.21341 -0.17252,-0.438 -0.17252,-0.49912 0,-0.0612 -0.18905,-0.68994 -0.42011,-1.39735 -0.535626,-1.63983 -1.203368,-4.46623 -1.610869,-6.81841 -0.224276,-1.29454 -0.439704,-2.11408 -0.728232,-2.77034 -0.225355,-0.51256 -0.608408,-1.65223 -0.851205,-2.53258 -1.236982,-4.48501 -1.623335,-5.81828 -2.182546,-7.53185 -0.335292,-1.02742 -0.609615,-2.03534 -0.609615,-2.2398 0,-0.20446 -0.05395,-0.4051 -0.119931,-0.44586 -0.189071,-0.11686 -0.477759,-1.22088 -0.756764,-2.89407 -0.144175,-0.86462 -0.525236,-2.36931 -0.868551,-3.42968 -0.389449,-1.20284 -0.650195,-2.26254 -0.717695,-2.91675 -0.05827,-0.56514 -0.160679,-1.12967 -0.227494,-1.25451 -0.287027,-0.53632 -1.133397,-3.56064 -1.068646,-3.81861 0.04917,-0.19597 0.160773,-0.27884 0.37545,-0.27884 0.246062,0 0.305474,-0.0616 0.305474,-0.31678 0,-0.38138 -0.329794,-1.75779 -1.074671,-4.48515 -0.597192,-2.1866 -1.040705,-3.86122 -1.931014,-7.29123 -0.311432,-1.19982 -1.068609,-4.05327 -1.682616,-6.34101 -0.614006,-2.28774 -1.246158,-4.68589 -1.404783,-5.32922 -0.322776,-1.30908 -0.660085,-2.56692 -2.261803,-8.43417 -0.610074,-2.23475 -1.420574,-5.14105 -1.801128,-6.45845 -0.872891,-3.02101 -1.309591,-4.64955 -2.544219,-9.48691 -0.543936,-2.13343 -1.198475,-4.68215 -1.454024,-5.66408 -0.255548,-0.98193 -0.916824,-3.53065 -1.469496,-5.66381 -1.488449,-5.74495 -2.474105,-9.52651 -2.808103,-10.77356 -0.163241,-0.60948 -0.490276,-1.85613 -0.72674,-2.770352 C 12.164936,98.454307 11.755773,96.902915 11.492147,95.920982 10.884539,93.657794 8.698756,85.259217 8.063385,82.746459 7.797975,81.696807 7.410694,80.256228 7.202772,79.545173 6.362839,76.67284 5.8267,74.709078 5.8267,74.50495 5.8267,74.386337 5.713873,73.962026 5.575984,73.562037 5.249765,72.615743 4.001861,67.943558 3.425029,65.508766 3.176358,64.459113 2.591457,62.048913 2.125248,60.152767 1.600434,58.018238 1.306276,56.587995 1.35287,56.397412 1.44856,56.006066 1.861443,55.54288 2.247317,55.393995 c 0.386269,-0.149036 1.517423,0.290698 1.780459,0.69215 0.198698,0.303242 1.412289,4.164243 3.522889,11.207953 0.730503,2.437902 1.8072945,6.005622 2.3928615,7.928265 2.3613245,7.753105 5.3418725,18.152831 6.6732455,23.284274 0.237196,0.914211 0.654193,2.465613 0.926658,3.447543 0.649079,2.33923 0.803012,2.90193 1.633647,5.97163 1.035601,3.82712 4.074163,14.64561 5.239208,18.65364 0.265738,0.91422 0.573135,2.02236 0.683091,2.46253 0.205979,0.82454 3.572224,13.191 4.306808,15.82175 0.226912,0.81264 0.551479,2.00389 0.72126,2.64723 0.169781,0.64333 0.833919,3.08123 1.475858,5.41756 0.641948,2.33632 1.618428,5.96547 2.169964,8.06477 1.078405,4.10474 1.837018,6.90129 2.5885,9.5423 1.691567,5.94487 2.36038,8.17674 2.578247,8.60379 0.339646,0.66576 0.90596,2.09986 1.610457,4.07823 0.32555,0.91421 0.67408,1.85613 0.77451,2.09315 0.17697,0.41765 0.94745,3.32029 1.36525,5.14334 0.11287,0.49252 0.45753,1.60066 0.76591,2.46253 0.88003,2.45957 1.40138,4.2018 1.53742,5.1377 0.30429,2.09334 0.39337,2.5044 0.86238,3.97956 0.273,0.85862 0.74254,2.44765 1.04345,3.53116 0.30091,1.08351 0.70857,2.49638 0.90591,3.13972 0.70404,2.2951 1.52705,5.53142 1.9767,7.77289 0.31822,1.58628 0.70992,2.83167 0.951,3.02355 0.12354,0.0984 0.27995,0.10933 0.479,0.0337 0.52946,-0.20132 1.15647,0.30503 1.15647,0.93391 0,0.0982 0.20037,0.40032 0.44527,0.6714 0.39008,0.43177 0.51189,0.49286 0.98266,0.49286 0.48603,0 0.54456,0.0324 0.61224,0.3386 0.0412,0.18623 0.15106,0.58792 0.24423,0.89266 0.33351,1.09081 0.88936,4.84767 0.98374,6.64883 0.0195,0.37245 0.0887,0.81571 0.15378,0.98501 0.065,0.1693 0.15895,0.66796 0.20865,1.10814 0.0497,0.44018 0.21585,1.18817 0.36922,1.6622 0.3685,1.13898 0.49287,2.44176 0.31493,3.2989 -0.13505,0.65055 -0.10706,0.80822 0.73992,4.16725 0.48416,1.92012 1.06665,3.99001 1.29442,4.59974 0.22777,0.60975 0.53298,1.49648 0.67825,1.97052 0.14525,0.47403 0.44438,1.11122 0.66472,1.41596 0.22032,0.30473 0.52385,0.92908 0.6745,1.38744 0.24549,0.74692 0.25801,0.89541 0.12068,1.43126 -0.13434,0.52416 -0.11919,0.76303 0.12284,1.93698 0.15184,0.73649 0.37706,1.69922 0.50047,2.13939 0.12342,0.44018 0.34298,1.39487 0.48791,2.12152 0.14493,0.72666 0.53144,2.08412 0.85891,3.0166 0.32747,0.93246 0.69007,2.13865 0.80578,2.6804 0.33952,1.58966 1.14642,4.46958 2.2251,7.94165 0.43851,1.4115 0.95273,2.63988 1.15823,2.76691 0.0719,0.0444 0.42834,0.47889 0.79217,0.96554 0.60372,0.80747 0.95179,1.19365 1.84011,2.04157 0.31804,0.30358 0.74436,1.48587 0.8926,2.47546 0.06,0.40084 0.1938,0.65864 0.48362,0.93226 0.22032,0.20801 0.48992,0.55094 0.5991,0.76207 0.10917,0.21112 0.30084,0.45649 0.42592,0.54525 0.31541,0.22382 0.51244,0.63162 0.63222,1.30849 0.0561,0.31716 0.19394,0.8814 0.30627,1.25386 0.11231,0.37246 0.25998,0.92652 0.32817,1.23126 0.0682,0.30474 0.20294,0.8034 0.29949,1.10814 0.3005,0.94848 0.0797,1.38743 -0.83458,1.65894 -0.33746,0.10021 -0.82964,0.37743 -1.09374,0.61602 -0.2641,0.2386 -0.56125,0.43381 -0.66034,0.43381 -0.0991,0 -0.3697,0.0904 -0.60137,0.20088 -0.33013,0.15741 -0.51076,0.39011 -0.83528,1.07603 -0.37574,0.79419 -0.4808,0.91233 -1.13517,1.27665 -0.39661,0.22082 -0.81712,0.40148 -0.93447,0.40148 -0.11735,0 -0.27415,0.13342 -0.34844,0.29649 -0.11483,0.252 -0.24249,0.30503 -0.85087,0.35348 -1.01377,0.0807 -1.52453,0.24431 -2.18785,0.70068 -0.3925,0.27005 -0.6528,0.57034 -0.80778,0.93192 -0.12578,0.29341 -0.36742,0.62438 -0.537,0.73549 -0.17434,0.11423 -0.32486,0.34508 -0.34638,0.53121 -0.0539,0.46561 -0.41796,0.46673 -1.08286,0.004 z m 0.86012,-0.10317 c 0.14869,-0.0946 0.1561,-0.16363 0.038,-0.35423 -0.164,-0.26471 -0.098,-0.38641 0.20966,-0.38641 0.28457,0 0.65997,-0.44187 0.57143,-0.67261 -0.14384,-0.37484 -0.65923,-0.21401 -1.1213,0.3499 -0.3839,0.46848 -0.42573,0.58146 -0.31911,0.86188 0.12866,0.33843 0.31235,0.39799 0.6213,0.20147 z m -3.07815,-2.22841 c 0,-0.30007 -0.28773,-0.25765 -0.34763,0.0512 -0.0236,0.12148 0.0392,0.20526 0.1539,0.20526 0.11422,0 0.19373,-0.10527 0.19373,-0.25651 z m 2.03157,-0.419 c 0,-0.43755 -0.36179,-0.58719 -0.46505,-0.19234 -0.0363,0.13872 -0.15425,0.25221 -0.26217,0.25221 -0.25029,0 -0.24707,-0.0338 0.0495,-0.5203 0.30227,-0.49578 0.30856,-0.60901 0.0312,-0.56245 -0.1753,0.0295 -0.20806,-0.0399 -0.17575,-0.37195 0.0477,-0.48926 -0.29769,-1.10692 -0.50369,-0.90091 -0.0733,0.0733 -0.14962,0.56235 -0.16964,1.08682 -0.0416,1.08988 0.11899,1.46652 0.66171,1.55182 0.6911,0.10866 0.83379,0.05 0.83379,-0.3429 z m 2.03159,-0.13513 c 0,-0.34785 -0.0601,-0.44954 -0.32489,-0.55024 -0.39276,-0.14933 -0.47417,-0.0922 -0.29932,0.20997 0.0723,0.12511 0.18693,0.38317 0.25455,0.57347 0.15892,0.44723 0.36966,0.31428 0.36966,-0.2332 z m -1.23126,-0.55102 c 0,-0.0637 -0.0554,-0.11586 -0.12313,-0.11586 -0.0677,0 -0.12313,0.0864 -0.12313,0.19196 0,0.10558 0.0555,0.15771 0.12313,0.11585 0.0678,-0.0418 0.12313,-0.12823 0.12313,-0.19195 z m 1.81071,-1.16366 c 0.27927,-0.58563 0.11161,-0.7527 -0.60434,-0.60222 -0.59175,0.12437 -0.76201,0.47615 -0.4038,0.83436 0.35052,0.35051 0.77714,0.25229 1.00814,-0.23214 z m 3.23746,-0.12917 c 0,-0.0976 -0.11081,-0.17742 -0.24624,-0.17742 -0.26875,0 -0.34074,0.31497 -0.0923,0.40406 0.20829,0.0747 0.33859,-0.0125 0.33859,-0.22664 z m -1.66602,0.075 c 0.0891,-0.14418 -0.32076,-0.37556 -0.66527,-0.37556 -0.33847,0 -0.32445,0.22601 0.0227,0.36554 0.36929,0.14843 0.55527,0.15133 0.6426,0.01 z m -7.45737,-0.64018 c 0.17649,-0.50628 0.1709,-0.72083 -0.0188,-0.71851 -0.34276,0.004 -0.45431,0.19465 -0.38048,0.64959 0.0906,0.55875 0.22064,0.58119 0.39921,0.0689 z m 10.08378,0.24 c 0.26671,-0.26673 0.17677,-0.59101 -0.16393,-0.59101 -0.32996,0 -0.50043,0.24689 -0.38255,0.55407 0.0853,0.22228 0.34366,0.23975 0.54648,0.037 z m -7.97858,-0.62117 c 0,-0.0687 -0.0816,-0.0554 -0.18469,0.0301 -0.10158,0.0843 -0.18469,0.20868 -0.18469,0.27641 0,0.0687 0.0816,0.0554 0.18469,-0.0301 0.10157,-0.0844 0.18469,-0.20868 0.18469,-0.27641 z m -3.07816,0.0301 c 0,-0.0677 -0.0586,-0.12313 -0.13039,-0.12313 -0.0717,0 -0.0962,0.0554 -0.0543,0.12313 0.0418,0.0677 0.10053,0.12312 0.13039,0.12312 0.0298,0 0.0543,-0.0555 0.0543,-0.12312 z m 2.20126,-0.60375 c 0.10667,-0.0676 0.13095,-0.16975 0.0654,-0.27515 -0.0574,-0.0922 -0.0883,-0.49631 -0.0686,-0.89797 0.0308,-0.62934 0.0108,-0.70963 -0.14447,-0.58077 -0.32129,0.26666 -0.5043,0.85455 -0.331,1.06336 0.0835,0.10066 0.1178,0.27183 0.0762,0.38037 -0.1353,0.35259 0.0771,0.51627 0.40256,0.31016 z m 9.75648,-0.24325 c 0.0419,-0.042 0.10919,-0.25392 0.14968,-0.47082 0.0632,-0.33891 0.006,-0.46761 -0.41183,-0.91498 -0.267,-0.28631 -0.50322,-0.5739 -0.52495,-0.63906 -0.024,-0.0721 -0.14232,-0.0634 -0.30172,0.0219 -0.14422,0.0772 -0.34961,0.10682 -0.45641,0.0658 -0.23567,-0.0905 -0.51219,-0.67943 -0.62123,-1.32314 -0.0449,-0.26538 -0.21278,-0.59772 -0.3802,-0.75289 -0.16485,-0.15277 -0.29973,-0.34068 -0.29973,-0.41757 0,-0.0768 -0.0443,-0.13978 -0.0985,-0.13978 -0.17548,0 -0.39401,0.28958 -0.39401,0.52212 0,0.12464 -0.11818,0.38646 -0.26261,0.58182 -0.22299,0.30161 -0.29732,0.33355 -0.49251,0.21165 -0.30832,-0.19254 -0.29058,-0.31533 0.10525,-0.72848 0.26259,-0.27408 0.30726,-0.39403 0.20632,-0.55405 -0.0972,-0.15415 -0.0662,-0.30265 0.12658,-0.60551 0.2857,-0.44886 0.46315,-0.4671 0.55983,-0.0576 0.0843,0.35706 0.29934,0.35005 0.35323,-0.0115 0.0231,-0.15506 0.11338,-0.36503 0.20062,-0.46661 0.0873,-0.10157 0.24323,-0.35199 0.34664,-0.55648 0.16282,-0.32194 0.16519,-0.42614 0.0176,-0.77706 -0.0937,-0.22289 -0.1578,-0.52654 -0.1424,-0.67477 0.0243,-0.23375 -0.0282,-0.26679 -0.39474,-0.24891 -0.27678,0.0135 -0.49437,0.11557 -0.63019,0.29563 -0.13966,0.18515 -0.29003,0.25344 -0.46012,0.20896 -0.14726,-0.0385 -0.54649,0.0822 -0.95701,0.28922 -0.38741,0.19539 -0.77289,0.35528 -0.85663,0.35528 -0.30675,0 -0.44601,0.31973 -0.28918,0.66393 0.20222,0.44382 0.10444,0.48624 -0.49857,0.21627 l -0.51889,-0.23231 0.34196,-0.2491 c 0.29451,-0.21454 0.31916,-0.27656 0.17766,-0.44707 -0.27461,-0.33089 -0.6121,-0.23685 -0.83615,0.23297 -0.11302,0.23701 -0.27177,0.43094 -0.35277,0.43094 -0.18067,0 -0.79368,0.7838 -0.78803,1.00758 0.003,0.0988 0.0893,0.0601 0.22234,-0.099 0.12004,-0.14362 0.33261,-0.29743 0.47238,-0.34179 0.21028,-0.0667 0.26699,-0.0163 0.32864,0.29192 0.0795,0.39728 0.40473,0.51087 0.52977,0.18501 0.0532,-0.13854 0.17725,-0.16784 0.47454,-0.11207 0.23845,0.0448 0.43636,0.0208 0.48549,-0.0586 0.10135,-0.164 0.80715,-0.18001 0.80715,-0.0183 0,0.0637 -0.0555,0.1501 -0.12312,0.19195 -0.0677,0.0418 -0.12313,0.18364 -0.12313,0.31508 0,0.2924 -0.22784,0.31123 -0.42947,0.0355 -0.0818,-0.11193 -0.21262,-0.16406 -0.29061,-0.11587 -0.21345,0.13193 -0.17035,0.4401 0.0737,0.52665 0.11851,0.042 0.31867,0.16494 0.44481,0.27316 0.12613,0.10822 0.34776,0.19675 0.4925,0.19675 0.15185,0 0.26317,0.0782 0.26317,0.18469 0,0.10159 -0.0692,0.17084 -0.1539,0.15392 -0.0846,-0.017 -0.15392,0.0762 -0.15392,0.20689 0,0.1498 -0.0989,0.25225 -0.26739,0.27704 -0.5629,0.0829 -0.33674,0.29369 0.32525,0.30327 0.37186,0.006 0.75537,0.0755 0.85224,0.15594 0.12517,0.10388 0.2001,0.10737 0.25901,0.0121 0.0456,-0.0737 0.17518,-0.10505 0.28799,-0.0695 0.13828,0.0435 0.27536,-0.0585 0.42072,-0.31303 0.20932,-0.36659 0.45841,-0.42828 0.55533,-0.13749 0.0262,0.0785 -0.0986,0.2889 -0.2773,0.46759 -0.35615,0.35614 -0.3357,0.75714 0.0307,0.60169 0.75306,-0.31951 0.99816,0.15013 0.45205,0.86612 -0.25129,0.32947 -0.39301,0.41739 -0.57808,0.35865 -0.24149,-0.0767 -0.24171,-0.0732 -0.0139,0.23011 0.17673,0.23533 0.37642,0.32238 0.8469,0.36921 0.70287,0.0699 0.81073,0.0283 0.50543,-0.19489 -0.15558,-0.11377 -0.19273,-0.24762 -0.13383,-0.48228 0.12083,-0.48142 0.88237,-0.59297 1.40586,-0.20594 0.42089,0.31117 0.4684,0.49616 0.18733,0.72943 -0.14385,0.11938 -0.22448,0.12303 -0.33243,0.0151 -0.21405,-0.214 -0.46266,-0.17149 -0.46266,0.0791 0,0.33801 0.25233,0.51969 0.60639,0.43661 0.17437,-0.0409 0.35128,-0.10879 0.3931,-0.15084 z m -4.81641,-4.93994 c 0,-0.0678 0.0554,-0.12312 0.12312,-0.12312 0.0678,0 0.12313,0.0554 0.12313,0.12312 0,0.0677 -0.0554,0.12313 -0.12313,0.12313 -0.0677,0 -0.12312,-0.0555 -0.12312,-0.12313 z m 0.37672,-0.17585 c -0.11386,-0.13719 -0.10295,-0.25897 0.0496,-0.55407 0.20929,-0.40472 0.65998,-0.55355 0.49285,-0.16275 -0.0507,0.11852 -0.11831,0.36784 -0.15028,0.55407 -0.0649,0.37802 -0.17547,0.42391 -0.39221,0.16275 z m 1.16236,-0.80916 c -0.0419,-0.0677 -0.0175,-0.12313 0.0543,-0.12313 0.0717,0 0.13039,0.0555 0.13039,0.12313 0,0.0677 -0.0244,0.12313 -0.0543,0.12313 -0.0298,0 -0.0886,-0.0555 -0.13039,-0.12313 z m -0.80033,5.84464 c 0,-0.1966 -0.32722,-0.38715 -0.45146,-0.26292 -0.0393,0.0393 -0.0387,0.15698 0.002,0.26147 0.0944,0.24607 0.45001,0.24722 0.45001,0.002 z m -1.84689,-0.55021 c 0,-0.0677 -0.0244,-0.12313 -0.0543,-0.12313 -0.0298,0 -0.0886,0.0555 -0.1304,0.12313 -0.0418,0.0677 -0.0174,0.12313 0.0543,0.12313 0.0717,0 0.13039,-0.0555 0.13039,-0.12313 z m 4.80192,-0.17742 c 0,-0.0298 -0.0554,-0.0886 -0.12313,-0.1304 -0.0677,-0.0418 -0.12312,-0.0174 -0.12312,0.0543 0,0.0717 0.0554,0.13039 0.12312,0.13039 0.0677,0 0.12313,-0.0244 0.12313,-0.0543 z m -9.92484,-0.50984 c 0.10561,-0.2752 0.0973,-0.29775 -0.10995,-0.29775 -0.1026,0 -0.18469,0.10944 -0.18469,0.24625 0,0.29356 0.18907,0.32661 0.29464,0.0515 z m 2.93791,-0.11613 c 0.007,-0.0661 -0.08,-0.13793 -0.1935,-0.15977 -0.14618,-0.0281 -0.18404,0.0182 -0.12998,0.1591 0.0798,0.20776 0.30136,0.20822 0.32348,9.4e-4 z m 4.43086,-0.11717 c 0.063,-0.32932 -9.3e-4,-0.46591 -0.16988,-0.36165 -0.13968,0.0863 -0.13722,0.66658 0.003,0.66658 0.0599,0 0.13499,-0.13721 0.16706,-0.30493 z M 60.08458,287.283 c -0.046,-0.17057 -0.0723,-0.15811 -0.14515,0.0687 -0.049,0.15237 -0.16562,0.27703 -0.2593,0.27703 -0.21022,0 -0.21911,0.14823 -0.0208,0.34655 0.11729,0.11729 0.18531,0.0812 0.31547,-0.16719 0.0913,-0.17418 0.14066,-0.41046 0.10978,-0.52506 z m 3.77956,0.21825 c -0.16397,-0.16397 -0.4753,0.17538 -0.34876,0.38014 0.0616,0.0995 0.14358,0.0835 0.28236,-0.0553 0.13656,-0.13657 0.15661,-0.23463 0.0664,-0.32484 z m 1.82866,0.10489 c -0.18769,-0.18769 -0.30202,-0.0734 -0.19791,0.19791 0.0572,0.14923 0.11908,0.1723 0.2122,0.0792 0.0932,-0.0931 0.089,-0.17386 -0.0143,-0.2771 z m -3.02967,-0.90983 c -0.0798,-0.20796 -0.51672,-0.23467 -0.63767,-0.0389 -0.0465,0.0753 0.0745,0.26439 0.26977,0.42103 0.34423,0.2762 0.35545,0.2773 0.39482,0.0389 0.0223,-0.13491 0.0101,-0.32438 -0.0269,-0.42103 z m 7.64972,0.34755 c -0.33019,-1.17068 -0.53978,-1.75424 -0.63008,-1.75438 -0.0595,-1e-4 -0.0717,0.22765 -0.0271,0.5061 0.0511,0.31966 0.028,0.57011 -0.0629,0.6795 -0.11352,0.13676 -0.0819,0.23477 0.15025,0.46575 0.35548,0.35366 0.65579,0.40796 0.56978,0.10303 z m -1.07607,-1.27099 c 0,-0.20007 0.0692,-0.47482 0.1539,-0.61054 0.13193,-0.21152 0.0948,-0.36075 -0.25968,-1.0449 -0.3934,-0.75917 -0.66799,-0.98251 -0.79202,-0.64424 -0.0431,0.11747 -0.0926,0.11991 -0.2092,0.0103 -0.12112,-0.1138 -0.11155,-0.20237 0.0462,-0.42755 0.25407,-0.36275 0.2557,-0.83081 0.003,-0.9277 -0.29003,-0.11129 -0.94322,0.59122 -0.94322,1.01443 0,0.18811 0.0794,0.40175 0.17644,0.47475 0.19663,0.14791 0.59311,1.07361 0.59311,1.38479 0,0.21778 0.98808,1.23512 1.13891,1.17263 0.0508,-0.021 0.0923,-0.20196 0.0923,-0.40204 z m -5.93315,0.13977 c 0.0308,-0.0923 -0.0154,-0.13852 -0.10773,-0.10774 -0.0889,0.0297 -0.18585,0.12659 -0.21548,0.21547 -0.0308,0.0923 0.0154,0.13852 0.10775,0.10773 0.0888,-0.0296 0.18583,-0.12658 0.21546,-0.21546 z m -3.21154,-0.0821 c -0.0409,-0.0409 -0.14711,-0.0453 -0.236,-0.01 -0.0982,0.0393 -0.069,0.0685 0.0744,0.0744 0.1298,0.006 0.20252,-0.0237 0.16161,-0.0647 z m -0.87482,-2.23611 c 0.15164,-0.0991 0.007,-0.64453 -0.17138,-0.64453 -0.23732,0 -0.38538,0.28597 -0.26475,0.51137 0.13166,0.246 0.22149,0.27343 0.43613,0.13316 z m 12.72828,-0.57685 c 0,-0.0982 -0.0692,-0.22288 -0.1539,-0.27704 -0.0846,-0.0541 -0.21525,-0.20927 -0.29024,-0.34471 -0.15666,-0.28299 -0.50943,-0.3885 -0.69121,-0.20672 -0.0835,0.0835 2.4e-4,0.18855 0.25568,0.32065 0.20893,0.10803 0.43887,0.30667 0.51098,0.44142 0.15289,0.28566 0.36869,0.32453 0.36869,0.0664 z m -11.07212,-0.10154 c -0.005,-0.0491 -0.009,-0.17238 -0.009,-0.27396 0,-0.10158 -0.0555,-0.18469 -0.12312,-0.18469 -0.0678,0 -0.12313,0.14313 -0.12313,0.31807 0,0.17496 0.0596,0.29823 0.13236,0.27396 0.0728,-0.0242 0.1282,-0.0842 0.12313,-0.13338 z m -1.733,-0.6536 c 0,-0.10723 -0.0658,-0.17301 -0.14622,-0.14621 -0.2283,0.0761 -0.26617,0.34116 -0.0487,0.34116 0.10723,0 0.19495,-0.0877 0.19495,-0.19495 z m 3.5457,-1.52134 c -0.0212,-0.18144 -0.12724,-0.33038 -0.25208,-0.35406 -0.18059,-0.0342 -0.21547,0.0534 -0.21547,0.54133 0,0.57887 0.002,0.58088 0.25208,0.35405 0.15674,-0.14184 0.23824,-0.34659 0.21547,-0.54132 z m -2.49913,0.34653 c 0.0816,-0.0802 0.0193,-0.20085 -0.18469,-0.35774 -0.40279,-0.30971 -0.54536,-0.25107 -0.59382,0.24429 -0.0381,0.38965 -0.0255,0.40275 0.30782,0.32039 0.19116,-0.0472 0.40297,-0.14035 0.47069,-0.20694 z m 4.17073,-0.75417 c 0.36029,-0.79799 0.36437,-0.93924 0.0296,-1.02327 -0.32375,-0.0813 -0.56807,0.005 -0.56807,0.19944 0,0.0637 0.0831,0.11585 0.18469,0.11585 0.2091,0 0.24766,0.19281 0.0615,0.30782 -0.15703,0.097 -0.1621,0.80032 -0.006,0.80032 0.0646,0 0.19865,-0.18007 0.29803,-0.40016 z m -1.213,-1.02376 c 0.14036,-0.85838 0.15693,-1.72034 0.0354,-1.84186 -0.12509,-0.12509 -0.73815,0.81237 -0.66164,1.01177 0.0415,0.10807 -6.1e-4,0.28543 -0.0935,0.39414 -0.32619,0.38165 -0.32648,0.6133 -9.4e-4,0.99982 0.17489,0.20783 0.37723,0.35811 0.44969,0.33397 0.0724,-0.0241 0.19455,-0.42817 0.27134,-0.89784 z m -1.83701,0.59093 c 0.30368,-0.20243 0.5694,-1.00779 0.48656,-1.47468 -0.0451,-0.25446 -0.0955,-0.85908 -0.11188,-1.34358 -0.0286,-0.84531 -0.22326,-1.35164 -0.46278,-1.20362 -0.0601,0.0371 -0.11086,0.24428 -0.11292,0.46036 -0.006,0.59132 -0.19572,0.16255 -0.29575,-0.66713 -0.11711,-0.97127 -0.008,-1.33088 0.39425,-1.29997 0.27906,0.0215 0.33793,0.108 0.47601,0.69973 0.0867,0.3714 0.15991,0.85533 0.16278,1.07542 0.007,0.536 0.4086,0.94903 0.7468,0.76803 0.30435,-0.16289 0.30381,-0.25143 -0.005,-0.77439 -0.14489,-0.24556 -0.25622,-0.67122 -0.26751,-1.02282 -0.0106,-0.33124 -0.088,-0.68535 -0.17188,-0.78693 -0.21374,-0.25879 -0.27275,-1.1369 -0.0807,-1.20092 0.084,-0.028 0.15263,-0.1386 0.15263,-0.24581 0,-0.10722 0.0366,-0.15837 0.0814,-0.11364 0.0836,0.0836 0.10766,0.23792 0.23207,1.49145 0.0751,0.75637 0.42123,1.42331 0.73874,1.42331 0.0954,0 0.26422,0.13851 0.37515,0.30782 0.29857,0.45566 0.3951,0.3773 0.3412,-0.27704 l -0.0481,-0.58485 0.23132,0.49593 c 0.12868,0.27589 0.37528,0.56153 0.5558,0.64378 0.30083,0.13706 0.32448,0.12658 0.32448,-0.14374 0,-0.45891 -0.37618,-2.3387 -0.4918,-2.45755 -0.0576,-0.0592 -0.14246,0.14736 -0.1896,0.46173 -0.0858,0.57174 -0.30361,0.79386 -0.30361,0.30952 0,-0.69596 -0.42826,-2.50179 -0.68198,-2.87568 -0.27642,-0.40732 -0.33224,-0.54814 -0.48038,-1.21213 -0.0604,-0.27083 -0.12804,-0.32942 -0.31252,-0.27088 -0.195,0.0619 -0.25033,-0.005 -0.3223,-0.38839 -0.0489,-0.26076 -0.025,-0.6946 0.0548,-0.99294 0.1923,-0.71898 0.17811,-1.29299 -0.039,-1.58012 -0.16357,-0.21626 -0.18116,-0.21849 -0.18469,-0.0236 -0.0107,0.58944 -0.49301,-0.24906 -0.49574,-0.86188 -9.4e-4,-0.30152 -0.2314,-0.1479 -0.27658,0.18469 l -0.046,0.3386 -0.15934,-0.36938 c -0.0876,-0.20316 -0.18901,-0.57924 -0.22528,-0.83576 -0.0762,-0.53875 -0.30886,-0.54792 -0.40502,-0.016 -0.0537,0.29701 -0.0803,0.32017 -0.15392,0.13368 -0.16001,-0.40567 -0.10098,-1.03632 0.10437,-1.11512 0.22277,-0.0855 0.19032,-0.64546 -0.0348,-0.60108 -0.15282,0.0301 -0.21429,-0.12576 -0.3372,-0.85506 -0.0993,-0.58923 -0.27168,-0.69186 -0.37464,-0.22305 -0.0641,0.2917 -0.13654,0.35919 -0.34862,0.32469 -0.18449,-0.03 -0.25462,-0.11548 -0.22557,-0.27484 0.0232,-0.12721 0.04,-0.3698 0.0373,-0.5391 -0.003,-0.1693 0.003,-0.94499 0.012,-1.72377 0.0281,-2.34608 -0.008,-2.64596 -0.47508,-3.89125 -0.24203,-0.64607 -0.40847,-1.20626 -0.36988,-1.24486 0.10576,-0.10575 0.80772,1.43743 0.89409,1.96561 0.12341,0.75462 0.31806,0.54207 0.22027,-0.24054 -0.0883,-0.70636 -0.6131,-2.14063 -0.96956,-2.64955 -0.10543,-0.15051 -0.19167,-0.50959 -0.19167,-0.79798 0,-0.45235 0.041,-0.53461 0.29874,-0.5993 0.16432,-0.0412 0.39636,-0.18283 0.51563,-0.31463 0.19307,-0.21334 0.19876,-0.28975 0.0518,-0.69614 -0.0908,-0.25108 -0.15625,-0.68985 -0.14546,-0.97503 0.0148,-0.39181 -0.0464,-0.58004 -0.25065,-0.77029 -0.14863,-0.13848 -0.31326,-0.25179 -0.36583,-0.25179 -0.12071,0 -0.33852,0.38341 -0.66451,1.16971 -0.14038,0.3386 -0.33329,0.61563 -0.42869,0.61563 -0.22932,0 -0.48447,-0.52101 -0.48674,-0.99386 -0.003,-0.56848 0.35989,-1.51746 0.63638,-1.66543 0.23259,-0.12448 0.23402,-0.14182 0.0301,-0.36711 -0.11769,-0.13004 -0.31986,-0.23644 -0.44925,-0.23644 -0.42669,0 -0.73128,-0.25947 -0.988,-0.84164 -0.13928,-0.31588 -0.3557,-0.64672 -0.48092,-0.73521 -0.12522,-0.0885 -0.22889,-0.28242 -0.23037,-0.43095 -0.002,-0.14852 -0.1123,-0.51157 -0.24626,-0.80678 -0.13395,-0.29521 -0.24355,-0.63046 -0.24355,-0.74499 0,-0.26907 -0.27911,-0.87078 -0.40449,-0.87203 -0.0532,0 -0.0361,0.11221 0.0379,0.25051 0.16086,0.30058 0.11212,1.12798 -0.07,1.18762 -0.0739,0.0242 -0.21942,-0.4431 -0.34192,-1.09862 -0.11726,-0.62744 -0.24587,-1.26546 -0.28579,-1.41782 -0.0536,-0.20459 -0.0195,-0.27704 0.13032,-0.27704 0.20911,0 0.24306,0.0598 0.37559,0.66094 0.15892,0.72098 0.21217,0.18317 0.0585,-0.59025 -0.12163,-0.61188 -0.19578,-0.77315 -0.3114,-0.6772 -0.19239,0.15968 -0.26679,0.0374 -0.37006,-0.60844 -0.0452,-0.28285 -0.12758,-0.54231 -0.18301,-0.57656 -0.16802,-0.10385 -0.35882,0.38891 -0.36875,0.95232 l -0.009,0.53137 -0.15882,-0.43094 c -0.12073,-0.32759 -0.22184,-0.42391 -0.42158,-0.40161 -0.21243,0.0237 -0.26275,-0.0364 -0.26275,-0.31397 0,-0.33946 -0.19081,-0.63881 -0.40718,-0.63881 -0.0614,0 -0.0793,0.0845 -0.0397,0.18758 0.0396,0.10319 0.0375,0.43874 -0.005,0.74571 -0.0555,0.4051 -0.11354,0.52107 -0.21162,0.42299 -0.16682,-0.16683 -0.10489,-1.72263 0.0774,-1.94477 0.0907,-0.1106 0.0872,-0.24995 -0.0119,-0.46752 -0.0777,-0.17049 -0.14123,-0.41557 -0.14123,-0.54463 0,-0.27347 -0.24932,-0.86188 -0.3652,-0.86188 -0.0436,0 -0.0663,0.84385 -0.0503,1.87525 0.0311,2.00448 -0.0262,2.23629 -0.52208,2.11181 -0.23638,-0.0593 -0.29373,-0.0255 -0.29373,0.17306 0,0.21003 0.0734,0.24304 0.4925,0.22165 0.42681,-0.0218 0.49251,0.009 0.49251,0.23444 0,0.14278 0.0549,0.31451 0.12204,0.38163 0.0671,0.0672 0.17334,0.39662 0.23603,0.7322 0.0981,0.52507 0.0908,0.57845 -0.0523,0.38276 -0.20038,-0.27404 -0.42704,-0.16709 -0.43384,0.20469 -0.005,0.24066 -0.0277,0.22992 -0.21547,-0.0996 l -0.21054,-0.36938 -0.0379,0.45652 c -0.0208,0.25107 0.0207,0.56602 0.0923,0.69987 0.0717,0.13385 0.13025,0.5003 0.13025,0.81433 0,0.34335 0.0737,0.64458 0.18469,0.75565 0.10295,0.10294 0.18469,0.40388 0.18469,0.67992 0,0.39358 0.0511,0.50861 0.24909,0.56038 0.20795,0.0544 0.24649,0.15926 0.23328,0.6349 -0.0142,0.5113 0.0528,0.99081 0.20627,1.47627 0.0417,0.13205 0.091,0.13628 0.23119,0.0199 0.14687,-0.12189 0.19136,-0.0865 0.25333,0.2016 0.0414,0.19221 0.15286,0.57109 0.24781,0.84197 0.20252,0.57781 0.23159,1.17132 0.11226,2.29178 -0.0593,0.55689 -0.0429,0.84134 0.0519,0.89993 0.0763,0.0471 0.13863,0.20313 0.13863,0.34669 0,0.32032 0.2162,1.02245 0.45736,1.48538 0.0988,0.18973 0.15002,0.42237 0.11372,0.51698 -0.0798,0.20804 0.20683,0.30729 0.76059,0.26335 0.50339,-0.04 0.66741,0.21148 0.61442,0.94176 l -0.0376,0.51859 -0.20598,-0.36938 c -0.1858,-0.33319 -0.21496,-0.34637 -0.29766,-0.13449 -0.0969,0.24821 0.11738,1.48981 0.34226,1.98339 0.0733,0.16074 0.21494,0.32364 0.31488,0.36199 0.14136,0.0542 0.16447,9.4e-4 0.10408,-0.23956 -0.0427,-0.17012 -0.10706,-0.57244 -0.14302,-0.89406 l -0.0654,-0.58476 0.37824,0.76953 c 0.20803,0.42325 0.39949,0.76955 0.42547,0.76955 0.026,0 0.0182,-0.3463 -0.0174,-0.76955 -0.0601,-0.71676 -0.0505,-0.75609 0.14168,-0.57357 0.12558,0.11932 0.23419,0.48056 0.27763,0.92345 0.0392,0.40011 0.11784,0.78684 0.17465,0.8594 0.0568,0.0725 0.16588,0.82054 0.24242,1.6622 0.0766,0.84165 0.24957,1.94584 0.38451,2.45374 0.13494,0.5079 0.30025,1.69915 0.36735,2.64722 0.11458,1.61884 0.1379,2.01441 0.19904,3.37572 0.0273,0.60862 0.1197,0.58881 0.34776,-0.0746 0.11088,-0.3225 0.12392,-0.67871 0.0462,-1.25976 -0.17815,-1.33087 -0.26794,-3.36209 -0.14528,-3.28626 0.11185,0.0692 0.27495,0.82995 0.31087,1.4501 0.0104,0.18058 0.0606,0.36988 0.11136,0.42067 0.13897,0.13899 0.1109,-1.81346 -0.0401,-2.78648 -0.18385,-1.18498 -0.0961,-1.43401 0.21491,-0.60975 0.19648,0.52075 0.27257,1.08964 0.32942,2.46253 0.0406,0.98193 0.11009,2.09635 0.1543,2.47647 0.0505,0.4339 0.0326,0.72071 -0.0482,0.77062 -0.14988,0.0926 -0.33079,-0.58944 -0.20872,-0.78695 0.0869,-0.14052 -0.14452,-0.49011 -0.32437,-0.49011 -0.17939,0 -0.12145,0.72506 0.0907,1.13535 0.18294,0.35377 0.18294,0.41117 0,0.72086 -0.21708,0.36749 -0.27379,1.46819 -0.0756,1.46819 0.0677,0 0.12313,-0.188 0.12313,-0.41776 0,-0.4406 0.29388,-0.69533 0.42075,-0.36471 0.0395,0.10284 0.0718,0.83728 0.0718,1.63209 0,0.95697 0.0656,1.6658 0.19403,2.09848 0.13412,0.4516 0.18249,1.02233 0.15663,1.84802 -0.041,1.31084 0.10587,1.7294 0.70243,2.00122 0.16572,0.0755 0.3013,0.19025 0.3013,0.25499 0,0.0647 0.10888,0.0892 0.24197,0.0544 0.1648,-0.0431 0.26561,0.0112 0.31611,0.17032 0.0769,0.24242 0.26715,0.29532 0.50108,0.13939 z m -1.53836,-1.75267 c -0.0811,-0.25661 -0.0844,-1.73185 -0.005,-1.86158 0.19168,-0.31012 0.22935,-0.0294 0.12674,0.94471 -0.0567,0.53814 -0.11181,0.95074 -0.12251,0.91687 z m 3.43423,-3.20128 c 0,-0.13544 0.0554,-0.24625 0.12313,-0.24625 0.0678,0 0.12312,0.11081 0.12312,0.24625 0,0.13544 -0.0554,0.24626 -0.12312,0.24626 -0.0677,0 -0.12313,-0.11082 -0.12313,-0.24626 z m -2.93102,-0.55407 c 0.003,-0.20316 0.0301,-0.27136 0.0613,-0.15157 0.0312,0.11981 0.0292,0.28602 -0.005,0.36938 -0.0337,0.0834 -0.0593,-0.0146 -0.0568,-0.21781 z m 2.65035,-1.33368 c -0.0488,-0.12405 -0.087,-0.31797 -0.0849,-0.43094 0.004,-0.18325 0.0175,-0.18175 0.13142,0.014 0.0702,0.12063 0.10844,0.31455 0.085,0.43094 -0.039,0.19324 -0.0504,0.19203 -0.13142,-0.014 z m -2.16121,-0.32224 c -0.0765,-0.21938 -0.0834,-0.37566 -0.0166,-0.37566 0.12737,0 0.30731,0.59154 0.20965,0.68921 -0.0342,0.0342 -0.12105,-0.10694 -0.19307,-0.31355 z m 1.23841,-0.46116 c -0.072,-0.19 -0.16264,-0.49173 -0.20143,-0.67053 -0.0426,-0.19623 -0.1476,-0.31825 -0.26496,-0.30782 -0.23927,0.0212 -0.5051,-0.6911 -0.61199,-1.63997 -0.0422,-0.37518 -0.15561,-1.11768 -0.25189,-1.64999 -0.0963,-0.53231 -0.17287,-1.11407 -0.17022,-1.29283 0.005,-0.30919 0.0145,-0.30405 0.2022,0.10595 0.10855,0.23701 0.23106,0.64806 0.27222,0.91342 0.0412,0.26537 0.14993,0.50742 0.24173,0.53788 0.12772,0.0424 0.1471,-0.0347 0.0826,-0.32857 -0.0584,-0.26604 -0.0383,-0.38397 0.0658,-0.38397 0.28312,0 0.47725,0.4314 0.48116,1.06934 0.002,0.35112 0.0575,0.77936 0.12301,0.95164 0.0655,0.17228 0.12771,0.52218 0.13823,0.77756 0.0105,0.25536 0.0776,0.81187 0.14896,1.23667 0.0893,0.53121 0.0902,0.81207 0.003,0.89952 -0.0875,0.0874 -0.16802,0.0193 -0.25804,-0.2183 z m -0.45881,-2.13078 -0.16367,-0.6772 -0.0104,0.56023 c -0.006,0.30813 0.0551,0.62579 0.13523,0.70593 0.21483,0.21483 0.21877,0.15523 0.0389,-0.58896 z m -0.22363,-1.0081 c -0.0393,-0.0982 -0.0685,-0.0691 -0.0744,0.0744 -0.006,0.12979 0.0237,0.20252 0.0646,0.1616 0.0409,-0.0409 0.0453,-0.14711 0.01,-0.236 z m -1.74247,1.91298 c -0.0454,-0.66697 -0.1664,-1.90528 -0.26891,-2.75177 -0.1025,-0.8465 -0.20559,-1.76071 -0.22908,-2.03159 -0.044,-0.50748 -0.33629,-1.93331 -0.53006,-2.58565 -0.0603,-0.20316 -0.0663,-0.4802 -0.0131,-0.61564 0.0553,-0.14089 0.10028,-0.17137 0.10524,-0.0712 0.005,0.0962 0.10561,0.28213 0.22412,0.41308 0.11851,0.13096 0.22695,0.38465 0.24098,0.56377 0.0766,0.97726 0.45274,2.82943 0.6288,3.09601 0.3866,0.58533 0.51539,0.89138 0.51539,1.2248 0,0.18412 0.0636,0.65161 0.1414,1.03885 0.10645,0.53005 0.10645,0.73904 0,0.84549 -0.10645,0.10644 -0.14277,0.0212 -0.14695,-0.34495 -0.003,-0.2675 -0.0792,-0.65257 -0.16909,-0.85573 l -0.16354,-0.36938 -0.0827,0.30781 c -0.0973,0.3626 -0.0971,0.44923 0.005,1.94837 0.0492,0.72522 0.0314,1.19454 -0.0483,1.27427 -0.0862,0.0862 -0.15237,-0.25822 -0.20874,-1.08649 z m 1.01195,0.90117 c -0.0508,-0.12405 -0.0888,-0.40109 -0.0845,-0.61564 0.008,-0.3807 0.0107,-0.38279 0.12879,-0.087 0.0665,0.16669 0.10459,0.44372 0.0845,0.61563 -0.0312,0.26743 -0.0497,0.28 -0.12879,0.087 z m 1.38517,-4.02232 c 0,-0.0678 0.0522,-0.12312 0.11586,-0.12312 0.0637,0 0.1501,0.0554 0.19195,0.12312 0.0418,0.0677 -0.0103,0.12313 -0.11585,0.12313 -0.10558,0 -0.19196,-0.0555 -0.19196,-0.12313 z m -0.72904,-0.81058 c 0.006,-0.14344 0.0351,-0.17261 0.0744,-0.0744 0.0356,0.0889 0.0311,0.19508 -0.01,0.23599 -0.0409,0.0409 -0.07,-0.0318 -0.0647,-0.1616 z m -1.77453,-2.34967 c -0.0451,-0.0451 -0.0821,-0.24368 -0.0821,-0.4412 0,-0.49022 0.29608,-0.37686 0.3464,0.13261 0.0361,0.36589 -0.0761,0.49686 -0.26432,0.30859 z m -1.12923,-2.46936 c -0.041,-0.25584 -0.094,-0.56206 -0.11779,-0.6805 -0.0579,-0.2886 0.14499,-0.40083 0.22606,-0.12504 0.16899,0.57489 0.21201,1.11882 0.0943,1.1916 -0.0761,0.047 -0.15818,-0.1094 -0.20254,-0.38606 z m -0.43037,-1.75798 c 0,-0.13544 0.0554,-0.24625 0.12313,-0.24625 0.0677,0 0.12312,0.11081 0.12312,0.24625 0,0.13544 -0.0554,0.24625 -0.12312,0.24625 -0.0678,0 -0.12313,-0.11081 -0.12313,-0.24625 z m 0.81417,-1.24442 c -0.14131,-0.45292 -0.16597,-0.73119 -0.0701,-0.79046 0.12036,-0.0744 0.30905,0.77652 0.19703,0.88856 -0.0404,0.0403 -0.0975,-0.004 -0.12696,-0.0981 z m -0.97294,-0.96342 c -0.28517,-0.90548 -0.26137,-1.17884 0.044,-0.50563 0.13706,0.30216 0.23063,0.69 0.20791,0.86188 -0.033,0.24972 -0.0836,0.17814 -0.25192,-0.35625 z m -2.32558,-0.0244 c -0.26016,-0.39983 -0.44475,-1.28989 -0.24148,-1.16425 0.0771,0.0477 0.14017,0.16371 0.14017,0.25793 0,0.0942 0.0874,0.22017 0.19404,0.27989 0.13185,0.0737 0.18117,0.24242 0.1539,0.5262 l -0.0402,0.41762 z m 3.1097,-0.17897 c 0.006,-0.14344 0.0351,-0.17261 0.0744,-0.0744 0.0356,0.0889 0.0312,0.19508 -0.01,0.236 -0.0409,0.0409 -0.07,-0.0318 -0.0647,-0.16161 z m -1.10814,-1.10814 c 0.006,-0.14343 0.0351,-0.1726 0.0744,-0.0744 0.0356,0.0889 0.0312,0.19507 -0.01,0.23599 -0.0409,0.0409 -0.07,-0.0318 -0.0647,-0.16161 z m -3.71164,-0.50363 c -0.0689,-0.18107 -0.0903,-0.48798 -0.0477,-0.68205 0.061,-0.27779 0.12757,-0.33696 0.3129,-0.27813 0.13143,0.0418 0.23541,0.0167 0.23541,-0.0567 0,-0.0722 0.0554,-0.13143 0.12312,-0.13143 0.0678,0 0.12313,0.1496 0.12313,0.33244 0,0.25856 -0.0328,0.2996 -0.14775,0.18469 -0.28022,-0.28022 -0.37306,-0.14999 -0.28962,0.40632 0.0939,0.62613 -0.10266,0.76894 -0.30952,0.22487 z m 4.34263,-1.52329 c -0.0827,-0.13237 -0.23293,-0.24065 -0.33393,-0.24065 -0.10101,0 -0.18365,-0.0555 -0.18365,-0.12313 0,-0.0678 0.0458,-0.12313 0.10166,-0.12313 0.13721,0 0.69384,0.59993 0.62266,0.67112 -0.0311,0.031 -0.12408,-0.0519 -0.20674,-0.18421 z m -4.1618,-0.78141 c -0.21425,-0.67967 -0.16954,-1.12039 0.1044,-1.02909 0.10218,0.0341 0.15466,0.32691 0.15626,0.87212 9.4e-4,0.45147 -0.01,0.82085 -0.0245,0.82085 -0.0148,0 -0.12108,-0.29874 -0.23617,-0.66388 z m 3.17219,0.38074 c -0.073,-0.088 -0.16975,-0.40661 -0.21491,-0.70798 -0.0735,-0.49018 -0.0623,-0.52848 0.10565,-0.36327 0.17261,0.16979 0.43071,1.23127 0.29937,1.23127 -0.0315,0 -0.11706,-0.0721 -0.19011,-0.16002 z m -5.10504,-11.08491 c -0.25806,-0.39383 -0.26673,-0.57521 -0.0275,-0.57521 0.10029,0 0.21651,0.13614 0.25828,0.30254 0.12054,0.48031 -7.5e-4,0.62368 -0.23075,0.27267 z m 12.47215,34.69323 c 0,-0.10557 -0.0555,-0.1577 -0.12313,-0.11586 -0.0677,0.0419 -0.12313,0.12824 -0.12313,0.19196 0,0.0637 0.0555,0.11586 0.12313,0.11586 0.0677,0 0.12313,-0.0864 0.12313,-0.19196 z m -6.15632,-1.40435 c 0,-0.35664 -0.0642,-0.52252 -0.23816,-0.61563 -0.57495,-0.30771 -0.77034,0.0372 -0.3794,0.66973 0.36584,0.59196 0.61756,0.56991 0.61756,-0.0541 z m 3.07815,-1.54341 c 0,-0.10158 -0.0554,-0.18469 -0.12312,-0.18469 -0.0677,0 -0.12313,0.0831 -0.12313,0.18469 0,0.10157 0.0554,0.18469 0.12313,0.18469 0.0678,0 0.12312,-0.0831 0.12312,-0.18469 z m -3.66404,-1.26205 c -0.0309,-0.0846 -0.10095,-0.15391 -0.15578,-0.15391 -0.14935,0 -0.20135,0.24177 -0.14078,0.65449 l 0.0541,0.36884 0.14925,-0.35776 c 0.0821,-0.19676 0.12401,-0.42701 0.0932,-0.51166 z m 0.70713,0.0616 c 9.4e-4,-0.1185 -0.0536,-0.21547 -0.12124,-0.21547 -0.0678,0 -0.12228,0.18007 -0.12125,0.40016 0.002,0.30366 0.0307,0.35563 0.12125,0.21548 0.0657,-0.10158 0.1202,-0.28165 0.12124,-0.40017 z m 4.89839,-4.3027 c -0.0536,-0.16064 -0.71021,-0.379 -0.71021,-0.23617 0,0.16766 0.29673,0.38336 0.52739,0.38336 0.12754,0 0.20981,-0.0662 0.18282,-0.14719 z m -6.73185,-4.81557 c -0.0975,-0.0975 -0.13468,-0.0655 -0.13468,0.11568 0,0.32552 0.17219,0.49831 0.22702,0.22781 0.0233,-0.11485 -0.0183,-0.26941 -0.0923,-0.34349 z m -0.99656,-3.77922 c 0,-0.0677 -0.0586,-0.12312 -0.13039,-0.12312 -0.0717,0 -0.0962,0.0554 -0.0543,0.12312 0.0418,0.0677 0.10053,0.12313 0.13039,0.12313 0.0298,0 0.0543,-0.0555 0.0543,-0.12313 z m 4.62118,-1.26204 c 0.0318,-0.0846 -9.4e-4,-0.54175 -0.0736,-1.0158 -0.0722,-0.47403 -0.14152,-1.00895 -0.15398,-1.18871 -0.0125,-0.17977 -0.066,-0.3001 -0.11881,-0.26741 -0.0529,0.0326 -0.0708,0.53991 -0.0399,1.12716 0.031,0.58725 0.0604,1.16468 0.0654,1.2832 0.0104,0.24762 0.23482,0.29068 0.32083,0.0616 z m -0.18863,-3.13356 c 0,-0.24761 -0.0356,-0.29685 -0.13948,-0.19297 -0.0768,0.0767 -0.10615,0.2263 -0.0654,0.33244 0.11272,0.29373 0.2049,0.23098 0.2049,-0.13947 z m -0.44699,-1.42212 c 0.11775,-0.43936 0.0911,-0.58484 -0.10708,-0.58484 -0.12899,0 -0.18469,0.12997 -0.18469,0.43094 0,0.48354 0.17824,0.57756 0.29177,0.1539 z m -6.87904,-3.04738 c -0.0418,-0.0677 -0.12823,-0.12312 -0.19195,-0.12312 -0.0637,0 -0.11586,0.0555 -0.11586,0.12312 0,0.0677 0.0864,0.12313 0.19196,0.12313 0.10557,0 0.15771,-0.0554 0.11585,-0.12313 z m 7.69541,-1.23126 c 0,-0.0677 -0.0587,-0.12313 -0.1304,-0.12313 -0.0717,0 -0.0962,0.0555 -0.0543,0.12313 0.0418,0.0677 0.10052,0.12313 0.13039,0.12313 0.0298,0 0.0543,-0.0555 0.0543,-0.12313 z m -3.07816,-2.70877 c 0,-0.0678 -0.0554,-0.12313 -0.12313,-0.12313 -0.0677,0 -0.12313,0.0554 -0.12313,0.12313 0,0.0677 0.0555,0.12312 0.12313,0.12312 0.0677,0 0.12313,-0.0554 0.12313,-0.12312 z m -2.03402,-4.56335 c -0.0749,-0.23583 -0.10517,-0.24884 -0.19712,-0.0845 -0.13821,0.24697 5e-4,0.64837 0.16657,0.48225 0.0655,-0.0655 0.0792,-0.24443 0.0306,-0.39772 z m -4.49168,0.11958 c 0,-0.23335 -0.37377,-1.01046 -0.44955,-0.93467 -0.11438,0.11438 0.21621,1.19869 0.34179,1.12107 0.0593,-0.0366 0.10776,-0.12051 0.10776,-0.1864 z m -1.84689,-0.16622 c 0,-0.0298 -0.0555,-0.0886 -0.12313,-0.13038 -0.0678,-0.0419 -0.12313,-0.0174 -0.12313,0.0543 0,0.0717 0.0554,0.13039 0.12313,0.13039 0.0677,0 0.12313,-0.0244 0.12313,-0.0543 z m 7.22543,-1.20004 c -0.0393,-0.0982 -0.0685,-0.0691 -0.0744,0.0744 -0.006,0.12979 0.0237,0.20251 0.0647,0.1616 0.0409,-0.0409 0.0453,-0.14711 0.01,-0.23599 z m -5.91146,-2.24171 c -0.20883,-1.61505 -0.38646,-1.88459 -0.52314,-0.79381 -0.0538,0.42941 -0.0856,0.82816 -0.0707,0.88608 0.0149,0.0579 -0.0341,0.17912 -0.10896,0.26936 -0.10474,0.12619 -0.0276,0.27937 0.33427,0.66371 0.25874,0.2748 0.48589,0.45352 0.50479,0.39712 0.0189,-0.0564 -0.0424,-0.6965 -0.13632,-1.42246 z m -1.68998,-0.0438 c -0.0496,-0.82383 -0.021,-0.9161 0.24057,-0.77612 0.27199,0.14557 0.42916,-0.0868 0.2523,-0.37293 -0.0849,-0.13738 -0.13774,-0.14138 -0.25949,-0.0196 -0.20758,0.20758 -0.34988,0.19224 -0.34988,-0.0377 0,-0.10482 0.1469,-0.31696 0.32646,-0.4714 0.26007,-0.22371 0.30967,-0.3477 0.24391,-0.60972 -0.11111,-0.44265 -0.34693,-0.41457 -0.59829,0.0712 -0.16068,0.31056 -0.19754,0.64828 -0.1646,1.5083 0.0488,1.27284 0.0309,1.16969 0.2031,1.16969 0.0774,0 0.12201,-0.19455 0.10592,-0.46172 z m 4.01618,0.30782 c -0.15053,-0.50486 -0.20314,-0.59291 -0.31352,-0.52467 -0.0759,0.0469 -0.0474,0.19069 0.0749,0.37717 0.21587,0.32948 0.31033,0.38784 0.23867,0.1475 z m 1.77738,-1.07736 c 0,-0.0677 -0.0831,-0.12313 -0.18469,-0.12313 -0.10158,0 -0.18469,0.0555 -0.18469,0.12313 0,0.0677 0.0831,0.12312 0.18469,0.12312 0.10158,0 0.18469,-0.0554 0.18469,-0.12312 z m -1.66602,-0.56966 c 0.12137,-0.16598 0.194,-0.17482 0.42427,-0.0516 0.36767,0.19678 0.43836,0.0999 0.23624,-0.32365 -0.10899,-0.22843 -0.27679,-0.36082 -0.48854,-0.38543 -0.1774,-0.0206 -0.44983,-0.17299 -0.6054,-0.33859 -0.41005,-0.43649 -0.73246,-0.39927 -0.73246,0.0845 0,0.84916 0.78644,1.53365 1.16589,1.01473 z m 2.22342,0.0718 c 0.0983,-0.15898 -0.17515,-0.50961 -0.32509,-0.41693 -0.0601,0.0371 -0.10918,0.17502 -0.10918,0.30647 0,0.25234 0.2995,0.32853 0.43427,0.11046 z m 1.12502,-0.18757 c 0.0407,-0.10613 0.0113,-0.25573 -0.0654,-0.33244 -0.10174,-0.10175 -0.13947,-0.10224 -0.13947,-0.002 0,0.0757 -0.0336,0.22533 -0.0748,0.33244 -0.0412,0.10731 -0.0118,0.19477 0.0654,0.19477 0.0771,0 0.17348,-0.0868 0.2142,-0.19297 z m -6.0563,-1.40337 c -0.0469,-0.23939 -0.10286,-0.89714 -0.12441,-1.46167 -0.0468,-1.227 -0.11237,-1.46125 -0.35286,-1.26165 -0.12652,0.10499 -0.14249,0.25669 -0.0631,0.59871 0.16587,0.71409 0.14459,1.83248 -0.0315,1.65638 -0.14664,-0.14664 -0.43953,-0.85563 -0.55706,-1.34844 -0.0358,-0.1503 -0.14214,-0.33715 -0.23622,-0.41523 -0.13984,-0.11604 -0.17456,-0.0661 -0.19021,0.27328 -0.0105,0.22838 -0.008,0.53969 0.005,0.69178 0.0331,0.38569 -0.21332,0.80342 -0.42582,0.72187 -0.12664,-0.0486 -0.17525,0.0313 -0.17525,0.2882 0,0.45502 0.11804,0.76265 0.25915,0.67543 0.0606,-0.0374 0.11023,-0.22339 0.11023,-0.41315 0,-0.30812 0.0362,-0.33896 0.3386,-0.28818 0.70491,0.11838 1.01636,0.32128 0.99296,0.64686 -0.0122,0.16978 0.0532,0.44721 0.14543,0.61651 l 0.16762,0.30781 0.11152,-0.42662 c 0.0614,-0.23466 0.0732,-0.62251 0.0263,-0.86189 z m 3.72752,-0.15822 c -0.0281,-0.0846 -0.1509,-0.17322 -0.27271,-0.19684 -0.19185,-0.0372 -0.19872,-0.0173 -0.0513,0.14923 0.20571,0.23237 0.39485,0.26016 0.32407,0.0476 z m -2.1233,-0.58594 c 0.0991,-0.16035 -0.044,-0.61454 -0.19367,-0.61454 -0.0631,0 -0.11482,0.16622 -0.11482,0.36938 0,0.36338 0.15788,0.48885 0.30849,0.24516 z m 2.95435,-0.36828 c 0.12393,-0.23965 0.14278,-0.36938 0.0537,-0.36938 -0.17599,0 -0.60334,0.52315 -0.52753,0.64579 0.11471,0.18563 0.28685,0.0852 0.47385,-0.27641 z m -6.71038,-0.40949 c 0,-0.15748 -0.13852,-0.41649 -0.30782,-0.57552 -0.34909,-0.32796 -0.4018,-0.18321 -0.17264,0.47413 0.15804,0.45336 0.48046,0.5214 0.48046,0.10139 z m 2.59813,-0.36605 c -0.22314,-0.22313 -0.30781,0.0173 -0.13205,0.37486 l 0.1667,0.33911 0.0484,-0.29123 c 0.0267,-0.16019 -0.0107,-0.35042 -0.083,-0.42274 z m 2.20379,0.40616 c 0,-0.0677 -0.0586,-0.12313 -0.13039,-0.12313 -0.0717,0 -0.0961,0.0554 -0.0543,0.12313 0.0418,0.0677 0.10052,0.12312 0.13039,0.12312 0.0298,0 0.0543,-0.0555 0.0543,-0.12312 z m -1.77649,-1.20049 c -0.0447,-0.18623 -0.12745,-0.5493 -0.1837,-0.80683 -0.0563,-0.25754 -0.2243,-0.59814 -0.37343,-0.75688 -0.1913,-0.20363 -0.25929,-0.40665 -0.23082,-0.68927 0.0376,-0.37334 0.005,-0.41262 -0.48294,-0.57698 -0.55257,-0.18624 -0.60253,-0.27022 -0.39333,-0.6611 0.17584,-0.32857 0.0438,-0.68406 -0.2861,-0.77033 -0.25741,-0.0673 -0.2598,-0.0792 -0.0472,-0.23462 0.17892,-0.13082 0.2066,-0.25589 0.13781,-0.6226 -0.0474,-0.25238 -0.1802,-0.52678 -0.29522,-0.60978 -0.17068,-0.12315 -0.20837,-0.3546 -0.20501,-1.25902 0.005,-1.16157 -0.13619,-1.61418 -0.64369,-2.07346 -0.33268,-0.30106 -0.63843,-0.22283 -0.90362,0.23122 -0.19657,0.33658 -0.20147,0.43587 -0.0498,1.01061 0.14328,0.54318 0.14267,0.6585 -0.004,0.78035 -0.22631,0.18782 -0.22413,1.15154 0.003,1.37878 0.25003,0.25003 0.11723,1.21274 -0.16105,1.16742 -0.13887,-0.0226 -0.19904,0.0607 -0.19904,0.27541 0,0.1693 -0.0627,0.36323 -0.13928,0.43094 -0.0766,0.0677 -0.17397,0.35702 -0.21636,0.6429 -0.0947,0.63874 0.0712,0.61279 0.59473,-0.093 0.19921,-0.2686 0.42869,-0.48834 0.50994,-0.48834 0.21055,0 0.31901,-0.54315 0.18096,-0.90625 -0.12901,-0.33934 -0.0415,-1.16065 0.14952,-1.40331 0.094,-0.11945 0.19304,-0.0837 0.43327,0.15652 0.27356,0.27358 0.29283,0.346 0.15871,0.59661 -0.19849,0.37088 0.0218,1.26707 0.33175,1.35013 0.17981,0.0481 0.17058,0.0708 -0.0592,0.1448 -0.25549,0.0823 -0.26845,0.14187 -0.21071,0.96726 0.0765,1.09299 0.15463,1.38026 0.32826,1.20663 0.0895,-0.0895 0.0821,-0.241 -0.0241,-0.49747 -0.14745,-0.35598 -0.0998,-0.62991 0.10954,-0.62991 0.0555,0 0.16977,0.16622 0.25393,0.36938 0.16809,0.40582 0.32938,0.47735 0.39113,0.17349 0.0267,-0.13182 0.17071,-0.01 0.43997,0.37297 0.46462,0.66051 0.4927,0.80793 0.15391,0.80793 -0.35155,0 -0.30444,0.19585 0.12313,0.51197 0.20315,0.15021 0.36937,0.36425 0.36937,0.47567 0,0.24988 0.1092,0.36675 0.34269,0.36675 0.13241,0 0.15749,-0.0874 0.0971,-0.3386 z m -2.4098,-3.36246 c 0,-0.0717 0.0554,-0.0961 0.12313,-0.0543 0.0677,0.0418 0.12312,0.10054 0.12312,0.1304 0,0.0298 -0.0554,0.0543 -0.12312,0.0543 -0.0677,0 -0.12313,-0.0586 -0.12313,-0.13039 z m 3.69303,3.36246 c -3.7e-4,-0.11851 -0.0798,-0.3669 -0.17631,-0.55198 -0.10192,-0.19538 -0.12742,-0.36626 -0.0608,-0.40743 0.2043,-0.12626 0.12157,-0.60852 -0.13151,-0.76656 -0.16909,-0.1056 -0.24626,-0.28714 -0.24626,-0.57936 0,-0.29955 -0.0729,-0.46459 -0.24624,-0.55736 -0.1415,-0.0757 -0.24625,-0.2578 -0.24625,-0.42801 0,-0.35453 -0.21773,-0.52837 -0.32187,-0.25698 -0.0882,0.22971 -0.29409,0.25682 -0.29301,0.0386 3.7e-4,-0.0846 0.0851,-0.31573 0.18829,-0.51352 0.11151,-0.21385 0.14249,-0.40467 0.0764,-0.47074 -0.0661,-0.066 -0.14085,0.008 -0.18446,0.18107 -0.0435,0.1735 -0.24997,0.37642 -0.50811,0.49953 -0.23913,0.11403 -0.43478,0.26251 -0.43478,0.32995 0,0.0675 0.22163,0.23567 0.4925,0.37387 0.45097,0.23008 0.49251,0.29291 0.49251,0.74512 0,0.35747 0.0595,0.5162 0.21547,0.57472 0.33368,0.12521 0.51616,0.43345 0.39292,0.66372 -0.0767,0.14327 -0.0341,0.26856 0.14694,0.4324 0.14019,0.12688 0.33375,0.38318 0.43014,0.56956 0.19784,0.3826 0.41555,0.44745 0.41442,0.12342 z m 1.20739,-0.0554 c 0.20545,-0.20543 0.18473,-0.46787 -0.037,-0.46787 -0.10159,0 -0.18469,0.0508 -0.18469,0.11305 0,0.0622 -0.0336,0.20069 -0.0748,0.30782 -0.0882,0.22978 0.0859,0.2574 0.29636,0.047 z m -4.33877,-0.55409 c -0.0572,-0.14903 -0.11314,-0.1653 -0.21572,-0.0627 -0.10257,0.10257 -0.0947,0.19125 0.0303,0.34191 0.19096,0.23009 0.31129,0.0489 0.18539,-0.2792 z m 5.06314,0.0631 c -0.0393,-0.0982 -0.0685,-0.0691 -0.0744,0.0744 -0.006,0.12979 0.0237,0.20252 0.0647,0.1616 0.0409,-0.0409 0.0453,-0.14711 0.01,-0.236 z m 1.68419,0.0846 c -0.039,-0.10158 -0.0926,-0.18469 -0.11926,-0.18469 -0.0267,0 -0.0484,0.0831 -0.0484,0.18469 0,0.10157 0.0537,0.18469 0.11927,0.18469 0.0656,0 0.0874,-0.0831 0.0484,-0.18469 z m -7.30898,-0.16116 c 0,-0.22377 -0.33976,-0.54887 -0.48185,-0.46106 -0.11236,0.0694 -0.0969,0.15112 0.062,0.32662 0.21987,0.24296 0.41987,0.307 0.41987,0.13444 z m -1.92077,-0.61864 c -0.062,-0.72316 -0.059,-0.71532 -0.17238,-0.45146 -0.15978,0.37181 -0.14392,0.70464 0.0308,0.6464 0.0846,-0.0282 0.14836,-0.11594 0.14159,-0.19494 z m 7.45709,0.13338 c -0.003,-0.0508 -0.0835,-0.23086 -0.18033,-0.40016 -0.0968,-0.1693 -0.17792,-0.54694 -0.18032,-0.8392 -0.005,-0.60979 -0.1786,-1.00769 -0.43964,-1.00769 -0.23814,0 -0.23141,0.41998 0.01,0.62028 0.10467,0.0869 0.15812,0.24179 0.1188,0.34426 -0.12885,0.33578 0.0721,1.23488 0.28876,1.29248 0.33227,0.0883 0.38738,0.0869 0.3828,-0.01 z m 1.44716,-1.53763 c 0.13553,-0.50774 0.0245,-0.91686 -0.20958,-0.77219 -0.23683,0.14637 -0.24839,1.29403 -0.013,1.29403 0.0459,0 0.14601,-0.23482 0.22262,-0.52184 z m -3.53595,0.0366 c 0,-0.0637 -0.0554,-0.1501 -0.12312,-0.19195 -0.0677,-0.0419 -0.12313,0.0102 -0.12313,0.11586 0,0.10556 0.0554,0.19195 0.12313,0.19195 0.0677,0 0.12312,-0.0522 0.12312,-0.11586 z m -4.18629,-0.81485 c 0,-0.0976 -0.0554,-0.17743 -0.12313,-0.17743 -0.0677,0 -0.12312,0.11409 -0.12312,0.25352 0,0.13944 0.0554,0.21928 0.12312,0.17743 0.0677,-0.0419 0.12313,-0.15594 0.12313,-0.25352 z M 52.85188,230.94 c 0.0986,-0.11875 0.10333,-0.19897 0.0151,-0.25351 -0.17193,-0.10626 -0.37537,0.0292 -0.37537,0.24982 0,0.22607 0.17425,0.22785 0.36029,0.004 z m -1.39412,-0.64998 -0.18756,-0.34599 -0.005,0.31398 c -0.003,0.17268 0.0636,0.38254 0.14745,0.46634 0.23096,0.23097 0.25902,-0.0396 0.045,-0.43433 z m -5.49186,-0.22286 c 0,-0.1693 -0.0554,-0.30782 -0.12313,-0.30782 -0.0677,0 -0.12312,-0.19392 -0.12312,-0.43094 0,-0.37759 0.0381,-0.43094 0.30781,-0.43094 0.36726,0 0.39592,-0.13199 0.0725,-0.33397 -0.19283,-0.12043 -0.22292,-0.24249 -0.16662,-0.67603 0.0378,-0.29099 0.14368,-0.57339 0.23531,-0.62755 0.21287,-0.12579 0.218,-0.57873 0.007,-0.57873 -0.088,0 -0.22656,0.0665 -0.30782,0.14775 -0.11492,0.11492 -0.14775,0.0927 -0.14775,-0.0998 0,-0.13613 0.15747,-0.41039 0.34994,-0.60948 0.19246,-0.19908 0.38568,-0.5455 0.4294,-0.7698 0.0776,-0.39815 0.0702,-0.40694 -0.31206,-0.36938 -0.32567,0.032 -0.40885,0.10577 -0.49449,0.43862 -0.12343,0.47971 -0.25399,0.50693 -0.44289,0.0923 -0.0926,-0.20329 -0.24014,-0.30782 -0.43435,-0.30782 -0.27685,0 -0.29272,0.0392 -0.27065,0.66915 0.0129,0.36802 0.0936,0.75361 0.17922,0.85684 0.099,0.11929 0.12503,0.32766 0.0714,0.57173 -0.0464,0.21123 -0.0478,0.57879 -0.003,0.81678 0.0721,0.38401 0.11497,0.42426 0.38128,0.35741 0.21192,-0.0532 0.3001,-0.0242 0.3001,0.0985 0,0.0956 -0.0751,0.20266 -0.16685,0.23788 -0.0918,0.0352 -0.20118,0.27564 -0.24315,0.5343 -0.0665,0.41016 -0.0334,0.50541 0.25919,0.74504 0.44101,0.36118 0.64332,0.35357 0.64332,-0.0242 z m 9.0219,-0.33859 c 0.0349,-0.22647 -0.005,-0.48034 -0.0904,-0.58486 -0.0836,-0.10158 -0.18999,-0.29091 -0.23637,-0.42075 -0.0594,-0.16625 -0.1229,-0.19748 -0.21481,-0.10556 -0.0915,0.0915 -0.0918,0.20283 -8.6e-4,0.37266 0.0713,0.13319 0.0969,0.44387 0.0568,0.69041 -0.0635,0.39149 -0.0413,0.44825 0.17565,0.44825 0.18551,0 0.26399,-0.1013 0.31001,-0.40015 z m -3.72935,-0.0616 c -0.003,-0.37221 -0.2108,-0.60609 -0.38408,-0.43282 -0.11788,0.11788 -0.10172,0.20329 0.0755,0.39914 0.27542,0.30433 0.31096,0.30821 0.30856,0.0337 z m -0.45984,-0.62265 c 0.3029,-0.26014 0.26791,-0.50242 -0.0923,-0.63939 -0.38894,-0.14787 -0.38724,-0.22214 0.008,-0.37263 0.4334,-0.16477 0.38043,-0.67394 -0.0701,-0.67394 -0.31414,0 -0.36285,-0.1521 -0.18632,-0.5819 0.0657,-0.1599 -0.024,-0.2782 -0.36234,-0.4778 -0.36127,-0.21316 -0.44225,-0.32864 -0.4122,-0.58779 0.0354,-0.30541 0.0722,-0.3216 0.69192,-0.30499 0.53054,0.0143 0.64131,-0.0168 0.58485,-0.16398 -0.0383,-0.0998 -0.0696,-0.29267 -0.0696,-0.42853 0,-0.22216 -0.0526,-0.23825 -0.52329,-0.16002 -0.2878,0.0478 -0.56759,0.16352 -0.62174,0.25707 -0.0541,0.0935 -0.17477,0.1701 -0.26801,0.1701 -0.23958,0 -0.28849,0.36502 -0.10859,0.81044 0.0843,0.20873 0.19114,0.66487 0.2374,1.01368 0.0709,0.53495 0.051,0.64691 -0.12799,0.71557 -0.16233,0.0623 -0.19446,0.16965 -0.13691,0.4574 0.0941,0.47045 0.41535,0.97334 0.56335,0.88187 0.0614,-0.0379 0.17251,0.0449 0.24703,0.18421 0.13777,0.25744 0.25123,0.24 0.6464,-0.0994 z m 3.01176,-0.52174 c 0.15299,-0.40532 0.0799,-1.18384 -0.12279,-1.30915 -0.0689,-0.0425 -0.19154,0.0133 -0.2726,0.12421 -0.18782,0.25684 -0.30775,0.13737 -0.30775,-0.30658 0,-0.21446 -0.0944,-0.40677 -0.24626,-0.5016 -0.13544,-0.0845 -0.24625,-0.27071 -0.24625,-0.41361 0,-0.35407 -0.24392,-1.0537 -0.45134,-1.29456 -0.0936,-0.10871 -0.13697,-0.28431 -0.0963,-0.39021 0.0406,-0.1059 -0.0198,-0.33555 -0.13432,-0.51031 -0.20552,-0.31368 -0.20406,-0.31776 0.11378,-0.31776 0.17709,0 0.32197,-0.0174 0.32197,-0.0387 0,-0.0212 -0.13146,-0.31099 -0.29213,-0.6439 -0.26597,-0.5511 -0.27569,-0.63038 -0.10856,-0.88545 0.14888,-0.22722 0.15421,-0.31553 0.0282,-0.46734 -0.13844,-0.16681 -0.18024,-0.16465 -0.38395,0.0197 -0.12573,0.11378 -0.2286,0.33633 -0.2286,0.49456 0,0.15823 -0.11082,0.35689 -0.24626,0.44149 -0.35838,0.22381 -0.33944,0.98604 0.0308,1.23823 0.26343,0.17943 0.26654,0.19951 0.0632,0.40906 -0.20316,0.20943 -0.20073,0.23424 0.0489,0.49991 0.22321,0.23758 0.238,0.30919 0.0986,0.47721 -0.13733,0.16547 -0.13525,0.21591 0.0127,0.30954 0.0972,0.0616 0.26021,0.11271 0.36218,0.11374 0.10406,9.4e-4 0.31198,0.28549 0.47388,0.6483 0.60642,1.35888 0.78221,1.69298 0.89077,1.69298 0.0617,0 0.11215,-0.0622 0.11215,-0.13819 0,-0.092 0.0655,-0.0839 0.1958,0.0243 0.17814,0.14784 0.17628,0.17679 -0.0207,0.32082 -0.18069,0.13213 -0.19315,0.20959 -0.0754,0.46821 0.18571,0.40757 0.30812,0.391 0.48023,-0.0649 z m -1.60661,-0.64093 c -0.0341,-0.0846 -0.0621,-0.0154 -0.0621,0.1539 0,0.1693 0.028,0.23856 0.0621,0.15391 0.0341,-0.0846 0.0341,-0.22316 0,-0.30781 z m -7.68459,-0.52329 c -0.0454,-0.18176 -0.43236,-0.14966 -0.49597,0.0411 -0.0375,0.11262 0.0367,0.15133 0.236,0.12312 0.15991,-0.0226 0.27689,-0.0965 0.25997,-0.16426 z m -0.56487,-2.06237 c -0.0342,-0.0846 -0.0621,-0.0154 -0.0621,0.1539 0,0.16931 0.028,0.23857 0.0621,0.15392 0.0341,-0.0846 0.0341,-0.22317 0,-0.30782 z m 0.65721,-0.65368 c 0,-0.0976 -0.0831,-0.17742 -0.18469,-0.17742 -0.20714,0 -0.21553,0.0226 -0.11023,0.29704 0.0865,0.2254 0.29492,0.14087 0.29492,-0.11962 z m 3.20129,-0.0953 c 0,-0.26527 -0.13345,-0.32398 -0.38266,-0.16834 -0.32122,0.2006 -0.29154,0.33251 0.0749,0.33251 0.17443,0 0.30782,-0.0711 0.30782,-0.16417 z m -0.86189,-1.0206 c 0,-0.28873 -0.0568,-0.41587 -0.18585,-0.41587 -0.14244,0 -0.17839,0.12676 -0.15391,0.54267 0.0246,0.41748 0.0675,0.51341 0.18585,0.41587 0.0846,-0.0697 0.15391,-0.31395 0.15391,-0.54267 z m 2.95504,-0.50097 c 0,-0.31779 -0.008,-0.32156 -0.18078,-0.0923 -0.23265,0.30758 -0.23372,0.42369 -0.004,0.42369 0.11841,0 0.18469,-0.1189 0.18469,-0.33135 z m -3.44754,-0.34584 c -0.0843,-0.10158 -0.22961,-0.18469 -0.3229,-0.18469 -0.0933,0 -0.16961,0.0831 -0.16961,0.18469 0,0.11722 0.11796,0.18469 0.32289,0.18469 0.27306,0 0.29923,-0.0285 0.16962,-0.18469 z m 1.80393,-1.02741 c -0.0472,-0.50804 -0.22915,-1.20484 -0.45812,-1.75455 -0.20889,-0.5015 -0.45362,-1.24428 -0.54387,-1.6506 -0.0903,-0.40631 -0.23372,-1.04349 -0.31884,-1.41595 -0.0882,-0.38598 -0.29155,-0.82758 -0.47284,-1.02691 l -0.31808,-0.34971 0.30782,0.0419 c 0.20916,0.0284 0.32042,0.13069 0.34715,0.31894 0.0217,0.15236 0.12258,0.27703 0.22429,0.27703 0.11968,0 0.17305,-0.0977 0.15125,-0.27703 -0.0185,-0.15237 0.0679,-0.53961 0.19208,-0.86052 0.15409,-0.39824 0.18704,-0.63278 0.10374,-0.73876 -0.0671,-0.0854 -0.22246,-0.43231 -0.34521,-0.77091 -0.12277,-0.33859 -0.26185,-0.67104 -0.30907,-0.73876 -0.0472,-0.0677 -0.12227,-0.32533 -0.16675,-0.57247 -0.0856,-0.47541 -0.35054,-0.79248 -0.55609,-0.66545 -0.0677,0.0418 -0.0917,0.15816 -0.0532,0.25843 0.0914,0.23818 -0.17178,0.54855 -0.46517,0.54855 -0.32165,0 -0.29835,-0.43148 0.0359,-0.66563 0.24451,-0.17127 0.25493,-0.22776 0.12313,-0.66768 -0.0792,-0.26433 -0.14492,-0.69579 -0.14606,-0.95881 -9.4e-4,-0.26529 -0.19693,-0.94423 -0.43968,-1.52479 -1.12888,-2.69982 -1.30253,-3.35301 -1.36339,-5.1285 -0.0436,-1.27361 -0.11037,-1.76817 -0.2927,-2.16983 -0.12988,-0.2861 -0.2391,-0.74183 -0.2427,-1.0127 -0.004,-0.29855 -0.12601,-0.68647 -0.30988,-0.98502 -0.16685,-0.27087 -0.30539,-0.60332 -0.3079,-0.73876 -0.003,-0.13543 -0.0858,-0.3538 -0.18532,-0.48525 -0.0994,-0.13146 -0.18077,-0.36713 -0.18077,-0.52374 0,-0.15659 -0.11081,-0.49149 -0.24625,-0.74417 -0.13544,-0.25271 -0.24625,-0.58673 -0.24625,-0.74227 0,-0.15555 -0.0867,-0.48882 -0.19273,-0.74058 -0.1754,-0.41665 -0.20713,-0.4383 -0.35316,-0.24094 -0.14178,0.19161 -0.17836,0.19526 -0.31432,0.0314 -0.0846,-0.10197 -0.12449,-0.29774 -0.0886,-0.43505 0.0734,-0.28071 -0.2322,-0.98292 -0.427784,-0.98292 -0.06999,0 -0.09919,-0.0732 -0.06484,-0.16265 0.03434,-0.0894 -0.0136,-0.45554 -0.106409,-0.8135 -0.142121,-0.54787 -0.241512,-1.59756 -0.29231,-3.08702 -0.0075,-0.22986 -0.03828,-0.26387 -0.120343,-0.1343 -0.06043,0.0954 -0.0805,0.26166 -0.04457,0.36938 0.103144,0.30926 -0.314303,-0.29258 -0.474795,-0.68451 -0.079,-0.193 -0.158221,-0.54481 -0.175992,-0.78183 -0.01773,-0.23702 -0.07196,-0.66643 -0.120408,-0.95423 -0.05451,-0.32409 -0.04147,-0.52329 0.03443,-0.52329 0.282749,0 -0.13999,-1.37687 -0.88968,-2.89772 -0.583909,-1.18452 -0.961752,-1.78116 -1.442514,-2.27783 -0.358261,-0.37012 -0.912171,-0.96384 -1.230922,-1.31937 -0.56318,-0.62817 -0.836414,-0.79348 -0.836414,-0.50599 0,0.0772 -0.119386,0.37948 -0.265306,0.67166 -0.261103,0.52279 -0.261957,0.54452 -0.05405,1.36788 0.116205,0.46015 0.229333,1.00286 0.251401,1.20602 0.144579,1.33134 0.239194,1.75711 0.447575,2.01408 0.133113,0.16416 0.313008,0.26055 0.413948,0.22181 0.23531,-0.0903 0.472946,-0.99473 0.376604,-1.43334 -0.06615,-0.30108 -0.02374,-0.37269 0.32302,-0.54567 0.219528,-0.10951 0.440575,-0.1567 0.491233,-0.10487 0.115173,0.11787 0.164517,0.91805 0.133,2.15661 -0.02364,0.92928 -0.03237,0.95422 -0.332111,0.95422 -0.478942,0 -0.395848,0.34703 0.515928,2.15472 0.357576,0.70895 0.685719,1.85331 0.776722,2.70878 0.1061,0.99735 0.798333,3.76746 1.075321,4.30309 0.114873,0.22214 0.251945,1.09177 0.350445,2.22343 0.296072,3.40129 0.902497,5.9708 1.409161,5.9708 0.0662,0 0.12029,0.0764 0.12029,0.16963 0,0.0933 0.083,0.23855 0.18461,0.32282 0.15901,0.13197 0.17442,0.10224 0.11112,-0.21424 -0.0621,-0.31061 -0.0155,-0.40878 0.30151,-0.63449 l 0.375,-0.26702 0.13771,0.25731 c 0.0757,0.14152 0.10141,0.42254 0.057,0.62451 -0.0487,0.22166 -0.0216,0.43837 0.0684,0.54675 0.11676,0.14068 0.11549,0.26043 -0.006,0.55344 -0.0982,0.23709 -0.12657,0.60883 -0.0775,1.0159 0.25597,2.1244 0.33492,2.55785 0.58406,3.20657 0.25408,0.66162 0.26088,0.74341 0.0869,1.04658 -0.1446,0.25197 -0.16647,0.48725 -0.0935,1.00609 0.28156,2.0023 0.86729,2.94813 1.48148,2.39228 0.30879,-0.27944 0.4397,-0.14147 0.2535,0.26718 -0.17289,0.37946 -0.10058,0.88134 0.3046,2.11428 0.16181,0.49238 0.29421,0.97824 0.29421,1.07966 0,0.10142 0.13255,0.56379 0.29456,1.02748 0.21392,0.6123 0.27695,0.99924 0.23024,1.41364 -0.0574,0.50951 -0.038,0.57057 0.18135,0.57057 0.13511,0 0.37779,0.1032 0.53929,0.22931 0.16151,0.12613 0.40445,0.26488 0.53989,0.30836 0.13544,0.0434 0.37144,0.27271 0.52442,0.50943 0.153,0.23673 0.32855,0.43042 0.39013,0.43042 0.0615,0 0.2318,0.19392 0.37828,0.43094 0.4127,0.66776 0.53912,0.55197 0.44955,-0.41178 z m -2.87539,-6.45252 c -0.32603,-0.35771 -0.51994,-1.81611 -0.24146,-1.81611 0.21298,0 0.35243,0.73389 0.18019,0.94831 -0.15768,0.19631 -0.006,0.65233 0.21758,0.65233 0.097,0 0.17639,0.11081 0.17639,0.24625 0,0.31019 -0.0239,0.30797 -0.3327,-0.0308 z m -0.19678,-2.30015 c -0.1572,-0.26612 -0.17511,-0.38444 -0.0682,-0.45053 0.16138,-0.0997 0.59765,0.36773 0.59765,0.64039 0,0.29621 -0.30748,0.18596 -0.52947,-0.18986 z m -3.03146,-12.40339 c -0.006,-0.0791 -0.0417,-0.24533 -0.0806,-0.36938 -0.0674,-0.21438 -0.0639,-0.21465 0.0703,-0.006 0.0776,0.12106 0.11389,0.28728 0.0806,0.36938 -0.0437,0.10774 -0.0632,0.10924 -0.0703,0.006 z m -0.34065,-1.08742 c -0.0779,-0.27088 -0.29319,-0.85265 -0.47852,-1.29283 -0.34515,-0.8197 -0.914324,-2.82768 -0.914324,-3.22557 0,-0.47824 0.215934,-0.18833 0.283284,0.38034 0.0392,0.33127 0.18547,0.81526 0.32496,1.07554 0.1395,0.26027 0.25364,0.54674 0.25364,0.6366 0,0.21009 0.33607,1.31151 0.57523,1.88521 0.10187,0.24437 0.16543,0.57681 0.14124,0.73875 -0.0368,0.24623 -0.0672,0.21381 -0.18551,-0.19804 z m 8.58039,22.5086 c 0,-0.17689 -0.31724,-0.222 -0.41774,-0.0594 -0.0346,0.0559 -0.0293,0.23037 0.0118,0.38758 0.071,0.27165 0.0829,0.27459 0.24031,0.0594 0.0911,-0.12454 0.16557,-0.29895 0.16557,-0.38758 z m -6.73064,-0.12038 c 0.11078,-0.1108 -0.29177,-0.54522 -0.42748,-0.46134 -0.0588,0.0364 -0.0495,0.17358 0.0208,0.30491 0.13239,0.24738 0.26481,0.2983 0.40668,0.15643 z m 0.69744,-0.39509 c 0,-0.1817 -0.35025,-0.4108 -0.49308,-0.32253 -0.0961,0.0594 -0.0934,0.13274 0.01,0.25686 0.15915,0.19177 0.4834,0.23583 0.4834,0.0657 z m -6.943723,-40.79771 c -0.04372,-0.21844 -0.29246,-0.75865 -0.552812,-1.20048 -0.511265,-0.8676 -0.829734,-1.82791 -1.246384,-3.75833 -0.273835,-1.26876 -0.546629,-2.31927 -0.991164,-3.81692 -0.140703,-0.47403 -0.415346,-1.47136 -0.610309,-2.21628 -0.194974,-0.74491 -0.552343,-2.07468 -0.794165,-2.95503 -0.651893,-2.3732 -1.141194,-4.33716 -1.290895,-5.18149 -0.073,-0.41192 -0.299985,-1.26475 -0.504332,-1.89519 -0.383163,-1.18212 -1.003033,-3.52222 -1.30542,-4.92814 -0.165192,-0.76808 -0.269744,-1.09998 -0.601208,-1.90846 -0.08332,-0.20316 -0.220166,-0.70182 -0.30417,-1.10814 -0.08398,-0.40632 -0.224923,-0.96039 -0.313158,-1.23127 -0.333706,-1.02441 -1.164323,-4.21323 -1.164323,-4.46991 0,-0.1473 -0.11141,-0.5593 -0.247582,-0.91555 -0.136181,-0.35626 -0.356159,-1.1023 -0.488859,-1.65788 -0.132691,-0.55557 -0.379935,-1.44208 -0.549425,-1.97001 -0.169499,-0.52794 -0.388033,-1.29234 -0.485651,-1.69865 -0.09762,-0.40631 -0.299187,-1.18201 -0.447931,-1.72376 -0.148736,-0.54176 -0.481053,-1.78842 -0.738469,-2.77035 -0.257425,-0.98193 -0.642398,-2.3394 -0.855508,-3.0166 -0.21311,-0.6772 -0.599933,-2.03467 -0.859609,-3.0166 -0.259667,-0.98193 -0.782746,-2.93884 -1.162399,-4.34869 -0.379645,-1.40985 -0.69026,-2.65164 -0.69026,-2.75952 0,-0.10789 -0.08154,-0.47807 -0.181265,-0.82262 -0.272878,-0.94307 -1.18398,-4.49433 -1.303975,-5.0826 -0.05789,-0.28384 -0.253597,-1.00414 -0.434881,-1.60063 -0.181284,-0.59651 -0.460167,-1.58322 -0.619739,-2.19269 -0.159582,-0.60948 -0.454941,-1.66221 -0.656369,-2.3394 -0.624647,-2.10013 -1.853607,-6.63875 -1.852762,-6.84237 4.97e-4,-0.10644 -0.07769,-0.43888 -0.173619,-0.73875 -0.09593,-0.29988 -0.207799,-0.69759 -0.248595,-0.88382 -0.08379,-0.3823 -0.326454,-0.43841 -0.577695,-0.13356 -0.150481,0.18259 -0.17572,0.15225 -0.230544,-0.27704 -0.04898,-0.38323 -0.118363,-0.49014 -0.338604,-0.52141 -0.230787,-0.0328 -0.277307,0.0186 -0.278714,0.30781 -9.38e-4,0.19094 -0.032,0.45998 -0.06906,0.59786 -0.04457,0.16589 0.06014,0.41113 0.309499,0.72491 0.254469,0.32021 0.376858,0.61094 0.376858,0.89526 0,0.61542 0.433595,2.49869 0.689012,2.99263 0.08754,0.16929 0.252376,0.66796 0.366302,1.10813 0.113925,0.44018 0.34215,1.29899 0.507174,1.90846 0.165014,0.60948 0.347715,1.35747 0.406,1.66221 0.05827,0.30474 0.254029,1.02502 0.434975,1.60064 0.180955,0.57562 0.382468,1.29591 0.447819,1.60064 0.489723,2.28379 0.908324,3.85203 1.150539,4.31041 0.08979,0.16982 0.286399,0.83471 0.437001,1.4775 0.150603,0.64281 0.356169,1.39036 0.456827,1.66124 0.100649,0.27088 0.227334,0.71414 0.28151,0.98501 0.05414,0.27088 0.236914,0.95807 0.406076,1.52708 0.169161,0.56902 0.371453,1.40012 0.449527,1.84689 0.07806,0.44678 0.282063,1.22789 0.453289,1.73578 0.479674,1.42277 0.635202,1.993 1.150436,4.21791 0.262782,1.13476 0.558714,2.35371 0.657617,2.70878 0.09891,0.35507 0.275834,1.03343 0.393165,1.50747 0.117331,0.47403 0.456986,1.8038 0.754785,2.95504 0.769431,2.97451 1.562592,6.19849 1.878067,7.63384 0.148839,0.6772 0.461256,1.84835 0.694257,2.60257 0.233002,0.75422 0.474973,1.61303 0.537725,1.90846 0.180674,0.85075 0.336559,1.42004 0.430414,1.57189 0.04767,0.0772 0.29976,1.01179 0.560122,2.07689 0.26037,1.06511 0.527722,2.10277 0.594133,2.30594 0.06643,0.20315 0.208653,0.79897 0.316105,1.32405 0.425525,2.07935 0.607579,2.87073 0.703996,3.06023 0.104195,0.20476 0.959694,3.38208 1.057284,3.92675 0.03031,0.16929 0.194983,0.77876 0.365889,1.35439 0.170897,0.57561 0.353589,1.21279 0.405982,1.41594 0.243097,0.94274 0.430658,1.49259 0.566989,1.66221 0.08163,0.10158 0.207593,0.48943 0.279887,0.86189 0.290527,1.49666 0.633185,2.83859 0.814215,3.18866 0.105162,0.20337 0.191221,0.51469 0.191221,0.6918 0,0.17712 0.06643,0.44305 0.147609,0.59096 0.169527,0.30885 0.220222,0.77637 0.216112,1.99271 -0.0028,0.85978 -9.38e-4,0.86382 0.647785,1.65579 1.043763,1.27344 1.871724,2.13026 1.919632,1.98654 0.06568,-0.19703 0.390088,-0.16166 0.471868,0.0514 0.136443,0.35556 0.322991,0.19185 0.242131,-0.21249 z M 15.1843,99.973678 c 0,-0.13403 -0.0744,-0.42198 -0.16537,-0.63989 -0.09092,-0.21792 -0.237309,-0.784057 -0.325244,-1.258094 -0.239428,-1.290752 -0.701453,-3.130658 -1.242218,-4.946909 -0.265691,-0.892372 -0.565122,-2.000509 -0.665405,-2.462528 -0.100282,-0.462017 -0.348953,-1.310989 -0.552605,-1.886605 -0.203653,-0.575616 -0.371012,-1.170646 -0.371923,-1.322287 -8.63e-4,-0.151643 -0.107216,-0.553556 -0.236247,-0.893139 -0.129032,-0.339582 -0.206918,-0.723281 -0.173093,-0.852662 0.03528,-0.134911 -0.07469,-0.435716 -0.257903,-0.705304 -0.175673,-0.258538 -0.319417,-0.633138 -0.319417,-0.832445 0,-0.199307 -0.222014,-1.086806 -0.493372,-1.972222 C 10.110144,81.316178 9.8079925,80.314713 9.7100555,79.976115 9.6121155,79.637518 9.2734305,78.529381 8.9574105,77.513588 8.641399,76.497795 8.188673,74.863292 7.951355,73.88136 7.714037,72.899426 7.242865,71.209517 6.904298,70.126005 6.565741,69.042493 6.18863,67.795838 6.066279,67.355661 5.597123,65.667801 5.315557,64.694871 5.193262,64.339065 5.035538,63.880158 4.887995,63.322631 4.67191,62.369042 4.201685,60.293886 3.429204,57.544299 3.213936,57.179437 2.949334,56.730976 2.664342,56.645197 2.537469,56.975831 c -0.136613,0.356006 0.306525,2.97682 0.564906,3.340953 0.284823,0.401393 0.865305,1.97414 1.007415,2.729453 0.149252,0.793281 0.858596,3.515606 1.180152,4.529198 0.09204,0.290175 0.167378,0.627901 0.167378,0.750501 0,0.122602 0.242225,0.993323 0.538288,1.934939 0.296063,0.941614 0.547389,1.923668 0.558507,2.182344 0.01117,0.258674 0.09762,0.674226 0.192234,0.923448 0.384504,1.012858 1.46655,4.826885 2.049781,7.225081 0.2634955,1.083512 0.5939935,2.385573 0.7344245,2.89347 0.425948,1.540513 0.4764455,1.769937 0.4795045,2.178225 0.0038,0.434171 0.195808,0.633184 0.40767,0.421326 0.07534,-0.07536 0.238406,-0.137024 0.362333,-0.137024 0.209949,0 0.20749,0.02411 -0.03612,0.353606 -0.248868,0.33661 -0.253991,0.399718 -0.106672,1.312969 0.09698,0.601152 0.239194,1.043789 0.380873,1.185474 0.124359,0.124361 0.224276,0.295369 0.222033,0.380019 -0.0019,0.08465 0.230187,0.96872 0.516501,1.964602 0.509135,1.770945 0.515563,1.816226 0.292497,2.062702 -0.22298,0.246392 -0.220372,0.266401 0.117059,0.898086 0.189823,0.355342 0.413498,0.729189 0.49707,0.830769 0.0836,0.101579 0.214057,0.627944 0.289973,1.1697 0.07591,0.541756 0.165052,1.095825 0.19806,1.231264 0.03303,0.135439 0.123928,0.55099 0.202048,0.923448 0.07816,0.372457 0.212979,0.760304 0.299685,0.861884 0.0867,0.10158 0.19821,0.35091 0.24777,0.55407 0.111823,0.458382 0.16949,0.496602 0.786376,0.521202 0.419934,0.0168 0.497079,-0.018 0.497079,-0.223862 z"
       style="fill:#000000;stroke-width:0.12312638" />
  </g>
</svg>
