<?xml version="1.0" encoding="UTF-8" standalone="no"?>
<!-- Created with Inkscape (http://www.inkscape.org/) -->

<svg
   xmlns:dc="http://purl.org/dc/elements/1.1/"
   xmlns:cc="http://creativecommons.org/ns#"
   xmlns:rdf="http://www.w3.org/1999/02/22-rdf-syntax-ns#"
   xmlns:svg="http://www.w3.org/2000/svg"
   xmlns="http://www.w3.org/2000/svg"
   xmlns:sodipodi="http://sodipodi.sourceforge.net/DTD/sodipodi-0.dtd"
   xmlns:inkscape="http://www.inkscape.org/namespaces/inkscape"
   width="132.13049mm"
   height="98.400162mm"
   viewBox="0 0 468.17891 348.66199"
   id="svg4156"
   version="1.1"
   inkscape:version="0.91 r13725"
   sodipodi:docname="Gryffindor.svg">
  <defs
     id="defs4158" />
  <sodipodi:namedview
     id="base"
     pagecolor="#ffffff"
     bordercolor="#000000"
     borderopacity="0"
     inkscape:pageopacity="0.0"
     inkscape:pageshadow="2"
     inkscape:zoom="2.0995354"
     inkscape:cx="166.04793"
     inkscape:cy="169.51937"
     inkscape:document-units="px"
     inkscape:current-layer="layer1"
     showgrid="false"
     fit-margin-top="0"
     fit-margin-left="0"
     fit-margin-right="0"
     fit-margin-bottom="0"
     inkscape:window-width="1301"
     inkscape:window-height="744"
     inkscape:window-x="65"
     inkscape:window-y="24"
     inkscape:window-maximized="1" />
  <metadata
     id="metadata4161">
    <rdf:RDF>
      <cc:Work
         rdf:about="">
        <dc:format>image/svg+xml</dc:format>
        <dc:type
           rdf:resource="http://purl.org/dc/dcmitype/StillImage" />
        <dc:title></dc:title>
      </cc:Work>
    </rdf:RDF>
  </metadata>
  <g
     inkscape:label="Layer 1"
     inkscape:groupmode="layer"
     id="layer1"
     transform="translate(-5.0537125,-143.64941)">
    <path
       inkscape:connector-curvature="0"
       id="path4470-2"
       style="opacity:1;fill:#9b0909;fill-opacity:1;stroke:#9b0909;stroke-opacity:1"
       d="m 92.970794,189.74653 c -1.7543,-0.8877 -3.5905,-3.3302 -4.2609,-5.6678 -3.1568,-11.0073 13.964796,-16.1835 17.737096,-5.3622 1.4145,4.0575 0.041,7.9933 -3.7068,10.618 -3.429296,2.402 -5.651496,2.4957 -9.769396,0.412 z m 42.896096,151.2843 c -1.3139,-26.4863 3.0479,-54.4346 11.6069,-74.371 8.9846,-20.9277 32.5939,-60.9214 42.0631,-71.254 3.1848,-3.4753 2.1503,-3.5005 -7.9232,-0.1936 -8.0111,2.6299 -19.3786,8.1276 -24.6226,11.9083 -2.7587,1.9888 -2.8145,1.9469 -2.9153,-2.1873 -0.2469,-10.1232 -4.9199,-28.751 -9.4603,-37.7111 -4.7473,-9.3683 -7.7843,-13.0203 -14.3105,-17.2081 -12.6727,-8.132 -46.180796,-7.7697 -79.133396,0.8556 -9.8851,2.5875 -27.26219,1.7665 -37.606291,-1.7765 -4.1185997,-1.4107 -7.7130997,-2.3402 -7.9876997,-2.0655 -0.2747,0.2747 1.8686,3.6359 4.7628997,7.4693 5.388901,7.1376 9.788001,9.9123 17.715001,11.1737 l 4.5019,0.7163 -0.5993,6.2373 c -1.2658,13.1726 3.8356,22.0212 18.72339,32.4765 11.7912,8.2806 18.9403,10.5669 32.8721,10.5126 11.7537,-0.046 18.519896,-2.0707 26.929896,-8.0592 5.6793,-4.044 4.4191,-4.8175 -3.4924,-2.1436 -16.479296,5.5697 -33.306796,-0.1996 -42.466296,-14.5595 -3.5654,-5.5897 -7.8462,-17.3137 -7.8462,-21.4885 0,-3.0117 -0.9328,-2.7766 19.0625,-4.8057 4.9659,-0.5039 5.8869,0.4849 2.8214,3.029 -3.1919,2.6491 -4.6182,10.4703 -3.0471,16.7094 3.3376,13.2549 19.6999,19.8482 32.955996,13.2799 6.6542,-3.2971 9.5832,-7.5509 10.5462,-15.3163 l 0.786,-6.3372 3.3758,4.8983 c 1.8568,2.6941 4.9343,8.2734 6.8389,12.3984 3.2679,7.0774 3.4566,8.4508 3.3494,24.375 -0.094,13.9631 -0.5581,17.9776 -2.6902,23.2651 -6.0499,15.0042 -8.1153,38.1814 -5.2015,58.3704 1.9171,13.2833 5.9417,36.5091 8.0557,46.4895 1.0194,4.8125 1.8632,9.1718 1.8752,9.6875 0.013,0.5156 0.2912,0.9375 0.6207,0.9375 0.3294,0 0.2571,-6.8907 -0.1607,-15.3125 z m 238.8798,-152.7557 c -3.7496,-3.7496 -3.9141,-8.0192 -0.4774,-12.3882 3.2462,-4.127 9.9372,-4.5157 13.6593,-0.7936 3.722,3.7221 3.3333,10.413 -0.7936,13.6592 -4.3691,3.4368 -8.6386,3.2722 -12.3883,-0.4774 z m -27.0462,145.5682 c 5.8864,-32.688 6.8536,-40.5506 6.8424,-55.625 -0.011,-15.818 -1.8064,-26.821 -6.0968,-37.3798 -2.5976,-6.3928 -3.0134,-9.4402 -2.9877,-21.8982 0.037,-17.9471 0.852,-21.5056 7.6571,-33.4308 4.4405,-7.7814 5.5082,-8.9803 5.8202,-6.5354 0.7357,5.764 3.0735,11.7691 5.7093,14.6658 7.4023,8.1349 24.4949,8.6341 33.1322,0.9677 6.8767,-6.1038 8.5158,-18.5496 3.43,-26.044 l -2.9714,-4.3786 5.7839,0.5007 c 3.1811,0.2755 8.7718,0.8059 12.4238,1.1788 l 6.6399,0.678 -0.7729,3.9629 c -3.014,15.4538 -12.305,28.8202 -23.7316,34.1412 -7.7668,3.6168 -18.4631,3.8364 -27.9116,0.573 l -6.6363,-2.2921 3.3458,3.4922 c 7.9116,8.258 26.8614,11.9811 41.6609,8.1852 13.4435,-3.4481 31.6836,-17.2505 36.2065,-27.3976 0.9779,-2.194 1.7822,-7.7416 1.7873,-12.3281 0.01,-8.908 0.6763,-9.7229 7.9886,-9.7689 3.3214,-0.021 9.5628,-5.1213 14.3445,-11.7223 4.456,-6.1513 4.4829,-7.3458 0.1265,-5.6252 -14.1791,5.6003 -29.7314,6.149 -48.0454,1.6952 -27.5052,-6.6892 -61.3931,-6.949 -71.7468,-0.5501 -11.9627,7.3934 -20.7541,25.3717 -24.3148,49.7235 l -1.481,10.129 -4.1281,-3.1487 c -4.4481,-3.3927 -22.2972,-10.9783 -29.2115,-12.4144 l -4.2401,-0.8807 2.7696,2.9509 c 3.5701,3.8035 15.6313,21.5626 22.8033,33.5758 19.233,32.2152 26.5622,51.231 29.8282,77.3901 1.674,13.4075 2.043,41.0852 0.6349,47.6099 -0.5912,2.7393 -0.5056,3.9076 0.2289,3.125 0.6452,-0.6875 2.9457,-11.0938 5.1122,-23.125 z m -97.5236,127.9843 c 2.6871,-5.2581 11.4046,-13.8216 21.2688,-20.8933 l 5.5321,-3.966 -5.2559,-0.7232 c -6.0629,-0.8342 -7.4976,-2.5114 -7.5242,-8.7958 -0.037,-8.8051 14.8362,-22.2341 24.7304,-22.3286 4.1041,-0.039 9.8251,3.2109 10.5532,5.9953 0.7682,2.9377 -1.8659,9.388 -6.1018,14.9415 -1.7619,2.31 -2.9725,4.4309 -2.6903,4.713 0.8461,0.8462 26.2268,-16.4633 31.622,-21.5661 13.2786,-12.5588 22.0044,-25.0689 23.5743,-33.7986 0.8319,-4.626 0.7102,-4.6705 -6.0819,-2.2236 -8.4023,3.027 -17.6606,2.3771 -29.4483,-2.0673 -8.9698,-3.382 -12.2384,-3.9821 -21.8017,-4.003 -10.9536,-0.024 -11.6288,0.1493 -25.625,6.5755 -9.6598,4.4351 -16.6505,6.8226 -21.312,7.2788 -7.3102,0.7154 -7.2332,0.7393 -31.188,-9.6933 -8.0669,-3.5133 -10.8576,-4.0947 -20,-4.1673 -10.3534,-0.082 -14.1731,0.7845 -26.5224,6.0181 -5.8792,2.4916 -18.4415,2.5405 -24.2954,0.095 -5.9761,-2.4969 -6.6822,-2.3859 -6.6822,1.0504 0,10.1093 19.0814,33.3613 37.1696,45.2938 6.0255,3.9749 12.4795,8.2517 14.3422,9.504 4.2828,2.8792 5.681,2.9179 3.2304,0.089 -3.5319,-4.0765 -8.4922,-13.643 -8.4922,-16.3782 0,-3.1245 6.5008,-7.6723 10.9776,-7.6796 4.5489,-0.01 10.8324,3.1285 16.4652,8.2174 6.1025,5.5132 8.8072,10.2157 8.8072,15.3128 0,4.5813 -2.2656,6.5039 -8.6776,7.3639 l -5.0256,0.6741 10.4685,7.8963 c 5.7578,4.3429 11.6692,9.5823 13.1365,11.643 2.5908,3.6384 9.3192,19.37248 12.6207,29.51278 l 1.6278,5 3.9854,-11.875 c 2.192,-6.5312 5.1676,-14.18828 6.6126,-17.01568 z" />
  </g>
</svg>
