<?xml version="1.0" encoding="utf-8"?>
<!-- Generator: Adobe Illustrator 21.0.0, SVG Export Plug-In . SVG Version: 6.00 Build 0)  -->
<svg version="1.1" id="Layer_1" xmlns="http://www.w3.org/2000/svg" xmlns:xlink="http://www.w3.org/1999/xlink" x="0px" y="0px"
	 viewBox="0 0 167.1 223.3" style="enable-background:new 0 0 167.1 223.3;" xml:space="preserve">
<style type="text/css">
	.st0{fill:#EEE8D7;}
	.st1{fill:#F6D30A;}
</style>
<title>Asset 2</title>
<g>
	<g>
		<g>
			<path class="st0" d="M8.9,223.3c-4.9,0-8.9-3.5-8.9-7.8V7.8C0,3.5,4,0,8.9,0h149.3c4.9,0,8.9,3.5,8.9,7.8v207.7
				c0,4.3-4,7.8-8.9,7.8L8.9,223.3L8.9,223.3z"/>
		</g>
		<path class="st1" d="M162.7,215.5c0,2.2-2,3.9-4.4,3.9H8.9c-2.5,0-4.4-1.8-4.4-3.9V7.8c0-2.2,2-3.9,4.4-3.9h149.3
			c2.5,0,4.4,1.8,4.4,3.9v207.7H162.7z"/>
	</g>
	<g id="Layer_2">
		<g id="Layer_2-2">
			<path d="M93.4,141.3l-3-6c3-0.5,3,2.5,3,2.5c1.5-0.5,2.5-0.5,3,1.5c6.5-5,12,3.5,13.5,5.5c15.5-13.5,26-6.5,17,9.5
				c51-26,13-54-15-60c7.5,8,5.5,22-7.5,22c-14,0-11.5-18-12-25.5c0,0-3,8-4.3,7.8c-1.3-0.8-4.1-0.8-5.7,0c-1.4,0.7-4.3-7.8-4.3-7.8
				c-0.5,7.5,2,25.5-12,25.5c-13,0-15-14-7.5-22c-28,6-66,34-15,60c-9-16,1.5-23,17-9.5c1.5-2,6.7-10.5,13.5-5.5
				c0,0,4.7,3,11.2,18.5C90.9,142.8,93.4,141.3,93.4,141.3z"/>
			<path class="st1" d="M83.2,106.3v-1l0.5,0.5c0.3-0.3,0.7-0.3,1,0c0,0,0,0,0,0c0.5,0,0.5-1,0.5-1l0.5,1v2.5c0,0,1,0.5,1,1
				s0.5,0,1,0.5s1,0,1.5,0.5l2.8,2.8c0.1,0.1,0.2,0.1,0.4,0.1c0.5-0.2,1.1,0.1,1.3,0.6c0.5,0.9,1.4,1.9,1.5,3.7
				c0,0.2,0.1,0.3,0.3,0.3c0.6,0.2,0.2,1,0.2,1c-1.5,1.2-1.6-0.1-1.5-0.7c0-0.2-0.1-0.4-0.2-0.5c-0.7-0.5-2.7-1.9-2.7-2.3
				c0-0.5-2-1-2.5-2c-0.5-0.5-1.5,2-1.5,2c0.6,1.3,0.9,2.6,1,4c0,2,1,0,1,1.5v4c0,0,1.5,0.5,1.5,1.5v4.5c0,0.5,0.5,0,0.5,0
				c0.2,1.4-0.1,2.9-1,4c-1,0-0.5-1.5-0.5-1.5s-1,0.5-1-1v-3c0,0-4-3.5-5.5-8c-0.5-2.5-0.7-3.5-0.4-3.6c0.1,0,0.2-0.2,0.2-0.3
				c0,0,0,0,0,0c-0.4-0.8-0.5-1.7-0.3-2.6c0-1.5-1.5-1-1.5-1c-0.5,0.5-1.1,0.8-1.8,1c-0.1,0-0.2,0.1-0.3,0.2
				c-0.5,0.8-0.9,0.8-0.9,0.8c0,1-2.5,1-1.5-0.5c0.3-0.6,0.6-0.7,0.8-0.6c0.1,0,0.3,0,0.4-0.1c0.4-0.6,1.6-2.3,2.8-2.7
				c1.2-0.4,1.8-1.5,2.8-1.9c0.1,0,0.2-0.2,0.1-0.3c0,0,0-0.1-0.1-0.1c-0.7-0.4-0.4-0.7-0.4-0.7S82.2,107.3,83.2,106.3z"/>
		</g>
	</g>
	<g>
		<path d="M46.7,46c0.9,0,1.8,0.1,2.6,0.2c0.8,0.1,1.5,0.3,2.2,0.6c0.6,0.3,1.1,0.6,1.5,0.9s0.6,0.7,0.6,1.1c0,0.3-0.1,0.5-0.3,0.8
			c-0.2,0.3-0.5,0.6-0.8,0.9c-0.3,0.3-0.7,0.6-1.2,0.8s-0.9,0.5-1.3,0.8c0.5,0.1,0.9,0.2,1.3,0.4s0.7,0.3,1,0.5
			c0.3,0.2,0.5,0.4,0.7,0.7c0.2,0.3,0.2,0.5,0.2,0.9c0,0.6-0.2,1.1-0.6,1.6s-0.9,0.9-1.6,1.2c-0.7,0.4-1.5,0.7-2.4,1
			c-0.9,0.3-1.9,0.5-2.9,0.7c-1,0.2-2,0.4-3.1,0.6c-1.1,0.2-2.1,0.3-3.1,0.4c-0.5,0-0.9-0.1-1.1-0.3c-0.2-0.2-0.3-0.6-0.3-1
			c0.1-0.5,0.3-1.1,0.5-1.9s0.4-1.6,0.6-2.5c0.2-0.9,0.4-1.7,0.6-2.6c0.2-0.8,0.4-1.6,0.5-2.2c-0.2-0.1-0.4-0.2-0.5-0.4
			c-0.1-0.2-0.1-0.4-0.1-0.7c0.1-0.8,0.3-1.3,0.5-1.7c0.3-0.4,0.6-0.6,1-0.6c0.2,0,0.6,0,1.2,0c0.6,0,1.1,0,1.7,0c0.6,0,1.1,0,1.6,0
			C46.3,46,46.6,46,46.7,46z M43.2,54.6c-0.1,0-0.2,0-0.3,0c-0.1,0-0.2,0-0.3,0c-0.1,0.3-0.1,0.6-0.2,0.9c0,0.3-0.1,0.5-0.1,0.7
			c2.2-0.3,3.9-0.5,5.1-0.8c1.2-0.3,1.8-0.5,1.8-0.7c0-0.1-0.4-0.1-1.3-0.2s-2.3,0-4.2,0H43.2z M46.7,49.5c-0.5,0-0.9,0-1.4,0
			s-1,0-1.7,0.1c-0.1,0.2-0.1,0.5-0.2,0.9c-0.1,0.3-0.1,0.7-0.2,1.1c0.1,0,0.4-0.1,0.7-0.1c0.3-0.1,0.7-0.1,1.2-0.2
			c0.4-0.1,0.9-0.2,1.3-0.3c0.5-0.1,0.9-0.2,1.3-0.4s0.7-0.2,0.9-0.4s0.4-0.2,0.4-0.4c0,0-0.1-0.1-0.3-0.1c-0.2-0.1-0.4-0.1-0.7-0.1
			c-0.2,0-0.5-0.1-0.8-0.1S46.9,49.5,46.7,49.5z"/>
		<path d="M62.8,45.9c0.3,0,0.5,0,0.6,0.1c0.2,0,0.3,0.1,0.4,0.2c0.1,0.1,0.2,0.1,0.2,0.2c0,0.1,0.1,0.2,0.1,0.3
			c0.1,0.2,0.2,0.6,0.4,1.2c0.2,0.6,0.5,1.3,0.8,2.1s0.6,1.7,0.9,2.6c0.3,0.9,0.6,1.8,0.9,2.6s0.5,1.5,0.7,2.1
			c0.2,0.6,0.3,0.9,0.3,1.1c0,0.3-0.1,0.5-0.4,0.8c-0.2,0.2-0.5,0.4-0.8,0.5s-0.6,0.2-0.8,0.3c-0.3,0.1-0.4,0.1-0.5,0.1
			c-0.5,0-0.8-0.2-1-0.5c-0.2-0.4-0.3-0.9-0.5-1.5c-1,0-2.1,0-3.3,0S58.4,58,57,58c-0.2,0.4-0.4,0.7-0.5,0.9
			c-0.1,0.2-0.2,0.4-0.4,0.6s-0.2,0.2-0.4,0.3c-0.1,0-0.3,0.1-0.6,0.1c-0.1,0-0.3-0.1-0.6-0.2c-0.2-0.1-0.5-0.2-0.8-0.4
			c-0.3-0.2-0.5-0.3-0.7-0.5c-0.2-0.2-0.3-0.4-0.3-0.5c0-0.1,0.1-0.3,0.3-0.6c0.2-0.3,0.4-0.8,0.8-1.3c0.3-0.5,0.7-1.2,1.2-1.8
			c0.5-0.7,1-1.4,1.6-2.2c0.7-1,1.4-1.8,1.9-2.5c0.5-0.7,1-1.3,1.4-1.7s0.7-0.8,1-1.1c0.3-0.3,0.5-0.5,0.7-0.6
			c0.2-0.1,0.4-0.2,0.5-0.3S62.7,45.9,62.8,45.9z M61.9,51.1c-0.4,0.5-0.8,1-1.2,1.5c-0.4,0.5-0.9,1.2-1.4,1.9c0.7,0,1.4,0,2,0.1
			c0.6,0,1.3,0.1,1.9,0.2c-0.2-0.6-0.5-1.2-0.7-1.8C62.3,52.4,62.1,51.8,61.9,51.1z"/>
		<path d="M77.1,46.1c0.7,0,1.4,0,2.1,0c0.8,0,1.5,0.1,2.3,0.1c0.7,0,1.1,0.2,1.4,0.4c0.2,0.2,0.4,0.6,0.4,1c0,0.2,0,0.5-0.1,0.7
			c-0.1,0.3-0.2,0.5-0.3,0.7c-0.1,0.2-0.3,0.4-0.5,0.6c-0.2,0.2-0.4,0.2-0.7,0.2l-0.5-0.1c-0.2,0-0.5-0.1-0.9-0.1s-0.7-0.1-1.1-0.1
			s-0.8-0.1-1.2-0.1s-0.8,0-1.1,0c-0.1,0.4-0.2,0.9-0.3,1.6c-0.1,0.7-0.3,1.4-0.4,2.1c-0.2,0.7-0.3,1.4-0.5,2.1
			c-0.2,0.7-0.3,1.2-0.4,1.6c-0.1,0.4-0.2,0.8-0.2,1.1s-0.1,0.6-0.2,0.9c-0.1,0.3-0.3,0.4-0.5,0.6c-0.3,0.1-0.7,0.2-1.2,0.2
			c-0.2,0-0.5,0-0.7,0c-0.2,0-0.4-0.1-0.6-0.2c-0.2-0.1-0.3-0.2-0.5-0.4c-0.1-0.2-0.2-0.4-0.2-0.7c0-0.2,0.1-0.6,0.2-1.2
			c0.1-0.6,0.3-1.3,0.5-2.1c0.2-0.8,0.4-1.7,0.6-2.7c0.2-0.9,0.4-1.9,0.6-2.8c-0.2,0-0.5,0-0.9,0s-0.7,0.1-1.1,0.1
			c-0.4,0-0.8,0.1-1.1,0.1c-0.4,0-0.6,0-0.9,0c-0.5,0-0.8-0.1-1-0.3c-0.2-0.2-0.3-0.6-0.3-1.1c0-0.5,0.1-1,0.3-1.3
			c0.2-0.3,0.5-0.5,1-0.7s1.1-0.2,2-0.3c0.8,0,1.9,0,3.3,0H77.1z"/>
		<path d="M96.6,46.1c0.6,0,1.1,0.1,1.6,0.3c0.4,0.2,0.7,0.5,0.7,1c0,0.2,0,0.4,0,0.6c0,0.2,0,0.4,0,0.6c0,1.1,0.1,2.1,0.2,3.1
			c0.1,1,0.2,1.9,0.4,2.6c0.1,0.8,0.3,1.4,0.4,1.9c0.1,0.5,0.2,0.7,0.3,0.8c0.2,0.4,0.4,0.8,0.4,1.1c0,0.3-0.1,0.5-0.2,0.7
			c-0.2,0.2-0.4,0.4-0.6,0.6c-0.2,0.2-0.5,0.3-0.7,0.4c-0.2,0.1-0.4,0.2-0.6,0.2c-0.2,0-0.5-0.2-0.7-0.5c-0.2-0.3-0.5-0.8-0.7-1.3
			c-0.2-0.6-0.5-1.2-0.7-2c-0.2-0.8-0.4-1.7-0.5-2.6c-0.8,1.5-1.4,2.6-1.9,3.5c-0.5,0.9-0.9,1.5-1.3,1.9c-0.4,0.4-0.7,0.7-1,0.9
			c-0.3,0.1-0.6,0.2-0.9,0.2c-0.3,0-0.6,0-0.8-0.1c-0.2,0-0.4-0.1-0.5-0.3c-0.1-0.1-0.2-0.3-0.3-0.6c-0.1-0.2-0.2-0.6-0.2-1
			c-0.1-0.4-0.2-1-0.3-1.8c-0.1-0.8-0.2-1.7-0.4-2.9c-0.3,0.6-0.6,1.1-0.9,1.6c-0.3,0.5-0.5,1-0.8,1.4s-0.4,0.8-0.5,1
			c-0.1,0.3-0.2,0.5-0.2,0.5c-0.1,0.4-0.3,0.8-0.6,1.1c-0.3,0.3-0.7,0.4-1.2,0.4c-0.2,0-0.4,0-0.6-0.1c-0.2-0.1-0.4-0.1-0.7-0.3
			c-0.2-0.1-0.4-0.3-0.6-0.5c-0.2-0.2-0.2-0.5-0.2-0.8c0-0.2,0.1-0.4,0.2-0.7c0.1-0.3,0.2-0.6,0.4-0.9c0.2-0.3,0.4-0.7,0.6-1
			c0.2-0.4,0.4-0.7,0.7-1.1c0.4-0.7,0.8-1.3,1.1-1.9c0.3-0.5,0.6-1,0.9-1.5l1.2-2.3h0c0.3-0.5,0.5-1,0.7-1.3
			c0.2-0.3,0.4-0.6,0.6-0.8c0.2-0.2,0.4-0.3,0.6-0.4c0.2-0.1,0.5-0.1,0.9-0.1c0.3,0,0.6,0,0.9,0.1c0.2,0.1,0.4,0.2,0.6,0.6
			c0,0.1,0.1,0.3,0.1,0.7c0.1,0.3,0.1,0.7,0.1,1.2c0,0.4,0.1,0.9,0.1,1.5c0,0.5,0.1,1,0.1,1.5c0,0.5,0.1,0.9,0.1,1.3
			c0,0.4,0.1,0.7,0.1,0.9c0.5-1,1-2,1.5-2.9c0.5-1,1-2.1,1.5-3.4c0.1-0.1,0.1-0.3,0.2-0.5c0.1-0.2,0.2-0.3,0.3-0.5
			c0.1-0.1,0.3-0.3,0.5-0.3S96.3,46.1,96.6,46.1z"/>
		<path d="M111.1,45.9c0.3,0,0.5,0,0.6,0.1c0.2,0,0.3,0.1,0.4,0.2c0.1,0.1,0.2,0.1,0.2,0.2c0,0.1,0.1,0.2,0.1,0.3
			c0.1,0.2,0.2,0.6,0.4,1.2c0.2,0.6,0.5,1.3,0.8,2.1s0.6,1.7,0.9,2.6c0.3,0.9,0.6,1.8,0.9,2.6s0.5,1.5,0.7,2.1
			c0.2,0.6,0.3,0.9,0.3,1.1c0,0.3-0.1,0.5-0.4,0.8c-0.2,0.2-0.5,0.4-0.8,0.5s-0.6,0.2-0.8,0.3c-0.3,0.1-0.4,0.1-0.5,0.1
			c-0.5,0-0.8-0.2-1-0.5c-0.2-0.4-0.3-0.9-0.5-1.5c-1,0-2.1,0-3.3,0s-2.5,0-3.9,0.1c-0.2,0.4-0.4,0.7-0.5,0.9
			c-0.1,0.2-0.2,0.4-0.4,0.6s-0.2,0.2-0.4,0.3c-0.1,0-0.3,0.1-0.6,0.1c-0.1,0-0.3-0.1-0.6-0.2c-0.2-0.1-0.5-0.2-0.8-0.4
			c-0.3-0.2-0.5-0.3-0.7-0.5c-0.2-0.2-0.3-0.4-0.3-0.5c0-0.1,0.1-0.3,0.3-0.6c0.2-0.3,0.4-0.8,0.8-1.3c0.3-0.5,0.7-1.2,1.2-1.8
			c0.5-0.7,1-1.4,1.6-2.2c0.7-1,1.4-1.8,1.9-2.5c0.5-0.7,1-1.3,1.4-1.7s0.7-0.8,1-1.1c0.3-0.3,0.5-0.5,0.7-0.6
			c0.2-0.1,0.4-0.2,0.5-0.3S110.9,45.9,111.1,45.9z M110.1,51.1c-0.4,0.5-0.8,1-1.2,1.5c-0.4,0.5-0.9,1.2-1.4,1.9c0.7,0,1.4,0,2,0.1
			c0.6,0,1.3,0.1,1.9,0.2c-0.2-0.6-0.5-1.2-0.7-1.8C110.5,52.4,110.3,51.8,110.1,51.1z"/>
		<path d="M122.6,46.2c1,0,1.6,0.3,1.6,1c0.9,3.3,2.6,5.8,5,7.7c0.2-1.2,0.4-2.2,0.5-3.1c0.1-0.9,0.2-1.6,0.3-2.3
			c0.1-0.6,0.2-1.1,0.3-1.6s0.2-0.7,0.4-0.9c0.2-0.2,0.4-0.4,0.6-0.5c0.3-0.1,0.6-0.1,1-0.1c0.4,0,0.7,0,1,0.1
			c0.2,0.1,0.4,0.2,0.6,0.3c0.1,0.1,0.2,0.2,0.3,0.4s0.1,0.2,0.1,0.4c0,0.2,0,0.5,0,0.7c0,0.2-0.1,0.6-0.2,0.9
			c-0.1,0.4-0.2,0.9-0.3,1.4c-0.1,0.6-0.3,1.3-0.4,2.2c-0.1,0.4-0.2,0.9-0.3,1.5c-0.1,0.6-0.2,1.2-0.3,1.8s-0.2,1.2-0.3,1.7
			s-0.2,0.9-0.2,1.1c-0.1,0.2-0.3,0.4-0.6,0.6c-0.3,0.1-0.8,0.2-1.3,0.2c-0.7,0-1.5-0.2-2.2-0.6c-0.7-0.4-1.4-0.9-2.1-1.5
			c-0.7-0.6-1.3-1.3-1.9-2.1c-0.6-0.8-1.1-1.5-1.6-2.3c0,0.1-0.1,0.3-0.1,0.4c0,0.1-0.1,0.3-0.1,0.4l-0.2,0.7
			c-0.1,0.2-0.1,0.5-0.2,0.7c-0.1,0.3-0.1,0.6-0.2,0.9c-0.1,0.5-0.2,0.9-0.2,1.3c0,0.4-0.1,0.7-0.2,1c-0.1,0.3-0.2,0.5-0.3,0.7
			c-0.2,0.2-0.4,0.2-0.7,0.2c-0.6,0-1.1,0-1.4-0.1c-0.4-0.1-0.6-0.2-0.8-0.3c-0.2-0.1-0.3-0.3-0.4-0.5c-0.1-0.2-0.1-0.4-0.1-0.6
			c0,0,0.1-0.3,0.2-0.8c0.1-0.5,0.2-1.1,0.4-1.8c0.2-0.7,0.3-1.5,0.5-2.3c0.2-0.8,0.3-1.6,0.5-2.4c0.2-0.8,0.3-1.4,0.4-2
			c0.1-0.6,0.2-1,0.2-1.2c0.1-0.3,0.3-0.6,0.8-0.9C121.2,46.3,121.8,46.2,122.6,46.2z"/>
	</g>
</g>
</svg>
