<?xml version="1.0" encoding="utf-8"?>
<!-- Generator: Adobe Illustrator 21.0.0, SVG Export Plug-In . SVG Version: 6.00 Build 0)  -->
<svg version="1.1" id="Layer_1" xmlns="http://www.w3.org/2000/svg" xmlns:xlink="http://www.w3.org/1999/xlink" x="0px" y="0px"
	 viewBox="0 0 167.1 223.3" style="enable-background:new 0 0 167.1 223.3;" xml:space="preserve">
<style type="text/css">
	.st0{fill:#EEE8D7;}
	.st1{fill:#009051;}
	.st2{fill:#01340D;}
</style>
<title>Asset 4</title>
<g>
	<g>
		<path class="st0" d="M8.9,223.3c-4.9,0-8.9-3.5-8.9-7.8V7.8C0,3.5,4,0,8.9,0h149.3c4.9,0,8.9,3.5,8.9,7.8v207.7
			c0,4.3-4,7.8-8.9,7.8L8.9,223.3L8.9,223.3z"/>
	</g>
	<path class="st1" d="M162.7,215.5c0,2.2-2,3.9-4.4,3.9H8.9c-2.5,0-4.4-1.8-4.4-3.9V7.8c0-2.2,2-3.9,4.4-3.9h149.3
		c2.5,0,4.4,1.8,4.4,3.9v207.7H162.7z"/>
</g>
<g id="Layer_2">
	<g id="Layer_2-2">
		<path class="st2" d="M71.3,195.4L88,159.7c1.7,2.8,0,5-1.7,6.7c1.7,3.4,2.8,6.7-2.2,9.5c1.1,2.2,0.6,3.9-1.1,4.5
			c6.7,8.9-0.6,15.1-0.6,15.1h42.4v-16.2h-20.1c32.9-18.4,20.1-60.9-1.1-69.2h21.2l-0.3-15.4H42.2V110h23.2
			c-21.2,8.4-34.1,50.8-1.1,69.2H42.8v16.2H71.3z"/>
		<path class="st1" d="M90.8,151.3c0,0-2.2,3.9-1.1,5.6c1.1,1.7,2.8-2.2,2.8-2.2s1.1-2.2,0.6-3.4s2.8-1.1,2.2-6.1
			c2.2-2.2,1.7-3.4,2.8-5c1.1-1.7,0,2.8,0,2.8s-1.7,1.7-0.6,3.4c1.1,1.7,2.2-2.2,2.2-2.2v-3.4c0,0,0-1.7,1.1-2.2
			c0-0.6,1.1,1.1,1.7-4.5c0.6-4.5,1.7-1.1,1.7-1.1s1.7,1.7,5.6,0.6c2.8-1.1,1.1-3.4,0-2.8c-0.5,0.2-0.7,0.7-0.7,1.2
			c0,0.1-0.1,0.2-0.2,0.3c0,0-0.1,0-0.1,0c-0.8-0.4-1.6-0.7-2.5-0.8c-0.2,0-0.4-0.2-0.4-0.4c0-1.4-0.3-4.7-3.4-4.7
			c-1.7-0.6-1.1-1.7-1.1-1.7s1.7-3.4-1.7-3.4c-3.4,0.6-0.6,3.4-0.6,3.4s0,1.1-1.7,1.1c-1.7,0-1.1-0.6-2.8,0.6
			c-1.7,1.1-3.9-0.6-5,1.1s-1.7,2.2,0.6,2.2s2.8-1.1,2.8-1.1s2.2,1.1,3.4,0c1.1-1.1,0.6,2.2,1.1,3.4s-3.4,5.6-3.9,11.7
			C93.1,143.5,91.9,143,90.8,151.3z"/>
	</g>
</g>
<g>
	<path class="st2" d="M53.5,38.1c0.7,0,1.3,0.1,1.8,0.2c0.6,0.1,1.1,0.3,1.5,0.5c0.4,0.2,0.7,0.4,1,0.7c0.2,0.3,0.3,0.6,0.3,0.9
		c0,0.2,0,0.4-0.1,0.6c-0.1,0.2-0.2,0.5-0.4,0.7c-0.2,0.2-0.4,0.4-0.6,0.6c-0.2,0.2-0.5,0.2-0.7,0.2c-0.3,0-0.6-0.1-0.8-0.2
		c-0.2-0.1-0.4-0.3-0.6-0.4c-0.2-0.2-0.5-0.3-0.8-0.4c-0.3-0.1-0.7-0.2-1.2-0.2c-0.7,0-1.4,0.1-2.1,0.3c-0.6,0.2-1.2,0.5-1.7,0.9
		c-0.5,0.4-0.8,0.9-1.1,1.5c-0.3,0.6-0.4,1.2-0.4,1.9c0,0.3,0.1,0.5,0.2,0.8s0.4,0.5,0.6,0.7c0.3,0.2,0.7,0.4,1.2,0.5
		c0.5,0.1,1.1,0.2,1.7,0.2c0.7,0,1.4-0.1,2-0.4c0.6-0.3,1.1-0.6,1.4-1c-0.8,0-1.4,0-1.9,0.1s-0.8,0.1-1.1,0.2
		c-0.3,0.1-0.5,0.1-0.6,0.2c-0.2,0-0.4,0.1-0.6,0.1c-0.2,0-0.4,0-0.5-0.1c-0.2,0-0.3-0.1-0.4-0.2c-0.1-0.1-0.2-0.3-0.3-0.5
		s-0.1-0.5-0.1-0.8c0-0.4,0-0.7,0.1-1c0.1-0.3,0.3-0.5,0.6-0.6c0.3-0.1,0.8-0.3,1.4-0.3c0.6-0.1,1.5-0.1,2.6-0.1c0.7,0,1.3,0,1.9,0
		c0.6,0,1.2,0.1,1.8,0.2c0.4,0.1,0.8,0.2,0.9,0.4c0.2,0.2,0.3,0.6,0.3,1c0,0.7-0.2,1.4-0.7,2c-0.4,0.7-1,1.3-1.8,1.9
		c-0.7,0.6-1.6,1-2.6,1.4c-1,0.3-2.1,0.5-3.2,0.5c-1,0-1.8-0.1-2.7-0.2c-0.8-0.2-1.5-0.4-2.1-0.8c-0.6-0.4-1-0.9-1.4-1.5
		c-0.3-0.6-0.5-1.4-0.5-2.3c0-1,0.3-2,0.8-2.9s1.2-1.8,2.1-2.6c0.9-0.8,1.9-1.4,3-1.8C51.1,38.3,52.3,38.1,53.5,38.1z"/>
	<path class="st2" d="M66,38.2c1.8,0,3.3,0.1,4.5,0.3c1.2,0.2,2.1,0.5,2.8,0.8c0.7,0.3,1.2,0.7,1.5,1.2c0.3,0.5,0.4,1,0.4,1.5
		c0,0.5-0.1,1-0.4,1.4s-0.7,0.8-1.2,1.1c-0.5,0.3-1,0.6-1.7,0.9c-0.6,0.3-1.3,0.5-2,0.6c0.5,0.5,1,1,1.4,1.3s0.7,0.6,1,0.8
		c0.3,0.2,0.5,0.3,0.7,0.4s0.3,0.2,0.4,0.2c0.1,0.1,0.2,0.1,0.2,0.2c0,0.1,0,0.2,0,0.4c0,0.3-0.1,0.5-0.2,0.7
		c-0.2,0.2-0.3,0.4-0.6,0.6c-0.2,0.2-0.4,0.3-0.7,0.4c-0.2,0.1-0.4,0.1-0.5,0.1c0,0-0.2,0-0.4-0.1s-0.6-0.3-1-0.5
		c-0.4-0.3-1-0.7-1.6-1.3c-0.6-0.6-1.3-1.4-2.1-2.4c-0.3,0-0.6,0-0.9,0.1c-0.3,0-0.6,0-0.9,0h-0.5c-0.1,0.6-0.2,1.1-0.2,1.4
		S64,48.8,64,49v0.3c0,0.1,0,0.3,0,0.5c0,0.2-0.1,0.3-0.2,0.4s-0.3,0.2-0.5,0.3c-0.2,0.1-0.5,0.1-0.8,0.1c-0.7,0-1.2-0.1-1.5-0.3
		c-0.3-0.2-0.4-0.5-0.4-1c0-0.2,0.1-0.6,0.2-1.2c0.1-0.6,0.3-1.3,0.4-2.1c0.2-0.8,0.3-1.6,0.5-2.5c0.2-0.9,0.3-1.7,0.5-2.5
		c-0.1-0.1-0.2-0.3-0.2-0.4c0-0.2-0.1-0.3-0.1-0.5c0-0.3,0-0.6,0.1-0.8c0.1-0.2,0.3-0.4,0.6-0.6c0.3-0.2,0.7-0.3,1.3-0.4
		S65.1,38.2,66,38.2z M66.7,41.3c-0.2,0-0.4,0-0.6,0c-0.2,0-0.4,0-0.7,0c-0.1,0.3-0.2,0.7-0.2,1c-0.1,0.4-0.2,0.9-0.3,1.6
		c0.9,0,1.8-0.1,2.7-0.2c0.8-0.1,1.5-0.3,2.2-0.4c0.6-0.2,1.1-0.4,1.4-0.6c0.4-0.2,0.5-0.5,0.5-0.7c0-0.2-0.4-0.4-1.1-0.5
		c-0.7-0.1-1.9-0.2-3.4-0.2H66.7z"/>
	<path class="st2" d="M82.1,38.2c0.2,0,0.5,0,1,0c0.4,0,0.9,0,1.4,0.1c0.5,0,1.1,0.1,1.6,0.1s1.1,0.1,1.6,0.2
		c0.5,0.1,0.9,0.1,1.2,0.2c0.3,0.1,0.5,0.2,0.7,0.3c0.2,0.1,0.3,0.2,0.3,0.4c0,0.1,0.1,0.3,0.1,0.5c0,0.5,0,0.8-0.1,1.1
		c-0.1,0.3-0.2,0.5-0.3,0.6c-0.1,0.1-0.3,0.2-0.4,0.3C89,42,88.8,42,88.6,42c-0.1,0-0.2,0-0.3,0c-0.1,0-0.2,0-0.3,0
		c-0.1,0-0.2,0-0.4-0.1s-0.3,0-0.5-0.1c-0.5,0-1-0.1-1.5-0.1s-1-0.1-1.5-0.1c-0.5,0-1.1-0.1-1.7-0.1c-0.6,0-1.2,0-2,0
		c0,0.1,0,0.2-0.1,0.4c0,0.2-0.1,0.5-0.1,0.9c0.2,0,0.6,0.1,1.2,0.1s1.2,0,1.9,0h0.4c0.2,0,0.4,0,0.7,0c0.3,0,0.6,0,0.9,0
		c0.3,0,0.6,0,0.9,0c0.3,0,0.5,0,0.7,0h0.5c0.3,0,0.5,0,0.7,0.1c0.2,0.1,0.3,0.2,0.4,0.3c0.1,0.1,0.1,0.3,0.2,0.5c0,0.2,0,0.3,0,0.5
		c0,0.4-0.1,0.7-0.2,0.9c-0.1,0.2-0.4,0.4-0.8,0.5c-0.4,0.1-1.1,0.2-2,0.2s-2,0-3.5,0h-1.6c-0.2,0-0.4,0-0.6,0s-0.3,0-0.3,0
		c-0.1,0.3-0.1,0.6-0.1,0.8c0,0.2-0.1,0.4-0.1,0.5c0.6,0.1,1.2,0.1,1.7,0.1c0.5,0,1.1,0,1.8,0c0.3,0,0.6,0,1,0c0.3,0,0.6,0,0.9-0.1
		c0.6-0.1,1-0.1,1.3-0.1c0.3,0,0.5-0.1,0.7-0.1c0.2,0,0.3,0,0.4,0c0.1,0,0.3,0,0.4,0c0.2,0,0.4,0,0.5,0.1c0.1,0,0.2,0.1,0.3,0.2
		s0.1,0.3,0.2,0.5c0,0.2,0.1,0.5,0.1,0.9c0,0.4-0.1,0.7-0.4,1c-0.2,0.2-0.6,0.4-1.1,0.5c-0.5,0.1-1,0.2-1.7,0.2c-0.7,0-1.4,0-2.3,0
		c-1.7,0-3.1,0-4.1-0.1c-1-0.1-1.8-0.1-2.3-0.2c-0.5-0.1-0.8-0.2-1-0.3c-0.1-0.1-0.2-0.3-0.2-0.4c0-0.1,0-0.1,0-0.2s0-0.2,0.1-0.3
		c0-0.1,0.1-0.4,0.1-0.8c0.1-0.5,0.2-1,0.3-1.7c0.1-0.6,0.2-1.3,0.4-2.1c0.1-0.7,0.3-1.4,0.4-2.1c0.1-0.6,0.2-1.2,0.3-1.6
		c0.1-0.5,0.1-0.7,0.1-0.8c0.1-0.3,0.1-0.5,0.2-0.7s0.2-0.3,0.3-0.4s0.2-0.2,0.4-0.2s0.3-0.1,0.4-0.1c0.1,0,0.3,0,0.6,0
		c0.3,0,0.6,0,0.9,0c0.3,0,0.6,0,1,0C81.6,38.2,81.9,38.2,82.1,38.2z"/>
	<path class="st2" d="M96.7,38.2c0.2,0,0.5,0,1,0c0.4,0,0.9,0,1.4,0.1c0.5,0,1.1,0.1,1.6,0.1s1.1,0.1,1.6,0.2
		c0.5,0.1,0.9,0.1,1.2,0.2c0.3,0.1,0.5,0.2,0.7,0.3c0.2,0.1,0.3,0.2,0.3,0.4c0,0.1,0.1,0.3,0.1,0.5c0,0.5,0,0.8-0.1,1.1
		c-0.1,0.3-0.2,0.5-0.3,0.6c-0.1,0.1-0.3,0.2-0.4,0.3c-0.2,0-0.3,0.1-0.5,0.1c-0.1,0-0.2,0-0.3,0c-0.1,0-0.2,0-0.3,0
		c-0.1,0-0.2,0-0.4-0.1s-0.3,0-0.5-0.1c-0.5,0-1-0.1-1.5-0.1s-1-0.1-1.5-0.1c-0.5,0-1.1-0.1-1.7-0.1c-0.6,0-1.2,0-2,0
		c0,0.1,0,0.2-0.1,0.4c0,0.2-0.1,0.5-0.1,0.9c0.2,0,0.6,0.1,1.2,0.1s1.2,0,1.9,0h0.4c0.2,0,0.4,0,0.7,0c0.3,0,0.6,0,0.9,0
		c0.3,0,0.6,0,0.9,0c0.3,0,0.5,0,0.7,0h0.5c0.3,0,0.5,0,0.7,0.1c0.2,0.1,0.3,0.2,0.4,0.3c0.1,0.1,0.1,0.3,0.2,0.5c0,0.2,0,0.3,0,0.5
		c0,0.4-0.1,0.7-0.2,0.9c-0.1,0.2-0.4,0.4-0.8,0.5c-0.4,0.1-1.1,0.2-2,0.2s-2,0-3.5,0h-1.6c-0.2,0-0.4,0-0.6,0s-0.3,0-0.3,0
		c-0.1,0.3-0.1,0.6-0.1,0.8c0,0.2-0.1,0.4-0.1,0.5c0.6,0.1,1.2,0.1,1.7,0.1c0.5,0,1.1,0,1.8,0c0.3,0,0.6,0,1,0c0.3,0,0.6,0,0.9-0.1
		c0.6-0.1,1-0.1,1.3-0.1c0.3,0,0.5-0.1,0.7-0.1c0.2,0,0.3,0,0.4,0c0.1,0,0.3,0,0.4,0c0.2,0,0.4,0,0.5,0.1c0.1,0,0.2,0.1,0.3,0.2
		s0.1,0.3,0.2,0.5c0,0.2,0.1,0.5,0.1,0.9c0,0.4-0.1,0.7-0.4,1c-0.2,0.2-0.6,0.4-1.1,0.5c-0.5,0.1-1,0.2-1.7,0.2c-0.7,0-1.4,0-2.3,0
		c-1.7,0-3.1,0-4.1-0.1c-1-0.1-1.8-0.1-2.3-0.2c-0.5-0.1-0.8-0.2-1-0.3c-0.1-0.1-0.2-0.3-0.2-0.4c0-0.1,0-0.1,0-0.2s0-0.2,0.1-0.3
		c0-0.1,0.1-0.4,0.1-0.8c0.1-0.5,0.2-1,0.3-1.7c0.1-0.6,0.2-1.3,0.4-2.1c0.1-0.7,0.3-1.4,0.4-2.1c0.1-0.6,0.2-1.2,0.3-1.6
		c0.1-0.5,0.1-0.7,0.1-0.8c0.1-0.3,0.1-0.5,0.2-0.7s0.2-0.3,0.3-0.4s0.2-0.2,0.4-0.2s0.3-0.1,0.4-0.1c0.1,0,0.3,0,0.6,0
		c0.3,0,0.6,0,0.9,0c0.3,0,0.6,0,1,0C96.2,38.2,96.5,38.2,96.7,38.2z"/>
	<path class="st2" d="M117.9,38.7c0.7,0,1.2,0.1,1.5,0.3c0.3,0.2,0.4,0.5,0.4,0.8c0,0.3-0.1,0.6-0.2,0.8c-0.1,0.3-0.2,0.6-0.3,1
		c0,0.1-0.1,0.3-0.1,0.7c-0.1,0.4-0.1,0.8-0.2,1.4c-0.1,0.5-0.2,1.1-0.3,1.7s-0.2,1.2-0.3,1.7c-0.1,0.5-0.2,1-0.2,1.4
		c-0.1,0.4-0.1,0.6-0.1,0.7c-0.1,0.5-0.3,0.9-0.6,1.2c-0.3,0.3-0.7,0.4-1.3,0.4c-0.1,0-0.3,0-0.5-0.1c-0.2,0-0.4-0.1-0.7-0.2
		c-0.2-0.1-0.5-0.2-0.7-0.3c-0.2-0.1-0.4-0.3-0.6-0.4c-0.4-0.3-0.7-0.7-1.1-1.2c-0.4-0.5-0.8-1-1.2-1.5s-0.7-1.1-1.1-1.6
		c-0.4-0.6-0.7-1.1-1-1.6c-0.2,0.6-0.3,1.2-0.4,1.7s-0.2,0.9-0.3,1.3c-0.1,0.4-0.2,0.7-0.2,1c-0.1,0.3-0.1,0.7-0.1,1
		c0,0.3-0.1,0.6-0.1,0.8c0,0.2-0.1,0.4-0.2,0.5c-0.1,0.1-0.3,0.2-0.5,0.2c-0.2,0-0.5,0.1-0.8,0.1c-0.7,0-1.2-0.1-1.5-0.3
		c-0.3-0.2-0.5-0.6-0.5-1.1c0-0.1,0-0.4,0.1-0.8s0.2-1,0.4-1.6v0c0.1-0.5,0.3-1.1,0.4-1.7c0.1-0.6,0.3-1.2,0.5-1.9
		c0.2-0.6,0.3-1.2,0.4-1.8c0.1-0.6,0.2-1.1,0.3-1.6c0-0.3,0.2-0.6,0.6-0.9c0.4-0.2,0.9-0.4,1.6-0.4c1,0,1.6,0.3,1.6,0.8
		c0.3,0.6,0.6,1.2,1,1.8c0.4,0.6,0.7,1.3,1.1,1.9c0.4,0.6,0.8,1.2,1.2,1.8c0.4,0.6,0.7,1.1,1.1,1.5c0.1-0.6,0.2-1.2,0.3-1.8
		c0.1-0.6,0.2-1.2,0.3-1.8c0.1-0.6,0.2-1.1,0.3-1.7c0.1-0.5,0.2-1,0.3-1.4c0.1-0.3,0.2-0.6,0.5-0.8C117,38.8,117.4,38.7,117.9,38.7z
		"/>
	<path class="st2" d="M37.8,62.5c0.5,0,0.9,0.1,1.1,0.3c0.2,0.2,0.3,0.4,0.3,0.8c0,0.1,0,0.2,0,0.2s0,0.2-0.1,0.3
		c-0.4,1.8-0.8,3.4-1.1,4.6c-0.3,1.2-0.5,2.2-0.6,2.9c0.2,0,0.6,0,1.1,0c0.5,0,1,0,1.4-0.1c0.5,0,0.9-0.1,1.4-0.1
		c0.4,0,0.7-0.1,0.8-0.1c0,0,0,0,0,0c0,0,0.1,0,0.1,0v0c0.3-0.1,0.5-0.3,0.7-0.3s0.4-0.1,0.7-0.1c0.4,0,0.8,0.1,1,0.4s0.4,0.6,0.4,1
		c0,0.5-0.1,0.9-0.3,1.2c-0.2,0.3-0.3,0.5-0.5,0.6C44,73.9,43.7,74,43.3,74c-0.4,0.1-1,0.1-1.6,0.2s-1.2,0.1-1.9,0.1
		c-0.7,0-1.3,0.1-1.9,0.1s-1.1,0-1.6,0.1c-0.5,0-0.8,0-1,0c-0.7,0-1.1-0.1-1.3-0.2c-0.2-0.2-0.3-0.4-0.3-0.8c0-0.1,0-0.4,0.1-0.8
		c0.1-0.4,0.1-0.9,0.3-1.4c0.1-0.6,0.2-1.2,0.4-1.8s0.3-1.4,0.4-2.1c0.1-0.7,0.3-1.4,0.5-2.1c0.2-0.7,0.3-1.3,0.4-1.9
		c0-0.1,0-0.2,0.1-0.3s0.2-0.2,0.3-0.3c0.1-0.1,0.3-0.2,0.6-0.2C37,62.5,37.4,62.5,37.8,62.5z"/>
	<path class="st2" d="M54.9,61.9c0.4,0,0.6,0.1,0.7,0.2c0.1,0.1,0.3,0.3,0.4,0.5c0.1,0.2,0.3,0.6,0.5,1.1c0.2,0.6,0.4,1.2,0.7,2
		c0.2,0.8,0.5,1.6,0.7,2.4c0.2,0.8,0.5,1.6,0.7,2.4c0.2,0.7,0.4,1.3,0.5,1.8c0.1,0.5,0.2,0.8,0.2,0.9c0,0.3-0.1,0.5-0.3,0.7
		s-0.4,0.4-0.6,0.5c-0.3,0.1-0.5,0.2-0.8,0.3s-0.4,0.1-0.6,0.1c-0.5,0-0.8-0.1-0.9-0.4c0,0,0-0.1-0.1-0.1s0-0.2-0.1-0.3
		c0-0.1-0.1-0.4-0.2-0.6c-0.1-0.3-0.1-0.6-0.2-1.1c-0.5,0-1,0-1.6,0c-0.6,0-1.1,0-1.6,0c-0.5,0-1,0-1.5,0c-0.5,0-0.8,0-1.1,0
		C49.4,73,49,73.5,48.6,74c-0.4,0.4-0.7,0.6-0.9,0.6c-0.2,0-0.4,0-0.6-0.1c-0.2-0.1-0.5-0.2-0.7-0.3c-0.2-0.1-0.4-0.3-0.6-0.4
		s-0.3-0.3-0.3-0.4c0-0.2,0-0.3,0.1-0.5s0.2-0.4,0.4-0.7c0.2-0.3,0.5-0.7,0.8-1.2s0.8-1.1,1.4-1.9c0.7-1,1.6-2,2.5-3.1
		c0.9-1.1,2-2.3,3.1-3.5c0.1-0.1,0.2-0.2,0.3-0.3S54.6,61.9,54.9,61.9z M54.9,69.2c-0.2-0.5-0.3-1-0.4-1.5c-0.1-0.5-0.3-0.9-0.4-1.2
		c-0.4,0.4-0.8,0.9-1.1,1.3c-0.4,0.5-0.7,0.9-1,1.4c0.5,0,1,0,1.5,0C53.9,69.2,54.4,69.2,54.9,69.2z"/>
	<path class="st2" d="M73.7,62.7c0.7,0,1.2,0.1,1.5,0.3c0.3,0.2,0.4,0.5,0.4,0.8c0,0.3-0.1,0.6-0.2,0.8c-0.1,0.3-0.2,0.6-0.3,1
		c0,0.1-0.1,0.3-0.1,0.7c-0.1,0.4-0.1,0.8-0.2,1.4c-0.1,0.5-0.2,1.1-0.3,1.7s-0.2,1.2-0.3,1.7c-0.1,0.5-0.2,1-0.2,1.4
		c-0.1,0.4-0.1,0.6-0.1,0.7c-0.1,0.5-0.3,0.9-0.6,1.2c-0.3,0.3-0.7,0.4-1.3,0.4c-0.1,0-0.3,0-0.5-0.1c-0.2,0-0.4-0.1-0.7-0.2
		c-0.2-0.1-0.5-0.2-0.7-0.3c-0.2-0.1-0.4-0.3-0.6-0.4c-0.4-0.3-0.7-0.7-1.1-1.2c-0.4-0.5-0.8-1-1.2-1.5s-0.7-1.1-1.1-1.6
		c-0.4-0.6-0.7-1.1-1-1.6c-0.2,0.6-0.3,1.2-0.4,1.7s-0.2,0.9-0.3,1.3c-0.1,0.4-0.2,0.7-0.2,1c-0.1,0.3-0.1,0.7-0.1,1
		c0,0.3-0.1,0.6-0.1,0.8c0,0.2-0.1,0.4-0.2,0.5c-0.1,0.1-0.3,0.2-0.5,0.2c-0.2,0-0.5,0.1-0.8,0.1c-0.7,0-1.2-0.1-1.5-0.3
		c-0.3-0.2-0.5-0.6-0.5-1.1c0-0.1,0-0.4,0.1-0.8s0.2-1,0.4-1.6v0c0.1-0.5,0.3-1.1,0.4-1.7c0.1-0.6,0.3-1.2,0.5-1.9
		c0.2-0.6,0.3-1.2,0.4-1.8c0.1-0.6,0.2-1.1,0.3-1.6c0-0.3,0.2-0.6,0.6-0.9c0.4-0.2,0.9-0.4,1.6-0.4c1,0,1.6,0.3,1.6,0.8
		c0.3,0.6,0.6,1.2,1,1.8c0.4,0.6,0.7,1.3,1.1,1.9c0.4,0.6,0.8,1.2,1.2,1.8c0.4,0.6,0.7,1.1,1.1,1.5c0.1-0.6,0.2-1.2,0.3-1.8
		c0.1-0.6,0.2-1.2,0.3-1.8c0.1-0.6,0.2-1.1,0.3-1.7c0.1-0.5,0.2-1,0.3-1.4c0.1-0.3,0.2-0.6,0.5-0.8C72.7,62.8,73.1,62.7,73.7,62.7z"
		/>
	<path class="st2" d="M82.2,74.7c-0.1,0-0.3,0-0.5,0c-0.2,0-0.4-0.1-0.6-0.1c-0.2-0.1-0.4-0.2-0.5-0.4c-0.1-0.2-0.2-0.4-0.2-0.7
		c0-0.2,0-0.3,0-0.4c0-0.1,0.1-0.2,0.1-0.3c0-0.1,0.1-0.2,0.1-0.3c0-0.1,0.1-0.2,0.1-0.4c0,0,0.1-0.3,0.2-0.8c0.1-0.5,0.2-1,0.4-1.7
		c0.1-0.7,0.3-1.4,0.5-2.1c0.2-0.7,0.3-1.4,0.4-1.9c-0.4,0-0.9,0-1.3,0.1c-0.4,0-0.8,0-1.2,0.1c-0.4,0-0.7,0-0.9,0.1
		c-0.3,0-0.4,0-0.5,0c-0.1,0-0.3,0-0.4,0c-0.1,0-0.3-0.1-0.4-0.2c-0.1-0.1-0.2-0.2-0.3-0.4c-0.1-0.2-0.1-0.4-0.1-0.7
		c0-0.5,0.1-0.8,0.2-1.1c0.2-0.3,0.5-0.5,0.9-0.6c0.4-0.1,1-0.2,1.8-0.3s1.8-0.1,3-0.1h2.6c0.6,0,1.2,0,1.9,0c0.7,0,1.4,0.1,2.1,0.1
		c1.1,0.1,1.6,0.5,1.6,1.3c0,0.2,0,0.4-0.1,0.6c-0.1,0.2-0.2,0.5-0.3,0.7c-0.1,0.2-0.3,0.4-0.5,0.5C90.2,65.9,90,66,89.8,66
		c-0.1,0-0.2,0-0.3,0c-0.1,0-0.2,0-0.3-0.1c-0.1,0-0.1,0-0.3-0.1c-0.1,0-0.3-0.1-0.6-0.1c-0.3,0-0.6-0.1-1.1-0.1
		c-0.4,0-1-0.1-1.6-0.1c-0.2,1.1-0.4,2.1-0.6,2.9c-0.2,0.8-0.3,1.4-0.4,1.9c-0.2,0.9-0.4,1.6-0.5,2.2c-0.1,0.6-0.2,1-0.4,1.3
		s-0.3,0.5-0.6,0.7S82.6,74.7,82.2,74.7z"/>
	<path class="st2" d="M96.7,62.2c0.2,0,0.5,0,1,0c0.4,0,0.9,0,1.4,0.1c0.5,0,1.1,0.1,1.6,0.1s1.1,0.1,1.6,0.2
		c0.5,0.1,0.9,0.1,1.2,0.2c0.3,0.1,0.5,0.2,0.7,0.3c0.2,0.1,0.3,0.2,0.3,0.4c0,0.1,0.1,0.3,0.1,0.5c0,0.5,0,0.8-0.1,1.1
		c-0.1,0.3-0.2,0.5-0.3,0.6c-0.1,0.1-0.3,0.2-0.4,0.3c-0.2,0-0.3,0.1-0.5,0.1c-0.1,0-0.2,0-0.3,0c-0.1,0-0.2,0-0.3,0
		c-0.1,0-0.2,0-0.4-0.1s-0.3,0-0.5-0.1c-0.5,0-1-0.1-1.5-0.1s-1-0.1-1.5-0.1c-0.5,0-1.1-0.1-1.7-0.1c-0.6,0-1.2,0-2,0
		c0,0.1,0,0.2-0.1,0.4c0,0.2-0.1,0.5-0.1,0.9c0.2,0,0.6,0.1,1.2,0.1s1.2,0,1.9,0h0.4c0.2,0,0.4,0,0.7,0c0.3,0,0.6,0,0.9,0
		c0.3,0,0.6,0,0.9,0c0.3,0,0.5,0,0.7,0h0.5c0.3,0,0.5,0,0.7,0.1c0.2,0.1,0.3,0.2,0.4,0.3c0.1,0.1,0.1,0.3,0.2,0.5c0,0.2,0,0.3,0,0.5
		c0,0.4-0.1,0.7-0.2,0.9c-0.1,0.2-0.4,0.4-0.8,0.5c-0.4,0.1-1.1,0.2-2,0.2s-2,0-3.5,0h-1.6c-0.2,0-0.4,0-0.6,0s-0.3,0-0.3,0
		c-0.1,0.3-0.1,0.6-0.1,0.8c0,0.2-0.1,0.4-0.1,0.5c0.6,0.1,1.2,0.1,1.7,0.1c0.5,0,1.1,0,1.8,0c0.3,0,0.6,0,1,0c0.3,0,0.6,0,0.9-0.1
		c0.6-0.1,1-0.1,1.3-0.1c0.3,0,0.5-0.1,0.7-0.1c0.2,0,0.3,0,0.4,0c0.1,0,0.3,0,0.4,0c0.2,0,0.4,0,0.5,0.1c0.1,0,0.2,0.1,0.3,0.2
		s0.1,0.3,0.2,0.5c0,0.2,0.1,0.5,0.1,0.9c0,0.4-0.1,0.7-0.4,1c-0.2,0.2-0.6,0.4-1.1,0.5c-0.5,0.1-1,0.2-1.7,0.2c-0.7,0-1.4,0-2.3,0
		c-1.7,0-3.1,0-4.1-0.1c-1-0.1-1.8-0.1-2.3-0.2c-0.5-0.1-0.8-0.2-1-0.3c-0.1-0.1-0.2-0.3-0.2-0.4c0-0.1,0-0.1,0-0.2s0-0.2,0.1-0.3
		c0-0.1,0.1-0.4,0.1-0.8c0.1-0.5,0.2-1,0.3-1.7c0.1-0.6,0.2-1.3,0.4-2.1c0.1-0.7,0.3-1.4,0.4-2.1c0.1-0.6,0.2-1.2,0.3-1.6
		c0.1-0.5,0.1-0.7,0.1-0.8c0.1-0.3,0.1-0.5,0.2-0.7s0.2-0.3,0.3-0.4s0.2-0.2,0.4-0.2s0.3-0.1,0.4-0.1c0.1,0,0.3,0,0.6,0
		c0.3,0,0.6,0,0.9,0c0.3,0,0.6,0,1,0C96.2,62.2,96.4,62.2,96.7,62.2z"/>
	<path class="st2" d="M110.9,62.2c1.8,0,3.3,0.1,4.5,0.3c1.2,0.2,2.1,0.5,2.8,0.8c0.7,0.3,1.2,0.7,1.5,1.2c0.3,0.5,0.4,1,0.4,1.5
		c0,0.5-0.1,1-0.4,1.4s-0.7,0.8-1.2,1.1c-0.5,0.3-1,0.6-1.7,0.9c-0.6,0.3-1.3,0.5-2,0.6c0.5,0.5,1,1,1.4,1.3s0.7,0.6,1,0.8
		c0.3,0.2,0.5,0.3,0.7,0.4s0.3,0.2,0.4,0.2c0.1,0.1,0.2,0.1,0.2,0.2c0,0.1,0,0.2,0,0.4c0,0.3-0.1,0.5-0.2,0.7
		c-0.2,0.2-0.3,0.4-0.6,0.6c-0.2,0.2-0.4,0.3-0.7,0.4c-0.2,0.1-0.4,0.1-0.5,0.1c0,0-0.2,0-0.4-0.1s-0.6-0.3-1-0.5
		c-0.4-0.3-1-0.7-1.6-1.3c-0.6-0.6-1.3-1.4-2.1-2.4c-0.3,0-0.6,0-0.9,0.1c-0.3,0-0.6,0-0.9,0h-0.5c-0.1,0.6-0.2,1.1-0.2,1.4
		s-0.1,0.5-0.1,0.7v0.3c0,0.1,0,0.3,0,0.5c0,0.2-0.1,0.3-0.2,0.4s-0.3,0.2-0.5,0.3c-0.2,0.1-0.5,0.1-0.8,0.1c-0.7,0-1.2-0.1-1.5-0.3
		c-0.3-0.2-0.4-0.5-0.4-1c0-0.2,0.1-0.6,0.2-1.2c0.1-0.6,0.3-1.3,0.4-2.1c0.2-0.8,0.3-1.6,0.5-2.5c0.2-0.9,0.3-1.7,0.5-2.5
		c-0.1-0.1-0.2-0.3-0.2-0.4c0-0.2-0.1-0.3-0.1-0.5c0-0.3,0-0.6,0.1-0.8c0.1-0.2,0.3-0.4,0.6-0.6c0.3-0.2,0.7-0.3,1.3-0.4
		S110,62.2,110.9,62.2z M111.6,65.3c-0.2,0-0.4,0-0.6,0c-0.2,0-0.4,0-0.7,0c-0.1,0.3-0.2,0.7-0.2,1c-0.1,0.4-0.2,0.9-0.3,1.6
		c0.9,0,1.8-0.1,2.7-0.2c0.8-0.1,1.5-0.3,2.2-0.4c0.6-0.2,1.1-0.4,1.4-0.6c0.4-0.2,0.5-0.5,0.5-0.7c0-0.2-0.4-0.4-1.1-0.5
		c-0.7-0.1-1.9-0.2-3.4-0.2H111.6z"/>
	<path class="st2" d="M133.7,62.7c0.7,0,1.2,0.1,1.5,0.3c0.3,0.2,0.4,0.5,0.4,0.8c0,0.3-0.1,0.6-0.2,0.8c-0.1,0.3-0.2,0.6-0.3,1
		c0,0.1-0.1,0.3-0.1,0.7c-0.1,0.4-0.1,0.8-0.2,1.4c-0.1,0.5-0.2,1.1-0.3,1.7s-0.2,1.2-0.3,1.7c-0.1,0.5-0.2,1-0.2,1.4
		c-0.1,0.4-0.1,0.6-0.1,0.7c-0.1,0.5-0.3,0.9-0.6,1.2c-0.3,0.3-0.7,0.4-1.3,0.4c-0.1,0-0.3,0-0.5-0.1c-0.2,0-0.4-0.1-0.7-0.2
		c-0.2-0.1-0.5-0.2-0.7-0.3c-0.2-0.1-0.4-0.3-0.6-0.4c-0.4-0.3-0.7-0.7-1.1-1.2c-0.4-0.5-0.8-1-1.2-1.5s-0.7-1.1-1.1-1.6
		c-0.4-0.6-0.7-1.1-1-1.6c-0.2,0.6-0.3,1.2-0.4,1.7s-0.2,0.9-0.3,1.3c-0.1,0.4-0.2,0.7-0.2,1c-0.1,0.3-0.1,0.7-0.1,1
		c0,0.3-0.1,0.6-0.1,0.8c0,0.2-0.1,0.4-0.2,0.5c-0.1,0.1-0.3,0.2-0.5,0.2c-0.2,0-0.5,0.1-0.8,0.1c-0.7,0-1.2-0.1-1.5-0.3
		c-0.3-0.2-0.5-0.6-0.5-1.1c0-0.1,0-0.4,0.1-0.8s0.2-1,0.4-1.6v0c0.1-0.5,0.3-1.1,0.4-1.7c0.1-0.6,0.3-1.2,0.5-1.9
		c0.2-0.6,0.3-1.2,0.4-1.8c0.1-0.6,0.2-1.1,0.3-1.6c0-0.3,0.2-0.6,0.6-0.9c0.4-0.2,0.9-0.4,1.6-0.4c1,0,1.6,0.3,1.6,0.8
		c0.3,0.6,0.6,1.2,1,1.8c0.4,0.6,0.7,1.3,1.1,1.9c0.4,0.6,0.8,1.2,1.2,1.8c0.4,0.6,0.7,1.1,1.1,1.5c0.1-0.6,0.2-1.2,0.3-1.8
		c0.1-0.6,0.2-1.2,0.3-1.8c0.1-0.6,0.2-1.1,0.3-1.7c0.1-0.5,0.2-1,0.3-1.4c0.1-0.3,0.2-0.6,0.5-0.8
		C132.7,62.8,133.1,62.7,133.7,62.7z"/>
</g>
</svg>
