<?xml version="1.0" encoding="utf-8"?>
<!-- Generator: Adobe Illustrator 21.0.0, SVG Export Plug-In . SVG Version: 6.00 Build 0)  -->
<svg version="1.1" id="Layer_1" xmlns="http://www.w3.org/2000/svg" xmlns:xlink="http://www.w3.org/1999/xlink" x="0px" y="0px"
	 viewBox="0 0 267 406" style="enable-background:new 0 0 267 406;" xml:space="preserve">
<style type="text/css">
	.st0{fill:#EEE8D7;}
	.st1{fill:#460185;}
	.st2{opacity:0.3;clip-path:url(#SVGID_2_);}
	.st3{fill:#231F20;}
	.st4{fill:#FF4133;}
	.st5{fill:#4A0484;}
	.st6{fill:#ECEDEC;}
	.st7{fill:#EEEEEE;}
</style>
<g>
	<g>
		<path class="st0" d="M14.6,406.1c-7.8,0-14.2-6.4-14.2-14.2V14.7c0-7.8,6.4-14.2,14.2-14.2h238.3c7.8,0,14.2,6.4,14.2,14.2v377.3
			c0,7.8-6.4,14.2-14.2,14.2L14.6,406.1L14.6,406.1z"/>
	</g>
	<g>
		<path class="st1" d="M260,391.9c0,3.9-3.2,7.1-7.1,7.1H14.6c-3.9,0-7.1-3.2-7.1-7.1V14.7c0-3.9,3.2-7.1,7.1-7.1h238.3
			c3.9,0,7.1,3.2,7.1,7.1V391.9z"/>
	</g>
	<g>
		<g>
			<defs>
				<path id="SVGID_1_" d="M260,391.9c0,3.9-3.2,7.1-7.1,7.1H14.6c-3.9,0-7.1-3.2-7.1-7.1V14.7c0-3.9,3.2-7.1,7.1-7.1h238.3
					c3.9,0,7.1,3.2,7.1,7.1V391.9z"/>
			</defs>
			<clipPath id="SVGID_2_">
				<use xlink:href="#SVGID_1_"  style="overflow:visible;"/>
			</clipPath>
			<g class="st2">
				<g>
					
						<rect x="-120" y="-114.8" transform="matrix(0.7075 -0.7068 0.7068 0.7075 119.9946 61.0732)" class="st3" width="507.5" height="0.7"/>
				</g>
				<g>
					
						<rect x="-120" y="-69.4" transform="matrix(0.7075 -0.7068 0.7068 0.7075 87.9169 74.3525)" class="st3" width="507.5" height="0.7"/>
				</g>
				<g>
					
						<rect x="-120" y="-24" transform="matrix(0.7075 -0.7067 0.7067 0.7075 55.825 87.622)" class="st3" width="507.5" height="0.7"/>
				</g>
				<g>
					
						<rect x="-120" y="21.4" transform="matrix(0.7075 -0.7068 0.7068 0.7075 23.7618 100.9113)" class="st3" width="507.5" height="0.7"/>
				</g>
				<g>
					
						<rect x="-120" y="66.8" transform="matrix(0.7075 -0.7067 0.7067 0.7075 -8.3216 114.1727)" class="st3" width="507.5" height="0.7"/>
				</g>
				<g>
					
						<rect x="-120" y="112.2" transform="matrix(0.7075 -0.7067 0.7067 0.7075 -40.3951 127.4478)" class="st3" width="507.5" height="0.7"/>
				</g>
				<g>
					
						<rect x="-120" y="157.6" transform="matrix(0.7075 -0.7068 0.7068 0.7075 -72.4712 140.7498)" class="st3" width="507.5" height="0.7"/>
				</g>
				<g>
					
						<rect x="-120" y="202.9" transform="matrix(0.7075 -0.7067 0.7067 0.7075 -104.5415 153.9982)" class="st3" width="507.5" height="0.7"/>
				</g>
				<g>
					
						<rect x="-120" y="248.3" transform="matrix(0.7075 -0.7068 0.7068 0.7075 -136.6259 167.3081)" class="st3" width="507.5" height="0.7"/>
				</g>
				<g>
					
						<rect x="-120" y="293.7" transform="matrix(0.7075 -0.7067 0.7067 0.7075 -168.6888 180.5485)" class="st3" width="507.5" height="0.7"/>
				</g>
				<g>
					
						<rect x="-120" y="339.1" transform="matrix(0.7075 -0.7068 0.7068 0.7075 -200.7807 193.8671)" class="st3" width="507.5" height="0.7"/>
				</g>
				<g>
					
						<rect x="-120" y="384.5" transform="matrix(0.7075 -0.7067 0.7067 0.7075 -232.8351 207.0984)" class="st3" width="507.5" height="0.7"/>
				</g>
				<g>
					
						<rect x="-120" y="429.9" transform="matrix(0.7075 -0.7067 0.7067 0.7075 -264.9086 220.3745)" class="st3" width="507.5" height="0.7"/>
				</g>
				<g>
					
						<rect x="-119.9" y="475.3" transform="matrix(0.7075 -0.7068 0.7068 0.7075 -297.0128 233.7048)" class="st3" width="507.5" height="0.7"/>
				</g>
				<g>
					
						<rect x="-120" y="520.6" transform="matrix(0.7075 -0.7067 0.7067 0.7075 -329.055 246.9245)" class="st3" width="507.5" height="0.7"/>
				</g>
			</g>
		</g>
	</g>
</g>
<path class="st4" d="M236,223.8c1.5,1.5-0.4,2.1-0.9,2.8c-8.5,10.9-17,21.7-25.6,32.6c-22.2,28.2-44.4,56.3-66.6,84.5
	c-2.4,3-2.4,3-4.7,0.1c-30.8-39.5-61.7-79.1-92.5-118.7c1.6-1.3,3-0.2,4.4,0.4c7.3,3,14.6,5.9,21.9,9.1c2.3,1,4.3,0.9,6.4-0.4
	c3.7-2.2,7.5-4.3,11.3-6.5c2.1-1.3,4.3-1.5,6.8-1c10.2,2.4,20.3,4.9,30.5,7.3c3.3,0.8,3.9,1.7,4.1,5.1c0.2,4.6,0.2,4.6,4.7,4.6
	c4.7,0,9.5-0.1,14.2,0.1c2.4,0.1,3.3-0.8,3.4-3.2c0.1-5.2,0.1-5.3,5.1-6.6c8.8-2.4,17.5-4.6,26.3-6.9c2.3-0.6,4.4-0.5,6.2,1
	c5.2,4.6,10.8,4.7,17.2,2.5c7.6-2.5,15.6-4.3,23.4-6.3C233,223.8,234.4,223.3,236,223.8z"/>
<path class="st1" d="M236,223.8c-11,2.9-22.1,5.7-33,8.8c-3,0.8-5.4,0.8-7.9-1.2c-4.6-3.8-9.4-4.4-15.2-2.4
	c-7.5,2.7-15.3,4.3-23.1,6.2c-2,0.5-2.7,1.3-2.6,3.4c0.1,6,0,6-6,6c-5.2,0-10.4-0.1-15.7,0.1c-1.8,0.1-2.2-0.4-2.2-2.3
	c-0.1-6.7-0.1-6.7-6.7-8.3c-9.5-2.2-18.9-4.4-28.4-6.8c-1.6-0.4-2.8-0.2-4.1,0.6c-4.3,2.5-8.6,4.8-12.7,7.5c-2.1,1.3-3.8,1.2-6,0.3
	c-8-3.4-16.2-6.7-24.3-10.1c-0.7-0.3-1.4-0.7-2.2-0.5c-0.8-1,0.3-1.4,0.7-1.8c8.8-9.4,17.6-18.7,26.5-28.1c1.1-1.2,2.1-1.4,3.6-0.8
	c6.7,2.7,13.6,5.3,20.2,8c1.2,0.5,2.2,0.6,3.4,0.1c3.7-1.5,7.4-3.1,11.2-4.3c2.7-0.9,2-3,2.3-4.7c1.6,0,2,1.4,2.7,2.4
	c4.1,6.1,8.6,11.8,14,16.8c0.7,0.7,1.2,1.5,2.4,1.7c0.8-0.8,0.5-1.8,0.5-2.8c0-8.1,0.1-16.2,0-24.3c0-3.6-0.1-3.6-3.7-3.6
	c-1.2,0-2.4-0.2-3.6-0.3c-1.5-0.1-3-0.8-3.1,2c-0.1,1.8-1.7,0.8-2.3,0.1c-3.6-4.4-6.7-9.1-6.5-15.1c0.1-1.3,0.1-2.5,0.4-3.8
	c1.1-5.2,5.4-8,10.5-6.9c5.1,1.1,9.6,3.6,13.7,6.8c2.2,1.7,3.8,1.7,6,0.1c3-2.4,6.5-4.1,10-5.7c8.3-3.7,14.4,0.2,14.7,9.3
	c0.2,5.4-1.9,9.8-5.1,13.8c-0.9,1.1-2.3,3.6-3.6,0.1c-0.3-0.8-1.1-0.6-1.8-0.5c-2.1,0.2-4.3,0.5-6.5,0.3c-1.2-0.1-1.9,0.5-1.9,1.7
	c-0.1,9.5-0.1,19.1-0.1,28.6c1.4,0.6,1.9-0.4,2.5-0.8c5.8-4.4,10-10.3,14.1-16.2c0.7-1,1.2-2.4,2.7-2.5c-0.5,2.9,1.7,3.3,3.6,4.5
	c7.2,4.4,14.1,3.7,21.2-0.2c3.1-1.7,6.8-2.5,10.1-4c1.8-0.8,2.8-0.5,4.1,0.8c7.3,7.7,14.7,15.3,22,22.9
	C232.5,220.1,234.2,222,236,223.8z"/>
<path class="st4" d="M169.7,194.3c-4.6,7-9.5,13.9-15.9,19.3c-0.7,0.6-1.4,1.1-2.1,1.7c-0.5,0.4-0.9,1.2-1.7,0.8
	c-0.8-0.4-0.4-1.2-0.4-1.8c0-9.8,0.1-19.5-0.1-29.2c0-2.1,0.7-2.6,2.6-2.3c2.2,0.4,4.6,0.3,6.7-0.3c3-0.8,3.8-0.1,2.3,3.1
	c5.6-4.2,8.6-13,7-19.1c-1.3-4.9-4.9-7.2-9.8-6c-5.4,1.2-10,4.1-14.3,7.5c-1.9,1.5-3.1,1.2-4.8-0.1c-4.3-3.3-8.7-6.2-14-7.3
	c-5.5-1.2-9.2,1.5-10.1,7c-1.2,7.5,2.5,13,7,18.5c0.5-1.2-0.4-1.8-0.4-2.5c-0.1-1.1,0.4-1.8,1.5-1.5c2.9,0.7,5.9,0.9,8.8,0.6
	c1.7-0.2,2,0.7,2,2.1c0,9.9,0,19.7,0,29.6c0,0.7,0.3,1.5-0.5,1.8c-0.7,0.2-1.2-0.5-1.7-0.9c-6.3-5.3-11.4-11.7-15.9-18.5
	c-0.7-1.1-1.4-2.1-2.1-3.2c-0.4-12.1-1-24.3-0.1-36.3c0.9-12,7.2-20.4,18.9-24.3c11.4-3.7,24-0.6,31.1,7.8c4.4,5.1,6.5,11.4,6.6,18
	c0.2,11.4-0.1,22.8-0.1,34.3C170,193.3,169.9,193.8,169.7,194.3z"/>
<path d="M136.8,197c0-5.1-0.1-10.2,0.1-15.4c0.1-2.1-0.7-2-2.4-1.8c-3.4,0.5-6.9,0.8-10.2-0.3c-5.5-1.8-7.8-9.3-4.2-13.9
	c1.7-2.2,5.1-2.7,9-1.2c4,1.5,7.6,3.7,11,6.4c1.5,1.2,2.4,1.1,3.7,0c4.1-3.1,8.3-5.9,13.5-7c4-0.9,6.8,0.9,7.7,4.9
	c1.5,6.6-2.1,11.4-8.9,11.5c-2.2,0.1-4.6,0.2-6.7-0.4c-2-0.6-2.5,0.4-2.5,2.2c0.1,9.8-0.1,19.5,0.1,29.3c0.1,2.7-0.8,3.3-3.4,3.3
	c-6.6-0.1-6.6,0-6.6-6.6c0-1.8,0-3.7,0-5.5C136.7,200.7,136.7,198.8,136.8,197L136.8,197z"/>
<path class="st5" d="M154.1,145.7c0.8,7.6-2.2,12.6-8.8,14.7c-1.2,0.4-1.8,0.9-2.3,2c-1.1,2.4-2,1.6-2.8-0.2
	c-0.4-0.9-0.9-1.4-1.8-1.8c-7.1-2.8-9.5-6.6-9.4-14.2c1.2,0.2,1.2,1.5,1.6,2.2c1.5,2.5,3.6,4.4,6.3,5.6c1.4,0.7,2.7,1.1,3.7-0.8
	c0.7-1.4,1.8-1.2,2.4,0.1c0.9,1.8,2.1,1.3,3.5,0.8C150.3,152.7,152.5,149.6,154.1,145.7z"/>
<path class="st6" d="M148.4,173.9c3.2-1.5,5.9-2.7,8.8-4.1C155.5,174.4,153.2,175.5,148.4,173.9z"/>
<path class="st7" d="M134.1,173.9c-4.1,1.8-6.6,0.7-9-4.1C128.4,171.2,131.1,172.4,134.1,173.9z"/>
<g>
	<path class="st4" d="M66.9,77.3c1,0,1.9,0.2,2.6,0.5c0.7,0.3,1.1,0.9,1.1,1.7c0,0.3,0,0.7,0,1c0,0.4,0,0.7,0,1c0,1.8,0.1,3.4,0.3,5
		c0.2,1.6,0.4,3,0.6,4.3c0.2,1.3,0.5,2.3,0.7,3.1c0.2,0.8,0.4,1.2,0.4,1.3c0.4,0.7,0.6,1.3,0.6,1.8c0,0.4-0.1,0.8-0.4,1.2
		c-0.3,0.4-0.6,0.7-1,1s-0.8,0.5-1.2,0.7c-0.4,0.2-0.7,0.3-1,0.3c-0.4,0-0.8-0.3-1.2-0.8c-0.4-0.5-0.8-1.2-1.2-2.1s-0.7-2-1.1-3.3
		c-0.3-1.3-0.6-2.7-0.9-4.3c-1.2,2.4-2.3,4.3-3.1,5.7c-0.8,1.4-1.5,2.4-2.1,3.2c-0.6,0.7-1.1,1.2-1.6,1.4c-0.4,0.2-0.9,0.3-1.4,0.3
		c-0.6,0-1,0-1.4-0.1c-0.3-0.1-0.6-0.2-0.9-0.4c-0.2-0.2-0.4-0.5-0.5-0.9c-0.1-0.4-0.3-0.9-0.4-1.6c-0.1-0.7-0.3-1.7-0.5-2.9
		c-0.2-1.2-0.4-2.8-0.6-4.7c-0.5,0.9-1,1.8-1.5,2.7c-0.5,0.9-0.9,1.6-1.2,2.3s-0.6,1.3-0.9,1.7c-0.2,0.5-0.3,0.8-0.4,0.9
		c-0.1,0.7-0.4,1.3-0.9,1.7c-0.5,0.5-1.2,0.7-2,0.7c-0.3,0-0.6,0-1-0.1c-0.4-0.1-0.7-0.2-1.1-0.4c-0.3-0.2-0.6-0.5-0.9-0.8
		c-0.3-0.3-0.4-0.8-0.4-1.3c0-0.3,0.1-0.7,0.3-1.2c0.2-0.5,0.4-0.9,0.7-1.5c0.3-0.5,0.6-1.1,1-1.7c0.4-0.6,0.7-1.2,1.1-1.8
		c0.7-1.2,1.3-2.2,1.8-3.1c0.5-0.9,1-1.7,1.4-2.5l2-3.7h0c0.5-0.9,0.8-1.6,1.1-2.2c0.3-0.6,0.6-1,0.9-1.3s0.6-0.5,1-0.6
		c0.4-0.1,0.8-0.2,1.4-0.2c0.6,0,1,0,1.4,0.1c0.4,0.1,0.7,0.4,1,0.9c0.1,0.2,0.1,0.5,0.2,1.1c0.1,0.6,0.2,1.2,0.2,1.9
		c0.1,0.7,0.1,1.5,0.2,2.4c0.1,0.9,0.1,1.7,0.2,2.5c0.1,0.8,0.1,1.5,0.2,2.2c0.1,0.6,0.1,1.1,0.2,1.5c0.8-1.6,1.6-3.2,2.4-4.8
		c0.8-1.6,1.6-3.5,2.5-5.5c0.1-0.2,0.2-0.5,0.3-0.8c0.1-0.3,0.3-0.5,0.5-0.7c0.2-0.2,0.5-0.4,0.9-0.6C65.9,77.4,66.4,77.3,66.9,77.3
		z"/>
	<path class="st4" d="M91.4,76.6c0.6,0,1.1,0.1,1.3,0.3c0.2,0.2,0.5,0.5,0.8,0.9c0.2,0.3,0.6,1,0.9,2.1c0.4,1,0.8,2.2,1.2,3.6
		c0.4,1.4,0.9,2.8,1.3,4.3s0.8,2.9,1.2,4.2c0.4,1.3,0.7,2.4,0.9,3.3c0.2,0.9,0.3,1.5,0.3,1.6c0,0.5-0.2,0.9-0.5,1.2
		c-0.3,0.3-0.7,0.6-1.2,0.9c-0.5,0.2-0.9,0.4-1.4,0.5s-0.8,0.2-1,0.2c-0.8,0-1.4-0.2-1.7-0.7c0-0.1-0.1-0.2-0.1-0.3
		s-0.1-0.3-0.2-0.6c-0.1-0.3-0.2-0.6-0.3-1.1c-0.1-0.5-0.2-1.1-0.4-2c-0.9,0-1.8,0-2.8,0s-2,0-2.9,0.1c-0.9,0-1.8,0-2.6,0.1
		c-0.8,0-1.5,0-2,0c-0.9,1.3-1.6,2.3-2.3,3.1c-0.7,0.8-1.2,1.1-1.7,1.1c-0.3,0-0.6-0.1-1.1-0.2c-0.4-0.2-0.9-0.4-1.3-0.6
		c-0.4-0.2-0.8-0.5-1.1-0.8s-0.5-0.5-0.5-0.7c0-0.3,0.1-0.6,0.2-0.9c0.1-0.3,0.4-0.8,0.7-1.3c0.4-0.6,0.9-1.3,1.5-2.2
		c0.6-0.9,1.5-2,2.6-3.4c1.3-1.7,2.8-3.6,4.5-5.7c1.7-2,3.6-4.2,5.6-6.3c0.1-0.2,0.3-0.3,0.6-0.5C90.3,76.7,90.8,76.6,91.4,76.6z
		 M91.3,89.7c-0.3-1-0.5-1.9-0.8-2.7c-0.2-0.8-0.5-1.6-0.7-2.2c-0.7,0.8-1.4,1.6-2,2.4c-0.7,0.8-1.3,1.7-1.8,2.6c0.8,0,1.7,0,2.6,0
		S90.5,89.8,91.3,89.7z"/>
	<path class="st4" d="M117.3,76.8c1.3,0,2.5,0.1,3.6,0.4c1.1,0.3,2.1,0.6,2.9,1c0.8,0.4,1.5,0.9,2,1.4c0.5,0.6,0.7,1.1,0.7,1.7
		c0,0.3-0.1,0.6-0.3,1.1c-0.2,0.4-0.4,0.8-0.7,1.2c-0.3,0.4-0.6,0.7-1,1c-0.4,0.3-0.8,0.4-1.3,0.4c-0.6,0-1.2-0.1-1.5-0.4
		c-0.4-0.3-0.8-0.6-1.2-0.9c-0.4-0.3-0.9-0.6-1.5-0.9c-0.6-0.3-1.5-0.4-2.6-0.4c-1.2,0-2.4,0.2-3.5,0.6c-1.1,0.4-2,0.9-2.8,1.6
		c-0.8,0.7-1.4,1.5-1.8,2.4c-0.4,1-0.7,2-0.7,3.2c0,0.5,0.1,1,0.4,1.5c0.3,0.5,0.7,1,1.2,1.4c0.6,0.4,1.3,0.7,2.2,1
		c0.9,0.3,2,0.4,3.3,0.4c1.1,0,2.1-0.3,3.1-0.8c1-0.5,1.8-1.2,2.6-1.8c-0.7-0.1-1.4-0.1-2.1-0.1c-1.1,0-1.9,0-2.6,0.1
		c-0.7,0.1-1.3,0.1-1.7,0.2c-0.4,0.1-0.8,0.1-1,0.2c-0.2,0.1-0.4,0.1-0.5,0.1c-0.5,0-0.9,0-1.3-0.1c-0.4-0.1-0.7-0.2-0.9-0.4
		c-0.2-0.2-0.4-0.5-0.5-0.9s-0.2-0.8-0.2-1.4c0-0.6,0.1-1.1,0.3-1.5c0.2-0.4,0.5-0.8,1-1.1c0.5-0.3,1.2-0.5,2-0.7
		c0.8-0.2,1.9-0.2,3.2-0.2c0.7,0,1.4,0,2.3,0.1c0.8,0,1.7,0.1,2.6,0.2c0.9,0.1,1.7,0.2,2.6,0.3c0.8,0.1,1.6,0.2,2.3,0.4
		c0.8,0.2,1.4,0.5,1.7,0.9c0.3,0.4,0.4,1,0.4,1.7c0,1.2-0.4,2.3-1.1,3.6c-0.7,1.2-1.7,2.3-3,3.3c-1.3,1-2.8,1.8-4.5,2.4
		s-3.5,0.9-5.4,0.9c-1.8,0-3.6-0.2-5.1-0.5c-1.6-0.3-2.9-0.9-4-1.6c-1.1-0.7-2-1.7-2.7-2.9c-0.6-1.2-1-2.6-1-4.3
		c0-1.8,0.4-3.4,1.3-5.1c0.9-1.6,2-3.1,3.5-4.3c1.5-1.3,3.2-2.3,5.1-3C113.1,77.1,115.2,76.8,117.3,76.8z"/>
	<path class="st4" d="M153.2,78c1.3,0,2.2,0.2,2.7,0.5c0.5,0.3,0.7,0.8,0.7,1.5c0,0.5-0.1,1-0.3,1.5c-0.2,0.5-0.4,1.1-0.5,1.7
		c0,0.2-0.1,0.6-0.2,1.3c-0.1,0.7-0.2,1.5-0.4,2.5s-0.3,2-0.5,3c-0.2,1.1-0.3,2.1-0.5,3.1c-0.2,1-0.3,1.8-0.4,2.5
		c-0.1,0.7-0.2,1.1-0.2,1.3c-0.2,0.9-0.5,1.6-1,2.2c-0.5,0.5-1.2,0.8-2.3,0.8c-0.3,0-0.6,0-1-0.1c-0.4-0.1-0.8-0.2-1.2-0.3
		c-0.4-0.1-0.8-0.3-1.2-0.5c-0.4-0.2-0.7-0.5-1-0.8c-0.6-0.6-1.3-1.3-2-2.2c-0.7-0.8-1.4-1.7-2.1-2.7c-0.7-0.9-1.3-1.9-2-2.9
		c-0.6-1-1.2-2-1.7-2.9c-0.3,1.2-0.5,2.1-0.7,3c-0.2,0.8-0.4,1.6-0.5,2.3c-0.2,0.7-0.3,1.3-0.4,1.9s-0.2,1.2-0.3,1.8
		c-0.1,0.6-0.2,1.1-0.2,1.5c-0.1,0.4-0.2,0.7-0.4,0.9s-0.5,0.4-0.8,0.4c-0.4,0.1-0.8,0.1-1.4,0.1c-1.2,0-2.1-0.2-2.7-0.5
		c-0.6-0.3-0.9-1-0.9-2c0-0.2,0.1-0.7,0.3-1.5s0.4-1.8,0.7-2.9v0c0.2-0.9,0.5-2,0.7-3.1c0.3-1.1,0.5-2.2,0.8-3.4
		c0.3-1.1,0.5-2.2,0.8-3.3c0.2-1.1,0.4-2,0.6-2.9c0-0.6,0.4-1.1,1-1.5s1.6-0.6,2.8-0.6c1.8,0,2.8,0.5,3,1.4c0.5,1,1.1,2.1,1.7,3.3
		c0.6,1.2,1.3,2.3,2,3.4c0.7,1.1,1.4,2.2,2.1,3.3c0.7,1,1.3,1.9,1.9,2.7c0.1-1,0.3-2.1,0.5-3.2s0.3-2.1,0.5-3.2c0.2-1,0.4-2,0.6-3
		c0.2-0.9,0.4-1.8,0.6-2.6c0.1-0.6,0.4-1,0.9-1.4C151.5,78.2,152.2,78,153.2,78z"/>
	<path class="st4" d="M168.8,77.2c0.4,0,1,0,1.7,0c0.8,0,1.6,0.1,2.6,0.1c0.9,0,1.9,0.1,2.9,0.2c1,0.1,2,0.2,2.8,0.3
		c0.9,0.1,1.6,0.2,2.1,0.4c0.5,0.1,0.9,0.3,1.2,0.5c0.3,0.2,0.5,0.4,0.5,0.7c0.1,0.3,0.1,0.6,0.1,1c0,0.8-0.1,1.5-0.2,2
		c-0.1,0.5-0.3,0.9-0.5,1.1c-0.2,0.3-0.5,0.4-0.8,0.5c-0.3,0.1-0.6,0.1-1,0.1c-0.2,0-0.4,0-0.6,0c-0.2,0-0.3,0-0.5-0.1
		c-0.2,0-0.4-0.1-0.6-0.1c-0.3,0-0.6-0.1-1-0.1c-0.9-0.1-1.8-0.1-2.7-0.2c-0.9-0.1-1.8-0.1-2.8-0.2c-1-0.1-2-0.1-3-0.1
		c-1.1,0-2.2,0-3.5,0c0,0.1-0.1,0.4-0.1,0.8c-0.1,0.4-0.1,0.9-0.2,1.6c0.4,0,1.1,0.1,2.1,0.1c1,0,2.1,0.1,3.4,0.1h0.7
		c0.4,0,0.8,0,1.3,0c0.5,0,1.1,0,1.6,0c0.5,0,1.1,0,1.6,0c0.5,0,1,0,1.3,0h0.8c0.5,0,0.9,0.1,1.2,0.2c0.3,0.1,0.5,0.3,0.7,0.6
		c0.2,0.2,0.3,0.5,0.3,0.8c0,0.3,0.1,0.6,0.1,0.9c0,0.7-0.1,1.2-0.3,1.6c-0.2,0.4-0.7,0.7-1.5,0.9c-0.8,0.2-2,0.3-3.5,0.3
		s-3.7,0.1-6.4,0.1h-2.8c-0.4,0-0.8,0-1,0c-0.3,0-0.5,0-0.6-0.1c-0.1,0.6-0.2,1.1-0.2,1.5c0,0.4-0.1,0.7-0.1,0.9
		c1.1,0.1,2.1,0.2,3.1,0.2c0.9,0,2,0,3.2,0c0.6,0,1.2,0,1.7,0c0.5,0,1.1-0.1,1.6-0.1c1-0.1,1.8-0.2,2.3-0.3c0.5-0.1,0.9-0.1,1.2-0.1
		c0.3,0,0.5-0.1,0.7-0.1c0.2,0,0.5,0,0.8,0c0.4,0,0.7,0,0.9,0.1c0.2,0.1,0.4,0.2,0.6,0.4c0.1,0.2,0.3,0.5,0.3,0.9
		c0.1,0.4,0.1,0.9,0.1,1.5c0,0.7-0.2,1.3-0.7,1.8c-0.4,0.4-1.1,0.8-1.9,1c-0.8,0.2-1.8,0.4-3,0.4c-1.2,0.1-2.5,0.1-4,0.1
		c-3.1,0-5.6,0-7.4-0.1c-1.8-0.1-3.2-0.2-4.1-0.4c-0.9-0.2-1.5-0.4-1.7-0.6c-0.2-0.2-0.4-0.5-0.4-0.8c0-0.1,0-0.3,0-0.4
		c0-0.1,0.1-0.3,0.1-0.6c0-0.2,0.1-0.7,0.3-1.5c0.2-0.8,0.3-1.8,0.5-3c0.2-1.2,0.4-2.4,0.7-3.7c0.2-1.3,0.5-2.6,0.7-3.7
		c0.2-1.2,0.4-2.1,0.5-3c0.1-0.8,0.2-1.3,0.3-1.4c0.1-0.5,0.2-0.9,0.4-1.2c0.2-0.3,0.4-0.6,0.6-0.7c0.2-0.2,0.4-0.3,0.7-0.4
		c0.2-0.1,0.5-0.1,0.6-0.2c0.2,0,0.6,0,1.1-0.1c0.5,0,1,0,1.6-0.1c0.6,0,1.2,0,1.8,0C167.8,77.2,168.3,77.2,168.8,77.2z"/>
	<path class="st4" d="M194.7,99.7c-0.3,0-0.6,0-1,0c-0.4,0-0.8-0.1-1.1-0.3s-0.6-0.4-0.9-0.6s-0.4-0.7-0.4-1.3c0-0.3,0-0.6,0.1-0.8
		c0-0.2,0.1-0.4,0.2-0.5s0.2-0.3,0.3-0.5c0.1-0.2,0.2-0.4,0.2-0.7c0,0,0.1-0.5,0.3-1.3c0.2-0.9,0.4-1.9,0.7-3.1
		c0.3-1.2,0.5-2.5,0.8-3.8s0.5-2.5,0.8-3.4c-0.8,0-1.6,0.1-2.4,0.1c-0.8,0-1.5,0.1-2.2,0.1c-0.7,0-1.2,0.1-1.7,0.1s-0.8,0.1-0.9,0.1
		c-0.3,0-0.5,0-0.8-0.1c-0.2-0.1-0.5-0.2-0.6-0.3s-0.3-0.4-0.5-0.7c-0.1-0.3-0.2-0.7-0.2-1.3c0-0.8,0.1-1.5,0.4-1.9
		c0.3-0.5,0.8-0.8,1.6-1.1s1.9-0.4,3.3-0.5c1.4-0.1,3.2-0.1,5.4-0.1h4.7c1.1,0,2.2,0,3.5,0c1.2,0,2.5,0.1,3.8,0.2
		c1.9,0.2,2.8,0.9,2.8,2.3c0,0.4-0.1,0.8-0.2,1.2c-0.1,0.4-0.3,0.8-0.5,1.2s-0.5,0.7-0.8,0.9s-0.7,0.4-1.2,0.4c-0.2,0-0.4,0-0.5-0.1
		c-0.1,0-0.3-0.1-0.5-0.1c-0.1,0-0.3-0.1-0.5-0.1c-0.2,0-0.6-0.1-1.1-0.1c-0.5,0-1.1-0.1-1.9-0.2c-0.8-0.1-1.8-0.1-2.9-0.2
		c-0.4,2-0.8,3.8-1.1,5.2c-0.3,1.4-0.6,2.6-0.8,3.4c-0.4,1.6-0.6,2.9-0.8,3.9c-0.2,1-0.4,1.8-0.7,2.4c-0.3,0.6-0.6,1-1,1.2
		C196.3,99.6,195.6,99.7,194.7,99.7z"/>
	<path class="st4" d="M223.8,77.3c1.5,0,2.9,0.2,4.1,0.6c1.2,0.4,2.3,1,3.2,1.7c0.9,0.7,1.6,1.6,2,2.7c0.5,1,0.7,2.2,0.7,3.4
		c0,1.9-0.5,3.6-1.4,5.3c-1,1.7-2.2,3.1-3.8,4.4c-1.6,1.3-3.4,2.3-5.5,3c-2.1,0.7-4.2,1.1-6.4,1.1c-3.1,0-5.5-0.6-7.1-1.9
		c-1.6-1.3-2.4-3.2-2.4-5.7c0-2.1,0.5-4,1.5-5.8c1-1.8,2.4-3.4,4-4.7c1.6-1.3,3.4-2.3,5.4-3.1C219.9,77.6,221.9,77.3,223.8,77.3z
		 M223.5,83c-1.1,0-2.3,0.3-3.5,0.8c-1.2,0.6-2.4,1.3-3.4,2.1c-1,0.9-1.9,1.8-2.6,2.8c-0.7,1-1,2-1,2.9c0,1.4,1.4,2.2,4.1,2.2
		c1.2,0,2.5-0.2,3.7-0.7c1.2-0.4,2.3-1,3.3-1.8c1-0.7,1.8-1.6,2.4-2.5c0.6-0.9,0.9-1.9,0.9-3c0-0.9-0.3-1.6-1-2.1
		C225.8,83.2,224.8,83,223.5,83z"/>
</g>
</svg>
