<?xml version="1.0" encoding="utf-8"?>
<!-- Generator: Adobe Illustrator 21.0.0, SVG Export Plug-In . SVG Version: 6.00 Build 0)  -->
<svg version="1.1" id="Layer_1" xmlns="http://www.w3.org/2000/svg" xmlns:xlink="http://www.w3.org/1999/xlink" x="0px" y="0px"
	 viewBox="0 0 267 406" style="enable-background:new 0 0 267 406;" xml:space="preserve">
<style type="text/css">
	.st0{fill:#EEE8D7;}
	.st1{fill:#CF1109;}
	.st2{opacity:0.3;clip-path:url(#SVGID_2_);}
	.st3{fill:#231F20;}
	.st4{fill:#520400;}
	.st5{fill:#CD110A;}
	.st6{fill:#CE110B;}
	.st7{fill:#CD110C;}
	.st8{fill:#8B8989;}
	.st9{fill:#8A8888;}
	.st10{fill:#8B8A8A;}
	.st11{fill:#8A8989;}
	.st12{fill:#060102;}
	.st13{fill:#070202;}
	.st14{fill:#320703;}
	.st15{fill:#200604;}
	.st16{fill:#3D0705;}
	.st17{fill:#32090B;}
	.st18{fill:#010000;}
	.st19{fill:#D4D5D4;}
	.st20{fill:#D4D4D4;}
	.st21{fill:#CE1109;}
	.st22{fill:#C9120B;}
	.st23{fill:#CD120B;}
	.st24{fill:#CC110B;}
	.st25{fill:#C8120C;}
	.st26{fill:#CB110C;}
	.st27{fill:#470A04;}
	.st28{fill:#280401;}
	.st29{fill:#200502;}
	.st30{fill:#4E0B03;}
	.st31{fill:#040100;}
	.st32{fill:#060101;}
	.st33{fill:#020000;}
</style>
<g>
	<g>
		<path class="st0" d="M14.6,406.1c-7.8,0-14.2-6.4-14.2-14.2V14.7c0-7.8,6.4-14.2,14.2-14.2h238.3c7.8,0,14.2,6.4,14.2,14.2v377.3
			c0,7.8-6.4,14.2-14.2,14.2L14.6,406.1L14.6,406.1z"/>
	</g>
	<g>
		<path class="st1" d="M260,391.9c0,3.9-3.2,7.1-7.1,7.1H14.6c-3.9,0-7.1-3.2-7.1-7.1V14.7c0-3.9,3.2-7.1,7.1-7.1h238.3
			c3.9,0,7.1,3.2,7.1,7.1V391.9z"/>
	</g>
	<g>
		<g>
			<defs>
				<path id="SVGID_1_" d="M260,391.9c0,3.9-3.2,7.1-7.1,7.1H14.6c-3.9,0-7.1-3.2-7.1-7.1V14.7c0-3.9,3.2-7.1,7.1-7.1h238.3
					c3.9,0,7.1,3.2,7.1,7.1V391.9z"/>
			</defs>
			<clipPath id="SVGID_2_">
				<use xlink:href="#SVGID_1_"  style="overflow:visible;"/>
			</clipPath>
			<g class="st2">
				<g>
					
						<rect x="-120" y="-114.8" transform="matrix(0.7075 -0.7068 0.7068 0.7075 119.9946 61.0732)" class="st3" width="507.5" height="0.7"/>
				</g>
				<g>
					
						<rect x="-120" y="-69.4" transform="matrix(0.7075 -0.7068 0.7068 0.7075 87.9169 74.3525)" class="st3" width="507.5" height="0.7"/>
				</g>
				<g>
					
						<rect x="-120" y="-24" transform="matrix(0.7075 -0.7067 0.7067 0.7075 55.825 87.622)" class="st3" width="507.5" height="0.7"/>
				</g>
				<g>
					
						<rect x="-120" y="21.4" transform="matrix(0.7075 -0.7068 0.7068 0.7075 23.7618 100.9113)" class="st3" width="507.5" height="0.7"/>
				</g>
				<g>
					
						<rect x="-120" y="66.8" transform="matrix(0.7075 -0.7067 0.7067 0.7075 -8.3216 114.1727)" class="st3" width="507.5" height="0.7"/>
				</g>
				<g>
					
						<rect x="-120" y="112.2" transform="matrix(0.7075 -0.7067 0.7067 0.7075 -40.3951 127.4478)" class="st3" width="507.5" height="0.7"/>
				</g>
				<g>
					
						<rect x="-120" y="157.6" transform="matrix(0.7075 -0.7068 0.7068 0.7075 -72.4712 140.7498)" class="st3" width="507.5" height="0.7"/>
				</g>
				<g>
					
						<rect x="-120" y="202.9" transform="matrix(0.7075 -0.7067 0.7067 0.7075 -104.5415 153.9982)" class="st3" width="507.5" height="0.7"/>
				</g>
				<g>
					
						<rect x="-120" y="248.3" transform="matrix(0.7075 -0.7068 0.7068 0.7075 -136.6259 167.3081)" class="st3" width="507.5" height="0.7"/>
				</g>
				<g>
					
						<rect x="-120" y="293.7" transform="matrix(0.7075 -0.7067 0.7067 0.7075 -168.6888 180.5485)" class="st3" width="507.5" height="0.7"/>
				</g>
				<g>
					
						<rect x="-120" y="339.1" transform="matrix(0.7075 -0.7068 0.7068 0.7075 -200.7807 193.8671)" class="st3" width="507.5" height="0.7"/>
				</g>
				<g>
					
						<rect x="-120" y="384.5" transform="matrix(0.7075 -0.7067 0.7067 0.7075 -232.8351 207.0984)" class="st3" width="507.5" height="0.7"/>
				</g>
				<g>
					
						<rect x="-120" y="429.9" transform="matrix(0.7075 -0.7067 0.7067 0.7075 -264.9086 220.3745)" class="st3" width="507.5" height="0.7"/>
				</g>
				<g>
					
						<rect x="-119.9" y="475.3" transform="matrix(0.7075 -0.7068 0.7068 0.7075 -297.0128 233.7048)" class="st3" width="507.5" height="0.7"/>
				</g>
				<g>
					
						<rect x="-120" y="520.6" transform="matrix(0.7075 -0.7067 0.7067 0.7075 -329.055 246.9245)" class="st3" width="507.5" height="0.7"/>
				</g>
			</g>
		</g>
	</g>
</g>
<g>
	<path class="st4" d="M211.7,223.1c3.6,1.4,7.2,2.9,10.9,4.1c2.4,0.8,2.2,1.8,0.9,3.4c-7.4,9.4-14.8,18.7-22.1,28.1
		c-16.6,21.2-33.2,42.3-49.9,63.5c-4.5,5.7-9.1,11.3-13.4,17c-1.3,1.7-1.9,1.3-3-0.1c-12.7-16.3-25.4-32.6-38.2-48.9
		c-11.1-14.3-22.2-28.7-33.4-43c-4.3-5.5-8.7-11-13.2-16.5c-1.3-1.6-1.3-2.6,0.8-3.3c3.5-1.3,6.9-2.7,10.4-4
		c0.7-0.3,1.1-0.5,1.3-1.3c2,0.9,3.9,0.5,5.8-0.3c4.3-1.8,8.8-3.2,13.1-4.9c1.7-0.7,3.3-1.4,4.4-2.9c5.4-2,10.8-4,16.3-6
		c1.4-0.5,1.4-1.4,1.3-2.6c-0.3-4.2-0.4-8.5-0.7-12.7c-0.2-2.3,0.8-2.7,2.8-2.8c2.9-0.1,5.8,0.7,8.6-0.5c1.2,0.7,1.3,1.9,1.5,3
		c0.3,1.8,0.4,3.7-0.2,5.4c-1.4,4-0.3,7,2.7,10c3.3,3.3,6.7,6.5,9.8,10.2c0.9,1,2.1,1.4,3.4,1.4c1.7,0.1,3.5-0.2,5.2,0.1
		c5.8,0.8,10.1-1.5,13.5-6c2.1-2.8,4.6-5.2,7.1-7.5c1.5-1.4,2-2.9,1.4-4.8c-0.9-3.4-1.4-6.9-0.5-10.4c0.2-0.9,0.1-2.1,1.5-2.3
		c0.1,1,0.4,1.7,1.6,1.7c1-0.1,2,0,3,0c5.2,0.1,5-0.8,4.6,4.8c-0.3,3.4-0.1,6.9-0.8,10.2c-0.5,2.1,1.3,2.3,2.6,2.8
		c6,2.3,12,4.5,18,6.7c1.4,1.5,3.2,2.2,5.1,2.9c4.3,1.7,8.6,3.2,12.9,4.9C208.2,223,209.9,223.3,211.7,223.1z"/>
	<path class="st1" d="M159.4,188.2c-1.4,4.5-1,8.9,0.3,13.3c0.5,1.8,0.2,3-1.1,4.3c-4.1,4.2-8.2,8.5-12.1,12.8
		c-1,1.1-2.1,1.6-3.5,1.6c-3.9,0-7.8,0-11.6,0.1c-1.8,0.1-3.1-0.7-4.2-1.9c-3.8-4.1-7.5-8.3-11.5-12.2c-1.6-1.6-2.1-3.2-1.5-5.3
		c1.1-3.8,1.4-7.6,0.4-11.5c-0.1-2.2-0.3-4.3-3-5.1c-1.3-0.3-1.6-1.4-1.3-2.6c0.1-0.3,0.1-0.5,0.2-0.8c3.2-6.1,4.5-12.9,7.4-19.1
		c2.4-5.2,6.9-8.5,12.5-9.5c7.9-1.5,15.6-1,22,4.7c3.6,3.2,5.5,7.3,6.5,12c0.5,2.5,1.3,4.8,2.6,7c1,1.6,1.7,3.4,2.1,5.3
		c0.3,1.5,0.1,2.8-1.6,3.2C159.8,185,159.4,186.4,159.4,188.2z"/>
	<path class="st5" d="M211.7,223.1c-0.5,1.3-1.1,1.8-2.7,1.2c-6.3-2.4-12.7-4.8-19-7.2c-1.3-0.5-2-1.2-1.6-2.7
		c0.5-1.3,1.4-1.5,2.7-1c6.3,2.4,12.6,4.8,18.9,7.2C211.2,221.1,212.4,221.4,211.7,223.1z"/>
	<path class="st6" d="M86.1,213.8c0.5,1.4,0.2,2.2-1.4,2.8c-6.1,2.2-12.1,4.5-18.2,6.9c-2,0.8-3.2,0.6-3.8-1.6
		c-0.2-1.1,0.7-1.3,1.4-1.6c6.4-2.4,12.9-4.8,19.3-7.3C84.6,212.6,85.6,212.5,86.1,213.8z"/>
	<path class="st7" d="M136,285.1c-11.7-0.1-21.2-9.7-21-21.4c0.1-12.1,9.6-21.2,21.9-21.1c11.4,0.1,20.7,9.9,20.6,21.6
		C157.2,275.8,147.6,285.2,136,285.1z"/>
	<path class="st8" d="M164.3,225.1c0.2-1.8,1.2-3,3.1-3.1c2-0.1,3.3,1.1,3.4,3.1c0,1.9-1.2,3.3-3.2,3.3
		C165.6,228.3,164.5,227.1,164.3,225.1z"/>
	<path class="st9" d="M167.6,247.1c-1.9-0.2-3.2-1.1-3.2-3.2c-0.1-1.9,1.1-3.1,2.9-3.2c2-0.1,3.3,1,3.4,3
		C170.8,245.7,169.7,246.9,167.6,247.1z"/>
	<path class="st8" d="M164.4,262.5c0.2-1.7,1.1-2.9,3-3c2-0.1,3.3,1.1,3.4,3c0.1,1.9-1.1,3.3-3.2,3.3
		C165.7,265.9,164.5,264.7,164.4,262.5z"/>
	<path class="st10" d="M106.4,244c-0.2,1.9-1,3.1-3,3.1c-2,0-3.3-1-3.3-3.2c0-2,1.2-3.1,3-3.2C105.1,240.7,106.3,241.8,106.4,244z"
		/>
	<path class="st11" d="M167.6,284.6c-2-0.2-3.3-1.2-3.2-3.3c0-1.9,1.2-3.1,3-3.2c1.9-0.1,3.3,1.1,3.4,3.2
		C170.8,283.3,169.6,284.4,167.6,284.6z"/>
	<path class="st10" d="M106.4,281.4c-0.1,2-1.3,3.1-3.1,3.1c-2.1,0-3.2-1.2-3.2-3.3c0-2,1.3-3,3.1-3
		C105.2,278.2,106.3,279.5,106.4,281.4z"/>
	<path class="st8" d="M103.1,221.9c2,0.2,3.2,1.1,3.3,3c0.1,2.1-1.1,3.3-3.1,3.4s-3.2-1.2-3.2-3.3
		C100.1,223.1,101.4,222.2,103.1,221.9z"/>
	<path class="st10" d="M103.4,259.4c1.8,0.2,3,1.3,3,3.2c0,2.1-1.3,3.3-3.2,3.2c-1.8-0.1-3-1.2-3-3.2
		C100.1,260.6,101.4,259.6,103.4,259.4z"/>
	<path class="st12" d="M118.2,186.6c4.7,1.1,8.8,2.1,13.3,3.2c-2.3,2.5-4.9,3.3-7.7,2.8C120.7,192.1,119.4,189.8,118.2,186.6z"/>
	<path class="st13" d="M150.8,187.8c1.4-0.3,2.7-0.7,4.5-1.1c-0.7,3.1-2.2,5-4.8,5.8c-2.7,0.8-5.3,0.3-7.3-1.7
		c-1.5-1.5,0.5-1.1,1.1-1.4c0.8-0.5,1.4,0.1,2.1,0.3c1.7,0.8,3,0.2,4-1.3C150.5,188.1,150.7,187.9,150.8,187.8z"/>
	<path class="st14" d="M122.7,209.5c-1.8-2.1-3-4.4-1.9-7.2c1-2.5-0.8-4-2.6-5.8c4.5,2.1,4.6,2.1,3.9,5.9
		C121.5,204.9,122.1,207.2,122.7,209.5z"/>
	<path class="st15" d="M153.9,197.7c-1.5,1.3-1.4,2.8-1,4.5c0.7,3.5,0.6,3.5-1.6,6.5c1.3-2.9,0.4-5.8,0.1-8.7
		C151.1,198.4,152.7,198.2,153.9,197.7z"/>
	<path class="st16" d="M133.4,199.6c0.9-1.5,1.6-3.6,3.2-3.7c1.3-0.1,2,2,3.2,3.9C137.3,198.8,135.4,198.5,133.4,199.6z"/>
	<path class="st17" d="M150.8,187.8c0,0.2-0.1,0.4-0.1,0.6c-1.2,1.6-3.1,1.4-4.7,2c-0.6-0.3-1.2-0.7-1.8-1
		C146.4,188.5,148.6,188.1,150.8,187.8z"/>
	<path class="st18" d="M116.9,263.7c-0.1-10.4,8.5-19.1,18.9-19.1c10.7,0,19.4,8.5,19.4,19c0,10.7-8.4,19.4-19,19.4
		C125.5,283,117,274.6,116.9,263.7z"/>
	<path class="st19" d="M122.8,188.3c1.9,0.4,3.4,0.8,5.1,1.2C125.3,191.6,124.2,191.4,122.8,188.3z"/>
	<path class="st20" d="M146,190.3c-0.4-1.6,1.1-1,1.7-1.3c0.9-0.4,2-0.5,3-0.7C150.1,191.2,148.2,191.2,146,190.3z"/>
	<path class="st21" d="M130.7,259c-0.2-1.8-0.4-3.8-0.6-5.6c-0.2-1.5,0.6-2.7,1.9-3.3c2.9-1.4,5.8-1.3,8.6,0.2
		c1.3,0.7,1.5,1.8,1.6,3.2c0.2,1.9-1.2,3.6-0.7,5.5c1,1.5,0.3,2.4-0.9,3.4c-2,1.7-4,3.2-6.8,1.7C130.6,262.4,129.9,261.2,130.7,259z
		"/>
	<path class="st22" d="M145.9,275.3c-1,1.5-2.1,2.8-3.4,4c-2,1.6-3.7,2.2-5.7,0.3c-0.4-0.3-0.7-0.7-1.1-0.2c-1.1,1.1-2.6,2-3.9,1.1
		c-2-1.1-4.2-2.3-4.8-4.8c-0.1-0.2-0.4-0.4-0.5-0.5c-0.9-2.1,0.5-3.5,1.6-5c1.6-0.8,2.6-2.5,4.5-2.8c3.3-1.4,3.3-1.4,3.5,2.2
		c-0.3,1.3-1.4,1.6-2.4,2c-1,0.4-1.9,1-2.5,2c-0.4,0.8-0.3,1.6,0.3,2.2c0.4,0.5,0.9,0.9,1.6,0.6c0.8-0.3,0.9-1,0.9-1.8
		c0-0.8-0.1-1.7,0.6-2.3c0.8-0.7,1.8-0.9,2.8-0.6c1.1,0.3,1,1.4,1,2.2c0,1-0.3,2.1,1,2.4c0.9,0.2,1.4-0.3,1.7-1
		c0.7-1.1,0.2-2-0.7-2.9c-1.3-1.2-3.3-1.2-4.2-2.8c-0.1-0.4,0,0.1-0.1-0.3c-0.3-1.1-0.8-2.4,0.2-3.2c1.1-0.9,2,0.6,3,0.9
		c2.1,0.5,3.6,1.8,5.1,3.3C145.5,272,146.6,273.4,145.9,275.3z"/>
	<path class="st23" d="M145.9,275.3c-0.9-1.4-1-3.2-2.1-4.4c-0.7-0.8-1.4-1.7-0.3-2.6c1.3-0.9,1.7,0.4,2.2,1.3
		c0.7,1.2,1.5,1.8,2.9,1.4c0.9-0.3,1.2-1.1,1-2c-0.3-1.5-1.3-2.2-2.7-2.3c-1.2-0.1-2.3,0.4-3.4,0.9c-1.3,0.7-2.4,0.7-3.6,0.3
		c-0.4-0.2-0.9-0.3-1.2-0.5c-0.8-0.7-2.5-1.1-2-2.5c0.4-1.3,1.8-1,3-0.7c1.6,0.3,2.9-1.3,4.6-0.9c1.8,0,3.6-0.2,5.4-0.1
		c2.1,0.1,3.3,1.2,3.3,3.5c0,3.3-1.4,5.9-3.4,8.3C148.5,276.3,147.2,276,145.9,275.3z"/>
	<path class="st24" d="M128.5,270.4c-0.7,1.6-1.4,3.3-2.1,4.9c-1.8,1.1-3.2,0.7-4.3-1c-1.6-2.2-2.7-4.6-2.8-7.4
		c-0.1-2.3,1.2-3.3,3.2-3.5c2.4-0.2,4.8,0,7.2,0.5c0.1,0,0.3,0,0.4,0c1,0.2,2.1,0.4,3.2,0.1c0.9-0.2,1.9-0.1,2.3,0.9
		c0.6,1.1-0.7,1.5-1.3,2.1c-0.6,0.5-1.4,0.8-2.2,1.1c-2.1,0.9-3.8-0.5-5.7-1c-1.5-0.4-2.7-0.1-3.5,1.1c-0.7,0.9-0.7,2,0.3,2.7
		c0.9,0.7,1.9,0.5,2.7-0.3c0.3-0.3,0.4-0.8,0.7-1.2c0.4-0.7,0.9-1.6,1.8-1C129.3,268.7,129.3,269.6,128.5,270.4z"/>
	<path class="st25" d="M129.7,263.9c-1.8-1.1-2.6-2.8-3.1-4.8c-0.6-2.4-2.5-3.4-4.1-2.3c-0.9,0.6-1.7,1.5-1.3,2.7
		c0.4,1.1,1.2,1.7,2.5,1.6c0.6-0.1,1.1-0.7,1.8-0.1c-1.1,1.8-2.8,2.1-4.7,1.6c-1.3-0.3-1.8-1.3-1.8-2.4c-0.1-1.8,0.3-3.6,2.1-4.6
		c3.6-2.1,7.8-0.2,8.5,4c0.8,0.7,0.6,2.1,1.9,2.3c1.1,0.2,1.7,0.8,1.4,1.8c-0.3,1-1.3,0.7-2.1,0.7
		C130.4,264.3,130,264.1,129.7,263.9L129.7,263.9z"/>
	<path class="st26" d="M142.7,259.6c0.6-3,2-4.3,4.6-4.6c2.4-0.2,4.6,0.2,5.5,2.8c0.5,1.5,0.9,3.4-0.7,4.5c-2,1.3-3.9,0.7-5.5-1.1
		c0.4-0.7,0.8-0.3,1.1-0.2c1.5,0.4,2.8,0.1,3.3-1.5c0.4-1.5-0.5-2.4-1.7-2.9c-1.5-0.5-2.7,0.1-3.4,1.5c-0.8,1.6-0.7,3.6-2.1,4.9
		c-0.9,0.7-1.8,1.4-3,1.5c-0.7,0.1-1.3-0.1-1.6-0.7c-0.3-0.7,0.1-1.4,0.7-1.5C141.6,261.9,142,260.6,142.7,259.6z"/>
	<path class="st27" d="M142.7,259.6c-0.1,1.3-0.1,2.6-1.8,2.8c-0.7,0.1-1.4,0.4-1.2,1.1c0.2,0.8,1.1,0.4,1.6,0.3
		c0.9-0.2,1.7-0.6,2.5-0.9c0.2,0.2,0.3,0.3,0.5,0.5c-1.9,0.9-3.6,2.8-6.1,1.1c-0.4-0.3-0.9,0.1-1.1,0.4c-0.4,0.7,0.2,0.9,0.7,1.2
		c0.8,0.5,1.5,1,2.3,1.5c0,0.4-0.3,0.4-0.5,0.5c-0.3-0.1-0.7-0.1-1-0.2c-0.8-0.2-1-1.7-1.8-1.1c-1,0.8-0.3,2,0.1,2.9
		c-0.4,0.3-0.8,0.3-1.1,0c0.1-0.9,0.3-1.9-0.1-3c-1.1,0.4-1.7,1.7-3,1.5c-0.3-0.2-0.3-0.4-0.1-0.7c0.7-0.4,1.4-0.9,2-1.4
		c0.4-0.3,1.4-0.5,0.8-1.4c-0.4-0.6-1.1-0.7-1.7-0.3c-1.6,1.1-2.8,0.5-3.9-0.8c0.4,0,0.9,0,1.3,0c0.5,0,1.4,0.4,1.6-0.4
		c0.2-0.7-0.5-1-1.1-1.1c-1.7-0.2-1.7-1.5-1.7-2.8c0.4-0.2,0.8-0.4,1.1-0.6c0.3,2.3,3.2,4.9,5.4,4.9c2.2,0,5.1-2.6,5.4-4.9
		C142,259.2,142.3,259.3,142.7,259.6z"/>
	<path class="st28" d="M134.7,258.7c-0.3,0.7-1,0.8-1.6,0.7c-0.5-0.1-1.1-0.3-1-0.9c0.1-0.8,0.6-1.1,1.3-0.9
		C134,257.8,134.6,258,134.7,258.7z"/>
	<path class="st29" d="M139,257.6c0.6,0.1,1.1,0.3,1.2,0.9c0.1,0.8-0.5,1.1-1.2,1c-0.6-0.1-1.4-0.1-1.4-0.9
		C137.6,257.9,138.4,257.8,139,257.6z"/>
	<path class="st30" d="M136.8,260.6c0.1,0.6-0.2,0.9-0.7,0.9c-0.5,0-0.9-0.2-0.8-0.8c0.1-0.4,0.2-0.9,0.8-1
		C136.7,259.7,136.7,260.2,136.8,260.6z"/>
	<path class="st31" d="M135.6,269.8c0.4,0,0.8,0,1.1,0c1.3,1.1,3.3,0.8,4.6,2.1c1.1,1.3,2.2,2.4,0.9,4.2c-0.9,1.3-1.9,2.1-3.6,1.3
		c-2.1-1-1.6-2.5-1-4.1c0.1-0.3,0.1-0.5,0.2-1c-1,0.1-2,1.4-2.8,0.1c-0.7,0.9-0.1,1.4,0,2c0.2,1.4,0.1,2.4-1.4,3.1
		c-1.5,0.7-2.4,0.1-3.3-0.9c-1-1.1-1.1-2.2-0.2-3.6C131.4,270.8,133.9,271,135.6,269.8z"/>
	<path class="st32" d="M139.4,268.1c0.2-0.2,0.4-0.4,0.5-0.5c2,0.3,3.4-0.9,5.1-1.5c1.4-0.5,2.6-0.8,3.8,0.1
		c1.5,1.1,2.5,2.3,1.8,4.3c-0.5,1.3-1.4,2-2.8,1.8c-2-0.2-3.2-1-3.2-3.2c0-0.2-0.2-0.4-0.4-0.7c-1.4,0.6-0.8,1.5-0.5,2.4
		C142.4,269.9,141,268.8,139.4,268.1z"/>
	<path class="st33" d="M132.3,267.7c0.1,0.2,0.1,0.4,0.1,0.7c-1.2,0.8-2.7,1.1-3.5,2.5c0,0.1-0.2,0.1-0.2,0
		c-0.1-0.2-0.2-0.3-0.2-0.4c0.2-0.7,0.3-1.4-0.5-2.1c-0.7,1.1-0.2,2.8-1.6,3.4c-1.4,0.7-2.9,1-4,0c-1-0.9-1.6-2.5-0.7-3.9
		c1-1.5,2.3-2.9,4.5-2.2C128.3,266.4,130,267.8,132.3,267.7z"/>
</g>
<g>
	<path class="st4" d="M53,92.5c2.2,0,4.1,0.2,5.6,0.5s2.7,0.7,3.6,1.2c0.9,0.5,1.5,1,1.9,1.7c0.4,0.6,0.5,1.3,0.5,1.9
		c0,0.6-0.3,1.3-0.9,2c-0.6,0.7-1.4,1.4-2.3,2.1c-1,0.7-2.1,1.3-3.4,1.9c-1.3,0.6-2.6,1.1-4,1.5c1.2,1.1,2.2,1.9,3.1,2.5
		c0.9,0.6,1.7,1,2.3,1.3c0.6,0.3,1.2,0.5,1.5,0.6c0.4,0.1,0.7,0.2,0.9,0.3c0.2,0.1,0.4,0.2,0.5,0.4c0.1,0.2,0.1,0.5,0.1,1
		c0,0.5-0.1,0.9-0.4,1.3c-0.3,0.4-0.6,0.7-1,1s-0.7,0.5-1.1,0.7c-0.4,0.2-0.6,0.2-0.8,0.2c-0.1,0-0.5-0.1-1.2-0.3
		c-0.7-0.2-1.5-0.6-2.6-1.2s-2.2-1.4-3.4-2.4c-1.2-1-2.5-2.3-3.7-3.9c-0.5,0.1-0.9,0.2-1.2,0.3c-0.3,0.1-0.7,0.1-1.2,0.2
		c-0.3,1.4-0.5,2.5-0.5,3.4c0,0.9-0.1,1.6-0.3,2.1c-0.1,0.5-0.4,0.8-0.9,1s-1.2,0.3-2.3,0.3c-1,0-1.7-0.2-2.1-0.5
		c-0.4-0.3-0.6-0.9-0.6-1.6c0-0.4,0.1-1.1,0.3-2.1c0.2-1.1,0.5-2.3,0.8-3.6c0.3-1.3,0.6-2.8,1-4.2c0.3-1.5,0.6-2.8,0.9-4
		c-0.2-0.2-0.4-0.4-0.5-0.7c-0.1-0.3-0.1-0.6-0.1-1c0-0.4,0-0.7,0.1-1.1c0.1-0.3,0.2-0.7,0.5-1c0.3-0.3,0.6-0.6,1.1-0.8
		c0.5-0.2,1.2-0.4,2-0.6c0.9-0.2,1.9-0.3,3.1-0.4C49.7,92.6,51.2,92.5,53,92.5z M52.9,97.7c-0.8,0-1.6,0-2.4,0.1
		c-0.8,0.1-1.7,0.1-2.6,0.3c-0.1,0.5-0.3,1.1-0.5,1.9c-0.2,0.7-0.3,1.4-0.5,2.2c1.5-0.3,3-0.6,4.4-1c1.4-0.4,2.7-0.7,3.8-1.1
		c1.1-0.3,2-0.7,2.7-1c0.7-0.3,1-0.5,1-0.7c0-0.3-0.5-0.4-1.5-0.5C56.4,97.8,54.9,97.7,52.9,97.7z"/>
	<path class="st4" d="M76.3,93c0.4,0,0.9,0,1.6,0c0.7,0,1.5,0.1,2.4,0.1c0.9,0,1.8,0.1,2.8,0.2c1,0.1,1.9,0.2,2.7,0.3
		c0.8,0.1,1.5,0.2,2,0.3c0.5,0.1,0.9,0.3,1.2,0.4c0.3,0.2,0.4,0.4,0.5,0.6c0.1,0.3,0.1,0.6,0.1,0.9c0,0.8-0.1,1.4-0.2,1.9
		c-0.1,0.5-0.3,0.8-0.5,1.1c-0.2,0.3-0.4,0.4-0.7,0.5c-0.3,0.1-0.6,0.1-0.9,0.1c-0.2,0-0.4,0-0.5,0c-0.1,0-0.3,0-0.5-0.1
		s-0.4-0.1-0.6-0.1c-0.2,0-0.5-0.1-0.9-0.1c-0.9-0.1-1.7-0.1-2.5-0.2c-0.8-0.1-1.7-0.1-2.6-0.2c-0.9-0.1-1.9-0.1-2.9-0.1
		c-1,0-2.1,0-3.3,0c0,0.1-0.1,0.4-0.1,0.7s-0.1,0.9-0.2,1.5c0.4,0,1.1,0.1,2,0.1c0.9,0,2,0.1,3.2,0.1H79c0.3,0,0.8,0,1.3,0
		c0.5,0,1,0,1.5,0c0.5,0,1,0,1.5,0c0.5,0,0.9,0,1.3,0h0.8c0.5,0,0.9,0.1,1.2,0.2s0.5,0.3,0.7,0.5s0.2,0.5,0.3,0.8
		c0,0.3,0.1,0.6,0.1,0.9c0,0.7-0.1,1.2-0.3,1.5c-0.2,0.4-0.7,0.6-1.4,0.8c-0.7,0.2-1.8,0.3-3.3,0.3c-1.5,0-3.5,0.1-6,0.1h-2.7
		c-0.4,0-0.7,0-1,0c-0.3,0-0.5,0-0.6-0.1c-0.1,0.6-0.2,1-0.2,1.4c0,0.4-0.1,0.6-0.1,0.8c1,0.1,2,0.1,2.9,0.2c0.9,0,1.9,0,3,0
		c0.6,0,1.1,0,1.6,0c0.5,0,1-0.1,1.5-0.1c1-0.1,1.7-0.2,2.2-0.3c0.5-0.1,0.9-0.1,1.2-0.1c0.3,0,0.5-0.1,0.7-0.1c0.2,0,0.4,0,0.7,0
		c0.3,0,0.6,0,0.9,0.1c0.2,0.1,0.4,0.2,0.5,0.4c0.1,0.2,0.2,0.5,0.3,0.8c0.1,0.4,0.1,0.9,0.1,1.5c0,0.7-0.2,1.3-0.6,1.7
		c-0.4,0.4-1,0.7-1.8,0.9c-0.8,0.2-1.7,0.3-2.9,0.4s-2.4,0.1-3.8,0.1c-3,0-5.3,0-7-0.1c-1.7-0.1-3-0.2-3.9-0.4
		c-0.9-0.2-1.4-0.4-1.6-0.6s-0.3-0.5-0.3-0.7c0-0.1,0-0.2,0-0.4c0-0.1,0.1-0.3,0.1-0.6c0-0.2,0.1-0.6,0.3-1.4
		c0.1-0.8,0.3-1.7,0.5-2.8c0.2-1.1,0.4-2.3,0.6-3.5c0.2-1.2,0.4-2.4,0.6-3.5s0.4-2,0.5-2.8c0.1-0.8,0.2-1.2,0.2-1.4
		c0.1-0.5,0.2-0.8,0.4-1.1c0.2-0.3,0.4-0.5,0.6-0.7c0.2-0.2,0.4-0.3,0.6-0.4c0.2-0.1,0.4-0.1,0.6-0.2c0.2,0,0.5,0,1-0.1
		c0.5,0,1,0,1.5-0.1c0.5,0,1.1,0,1.7,0C75.4,93,75.9,93,76.3,93z"/>
	<path class="st4" d="M99.3,92.8c2.4,0,4.7,0.1,6.7,0.4c2.1,0.3,3.8,0.7,5.3,1.4c1.5,0.7,2.6,1.6,3.5,2.7c0.8,1.1,1.2,2.5,1.2,4.3
		c0,1.6-0.4,3.2-1.3,4.7c-0.9,1.5-2.1,2.9-3.7,4.1s-3.5,2.1-5.8,2.9c-2.3,0.7-4.8,1.1-7.7,1.1c-1.5,0-2.6-0.1-3.4-0.2
		c-0.8-0.1-1.4-0.3-1.7-0.5c-0.4-0.2-0.6-0.5-0.6-0.8c-0.1-0.3-0.1-0.7-0.1-1c0.1-0.9,0.2-1.9,0.4-3.2c0.2-1.2,0.4-2.5,0.6-3.8
		c0.2-1.3,0.5-2.6,0.7-3.8c0.2-1.2,0.5-2.3,0.7-3.1c-0.3-0.2-0.5-0.4-0.6-0.7c-0.1-0.3-0.1-0.7-0.1-1.1c0-0.7,0.1-1.2,0.3-1.6
		c0.2-0.4,0.6-0.8,1-1c0.5-0.2,1.1-0.4,1.8-0.5C97.5,92.9,98.3,92.8,99.3,92.8z M100.6,98.1c-0.1,0-0.2,0-0.3,0c-0.1,0-0.2,0-0.3,0
		c-0.2,0.9-0.4,1.9-0.6,2.9c-0.2,1-0.4,2-0.5,3c-0.2,1-0.3,2-0.5,2.9c-0.1,0.9-0.3,1.8-0.4,2.6c1.6-0.1,3.1-0.3,4.5-0.6
		c1.4-0.3,2.7-0.8,3.8-1.4c1.1-0.6,2-1.3,2.6-2.2c0.7-0.9,1-1.9,1-3c0-1.5-0.8-2.5-2.3-3.2c-1.5-0.7-3.7-1-6.5-1H100.6z"/>
	<path class="st4" d="M144.2,92.8c0.9,0,1.8,0.1,2.7,0.2c0.9,0.1,1.8,0.3,2.5,0.5s1.4,0.5,1.8,0.9c0.5,0.4,0.7,0.8,0.7,1.3
		c0,0.4-0.1,0.9-0.3,1.3c-0.2,0.4-0.5,0.8-0.8,1.1c-0.3,0.3-0.6,0.6-1,0.8c-0.3,0.2-0.6,0.3-0.8,0.3c-0.4,0-0.7,0-0.9-0.1
		c-0.2-0.1-0.5-0.2-0.9-0.3s-0.8-0.2-1.3-0.3s-1.3-0.1-2.3-0.1c-0.9,0-1.7,0-2.5,0c-0.8,0-1.5,0-2.2,0.1c-0.6,0-1.1,0.1-1.5,0.2
		c-0.4,0.1-0.6,0.2-0.6,0.3c0,0.2,0.5,0.4,1.4,0.7c0.9,0.2,2.4,0.6,4.3,1.2c1.4,0.4,2.7,0.9,3.8,1.4c1.1,0.5,2,1,2.7,1.6
		c0.7,0.6,1.3,1.1,1.6,1.7c0.4,0.6,0.5,1.1,0.5,1.7c0,1.2-0.4,2.2-1.3,3.1s-1.9,1.7-3.2,2.3c-1.3,0.6-2.7,1.1-4.3,1.5
		c-1.5,0.3-3,0.5-4.4,0.5c-1.6,0-3.1-0.2-4.5-0.5c-1.4-0.4-2.6-0.8-3.6-1.3c-1-0.5-1.8-1-2.3-1.6c-0.6-0.5-0.8-1-0.8-1.4
		c0-0.3,0.1-0.6,0.2-1c0.1-0.4,0.3-0.7,0.6-1.1c0.3-0.3,0.6-0.6,1-0.8s0.8-0.3,1.2-0.3c0.5,0,0.9,0.1,1.2,0.3
		c0.3,0.2,0.6,0.4,0.9,0.7c0.2,0.2,0.4,0.4,0.6,0.6s0.7,0.4,1.2,0.6c0.5,0.2,1.2,0.3,2,0.4c0.8,0.1,1.8,0.2,3,0.2
		c0.7,0,1.4-0.1,2.2-0.2c0.8-0.1,1.5-0.2,2.2-0.4c0.7-0.2,1.3-0.4,1.7-0.6c0.5-0.2,0.7-0.4,0.7-0.7c0-0.1-0.2-0.2-0.5-0.4
		s-0.8-0.3-1.3-0.5c-0.5-0.2-1.1-0.4-1.8-0.6c-0.6-0.2-1.2-0.4-1.8-0.5c-2.1-0.6-3.7-1.1-4.9-1.6c-1.2-0.5-2.1-1-2.7-1.5
		c-0.6-0.5-1-1-1.2-1.5c-0.2-0.5-0.3-1-0.3-1.6c0-0.6,0.2-1.3,0.6-2.1s1.1-1.4,2.1-2.1c1-0.6,2.4-1.2,4.1-1.6
		C139.5,93,141.6,92.8,144.2,92.8z"/>
	<path class="st4" d="M159.4,93.3c1.1,0,1.9,0.1,2.5,0.4c0.6,0.2,0.9,0.8,0.9,1.6c0,0.4,0,0.7-0.1,0.9c0,0.2-0.1,0.5-0.2,0.9
		c-0.1,0.4-0.3,0.9-0.5,1.6s-0.4,1.7-0.8,3.1c0.8-0.7,1.6-1.4,2.5-2.2c0.9-0.8,1.8-1.6,2.7-2.4c0.6-0.5,1.1-1.1,1.6-1.6
		c0.5-0.5,0.9-1,1.3-1.4c0.4-0.4,0.8-0.7,1.3-1c0.4-0.2,0.9-0.4,1.5-0.4c0.4,0,0.7,0.1,1.1,0.3s0.7,0.4,1,0.7
		c0.3,0.3,0.6,0.6,0.7,0.9s0.3,0.7,0.3,1c0,0.3-0.1,0.7-0.2,1c-0.1,0.3-0.3,0.6-0.6,0.9c-0.3,0.3-0.6,0.7-1,1
		c-0.4,0.4-0.9,0.8-1.5,1.3c-1.1,0.9-2.1,1.7-2.9,2.3c-0.8,0.7-1.7,1.3-2.6,1.9c0.7,0.7,1.5,1.2,2.2,1.7s1.4,0.9,2,1.3
		c0.6,0.4,1.1,0.6,1.6,0.8c0.5,0.2,0.8,0.3,1.1,0.4c0.8,0.2,1.4,0.5,1.8,1c0.3,0.4,0.5,1.2,0.5,2.2c0,0.4,0,0.8-0.1,1.1
		s-0.2,0.6-0.4,0.8s-0.5,0.4-0.9,0.5c-0.4,0.1-0.9,0.2-1.4,0.2c-0.7,0-1.5-0.2-2.4-0.5s-1.7-0.8-2.6-1.4c-0.9-0.6-1.8-1.3-2.7-2.1
		s-1.8-1.6-2.7-2.4c-0.4,0.3-0.9,0.6-1.3,1s-0.9,0.7-1.5,1.1c0,0.2-0.1,0.4-0.1,0.6c0,0.2,0,0.4-0.1,0.6c-0.1,0.8-0.3,1.4-0.6,1.8
		c-0.3,0.4-0.6,0.7-1,1c-0.4,0.2-0.8,0.3-1.2,0.4s-0.9,0.1-1.3,0.1c-0.8,0-1.4-0.2-1.8-0.6s-0.6-0.8-0.6-1.2c0-0.2,0-0.5,0.1-0.7
		c0-0.3,0.1-0.6,0.3-1.1c0.1-0.5,0.3-1.1,0.5-1.9c0.2-0.8,0.5-1.9,0.8-3.2c0.6-2.6,1-4.7,1.4-6.2c0.4-1.6,0.7-2.8,1-3.6
		c0.3-0.9,0.7-1.4,1-1.7S158.8,93.3,159.4,93.3z"/>
	<path class="st4" d="M199.5,93.3c1.4,0,2.3,0.2,2.8,0.7c0.5,0.5,0.7,1.1,0.7,1.9c0,0.4,0,0.8-0.1,1.3c0,0.4-0.1,0.9-0.2,1.5
		s-0.3,1.3-0.5,2.2c-0.2,0.9-0.5,1.9-0.8,3.1c-0.3,1.3-0.8,2.5-1.4,3.7c-0.6,1.2-1.4,2.3-2.4,3.2c-1,0.9-2.1,1.7-3.5,2.2
		c-1.3,0.6-2.9,0.8-4.7,0.8c-1.5,0-2.8-0.1-4-0.4s-2.1-0.7-2.8-1.3c-0.7-0.6-1.3-1.4-1.7-2.4c-0.4-1-0.6-2.2-0.6-3.7
		c0-0.8,0-1.5,0.1-2.1c0-0.6,0.1-1.3,0.2-1.9c0.1-0.6,0.2-1.2,0.3-1.9c0.1-0.6,0.3-1.4,0.5-2.2c0.2-1,0.4-1.8,0.6-2.5
		c0.2-0.7,0.5-1.2,0.7-1.6c0.3-0.4,0.6-0.7,1.1-0.9c0.4-0.2,0.9-0.3,1.5-0.3c1.2,0,2.1,0.2,2.6,0.7c0.5,0.4,0.7,1,0.7,1.6
		c0,0.2,0,0.4-0.1,0.6c-0.1,0.2-0.1,0.4-0.2,0.7c-0.3,1-0.6,2-0.9,2.9c-0.2,0.9-0.4,1.8-0.6,2.6s-0.3,1.5-0.3,2.1
		c-0.1,0.6-0.1,1.1-0.1,1.5c0,0.5,0,1,0.1,1.4s0.3,0.8,0.5,1s0.6,0.5,1.1,0.7c0.4,0.2,1,0.2,1.7,0.2c0.6,0,1.3-0.1,1.9-0.4
		c0.7-0.3,1.3-0.7,2-1.5c0.6-0.7,1.2-1.8,1.7-3.2s0.9-3.2,1.1-5.5c0.1-1,0.2-1.9,0.3-2.5c0.1-0.6,0.2-1.2,0.4-1.5s0.5-0.6,0.8-0.8
		C198.5,93.4,198.9,93.3,199.5,93.3z"/>
	<path class="st4" d="M218.6,108.2c1.7,0,2.6,0.8,2.6,2.3c0,0.8-0.1,1.4-0.4,1.9c-0.3,0.5-0.7,0.8-1.2,1.1c-0.5,0.3-1.1,0.5-1.8,0.5
		c-0.7,0.1-1.5,0.1-2.3,0.1c-0.9,0-1.9,0-2.9-0.1c-1,0-2-0.1-3-0.1c-0.9,0-1.8-0.1-2.5-0.1c-0.7,0-1.3-0.1-1.5-0.1
		c-0.5,0-1-0.1-1.3-0.2c-0.4-0.1-0.6-0.2-0.8-0.4s-0.3-0.4-0.4-0.7c-0.1-0.3-0.1-0.7-0.1-1.2c0-0.2,0.1-0.7,0.2-1.3
		c0.1-0.7,0.2-1.4,0.4-2.3c0.2-0.9,0.4-1.9,0.6-3c0.2-1.1,0.5-2.2,0.7-3.4c0.3-1.1,0.5-2.2,0.8-3.3s0.5-2.1,0.8-3
		c0-0.1,0.1-0.3,0.2-0.5c0.1-0.2,0.2-0.3,0.4-0.5c0.2-0.1,0.5-0.3,0.8-0.4c0.3-0.1,0.8-0.2,1.3-0.2c0.9,0,1.7,0.1,2.3,0.4
		c0.6,0.3,1,0.7,1,1.5c0,0.3,0,0.6-0.1,0.7c0,0.1-0.1,0.3-0.2,0.6c-0.1,0.2-0.2,0.6-0.4,1.1s-0.3,1.1-0.5,1.8s-0.4,1.5-0.5,2.3
		c-0.2,0.8-0.4,1.7-0.6,2.5c-0.2,0.8-0.3,1.6-0.5,2.4c-0.1,0.8-0.3,1.4-0.4,2c0.5,0,1.2,0.1,2.1,0.1c0.9,0,1.8,0.1,2.9,0.1
		c0.9,0,1.6,0,2-0.1c0.5-0.1,0.8-0.2,1.1-0.2c0.3-0.1,0.5-0.2,0.7-0.2C218.1,108.3,218.3,108.2,218.6,108.2z"/>
	<path class="st4" d="M240.2,108.2c1.7,0,2.6,0.8,2.6,2.3c0,0.8-0.1,1.4-0.4,1.9c-0.3,0.5-0.7,0.8-1.2,1.1c-0.5,0.3-1.1,0.5-1.8,0.5
		c-0.7,0.1-1.5,0.1-2.3,0.1c-0.9,0-1.9,0-2.9-0.1c-1,0-2-0.1-3-0.1c-0.9,0-1.8-0.1-2.5-0.1c-0.7,0-1.3-0.1-1.5-0.1
		c-0.5,0-1-0.1-1.3-0.2c-0.4-0.1-0.6-0.2-0.8-0.4s-0.3-0.4-0.4-0.7c-0.1-0.3-0.1-0.7-0.1-1.2c0-0.2,0.1-0.7,0.2-1.3
		c0.1-0.7,0.2-1.4,0.4-2.3c0.2-0.9,0.4-1.9,0.6-3c0.2-1.1,0.5-2.2,0.7-3.4c0.3-1.1,0.5-2.2,0.8-3.3s0.5-2.1,0.8-3
		c0-0.1,0.1-0.3,0.2-0.5c0.1-0.2,0.2-0.3,0.4-0.5c0.2-0.1,0.5-0.3,0.8-0.4c0.3-0.1,0.8-0.2,1.3-0.2c0.9,0,1.7,0.1,2.3,0.4
		c0.6,0.3,1,0.7,1,1.5c0,0.3,0,0.6-0.1,0.7c0,0.1-0.1,0.3-0.2,0.6c-0.1,0.2-0.2,0.6-0.4,1.1s-0.3,1.1-0.5,1.8s-0.4,1.5-0.5,2.3
		c-0.2,0.8-0.4,1.7-0.6,2.5c-0.2,0.8-0.3,1.6-0.5,2.4c-0.1,0.8-0.3,1.4-0.4,2c0.5,0,1.2,0.1,2.1,0.1c0.9,0,1.8,0.1,2.9,0.1
		c0.9,0,1.6,0,2-0.1c0.5-0.1,0.8-0.2,1.1-0.2c0.3-0.1,0.5-0.2,0.7-0.2C239.6,108.3,239.8,108.2,240.2,108.2z"/>
</g>
</svg>
