<?xml version="1.0" encoding="utf-8"?>
<!-- Generator: Adobe Illustrator 21.0.0, SVG Export Plug-In . SVG Version: 6.00 Build 0)  -->
<svg version="1.1" id="Layer_1" xmlns="http://www.w3.org/2000/svg" xmlns:xlink="http://www.w3.org/1999/xlink" x="0px" y="0px"
	 viewBox="0 0 267 406" style="enable-background:new 0 0 267 406;" xml:space="preserve">
<style type="text/css">
	.st0{fill:#EEE8D7;}
	.st1{fill:#B0A9DF;}
	.st2{opacity:0.3;clip-path:url(#SVGID_2_);}
	.st3{fill:#231F20;}
	.st4{fill:#1A43D4;}
	.st5{fill:#1D97FF;}
	.st6{fill:#EAC93F;}
	.st7{fill:#FFD24A;}
	.st8{fill:#FFFFFF;}
	.st9{fill:#FFD24A;stroke:#B79132;stroke-miterlimit:10;}
	.st10{fill:#9591C6;}
</style>
<g>
	<g>
		<g>
			<path class="st0" d="M14.7,406.1c-7.8,0-14.2-6.4-14.2-14.2V14.7c0-7.8,6.4-14.2,14.2-14.2H253c7.8,0,14.2,6.4,14.2,14.2v377.3
				c0,7.8-6.4,14.2-14.2,14.2L14.7,406.1L14.7,406.1z"/>
		</g>
		<g>
			<path class="st1" d="M260,391.9c0,3.9-3.2,7.1-7.1,7.1H14.7c-3.9,0-7.1-3.2-7.1-7.1V14.7c0-3.9,3.2-7.1,7.1-7.1H253
				c3.9,0,7.1,3.2,7.1,7.1V391.9z"/>
		</g>
		<g>
			<g>
				<defs>
					<path id="SVGID_1_" d="M260,391.9c0,3.9-3.2,7.1-7.1,7.1H14.7c-3.9,0-7.1-3.2-7.1-7.1V14.7c0-3.9,3.2-7.1,7.1-7.1H253
						c3.9,0,7.1,3.2,7.1,7.1V391.9z"/>
				</defs>
				<clipPath id="SVGID_2_">
					<use xlink:href="#SVGID_1_"  style="overflow:visible;"/>
				</clipPath>
				<g class="st2">
					<g>
						
							<rect x="-119.9" y="-114.8" transform="matrix(0.7075 -0.7068 0.7068 0.7075 120.0081 61.1059)" class="st3" width="507.5" height="0.7"/>
					</g>
					<g>
						
							<rect x="-119.9" y="-69.4" transform="matrix(0.7075 -0.7068 0.7068 0.7075 87.9305 74.3852)" class="st3" width="507.5" height="0.7"/>
					</g>
					<g>
						
							<rect x="-119.9" y="-24" transform="matrix(0.7075 -0.7067 0.7067 0.7075 55.8386 87.6547)" class="st3" width="507.5" height="0.7"/>
					</g>
					<g>
						
							<rect x="-119.9" y="21.4" transform="matrix(0.7075 -0.7068 0.7068 0.7075 23.7753 100.944)" class="st3" width="507.5" height="0.7"/>
					</g>
					<g>
						
							<rect x="-119.9" y="66.8" transform="matrix(0.7075 -0.7067 0.7067 0.7075 -8.3081 114.2054)" class="st3" width="507.5" height="0.7"/>
					</g>
					<g>
						
							<rect x="-119.9" y="112.2" transform="matrix(0.7075 -0.7067 0.7067 0.7075 -40.3816 127.4805)" class="st3" width="507.5" height="0.7"/>
					</g>
					<g>
						
							<rect x="-119.9" y="157.6" transform="matrix(0.7075 -0.7068 0.7068 0.7075 -72.4577 140.7826)" class="st3" width="507.5" height="0.7"/>
					</g>
					<g>
						
							<rect x="-119.9" y="202.9" transform="matrix(0.7075 -0.7067 0.7067 0.7075 -104.528 154.0309)" class="st3" width="507.5" height="0.7"/>
					</g>
					<g>
						
							<rect x="-119.9" y="248.3" transform="matrix(0.7075 -0.7068 0.7068 0.7075 -136.6124 167.3408)" class="st3" width="507.5" height="0.7"/>
					</g>
					<g>
						
							<rect x="-119.9" y="293.7" transform="matrix(0.7075 -0.7067 0.7067 0.7075 -168.6752 180.5813)" class="st3" width="507.5" height="0.7"/>
					</g>
					<g>
						
							<rect x="-119.9" y="339.1" transform="matrix(0.7075 -0.7068 0.7068 0.7075 -200.7672 193.8998)" class="st3" width="507.5" height="0.7"/>
					</g>
					<g>
						
							<rect x="-119.9" y="384.5" transform="matrix(0.7075 -0.7067 0.7067 0.7075 -232.8215 207.1312)" class="st3" width="507.5" height="0.7"/>
					</g>
					<g>
						
							<rect x="-119.9" y="429.9" transform="matrix(0.7075 -0.7067 0.7067 0.7075 -264.895 220.4072)" class="st3" width="507.5" height="0.7"/>
					</g>
					<g>
						
							<rect x="-119.9" y="475.3" transform="matrix(0.7075 -0.7068 0.7068 0.7075 -296.9993 233.7375)" class="st3" width="507.5" height="0.7"/>
					</g>
					<g>
						
							<rect x="-119.9" y="520.6" transform="matrix(0.7075 -0.7067 0.7067 0.7075 -329.0415 246.9572)" class="st3" width="507.5" height="0.7"/>
					</g>
				</g>
			</g>
		</g>
	</g>
	<g>
		<polygon class="st4" points="135.9,351.4 51.2,242.2 115.8,217.4 128.4,233.5 144,233.7 157.7,217.4 222.3,242 		"/>
		<path class="st1" d="M128.4,233.5l-12.6-16l-0.6-9.7c0,0-5.6,0.4-4.3-10.7h3.6c0,0-2.8-28.7,21.3-28.7s22.8,23.8,22.8,28.3
			l3.4,0.1c0,0,2.8,9.6-4.4,10.7v9.9L144,233.7L128.4,233.5z"/>
		<path class="st5" d="M119.5,175.4c6.7-10,29.8-8.4,33.8,0.5c0,0,1,5.9-3.7,9.2c-4.7,3.3-27.5,0-27.5,0S119.5,184.9,119.5,175.4z"
			/>
		<g>
			<path class="st6" d="M168.1,186.2l-4-0.5l0,0c0,0,0,0,0,0c-0.1,5-5.8,1.5-7.3,5.2l-4.8,7.4l9.6,6.9v0v0l3.7-0.6
				C165.4,204.5,170.5,200.1,168.1,186.2z"/>
			<path class="st6" d="M119.4,197.6c-1.5-3.7-10.7-7-10.7-12l-4,0.5c0,0-3.6,10,2.7,18.3l3.7,0.6l0,0L119.4,197.6z"/>
			<path class="st7" d="M164.2,185.6C164.2,185.6,164.2,185.6,164.2,185.6c-0.1,5-1.4,9.6-2.9,13.3l0.5,6.2l0.5,6.5l-9.7,14.1V213
				l3.2-4.3c1.2-1.6,2-3.6,2.2-5.6c0.8-8.6-0.9-17.2-0.9-17.2c-6.6,1.6-17,6.5-18.7,7.3c0,0,0,0,0,0c-0.2,0.1-0.2,0.1-0.2,0.1h-3.1
				l-18.9-7.4c0,0-1.7,10.6-1.3,18c0.3,5.5,5.7,9.1,5.7,9.1v12.3l-9.7-13.6l0.5-6.5l0.5-6.2c-1.5-3.7-2.8-8.3-2.9-13.3
				c-0.8-15.1,5.1-24.4,5.1-24.4c-1.7,11.9,9,17,9,17c1.1-2.1,8.7-4.7,8.7-4.7l-3.7-12.9c7.9-2.7,16.4-0.1,16.4-0.1l-3.8,13.5
				c1.8,0.3,5.6,1.3,8.9,4.5c0,0,0,0,0,0c0.3-0.1,0.5-0.2,0.8-0.4c0.1,0,0.1-0.1,0.2-0.1c10.8-5.4,8.9-16,8.8-16.8
				C165.8,170,164.2,185.4,164.2,185.6z"/>
			<path class="st6" d="M134.9,193.3v-5l-5.9-8.3c-2.4-0.4-4.4-1.1-6.1-1.9c0.1-0.3,0.4-0.7,0.9-1l6,2.1l6.2,8.8L134.9,193.3z"/>
			<path class="st6" d="M149.3,178.5c-1.5,0.6-3.2,1.2-5.1,1.6l-5.9,8.3v5l0-0.1l-1-5.1l6.1-8.8l4.9-1.7
				C148.9,178,149.1,178.4,149.3,178.5z"/>
		</g>
		<path class="st7" d="M137.2,263.6l46.6-20.2l38.5-1.3l5.2-6.4l-24.4-3.3l-25.3-7.3l-20-7.6l-8.4,10l-2.9,13
			C146.4,240.5,137.2,248.7,137.2,263.6z"/>
		<path class="st7" d="M136.5,263.6l-46.6-20.2L51.3,242l-5.2-6.4l24.4-3.3l25.3-7.3l20-7.6l8.4,10l2.9,13
			C127.3,240.5,136.5,248.7,136.5,263.6z"/>
		<g>
			<g>
				<path class="st8" d="M121.4,197.1l9.9,3.7C131.3,200.8,124.7,208.2,121.4,197.1z"/>
				<path class="st5" d="M125.2,198.5c0,0,0.6,4,4.3,1.6L125.2,198.5z"/>
			</g>
			<g>
				<path class="st8" d="M151.5,197.1l-9.9,3.7C141.6,200.8,148.2,208.2,151.5,197.1z"/>
				<path class="st5" d="M147.7,198.5c0,0-0.6,4-4.3,1.6L147.7,198.5z"/>
			</g>
		</g>
		<polygon class="st7" points="122.8,250.1 137.1,256.7 149.3,250.1 149.3,258.3 143.2,270.9 135.9,351.4 129.4,270.9 122.8,257.9 
					"/>
		<polyline class="st9" points="130.2,281.5 136.5,284.4 142.2,281.5 		"/>
		<polyline class="st9" points="132.1,305.3 136.2,306.9 140.1,305.3 		"/>
		<g>
			<g>
				<path class="st10" d="M145,218.3c-0.2,0-0.4-0.1-0.5-0.2l-1-1.3h-13l-1.7,1.4c-0.3,0.2-0.7,0.2-0.9-0.1
					c-0.2-0.3-0.2-0.7,0.1-0.9l1.9-1.5c0.1-0.1,0.2-0.1,0.4-0.1h13.5c0.2,0,0.4,0.1,0.5,0.2l1.2,1.5c0.2,0.3,0.2,0.7-0.1,0.9
					C145.3,218.3,145.2,218.3,145,218.3z"/>
			</g>
		</g>
	</g>
	<g>
		<path class="st7" d="M69.2,108.7c-0.2,0-0.6,0-0.9,0s-0.7-0.1-1-0.2c-0.3-0.1-0.6-0.3-0.8-0.6c-0.2-0.3-0.3-0.7-0.3-1.2
			c0-0.3,0-0.6,0.1-0.7c0-0.2,0.1-0.3,0.2-0.5s0.2-0.3,0.2-0.5c0.1-0.2,0.2-0.4,0.2-0.6c0,0,0.1-0.5,0.3-1.3
			c0.2-0.8,0.4-1.8,0.6-2.9c0.2-1.1,0.5-2.3,0.8-3.6c0.3-1.2,0.5-2.3,0.7-3.2c-0.7,0-1.5,0.1-2.2,0.1c-0.7,0-1.4,0.1-2,0.1
			c-0.6,0-1.2,0.1-1.6,0.1c-0.4,0-0.7,0.1-0.9,0.1c-0.2,0-0.5,0-0.7-0.1c-0.2-0.1-0.4-0.2-0.6-0.3c-0.2-0.2-0.3-0.4-0.4-0.7
			c-0.1-0.3-0.2-0.7-0.2-1.2c0-0.8,0.1-1.4,0.4-1.8c0.3-0.4,0.8-0.8,1.5-1c0.7-0.2,1.8-0.4,3.1-0.4c1.3-0.1,3-0.1,5.1-0.1h4.5
			c1,0,2.1,0,3.3,0c1.2,0,2.4,0.1,3.6,0.2c1.8,0.2,2.7,0.9,2.7,2.2c0,0.3-0.1,0.7-0.2,1.1c-0.1,0.4-0.3,0.8-0.5,1.1
			c-0.2,0.4-0.5,0.6-0.8,0.9c-0.3,0.2-0.7,0.4-1.1,0.4c-0.2,0-0.4,0-0.5-0.1c-0.1,0-0.3-0.1-0.4-0.1c-0.1,0-0.2-0.1-0.5-0.1
			c-0.2,0-0.5-0.1-1-0.1c-0.5,0-1-0.1-1.8-0.2c-0.7-0.1-1.7-0.1-2.8-0.2c-0.4,1.9-0.8,3.6-1.1,4.9c-0.3,1.3-0.5,2.4-0.7,3.2
			c-0.3,1.5-0.6,2.8-0.8,3.7c-0.2,1-0.4,1.7-0.6,2.3c-0.2,0.6-0.6,0.9-1,1.1C70.6,108.6,70,108.7,69.2,108.7z"/>
		<path class="st7" d="M104.6,87.9c2.2,0,3.3,0.5,3.3,1.6c0,0.4,0,0.8-0.1,1.2c-0.1,0.4-0.2,1-0.4,1.7c-0.2,0.7-0.4,1.7-0.7,2.8
			c-0.3,1.2-0.7,2.7-1.1,4.6c-0.3,1.4-0.6,2.5-0.7,3.5c-0.2,1-0.3,1.8-0.5,2.4c-0.1,0.6-0.3,1.2-0.5,1.5c-0.2,0.4-0.4,0.7-0.7,0.9
			c-0.3,0.2-0.7,0.3-1.2,0.4s-1.2,0.1-2,0.1c-0.4,0-0.7-0.1-0.9-0.2s-0.5-0.3-0.6-0.4s-0.3-0.4-0.4-0.6s-0.1-0.4-0.1-0.5
			c0-0.5,0-1,0.1-1.4c0.1-0.4,0.2-0.8,0.3-1.1c0.1-0.3,0.3-0.7,0.4-0.9c0.1-0.3,0.2-0.6,0.3-0.8c-3.2,0-6.2,0-9.2-0.1
			c-0.1,0.5-0.1,1.1-0.2,1.8c-0.1,0.7-0.2,1.3-0.4,1.9c-0.2,0.6-0.5,1.1-1,1.6c-0.4,0.4-1.1,0.6-1.9,0.6c-1.2,0-2-0.1-2.5-0.3
			c-0.5-0.2-0.8-0.8-0.8-1.7c0-0.7,0.2-1.5,0.5-2.5c0.4-1,0.7-2.2,1-3.6c0.4-2,0.7-3.7,1-5.2c0.3-1.5,0.5-2.5,0.5-3.2
			c0-0.6,0.1-1.2,0.2-1.6c0.1-0.5,0.2-0.9,0.4-1.2s0.5-0.6,0.9-0.7s0.9-0.2,1.5-0.2c0.7,0,1.3,0.1,1.8,0.2c0.4,0.1,0.8,0.3,1,0.5
			s0.4,0.4,0.4,0.7c0.1,0.2,0.1,0.5,0.1,0.8c0,0.2,0,0.5-0.1,0.8c0,0.3-0.1,0.7-0.2,1.3c-0.1,0.5-0.3,1.2-0.4,1.9
			c-0.2,0.8-0.4,1.7-0.7,2.9c1.5,0,3,0.1,4.6,0.1c1.6,0,3.2,0,4.8,0c0.5-1.8,0.8-3.3,1.1-4.5c0.3-1.2,0.5-2.2,0.7-2.9
			c0.3-0.7,0.6-1.2,0.9-1.6C103.4,88.1,104,87.9,104.6,87.9z"/>
		<path class="st7" d="M122.7,86.9c0.6,0,1,0.1,1.3,0.3c0.2,0.2,0.5,0.5,0.7,0.8c0.2,0.3,0.5,1,0.9,1.9c0.4,1,0.8,2.1,1.2,3.4
			c0.4,1.3,0.8,2.7,1.3,4.1c0.4,1.4,0.8,2.8,1.1,4s0.6,2.3,0.8,3.1c0.2,0.9,0.3,1.4,0.3,1.5c0,0.5-0.2,0.8-0.5,1.2
			c-0.3,0.3-0.7,0.6-1.1,0.8c-0.4,0.2-0.9,0.4-1.3,0.5s-0.8,0.2-1,0.2c-0.8,0-1.3-0.2-1.6-0.7c0-0.1-0.1-0.2-0.1-0.3
			c0-0.1-0.1-0.3-0.2-0.5c-0.1-0.2-0.2-0.6-0.3-1.1c-0.1-0.5-0.2-1.1-0.4-1.9c-0.8,0-1.7,0-2.7,0s-1.9,0-2.8,0.1
			c-0.9,0-1.7,0-2.5,0.1s-1.4,0-1.9,0c-0.8,1.2-1.5,2.2-2.2,2.9c-0.6,0.7-1.2,1.1-1.6,1.1c-0.3,0-0.6-0.1-1-0.2
			c-0.4-0.1-0.8-0.3-1.2-0.6c-0.4-0.2-0.7-0.5-1-0.7s-0.5-0.5-0.5-0.7c0-0.3,0.1-0.6,0.2-0.9c0.1-0.3,0.4-0.7,0.7-1.3
			c0.3-0.5,0.8-1.2,1.4-2c0.6-0.8,1.4-1.9,2.4-3.2c1.2-1.6,2.6-3.4,4.3-5.3c1.6-1.9,3.4-3.9,5.3-6c0.1-0.2,0.3-0.3,0.6-0.4
			C121.7,87,122.1,86.9,122.7,86.9z M122.6,99.2c-0.3-0.9-0.5-1.8-0.7-2.5c-0.2-0.8-0.4-1.5-0.6-2.1c-0.7,0.7-1.3,1.5-1.9,2.2
			c-0.6,0.8-1.2,1.6-1.7,2.4c0.8,0,1.6,0,2.5,0C121,99.3,121.8,99.3,122.6,99.2z"/>
		<path class="st7" d="M154.6,88.2c1.2,0,2.1,0.2,2.5,0.5c0.4,0.3,0.6,0.8,0.6,1.4c0,0.5-0.1,1-0.3,1.4c-0.2,0.4-0.4,1-0.5,1.6
			c0,0.2-0.1,0.6-0.2,1.2c-0.1,0.7-0.2,1.4-0.4,2.3c-0.2,0.9-0.3,1.9-0.5,2.9c-0.2,1-0.3,2-0.5,2.9c-0.2,0.9-0.3,1.7-0.4,2.3
			c-0.1,0.7-0.2,1.1-0.2,1.2c-0.2,0.9-0.5,1.5-1,2c-0.5,0.5-1.2,0.7-2.1,0.7c-0.2,0-0.6,0-0.9-0.1s-0.7-0.2-1.1-0.3
			s-0.8-0.3-1.2-0.5c-0.4-0.2-0.7-0.4-1-0.7c-0.6-0.6-1.3-1.2-1.9-2c-0.7-0.8-1.3-1.6-2-2.5c-0.6-0.9-1.3-1.8-1.9-2.8
			c-0.6-1-1.2-1.9-1.6-2.8c-0.3,1.1-0.5,2-0.7,2.8s-0.4,1.5-0.5,2.1c-0.1,0.6-0.3,1.2-0.4,1.8c-0.1,0.5-0.2,1.1-0.2,1.7
			c-0.1,0.6-0.1,1.1-0.2,1.4c-0.1,0.4-0.2,0.6-0.4,0.9s-0.4,0.3-0.8,0.4c-0.3,0.1-0.8,0.1-1.4,0.1c-1.2,0-2-0.2-2.6-0.5
			c-0.5-0.3-0.8-1-0.8-1.9c0-0.2,0.1-0.6,0.3-1.4s0.4-1.7,0.7-2.8v0c0.2-0.9,0.4-1.9,0.7-2.9c0.2-1.1,0.5-2.1,0.8-3.2
			c0.3-1.1,0.5-2.1,0.7-3.1c0.2-1,0.4-1.9,0.5-2.7c0-0.6,0.4-1.1,1-1.5c0.6-0.4,1.5-0.6,2.7-0.6c1.7,0,2.7,0.5,2.8,1.4
			c0.5,1,1,2,1.6,3.1c0.6,1.1,1.3,2.2,1.9,3.2c0.7,1.1,1.3,2.1,2,3.1s1.3,1.8,1.8,2.6c0.1-1,0.3-2,0.4-3c0.2-1,0.3-2,0.5-3
			c0.2-1,0.4-1.9,0.5-2.8c0.2-0.9,0.4-1.7,0.5-2.5c0.1-0.5,0.4-1,0.8-1.3S153.6,88.2,154.6,88.2z"/>
		<path class="st7" d="M174.8,87.5c1.4,0,2.7,0.2,3.9,0.6c1.2,0.4,2.2,0.9,3,1.6c0.8,0.7,1.5,1.5,1.9,2.5c0.5,1,0.7,2.1,0.7,3.2
			c0,1.8-0.5,3.4-1.4,5c-0.9,1.6-2.1,3-3.6,4.2c-1.5,1.2-3.2,2.1-5.2,2.8c-2,0.7-4,1.1-6.1,1.1c-2.9,0-5.2-0.6-6.7-1.8
			c-1.5-1.2-2.3-3-2.3-5.4c0-2,0.5-3.8,1.5-5.5c1-1.7,2.2-3.2,3.8-4.4c1.5-1.2,3.2-2.2,5.1-2.9S173.1,87.5,174.8,87.5z M174.6,92.9
			c-1,0-2.1,0.3-3.3,0.8c-1.2,0.5-2.2,1.2-3.2,2s-1.8,1.7-2.4,2.7c-0.6,1-1,1.9-1,2.8c0,1.4,1.3,2,3.8,2c1.2,0,2.4-0.2,3.5-0.6
			c1.2-0.4,2.2-1,3.1-1.7s1.7-1.5,2.3-2.4c0.6-0.9,0.9-1.8,0.9-2.8c0-0.9-0.3-1.5-1-2C176.8,93.1,175.8,92.9,174.6,92.9z"/>
		<path class="st7" d="M199.4,87.1c0.6,0,1.2,0,2,0.1c0.7,0.1,1.5,0.1,2.3,0.3c0.8,0.1,1.5,0.3,2.3,0.5c0.7,0.2,1.4,0.4,2,0.7
			c0.6,0.3,1.1,0.6,1.4,0.9c0.4,0.3,0.5,0.7,0.5,1.1c0,0.5-0.1,0.9-0.3,1.3s-0.5,0.7-0.8,1c-0.3,0.3-0.6,0.5-0.9,0.7
			c-0.3,0.2-0.6,0.3-0.8,0.3c-0.3,0-0.7-0.1-1-0.2c-0.3-0.2-0.8-0.3-1.4-0.5s-1.5-0.4-2.6-0.5s-2.6-0.2-4.6-0.2
			c-0.8,0-1.4,0-1.8,0.1c-0.5,0-0.7,0.2-0.7,0.3c0,0.1,0.1,0.2,0.3,0.3c0.2,0.1,0.5,0.2,1,0.4s1,0.3,1.8,0.6
			c0.7,0.2,1.6,0.5,2.6,0.9c2.9,1,5,2.1,6.5,3.4s2.1,2.4,2.1,3.6c0,1.1-0.4,2-1.1,2.9c-0.7,0.8-1.6,1.5-2.7,2.1
			c-1.1,0.5-2.4,1-3.7,1.2c-1.4,0.3-2.8,0.4-4.1,0.4c-1.8,0-3.5-0.2-5.1-0.6c-1.6-0.4-2.9-0.9-4-1.5c-1.1-0.6-2-1.2-2.7-1.9
			c-0.6-0.6-1-1.1-1-1.5c0-0.3,0.1-0.6,0.2-1c0.1-0.4,0.3-0.7,0.5-1s0.5-0.6,0.9-0.8s0.8-0.3,1.2-0.3c0.3,0,0.6,0,0.8,0.1
			c0.2,0.1,0.4,0.1,0.5,0.2c0.1,0.1,0.3,0.2,0.4,0.4c0.1,0.1,0.3,0.3,0.5,0.4c0.1,0.1,0.4,0.3,0.7,0.6c0.4,0.2,0.8,0.5,1.4,0.8
			c0.6,0.3,1.4,0.5,2.3,0.7c0.9,0.2,2,0.3,3.2,0.3c0.6,0,1.3,0,2-0.1c0.7,0,1.3-0.1,1.9-0.2s1-0.2,1.4-0.3c0.4-0.1,0.6-0.3,0.6-0.5
			c0-0.2-0.2-0.4-0.5-0.6c-0.4-0.2-0.8-0.5-1.3-0.7c-0.5-0.2-1.1-0.5-1.8-0.7c-0.6-0.2-1.3-0.5-1.9-0.7c-1.8-0.6-3.3-1.2-4.4-1.8
			c-1.2-0.6-2.1-1.1-2.8-1.7c-0.7-0.6-1.2-1.1-1.4-1.6c-0.3-0.5-0.4-1.1-0.4-1.6c0-0.6,0.2-1.2,0.5-1.9c0.3-0.7,0.9-1.3,1.7-1.8
			c0.8-0.6,1.9-1,3.2-1.4C195.7,87.3,197.4,87.1,199.4,87.1z"/>
	</g>
</g>
</svg>
