<svg xmlns="http://www.w3.org/2000/svg" viewBox="0 0 182.3 211.26"><defs><style>.cls-1{fill:#0d6a2a;}.cls-2{fill:#999;}.cls-3{fill:#666;}.cls-4{fill:none;stroke:#666;stroke-miterlimit:10;stroke-width:2px;}.cls-5{fill:#e10;}.cls-6{fill:#ac97b0;}.cls-7{fill:#fc1;}.cls-8{fill:#fff;}</style></defs><title>Asset 5</title><g id="Layer_2" data-name="Layer 2"><g id="Layer_1-2" data-name="Layer 1"><path class="cls-1" d="M182.3,92.59,91.15,211.26,0,92.59,20.35,76.25l22.07-5.16,14-9.46S53.31,39.56,63.06,19.5c3.05-6.73-.29-7.36-.29-7.36S76.63-3.62,93.82.77C109.21,3.75,115.74,13,116.93,15a4,4,0,0,0,.44.58c1.52,1.66,10,12.46,7.6,45.62l14.52,10.7,20.83,3.63Z"/><path d="M90.43,23.23S59.91,33.83,63.63,73.1L91.15,95.31l27.09-23.5S121,37.27,90.43,23.23Z"/><path class="cls-2" d="M65.17,52.18V64.79l16,17.2H99l16.43-16.82v-13a40.23,40.23,0,0,0-25-29C70.32,30.77,65.17,52.18,65.17,52.18Z"/><polygon class="cls-3" points="115.08 50.62 102.04 52.61 105.41 75.41 115.42 65.17 115.08 50.62"/><polygon class="cls-3" points="65.17 50.62 79.88 52.61 76.32 76.74 65.17 64.79 65.17 50.62"/><path class="cls-3" d="M83.31,53.71A26,26,0,0,1,84,56.49c.18.93.31,1.86.43,2.78l-.8-1a61.18,61.18,0,0,1,7.09,1.48H89.9A60.54,60.54,0,0,1,97,58.22l-.8,1a36.12,36.12,0,0,1,1.08-5.57,36.12,36.12,0,0,1,1.08,5.57l.09.68-.89.36a60.54,60.54,0,0,1-6.86,2.29l-.39.11-.39-.11A61.18,61.18,0,0,1,83,60.31L82.15,60l.09-.68c.12-.93.25-1.86.43-2.78A26,26,0,0,1,83.31,53.71Z"/><polygon points="71.66 41.48 83.31 46.83 83.31 50.62 69.94 48.55 71.66 41.48"/><polygon points="109.37 41.48 97.71 46.83 97.71 50.62 111.09 48.55 109.37 41.48"/><path d="M81.55,65.79l8.75,2,9.89-2a9.79,9.79,0,0,1,1.86,3.3c.29,1.43-1.72,3.44-1.72,3.44l-10-1.43-8,1.43a3.29,3.29,0,0,1-2.39-2.72A5.83,5.83,0,0,1,81.55,65.79Z"/><line class="cls-4" x1="79.88" y1="69.8" x2="102.04" y2="69.09"/><line class="cls-4" x1="83.31" y1="66.2" x2="83.31" y2="72.34"/><line class="cls-4" x1="98.18" y1="66.2" x2="98.18" y2="72.22"/><polygon class="cls-5" points="100.96 47.28 104.69 46.61 102.66 48.56 100.96 47.28"/><polygon class="cls-5" points="79.7 47.38 76.01 46.5 77.93 48.56 79.7 47.38"/><rect class="cls-6" x="73.82" y="92.71" width="32.58" height="3.21"/><rect class="cls-6" x="73.82" y="97.75" width="32.58" height="3.21"/><circle class="cls-7" cx="119.09" cy="95.53" r="14.12"/><path class="cls-8" d="M109.11,85.55l14,23.53a18.38,18.38,0,0,1-4,.57l-12.2-21.21A24.69,24.69,0,0,1,109.11,85.55Z"/><polygon class="cls-8" points="113.39 82.61 127.61 106.78 125.97 107.85 111.74 83.47 113.39 82.61"/><circle class="cls-7" cx="61.84" cy="95.53" r="14.12"/><path class="cls-8" d="M51.86,85.55l14,23.53a18.38,18.38,0,0,1-4,.57L49.64,88.43A24.69,24.69,0,0,1,51.86,85.55Z"/><polygon class="cls-8" points="56.14 82.61 70.36 106.79 68.72 107.86 54.49 83.47 56.14 82.61"/></g></g></svg>