<svg xmlns="http://www.w3.org/2000/svg" viewBox="0 0 191.07 214.66"><defs><style>.cls-1{fill:#ff4133;}.cls-2{fill:#460185;}.cls-3{fill:#4a0484;}.cls-4{fill:#ecedec;}.cls-5{fill:#eee;}</style></defs><title>Asset 8</title><g id="Layer_2" data-name="Layer 2"><g id="Layer_1-2" data-name="Layer 1"><path class="cls-1" d="M190.48,92.53c1.54,1.48-.36,2.07-.89,2.78-8.46,10.89-17,21.72-25.57,32.55L97.43,212.39c-2.37,3-2.43,3-4.68.06Q46.5,153.14.24,93.77c1.6-1.3,3-.18,4.44.41,7.28,3,14.62,5.92,21.9,9.06a6.34,6.34,0,0,0,6.39-.36c3.73-2.25,7.52-4.26,11.31-6.51a8.8,8.8,0,0,1,6.81-1c10.18,2.37,20.3,4.91,30.48,7.28,3.26.77,3.91,1.66,4.08,5.15.24,4.56.24,4.62,4.74,4.62,4.74,0,9.47-.06,14.21.06,2.37.06,3.31-.77,3.37-3.2.06-5.21.12-5.27,5.15-6.63,8.76-2.37,17.52-4.62,26.34-6.93,2.31-.59,4.38-.53,6.16,1,5.21,4.62,10.83,4.68,17.22,2.55,7.64-2.55,15.63-4.26,23.44-6.27A6,6,0,0,1,190.48,92.53Z"/><path class="cls-2" d="M190.48,92.53c-11,2.9-22.08,5.74-33,8.82-3,.83-5.45.83-7.87-1.24-4.56-3.85-9.35-4.44-15.15-2.43-7.52,2.66-15.33,4.26-23.08,6.22-2,.47-2.66,1.3-2.6,3.37.12,6,0,6-6,6-5.21,0-10.42-.06-15.69.06-1.78.06-2.25-.41-2.25-2.31-.06-6.75-.12-6.75-6.75-8.35-9.47-2.25-18.94-4.44-28.41-6.81a5,5,0,0,0-4.14.59C41.26,99,36.94,101.29,32.79,104a5.72,5.72,0,0,1-6,.3c-8-3.43-16.22-6.69-24.27-10.06A3.74,3.74,0,0,0,.3,93.65c-.83-1,.3-1.36.71-1.83q13.23-14,26.46-28.12A2.77,2.77,0,0,1,31,62.87c6.75,2.72,13.55,5.27,20.24,8a4.19,4.19,0,0,0,3.37.12c3.73-1.48,7.4-3.14,11.25-4.32,2.72-.89,2-3,2.31-4.74,1.6,0,2,1.42,2.66,2.43a92.89,92.89,0,0,0,14,16.81c.71.65,1.24,1.54,2.37,1.66C88,82,87.72,81,87.72,80c0-8.11.06-16.16,0-24.27,0-3.55-.12-3.61-3.67-3.55-1.18,0-2.37-.18-3.55-.3-1.54-.12-3-.77-3.14,2-.06,1.78-1.72.77-2.31.06-3.61-4.38-6.69-9.06-6.45-15.09A28.18,28.18,0,0,1,69,35c1.07-5.21,5.39-8,10.54-6.93a33.82,33.82,0,0,1,13.67,6.81c2.19,1.66,3.85,1.72,6,.06a47.72,47.72,0,0,1,10-5.74c8.35-3.73,14.38.24,14.68,9.29.18,5.39-1.89,9.83-5.09,13.79-.89,1.12-2.31,3.61-3.61.12-.3-.83-1.12-.59-1.83-.53a29.85,29.85,0,0,1-6.51.3,1.55,1.55,0,0,0-1.89,1.72c-.12,9.53-.06,19.12-.06,28.59,1.36.59,1.89-.36,2.55-.83,5.8-4.44,10-10.3,14.15-16.22.71-1,1.18-2.37,2.66-2.49-.47,2.9,1.66,3.31,3.61,4.5,7.22,4.44,14.09,3.67,21.19-.24,3.14-1.72,6.81-2.55,10.06-4,1.78-.83,2.78-.53,4.08.83,7.28,7.69,14.68,15.27,22,22.91C187,88.8,188.7,90.69,190.48,92.53Z"/><path class="cls-1" d="M124.24,63c-4.56,7-9.47,13.85-15.92,19.3-.65.59-1.36,1.12-2.07,1.66-.53.36-.95,1.18-1.72.83s-.41-1.24-.41-1.83c0-9.77.06-19.53-.06-29.24,0-2.07.71-2.6,2.6-2.31a16.21,16.21,0,0,0,6.75-.3c3-.83,3.85-.12,2.31,3.14,5.56-4.2,8.64-13,7-19.06-1.3-4.91-4.85-7.16-9.83-6-5.39,1.24-10,4.14-14.26,7.46-1.89,1.48-3.08,1.24-4.79-.12-4.26-3.26-8.7-6.16-14-7.34-5.5-1.18-9.17,1.48-10.12,7-1.24,7.52,2.49,13,7,18.53.47-1.18-.36-1.78-.41-2.49-.06-1.12.36-1.78,1.54-1.48a25.78,25.78,0,0,0,8.76.59c1.72-.18,2,.65,2,2.07V83c0,.65.3,1.54-.53,1.78s-1.24-.53-1.72-.95A85.1,85.1,0,0,1,70.38,65.3l-2.13-3.2c-.41-12.07-1-24.27-.12-36.28S75.35,5.4,87.07,1.55C98.49-2.18,111,1,118.2,9.37a27.64,27.64,0,0,1,6.57,18c.24,11.42-.06,22.85-.12,34.27A13,13,0,0,0,124.24,63Z"/><path d="M91.27,65.72c0-5.15-.12-10.24.06-15.39.06-2.13-.65-2-2.37-1.78-3.37.53-6.87.83-10.24-.3C73.22,46.42,71,39,74.52,34.34c1.72-2.25,5.09-2.66,9-1.18a41.48,41.48,0,0,1,11,6.39c1.54,1.18,2.37,1.07,3.73,0,4.08-3.14,8.35-5.92,13.5-7,4-.89,6.81.95,7.69,4.85,1.48,6.63-2.13,11.36-8.94,11.54a21.51,21.51,0,0,1-6.75-.41c-2-.59-2.55.36-2.49,2.25.06,9.77-.06,19.53.12,29.3.06,2.66-.77,3.31-3.37,3.26-6.63-.12-6.63,0-6.63-6.57v-5.5c-.12-1.83-.12-3.67-.06-5.5Z"/><path class="cls-3" d="M108.62,14.4c.77,7.64-2.25,12.61-8.76,14.74a3.31,3.31,0,0,0-2.31,2c-1.07,2.43-2,1.6-2.78-.18A2.93,2.93,0,0,0,93,29.19c-7.1-2.84-9.53-6.57-9.41-14.21,1.24.24,1.18,1.48,1.6,2.19a13.46,13.46,0,0,0,6.27,5.62c1.42.65,2.66,1.07,3.67-.83.65-1.36,1.78-1.18,2.43.12.89,1.83,2.13,1.3,3.49.77C104.77,21.38,107,18.3,108.62,14.4Z"/><path class="cls-4" d="M102.93,42.63c3.2-1.48,5.86-2.72,8.82-4.14C110,43.1,107.67,44.23,102.93,42.63Z"/><path class="cls-5" d="M88.61,42.57c-4.14,1.78-6.57.71-9-4.14C82.87,39.91,85.59,41.15,88.61,42.57Z"/></g></g></svg>