<svg xmlns="http://www.w3.org/2000/svg" viewBox="0 0 175 188.61"><defs><style>.cls-1{fill:#520400;}.cls-2{fill:#cf1109;}.cls-3{fill:#cd110a;}.cls-4{fill:#ce110b;}.cls-5{fill:#cd110c;}.cls-6{fill:#8b8989;}.cls-7{fill:#8a8888;}.cls-8{fill:#8b8a8a;}.cls-9{fill:#8a8989;}.cls-10{fill:#060102;}.cls-11{fill:#070202;}.cls-12{fill:#320703;}.cls-13{fill:#200604;}.cls-14{fill:#3d0705;}.cls-15{fill:#32090b;}.cls-16{fill:#010000;}.cls-17{fill:#d4d5d4;}.cls-18{fill:#d4d4d4;}.cls-19{fill:#ce1109;}.cls-20{fill:#c9120b;}.cls-21{fill:#cd120b;}.cls-22{fill:#cc110b;}.cls-23{fill:#c8120c;}.cls-24{fill:#cb110c;}.cls-25{fill:#470a04;}.cls-26{fill:#280401;}.cls-27{fill:#200502;}.cls-28{fill:#4e0b03;}.cls-29{fill:#040100;}.cls-30{fill:#060101;}.cls-31{fill:#020000;}</style></defs><title>Asset 9</title><g id="Layer_2" data-name="Layer 2"><g id="Layer_1-2" data-name="Layer 1"><path class="cls-1" d="M162.22,71.51c3.64,1.36,7.23,2.88,10.93,4.08,2.45.82,2.17,1.79.87,3.43q-11.09,14-22.13,28.06-25,31.73-49.86,63.45c-4.46,5.65-9.08,11.26-13.43,17-1.3,1.74-1.9,1.25-3-.11Q66.52,162.91,47.44,138.5,30.72,117,14.05,95.49C9.7,89.94,5.35,84.45.9,79c-1.3-1.58-1.3-2.56.82-3.32,3.48-1.25,6.91-2.72,10.39-4,.65-.27,1.09-.54,1.25-1.25,2,.92,3.86.54,5.82-.27,4.3-1.79,8.75-3.21,13.1-4.95a9.6,9.6,0,0,0,4.4-2.88c5.44-2,10.82-4,16.26-6,1.36-.49,1.36-1.36,1.25-2.56-.27-4.24-.38-8.48-.71-12.72-.16-2.28.76-2.72,2.83-2.77,2.88-.05,5.76.65,8.59-.49,1.2.71,1.25,1.9,1.47,3a11.24,11.24,0,0,1-.22,5.38c-1.41,4-.27,7,2.66,10,3.32,3.32,6.74,6.52,9.79,10.17A4.4,4.4,0,0,0,82,67.7c1.74.05,3.48-.16,5.17.05,5.82.82,10.11-1.47,13.54-6a57.72,57.72,0,0,1,7.07-7.5,4.46,4.46,0,0,0,1.41-4.84,20.6,20.6,0,0,1-.54-10.44c.22-.92.11-2.07,1.47-2.28.11,1,.43,1.74,1.63,1.69,1-.05,2,0,3,0,5.17.05,5-.82,4.57,4.84-.27,3.43-.05,6.85-.76,10.22-.49,2.12,1.3,2.34,2.56,2.83,6,2.28,12,4.46,18,6.69a13,13,0,0,0,5.11,2.94c4.3,1.69,8.65,3.21,12.94,4.89A9.23,9.23,0,0,0,162.22,71.51Z"/><path class="cls-2" d="M109.91,36.66c-1.41,4.46-1,8.92.27,13.27A4,4,0,0,1,109,54.27c-4.13,4.19-8.16,8.48-12.13,12.78a4.48,4.48,0,0,1-3.53,1.58c-3.86,0-7.78,0-11.64.05a5.21,5.21,0,0,1-4.24-1.9C73.7,62.65,70,58.46,66,54.55c-1.63-1.63-2.12-3.15-1.47-5.27a21.1,21.1,0,0,0,.38-11.47c-.05-2.23-.33-4.3-3-5.06-1.25-.33-1.58-1.36-1.3-2.61a4.34,4.34,0,0,1,.16-.82c3.21-6.09,4.51-12.89,7.45-19.08A16.72,16.72,0,0,1,80.77.72c7.88-1.47,15.55-1,22,4.68a21,21,0,0,1,6.47,12,21.42,21.42,0,0,0,2.61,7,17.89,17.89,0,0,1,2.12,5.27c.33,1.52.05,2.77-1.58,3.21C110.29,33.45,109.86,34.86,109.91,36.66Z"/><path class="cls-3" d="M162.22,71.51c-.49,1.3-1.14,1.79-2.66,1.2-6.31-2.45-12.67-4.84-19-7.18-1.3-.49-2-1.2-1.58-2.66.54-1.3,1.36-1.52,2.72-1,6.31,2.45,12.61,4.78,18.92,7.18C161.73,69.55,162.93,69.88,162.22,71.51Z"/><path class="cls-4" d="M36.62,62.27c.49,1.41.22,2.23-1.36,2.77-6.09,2.17-12.13,4.51-18.16,6.91-2,.82-3.21.6-3.81-1.58-.22-1.14.65-1.3,1.41-1.58C21.12,66.4,27.59,64,34,61.51,35.15,61.07,36.07,60.91,36.62,62.27Z"/><path class="cls-5" d="M86.48,133.55a21.21,21.21,0,0,1-21-21.42C65.54,100,75,90.92,87.29,91c11.42.11,20.66,9.9,20.55,21.64A21.31,21.31,0,0,1,86.48,133.55Z"/><path class="cls-6" d="M114.81,73.52c.22-1.85,1.2-3,3.1-3.1a3.18,3.18,0,1,1,.22,6.36C116.11,76.78,115,75.53,114.81,73.52Z"/><path class="cls-7" d="M118.12,95.54c-1.9-.16-3.15-1.14-3.21-3.21a2.9,2.9,0,0,1,2.94-3.21,3,3,0,0,1,3.43,3C121.33,94.13,120.19,95.33,118.12,95.54Z"/><path class="cls-6" d="M114.86,111a3,3,0,0,1,3-3,3,3,0,0,1,3.37,3,3,3,0,0,1-3.15,3.32C116.17,114.3,115,113.11,114.86,111Z"/><path class="cls-8" d="M56.9,92.39c-.16,1.9-1,3.1-3,3.1s-3.26-1-3.26-3.15a2.9,2.9,0,0,1,3-3.15A3,3,0,0,1,56.9,92.39Z"/><path class="cls-9" d="M118.12,133.06c-2-.22-3.26-1.2-3.21-3.26a2.93,2.93,0,0,1,3-3.15,3.08,3.08,0,0,1,3.37,3.15C121.33,131.7,120.08,132.84,118.12,133.06Z"/><path class="cls-8" d="M56.9,129.85a2.91,2.91,0,0,1-3.1,3.1c-2.07,0-3.15-1.2-3.15-3.26a2.84,2.84,0,0,1,3.1-3A3,3,0,0,1,56.9,129.85Z"/><path class="cls-6" d="M53.58,70.37c2,.22,3.21,1.09,3.32,3a2.94,2.94,0,0,1-3.1,3.37,2.87,2.87,0,0,1-3.15-3.26C50.65,71.56,51.9,70.64,53.58,70.37Z"/><path class="cls-8" d="M53.91,107.89a3,3,0,0,1,3,3.21,2.92,2.92,0,0,1-3.21,3.21,2.87,2.87,0,0,1-3-3.15C50.65,109,51.9,108,53.91,107.89Z"/><path class="cls-10" d="M68.7,35,82,38.23a8.24,8.24,0,0,1-7.72,2.83C71.25,40.52,69.89,38.23,68.7,35Z"/><path class="cls-11" d="M101.32,36.22c1.36-.33,2.72-.71,4.46-1.14-.71,3.1-2.23,5-4.78,5.76a7.17,7.17,0,0,1-7.34-1.69c-1.47-1.47.49-1.09,1.09-1.41.76-.54,1.41.11,2.07.27,1.74.76,3,.16,4-1.3A4.9,4.9,0,0,0,101.32,36.22Z"/><path class="cls-12" d="M73.21,58c-1.79-2.12-3-4.4-1.9-7.23,1-2.5-.76-4-2.61-5.82C73.16,47,73.32,47,72.56,50.79,72,53.35,72.61,55.63,73.21,58Z"/><path class="cls-13" d="M104.42,46.17c-1.52,1.3-1.36,2.83-1,4.51.71,3.53.6,3.53-1.63,6.47,1.3-2.94.38-5.82.05-8.7C101.65,46.82,103.23,46.61,104.42,46.17Z"/><path class="cls-14" d="M83.92,48c.87-1.52,1.63-3.59,3.15-3.7,1.3-.11,2,2,3.21,3.86C87.78,47.21,85.88,46.93,83.92,48Z"/><path class="cls-15" d="M101.32,36.22c0,.22-.05.38-.05.6-1.2,1.63-3.1,1.36-4.73,2-.6-.33-1.2-.65-1.79-1A30.42,30.42,0,0,1,101.32,36.22Z"/><path class="cls-16" d="M67.45,112.13a19.14,19.14,0,1,1,19.3,19.25A19.12,19.12,0,0,1,67.45,112.13Z"/><path class="cls-17" d="M73.27,36.77c1.9.43,3.43.82,5.06,1.2C75.82,40,74.68,39.81,73.27,36.77Z"/><path class="cls-18" d="M96.54,38.78c-.38-1.63,1.09-1,1.69-1.25a13.82,13.82,0,0,1,3-.71C100.62,39.65,98.71,39.59,96.54,38.78Z"/><path class="cls-19" d="M81.2,107.4c-.22-1.85-.43-3.75-.6-5.6a3.18,3.18,0,0,1,1.9-3.32,9.23,9.23,0,0,1,8.59.16c1.25.65,1.52,1.79,1.63,3.21.16,1.9-1.2,3.64-.65,5.55,1,1.47.27,2.45-.87,3.43-2,1.69-4,3.15-6.8,1.74C81.15,110.88,80.44,109.68,81.2,107.4Z"/><path class="cls-20" d="M96.43,123.76a22,22,0,0,1-3.43,4c-2,1.63-3.7,2.23-5.71.33-.38-.33-.65-.65-1.09-.22-1.09,1.14-2.56,2-3.91,1.14-2-1.14-4.19-2.28-4.84-4.84-.05-.22-.38-.38-.54-.54-.87-2.12.49-3.53,1.63-5,1.58-.76,2.61-2.5,4.51-2.83,3.26-1.36,3.26-1.36,3.48,2.17-.33,1.25-1.41,1.58-2.39,2a5.06,5.06,0,0,0-2.5,2,1.81,1.81,0,0,0,.33,2.23c.43.49.92.92,1.63.6s.92-1,.92-1.79-.11-1.69.6-2.28a3,3,0,0,1,2.83-.6c1.14.33,1,1.36,1,2.23s-.27,2.07,1,2.45c.87.22,1.36-.33,1.74-1,.71-1.14.16-2-.65-2.88-1.25-1.2-3.26-1.2-4.24-2.77-.05-.38,0,.11-.05-.27-.27-1.09-.76-2.39.22-3.21,1.14-.92,2,.6,3,.87a10.74,10.74,0,0,1,5.11,3.32C96,120.45,97.14,121.81,96.43,123.76Z"/><path class="cls-21" d="M96.43,123.76c-.87-1.36-1-3.15-2.12-4.4-.71-.76-1.36-1.74-.27-2.56,1.25-.87,1.74.43,2.17,1.25.65,1.2,1.47,1.85,2.88,1.36a1.57,1.57,0,0,0,1-2,2.69,2.69,0,0,0-2.66-2.28,6.63,6.63,0,0,0-3.37.87,4.3,4.3,0,0,1-3.64.27,8,8,0,0,1-1.2-.54c-.82-.71-2.5-1.09-2-2.5s1.79-1,3-.71c1.58.33,2.94-1.3,4.62-.87,1.79,0,3.59-.16,5.38-.05a3.09,3.09,0,0,1,3.26,3.48,12.22,12.22,0,0,1-3.43,8.26C99,124.74,97.68,124.47,96.43,123.76Z"/><path class="cls-22" d="M79,118.81l-2.12,4.89c-1.79,1.14-3.15.65-4.35-1a12.67,12.67,0,0,1-2.77-7.45c-.05-2.34,1.2-3.32,3.21-3.48a23.11,23.11,0,0,1,7.23.54h.38a7.06,7.06,0,0,0,3.21.11,1.9,1.9,0,0,1,2.34.87c.6,1.14-.65,1.47-1.25,2.07a6.29,6.29,0,0,1-2.17,1.09c-2.12.92-3.81-.54-5.65-1a3,3,0,0,0-3.53,1.14,1.76,1.76,0,0,0,.27,2.66,1.9,1.9,0,0,0,2.66-.33,5.12,5.12,0,0,0,.65-1.2c.43-.71.87-1.63,1.85-1S79.84,118.05,79,118.81Z"/><path class="cls-23" d="M80.17,112.29c-1.85-1.09-2.56-2.83-3.1-4.84-.6-2.39-2.5-3.37-4.13-2.28-.92.6-1.69,1.47-1.25,2.72a2.25,2.25,0,0,0,2.5,1.63c.6-.05,1.14-.71,1.85-.11-1.14,1.79-2.83,2.07-4.68,1.63a2.34,2.34,0,0,1-1.85-2.39c-.11-1.85.27-3.59,2.12-4.62a5.53,5.53,0,0,1,8.48,4c.76.65.6,2.12,1.9,2.34,1.09.16,1.69.82,1.41,1.79s-1.3.71-2.07.65a2.34,2.34,0,0,1-1.2-.49Z"/><path class="cls-24" d="M93.22,108c.6-3,2-4.35,4.62-4.57,2.39-.22,4.62.16,5.49,2.77.54,1.52.92,3.43-.65,4.46-2,1.25-3.91.65-5.49-1.09.38-.71.76-.27,1.14-.16,1.47.38,2.77.11,3.26-1.52.43-1.47-.49-2.45-1.74-2.88a2.58,2.58,0,0,0-3.37,1.47c-.76,1.58-.65,3.59-2.12,4.89a5.8,5.8,0,0,1-3,1.52c-.65.05-1.3-.05-1.58-.71a1.11,1.11,0,0,1,.71-1.52C92.13,110.39,92.46,109,93.22,108Z"/><path class="cls-25" d="M93.22,108c-.11,1.25-.11,2.56-1.79,2.83-.65.11-1.41.38-1.2,1.14s1.09.43,1.63.33a19.63,19.63,0,0,0,2.5-.92l.49.49c-1.9.92-3.64,2.77-6.09,1.09-.38-.27-.92.05-1.14.43-.43.71.22.92.65,1.2L90.56,116c0,.38-.33.43-.54.54l-1-.16c-.76-.16-1-1.69-1.85-1.09-1,.76-.27,2,.11,2.88a.83.83,0,0,1-1.09,0,6.26,6.26,0,0,0-.11-3c-1.09.43-1.74,1.69-3,1.47a.43.43,0,0,1-.11-.71c.65-.43,1.36-.87,2-1.36.43-.33,1.36-.49.82-1.36a1.16,1.16,0,0,0-1.69-.27c-1.58,1.09-2.83.54-3.86-.82h1.3c.54,0,1.36.38,1.58-.38s-.49-1-1.14-1.09c-1.69-.22-1.69-1.52-1.74-2.77.38-.22.76-.38,1.14-.6.33,2.28,3.21,4.89,5.44,4.89s5.06-2.56,5.44-4.89A3.41,3.41,0,0,0,93.22,108Z"/><path class="cls-26" d="M85.23,107.18a1.46,1.46,0,0,1-1.58.71c-.54-.05-1.09-.27-1-.92a1,1,0,0,1,1.3-.92C84.52,106.2,85.12,106.42,85.23,107.18Z"/><path class="cls-27" d="M89.47,106c.6.05,1.14.27,1.2.87.05.82-.54,1.09-1.2,1s-1.41-.05-1.36-.87S88.87,106.2,89.47,106Z"/><path class="cls-28" d="M87.35,109a.65.65,0,0,1-.71.87c-.49,0-.87-.22-.82-.82.05-.43.22-.92.76-1S87.24,108.65,87.35,109Z"/><path class="cls-29" d="M86.1,118.27h1.09c1.3,1.14,3.32.76,4.57,2.12s2.23,2.45.92,4.24c-.92,1.25-1.9,2.12-3.59,1.3-2.07-1-1.58-2.5-1-4.08a6.41,6.41,0,0,0,.22-1c-1,.05-2,1.36-2.83.05-.71.87-.05,1.41,0,2,.22,1.36.05,2.39-1.36,3.1s-2.45.05-3.32-.92a2.73,2.73,0,0,1-.22-3.64C81.91,119.25,84.36,119.41,86.1,118.27Z"/><path class="cls-30" d="M89.9,116.59l.54-.54c2,.27,3.43-.92,5.06-1.52,1.36-.49,2.56-.82,3.81.11,1.47,1.09,2.5,2.34,1.79,4.3a2.54,2.54,0,0,1-2.83,1.85c-2-.16-3.21-1-3.21-3.15,0-.22-.22-.43-.38-.71-1.41.6-.82,1.52-.49,2.45A19.4,19.4,0,0,0,89.9,116.59Z"/><path class="cls-31" d="M82.84,116.1a2.75,2.75,0,0,1,.11.71c-1.2.76-2.72,1.09-3.48,2.5,0,.05-.22.05-.22,0a3.21,3.21,0,0,1-.22-.43,1.62,1.62,0,0,0-.54-2.07c-.71,1.09-.22,2.77-1.58,3.43s-2.88,1-4,0a3,3,0,0,1-.65-3.86c1-1.47,2.28-2.88,4.51-2.17C78.76,114.79,80.55,116.26,82.84,116.1Z"/></g></g></svg>