<svg xmlns="http://www.w3.org/2000/svg" viewBox="0 0 181.26 192.03"><defs><style>.cls-1{fill:#1a43d4;}.cls-2{fill:#b0a9df;}.cls-3{fill:#1d97ff;}.cls-4{fill:#eac93f;}.cls-5,.cls-7{fill:#ffd24a;}.cls-6{fill:#fff;}.cls-7{stroke:#b79132;stroke-miterlimit:10;}.cls-8{fill:#9591c6;}</style></defs><title>Asset 6</title><g id="Layer_2" data-name="Layer 2"><g id="Layer_1-2" data-name="Layer 1"><polygon class="cls-1" points="89.67 192.03 5.03 82.91 69.61 58.11 82.22 74.15 97.84 74.36 111.52 58.11 176.1 82.7 89.67 192.03"/><path class="cls-2" d="M82.23,74.15l-12.62-16L69,48.38s-5.56.43-4.28-10.69h3.64S65.52,9,89.67,9s22.84,23.76,22.84,28.25l3.39.13s2.78,9.62-4.38,10.75v9.94L97.84,74.36Z"/><path class="cls-3" d="M73.35,16.05c6.74-10,29.8-8.43,33.81.48,0,0,1,5.93-3.73,9.19s-27.54,0-27.54,0S73.35,25.55,73.35,16.05Z"/><path class="cls-4" d="M121.94,26.83l-4-.54v0c-.06,5-5.76,1.5-7.27,5.18l-4.77,7.43,9.6,6.89h0l3.65-.62S124.36,40.79,121.94,26.83Z"/><path class="cls-4" d="M73.21,38.28c-1.51-3.68-10.66-7-10.73-12l-4,.54s-3.59,10,2.72,18.34l3.68.62h0Z"/><path class="cls-5" d="M118,26.26v0a36.75,36.75,0,0,1-2.91,13.29l.47,6.21L116,52.3l-9.73,14.09V53.62l3.17-4.26a11.11,11.11,0,0,0,2.19-5.62,68.91,68.91,0,0,0-.93-17.17c-6.65,1.55-17,6.52-18.71,7.34h0a1.49,1.49,0,0,0-.22.11H88.68L69.76,26.56s-1.74,10.63-1.27,18c.35,5.53,5.7,9.06,5.7,9.06V65.94L64.45,52.3l.47-6.52.45-6.21A36.74,36.74,0,0,1,62.49,26.3c-.78-15.1,5.14-24.4,5.14-24.4-1.73,11.89,9,17,9,17,1.06-2.14,8.7-4.75,8.7-4.75L81.65,1.21C89.59-1.45,98,1.1,98,1.1L94.18,14.65a16.75,16.75,0,0,1,8.89,4.51l0,0c.28-.11.54-.24.8-.37a.65.65,0,0,1,.17-.09,15.46,15.46,0,0,0,8.78-16.79C119.62,10.62,118,26,118,26.26Z"/><path class="cls-4" d="M88.68,34V29l-5.93-8.31a25.11,25.11,0,0,1-6.13-1.88,2.43,2.43,0,0,1,.91-1l6,2.08,6.15,8.82Z"/><path class="cls-4" d="M103.07,19.16a22.49,22.49,0,0,1-5.14,1.58L92,29v5l0-.11-1-5.14,6.15-8.82L102,18.19A6.72,6.72,0,0,1,103.07,19.16Z"/><path class="cls-5" d="M91,104.23,137.57,84,176.1,82.7l5.16-6.39L156.85,73l-25.31-7.27-20-7.62-8.45,10-2.89,13A32.33,32.33,0,0,0,91,104.23Z"/><path class="cls-5" d="M90.29,104.23,43.69,84,5.16,82.7,0,76.31,24.41,73l25.31-7.27,20-7.62,8.45,10,2.89,13A32.33,32.33,0,0,1,90.29,104.23Z"/><path class="cls-6" d="M75.25,37.8l9.91,3.66S78.52,48.91,75.25,37.8Z"/><path class="cls-3" d="M79,39.2s.59,4,4.34,1.6Z"/><path class="cls-6" d="M105.33,37.8l-9.91,3.66S102.06,48.91,105.33,37.8Z"/><path class="cls-3" d="M101.55,39.2s-.59,4-4.34,1.6Z"/><polygon class="cls-5" points="76.62 90.75 90.87 97.33 103.07 90.75 103.07 98.98 97.02 111.6 89.67 192.03 83.17 111.6 76.62 98.54 76.62 90.75"/><polyline class="cls-7" points="84.03 122.18 90.29 125.07 96.06 122.18"/><polyline class="cls-7" points="85.94 145.91 90.04 147.53 93.89 145.91"/><path class="cls-8" d="M98.85,59a.62.62,0,0,1-.49-.23l-1-1.26h-13l-1.69,1.36a.62.62,0,1,1-.78-1l1.86-1.5a.62.62,0,0,1,.39-.14H97.66a.62.62,0,0,1,.49.23L99.34,58a.62.62,0,0,1-.49,1Z"/></g></g></svg>