<?xml version="1.0" encoding="utf-8"?>
<!-- Generator: Adobe Illustrator 21.0.0, SVG Export Plug-In . SVG Version: 6.00 Build 0)  -->
<svg version="1.1" id="Layer_1" xmlns="http://www.w3.org/2000/svg" xmlns:xlink="http://www.w3.org/1999/xlink" x="0px" y="0px"
	 viewBox="0 0 703.1 295.6" style="enable-background:new 0 0 703.1 295.6;" xml:space="preserve" preserveAspectRatio="none">
<style type="text/css">
	.st0{fill:#FFFFFF;stroke:#000000;stroke-miterlimit:10;}
	.st1{fill:#3F3D3D;}
</style>
<g>
	<path class="st0" d="M142.8,218.5l30.2,0.1l-21.2,20.3h36.6L145,294.1l120.9-61.7l-43.9,0.2l7.7-7.7l424.3-3
		c18,0.2,31.2-20.4,32-38.3l15-152c0.8-17.9,6.9-32-11-31l-673,40c-17.9,1-17.1,10.1-16,28l5,117c1.1,17.9,6.1,33.3,24,33.6
		L142.8,218.5z"/>
	<path class="st1" d="M160.2,207.3l36.8,0.2l-23.2,21h34.8L185.4,258l66.9-23h-36.4l20.2-23.9l412.9-2.7c17.9,0.2,32.2-17.1,33-35
		l14-136c0.8-17.9,2.9-31-15-30l-655,39c-17.9,1-20.1,2.1-19,20l5,111c1.1,17.9,0.1,27.8,18,28L160.2,207.3z"/>
</g>
</svg>
