<svg xmlns="http://www.w3.org/2000/svg" viewBox="0 0 359.95 477"><defs><style>.cls-1{fill:#6f5742;}.cls-2{fill:#70563e;}.cls-10,.cls-11,.cls-12,.cls-13,.cls-2,.cls-4,.cls-6,.cls-8{stroke:#000;}.cls-10,.cls-11,.cls-12,.cls-13,.cls-2,.cls-3,.cls-4,.cls-5,.cls-6,.cls-7,.cls-8,.cls-9{stroke-miterlimit:10;}.cls-12,.cls-2,.cls-3{stroke-width:20px;}.cls-11,.cls-13,.cls-3,.cls-4,.cls-5,.cls-6,.cls-7,.cls-8,.cls-9{fill:none;}.cls-3,.cls-9{stroke:#4e3c2d;}.cls-4{stroke-width:16px;}.cls-5{stroke:#644d39;}.cls-13,.cls-5{stroke-width:18px;}.cls-6{stroke-width:28px;}.cls-7{stroke:#bd949d;stroke-width:27px;}.cls-8{stroke-width:8px;}.cls-9{stroke-width:13px;}.cls-10{fill:#6e5843;}.cls-10,.cls-11{stroke-width:19px;}</style></defs><title>Asset 1</title><g id="Layer_2" data-name="Layer 2"><g id="Layer_2-2" data-name="Layer 2"><polygon class="cls-1" points="106.17 425 102.67 379.5 113.67 369 150.67 376 203.17 377 237.5 369 253.67 378 250.17 425 106.17 425"/><polygon class="cls-2" points="65.17 66 101.17 30 156.17 10 201.17 10 251.17 26 292.17 59 317.17 122 317.17 203 309.17 311 297.17 379 273.17 424 249.17 449 216.17 467 152.17 467 113.17 452 84.17 434 59.17 377 44.17 304 40.67 189.5 40.67 125.33 65.17 66"/><polyline class="cls-3" points="94.67 175.5 104.17 165 253.17 165 264.17 175.5"/><polyline class="cls-4" points="73.67 235.5 88.17 228 128.67 235.5 147.67 244 163.67 244"/><polyline class="cls-5" points="82.17 268.5 100.17 275 134.17 268.5 145.17 256"/><path class="cls-6" d="M88.54,421.87V369.5L113.67,355l42,6,47.5,1,40.5-7,24,17-2.87,50.33a11.93,11.93,0,0,1-11.69,11.25l-149.73,2.84A14.57,14.57,0,0,1,88.54,421.87Z"/><polyline class="cls-7" points="113.67 398.84 128.25 395.69 142.46 398.84 167.51 395.69 189.57 395.69 207.52 398.84 223.97 395.69 242.67 398.84"/><line class="cls-8" x1="229.17" y1="187.5" x2="242.67" y2="232"/><line class="cls-8" x1="251.17" y1="181" x2="251.17" y2="230"/><line class="cls-8" x1="264.17" y1="187.5" x2="278.67" y2="232"/><line class="cls-8" x1="251.17" y1="317" x2="251.17" y2="269"/><line class="cls-8" x1="273.67" y1="317" x2="260.67" y2="269"/><line class="cls-9" x1="178.92" y1="218.5" x2="178.92" y2="252.5"/><polyline class="cls-3" points="140.67 319 102.67 335.5 100.17 355"/><polyline class="cls-3" points="222.17 319 256.17 337 256.17 353"/><polygon class="cls-10" points="40.67 212 29.17 201 13.67 205.5 9.67 224.5 20.17 286 40.67 300 40.67 212"/><polygon class="cls-10" points="316.67 209.75 326.17 201 344.67 205.38 350.17 222.5 338.17 287 309.98 300 316.67 209.75"/><polyline class="cls-5" points="70.84 160.67 73.67 102 94.67 73.33"/><polyline class="cls-11" points="78.67 52.5 122.5 147.33 204.17 218.5"/><polyline class="cls-5" points="271.42 77.33 283.5 104 283.5 160.67"/><polygon class="cls-12" points="260.67 209.75 218.17 209.75 204.17 221.33 193.5 238.5 204.17 271.33 232.84 290 283.5 290 300.17 280 309.98 252.5 309.98 224.67 294.84 214.67 260.67 209.75"/><line class="cls-11" x1="290.86" y1="285.59" x2="308.11" y2="317"/><circle cx="109.79" cy="246" r="12.69"/><polyline class="cls-13" points="151.17 306.5 140.67 314.5 140.67 330 155.17 333.5 163.67 341 198.17 341 205.17 332 218.17 327 218.17 314 208.17 310"/><polygon points="103.38 436.43 256.17 436.43 211.1 460.5 140.67 460.5 103.38 436.43"/></g></g></svg>