<svg xmlns="http://www.w3.org/2000/svg" viewBox="0 0 106 84.98"><defs><style>.cls-1{fill:#050203;}.cls-2{fill:#c92c3a;}.cls-3,.cls-6{fill:none;}.cls-3{stroke:#cc4452;stroke-miterlimit:10;stroke-width:0.5px;}.cls-4{fill:#94a6b2;}.cls-5{fill:#f2444d;}.cls-7{fill:#000300;}.cls-8{fill:#4b5c63;}</style></defs><title>Asset 2</title><g id="Layer_2" data-name="Layer 2"><g id="Layer_1-2" data-name="Layer 1"><polygon class="cls-1" points="35 74.83 43.51 84.95 60.54 84.95 79 54.83 79 24.83 27 24.83 35 74.83"/><path class="cls-2" d="M73.26,27.8s7.9-9,12.42-6.77,2.26,6.77,2.26,6.77l-4,7.34s16.94-5.65,19.19-11.29a52,52,0,0,0,2.82-13s-4.52-9-9-9-26,7.9-26,7.9"/><path class="cls-2" d="M43.51,85S42,66.83,41,52.83c-6,0-12-10-11-20,6-2,22,5,22,5s17-8,22-6c0,7,2,15-12,21a295.68,295.68,0,0,1-2,32l17-29,2-31-52,1-1.77,12Z"/><path class="cls-2" d="M30.87,28.34s-7.45-9.22-11.71-6.92S17,28.34,17,28.34l3.73,7.49s-16-5.76-18.1-11.53A56.9,56.9,0,0,1,0,11S4.26,1.83,8.52,1.83,33,9.9,33,9.9"/><path class="cls-3" d="M28.46,13A21.55,21.55,0,0,0,16,9.9c-4.79.58-6.92,1.73-9.58,6.92s5.32,13.83,13.84,18.44"/><path class="cls-4" d="M31,50.83c3,4,6.55,5,7,5-.12,9.71,4.72,28,5.69,29.07-.77.36-1.18-.47-1.72-.83-.71-.53-1.42-1.07-2.07-1.66C33.45,77,28.54,70.16,24,63.11c0,.72-.4-37.17-.4-37.17C24.47,14,30.8,5.52,42.52,1.67c11.42-3.73,24-.59,31.13,7.81a27.64,27.64,0,0,1,6.57,18c.24,11.42-.06,22.85-.12,34.27a13,13,0,0,0-.41,1.36c-4.56,7-9.47,13.85-15.92,19.3-.65.59-1.36,1.12-2.07,1.66-.53.36-.95,1.18-1.72.83,1-1.07,6.14-18.36,6-28.07.45,0,4-3,6-6,7-12,6-19,4-23-5.39,1.24-18,5-24,10-4.26-3.26-21-10-24-10C24,33.83,27,43.83,31,50.83Z"/><path class="cls-2" d="M46,15.83s8,1,12,0l3,8-9,14-9-14Z"/><path class="cls-5" d="M61.1,41.84l2.69-1.26,3.06-1.45c-1.72,4.62-4.09,5.74-8.82,4.14Z"/><path class="cls-5" d="M40.9,41.84l-2.69-1.26-3.06-1.45c1.72,4.62,4.09,5.74,8.82,4.14Z"/><path class="cls-3" d="M75.82,12.81A24.24,24.24,0,0,1,89.06,9.73c5.08.56,7.34,1.69,10.16,6.77S93.58,30.05,84.55,34.57"/><path class="cls-6" d="M26,50.83"/><path class="cls-6" d="M72,50.83"/><path class="cls-7" d="M30.28,9.37s28.61,11.35,42.67-.59C68,1.83,46-7.17,30.28,9.37Z"/><path class="cls-8" d="M31.4,8.1S53,19.64,72,7.74c1,1.09,2.43,2.69,2.43,2.69s-16.92,12.9-45.67.65C29,10.83,31.4,8.1,31.4,8.1Z"/><path class="cls-8" d="M59,13.83s-1-2,2-3a1.39,1.39,0,0,0,0-2s3,1,2,3c1.56,1.78-1,3-1,3"/><path class="cls-8" d="M62.44,12A2.78,2.78,0,0,1,62,14.83"/><path class="cls-8" d="M66,11.83s-1-2,2-3a1.39,1.39,0,0,0,0-2s3,1,2,3c1.56,1.78-1,3-1,3"/><path class="cls-8" d="M53,14.83s-1-2,2-3a1.39,1.39,0,0,0,0-2s3,1,2,3c1.56,1.78-1,3-1,3"/><path class="cls-8" d="M46.34,13.83s1-2-2-3a1.39,1.39,0,0,1,0-2s-3,1-2,3c-1.56,1.78,1,3,1,3"/><path class="cls-8" d="M39.34,11.83s1-2-2-3a1.39,1.39,0,0,1,0-2s-3,1-2,3c-1.56,1.78,1,3,1,3"/><path class="cls-8" d="M52.34,14.83s1-2-2-3a1.39,1.39,0,0,1,0-2s-3,1-2,3c-1.56,1.78,1,3,1,3"/></g></g></svg>