<?xml version="1.0" encoding="UTF-8" standalone="no"?>
<!-- Created with Inkscape (http://www.inkscape.org/) -->

<svg
   xmlns:dc="http://purl.org/dc/elements/1.1/"
   xmlns:cc="http://creativecommons.org/ns#"
   xmlns:rdf="http://www.w3.org/1999/02/22-rdf-syntax-ns#"
   xmlns:svg="http://www.w3.org/2000/svg"
   xmlns="http://www.w3.org/2000/svg"
   xmlns:sodipodi="http://sodipodi.sourceforge.net/DTD/sodipodi-0.dtd"
   xmlns:inkscape="http://www.inkscape.org/namespaces/inkscape"
   width="98.266182mm"
   height="115.58842mm"
   viewBox="0 0 348.18726 409.56526"
   id="svg4156"
   version="1.1"
   inkscape:version="0.91 r13725"
   sodipodi:docname="Hufflepuff.svg">
  <defs
     id="defs4158" />
  <sodipodi:namedview
     id="base"
     pagecolor="#ffffff"
     bordercolor="#000000"
     borderopacity="0"
     inkscape:pageopacity="0.0"
     inkscape:pageshadow="2"
     inkscape:zoom="0.85722656"
     inkscape:cx="34.339478"
     inkscape:cy="163.13883"
     inkscape:document-units="px"
     inkscape:current-layer="layer1"
     showgrid="false"
     fit-margin-top="0"
     fit-margin-left="0"
     fit-margin-right="0"
     fit-margin-bottom="0"
     inkscape:window-width="1301"
     inkscape:window-height="744"
     inkscape:window-x="65"
     inkscape:window-y="24"
     inkscape:window-maximized="1" />
  <metadata
     id="metadata4161">
    <rdf:RDF>
      <cc:Work
         rdf:about="">
        <dc:format>image/svg+xml</dc:format>
        <dc:type
           rdf:resource="http://purl.org/dc/dcmitype/StillImage" />
        <dc:title></dc:title>
      </cc:Work>
    </rdf:RDF>
  </metadata>
  <g
     inkscape:label="Layer 1"
     inkscape:groupmode="layer"
     id="layer1"
     transform="translate(-188.42539,-425.92211)">
    <path
       inkscape:connector-curvature="0"
       style="fill:#fbbe1e;fill-opacity:1"
       d="m 536.61266,425.92211 -5.625,0.82227 c -8.8227,1.28874 -19.60158,4.67573 -32.55078,10.23046 -15.5936,6.68905 -23.04679,8.19514 -36.30859,7.33594 l -10.77735,-0.69726 -6.90625,7.09375 c -6.8084,6.99435 -17.68009,21.24324 -23.40429,30.67382 -2.7974,4.60877 -2.85974,5.20926 -1.36915,13.125 5.18011,27.50711 5.3939,29.40234 9.4629,83.91993 3.261,43.69046 3.18567,44.16833 -10.48243,67.14648 -4.1779,7.02366 -10.07677,17.71116 -13.10937,23.75 -5.4016,10.75656 -13.82043,32.75582 -12.89063,33.68555 0.2587,0.25875 1.90024,-1.65204 3.64844,-4.24414 3.5236,-5.22425 12.78713,-15.33789 14.04883,-15.33789 0.4438,0 0.50085,0.98438 0.12695,2.1875 -0.3739,1.20312 -1.01081,4.4375 -1.41601,7.1875 -0.4053,2.75 -1.23094,6.96875 -1.83594,9.375 -2.5023,9.95106 -5.26532,42.25317 -4.72852,55.28125 0.4943,11.99711 0.32989,13.47695 -1.41211,12.76367 -4.9071,-2.00927 -25.8161,-4.27725 -39.4707,-4.28125 -13.49,-0.004 -32.96967,2.19319 -38.26367,4.31445 -1.7975,0.72028 -2.02113,-1.24674 -2.07813,-18.32226 -0.0367,-10.93598 -0.94082,-25.02027 -2.11132,-32.88086 -1.126,-7.5625 -2.3352,-15.71875 -2.6875,-18.125 -0.3524,-2.40625 -1.16419,-6.34375 -1.80469,-8.75 -2.4801,-9.31636 -1.45781,-9.80083 5.27539,-2.5 3.4873,3.78125 7.396,8.5625 8.6875,10.625 3.0491,4.86956 2.97337,2.92133 -0.26953,-6.98047 -4.8115,-14.6914 -17.55993,-39.95177 -28.20313,-55.87891 -1.5106,-2.26055 -3.91233,-7.61076 -5.33593,-11.88867 -2.551,-7.66589 -2.56148,-8.2001 -0.70118,-37.13867 2.2917,-35.6497 4.00403,-56.29018 5.70313,-68.73828 1.2701,-9.30545 4.54915,-27.50884 5.65625,-31.4043 0.5109,-1.79727 -9.91417,-19.03444 -14.13477,-23.37109 -0.8841,-0.90847 -1.61781,-2.03347 -1.63281,-2.5 -0.0147,-0.46651 -3.57506,-4.73871 -7.91015,-9.49219 l -7.88086,-8.64258 -16.15429,-0.19336 c -17.1529,-0.20561 -21.51733,-1.29841 -39.04883,-9.7832 -6.5867,-3.18779 -25.44227,-8.42965 -29.82617,-8.29102 -1.2863,0.0407 0.1702,1.27639 3.3457,2.83594 24.76425,12.16242 38.2463,26.42603 39.6543,41.95312 1.4126,15.57813 -7.04391,44.89069 -23.75391,82.33985 l -6.2793,14.07617 8.3125,17.34766 c 9.22961,19.262 16.60373,37.21633 22.64063,55.125 3.3775,10.01974 3.91536,13.19556 3.44336,20.32226 -1.3358,20.17192 6.40252,31.42321 24.73242,35.95899 l 8.125,2.01172 0.36133,12.33398 c 0.23,7.86928 -0.33751,15.39792 -1.56641,20.80078 -2.2933,10.08318 -1.24985,20.15265 3.71875,35.88086 3.3801,10.70008 5.61133,13.90342 5.61133,8.05859 0,-3.88468 3.77859,-11.42383 8.99218,-17.94336 l 3.36523,-4.20898 1.44141,3.70508 c 0.7928,2.03807 3.38241,10.17383 5.75391,18.08008 3.5206,11.73795 4.16931,15.58194 3.53711,20.95312 -0.44491,3.77995 -0.16997,8.40497 0.64453,10.87305 1.8474,5.59784 14.41734,17.20508 23.71484,21.89844 l 7.2207,3.64648 3.69336,-5.24805 c 5.535,-7.86546 7.48754,-13.31715 5.27344,-14.71875 -0.9691,-0.61348 -2.72494,-1.12476 -3.90234,-1.13476 -4.3152,-0.0386 -15.65535,-5.13711 -18.58985,-8.35742 -2.6979,-2.96071 -2.75413,-3.21467 -0.51953,-2.4043 9.1183,3.30679 21.17271,5.74219 28.41211,5.74219 8.4431,0 9.85489,0.82061 6.90039,4.00781 -4.8348,5.21543 -12.1875,18.18264 -12.1875,21.49414 0,1.1462 2.0232,2.3341 5.3125,3.11719 6.8876,1.63977 30.75784,1.01198 34.30664,-0.90235 2.4641,-1.32916 2.60352,-1.89511 1.35742,-5.53515 -0.7634,-2.23012 -4.1255,-8.13477 -7.4707,-13.11914 l -6.08203,-9.0625 8.72656,0 c 8.8975,0 18.26431,-1.90098 26.66211,-5.41211 2.5781,-1.07791 4.6875,-1.446 4.6875,-0.81836 0,2.21367 -9.4779,7.59362 -17.9375,10.18164 -8.2005,2.50875 -8.53291,2.76301 -7.88281,6.01367 0.3734,1.86665 2.46885,6.27217 4.65625,9.79102 l 3.97851,6.39843 4.37305,-1.82812 c 6.0019,-2.50775 19.32077,-12.16017 23.29297,-16.88086 4.1386,-4.91825 5.0195,-8.48635 4.1582,-16.83203 -0.4747,-4.59909 0.0148,-8.92406 1.57813,-13.95117 1.2462,-4.00721 3.78046,-12.25265 5.63086,-18.32227 3.2892,-10.78933 3.41843,-10.98627 5.79883,-8.83203 3.6204,3.27635 7.6161,10.21507 9.8789,17.15625 l 2.00586,6.15625 2.70117,-7.06055 c 3.8387,-10.03111 6.85027,-26.0459 6.20117,-32.97461 -0.30449,-3.25049 -1.28022,-10.13316 -2.16992,-15.29687 -1.0182,-5.90875 -1.28921,-12.4735 -0.72851,-17.70899 l 0.89258,-8.31836 5.86718,-0.80664 c 8.1503,-1.12095 17.57354,-6.56726 21.68165,-12.52929 4.0592,-5.89095 6.18115,-17.23184 4.84375,-25.89453 -0.8117,-5.25791 -0.13645,-8.02563 6.25585,-25.625 7.8166,-21.5209 14.10455,-36.29504 22.90235,-53.8125 l 5.69922,-11.34766 -4.4336,-9.78516 c -7.2296,-15.95718 -7.48399,-16.57606 -14.12109,-34.37304 -6.3695,-17.07961 -10.45152,-32.16854 -12.01172,-44.40625 -1.2098,-9.48971 1.72539,-18.11249 9.36719,-27.51954 6.8161,-8.39058 13.22518,-13.31403 26.89648,-20.66211 l 8.75,-4.70312 z m -263.12499,225.3418 c 0.83879,0 1.67755,0.47544 3.125,1.42382 3.9139,2.56454 4.32353,8.75985 0.70703,10.69532 -3.3913,1.81496 -5.83359,1.61362 -8.11718,-0.66992 -2.97591,-2.97598 -2.43295,-7.67111 1.16015,-10.0254 1.4474,-0.94838 2.28621,-1.42382 3.125,-1.42382 z m 176.3203,0.36914 c 0.91731,0.0155 1.88843,0.241 2.87696,0.6914 3.9024,1.77802 5.01572,5.83607 2.60742,9.51172 -3.766,5.7477 -12.9953,1.5077 -11.3125,-5.19726 0.80865,-3.22172 3.07622,-5.05246 5.82812,-5.00586 z m -88.19531,124.07031 c 13.0625,0 25.4375,0.56428 27.5,1.25391 2.7068,0.90507 -4.9434,1.2539 -27.5,1.2539 -22.5567,0 -30.2068,-0.34883 -27.5,-1.2539 2.0625,-0.68963 14.4375,-1.25391 27.5,-1.25391 z"
       id="path4181" />
  </g>
</svg>
