<?xml version="1.0" encoding="UTF-8" standalone="no"?>
<!-- Created with Inkscape (http://www.inkscape.org/) -->

<svg
   xmlns:dc="http://purl.org/dc/elements/1.1/"
   xmlns:cc="http://creativecommons.org/ns#"
   xmlns:rdf="http://www.w3.org/1999/02/22-rdf-syntax-ns#"
   xmlns:svg="http://www.w3.org/2000/svg"
   xmlns="http://www.w3.org/2000/svg"
   xmlns:sodipodi="http://sodipodi.sourceforge.net/DTD/sodipodi-0.dtd"
   xmlns:inkscape="http://www.inkscape.org/namespaces/inkscape"
   width="132.50009mm"
   height="100.45786mm"
   viewBox="0 0 469.48851 355.95303"
   id="svg4156"
   version="1.1"
   inkscape:version="0.91 r13725"
   sodipodi:docname="Ravenclaw.svg">
  <defs
     id="defs4158" />
  <sodipodi:namedview
     id="base"
     pagecolor="#ffffff"
     bordercolor="#000000"
     borderopacity="0"
     inkscape:pageopacity="0.0"
     inkscape:pageshadow="2"
     inkscape:zoom="0.85722656"
     inkscape:cx="155.92811"
     inkscape:cy="177.79796"
     inkscape:document-units="px"
     inkscape:current-layer="layer1"
     showgrid="false"
     fit-margin-top="0"
     fit-margin-left="0"
     fit-margin-right="0"
     fit-margin-bottom="0"
     inkscape:window-width="1301"
     inkscape:window-height="744"
     inkscape:window-x="65"
     inkscape:window-y="24"
     inkscape:window-maximized="1" />
  <metadata
     id="metadata4161">
    <rdf:RDF>
      <cc:Work
         rdf:about="">
        <dc:format>image/svg+xml</dc:format>
        <dc:type
           rdf:resource="http://purl.org/dc/dcmitype/StillImage" />
        <dc:title></dc:title>
      </cc:Work>
    </rdf:RDF>
  </metadata>
  <g
     inkscape:label="Layer 1"
     inkscape:groupmode="layer"
     id="layer1"
     transform="translate(-66.836756,-494.19347)">
    <path
       inkscape:connector-curvature="0"
       id="path4748-2"
       style="opacity:1;fill:#47589c;fill-opacity:1;stroke:#47589c;stroke-opacity:1"
       d="m 222.97559,585.93355 c 3.3594,-4.4687 12.0754,-14.0312 19.3688,-21.25 14.541,-14.392 18.0827,-17.5 19.9419,-17.5 0.6797,0 1.2358,-0.4943 1.2358,-1.0984 0,-0.6041 1.6875,-1.7972 3.75,-2.6516 2.0625,-0.8544 3.75,-1.9526 3.75,-2.4406 0,-1.5694 15.0244,-7.6488 22.1656,-8.9689 3.8054,-0.7035 9.7968,-0.9131 13.3142,-0.4657 6.9566,0.8846 20.7702,5.6607 20.7702,7.1813 0,0.5191 0.6017,0.9439 1.3372,0.9439 3.6576,0 23.4676,15.7366 33.6409,26.7235 3.1058,3.3541 7.4271,7.9281 9.6029,10.1644 2.1758,2.2362 6.5352,7.5694 9.6875,11.8515 7.9357,10.7798 7.1732,8.0247 -1.456,-5.2613 -15.1887,-23.3852 -40.0125,-50.3562 -44.0504,-47.8606 -0.6855,0.4236 -0.9267,-0.038 -0.5429,-1.0374 0.4474,-1.1657 -0.6585,-2.397 -3.1393,-3.4951 -2.1065,-0.9324 -3.8299,-2.1205 -3.8299,-2.6401 0,-0.5198 -0.8116,-0.9449 -1.8036,-0.9449 -0.9919,0 -3.6638,-1.0438 -5.9375,-2.3194 -7.5059,-4.2111 -17.3553,-5.7265 -26.2367,-4.0366 -7.8278,1.4894 -24.7714,8.6155 -24.7719,10.4185 -2e-4,0.5156 -0.5778,0.9375 -1.2837,0.9375 -2.3934,0 -19.3976,16.156 -28.9436,27.5 -5.7676,6.8539 -16.5899,22.3846 -22.2114,31.875 -3.7399,6.3137 -2.1161,4.6947 5.6419,-5.625 z m 290.4997,16.1163 c 3.495,-4.8248 7.7403,-12.995 13.6024,-26.1785 3.4595,-7.7804 7.4882,-23.6054 8.4842,-33.3269 1.3251,-12.9339 -2.4703,-30.2731 -9.3231,-42.5924 -3.3407,-6.0055 -2.6227,-6.168 -12.6185,2.8565 -10.0336,9.0587 -17.4601,17.4144 -20.6365,23.2186 -6.3941,11.684 -8.8923,30.028 -5.2644,38.6561 l 1.6973,4.0368 0.8648,-7.6433 c 0.4756,-4.2037 1.3012,-7.6432 1.8347,-7.6432 0.5336,0 2.2912,1.4062 3.9059,3.125 3.4634,3.6866 8.7383,4.091 11.6335,0.8917 7.5918,-8.3888 7.8775,-25.8985 0.5501,-33.7205 -2.7914,-2.9797 -3.9451,-7.9013 -1.6532,-7.0525 0.7395,0.2739 4.1571,-2.0162 7.5946,-5.0891 3.4375,-3.0728 6.5938,-5.6022 7.014,-5.6208 1.8709,-0.083 6.4637,15.1778 7.048,23.4187 0.789,11.1269 -1.9045,23.4654 -7.857,35.9929 -4.0311,8.4836 -4.4918,8.9546 -12.0649,12.3336 -6.5313,2.914 -9.0474,3.405 -14.757,2.8794 -7.8098,-0.7189 -19.0622,-5.4458 -27.8469,-11.6977 l -5.9638,-4.2443 3.354,5.3293 c 10.2132,16.228 23.0029,30.315 31.3683,34.5498 2.5879,1.3101 7.0924,2.4434 10.0099,2.5182 4.8385,0.1238 5.6315,-0.3148 9.0236,-4.9975 z m -407.8545,3.6326 c 2.2832,-0.8256 4.1513,-1.9507 4.1513,-2.5 0,-0.5494 0.7193,-0.9989 1.5986,-0.9989 2.6293,0 16.2996,-14.8895 23.9207,-26.054 3.9154,-5.736 6.3847,-9.9942 5.4873,-9.463 -0.8974,0.5312 -3.8816,2.392 -6.6316,4.1349 -9.2157,5.8407 -17.3827,9.0236 -24.9701,9.7312 -6.4013,0.597 -8.6541,0.2003 -15.029896,-2.6466 -7.0559,-3.1505 -7.7375,-3.8441 -11.5106,-11.7131 -9.4048,-19.6143 -10.7837,-39.0053 -3.9157,-55.0653 l 2.331,-5.4508 5.9226,4.8239 c 3.2575,2.6532 7.1708,5.8954 8.6962,7.2049 l 2.7735,2.381 -3.7327,3.8179 c -6.9319,7.0901 -7.7282,18.4961 -2.0738,29.7041 3.4839,6.906 7.749496,7.8294 14.031796,3.0377 l 4.2453,-3.2382 1.591,7.703 c 1.2775,6.1853 1.7562,7.1134 2.4291,4.7103 1.507,-5.3819 1.0963,-21.5973 -0.7198,-28.4206 -3.2226,-12.1073 -12.4584,-24.6656 -26.344596,-35.8223 -3.4229,-2.75 -6.4108,-5.4219 -6.64,-5.9375 -1.032,-2.3221 -2.794,-0.3726 -6.2136,6.875 -11.8489,25.1124 -10.0092,52.7666 5.592,84.0625 5.832,11.6991 9.7806,18.2059 11.8396,19.5104 2.4238,1.5357 8.336196,1.3622 13.172396,-0.3865 z m 201.6343,235.5636 c 2.2718,-4.6406 4.1893,-9.9291 4.2612,-11.7521 0.072,-1.823 0.4333,-3.1293 0.803,-2.9026 0.7138,0.4373 1.4398,-1.1729 6.7777,-15.0328 3.1537,-8.1885 6.4446,-14.2154 14.3046,-26.1974 9.1143,-13.8941 24.9427,-28.8712 48.8932,-46.2638 11.3312,-8.2287 20.8835,-15.3009 21.2273,-15.7162 0.3437,-0.4152 1.75,-1.2013 3.125,-1.7468 1.7673,-0.7012 2.0059,-1.1749 0.8142,-1.6166 -0.9272,-0.3436 -3.1772,0.079 -5,0.9378 -4.577,2.1579 -7.6777,3.4482 -12.0642,5.0207 -4.2276,1.5155 -20.3748,10.9424 -22.9018,13.3703 -0.9085,0.8729 -2.0335,1.596 -2.5,1.607 -0.4665,0.013 -2.817,1.7665 -5.2232,3.9011 -2.4063,2.1348 -6.3438,5.3583 -8.75,7.1635 -2.4063,1.8053 -5.8663,4.831 -7.6891,6.7239 -1.8227,1.8929 -3.7278,3.4415 -4.2336,3.4415 -1.989,0 0.5279,-16.1023 3.8101,-24.375 5.7459,-14.4825 14.7683,-26.1544 31.9469,-41.3281 5.8063,-5.1286 22.5262,-16.3949 31.7907,-21.4211 4.125,-2.2379 7.2187,-4.1218 6.875,-4.1864 -0.3438,-0.065 -7.9547,-0.5654 -16.9132,-1.113 -12.5555,-0.7675 -17.4252,-1.5821 -21.25,-3.5551 -10.4839,-5.4079 -17.3534,-16.218 -20.5592,-32.3525 -0.797,-4.0117 -1.9731,-9.3278 -2.6134,-11.8138 -0.6403,-2.486 -1.1642,-6.077 -1.1642,-7.98 0,-1.903 -0.5294,-5.494 -1.1765,-7.98 -0.647,-2.486 -1.7889,-11.27 -2.5374,-19.52 -1.9529,-21.5242 -3.0342,-25.2967 -8.8311,-30.8112 -2.7055,-2.5737 -7.0365,-5.6647 -9.6246,-6.8689 -2.588,-1.2044 -4.9867,-2.557 -5.3304,-3.006 -2.2415,-2.9276 -27.5957,-4.6203 -36.1787,-2.4154 -8.0552,2.0694 -16.1094,6.205 -20.9335,10.7491 -2.2758,2.1436 -4.1603,3.5499 -4.1877,3.125 -0.027,-0.425 -1.0821,1.2928 -2.3439,3.8171 -1.2617,2.5245 -2.6571,8.4308 -3.1007,13.125 -3.0707,32.4916 -8.2153,62.6717 -12.2154,71.6603 -5.6204,12.6297 -8.2501,15.6137 -18.0967,20.5354 -5.6557,2.8269 -7.9929,3.2166 -19.375,3.2317 -7.1189,0.013 -14.1952,0.3525 -15.725,0.7626 -2.4151,0.6474 -1.9209,1.1697 3.75,3.9625 3.5923,1.7693 6.8128,3.5363 7.1566,3.9268 0.3437,0.3905 2.059,1.4469 3.8118,2.3475 11.4145,5.8655 37.1667,28.9697 44.556,39.9746 5.9016,8.7894 10.3557,17.6598 10.3707,20.6535 0.01,1.2484 0.5244,3.2281 1.1513,4.3995 0.6269,1.1714 1.4549,5.6709 1.84,9.9989 l 0.7001,7.869 -9.0275,-7.9381 c -15.0944,-13.273 -37.1422,-28.4739 -41.2995,-28.4739 -0.8816,0 -2.1373,-0.497 -2.7904,-1.1044 -1.8469,-1.7177 -16.9098,-6.715 -17.7396,-5.8852 -0.4068,0.4067 -0.1236,0.7396 0.6294,0.7396 0.753,0 2.1124,0.7237 3.0209,1.6084 0.9085,0.8846 5.308,4.119 9.7768,7.1875 4.4687,3.0685 8.4062,5.8975 8.75,6.2866 0.3437,0.3891 3.4375,2.6046 6.875,4.9234 15.0997,10.1855 28.1205,21.7467 38.0042,33.7441 1.4159,1.7188 3.1563,3.8139 3.8674,4.656 0.7111,0.842 3.798,5.1144 6.8598,9.4943 6.0733,8.6879 8.5112,13.8034 15.6095,32.7543 4.7181,12.5962 10.5251,25.6698 12.1026,27.2473 2.1219,2.1219 4.0791,0.245 7.9145,-7.5894 z" />
  </g>
</svg>
