<?xml version="1.0" encoding="UTF-8" standalone="no"?>
<!-- Created with Inkscape (http://www.inkscape.org/) -->

<svg
   xmlns:dc="http://purl.org/dc/elements/1.1/"
   xmlns:cc="http://creativecommons.org/ns#"
   xmlns:rdf="http://www.w3.org/1999/02/22-rdf-syntax-ns#"
   xmlns:svg="http://www.w3.org/2000/svg"
   xmlns="http://www.w3.org/2000/svg"
   xmlns:sodipodi="http://sodipodi.sourceforge.net/DTD/sodipodi-0.dtd"
   xmlns:inkscape="http://www.inkscape.org/namespaces/inkscape"
   width="132.715mm"
   height="79.660576mm"
   viewBox="0 0 470.24998 282.26186"
   id="svg4156"
   version="1.1"
   inkscape:version="0.91 r13725"
   sodipodi:docname="Slytherin.svg">
  <defs
     id="defs4158" />
  <sodipodi:namedview
     id="base"
     pagecolor="#ffffff"
     bordercolor="#000000"
     borderopacity="0"
     inkscape:pageopacity="0.0"
     inkscape:pageshadow="2"
     inkscape:zoom="0.85722656"
     inkscape:cx="305.89476"
     inkscape:cy="171.94325"
     inkscape:document-units="px"
     inkscape:current-layer="layer1"
     showgrid="false"
     fit-margin-top="0"
     fit-margin-left="0"
     fit-margin-right="0"
     fit-margin-bottom="0"
     inkscape:window-width="1301"
     inkscape:window-height="744"
     inkscape:window-x="65"
     inkscape:window-y="24"
     inkscape:window-maximized="1" />
  <metadata
     id="metadata4161">
    <rdf:RDF>
      <cc:Work
         rdf:about="">
        <dc:format>image/svg+xml</dc:format>
        <dc:type
           rdf:resource="http://purl.org/dc/dcmitype/StillImage" />
        <dc:title></dc:title>
      </cc:Work>
    </rdf:RDF>
  </metadata>
  <g
     inkscape:label="Layer 1"
     inkscape:groupmode="layer"
     id="layer1"
     transform="translate(83.129876,-562.02994)">
    <path
       inkscape:connector-curvature="0"
       id="path4754"
       style="fill:#345d36;fill-opacity:0.81960784;stroke:#345d36;stroke-opacity:0"
       d="m 288.67538,626.2022 c -0.1377,-8.66229 6.0474,-15.81369 17.4447,-20.17079 3.0938,-1.1826 10.2813,-4.6539 15.9724,-7.7137 8.397,-4.5148 10.8098,-5.316 12.8003,-4.2508 4.8872,2.6156 16.22729,20.2422 16.22729,25.223 0,0.8498 -15.03899,-16.6852 -18.24349,-21.2714 -0.158,-0.2261 -6.7873,2.7982 -14.7317,6.7207 -15.9214,7.8612 -23.3545,13.471 -27.0054,20.38119 -2.387,4.5179 -2.4094,4.5278 -2.4642,1.0818 z m -274.173872,1.3901 c -1.689,-6.4138 -11.6871897,-14.56249 -27.52269,-22.43139 -8.2541,-4.1015 -15.4173,-7.0127 -15.9182,-6.4692 -0.5008,0.5435 -4.6299,5.3998 -9.1756,10.7918 -4.5457,5.3922 -8.2649,9.1829 -8.2649,8.4239 0,-2.8215 5.2838,-12.4842 9.556,-17.4753 7.0554,-8.2427 8.0281,-8.413 17.0327,-2.9825 4.3139,2.6016 11.9860003,6.3976 17.0491003,8.4356 5.0631,2.0379 10.8021,5.3018 12.7533897,7.2531 3.5773,3.5774 6.6322,11.82789 5.8124,15.69809 -0.3055,1.4425 -0.7166,1.0556 -1.3222,-1.2441 z M 261.71158,651.218 c -2.45159,-2.1087 -3.91059,-5.3968 -5.68499,-12.8125 -3.9339,-16.4403 -2.9436,-25.08349 3.5468,-30.95719 2.38159,-2.1553 2.50249,-2.1156 3.82409,1.2529 1.8184,4.6349 3.9726,17.15209 3.9726,23.08319 0,7.8772 2.0395,5.3954 3.7411,-4.5526 1.7248,-10.08319 0.9876,-20.15859 -1.8808,-25.70549 -1.6061,-3.1059 -1.5157,-3.6094 1.087,-6.0545 4.0173,-3.7741 5.2389,-3.3766 8.1307,2.6455 5.0397,10.4949 6.6543,31.74239 3.2764,43.11679 -3.3844,11.3968 -12.8694,16.1286 -20.0129,9.984 z M 26.961108,649.1294 c -5.5349,-6.1265 -6.3323,-10.2285 -5.5729,-28.66659 0.8744,-21.2321 6.1431,-31.9815 12.3893,-25.277 2.4389,2.6179 2.4509,2.8766 0.3848,8.2867 -1.6637,4.3563 -1.9987,8.1477 -1.5232,17.2375 0.7823,14.95749 2.8852,19.58399 4.0495,8.90979 1.1196,-10.26329 4.4705,-24.31499 5.7984,-24.31499 0.6037,0 2.6524,2.3539 4.5528,5.2307 4.1347,6.2595 4.3456,14.24579 0.7761,29.38679 -1.9062,8.0856 -2.8039,9.844 -6.0302,11.8115 -5.9935,3.655 -9.7688,2.9917 -14.8246,-2.6044 z m 256.564672,35.4263 c -0.976,-3.3693 -1.776,-11.0263 -1.7776,-17.0157 0,-12.8516 1.5267,-15.3925 9.1503,-15.1926 5.4791,0.1436 15.8184,4.4079 19.8336,8.18 l 2.7681,2.6005 3.819,-3.2135 c 4.1106,-3.4589 23.0996,-13.3596 25.6228,-13.3596 0.8428,0 2.17849,-2.1094 2.96819,-4.6875 1.9153,-6.2524 9.374,-15.4142 17.5504,-21.55789 10.0794,-7.5735 12.4731,-6.6196 14.5539,5.79939 l 0.8077,4.821 -2.0472,-3.75 c -3.7991,-6.95899 -4.685,-7.27549 -9.6729,-3.4567 -2.4834,1.9012 -6.0583,5.3301 -7.9443,7.6198 -3.6423,4.4218 -8.0377,18.0409 -8.0377,24.9044 l 0,4.1218 -3.9606,-2.0482 c -7.36209,-3.8071 -21.01579,0.2634 -27.75719,8.275 -1.8052,2.1454 -3.2822,4.7734 -3.2822,5.84 0,1.465 -0.9935,1.1224 -4.0625,-1.4009 -4.4316,-3.6437 -14.6469,-8.7681 -19.8337,-9.9493 l -3.2713,-0.745 -0.6469,12.1695 c -0.3558,6.6932 -1.1775,13.52 -1.826,15.1705 -1.0962,2.78979 -1.304,2.57009 -2.9538,-3.125 z M 16.550308,683.1342 c -0.5522,-3.9624 -0.8968,-10.7599 -0.7659,-15.1055 l 0.2381,-7.9012 -4.0137,0.8467 c -5.7254897,1.2076 -15.9314897,6.4562 -19.9086897,10.2384 l -3.3951003,3.2285 -1.1835,-3.113 c -1.8979,-4.9918 -8.3692,-10.6069 -14.7167,-12.7698 -7.2837,-2.4817 -10.8063,-2.522 -15.3445,-0.1751 l -3.5356,1.8282 -0.8217,-5.2657 c -2.2451,-14.3874 -4.745798,-20.0511 -12.121397,-27.4534 -3.938799,-3.9531 -7.758299,-7.18749 -8.487599,-7.18749 -0.7293,0 -2.7409,2.67189 -4.470199,5.93749 -2.5605,4.8351 -3.0058,5.2413 -2.3986,2.1875 2.9496,-14.83559 3.843999,-15.48859 13.062598,-9.53749 8.897699,5.74399 19.932297,19.17859 19.932297,24.26769 0,1.4237 1.4605,2.784 3.9034,3.6356 6.0899,2.1229 17.5044,8.3798 22.5939,12.3848 l 4.6223,3.6375 4.7527003,-3.2567 c 12.1087,-8.2973 25.1674897,-9.5762 27.3564897,-2.6791 2.1225,6.6872 -0.3135,30.99599 -3.2905,32.83579 -0.5523,0.3414 -1.456,-2.62129 -2.0081,-6.58369 z m 59.2313,55.50579 c -0.5014,-1.2593 -0.9115,-9.191 -0.9115,-17.626 0,-14.6357 -1.4305,-23.2092 -3.8723,-23.2092 -0.6203,0 -1.1277,1.1331 -1.1277,2.5181 0,1.3849 -1.9831,7.4318 -4.4069,13.4375 -2.4238,6.0056 -4.7581,13.1063 -5.1873,15.7792 l -0.7805,4.8597 -1.7599,-3.359 c -2.6062,-4.974 -2.3138,-13.6936 0.8923,-26.6069 2.536,-10.2147 2.6766,-12.1307 1.2608,-17.18749 -0.8764,-3.1301 -1.9422,-5.6892 -2.3685,-5.6871 -0.4263,0 -3.2799,7.28199 -6.3414,16.17699 l -5.5663,16.173 -5.6188,-7.3544 -5.6187,-7.3543 -2.6239,4.3476 c -5.607,9.2905 -5.9635,-2.2743 -0.6167,-20.00889 4.2701,-14.1635 4.603,-18.902 1.6347,-23.2684 l -2.1011,-3.0906 2.719,2.3749 c 1.4955,1.3062 3.2816,4.4 3.9692,6.875 1.6519,5.947 1.608,18.3965 -0.076,21.54309 -1.1013,2.0577 -0.7827,3.0201 1.7884,5.403 l 3.1285,2.8993 2.5254,-2.6882 c 1.389,-1.4786 3.7924,-5.4937 5.3408,-8.92269 3.3954,-7.5186 3.6487,-20.7618 0.5587,-29.204 -1.1011,-3.0084 -2.0019,-5.6803 -2.0019,-5.9375 0,-1.5077 4.1171,-0.031 7.1178,2.5515 3.2419,2.791 3.5098,3.7127 3.5416,12.1875 0.032,8.5347 0.3664,9.6622 4.8408,16.3201 2.6436,3.9335 5.8278,7.47599 7.0761,7.87229 3.7015,1.1747 9.6978,8.9156 11.3427,14.6424 0.8425,2.9333 1.6253,5.4813 1.7395,5.6622 0.1142,0.1809 2.372,-0.5754 5.0174,-1.6808 4.48989,-1.876 4.91589,-1.8642 6.40749,0.1755 1.5085,2.063 1.6427,2.0523 2.4016,-0.1942 2.259502,-6.6879 8.011802,-17.8475 11.053802,-21.44449 5.0067,-5.9203 21.1171,-16.0752 30.407,-19.1667 11.6087,-3.8631 19.3959,-3.0071 33.1337,3.6424 15.26669,7.3895 24.65719,16.4809 30.10739,29.14849 3.1075,7.2223 4.3977,9.1075 5.278,7.7119 1.0252,-1.6254 1.8022,-1.6278 6.4671,-0.02 l 5.3018,1.8266 1.2544,-4.6584 c 1.65,-6.1276 8.0072,-14.7913 11.5628,-15.7578 1.5982,-0.4344 4.8585,-3.91139 7.5114,-8.01069 4.2395,-6.5507 4.6914,-8.0631 4.7273,-15.8216 0.041,-8.8774 1.1329,-11.5052 5.8156,-13.9994 4.6542,-2.4788 5.0864,-1.674 2.7434,5.1084 -3.6258,10.4953 -3.1083,21.5183 1.4373,30.6146 5.0898,10.18589 6.74489,11.46429 9.91319,7.65769 1.9144,-2.3003 2.2682,-3.9347 1.5877,-7.33479 -1.949,-9.7373 0.2475,-24.3126 4.1522,-27.5532 1.5185,-1.2603 1.4982,-0.7538 -0.1256,3.1326 -2.0833,4.9859 -2.2894,3.7424 5.1698,31.19019 1.3928,5.1253 1.6731,8.5678 0.9131,11.2175 l -1.0964,3.823 -2.8973,-4.6878 -2.8972,-4.6879 -4.9466,6.9079 c -2.7206,3.7992 -5.35849,6.9077 -5.86189,6.9077 -0.5035,0 -2.7977,-5.7656 -5.0983,-12.8125 -2.3006,-7.0469 -4.7126,-14.21869 -5.36,-15.93749 l -1.1771,-3.125 -1.7365,3.125 c -2.4714,4.44729 -2.2219,12.99579 0.6748,23.12499 2.8176,9.8524 3.0398,16.7289 0.7459,23.0807 l -1.564,4.3306 -1.4173,-5.5806 c -0.7796,-3.0694 -3.628,-11.4238 -6.3299,-18.5653 -4.6979,-12.4176 -4.9866,-12.8543 -6.6111,-10 -1.1413,2.0054 -1.7299,7.7009 -1.7941,17.3596 -0.053,7.9063 -0.2303,16.3438 -0.3948,18.75 -0.2862,4.1849 -0.3783,4.0806 -2.1202,-2.3982 -1.0016,-3.7254 -2.8983,-8.5163 -4.2148,-10.6464 -2.841,-4.5969 -8.7476,-10.3796 -8.9228,-8.7358 -0.068,0.6356 -0.2452,2.2804 -0.3943,3.6554 -0.1491,1.375 -0.3749,4.0038 -0.5018,5.8416 -0.1269,1.8379 -1.7776,5.184 -3.6683,7.436 l -3.4375,4.0944 -0.7285,-10.561 c -0.5854,-8.4867 -1.5279,-12.1671 -4.7986,-18.7386 -2.2385,-4.4978 -5.0979,-9.5404 -6.3542,-11.2059 l -2.2842,-3.0281 -4.5903,9.6707 c -3.6471,7.6837 -5.9061,10.6742 -10.99389,14.5538 -3.522,2.6857 -6.8264,4.6217 -7.3431,4.3025 -0.5168,-0.3194 -1.4908,-2.577 -2.1645,-5.0169 -1.5106,-5.471 -0.3412,-8.8197 5.2712,-15.0956 2.3377,-2.6141 4.8941,-5.9815 5.68079,-7.4832 1.9297,-3.6834 1.8051,-9.40439 -0.2666,-12.23749 -1.57949,-2.1602 -2.08289,-2.1937 -7.27729,-0.4837 l -5.5803,1.8372 0.09,-5.0053 c 0.087,-4.8624 -0.083,-5.07 -5.9554,-7.2732 -4.9576,-1.8599 -6.8707,-2.0207 -10.6331,-0.8934 -7.9382,2.3784 -9.5783,4.2201 -8.0865,9.0807 l 1.2903,4.2043 -6.2282,-1.8258 c -7.4405,-2.1811 -8.3798,-1.375 -8.3921,7.202 -0.01,4.94709 0.7439,6.50339 6.2309,12.91379 6.3626,7.4331 7.2814,10.4313 5.0198,16.3799 -1.7064,4.4882 -3.8422,4.0319 -10.9219,-2.3333 -4.4126,-3.9673 -7.1736,-7.9213 -9.7276,-13.9305 l -3.5661,-8.3909 -2.424,2.993 c -1.3332,1.6461 -4.3292,6.7759 -6.6577,11.3993 -3.1993,6.3526 -4.237802,10.0172 -4.250702,15 -0.02,7.5705 -1.0266,12.2187 -2.6471,12.2187 -2.5042,0 -6.07659,-8.278 -6.08119,-14.0914 l 0,-5.9662 -2.9378,1.925 c -3.8733,2.5379 -9.9019,13.7206 -10.786,20.0076 -0.5266,3.7449 -0.9319,4.4253 -1.6146,2.7103 z m 8.6631,25.3553 c -9.5674,-1.6059 -23.1705,-6.0169 -32.9695,-10.691 -16.5234,-7.8816 -30.3551,-24.157 -30.3551,-35.7179 l 0,-4.1232 4.2337,6.2332 c 3.704,5.4535 27.0543,29.3584 28.6772,29.3584 0.3328,0 0.301,-1.2656 -0.071,-2.8125 -0.5626,-2.3425 0.2401,-1.9491 4.8045,2.3547 3.0141,2.842 7.7301,6.1709 10.4801,7.3977 2.75,1.2267 5.5105,2.5051 6.1344,2.8407 0.6239,0.3356 0.8509,-0.4739 0.5044,-1.7991 -0.5953,-2.2761 -0.3049,-2.2484 5.2521,0.5017 3.2352,1.6012 9.1958,3.2377 13.24569,3.6369 l 7.363402,0.7258 -2.812502,-3.066 c -3.0004,-3.2709 -3.8531,-5.9033 -1.25,-3.8589 3.469002,2.7245 10.219902,2.7785 21.407102,0.1711 17.5195,-4.0832 21.4479,-6.5317 26.8558,-16.7387 2.5023,-4.7229 5.2265,-8.7975 6.0537,-9.0549 0.8376,-0.2605 3.4719,3.4395 5.9444,8.3492 3.8325,7.6103 5.252,9.22 10.3709,11.7604 11.86149,5.8869 27.93519,8.8978 35.80889,6.7078 l 3.6282,-1.0093 -2.2206,3.3891 -2.2207,3.3892 6.6715,-0.7902 c 3.6692,-0.4345 9.364,-2.1226 12.6549,-3.7512 5.6121,-2.7774 5.9835,-2.8166 5.9835,-0.6313 0,2.1743 0.3964,2.1273 5.9375,-0.7046 3.2656,-1.6689 7.9062,-5.0847 10.3125,-7.5909 3.9861,-4.1515 4.4305,-4.3322 5,-2.034 0.5309,2.1427 2.5162,0.6949 13.18849,-9.6177 6.9099,-6.677 14.4303,-14.9525 16.712,-18.39 l 4.1485,-6.25 -0.8308,5.5719 c -2.8932,19.4048 -22.0734,35.5356 -51.68849,43.4704 -10.2106,2.7357 -14.9539,3.2727 -29.6548,3.3572 -23.5392,0.1352 -27.52759,-1.2592 -40.63239,-14.2065 l -9.7695,-9.652 -4.3025,5.763 c -6.1354,8.2181 -16.7408,15.1426 -26.2415,17.1335 -8.5368,1.789 -26.815502,1.979 -36.354392,0.378 z m 25.558192,61.06409 c -2.8362,-19.1396 -6.3828,-48.6261 -6.3828,-53.0671 0,-2.31409 0.944,-2.83109 6.5625,-3.59439 13.1927,-1.7921 34.2887,-9.9692 38.3528,-14.8661 2.2658,-2.7301 2.9769,-2.5696 10.4164,2.3501 8.5169,5.6324 20.42159,10.0215 32.40299,11.9466 l 9.6098,1.5442 -0.6572,6.40359 c -1.4108,13.7475 -5.5285,45.7068 -7.2603,56.3519 -1.0021,6.1591 -1.6251,11.3952 -1.3845,11.6358 0.7712,0.7712 9.0274,-13.6508 16.2506,-28.3865 3.8558,-7.8662 9.0214,-20.8037 11.479,-28.75 6.2736,-20.28429 5.7733,-19.39309 11.905,-21.21169 9.7988,-2.9064 32.27859,-15.2439 40.38619,-22.165 10.9312,-9.3316 16.0868,-17.4012 21.1551,-33.1129 2.3583,-7.3105 4.8993,-14.4346 5.6468,-15.8312 0.8434,-1.576 4.5653,-3.5933 9.8095,-5.3166 11.5855,-3.80749 30.0517,-11.17419 42.95359,-17.13519 19.2701,-8.9033 35.3717,-24.2117 35.3717,-33.6291 0,-3.6025 -16.8751,-40.42099 -18.5263,-40.42099 -0.3332,0 -0.2834,2.7229 0.1107,6.0509 0.9086,7.6724 -0.8479,10.9901 -6.6694,12.5976 -5.402,1.4915 -6.1257,1.1705 -7.2236,-3.2036 -0.8949,-3.5658 -6.0713,-11.6373 -12.79339,-19.9486 -4.0795,-5.0441 -4.1499,-5.3435 -4.2621,-18.125 l -0.114,-12.9963 -2.248,7.1549 c -1.2365,3.9351 -3.7087,9.6472 -5.494,12.6935 -4.71,8.0371 -19.4297,18.2766 -26.2732,18.2766 -3.9127,0 -9.1714,-4.5948 -10.1775,-8.8924 -0.8495,-3.6291 1.3689,-4.808 9.1083,-4.8405 5.7935,-0.024 5.0267,-1.7945 -2.1068,-4.8632 -8.0891,-3.4799 -9.9917,-3.3658 -18.9034,1.1327 -9.059,4.573 -14.9564,9.7595 -25.57999,22.4965 -5.5918,6.7043 -9.1319,9.8613 -11.6145,10.3578 -3.1593,0.6318 -3.5067,1.1532 -3.0125,4.5207 1.1794,8.03559 -1.6614,11.96139 -9.9451,13.74289 l -3.3499,0.7205 4.8272,5.4827 4.8271,5.4828 2.682,-4.2328 c 1.475,-2.328 2.3871,-3.1077 2.0268,-1.7327 -0.3603,1.375 -1.0302,4.6156 -1.4885,7.2012 -0.4583,2.5858 -1.3887,5.0447 -2.0676,5.4642 -0.6788,0.4195 -4.6931,-2.6547 -8.9208,-6.8317 l -7.6865,-7.5943 -7.8315,9.8746 c -4.3072,5.431 -10.3401,11.9304 -13.4063,14.4429 l -5.5749,4.5681 -8.4687,-4.8094 C 169.8261,652.5468 165.3196,651.0707 152.995,651.0327 c -13.8134,-0.043 -18.2439,1.2308 -32.2604,9.272 l -11.0104,6.3165 -3.3646,-2.436 c -4.2903,-3.1061 -14.847692,-14.162 -20.210192,-21.1644 l -4.1423,-5.409 -7.6647,7.5965 c -4.2156,4.1781 -8.0046,7.5965 -8.4201,7.5965 -0.7632,0 -3.5523,-9.8671 -3.5523,-12.567 0,-0.803 1.1193,-0.132 2.4874,1.491 l 2.4873,2.951 4.6636,-4.9702 4.6635,-4.9702 -4.6237,-1.2974 c -6.9172,-1.9407 -9.0894,-4.7333 -8.8331,-11.3557 0.2036,-5.26009 -0.017,-5.67839 -3.3459,-6.34409 -2.5696,-0.514 -5.8639,-3.6151 -11.8086,-11.1167 -4.5347,-5.722 -10.4196,-12.1262 -13.0778,-14.2314 -6.0274,-4.7738 -19.1037,-11.3393 -22.5841,-11.3393 -2.9685997,0 -16.3204897,6.4624 -14.4035897,6.9715 0.6875,0.1825 3.9219,0.6919 7.1875,1.1318 5.0566897,0.6812 5.9374897,1.2108 5.9374897,3.5702 0,4.3043 -3.4107897,8.1496 -7.9908897,9.0089 -3.12160003,0.5855 -5.7933,-0.041 -10.6339,-2.494 -12.8316003,-6.5023 -20.2142003,-15.6468 -23.2619003,-28.8134 l -1.4467,-6.25 -0.7254,12.9949 c -0.5879,10.533 -1.2142,13.6115 -3.3059,16.25 -6.0196,7.5931 -13.754698,19.7997 -14.546898,22.956 -0.7357,2.9312 -1.3142,3.2939 -4.158999,2.6065 -8.605499,-2.0794 -8.781699,-2.2845 -9.180799,-10.6908 l -0.3735,-7.8666 -9.062499,18.0381 c -5.1285,10.20789 -9.062499,19.63979 -9.062499,21.72749 0,8.4645 13.918798,22.4655 31.213796,31.398 11.316598,5.8449 39.379698,17.2769 48.1196983,19.60249 7.4152,1.9732 9.0883,4.1054 13.05309,16.6359 5.7035997,18.0261 8.3143997,22.8975 17.2103997,32.1121 10.5394,10.9169 26.2083,20.2633 46.8499,27.9455 5.1307,1.9095 5.9234,2.7084 6.6756,6.72869 1.4599,7.8015 9.1859,29.6796 14.07939,39.8693 5.681202,11.8299 16.928502,31.6037 17.596302,30.9358 0.2663,-0.2663 -0.7081,-8.5299 -2.1654,-18.3638 z" />
  </g>
</svg>
