<?xml version="1.0" encoding="utf-8"?>
<!-- Generator: Adobe Illustrator 21.0.0, SVG Export Plug-In . SVG Version: 6.00 Build 0)  -->
<svg version="1.1" id="Layer_1" xmlns="http://www.w3.org/2000/svg" xmlns:xlink="http://www.w3.org/1999/xlink" x="0px" y="0px"
	 viewBox="0 0 565 797.8" style="enable-background:new 0 0 565 797.8;" xml:space="preserve">
<style type="text/css">
	.st0{opacity:0.76;}
	.st1{fill:#CD3125;}
	.st2{fill:#536C4B;}
	.st3{fill:#F2EFDB;}
	.st4{fill:#231F20;}
	.st5{fill:#FFCA05;}
	.st6{fill:#47698A;}
</style>
<g class="st0">
	<g id="back_22_">
		<rect id="back_7_" y="265.9" class="st1" width="282.5" height="265.9"/>
	</g>
	<g id="back_2_">
		<rect id="back_3_" x="282.5" y="265.9" class="st2" width="282.5" height="265.9"/>
	</g>
	<g id="Green-Lantern_3_">
		<g>
			<path class="st3" d="M423.7,505.4c58.9,0,106.8-47.8,106.8-106.5c0-58.6-48-106.5-106.8-106.5c-58.9,0-106.8,47.8-106.8,106.5
				C316.9,457.5,364.9,505.4,423.7,505.4L423.7,505.4z"/>
			<path class="st4" d="M423.7,507.3c-60,0-108.8-48.7-108.8-108.5s48.7-108.4,108.8-108.4c60,0,108.8,48.7,108.8,108.5
				S483.7,507.3,423.7,507.3L423.7,507.3z M423.7,294.4c-57.8,0-104.9,46.8-104.9,104.5s47,104.5,104.9,104.5
				s104.9-46.8,104.9-104.5S481.5,294.4,423.7,294.4L423.7,294.4z"/>
		</g>
		<path class="st2" d="M452.2,349.9c18.1,9.7,30.3,28,30.3,49s-12.3,39.4-30.3,49h29.1v23.7H365.5V448h29.8
			c-18.1-9.7-30.3-28-30.3-49s12.3-39.4,30.3-49h-29.8v-23.7h115.9V350L452.2,349.9L452.2,349.9z M423.7,432.4
			c18.4,0,33.2-15.1,33.2-33.6c0-18.4-15-33.6-33.2-33.6c-18.3,0-33.2,15.1-33.2,33.6S405.5,432.4,423.7,432.4L423.7,432.4z"/>
		<path class="st4" d="M482.9,473.2H364v-26.7h25.7c-16.4-10.7-26.3-28.5-26.3-47.5c0-19.1,10-36.8,26.3-47.5H364v-26.7h118.9v26.7
			h-25.1c16.4,10.7,26.3,28.5,26.3,47.5c0,19.1-10,36.8-26.3,47.5h25.1V473.2L482.9,473.2z M367,470.1h112.8v-20.7h-27.5l-0.7-2.8
			c18.2-9.7,29.5-27.9,29.5-47.6s-11.3-38-29.5-47.6l0.7-2.8h27.6v-20.7H367v20.7h28.2l0.7,2.8c-18.2,9.7-29.5,27.9-29.5,47.6
			s11.3,38,29.5,47.6l-0.7,2.8H367V470.1L367,470.1z"/>
		<path class="st4" d="M423.7,434c-19.2,0-34.7-15.7-34.7-35.1s15.6-35.1,34.7-35.1c19.2,0,34.7,15.7,34.7,35.1S442.9,434,423.7,434
			L423.7,434z M423.7,366.9c-17.5,0-31.7,14.4-31.7,32s14.2,32,31.7,32s31.7-14.4,31.7-32C455.4,381.2,441.2,366.9,423.7,366.9
			L423.7,366.9z"/>
	</g>
	<g id="back_26_">
		<rect id="back_11_" x="282.5" y="531.9" class="st1" width="282.5" height="265.9"/>
	</g>
	<g id="Robin_1_">
		<path class="st4" d="M252.9,341.3c-6-9.8-18.7-15-36.6-15c-12.5,0-27.4,2.6-42.8,7.6c-16.2,5.2-32.6,12.6-48.8,22.1
			c-19.8,11.6-37.5,25.5-51,40c-13.2,14.1-21.9,28.2-25,40.6c-2.3,9.2-1.5,17.1,2.4,23.4c6,9.8,18.7,15,36.6,15
			c12.5,0,27.4-2.6,42.8-7.6c16.2-5.2,32.6-12.6,48.8-22.1c19.8-11.6,37.5-25.5,51-40c13.2-14.1,21.9-28.2,25-40.6
			C257.6,355.5,256.8,347.6,252.9,341.3z"/>
		<g>
			<path class="st5" d="M74.9,364.9c126.7-40.3,100.8,17.9,70.8,23.5l6.6-21.9l-40.8,11L70.4,483.9l44.3-14.1l21.1-57.2l87.9,77.2
				l-40.3-94.9c81-46,41.2-98.4-101.3-39.1L74.9,364.9z"/>
			<path class="st4" d="M223.8,491.8c-0.5,0-1-0.2-1.3-0.5l-85.7-75.2l-20.1,54.4c-0.3,0.6-0.8,1.1-1.3,1.3l-44.3,14.1
				c-0.8,0.3-1.6,0-2.2-0.6s-0.8-1.4-0.4-2.2l41.2-106.4c0.3-0.6,0.8-1.1,1.4-1.3l40.8-11c0.8-0.2,1.5,0,2,0.6s0.8,1.3,0.5,2.1
				l-5.5,18.3c10.6-3.6,20.2-13.9,19.4-21.8c-0.7-6.9-9.1-10.8-23.8-10.8c-16.4,0-39.6,4.7-68.8,14.1c-0.8,0.3-1.8-0.1-2.3-0.8
				c-0.5-0.8-0.5-1.8,0.1-2.5l7.2-9.1c0.3-0.3,0.5-0.5,0.8-0.7c52.9-22.1,86.5-26.7,105.4-26.7c22.2,0,36.6,6.6,39.6,18.1
				c3.9,14.7-11.1,33.5-40.3,50.4l39.6,93.2c0.4,0.9,0.1,1.9-0.7,2.5C224.6,491.7,224.2,491.8,223.8,491.8L223.8,491.8z
				 M135.9,410.4c0.5,0,1,0.2,1.4,0.5l81.1,71.2l-36.8-86.4c-0.4-1,0-2.1,0.9-2.7c33.5-19,42.6-36.6,39.9-46.7
				c-2.5-9.5-15.5-15-35.6-15c-18.4,0-51.2,4.5-103.2,26.2l-2.7,3.3c26.6-8.1,48-12.2,63.6-12.2c23.2,0,27.5,9.1,28,14.6
				c1,11-12,24.6-26.3,27.3c-0.8,0.2-1.4-0.1-1.9-0.7s-0.7-1.3-0.4-2l5.5-18.3l-36.2,9.7L73.9,480.5l39.2-12.5l20.7-56.2
				c0.3-0.7,0.8-1.2,1.4-1.3C135.5,410.4,135.6,410.4,135.9,410.4L135.9,410.4z"/>
		</g>
	</g>
	<g id="Flash_1_">
		<g>
			<circle class="st3" cx="423.8" cy="671" r="80.5"/>
			<path class="st4" d="M423.8,753.5c-45.5,0-82.5-37.1-82.5-82.5c0-45.5,37.1-82.5,82.5-82.5s82.5,37.1,82.5,82.5
				C506.4,716.5,469.3,753.5,423.8,753.5L423.8,753.5z M423.8,592.6c-43.2,0-78.4,35.2-78.4,78.4s35.2,78.4,78.4,78.4
				s78.4-35.2,78.4-78.4C502.2,627.7,467.1,592.6,423.8,592.6L423.8,592.6z"/>
		</g>
		<g>
			<path class="st5" d="M376.3,669.6c5.4-4.3,115.9-91.4,122.4-96.3c5-3.9,8.1-5.1,9.6-5.4c-0.2,1.1-1.2,3.5-4.3,7.5l0,0
				c-6.4,8.3-55,74.9-57.1,77.7c-0.7,0.9-0.7,2.1-0.2,3.1s1.6,1.7,2.6,1.7H492c3.4,0,5.1,0.3,5.9,0.7c-0.4,0.6-1.2,1.5-3.2,3
				L344.2,772.8c-2.1,1.6-3.7,1.6-4.3,0.9c-0.7-0.8-0.5-2.9,1.5-5c6.3-6.7,82.8-90.4,83.5-91.2c0.8-0.9,1-2.1,0.5-3.2
				c-0.5-1.1-1.6-1.8-2.7-1.8h-44.9c-2.2,0-3.6-0.2-4.5-0.2C373.8,671.6,374.7,670.8,376.3,669.6"/>
			<path class="st4" d="M341,776.2c-1.1,0-2.1-0.4-2.7-1.1c-1.7-1.8-1-5,1.6-7.8c6.2-6.6,82.8-90.4,83.5-91.2c0.2-0.2,0.3-0.7,0.2-1
				c-0.2-0.3-0.5-0.6-0.8-0.6h-44.9c-2,0-3.6-0.1-4.9-0.3c-0.7-0.2-1.4-0.7-1.7-1.4s-0.1-1.5,0.4-2.1c0.7-0.8,1.8-1.8,3.2-2.9
				c5.9-4.7,115.9-91.4,122.4-96.4c5.6-4.4,8.9-5.5,10.4-5.9c0.7-0.2,1.4,0.1,1.9,0.6s0.7,1.2,0.5,1.9c-0.3,1.5-1.5,4.1-4.7,8.3
				c-5.9,7.8-48.4,65.9-56.9,77.5l-0.2,0.2c-0.2,0.2-0.2,0.7-0.1,1c0.2,0.3,0.5,0.5,0.8,0.5h42.7c2.9,0,5.1,0.2,6.6,0.7
				c0.7,0.2,1.1,0.7,1.3,1.3c0.2,0.7,0.1,1.3-0.2,1.8c-0.7,1-1.9,2.1-3.7,3.5c-0.5,0.3-149,110.3-150.4,111.3
				C343.9,775.6,342.3,776.2,341,776.2L341,776.2z M378.4,670.5h44.2c2,0,3.8,1.2,4.6,3.1c0.8,1.8,0.5,4-0.9,5.4
				c-0.7,0.8-77.3,84.6-83.5,91.2c-0.7,0.7-1,1.3-1.2,1.7c0.3-0.2,0.7-0.3,1.2-0.7c128.1-94.8,147.3-109,150.4-111.2
				c-0.4,0-0.9,0-1.4,0h-42.7c-1.9,0-3.6-1.1-4.5-2.8c-0.8-1.7-0.7-3.7,0.4-5.3l0.2-0.2c8.4-11.6,50.9-69.7,56.9-77.6
				c0.5-0.7,0.9-1.2,1.3-1.7c-1.1,0.7-2.2,1.5-3.6,2.6C493.7,579.7,390.7,660.8,378.4,670.5L378.4,670.5z"/>
		</g>
	</g>
	<g id="back_20_">
		<rect id="back_6_" x="277.7" class="st1" width="287.3" height="265.9"/>
	</g>
	<g id="Wonder-Woman_1_">
		<path class="st4" d="M472.3,79.3c-12.6,0-17.5,4.1-21,10.4c0,0-8.9,16.1-11.1,20.2c-2.2-4-18.8-34.6-18.8-34.6
			s-16.8,30.8-18.9,34.6c-2.3-4.1-11.1-20.2-11.1-20.2c-3.5-6.2-8.4-10.4-21-10.4h-71.8l0.5,2c0.2,0.7,3.9,14.7,14.4,17.6
			c0.9,3.1,5.4,15.6,15.8,17.4c1.3,4,6.5,17,18.1,17h20.5c1.9,0,6.1,3.7,7.7,6.7c1.6,3.2,24.8,46,25.8,47.8l1.4,2.6l18.6-34.2
			l18.6,34.2l1.4-2.6c1-1.8,24.2-44.6,25.8-47.8c1.5-3,5.8-6.7,7.7-6.7h20.4c11.6,0,16.8-12.9,18.1-17c10.4-1.8,14.9-14.3,15.8-17.4
			c10.4-3,14.2-16.9,14.4-17.6l0.5-2C544.1,79.3,472.3,79.3,472.3,79.3z"/>
		<path class="st5" d="M317.2,99.5c0.2,0,52.2,0,52.2,0c2.7,0,6.1,3.7,7.7,6.7c0.4,0.9,2.5,4.8,5.3,10c-3.2-2.3-7-3-9.5-3h-41.1
			C323.2,113.3,318.8,103.7,317.2,99.5"/>
		<path class="st5" d="M495.3,130.1h-20.4c-3.8,0-8.9,5.1-10.6,8.5c-1.4,2.7-19.2,35.5-24.4,45.1c-2-3.7-18.6-34.2-18.6-34.2
			s-16.4,30.3-18.6,34.2c-5.2-9.6-23-42.4-24.4-45.1c-1.8-3.3-6.8-8.5-10.6-8.5h-20.4c-8.4,0-12.9-9.2-14.6-13.6h39.9
			c5.1,0,11.3,3.5,12.7,5.9c6.6,12.6,14.7,27.8,15.3,28.9l1.4,2.7l19-35l19,35l1.4-2.7c0.5-1.1,8.7-16.3,15.3-28.9
			c1.6-2.9,8-5.9,12.7-5.9h39.9C508.2,120.9,503.7,130.1,495.3,130.1"/>
		<path class="st5" d="M510.9,113.3h-41.1c-2.5,0-6.8,0.9-9.5,3c2.7-5.2,4.8-9.1,5.3-10c1.5-3,5.1-6.7,7.7-6.7c0,0,52.1,0,52.2,0
			C524,103.7,519.5,113.3,510.9,113.3"/>
		<path class="st5" d="M525.1,96.3h-51.9c-3.8,0-8.9,5.1-10.6,8.5c-0.6,1.2-19.7,37.4-22.4,42.3c-2.3-4.2-19-34.9-19-34.9
			s-16.8,30.7-19,34.9c-2.5-4.9-21.8-41.1-22.4-42.3c-1.8-3.3-6.8-8.5-10.6-8.5h-51.9c-8.6,0-13.1-9.6-14.7-13.8h67.8
			c11,0,15.1,3.3,18.1,8.8l14,25.4l18.8-34.6l18.8,34.6l14-25.4c3.1-5.4,7.1-8.8,18.1-8.8h67.5C538.3,86.7,533.8,96.3,525.1,96.3"/>
	</g>
	<g id="back_19_">
		<rect id="back_5_" y="531.9" class="st6" width="282.5" height="265.9"/>
	</g>
	<g id="Superman_1_">
		<polygon class="st4" points="68.4,580.1 29.1,619.8 141.2,748.2 253.3,619.7 211.4,580.1 		"/>
		<g>
			<path class="st4" d="M141.2,751.9L25.9,619.7l41.5-42h144.9l44.3,41.9L141.2,751.9L141.2,751.9z M32.3,619.9l108.9,124.7
				L250,619.9l-39.6-37.5h-141L32.3,619.9L32.3,619.9z"/>
		</g>
		<path class="st1" d="M209.8,584.1c1.1,1,35.5,33.6,38,36C245.4,622.9,144,739,141.2,742.3C138.3,739,36.8,622.7,34.5,620
			c2.3-2.4,34.4-34.9,35.5-36L209.8,584.1L209.8,584.1z"/>
		<path class="st4" d="M96.1,613.5c0,6.4,4.3,11.1,12.2,13.4c11.7,3,24.8,3.1,37.3,3.2c20.9,0.2,40.6,0.4,55.1,12.7
			c3.9,3.9,5,5.9,5,6l1.3,2.6l27.8-31.2l-25-22.2v23.1h-31.9c-0.4-2-1.4-5.7-3.8-10.9c-4.6-10.5-20.6-17.2-40.7-17.2
			C115.4,593,96.1,601.3,96.1,613.5"/>
		<path class="st5" d="M203.4,639.8c-15.6-13.5-36.1-13.6-57.7-13.8c-12.4-0.1-25-0.2-36.3-3c-6.2-1.8-9.3-5-9.3-9.6
			c0-8.6,15.9-16.5,33.4-16.5c18.3,0,33.2,6,37.1,14.9c3.3,7.4,3.8,11.4,3.8,11.5l0.2,1.7h39.3v-18.3c4.2,3.8,13.5,11.9,15.5,13.7
			c-2.2,2.4-18.8,21.2-21.5,24.2C206.8,643.5,205.4,641.9,203.4,639.8"/>
		<path class="st4" d="M74.9,593.1l-27.4,27.4l17.5,21l1-9.4c0.9-8.7,6.5-19,14.5-26.7c0.7-0.7,6.7-5.6,10.8-8.8l4.5-3.5H74.9
			L74.9,593.1z"/>
		<path class="st5" d="M84.4,597.1c-2.9,2.3-6.1,4.9-6.7,5.6c-8.6,8.3-14.7,19.4-15.7,29c0,0,0,0.1,0,0.2c-3.2-3.9-7.7-9.2-9.2-11
			c2.2-2.2,22.7-22.7,23.8-23.8L84.4,597.1L84.4,597.1z"/>
		<path class="st4" d="M98.8,679.4l1.4-2.2c0.1-0.2,2.2-3.4,7.8-4.8c9.1-2.2,22-0.1,30,9.7l1.2,1.3l1.8,0.1
			c40.1,0,44.4-9.3,44.4-13.3c0-3,0-11.3-57.9-12.6c-15.9-0.4-35.9-2.7-40.7-3.5l-10-1.8L98.8,679.4z"/>
		<path class="st5" d="M86.3,658c5.6,0.9,25.3,3.1,40.9,3.5c52.6,1.3,54.1,8,54.1,8.7c0,0.1-0.4,9.3-40.3,9.3l0,0
			c-9.1-11-23.6-13.5-33.9-11c-4.2,1-6.9,3-8.5,4.5C96.7,670.6,90.2,662.7,86.3,658"/>
		<path class="st4" d="M114.7,696.6l26.5,28.4l28.7-32.6l-10.5,1.7c-7.4,1.2-22.2,2.7-37.8,0l-10.8-1.7L114.7,696.6z"/>
		<path class="st5" d="M159.8,698c-4.8,5.5-16.4,18.7-18.6,21.1c-2.2-2.3-14.5-15.5-19.7-21.1C137.3,700.7,152.1,699.2,159.8,698"/>
		<path class="st4" d="M193,593.1c2,3-1.3,7.4-1.6,8c-1,1.3-2.5,3.3-4.2,3.6c-3-4.2-9.6-11.6-9.6-11.6H193z"/>
		<path class="st5" d="M189.9,595.8c-0.2,1.1-1.9,4.7-2.6,3.9c-0.4-0.5-3.1-3.9-3.1-3.9S188.1,595.6,189.9,595.8"/>
	</g>
	<rect id="back_1_" class="st5" width="282.5" height="265.9"/>
	<path class="st4" d="M219.9,92.9c-33.4,19.5-65.2,20.5-65.2,20.5l-4.8-27.7l-3.1,13h-11.3l-3.1-13l-4.8,27.7c0,0-31.8-1-65.2-20.4
		l-52.2,47.6c0,0,33.3-7.4,43-7c6.7,0.3,10.3,7.2,21.7,23.1c0,0,23.6-8.1,32.9-7s20.2,14.7,33.3,30.4c13.1-15.7,23.9-29.2,33.3-30.4
		c9.3-1.1,32.9,7,32.9,7c11.4-16,14.9-22.8,21.7-23.1c9.8-0.4,43,7,43,7L219.9,92.9z"/>
</g>
<g id="DC-Comics-logo">
	<g id="Dc-Comics-logo">
		<path class="st4" d="M312.6,485.6c7.2,0,53.7,3.6,68.6-49.1c13.8-50.1,38-141.1,38-141.1s-45,0-62.9,0s-54.7,3.6-65,35.8
			c-10.2,32.2-29.6,104.7-32.2,117.1c-6.1,29.2,13.8,36.8,26.6,36.8C298.3,485.1,305.4,485.6,312.6,485.6z"/>
		<path class="st4" d="M186.7,295.4l-50.1,190.2c0,0,45,0,62.9,0s54.7-3.6,65-35.8c10.2-32.2,29.6-104.7,32.2-117.1
			c6.1-29.2-13.8-36.8-26.6-36.8C251.2,295.9,186.7,295.4,186.7,295.4z"/>
		<path class="st3" d="M260.8,461.6c-0.5-0.3-0.9-0.7-1.4-1.1c-5.1,8.1-12.4,13.6-20.3,17.4c0.2,0.2,0.5,0.3,0.7,0.5
			c6.6,4.6,132,93.1,181.1,22C373.9,543.4,296.7,488.1,260.8,461.6z"/>
		<path class="st3" d="M355.2,337.9c-1.2,3.8-4.6,16.9-8.7,32.6h43.3c9-34.4,17.7-68.3,17.7-68.3s-39.5,0.2-55.2,0
			c-23-0.2-50.6,12.6-58.3,37.7c-9,29.3-24.4,90.2-26.9,101.4c-1.3,5.8-3.4,12.3-3.8,17.2c-1.1,11.2,19.6,16.3,27.2,16.3
			c9.6,0,19.5,0.2,39.9,0.2c10.7,0,33.7-13.8,40.9-36.3c2.2-6.9,6.9-24.3,12.3-44.4h-43.2c-6.1,23.4-12.3,46.2-14.7,50.7
			c-4.9,9.2-12.6,12.1-25.6,11.6c5.4-2,6.4-5.8,9.6-15.6c3.3-9.8,19.5-72,25.5-94c6-22.1,18.5-27.2,30.9-26.2
			C359,324.5,356.8,332.8,355.2,337.9z"/>
		<path class="st3" d="M263,302.7c-16.6,0-71.7-0.2-71.7-0.2L146,475.1c0,0,39.5,0,55.2,0s48-3.3,56.9-32.5
			c9-29.3,26.1-95.2,28.3-106.5C293.1,301,274.2,302.7,263,302.7z M243.7,337.9c-2.8,11.3-24.7,97.6-29.6,106.8
			c-4.9,9.2-12.6,12.1-25.6,11.6c5.4-2,6.4-5.8,9.6-15.6c3.3-9.8,19.5-72,25.5-94c6-22.1,5.9-19.9,1.1-25
			C242.4,320.6,247.9,321,243.7,337.9z"/>
		<path class="st4" d="M141.7,273.4c-0.1,0.4-0.1,0.9-0.2,1.3c0,0,0,0,0,0.1c-0.1,0.4-0.1,0.8-0.1,1.2c0,0.1,0,0.2,0,0.3
			c0,0.3-0.1,0.7-0.1,0.9c0,0.2,0,0.2,0,0.4c0,0.3,0,0.6-0.1,0.9c0,0.2,0,0.3,0,0.5s0,0.5,0,0.8c0,0.2,0,0.3,0,0.5s0,0.5,0,0.7
			s0,0.3,0,0.6s0,0.5,0,0.7s0,0.4,0,0.6s0,0.5,0,0.7s0,0.4,0,0.7c0,0.2,0,0.4,0,0.7c0,0.2,0,0.4,0,0.6s0,0.5,0.1,0.7
			c0,0.2,0,0.4,0.1,0.7c0,0.2,0,0.4,0.1,0.7c0,0.2,0.1,0.4,0.1,0.7s0.1,0.4,0.1,0.7s0.1,0.4,0.1,0.7c0,0.2,0.1,0.4,0.1,0.7
			c0,0.2,0.1,0.4,0.1,0.7s0.1,0.4,0.1,0.7s0.1,0.4,0.1,0.7c0,0.2,0.1,0.4,0.1,0.7s0.1,0.4,0.1,0.7s0.1,0.4,0.1,0.7s0.1,0.4,0.2,0.7
			c0.1,0.2,0.1,0.4,0.2,0.7s0.1,0.4,0.2,0.7s0.1,0.4,0.2,0.7c0.1,0.2,0.1,0.4,0.2,0.7c0.1,0.2,0.1,0.4,0.2,0.7s0.1,0.5,0.2,0.7
			s0.1,0.4,0.2,0.6c0.1,0.2,0.1,0.5,0.2,0.7c0.1,0.2,0.1,0.4,0.2,0.6c0.1,0.2,0.2,0.5,0.2,0.7c0.1,0.2,0.1,0.4,0.2,0.6
			c0.1,0.2,0.2,0.5,0.2,0.7c0.1,0.2,0.1,0.4,0.2,0.6c0.1,0.2,0.2,0.5,0.2,0.7c0.1,0.2,0.1,0.4,0.2,0.6c0.1,0.2,0.2,0.5,0.2,0.7
			c0.1,0.2,0.1,0.4,0.2,0.6c0.1,0.2,0.2,0.5,0.2,0.7c0.1,0.2,0.2,0.4,0.2,0.6c0.1,0.2,0.2,0.5,0.2,0.7c0.1,0.2,0.2,0.4,0.2,0.6
			c0.1,0.2,0.2,0.5,0.2,0.7c0.1,0.2,0.2,0.3,0.2,0.6c0.1,0.2,0.2,0.5,0.2,0.7c0.1,0.2,0.2,0.3,0.2,0.5c0.1,0.2,0.2,0.5,0.3,0.7
			s0.2,0.3,0.2,0.5c0.1,0.2,0.2,0.5,0.3,0.7s0.2,0.3,0.2,0.5c0.1,0.2,0.2,0.5,0.3,0.7s0.2,0.3,0.2,0.5c0.1,0.2,0.2,0.5,0.3,0.7
			s0.2,0.3,0.2,0.5c0.1,0.2,0.2,0.5,0.3,0.7s0.2,0.3,0.2,0.5c0.1,0.2,0.2,0.5,0.3,0.7s0.2,0.3,0.2,0.5c0.1,0.2,0.2,0.5,0.4,0.7
			c0.1,0.2,0.2,0.3,0.2,0.5c0.2,0.2,0.2,0.5,0.4,0.8c0.1,0.2,0.2,0.3,0.2,0.4c0.2,0.2,0.2,0.5,0.4,0.7c0.1,0.2,0.2,0.3,0.2,0.5
			c0.2,0.2,0.2,0.5,0.4,0.8c0.1,0.2,0.2,0.3,0.2,0.4c0.2,0.2,0.3,0.6,0.4,0.8c0.1,0.2,0.2,0.2,0.2,0.4c0.2,0.2,0.3,0.6,0.4,0.8
			c0.1,0.2,0.2,0.2,0.2,0.4c0.2,0.2,0.3,0.6,0.4,0.8c0.1,0.2,0.2,0.2,0.2,0.4c0.2,0.2,0.3,0.6,0.5,0.8c0.1,0.2,0.2,0.2,0.2,0.4
			c0.2,0.2,0.3,0.6,0.5,0.8c0.1,0.1,0.2,0.2,0.2,0.3c0.2,0.3,0.3,0.6,0.5,0.9c0.1,0.1,0.2,0.2,0.2,0.3c0.2,0.3,0.3,0.6,0.5,0.8
			c0.1,0.1,0.2,0.2,0.2,0.3c0.2,0.3,0.3,0.6,0.5,0.9c0.1,0.1,0.2,0.2,0.2,0.3c0.2,0.3,0.3,0.6,0.6,0.9c0.1,0.1,0.2,0.2,0.2,0.3
			c0.2,0.3,0.3,0.6,0.6,0.9c0.1,0.1,0.2,0.2,0.2,0.3c0.2,0.3,0.4,0.6,0.6,0.9c0.1,0.1,0.2,0.2,0.2,0.3c0.2,0.3,0.4,0.6,0.6,0.9
			c0.1,0.1,0.1,0.2,0.2,0.2c0.2,0.3,0.4,0.7,0.7,1c0.1,0.1,0.1,0.2,0.2,0.2c0.2,0.3,0.4,0.7,0.7,1c0.1,0.1,0.1,0.2,0.2,0.2
			c0.2,0.3,0.4,0.7,0.7,1c0.1,0.1,0.1,0.2,0.2,0.2c0.2,0.3,0.4,0.7,0.7,1c0.1,0.1,0.1,0.2,0.2,0.2c0.2,0.3,0.5,0.7,0.7,1
			c0,0.1,0.1,0.1,0.1,0.2c0.2,0.3,0.5,0.7,0.7,1c0,0.1,0.1,0.1,0.1,0.2c0.2,0.3,0.5,0.7,0.7,1l0.1,0.1c0.2,0.3,0.5,0.7,0.7,1.1
			c0,0,0,0,0.1,0.1c0.2,0.3,0.5,0.7,0.7,1.1c0,0,0,0,0,0.1c1.1,1.5,2.1,2.9,3.3,4.4l2.5-9.6c-11.7-28.9-13.1-55.1,5.2-68.5
			c3.4-2.5,43-26.1,131.4,30.1c0.5,0.3,1.1,0.7,1.6,1c4.2-2.5,8.8-4.2,13.4-5.6c-72.7-60.9-156.5-79.3-195.8-40
			c-35.5,35.5-23.9,106.9,23.1,173.8l0.2-0.8c0,0-1.6-9.7,3.1-10.7c11-2.5,19.5,0.6,28.6,6.8c-1-1.1-2-2.1-3-3.2
			C112.6,350,116.7,297.4,141.7,273.4z M396.4,380c-1,3.7-2,7.4-2.9,11c19,37.3,19.7,71.2,9.2,86.3c-13,18.6-45.2,21.9-83.8,8.2
			c-0.3,0-0.7,0-1,0c-12.9-5-36.4-15.1-55.9-29.2c-0.7,1.4-1.5,2.8-2.3,4.1c0.5,0.3,0.9,0.7,1.4,1.1c13.2,9.8,32.1,23.6,53.1,34.8
			c0.5,0.2,1,0.6,1.6,0.8c0.1,0,0.1,0.1,0.2,0.1c1.6,0.9,3.3,1.7,4.9,2.5c0.1,0,0.2,0.1,0.2,0.1c0.5,0.2,1,0.5,1.5,0.7
			c0.1,0,0.2,0.1,0.2,0.1c0.6,0.2,1.1,0.5,1.6,0.8l0,0c0.6,0.2,1.1,0.6,1.7,0.8l0,0c0.5,0.2,1.1,0.5,1.6,0.7
			c0.1,0.1,0.2,0.1,0.3,0.2c0.5,0.2,0.9,0.4,1.4,0.7c0.1,0.1,0.2,0.1,0.3,0.2c1.1,0.5,2.2,1,3.3,1.5c0.1,0,0.2,0.1,0.2,0.1
			c0.5,0.2,1,0.4,1.4,0.6c0.2,0.1,0.2,0.1,0.4,0.2c0.4,0.2,0.9,0.3,1.3,0.5c0.1,0.1,0.2,0.1,0.3,0.2c1.1,0.4,2.2,0.9,3.3,1.3
			c0.1,0,0.2,0.1,0.3,0.1c0.4,0.2,0.9,0.3,1.3,0.5c0.2,0.1,0.3,0.1,0.4,0.2c0.4,0.2,0.8,0.3,1.3,0.5c0.2,0.1,0.2,0.1,0.4,0.2
			c1.1,0.4,2.2,0.7,3.3,1.1c0.2,0.1,0.2,0.1,0.4,0.2c0.4,0.2,0.8,0.2,1.2,0.4c0.2,0.1,0.3,0.1,0.5,0.2c0.4,0.2,0.8,0.2,1.2,0.4
			c0.2,0,0.2,0.1,0.4,0.1c0.6,0.2,1.1,0.3,1.6,0.5h0.1c0.5,0.2,1,0.2,1.6,0.4c0.2,0.1,0.3,0.1,0.5,0.2c0.4,0.1,0.7,0.2,1.1,0.3
			c0.2,0.1,0.3,0.1,0.5,0.2c0.4,0.1,0.8,0.2,1.2,0.3c0.2,0,0.2,0.1,0.4,0.1c0.6,0.2,1.1,0.2,1.6,0.3c0.1,0,0.2,0,0.2,0.1
			c0.4,0.1,0.9,0.2,1.3,0.2c0.2,0,0.3,0.1,0.5,0.1c0.4,0.1,0.7,0.2,1.1,0.2c0.2,0,0.3,0.1,0.6,0.1c0.4,0.1,0.8,0.2,1.2,0.2
			c0.2,0,0.2,0.1,0.4,0.1c0.6,0.1,1.1,0.2,1.6,0.2c0.2,0,0.2,0,0.4,0.1c0.4,0.1,0.8,0.1,1.2,0.2c0.2,0,0.3,0.1,0.6,0.1
			c0.3,0.1,0.7,0.1,1.1,0.2c0.2,0,0.3,0,0.6,0.1c0.4,0.1,0.8,0.1,1.2,0.2c0.1,0,0.2,0,0.3,0c0.5,0.1,1.1,0.1,1.6,0.1
			c0.2,0,0.3,0,0.5,0c0.4,0,0.7,0.1,1.1,0.1c0.2,0,0.4,0,0.6,0c0.3,0,0.7,0,1.1,0c0.2,0,0.3,0,0.6,0c0.4,0,0.9,0,1.3,0
			c0.1,0,0.2,0,0.2,0c0.5,0,1.1,0,1.6,0c0.2,0,0.3,0,0.5,0c0.3,0,0.7,0,1.1,0c0.2,0,0.4,0,0.6,0c0.3,0,0.7,0,1.1-0.1
			c0.2,0,0.3,0,0.5,0c0.5,0,1-0.1,1.5-0.1c0.1,0,0.1,0,0.2,0c0.5-0.1,1-0.1,1.5-0.2c0.2,0,0.3,0,0.5-0.1c0.3,0,0.7-0.1,1.1-0.2
			c0.2,0,0.4-0.1,0.6-0.1c0.3-0.1,0.7-0.1,1.1-0.2c0.2,0,0.3-0.1,0.5-0.1c0.5-0.1,1-0.2,1.5-0.2c0.1,0,0.2,0,0.2-0.1
			c0.4-0.1,0.8-0.2,1.2-0.2c0.2,0,0.3-0.1,0.5-0.1c0.3-0.1,0.7-0.2,1-0.2c0.2-0.1,0.3-0.1,0.6-0.2c0.3-0.1,0.7-0.2,1.1-0.2
			c0.2,0,0.3-0.1,0.4-0.1c0.5-0.2,1-0.2,1.5-0.4c0.1,0,0.2-0.1,0.3-0.1c0.4-0.1,0.7-0.2,1.1-0.4c0.2-0.1,0.3-0.1,0.5-0.2
			c0.3-0.1,0.7-0.2,1-0.3c0.2-0.1,0.3-0.2,0.5-0.2c0.3-0.2,0.7-0.2,1.1-0.4c0.2-0.1,0.2-0.1,0.4-0.2c0.5-0.2,1-0.4,1.4-0.6
			c0.1-0.1,0.2-0.1,0.3-0.2c0.3-0.2,0.7-0.3,1.1-0.5c0.2-0.1,0.3-0.2,0.5-0.2c0.3-0.2,0.7-0.3,1-0.5c0.2-0.1,0.3-0.2,0.5-0.2
			c0.4-0.2,0.7-0.4,1.1-0.6c0.1-0.1,0.2-0.1,0.3-0.2c0.5-0.2,0.9-0.5,1.4-0.8c0.2-0.1,0.2-0.2,0.4-0.2c0.3-0.2,0.7-0.4,1-0.6
			c0.2-0.1,0.3-0.2,0.5-0.3c0.3-0.2,0.7-0.4,0.9-0.6c0.2-0.1,0.3-0.2,0.4-0.3c0.4-0.2,0.8-0.6,1.1-0.8c0.1-0.1,0.1-0.1,0.2-0.2
			c0.4-0.3,0.9-0.7,1.3-1c0.2-0.1,0.2-0.2,0.4-0.3c0.3-0.2,0.7-0.5,0.9-0.7c0.2-0.1,0.3-0.2,0.5-0.3c0.3-0.2,0.6-0.5,0.9-0.7
			c0.2-0.1,0.2-0.2,0.4-0.3c0.4-0.4,0.8-0.7,1.3-1.1c-49.3,70.6-174.6-17.9-181.3-22.5c-0.2-0.2-0.4-0.2-0.6-0.4l-0.1-0.1l0,0
			c-13.9,6.5-29.7,7.7-39.7,7.7c-0.2,0-0.5,0-0.7,0c75.8,71.3,168.6,95.4,210.7,53.3C442.4,506.1,435,442.5,396.4,380z"/>
		<path class="st4" d="M435.6,459.9c-5.1-35-16.9-46.2-16.9-46.2c-1.9,29.8-2,29.4-2.6,32.4c-23.4-12.2-37.4-10.3-37.4-10.3
			s26.1,36.9,27.9,39.1c-3.8,12.3-23.9,32.5-23.9,32.5c9.6,1.7,18.7,4.6,40-7.2c5.8,8.6,10.7,18,18.1,31.5c0,0,0.6-40,0.3-43
			c4.7-3.3,13-12.4,13-12.4S438.6,462,435.6,459.9z"/>
		<path class="st3" d="M434,463.5c-1.6-11.3-4.9-25.3-10.5-33.2c-0.5,10.7-2.5,19.9-3.6,23.5c-15.7-8.5-21.9-10-28.2-10.9
			c9.2,10.7,19,25.2,22.6,28.8C411.2,486,396.6,501,394,503c12.7,3.1,25.9-6.8,30-9.8c6.1,7.8,9.8,15.6,13.4,23.5
			c1.1-12.3,1.1-23,0.2-30.6c8.2-5.1,8.9-7.8,11.5-10.4C443.4,470.2,437,465.6,434,463.5z"/>
		<path class="st4" d="M437.6,517.8l-0.4-0.9c-3.3-7.2-6.9-15.3-13.2-23.3c-3.7,2.7-14,10.3-24.8,10.3c-1.8,0-3.5-0.2-5.1-0.6
			l-0.5-0.2l0.4-0.3c2-1.6,17-16.5,20.1-31c-1.7-1.7-4.7-5.6-8.3-10.6c-4.2-5.6-9.3-12.4-14.2-18.1l-0.4-0.5l0.7,0.1
			c6,0.8,12.2,2.3,28,10.9c1.1-4,3-13.1,3.5-23.1v-0.9l0.4,0.6c6.6,9.3,9.6,26.2,10.5,33.2c1.6,1.1,8.7,6,15,12.3l0.2,0.2l-0.2,0.2
			c-0.7,0.7-1.2,1.3-1.8,2c-1.6,2-3.7,4.6-9.6,8.3c0.9,7.7,0.8,18.1-0.2,30.4L437.6,517.8L437.6,517.8z M424,492.9l0.2,0.2
			c6.1,7.8,9.8,15.7,13,22.7c1-11.9,1-22.1,0.1-29.5v-0.2l0.2-0.1c6-3.8,8-6.3,9.6-8.3c0.6-0.7,1.1-1.3,1.6-1.9
			c-6.5-6.4-13.5-11.2-14.9-12.2l-0.1-0.1v0.1c-0.9-6.7-3.7-23-10-32.4c-0.6,10.1-2.5,19-3.5,22.8l-0.1,0.3l-0.2-0.2
			c-15.4-8.3-21.7-10-27.5-10.9c4.8,5.6,9.7,12.3,13.8,17.6c3.8,5,6.7,9,8.3,10.6l0.1,0.1v0.2c-3,14-16.8,28.4-19.9,31.1
			c1.5,0.3,2.9,0.5,4.5,0.5C410.2,503.4,420.6,495.6,424,492.9L424,492.9L424,492.9z"/>
		<path class="st3" d="M159.6,398.3c3.8,5,10.9,13.8,22.6,26.9c-2.9-6.5-12.5-28.8-18-44.3l7.6-29c-17.3-23.5-33.7-51.1-30.1-78.6
			c-21.3,20.4-27.5,61.7,14.1,119.9v0.1c0,0,0.9,1.3,2.9,4C159.1,397.7,159.3,398,159.6,398.3L159.6,398.3z"/>
	</g>
</g>
</svg>
