<?xml version="1.0" encoding="utf-8"?>
<!-- Generator: Adobe Illustrator 21.0.0, SVG Export Plug-In . SVG Version: 6.00 Build 0)  -->
<svg version="1.1" id="Layer_1" xmlns="http://www.w3.org/2000/svg" xmlns:xlink="http://www.w3.org/1999/xlink" x="0px" y="0px"
	 viewBox="0 0 167.1 223.3" style="enable-background:new 0 0 167.1 223.3;" xml:space="preserve">
<style type="text/css">
	.st0{fill:#EEE8D7;}
	.st1{fill:#EA701A;}
	.st2{fill:#11532C;}
	.st3{fill:#35542D;}
</style>
<title>Asset 6</title>
<g>
	<g>
		<path class="st0" d="M8.9,223.3c-4.9,0-8.9-3.5-8.9-7.8V7.8C0,3.5,4,0,8.9,0h149.3c4.9,0,8.9,3.5,8.9,7.8v207.7
			c0,4.3-4,7.8-8.9,7.8L8.9,223.3L8.9,223.3z"/>
	</g>
	<path class="st1" d="M162.7,215.5c0,2.2-2,3.9-4.4,3.9H8.9c-2.5,0-4.4-1.8-4.4-3.9V7.8c0-2.2,2-3.9,4.4-3.9h149.3
		c2.5,0,4.4,1.8,4.4,3.9v207.7H162.7z"/>
</g>
<path class="st2" d="M74,176.6c-14-48.9,39.2-44,21.9,0c12.8-7.9,25-24.6,25-24.6s-8.9-29.6-28.4-54c-6.5-8.9-8.1-9.7-14.6,0
	c0,0-20.3,28.8-28.4,54l1.2,0.8l3.7-1.6c0,0-1.2-7.3,7.7-8.5c0-2,2.4-2.4,2.4-2.4s0-3.2,4.5-5.7c0.8-1.6,3.7-4.1,3.7-4.1l-15.4,29.6
	C57.2,160.2,64.5,169.5,74,176.6z"/>
<g>
	<circle class="st1" cx="71.3" cy="128.6" r="0.4"/>
	<circle class="st1" cx="67.9" cy="129.5" r="1.8"/>
	<circle class="st1" cx="66.4" cy="133" r="0.9"/>
	<circle class="st1" cx="65" cy="131.1" r="0.6"/>
	<circle class="st1" cx="69.2" cy="132.3" r="0.8"/>
	<circle class="st1" cx="73.6" cy="135.3" r="1.7"/>
	<circle class="st1" cx="71.6" cy="138.4" r="0.7"/>
	<circle class="st1" cx="74.2" cy="131.5" r="0.6"/>
	<path class="st1" d="M73.8,127.3c0,0-1.6,4.1,1.2,0.8c2.8-3.2,3.2-1.2,3.2-1.2s-2,3.7-1.2,3.7c-0.4,3.7,2.4,4.1,4.5-0.8
		c0.8-2,0.4-4.9,0.4-4.9s2-3.7,2-0.4s0.4,3.7,0.4,3.7l0.8-1.6V124c0,0,1.6-3.2,1.2,0c-0.4,3.2-0.8,3.2-0.8,3.2s-1.2,1.6-1.2,6.5
		c1.2-0.4,2.4-6.9,2.4-6.9s1.6-4.5,0.4,1.2C86,133.8,86,133,86,133s3.7-2.4,2.4-6.5c-0.8-1.2-0.4-4.5-0.4-4.5s2-2,0.4-3.2l0.4-1.2
		c0,0,2,0,0.4-2c0.4-1.6,0.8-3.7,0.8-3.7h-0.8l-0.8,3.2c0,0-4.1-4.9-5.7-2.8c-1.6-1.2-2.8,0-2.8,2.8c-4.5,2-4.1,3.2-3.2,7.3
		C75.8,125.2,73.8,122.8,73.8,127.3z"/>
</g>
<path class="st3" d="M86,115.5l-1,4.4c0,0.1,0,0.2,0.1,0.3c0.1,0,0.1,0,0.2,0l2-1l0.4-1.2C87.6,115.5,86,115.5,86,115.5z"/>
<g>
	<path class="st3" d="M41.6,46.5c0.2,0,0.4,0,0.6,0.1c0.1,0,0.3,0.1,0.3,0.1s0.2,0.1,0.2,0.2c0,0.1,0.1,0.2,0.1,0.3
		c0.1,0.2,0.2,0.6,0.4,1.1c0.2,0.6,0.4,1.2,0.7,1.9c0.3,0.7,0.5,1.5,0.9,2.3c0.3,0.8,0.6,1.6,0.8,2.3s0.5,1.3,0.6,1.9
		c0.2,0.5,0.3,0.9,0.3,1c0,0.3-0.1,0.5-0.3,0.7c-0.2,0.2-0.5,0.4-0.7,0.5c-0.3,0.1-0.5,0.2-0.8,0.3s-0.4,0.1-0.4,0.1
		c-0.4,0-0.7-0.2-0.9-0.5c-0.2-0.3-0.3-0.8-0.4-1.4c-0.9,0-1.9,0-3,0s-2.2,0-3.5,0.1c-0.2,0.3-0.3,0.6-0.4,0.8
		c-0.1,0.2-0.2,0.4-0.3,0.5s-0.2,0.2-0.3,0.2c-0.1,0-0.3,0.1-0.5,0.1c-0.1,0-0.3,0-0.5-0.1c-0.2-0.1-0.5-0.2-0.7-0.4
		c-0.2-0.1-0.4-0.3-0.6-0.5c-0.2-0.2-0.3-0.3-0.3-0.5c0-0.1,0.1-0.3,0.2-0.6s0.4-0.7,0.7-1.2c0.3-0.5,0.7-1,1.1-1.7
		c0.4-0.6,0.9-1.3,1.5-2c0.7-0.9,1.2-1.6,1.7-2.3c0.5-0.6,0.9-1.1,1.3-1.6c0.4-0.4,0.7-0.8,0.9-1c0.2-0.2,0.5-0.4,0.6-0.6
		c0.2-0.1,0.3-0.2,0.5-0.3C41.4,46.5,41.5,46.5,41.6,46.5z M40.8,51.2c-0.4,0.4-0.8,0.9-1.1,1.4s-0.8,1.1-1.3,1.8
		c0.6,0,1.3,0,1.8,0.1c0.6,0,1.2,0.1,1.7,0.2c-0.2-0.5-0.4-1-0.6-1.6C41.1,52.5,41,51.9,40.8,51.2z"/>
	<path class="st3" d="M57.8,46.5c1.6,0,2.8,0.4,3.6,1c0.8,0.7,1.3,1.7,1.3,3.1c0,1.1-0.3,2.3-1,3.4c-0.7,1.2-1.6,2.2-2.8,3.1
		c0.3,0.3,0.6,0.4,0.8,0.5s0.5,0.1,0.8,0.1c0.2,0,0.3,0,0.4,0c0.1,0,0.2,0,0.4,0c0.7,0,1.1,0.4,1.1,1.2c0,0.3,0,0.6-0.1,0.8
		c-0.1,0.2-0.2,0.4-0.4,0.6c-0.2,0.2-0.4,0.3-0.8,0.4c-0.3,0.1-0.7,0.1-1.3,0.1c-0.3,0-0.6,0-0.9-0.1c-0.3,0-0.7-0.1-1-0.3
		c-0.4-0.1-0.7-0.3-1.1-0.6c-0.4-0.2-0.7-0.6-1.1-1c-0.7,0.2-1.3,0.4-1.9,0.4c-0.6,0.1-1.1,0.1-1.6,0.1c-1.5,0-2.6-0.3-3.3-1
		c-0.8-0.7-1.1-1.7-1.1-3c0-0.7,0.1-1.5,0.4-2.2c0.2-0.7,0.6-1.4,1-2.1s1-1.3,1.6-1.8s1.3-1,2-1.4c0.7-0.4,1.5-0.7,2.4-1
		C56,46.6,56.8,46.5,57.8,46.5z M57.3,49.5c-0.6,0-1.2,0.1-1.7,0.3c-0.5,0.2-1,0.4-1.5,0.8s-0.9,0.7-1.3,1.1c-0.4,0.4-0.7,0.8-1,1.2
		c-0.3,0.4-0.5,0.8-0.6,1.2c-0.1,0.4-0.2,0.8-0.2,1.1c0,0.4,0.2,0.6,0.5,0.8c0.4,0.2,0.8,0.2,1.4,0.2h0.5c0.1,0,0.2,0,0.2,0
		s0.2,0,0.2,0c-0.3-0.4-0.5-0.8-0.5-1c0-0.1,0.1-0.3,0.2-0.5c0.1-0.2,0.3-0.4,0.5-0.5c0.2-0.2,0.4-0.3,0.7-0.4
		c0.3-0.1,0.6-0.2,0.9-0.2c0.5,0,1,0.4,1.3,1.2c0.8-0.6,1.3-1.3,1.7-1.9c0.4-0.7,0.5-1.3,0.5-1.9C59.1,50,58.5,49.5,57.3,49.5z"/>
	<path class="st3" d="M75.2,46.9c0.7,0,1.2,0.1,1.5,0.4c0.3,0.3,0.4,0.6,0.4,1.1c0,0.2-0.1,0.5-0.1,0.7c0,0.3-0.1,0.6-0.1,0.9
		c-0.1,0.4-0.1,0.8-0.3,1.3c-0.1,0.5-0.2,1.1-0.4,1.7c-0.2,0.8-0.5,1.5-0.9,2.3c-0.4,0.7-0.9,1.4-1.5,2c-0.6,0.6-1.3,1-2.2,1.4
		c-0.8,0.3-1.8,0.5-2.9,0.5c-0.8,0-1.5-0.1-2.1-0.2c-0.6-0.1-1.1-0.4-1.5-0.7c-0.4-0.3-0.7-0.8-0.9-1.3c-0.2-0.6-0.3-1.3-0.3-2.1
		c0-0.5,0-0.9,0-1.3c0-0.4,0-0.7,0.1-1.1c0-0.4,0.1-0.7,0.2-1.1c0.1-0.4,0.2-0.9,0.3-1.5c0.1-0.6,0.3-1.1,0.4-1.6
		c0.1-0.4,0.3-0.7,0.5-1c0.2-0.2,0.4-0.4,0.6-0.5s0.6-0.1,1-0.1c0.7,0,1.1,0.1,1.4,0.4c0.3,0.2,0.4,0.6,0.4,0.9c0,0.1,0,0.3-0.1,0.5
		c-0.1,0.2-0.2,0.5-0.3,0.8c-0.3,1-0.6,1.9-0.7,2.8c-0.1,0.9-0.2,1.6-0.2,2.1s0.1,1,0.3,1.3c0.2,0.3,0.6,0.5,1.3,0.5
		c0.4,0,0.8,0,1.2-0.1c0.4-0.1,0.9-0.3,1.3-0.7s0.8-1,1.1-1.9c0.3-0.8,0.6-2,0.7-3.5c0.1-0.6,0.1-1.2,0.2-1.5
		c0.1-0.4,0.2-0.7,0.3-0.9c0.1-0.2,0.3-0.4,0.5-0.4C74.5,46.9,74.9,46.9,75.2,46.9z"/>
	<path class="st3" d="M84.2,46.5c0.2,0,0.4,0,0.6,0.1c0.1,0,0.3,0.1,0.3,0.1s0.2,0.1,0.2,0.2c0,0.1,0.1,0.2,0.1,0.3
		c0.1,0.2,0.2,0.6,0.4,1.1c0.2,0.6,0.4,1.2,0.7,1.9c0.3,0.7,0.5,1.5,0.9,2.3c0.3,0.8,0.6,1.6,0.8,2.3s0.5,1.3,0.6,1.9
		c0.2,0.5,0.3,0.9,0.3,1c0,0.3-0.1,0.5-0.3,0.7c-0.2,0.2-0.5,0.4-0.7,0.5c-0.3,0.1-0.5,0.2-0.8,0.3s-0.4,0.1-0.4,0.1
		c-0.4,0-0.7-0.2-0.9-0.5c-0.2-0.3-0.3-0.8-0.4-1.4c-0.9,0-1.9,0-3,0s-2.2,0-3.5,0.1c-0.2,0.3-0.3,0.6-0.4,0.8
		c-0.1,0.2-0.2,0.4-0.3,0.5S78,59,77.9,59.1c-0.1,0-0.3,0.1-0.5,0.1c-0.1,0-0.3,0-0.5-0.1c-0.2-0.1-0.5-0.2-0.7-0.4
		c-0.2-0.1-0.4-0.3-0.6-0.5c-0.2-0.2-0.3-0.3-0.3-0.5c0-0.1,0.1-0.3,0.2-0.6s0.4-0.7,0.7-1.2c0.3-0.5,0.7-1,1.1-1.7
		c0.4-0.6,0.9-1.3,1.5-2c0.7-0.9,1.2-1.6,1.7-2.3c0.5-0.6,0.9-1.1,1.3-1.6c0.4-0.4,0.7-0.8,0.9-1c0.2-0.2,0.5-0.4,0.6-0.6
		c0.2-0.1,0.3-0.2,0.5-0.3C83.9,46.5,84.1,46.5,84.2,46.5z M83.4,51.2c-0.4,0.4-0.8,0.9-1.1,1.4s-0.8,1.1-1.3,1.8
		c0.6,0,1.3,0,1.8,0.1c0.6,0,1.2,0.1,1.7,0.2c-0.2-0.5-0.4-1-0.6-1.6C83.7,52.5,83.5,51.9,83.4,51.2z"/>
	<path class="st3" d="M103.5,46.7c0.6,0,1,0.1,1.4,0.3c0.4,0.2,0.6,0.5,0.6,1c0,0.2,0,0.4,0,0.6c0,0.2,0,0.4,0,0.6
		c0,1,0.1,1.9,0.2,2.8c0.1,0.9,0.2,1.7,0.4,2.4c0.1,0.7,0.3,1.3,0.4,1.7c0.1,0.4,0.2,0.7,0.2,0.7c0.2,0.4,0.3,0.7,0.3,1
		c0,0.2-0.1,0.5-0.2,0.7c-0.1,0.2-0.3,0.4-0.5,0.6c-0.2,0.2-0.4,0.3-0.6,0.4c-0.2,0.1-0.4,0.1-0.5,0.1c-0.2,0-0.4-0.1-0.6-0.4
		c-0.2-0.3-0.4-0.7-0.6-1.2c-0.2-0.5-0.4-1.1-0.6-1.8c-0.2-0.7-0.4-1.5-0.5-2.4c-0.7,1.3-1.3,2.4-1.7,3.1c-0.5,0.8-0.8,1.4-1.2,1.8
		c-0.3,0.4-0.6,0.7-0.9,0.8s-0.5,0.2-0.8,0.2c-0.3,0-0.6,0-0.8-0.1s-0.4-0.1-0.5-0.2c-0.1-0.1-0.2-0.3-0.3-0.5
		c-0.1-0.2-0.1-0.5-0.2-0.9c-0.1-0.4-0.2-0.9-0.3-1.6c-0.1-0.7-0.2-1.6-0.3-2.6c-0.3,0.5-0.6,1-0.8,1.5c-0.3,0.5-0.5,0.9-0.7,1.3
		c-0.2,0.4-0.4,0.7-0.5,0.9c-0.1,0.3-0.2,0.4-0.2,0.5c-0.1,0.4-0.2,0.7-0.5,1c-0.3,0.3-0.7,0.4-1.1,0.4c-0.1,0-0.3,0-0.5-0.1
		c-0.2,0-0.4-0.1-0.6-0.3s-0.4-0.3-0.5-0.5c-0.1-0.2-0.2-0.4-0.2-0.7c0-0.2,0-0.4,0.1-0.6s0.2-0.5,0.4-0.8c0.2-0.3,0.3-0.6,0.5-0.9
		c0.2-0.3,0.4-0.7,0.6-1c0.4-0.6,0.7-1.2,1-1.7c0.3-0.5,0.6-1,0.8-1.4l1.1-2.1h0c0.3-0.5,0.5-0.9,0.6-1.2c0.2-0.3,0.3-0.5,0.5-0.7
		c0.2-0.2,0.4-0.3,0.6-0.3s0.5-0.1,0.8-0.1c0.3,0,0.6,0,0.8,0.1c0.2,0.1,0.4,0.2,0.6,0.5c0,0.1,0.1,0.3,0.1,0.6
		c0,0.3,0.1,0.7,0.1,1.1c0,0.4,0.1,0.8,0.1,1.3s0.1,0.9,0.1,1.4s0.1,0.9,0.1,1.2c0,0.4,0.1,0.6,0.1,0.8c0.5-0.9,0.9-1.8,1.3-2.7
		c0.4-0.9,0.9-1.9,1.4-3.1c0.1-0.1,0.1-0.3,0.2-0.4c0.1-0.1,0.2-0.3,0.3-0.4c0.1-0.1,0.3-0.2,0.5-0.3
		C102.9,46.7,103.2,46.7,103.5,46.7z"/>
	<path class="st3" d="M116.6,46.5c0.2,0,0.4,0,0.6,0.1c0.1,0,0.3,0.1,0.3,0.1s0.2,0.1,0.2,0.2c0,0.1,0.1,0.2,0.1,0.3
		c0.1,0.2,0.2,0.6,0.4,1.1c0.2,0.6,0.4,1.2,0.7,1.9c0.3,0.7,0.5,1.5,0.9,2.3c0.3,0.8,0.6,1.6,0.8,2.3s0.5,1.3,0.6,1.9
		c0.2,0.5,0.3,0.9,0.3,1c0,0.3-0.1,0.5-0.3,0.7c-0.2,0.2-0.5,0.4-0.7,0.5c-0.3,0.1-0.5,0.2-0.8,0.3s-0.4,0.1-0.4,0.1
		c-0.4,0-0.7-0.2-0.9-0.5c-0.2-0.3-0.3-0.8-0.4-1.4c-0.9,0-1.9,0-3,0s-2.2,0-3.5,0.1c-0.2,0.3-0.3,0.6-0.4,0.8
		c-0.1,0.2-0.2,0.4-0.3,0.5s-0.2,0.2-0.3,0.2c-0.1,0-0.3,0.1-0.5,0.1c-0.1,0-0.3,0-0.5-0.1c-0.2-0.1-0.5-0.2-0.7-0.4
		c-0.2-0.1-0.4-0.3-0.6-0.5c-0.2-0.2-0.3-0.3-0.3-0.5c0-0.1,0.1-0.3,0.2-0.6s0.4-0.7,0.7-1.2c0.3-0.5,0.7-1,1.1-1.7
		c0.4-0.6,0.9-1.3,1.5-2c0.7-0.9,1.2-1.6,1.7-2.3c0.5-0.6,0.9-1.1,1.3-1.6c0.4-0.4,0.7-0.8,0.9-1c0.2-0.2,0.5-0.4,0.6-0.6
		c0.2-0.1,0.3-0.2,0.5-0.3C116.3,46.5,116.5,46.5,116.6,46.5z M115.8,51.2c-0.4,0.4-0.8,0.9-1.1,1.4s-0.8,1.1-1.3,1.8
		c0.6,0,1.3,0,1.8,0.1c0.6,0,1.2,0.1,1.7,0.2c-0.2-0.5-0.4-1-0.6-1.6C116.1,52.5,115.9,51.9,115.8,51.2z"/>
	<path class="st3" d="M127.1,46.7c0.9,0,1.4,0.3,1.5,0.9c0.9,3,2.4,5.3,4.6,7c0.2-1.1,0.4-2,0.5-2.8c0.1-0.8,0.2-1.5,0.3-2.1
		c0.1-0.6,0.2-1,0.3-1.4s0.2-0.7,0.3-0.9c0.1-0.2,0.3-0.3,0.6-0.4s0.6-0.1,1-0.1c0.4,0,0.7,0,0.9,0.1s0.4,0.1,0.5,0.2
		s0.2,0.2,0.3,0.3s0.1,0.2,0.1,0.3c0,0.2,0,0.4,0,0.6c0,0.2-0.1,0.5-0.1,0.9c-0.1,0.3-0.1,0.8-0.3,1.3s-0.2,1.2-0.4,2
		c-0.1,0.3-0.1,0.8-0.2,1.3c-0.1,0.5-0.2,1.1-0.3,1.7c-0.1,0.6-0.2,1.1-0.2,1.6s-0.2,0.8-0.2,1c-0.1,0.2-0.3,0.4-0.6,0.5
		c-0.3,0.1-0.7,0.2-1.2,0.2c-0.7,0-1.3-0.2-2-0.5c-0.7-0.4-1.3-0.8-1.9-1.4s-1.2-1.2-1.7-1.9c-0.5-0.7-1-1.4-1.5-2.1
		c0,0.1-0.1,0.3-0.1,0.4c0,0.1-0.1,0.2-0.1,0.3l-0.2,0.7c-0.1,0.2-0.1,0.4-0.2,0.7c-0.1,0.2-0.1,0.5-0.2,0.8
		c-0.1,0.4-0.1,0.8-0.2,1.2c0,0.4-0.1,0.7-0.1,0.9c-0.1,0.3-0.2,0.5-0.3,0.6c-0.1,0.1-0.4,0.2-0.7,0.2c-0.5,0-1,0-1.3-0.1
		c-0.3-0.1-0.6-0.2-0.7-0.3c-0.2-0.1-0.3-0.3-0.3-0.4c-0.1-0.2-0.1-0.3-0.1-0.5c0,0,0-0.3,0.1-0.7s0.2-1,0.4-1.6
		c0.1-0.6,0.3-1.3,0.5-2.1c0.2-0.8,0.3-1.5,0.5-2.2c0.2-0.7,0.3-1.3,0.4-1.8c0.1-0.5,0.2-0.9,0.2-1.1c0.1-0.3,0.3-0.6,0.7-0.8
		C125.8,46.9,126.4,46.7,127.1,46.7z"/>
</g>
</svg>
