<?xml version="1.0" encoding="utf-8"?>
<!-- Generator: Adobe Illustrator 21.0.0, SVG Export Plug-In . SVG Version: 6.00 Build 0)  -->
<svg version="1.1" id="Layer_1" xmlns="http://www.w3.org/2000/svg" xmlns:xlink="http://www.w3.org/1999/xlink" x="0px" y="0px"
	 viewBox="0 0 267 406" style="enable-background:new 0 0 267 406;" xml:space="preserve">
<style type="text/css">
	.st0{fill:#EEE8D7;}
	.st1{fill:#117C2F;}
	.st2{opacity:0.3;clip-path:url(#SVGID_2_);}
	.st3{fill:#231F20;}
	.st4{fill:#0D6A2A;}
	.st5{fill:#999999;}
	.st6{fill:#666666;}
	.st7{fill:none;stroke:#666666;stroke-width:2;stroke-miterlimit:10;}
	.st8{fill:#EE1100;}
	.st9{fill:#AC97B0;}
	.st10{fill:#FFCC11;}
	.st11{fill:#FFFFFF;}
</style>
<g>
	<g>
		<path class="st0" d="M14.6,406.1c-7.8,0-14.2-6.4-14.2-14.2V14.7c0-7.8,6.4-14.2,14.2-14.2h238.3c7.8,0,14.2,6.4,14.2,14.2v377.3
			c0,7.8-6.4,14.2-14.2,14.2L14.6,406.1L14.6,406.1z"/>
	</g>
	<g>
		<path class="st1" d="M260,391.9c0,3.9-3.2,7.1-7.1,7.1H14.6c-3.9,0-7.1-3.2-7.1-7.1V14.7c0-3.9,3.2-7.1,7.1-7.1h238.3
			c3.9,0,7.1,3.2,7.1,7.1V391.9z"/>
	</g>
	<g>
		<g>
			<defs>
				<path id="SVGID_1_" d="M260,391.9c0,3.9-3.2,7.1-7.1,7.1H14.6c-3.9,0-7.1-3.2-7.1-7.1V14.7c0-3.9,3.2-7.1,7.1-7.1h238.3
					c3.9,0,7.1,3.2,7.1,7.1V391.9z"/>
			</defs>
			<clipPath id="SVGID_2_">
				<use xlink:href="#SVGID_1_"  style="overflow:visible;"/>
			</clipPath>
			<g class="st2">
				<g>
					
						<rect x="-120" y="-114.8" transform="matrix(0.7075 -0.7068 0.7068 0.7075 119.9946 61.0732)" class="st3" width="507.5" height="0.7"/>
				</g>
				<g>
					
						<rect x="-120" y="-69.4" transform="matrix(0.7075 -0.7068 0.7068 0.7075 87.9169 74.3525)" class="st3" width="507.5" height="0.7"/>
				</g>
				<g>
					
						<rect x="-120" y="-24" transform="matrix(0.7075 -0.7067 0.7067 0.7075 55.825 87.622)" class="st3" width="507.5" height="0.7"/>
				</g>
				<g>
					
						<rect x="-120" y="21.4" transform="matrix(0.7075 -0.7068 0.7068 0.7075 23.7618 100.9113)" class="st3" width="507.5" height="0.7"/>
				</g>
				<g>
					
						<rect x="-120" y="66.8" transform="matrix(0.7075 -0.7067 0.7067 0.7075 -8.3216 114.1727)" class="st3" width="507.5" height="0.7"/>
				</g>
				<g>
					
						<rect x="-120" y="112.2" transform="matrix(0.7075 -0.7067 0.7067 0.7075 -40.3951 127.4478)" class="st3" width="507.5" height="0.7"/>
				</g>
				<g>
					
						<rect x="-120" y="157.6" transform="matrix(0.7075 -0.7068 0.7068 0.7075 -72.4712 140.7498)" class="st3" width="507.5" height="0.7"/>
				</g>
				<g>
					
						<rect x="-120" y="202.9" transform="matrix(0.7075 -0.7067 0.7067 0.7075 -104.5415 153.9982)" class="st3" width="507.5" height="0.7"/>
				</g>
				<g>
					
						<rect x="-120" y="248.3" transform="matrix(0.7075 -0.7068 0.7068 0.7075 -136.6259 167.3081)" class="st3" width="507.5" height="0.7"/>
				</g>
				<g>
					
						<rect x="-120" y="293.7" transform="matrix(0.7075 -0.7067 0.7067 0.7075 -168.6888 180.5485)" class="st3" width="507.5" height="0.7"/>
				</g>
				<g>
					
						<rect x="-120" y="339.1" transform="matrix(0.7075 -0.7068 0.7068 0.7075 -200.7807 193.8671)" class="st3" width="507.5" height="0.7"/>
				</g>
				<g>
					
						<rect x="-120" y="384.5" transform="matrix(0.7075 -0.7067 0.7067 0.7075 -232.8351 207.0984)" class="st3" width="507.5" height="0.7"/>
				</g>
				<g>
					
						<rect x="-120" y="429.9" transform="matrix(0.7075 -0.7067 0.7067 0.7075 -264.9086 220.3745)" class="st3" width="507.5" height="0.7"/>
				</g>
				<g>
					
						<rect x="-119.9" y="475.3" transform="matrix(0.7075 -0.7068 0.7068 0.7075 -297.0128 233.7048)" class="st3" width="507.5" height="0.7"/>
				</g>
				<g>
					
						<rect x="-120" y="520.6" transform="matrix(0.7075 -0.7067 0.7067 0.7075 -329.055 246.9245)" class="st3" width="507.5" height="0.7"/>
				</g>
			</g>
		</g>
	</g>
</g>
<g>
	<path class="st4" d="M232.4,242.9l-91.1,118.7L50.1,242.9l20.4-16.3l22.1-5.2l14-9.5c0,0-3.2-22.1,6.6-42.1
		c3.1-6.7-0.3-7.4-0.3-7.4s13.9-15.8,31.1-11.4c15.4,3,21.9,12.3,23.1,14.2c0.1,0.2,0.3,0.4,0.4,0.6c1.5,1.7,10,12.5,7.6,45.6
		l14.5,10.7l20.8,3.6L232.4,242.9z"/>
	<path d="M140.5,173.5c0,0-30.5,10.6-26.8,49.9l27.5,22.2l27.1-23.5C168.3,222.1,171,187.6,140.5,173.5z"/>
	<path class="st5" d="M115.2,202.5v12.6l16,17.2H149l16.4-16.8v-13c0,0-3.2-20.3-25-29C120.4,181.1,115.2,202.5,115.2,202.5z"/>
	<polygon class="st6" points="165.1,200.9 152.1,202.9 155.5,225.7 165.5,215.5 	"/>
	<polygon class="st6" points="115.2,200.9 129.9,202.9 126.4,227 115.2,215.1 	"/>
	<g>
		<path class="st6" d="M133.4,204c0.3,0.9,0.5,1.9,0.7,2.8c0.2,0.9,0.3,1.9,0.4,2.8l-0.8-1c2.4,0.3,4.8,0.9,7.1,1.5l-0.8,0
			c2.3-0.6,4.7-1.1,7.1-1.5l-0.8,1c0.2-1.9,0.5-3.7,1.1-5.6c0.6,1.9,0.8,3.7,1.1,5.6l0.1,0.7l-0.9,0.4c-2.2,0.9-4.5,1.7-6.9,2.3
			l-0.4,0.1l-0.4-0.1c-2.3-0.6-4.6-1.4-6.9-2.3l-0.9-0.4l0.1-0.7c0.1-0.9,0.3-1.9,0.4-2.8C132.9,205.9,133.1,204.9,133.4,204z"/>
	</g>
	<polygon points="121.7,191.8 133.4,197.1 133.4,200.9 120,198.8 	"/>
	<polygon points="159.4,191.8 147.8,197.1 147.8,200.9 161.1,198.8 	"/>
	<path d="M131.6,216.1l8.7,2l9.9-2c0,0,1.6,1.9,1.9,3.3s-1.7,3.4-1.7,3.4l-10-1.4l-8,1.4c0,0-2.2-0.6-2.4-2.7
		S131.6,216.1,131.6,216.1z"/>
	<line class="st7" x1="129.9" y1="220.1" x2="152.1" y2="219.4"/>
	<line class="st7" x1="133.4" y1="216.5" x2="133.4" y2="222.6"/>
	<line class="st7" x1="148.2" y1="216.5" x2="148.2" y2="222.5"/>
	<polygon class="st8" points="151,197.6 154.7,196.9 152.7,198.9 	"/>
	<polygon class="st8" points="129.8,197.7 126.1,196.8 128,198.9 	"/>
	<rect x="123.9" y="243" class="st9" width="32.6" height="3.2"/>
	<rect x="123.9" y="248" class="st9" width="32.6" height="3.2"/>
	<circle class="st10" cx="169.1" cy="245.8" r="14.1"/>
	<path class="st11" d="M159.2,235.8l14,23.5c0,0-2.5,0.6-4,0.6l-12.2-21.2C156.9,238.7,158.4,236.5,159.2,235.8z"/>
	<polygon class="st11" points="163.4,232.9 177.7,257.1 176,258.1 161.8,233.8 	"/>
	<circle class="st10" cx="111.9" cy="245.8" r="14.1"/>
	<path class="st11" d="M101.9,235.8l14,23.5c0,0-2.5,0.6-4,0.6l-12.2-21.2C99.7,238.7,101.2,236.5,101.9,235.8z"/>
	<polygon class="st11" points="106.2,232.9 120.4,257.1 118.8,258.1 104.5,233.8 	"/>
</g>
<g>
	<path class="st10" d="M65.1,83.1c1.9,0,3.7,0.2,5.3,0.5c1.6,0.3,2.9,0.8,4,1.5c1.1,0.7,2,1.5,2.6,2.5c0.6,1,0.9,2.2,0.9,3.5
		c0,1.7-0.5,3.4-1.5,5c-1,1.7-2.4,3.1-4.2,4.4c-1.8,1.3-4,2.3-6.5,3.1c-2.6,0.8-5.4,1.2-8.6,1.2c-0.9,0-1.6,0-2.1-0.1
		c-0.5-0.1-1-0.2-1.3-0.3c-0.3-0.1-0.5-0.3-0.6-0.5c-0.1-0.2-0.2-0.5-0.2-0.7c0-0.4,0.1-1,0.2-1.7s0.2-1.5,0.4-2.4
		c0.2-0.9,0.3-1.8,0.6-2.8s0.4-1.9,0.7-2.8c0.2-0.9,0.5-1.8,0.7-2.7c0.2-0.8,0.5-1.6,0.7-2.2c-0.7-0.3-1.1-0.9-1.1-1.9
		c0.1-0.9,0.3-1.5,0.7-2c0.4-0.5,1.1-0.9,1.9-1.1c0.8-0.2,1.8-0.4,3.1-0.4C61.9,83.1,63.4,83.1,65.1,83.1z M64.6,88.5
		c-0.4,0-0.8,0-1.2,0c-0.4,0-0.8,0.1-1.2,0.1c-0.2,0.9-0.5,1.8-0.7,2.8c-0.2,1-0.5,2-0.7,2.9c-0.2,1-0.4,1.9-0.6,2.8
		c-0.2,0.9-0.3,1.8-0.5,2.5c1.6-0.1,3.1-0.3,4.5-0.7c1.4-0.4,2.7-0.9,3.8-1.6s2-1.4,2.6-2.3c0.7-0.9,1-1.9,1-3
		c0-1.3-0.6-2.2-1.8-2.8C68.6,88.8,66.8,88.5,64.6,88.5z"/>
	<path class="st10" d="M89,83.4c3,0,5.6,0.2,7.6,0.5s3.6,0.8,4.8,1.4s2,1.3,2.5,2c0.5,0.8,0.7,1.6,0.7,2.5c0,0.8-0.2,1.6-0.7,2.3
		c-0.5,0.7-1.1,1.4-2,1.9c-0.8,0.6-1.8,1.1-2.9,1.5c-1.1,0.4-2.2,0.8-3.4,1.1c0.9,0.9,1.7,1.7,2.4,2.2c0.7,0.6,1.3,1,1.7,1.3
		s0.9,0.5,1.2,0.7c0.3,0.1,0.5,0.3,0.7,0.4c0.2,0.1,0.3,0.2,0.3,0.4c0.1,0.1,0.1,0.4,0.1,0.7c0,0.5-0.1,0.9-0.4,1.2s-0.6,0.7-1,1
		c-0.4,0.3-0.7,0.5-1.1,0.6c-0.4,0.2-0.7,0.2-0.9,0.2c0,0-0.3-0.1-0.7-0.2c-0.4-0.1-1-0.4-1.7-0.9c-0.8-0.5-1.6-1.2-2.7-2.2
		S91.3,99.7,90,98c-0.5,0-0.9,0.1-1.5,0.1c-0.5,0-1.1,0-1.6,0H86c-0.2,1.1-0.3,1.9-0.4,2.4c-0.1,0.5-0.1,0.9-0.1,1.2v0.5
		c0,0.2,0,0.5-0.1,0.8c0,0.3-0.2,0.5-0.3,0.7s-0.4,0.4-0.8,0.6c-0.3,0.1-0.8,0.2-1.4,0.2c-1.2,0-2.1-0.1-2.6-0.4
		c-0.5-0.3-0.8-0.9-0.8-1.7c0-0.3,0.1-1,0.3-2c0.2-1,0.4-2.2,0.7-3.6c0.3-1.4,0.6-2.8,0.9-4.3c0.3-1.5,0.6-2.9,0.8-4.2
		c-0.2-0.2-0.3-0.5-0.4-0.7c-0.1-0.3-0.1-0.5-0.1-0.8c0-0.5,0.1-1,0.2-1.4c0.1-0.4,0.5-0.7,1-1c0.5-0.3,1.2-0.5,2.2-0.6
		C86.1,83.5,87.4,83.4,89,83.4z M90.2,88.7c-0.3,0-0.7,0-1,0c-0.3,0-0.7,0-1.3,0.1c-0.1,0.5-0.3,1.1-0.4,1.8
		c-0.1,0.7-0.3,1.5-0.4,2.7c1.6-0.1,3.1-0.2,4.5-0.4c1.4-0.2,2.6-0.5,3.7-0.7c1-0.3,1.8-0.6,2.4-1s0.9-0.8,0.9-1.2
		c0-0.4-0.6-0.7-1.9-0.9c-1.3-0.2-3.2-0.3-5.7-0.3H90.2z"/>
	<path class="st10" d="M109.6,98.4c1.1,0,1.8,0.1,2.1,0.4c0.4,0.3,0.5,0.8,0.5,1.5c0,0.8-0.1,1.5-0.2,2c-0.1,0.5-0.3,0.9-0.6,1.2
		c-0.3,0.3-0.7,0.5-1.2,0.6c-0.5,0.1-1.1,0.2-1.8,0.2c-1.2,0-2.1-0.2-2.5-0.5c-0.4-0.3-0.6-0.8-0.6-1.5c0-0.8,0.1-1.5,0.3-2
		c0.2-0.5,0.4-0.9,0.8-1.2c0.4-0.3,0.8-0.5,1.3-0.6C108.2,98.5,108.8,98.4,109.6,98.4z"/>
	<path class="st10" d="M138.5,83.1c1.9,0,3.7,0.2,5.3,0.5c1.6,0.3,2.9,0.8,4,1.5c1.1,0.7,2,1.5,2.6,2.5c0.6,1,0.9,2.2,0.9,3.5
		c0,1.7-0.5,3.4-1.5,5c-1,1.7-2.4,3.1-4.2,4.4c-1.8,1.3-4,2.3-6.5,3.1c-2.6,0.8-5.4,1.2-8.6,1.2c-0.9,0-1.6,0-2.1-0.1
		c-0.5-0.1-1-0.2-1.3-0.3c-0.3-0.1-0.5-0.3-0.6-0.5c-0.1-0.2-0.2-0.5-0.2-0.7c0-0.4,0.1-1,0.2-1.7s0.2-1.5,0.4-2.4
		c0.2-0.9,0.3-1.8,0.6-2.8s0.4-1.9,0.7-2.8c0.2-0.9,0.5-1.8,0.7-2.7c0.2-0.8,0.5-1.6,0.7-2.2c-0.7-0.3-1.1-0.9-1.1-1.9
		c0.1-0.9,0.3-1.5,0.7-2c0.4-0.5,1.1-0.9,1.9-1.1c0.8-0.2,1.8-0.4,3.1-0.4C135.4,83.1,136.8,83.1,138.5,83.1z M138,88.5
		c-0.4,0-0.8,0-1.2,0c-0.4,0-0.8,0.1-1.2,0.1c-0.2,0.9-0.5,1.8-0.7,2.8s-0.5,2-0.7,2.9c-0.2,1-0.4,1.9-0.6,2.8
		c-0.2,0.9-0.3,1.8-0.5,2.5c1.6-0.1,3.1-0.3,4.5-0.7c1.4-0.4,2.7-0.9,3.8-1.6s2-1.4,2.6-2.3s1-1.9,1-3c0-1.3-0.6-2.2-1.8-2.8
		C142,88.8,140.3,88.5,138,88.5z"/>
	<path class="st10" d="M168.6,83.5c1.4,0,2.7,0.2,3.9,0.6c1.2,0.4,2.2,0.9,3,1.6c0.8,0.7,1.5,1.5,1.9,2.5c0.5,1,0.7,2.1,0.7,3.2
		c0,1.8-0.5,3.4-1.4,5c-0.9,1.6-2.1,3-3.6,4.2c-1.5,1.2-3.2,2.1-5.2,2.8c-2,0.7-4,1.1-6.1,1.1c-2.9,0-5.2-0.6-6.7-1.8
		c-1.5-1.2-2.3-3-2.3-5.4c0-2,0.5-3.8,1.5-5.5c1-1.7,2.2-3.2,3.8-4.4c1.5-1.2,3.2-2.2,5.1-2.9S166.8,83.5,168.6,83.5z M168.4,88.9
		c-1,0-2.1,0.3-3.3,0.8c-1.2,0.5-2.2,1.2-3.2,2s-1.8,1.7-2.4,2.7c-0.6,1-1,1.9-1,2.8c0,1.4,1.3,2,3.8,2c1.2,0,2.4-0.2,3.5-0.6
		c1.2-0.4,2.2-1,3.1-1.7s1.7-1.5,2.3-2.4c0.6-0.9,0.9-1.8,0.9-2.8c0-0.9-0.3-1.5-1-2C170.5,89.1,169.6,88.9,168.4,88.9z"/>
	<path class="st10" d="M195.4,83.5c1.4,0,2.7,0.2,3.9,0.6c1.2,0.4,2.2,0.9,3,1.6c0.8,0.7,1.5,1.5,1.9,2.5c0.5,1,0.7,2.1,0.7,3.2
		c0,1.8-0.5,3.4-1.4,5c-0.9,1.6-2.1,3-3.6,4.2c-1.5,1.2-3.2,2.1-5.2,2.8c-2,0.7-4,1.1-6.1,1.1c-2.9,0-5.2-0.6-6.7-1.8
		c-1.5-1.2-2.3-3-2.3-5.4c0-2,0.5-3.8,1.5-5.5c1-1.7,2.2-3.2,3.8-4.4c1.5-1.2,3.2-2.2,5.1-2.9S193.6,83.5,195.4,83.5z M195.1,88.9
		c-1,0-2.1,0.3-3.3,0.8c-1.2,0.5-2.2,1.2-3.2,2s-1.8,1.7-2.4,2.7c-0.6,1-1,1.9-1,2.8c0,1.4,1.3,2,3.8,2c1.2,0,2.4-0.2,3.5-0.6
		c1.2-0.4,2.2-1,3.1-1.7s1.7-1.5,2.3-2.4c0.6-0.9,0.9-1.8,0.9-2.8c0-0.9-0.3-1.5-1-2C197.3,89.1,196.4,88.9,195.1,88.9z"/>
	<path class="st10" d="M227.4,83.3c1,0,1.8,0.2,2.4,0.5c0.7,0.3,1,0.8,1,1.6c0,0.7,0,1.3-0.1,2c0,0.6-0.1,1.3-0.1,1.9
		c0,2.1,0.1,3.8,0.3,5.2c0.2,1.4,0.4,2.5,0.6,3.4c0.2,0.9,0.5,1.6,0.7,2.2c0.2,0.6,0.3,1.1,0.3,1.6c0,0.4-0.1,0.8-0.4,1.2
		c-0.3,0.4-0.6,0.7-0.9,1s-0.7,0.5-1.1,0.6c-0.4,0.2-0.7,0.2-0.9,0.2c-0.4,0-0.7-0.2-1.1-0.7s-0.7-1.1-1-2c-0.3-0.9-0.6-1.9-0.9-3.1
		c-0.3-1.2-0.5-2.5-0.7-4c-1.2,2.2-2.3,4-3.1,5.3c-0.8,1.3-1.5,2.2-2.1,2.9c-0.6,0.7-1.1,1.1-1.5,1.3c-0.4,0.2-0.8,0.3-1.3,0.3
		c-0.8,0-1.5-0.3-1.9-0.7c-0.4-0.5-0.8-1.2-1.1-2.1c-0.3-0.9-0.5-2-0.7-3.3c-0.2-1.3-0.5-2.7-0.8-4.3c-0.5,1-0.9,2-1.3,2.9
		c-0.4,0.9-0.8,1.7-1.1,2.4s-0.6,1.3-0.8,1.8c-0.2,0.5-0.3,0.8-0.3,1c-0.1,0.7-0.4,1.2-0.8,1.7c-0.4,0.5-1.1,0.7-1.9,0.7
		c-0.2,0-0.5,0-0.9-0.1c-0.4-0.1-0.7-0.2-1-0.4c-0.3-0.2-0.6-0.5-0.9-0.8c-0.3-0.3-0.4-0.7-0.4-1.2c0-0.4,0.1-1,0.4-1.8
		c0.3-0.8,0.6-1.7,1.1-2.7c0.4-1,0.9-2,1.4-3.1s1-2.1,1.5-3.1c0.5-1,0.9-1.9,1.3-2.7c0.4-0.8,0.7-1.4,0.8-1.8c0.3-0.8,0.6-1.5,0.9-2
		c0.2-0.5,0.5-0.9,0.7-1.2c0.3-0.3,0.5-0.5,0.9-0.6c0.3-0.1,0.8-0.2,1.4-0.2c0.5,0,1,0.1,1.5,0.4c0.5,0.3,0.8,0.8,1.1,1.5
		c0.2,0.6,0.5,1.8,0.9,3.6c0.4,1.8,0.9,4.1,1.4,7c1-1.4,1.9-2.9,2.8-4.6s1.8-3.4,2.7-5.4c0.1-0.2,0.2-0.4,0.3-0.7
		c0.1-0.3,0.3-0.5,0.6-0.8c0.2-0.2,0.5-0.5,0.9-0.6C226.4,83.4,226.9,83.3,227.4,83.3z"/>
</g>
</svg>
