<?xml version="1.0" encoding="utf-8"?>
<!-- Generator: Adobe Illustrator 21.0.0, SVG Export Plug-In . SVG Version: 6.00 Build 0)  -->
<svg version="1.1" id="Layer_1" xmlns="http://www.w3.org/2000/svg" xmlns:xlink="http://www.w3.org/1999/xlink" x="0px" y="0px"
	 viewBox="0 0 167.1 223.3" style="enable-background:new 0 0 167.1 223.3;" xml:space="preserve">
<style type="text/css">
	.st0{fill:#EEE8D7;}
	.st1{fill:#DD2626;}
	.st2{fill:#F6D30A;}
</style>
<title>Asset 5</title>
<g>
	<g>
		<path class="st0" d="M8.9,223.3c-4.9,0-8.9-3.5-8.9-7.8V7.8C0,3.5,4,0,8.9,0h149.3c4.9,0,8.9,3.5,8.9,7.8v207.7
			c0,4.3-4,7.8-8.9,7.8L8.9,223.3L8.9,223.3z"/>
	</g>
	<path class="st1" d="M162.7,215.5c0,2.2-2,3.9-4.4,3.9H8.9c-2.5,0-4.4-1.8-4.4-3.9V7.8c0-2.2,2-3.9,4.4-3.9h149.3
		c2.5,0,4.4,1.8,4.4,3.9v207.7H162.7z"/>
</g>
<g id="Layer_2">
	<g id="Layer_2-2">
		<path class="st2" d="M78.8,146c0,0,0-1.6-2.2-1.1c0-1.6-1.1,0-1.6,0.5l-3.3-0.5l5.5-3.8c0,0,6.5-3.8,7.6-3.8
			c1.1,0-1.1,2.7-1.1,2.7s-1.1,4.4,1.6,0.5c2.7-3.8,2.2-2.2,2.2-2.2s17.5,0.5,4.9-7.1c-2.7-0.5,4.4-3.8,4.4-3.8s6.5,7.1,7.6-1.6
			c0.2-2.8-0.5-3.8-0.7-3.9c-0.4,0.1-2,1.6-2,2.3c0,0.7,0.4,0.7,0.7,0.7c0.1,0,0.3,0.1,0.3,0.2c0,0,0,0.1,0,0.1
			c-0.4,1.1-1.6,3.4-4.2-0.5v-0.5c2.2-1.6,0.5-7.6-2.7-3.3l-0.5-1.6v2.2c0,0,0,1.6-2.2,1.1c-6-1.1-7.1-5.5-12.8,4.6l-10.4,1.6
			L133.1,71l-27.5,40.1h15.3l-20.7,23.5h11.5L34,195.1l36.5-42.5L58,155.9l6.5-7.1l20.2-2.2L78.8,146z"/>
		<path class="st2" d="M68.4,143.9l15.8-17.5l-1.6,0.5l1.6-2.2c0,0,3.8-2.7,4.9,0c1.1,2.7-5.5,7.6-5.5,7.6L70,143.9H68.4z"/>
		<path class="st2" d="M88.3,133.8c0,0,5.5,2.2-2.2,2.7L88.3,133.8z"/>
	</g>
</g>
<g>
	<path class="st2" d="M59.5,46.6c0.5,0,0.9,0,1.4,0.1s0.9,0.1,1.2,0.2c0.4,0.1,0.7,0.2,0.9,0.4c0.2,0.2,0.3,0.4,0.3,0.7
		c0,0.5,0,0.9-0.1,1.1c-0.1,0.3-0.2,0.5-0.3,0.6c-0.1,0.2-0.3,0.3-0.5,0.3c-0.2,0-0.4,0.1-0.6,0.1c-0.1,0-0.3,0-0.5,0
		c-0.2,0-0.5-0.1-0.8-0.1c-0.3,0-0.8-0.1-1.3-0.1c-0.5,0-1.1,0-1.9,0h-0.9c-0.4,0-0.8,0-1.1,0S54.5,50,54,50c0,0.1-0.1,0.3-0.1,0.6
		c0,0.3-0.1,0.5-0.1,0.7c1.3,0,2.5-0.1,3.7-0.2c1.1-0.1,2.3-0.1,3.5-0.1c0.3,0,0.5,0,0.7,0.1c0.2,0.1,0.3,0.1,0.4,0.3
		c0.1,0.1,0.1,0.2,0.1,0.4s0,0.3,0,0.5c0,0.1,0,0.3,0,0.5s-0.1,0.4-0.1,0.6c-0.1,0.2-0.2,0.4-0.4,0.5c-0.2,0.2-0.4,0.2-0.6,0.3
		c-0.1,0-0.4,0-0.8,0c-0.4,0-0.8,0-1.4,0.1s-1.1,0-1.6,0.1c-0.6,0-1.1,0-1.6,0.1s-1,0-1.4,0.1c-0.4,0-0.7,0-0.8,0.1
		c-0.2,1-0.4,1.8-0.5,2.4c-0.1,0.6-0.3,1-0.4,1.3c-0.1,0.3-0.3,0.5-0.5,0.6c-0.2,0.1-0.5,0.1-0.8,0.1c-0.4,0-0.8,0-1-0.1
		c-0.2-0.1-0.4-0.1-0.5-0.3s-0.2-0.2-0.2-0.3s0-0.2,0-0.4c0-0.2,0-0.5,0.1-1.1c0.1-0.6,0.2-1.2,0.3-1.9c0.1-0.7,0.3-1.5,0.4-2.3
		c0.2-0.8,0.3-1.5,0.4-2.2c0.1-0.7,0.3-1.2,0.3-1.7c0.1-0.5,0.2-0.8,0.3-1.1c0.1-0.3,0.3-0.5,0.4-0.6s0.4-0.2,0.7-0.2
		c0.1,0,0.4,0,0.8,0c0.4,0,0.8,0,1.3,0c0.5,0,1,0,1.6,0s1.1,0,1.6-0.1c0.5,0,0.9,0,1.2,0S59.4,46.6,59.5,46.6z"/>
	<path class="st2" d="M71.8,55.5c1,0,1.5,0.5,1.5,1.4c0,0.5-0.1,0.8-0.2,1.1c-0.2,0.3-0.4,0.5-0.7,0.7c-0.3,0.2-0.7,0.3-1.1,0.3
		C70.8,59,70.4,59,69.9,59c-0.5,0-1.1,0-1.7,0c-0.6,0-1.2,0-1.7-0.1c-0.6,0-1-0.1-1.5-0.1c-0.4,0-0.7,0-0.9-0.1
		c-0.3,0-0.6,0-0.8-0.1c-0.2,0-0.4-0.1-0.5-0.2s-0.2-0.2-0.2-0.4c0-0.2-0.1-0.4-0.1-0.7c0-0.1,0-0.4,0.1-0.8
		c0.1-0.4,0.1-0.8,0.2-1.4c0.1-0.5,0.2-1.1,0.3-1.8c0.1-0.7,0.3-1.3,0.4-2c0.2-0.7,0.3-1.3,0.5-2c0.2-0.6,0.3-1.2,0.5-1.8
		c0-0.1,0-0.2,0.1-0.3c0-0.1,0.1-0.2,0.2-0.3s0.3-0.1,0.5-0.2s0.4-0.1,0.8-0.1c0.5,0,1,0.1,1.4,0.2c0.4,0.1,0.6,0.4,0.6,0.9
		c0,0.2,0,0.3,0,0.4c0,0.1-0.1,0.2-0.1,0.4c-0.1,0.1-0.1,0.3-0.2,0.6c-0.1,0.3-0.2,0.7-0.3,1.1c-0.1,0.4-0.2,0.9-0.3,1.4
		c-0.1,0.5-0.2,1-0.3,1.5c-0.1,0.5-0.2,1-0.3,1.4s-0.2,0.8-0.2,1.1c0.3,0,0.7,0,1.2,0.1c0.5,0,1.1,0,1.7,0c0.5,0,0.9,0,1.2-0.1
		c0.3,0,0.5-0.1,0.7-0.1s0.3-0.1,0.4-0.1C71.4,55.5,71.6,55.5,71.8,55.5z"/>
	<path class="st2" d="M83.5,46.2c0.4,0,0.6,0.1,0.7,0.2c0.1,0.1,0.3,0.3,0.4,0.5c0.1,0.2,0.3,0.6,0.5,1.1c0.2,0.6,0.4,1.2,0.7,2
		c0.2,0.8,0.5,1.6,0.7,2.4c0.2,0.8,0.5,1.6,0.7,2.4s0.4,1.3,0.5,1.8c0.1,0.5,0.2,0.8,0.2,0.9c0,0.3-0.1,0.5-0.3,0.7
		c-0.2,0.2-0.4,0.4-0.7,0.5c-0.3,0.1-0.5,0.2-0.8,0.3S85.8,59,85.7,59c-0.5,0-0.8-0.1-0.9-0.4c0,0,0-0.1-0.1-0.1
		c0-0.1,0-0.2-0.1-0.3c0-0.1-0.1-0.4-0.1-0.6c-0.1-0.3-0.1-0.6-0.2-1.1c-0.5,0-1,0-1.6,0c-0.6,0-1.1,0-1.6,0c-0.5,0-1,0-1.5,0
		s-0.8,0-1.1,0c-0.5,0.7-0.9,1.3-1.3,1.7c-0.4,0.4-0.7,0.6-0.9,0.6c-0.2,0-0.4,0-0.6-0.1c-0.2-0.1-0.5-0.2-0.7-0.3s-0.4-0.3-0.6-0.4
		c-0.2-0.2-0.3-0.3-0.3-0.4c0-0.2,0-0.3,0.1-0.5s0.2-0.4,0.4-0.7c0.2-0.3,0.5-0.7,0.8-1.2s0.8-1.1,1.4-1.9c0.7-1,1.6-2,2.5-3.1
		c0.9-1.1,2-2.3,3.1-3.5c0.1-0.1,0.2-0.2,0.3-0.3S83.1,46.2,83.5,46.2z M83.4,53.4c-0.2-0.5-0.3-1-0.4-1.5c-0.1-0.5-0.3-0.9-0.4-1.2
		c-0.4,0.4-0.8,0.9-1.1,1.3c-0.4,0.5-0.7,0.9-1,1.4c0.5,0,1,0,1.5,0C82.5,53.5,83,53.5,83.4,53.4z"/>
	<path class="st2" d="M97.6,46.3c0.3,0,0.7,0,1.1,0.1c0.4,0,0.9,0.1,1.3,0.2c0.5,0.1,0.9,0.2,1.3,0.3c0.4,0.1,0.8,0.2,1.2,0.4
		s0.6,0.3,0.8,0.5c0.2,0.2,0.3,0.4,0.3,0.6c0,0.3-0.1,0.5-0.2,0.8c-0.1,0.2-0.3,0.4-0.5,0.6c-0.2,0.2-0.4,0.3-0.5,0.4
		c-0.2,0.1-0.4,0.2-0.5,0.2c-0.2,0-0.4,0-0.6-0.1c-0.2-0.1-0.5-0.2-0.8-0.3c-0.4-0.1-0.9-0.2-1.5-0.3c-0.7-0.1-1.5-0.1-2.7-0.1
		c-0.5,0-0.8,0-1.1,0S95,49.5,95,49.7c0,0.1,0.1,0.1,0.2,0.2s0.3,0.1,0.6,0.2c0.3,0.1,0.6,0.2,1,0.3s0.9,0.3,1.5,0.5
		c1.7,0.6,3,1.3,3.8,2c0.8,0.7,1.3,1.4,1.3,2.1c0,0.6-0.2,1.2-0.6,1.7c-0.4,0.5-0.9,0.9-1.6,1.2c-0.7,0.3-1.4,0.6-2.2,0.7
		c-0.8,0.2-1.6,0.3-2.4,0.3c-1.1,0-2.1-0.1-3-0.4s-1.7-0.6-2.4-0.9c-0.7-0.4-1.2-0.7-1.6-1.1c-0.4-0.4-0.6-0.7-0.6-0.9
		c0-0.2,0-0.4,0.1-0.6c0.1-0.2,0.2-0.4,0.3-0.6c0.1-0.2,0.3-0.3,0.5-0.5c0.2-0.1,0.5-0.2,0.7-0.2c0.2,0,0.3,0,0.5,0
		c0.1,0,0.2,0.1,0.3,0.1c0.1,0.1,0.2,0.1,0.2,0.2c0.1,0.1,0.2,0.2,0.3,0.3c0.1,0.1,0.2,0.2,0.4,0.3c0.2,0.1,0.5,0.3,0.9,0.5
		c0.4,0.2,0.8,0.3,1.3,0.4c0.5,0.1,1.2,0.2,1.9,0.2c0.4,0,0.8,0,1.2,0c0.4,0,0.8-0.1,1.1-0.1c0.3,0,0.6-0.1,0.8-0.2
		c0.2-0.1,0.3-0.2,0.3-0.3c0-0.1-0.1-0.2-0.3-0.3s-0.5-0.3-0.8-0.4s-0.7-0.3-1-0.4c-0.4-0.1-0.7-0.3-1.1-0.4
		c-1.1-0.4-1.9-0.7-2.6-1.1c-0.7-0.3-1.2-0.7-1.6-1c-0.4-0.3-0.7-0.6-0.8-1c-0.2-0.3-0.2-0.6-0.2-1c0-0.3,0.1-0.7,0.3-1.1
		c0.2-0.4,0.5-0.7,1-1.1c0.5-0.3,1.1-0.6,1.9-0.8C95.4,46.4,96.4,46.3,97.6,46.3z"/>
	<path class="st2" d="M117.3,46.8c1.3,0,1.9,0.3,1.9,0.9c0,0.2,0,0.5-0.1,0.7c-0.1,0.2-0.1,0.6-0.2,1c-0.1,0.4-0.3,1-0.4,1.7
		c-0.2,0.7-0.4,1.6-0.7,2.7c-0.2,0.8-0.3,1.5-0.4,2.1c-0.1,0.6-0.2,1-0.3,1.4c-0.1,0.4-0.2,0.7-0.3,0.9c-0.1,0.2-0.2,0.4-0.4,0.5
		c-0.2,0.1-0.4,0.2-0.7,0.2S115,59,114.5,59c-0.2,0-0.4,0-0.5-0.1c-0.1-0.1-0.3-0.2-0.4-0.3s-0.2-0.2-0.2-0.3c0-0.1-0.1-0.2-0.1-0.3
		c0-0.3,0-0.6,0.1-0.8c0.1-0.2,0.1-0.5,0.2-0.7c0.1-0.2,0.2-0.4,0.2-0.6c0.1-0.2,0.1-0.3,0.2-0.5c-1.9,0-3.7,0-5.4-0.1
		c0,0.3-0.1,0.6-0.1,1c0,0.4-0.1,0.8-0.3,1.1c-0.1,0.4-0.3,0.7-0.6,0.9c-0.3,0.3-0.6,0.4-1.1,0.4c-0.7,0-1.2-0.1-1.5-0.2
		c-0.3-0.1-0.5-0.5-0.5-1c0-0.4,0.1-0.9,0.3-1.5c0.2-0.6,0.4-1.3,0.6-2.1c0.2-1.2,0.4-2.2,0.6-3.1c0.2-0.9,0.3-1.5,0.3-1.9
		c0-0.4,0.1-0.7,0.1-0.9c0-0.3,0.1-0.5,0.3-0.7c0.1-0.2,0.3-0.3,0.5-0.4c0.2-0.1,0.5-0.1,0.9-0.1c0.4,0,0.8,0,1,0.1
		c0.3,0.1,0.4,0.2,0.6,0.3c0.1,0.1,0.2,0.3,0.3,0.4c0,0.1,0.1,0.3,0.1,0.5c0,0.1,0,0.3,0,0.5c0,0.2-0.1,0.4-0.1,0.7
		c-0.1,0.3-0.2,0.7-0.3,1.1c-0.1,0.5-0.2,1-0.4,1.7c0.9,0,1.8,0,2.7,0.1c0.9,0,1.9,0,2.8,0c0.3-1,0.5-1.9,0.6-2.6
		c0.1-0.7,0.3-1.3,0.4-1.7s0.3-0.7,0.5-0.9C116.6,46.9,116.9,46.8,117.3,46.8z"/>
</g>
</svg>
