<?xml version="1.0" encoding="utf-8"?>
<!-- Generator: Adobe Illustrator 21.0.0, SVG Export Plug-In . SVG Version: 6.00 Build 0)  -->
<svg version="1.1" id="Layer_1" xmlns="http://www.w3.org/2000/svg" xmlns:xlink="http://www.w3.org/1999/xlink" x="0px" y="0px"
	 viewBox="0 0 267 406" style="enable-background:new 0 0 267 406;" xml:space="preserve">
<style type="text/css">
	.st0{fill:#EEE8D7;}
	.st1{fill:#491468;}
	.st2{opacity:0.3;clip-path:url(#SVGID_2_);}
	.st3{fill:#231F20;}
	.st4{fill:#2C0141;}
	.st5{fill:#FFFFFF;}
	.st6{fill:#7E7E7E;}
	.st7{fill:#10A128;}
	.st8{fill:#FEB180;}
	.st9{fill:#040509;}
</style>
<g>
	<g>
		<path class="st0" d="M14.6,406.1c-7.8,0-14.2-6.4-14.2-14.2V14.7c0-7.8,6.4-14.2,14.2-14.2h238.3c7.8,0,14.2,6.4,14.2,14.2v377.3
			c0,7.8-6.4,14.2-14.2,14.2L14.6,406.1L14.6,406.1z"/>
	</g>
	<g>
		<path class="st1" d="M260,391.9c0,3.9-3.2,7.1-7.1,7.1H14.6c-3.9,0-7.1-3.2-7.1-7.1V14.7c0-3.9,3.2-7.1,7.1-7.1h238.3
			c3.9,0,7.1,3.2,7.1,7.1V391.9z"/>
	</g>
	<g>
		<g>
			<defs>
				<path id="SVGID_1_" d="M260,391.9c0,3.9-3.2,7.1-7.1,7.1H14.6c-3.9,0-7.1-3.2-7.1-7.1V14.7c0-3.9,3.2-7.1,7.1-7.1h238.3
					c3.9,0,7.1,3.2,7.1,7.1V391.9z"/>
			</defs>
			<clipPath id="SVGID_2_">
				<use xlink:href="#SVGID_1_"  style="overflow:visible;"/>
			</clipPath>
			<g class="st2">
				<g>
					
						<rect x="-120" y="-114.8" transform="matrix(0.7075 -0.7068 0.7068 0.7075 119.9946 61.0732)" class="st3" width="507.5" height="0.7"/>
				</g>
				<g>
					
						<rect x="-120" y="-69.4" transform="matrix(0.7075 -0.7068 0.7068 0.7075 87.9169 74.3525)" class="st3" width="507.5" height="0.7"/>
				</g>
				<g>
					
						<rect x="-120" y="-24" transform="matrix(0.7075 -0.7067 0.7067 0.7075 55.825 87.622)" class="st3" width="507.5" height="0.7"/>
				</g>
				<g>
					
						<rect x="-120" y="21.4" transform="matrix(0.7075 -0.7068 0.7068 0.7075 23.7618 100.9113)" class="st3" width="507.5" height="0.7"/>
				</g>
				<g>
					
						<rect x="-120" y="66.8" transform="matrix(0.7075 -0.7067 0.7067 0.7075 -8.3216 114.1727)" class="st3" width="507.5" height="0.7"/>
				</g>
				<g>
					
						<rect x="-120" y="112.2" transform="matrix(0.7075 -0.7067 0.7067 0.7075 -40.3951 127.4478)" class="st3" width="507.5" height="0.7"/>
				</g>
				<g>
					
						<rect x="-120" y="157.6" transform="matrix(0.7075 -0.7068 0.7068 0.7075 -72.4712 140.7498)" class="st3" width="507.5" height="0.7"/>
				</g>
				<g>
					
						<rect x="-120" y="202.9" transform="matrix(0.7075 -0.7067 0.7067 0.7075 -104.5415 153.9982)" class="st3" width="507.5" height="0.7"/>
				</g>
				<g>
					
						<rect x="-120" y="248.3" transform="matrix(0.7075 -0.7068 0.7068 0.7075 -136.6259 167.3081)" class="st3" width="507.5" height="0.7"/>
				</g>
				<g>
					
						<rect x="-120" y="293.7" transform="matrix(0.7075 -0.7067 0.7067 0.7075 -168.6888 180.5485)" class="st3" width="507.5" height="0.7"/>
				</g>
				<g>
					
						<rect x="-120" y="339.1" transform="matrix(0.7075 -0.7068 0.7068 0.7075 -200.7807 193.8671)" class="st3" width="507.5" height="0.7"/>
				</g>
				<g>
					
						<rect x="-120" y="384.5" transform="matrix(0.7075 -0.7067 0.7067 0.7075 -232.8351 207.0984)" class="st3" width="507.5" height="0.7"/>
				</g>
				<g>
					
						<rect x="-120" y="429.9" transform="matrix(0.7075 -0.7067 0.7067 0.7075 -264.9086 220.3745)" class="st3" width="507.5" height="0.7"/>
				</g>
				<g>
					
						<rect x="-119.9" y="475.3" transform="matrix(0.7075 -0.7068 0.7068 0.7075 -297.0128 233.7048)" class="st3" width="507.5" height="0.7"/>
				</g>
				<g>
					
						<rect x="-120" y="520.6" transform="matrix(0.7075 -0.7067 0.7067 0.7075 -329.055 246.9245)" class="st3" width="507.5" height="0.7"/>
				</g>
			</g>
		</g>
	</g>
</g>
<g>
	<polygon class="st4" points="134.5,343.6 49.7,234.3 114.4,209.5 127,225.5 142.6,225.7 156.4,209.5 221.1,234.1 	"/>
	<path class="st5" d="M114.4,209.5l12.6,16.1l15.6,0.2l13.7-16.3L135,340.2c-0.1,4.4-1,4.6-1.1,0L114.4,209.5z"/>
	<path class="st6" d="M124.8,279l10.1,9.9L145,279l-10,61.4c-0.2,4.4-1,4.1-1,0L124.8,279z"/>
	<polygon class="st7" points="129.6,227.7 140.5,227.7 136.2,234.4 141.6,282.4 134.9,288.9 128.8,282.9 134.1,234.2 	"/>
	<path class="st8" d="M127,225.5l-12.6-16.1l-0.6-9.7c0,0-5.6,0.4-4.3-10.7h3.6c0,0-2.8-28.7,21.4-28.7s22.9,23.8,22.9,28.3l3.4,0.1
		c0,0,2.8,9.6-4.4,10.8v10l-13.7,16.3L127,225.5z"/>
	<path class="st9" d="M116.6,188.7l4.5-1c0,0,8.7,3.2,11.2,2.7l-10.5-5.9L116.6,188.7z"/>
	<path class="st9" d="M154.4,188.7l-4.5-1c0,0-8.7,3.2-11.2,2.7l10.5-5.9L154.4,188.7z"/>
</g>
<g>
	<path class="st5" d="M71.9,84.6c1.1,0,1.9,0.1,2.5,0.4c0.6,0.3,0.9,0.8,0.9,1.6c0,0.4,0,0.6,0,0.8c0,0.2-0.1,0.4-0.2,0.8
		s-0.2,0.8-0.4,1.5c-0.2,0.7-0.5,1.7-0.8,3c2.2-1.7,4.1-3,5.5-4.1c1.5-1.1,2.7-1.9,3.6-2.5c0.9-0.6,1.7-1.1,2.2-1.3s1-0.4,1.3-0.4
		c0.3,0,0.6,0.1,1,0.3c0.4,0.2,0.7,0.5,1.1,0.8c0.3,0.3,0.6,0.7,0.9,1c0.2,0.4,0.4,0.7,0.4,1c0,0.5-0.2,1-0.6,1.3
		c-0.4,0.4-1.1,0.8-2,1.4c-0.9,0.6-2.1,1.3-3.6,2.2c-1.5,0.9-3.2,2.1-5.2,3.6c1.6,1.1,3,2,4.3,2.7c1.2,0.7,2.3,1.1,3.1,1.3
		c0.4,0.1,0.7,0.2,1,0.3c0.3,0.1,0.5,0.3,0.7,0.4c0.2,0.2,0.3,0.5,0.4,0.8c0.1,0.3,0.1,0.8,0.1,1.4c0,0.4,0,0.7-0.1,1.1
		c-0.1,0.4-0.3,0.7-0.5,0.9c-0.2,0.3-0.5,0.5-0.9,0.7c-0.4,0.2-0.8,0.3-1.4,0.3c-0.5,0-1.3-0.2-2.2-0.7c-1-0.4-2-1-3.1-1.6
		c-1.1-0.7-2.2-1.4-3.2-2.1c-1.1-0.7-1.9-1.4-2.6-2c-0.4,0.2-0.7,0.4-0.9,0.6s-0.4,0.4-0.6,0.6c-0.1,0.2-0.3,0.5-0.3,0.8
		s-0.2,0.7-0.2,1.1c-0.1,0.5-0.3,1-0.6,1.3c-0.3,0.3-0.6,0.6-1,0.8c-0.4,0.2-0.8,0.3-1.2,0.4c-0.4,0.1-0.9,0.1-1.3,0.1
		c-0.8,0-1.4-0.2-1.8-0.7c-0.4-0.5-0.6-1-0.6-1.6c0-0.4,0-0.8,0.1-1.1c0.1-0.3,0.2-0.7,0.3-1.1c0.1-0.4,0.3-0.9,0.5-1.5
		c0.2-0.6,0.4-1.3,0.6-2.2c0.6-2.8,1.1-5,1.5-6.6c0.4-1.6,0.7-2.8,1-3.7c0.3-0.8,0.6-1.4,1-1.6C70.7,84.7,71.2,84.6,71.9,84.6z"/>
	<path class="st5" d="M98.1,84.1c1.7,0,2.5,0.6,2.5,1.8c0,0.2,0,0.4-0.1,0.6c0,0.2-0.1,0.5-0.2,0.9c-0.1,0.4-0.2,0.9-0.4,1.4
		c-0.2,0.6-0.4,1.3-0.6,2.2c-0.7,2.8-1.3,5.1-1.7,6.7c-0.4,1.7-0.7,3-1,3.9s-0.5,1.6-0.7,2s-0.6,0.6-1,0.8c-0.3,0.1-0.7,0.2-1.2,0.3
		c-0.5,0.1-0.8,0.1-1.1,0.1c-0.8,0-1.3-0.2-1.7-0.6c-0.4-0.4-0.5-1-0.5-1.6c0-0.4,0.1-0.8,0.1-1s0.1-0.5,0.2-0.6
		c0.1-0.2,0.1-0.4,0.2-0.6s0.2-0.6,0.3-1.1c0.6-2.3,1.2-4.3,1.5-5.9c0.4-1.7,0.7-3,1-4.2c0.3-1.1,0.5-2,0.7-2.7
		c0.2-0.7,0.5-1.2,0.7-1.5c0.3-0.4,0.6-0.6,1.1-0.7C96.8,84.1,97.4,84.1,98.1,84.1z"/>
	<path class="st5" d="M122.2,84.9c1.2,0,2.1,0.2,2.5,0.5s0.6,0.8,0.6,1.4c0,0.5-0.1,1-0.3,1.4c-0.2,0.4-0.4,1-0.5,1.6
		c0,0.2-0.1,0.6-0.2,1.2c-0.1,0.7-0.2,1.4-0.4,2.3c-0.2,0.9-0.3,1.9-0.5,2.9c-0.2,1-0.3,2-0.5,2.9c-0.2,0.9-0.3,1.7-0.4,2.3
		c-0.1,0.7-0.2,1.1-0.2,1.2c-0.2,0.9-0.5,1.5-1,2c-0.5,0.5-1.2,0.7-2.1,0.7c-0.2,0-0.6,0-0.9-0.1c-0.4-0.1-0.7-0.2-1.1-0.3
		c-0.4-0.1-0.8-0.3-1.2-0.5s-0.7-0.4-1-0.7c-0.6-0.6-1.3-1.2-1.9-2c-0.7-0.8-1.3-1.6-2-2.5c-0.6-0.9-1.3-1.8-1.9-2.8
		c-0.6-1-1.2-1.9-1.6-2.8c-0.3,1.1-0.5,2-0.7,2.8c-0.2,0.8-0.4,1.5-0.5,2.1c-0.1,0.6-0.3,1.2-0.4,1.8c-0.1,0.5-0.2,1.1-0.2,1.7
		c-0.1,0.6-0.1,1.1-0.2,1.4c-0.1,0.4-0.2,0.6-0.4,0.8s-0.4,0.3-0.8,0.4c-0.3,0.1-0.8,0.1-1.4,0.1c-1.2,0-2-0.2-2.6-0.5
		c-0.5-0.3-0.8-1-0.8-1.9c0-0.2,0.1-0.6,0.3-1.4s0.4-1.7,0.7-2.8v0c0.2-0.9,0.4-1.9,0.7-2.9c0.2-1.1,0.5-2.1,0.8-3.2
		c0.3-1.1,0.5-2.1,0.7-3.1c0.2-1,0.4-1.9,0.5-2.7c0-0.6,0.4-1.1,1-1.5s1.5-0.6,2.7-0.6c1.7,0,2.7,0.5,2.8,1.4c0.5,1,1,2,1.6,3.1
		c0.6,1.1,1.3,2.2,1.9,3.2c0.7,1.1,1.3,2.1,2,3.1s1.3,1.8,1.8,2.6c0.1-1,0.3-2,0.4-3c0.2-1,0.3-2,0.5-3s0.4-1.9,0.5-2.8
		c0.2-0.9,0.4-1.7,0.5-2.5c0.1-0.5,0.4-1,0.8-1.3S121.3,84.9,122.2,84.9z"/>
	<path class="st5" d="M142,83.7c1.2,0,2.3,0.1,3.4,0.4c1.1,0.2,2,0.5,2.8,0.9c0.8,0.4,1.4,0.8,1.9,1.4c0.5,0.5,0.7,1.1,0.7,1.6
		c0,0.3-0.1,0.6-0.2,1c-0.2,0.4-0.4,0.8-0.6,1.1c-0.3,0.4-0.6,0.7-1,0.9c-0.4,0.2-0.8,0.4-1.2,0.4c-0.6,0-1.1-0.1-1.4-0.4
		c-0.4-0.3-0.7-0.5-1.1-0.8c-0.4-0.3-0.9-0.6-1.5-0.9c-0.6-0.3-1.4-0.4-2.4-0.4c-1.2,0-2.3,0.2-3.3,0.5c-1,0.4-1.9,0.8-2.6,1.5
		s-1.3,1.4-1.7,2.3c-0.4,0.9-0.6,1.9-0.6,3c0,0.5,0.1,1,0.4,1.5c0.2,0.5,0.6,0.9,1.2,1.3c0.5,0.4,1.2,0.7,2.1,1
		c0.9,0.3,1.9,0.4,3.1,0.4c1,0,2-0.3,2.9-0.8c0.9-0.5,1.7-1.1,2.4-1.7c-0.7-0.1-1.3-0.1-1.9-0.1c-1,0-1.8,0-2.5,0.1
		c-0.7,0.1-1.2,0.1-1.6,0.2c-0.4,0.1-0.7,0.1-1,0.2c-0.2,0.1-0.4,0.1-0.5,0.1c-0.5,0-0.9,0-1.2-0.1c-0.3-0.1-0.6-0.2-0.8-0.4
		c-0.2-0.2-0.4-0.5-0.5-0.8c-0.1-0.3-0.2-0.8-0.2-1.4c0-0.5,0.1-1,0.3-1.4s0.5-0.8,1-1c0.5-0.3,1.1-0.5,1.9-0.6
		c0.8-0.1,1.8-0.2,3-0.2c0.6,0,1.3,0,2.1,0.1c0.8,0,1.6,0.1,2.4,0.2c0.8,0.1,1.6,0.2,2.4,0.3c0.8,0.1,1.5,0.2,2.2,0.4
		c0.8,0.2,1.3,0.5,1.6,0.8c0.3,0.4,0.4,0.9,0.4,1.6c0,1.1-0.3,2.2-1,3.4s-1.6,2.2-2.8,3.1c-1.2,0.9-2.6,1.7-4.2,2.3
		c-1.6,0.6-3.3,0.9-5.1,0.9c-1.7,0-3.4-0.2-4.8-0.5c-1.5-0.3-2.7-0.8-3.8-1.5c-1.1-0.7-1.9-1.6-2.5-2.7c-0.6-1.1-0.9-2.5-0.9-4.1
		c0-1.7,0.4-3.3,1.2-4.8c0.8-1.5,1.9-2.9,3.3-4.1c1.4-1.2,3-2.1,4.8-2.9C138.1,84,140,83.7,142,83.7z"/>
	<path class="st5" d="M165.7,84.2c2.4,0,4.4,0.2,5.9,0.5s2.8,0.8,3.7,1.4s1.5,1.3,1.9,2c0.4,0.8,0.5,1.6,0.5,2.4
		c0,1.6-0.4,2.9-1.2,4c-0.8,1.1-1.9,2-3.4,2.7c-1.5,0.7-3.2,1.3-5.2,1.7c-2,0.4-4.2,0.7-6.6,1c-0.2,0.8-0.3,1.6-0.4,2.2
		c-0.1,0.6-0.1,1.1-0.1,1.5s-0.1,0.7-0.1,1c0,0.2-0.2,0.4-0.3,0.6s-0.4,0.2-0.8,0.3s-0.8,0.1-1.5,0.1c-0.7,0-1.2,0-1.6-0.1
		c-0.4-0.1-0.7-0.2-1-0.3c-0.2-0.2-0.4-0.4-0.5-0.7c-0.1-0.3-0.1-0.6-0.1-1.1c0-0.2,0.1-0.8,0.3-1.6c0.2-0.8,0.4-1.9,0.6-3.2
		s0.5-2.8,0.9-4.4c0.3-1.7,0.6-3.5,0.9-5.4c0-0.2-0.1-0.4-0.1-0.6s-0.1-0.4-0.1-0.5c0-0.5,0.1-1,0.4-1.4s0.7-0.7,1.4-1
		c0.6-0.3,1.5-0.5,2.6-0.6C162.7,84.2,164.1,84.2,165.7,84.2z M166,89.2c-1.2,0-2.1,0.1-2.7,0.3c-0.4,1.3-0.8,3-1.1,5
		c1-0.1,2.1-0.2,3.3-0.3c1.2-0.1,2.3-0.4,3.3-0.7c1-0.3,1.9-0.7,2.6-1.2c0.7-0.5,1-1.1,1-1.9c0-0.3-0.2-0.5-0.6-0.7
		c-0.4-0.2-1-0.3-1.6-0.4c-0.6-0.1-1.3-0.1-2.1-0.2S166.6,89.2,166,89.2z"/>
	<path class="st5" d="M183.9,84.1c1.7,0,2.5,0.6,2.5,1.8c0,0.2,0,0.4-0.1,0.6c0,0.2-0.1,0.5-0.2,0.9c-0.1,0.4-0.2,0.9-0.4,1.4
		c-0.2,0.6-0.4,1.3-0.6,2.2c-0.7,2.8-1.3,5.1-1.7,6.7c-0.4,1.7-0.7,3-1,3.9s-0.5,1.6-0.7,2s-0.6,0.6-1,0.8c-0.3,0.1-0.7,0.2-1.2,0.3
		c-0.5,0.1-0.8,0.1-1.1,0.1c-0.8,0-1.3-0.2-1.7-0.6c-0.4-0.4-0.5-1-0.5-1.6c0-0.4,0.1-0.8,0.1-1s0.1-0.5,0.2-0.6
		c0.1-0.2,0.1-0.4,0.2-0.6s0.2-0.6,0.3-1.1c0.6-2.3,1.2-4.3,1.5-5.9c0.4-1.7,0.7-3,1-4.2c0.3-1.1,0.5-2,0.7-2.7
		c0.2-0.7,0.5-1.2,0.7-1.5c0.3-0.4,0.6-0.6,1.1-0.7C182.6,84.1,183.2,84.1,183.9,84.1z"/>
	<path class="st5" d="M208,84.9c1.2,0,2.1,0.2,2.5,0.5s0.6,0.8,0.6,1.4c0,0.5-0.1,1-0.3,1.4c-0.2,0.4-0.4,1-0.5,1.6
		c0,0.2-0.1,0.6-0.2,1.2c-0.1,0.7-0.2,1.4-0.4,2.3c-0.2,0.9-0.3,1.9-0.5,2.9c-0.2,1-0.3,2-0.5,2.9c-0.2,0.9-0.3,1.7-0.4,2.3
		c-0.1,0.7-0.2,1.1-0.2,1.2c-0.2,0.9-0.5,1.5-1,2c-0.5,0.5-1.2,0.7-2.1,0.7c-0.2,0-0.6,0-0.9-0.1c-0.4-0.1-0.7-0.2-1.1-0.3
		c-0.4-0.1-0.8-0.3-1.2-0.5s-0.7-0.4-1-0.7c-0.6-0.6-1.3-1.2-1.9-2c-0.7-0.8-1.3-1.6-2-2.5c-0.6-0.9-1.3-1.8-1.9-2.8
		c-0.6-1-1.2-1.9-1.6-2.8c-0.3,1.1-0.5,2-0.7,2.8c-0.2,0.8-0.4,1.5-0.5,2.1c-0.1,0.6-0.3,1.2-0.4,1.8c-0.1,0.5-0.2,1.1-0.2,1.7
		c-0.1,0.6-0.1,1.1-0.2,1.4c-0.1,0.4-0.2,0.6-0.4,0.8s-0.4,0.3-0.8,0.4c-0.3,0.1-0.8,0.1-1.4,0.1c-1.2,0-2-0.2-2.6-0.5
		c-0.5-0.3-0.8-1-0.8-1.9c0-0.2,0.1-0.6,0.3-1.4s0.4-1.7,0.7-2.8v0c0.2-0.9,0.4-1.9,0.7-2.9c0.2-1.1,0.5-2.1,0.8-3.2
		c0.3-1.1,0.5-2.1,0.7-3.1c0.2-1,0.4-1.9,0.5-2.7c0-0.6,0.4-1.1,1-1.5s1.5-0.6,2.7-0.6c1.7,0,2.7,0.5,2.8,1.4c0.5,1,1,2,1.6,3.1
		c0.6,1.1,1.3,2.2,1.9,3.2c0.7,1.1,1.3,2.1,2,3.1s1.3,1.8,1.8,2.6c0.1-1,0.3-2,0.4-3c0.2-1,0.3-2,0.5-3s0.4-1.9,0.5-2.8
		c0.2-0.9,0.4-1.7,0.5-2.5c0.1-0.5,0.4-1,0.8-1.3S207,84.9,208,84.9z"/>
</g>
</svg>
