<?xml version="1.0" encoding="utf-8"?>
<!-- Generator: Adobe Illustrator 21.0.0, SVG Export Plug-In . SVG Version: 6.00 Build 0)  -->
<svg version="1.1" id="Layer_1" xmlns="http://www.w3.org/2000/svg" xmlns:xlink="http://www.w3.org/1999/xlink" x="0px" y="0px"
	 viewBox="0 0 167.1 223.3" style="enable-background:new 0 0 167.1 223.3;" xml:space="preserve">
<style type="text/css">
	.st0{fill:#EEE8D7;}
	.st1{fill:#F6D30A;}
	.st2{fill:#F11712;}
	.st3{enable-background:new    ;}
</style>
<g>
	<g>
		<path class="st0" d="M8.9,223.3c-4.9,0-8.9-3.5-8.9-7.8V7.8C0,3.5,4,0,8.9,0h149.3c4.9,0,8.9,3.5,8.9,7.8v207.7
			c0,4.3-4,7.8-8.9,7.8L8.9,223.3L8.9,223.3z"/>
	</g>
	<path class="st1" d="M162.7,215.5c0,2.2-2,3.9-4.4,3.9H8.9c-2.5,0-4.4-1.8-4.4-3.9V7.8c0-2.2,2-3.9,4.4-3.9h149.3
		c2.5,0,4.4,1.8,4.4,3.9v207.7H162.7z"/>
</g>
<g id="Layer_2">
	<g id="Layer_2-2">
		<path class="st2" d="M10.6,117.6l28-24.7h88.3l29.6,24.7l-17,18.7c0,0-5.5-0.5-7.7,1.6c-6.6-7.7-17-6-21.4-1.6
			c-1.1-0.5-2.7-2.2-6,0c-1.1-2.2-7.7-6.6-13.7-2.2c-2.2-2.2-7.1-1.1-7.1-1.1l43.9,16.5l-43.9,47.7L10.6,117.6z"/>
		<path class="st1" d="M67.2,123.1c0,0,3.8,0,4.4,0.5c9.9,0.5,13.7,7.7,13.7,7.7c-0.5-6.6-4.9-9.3-9.3-9.9c-3.3-4.9-10.4-6-13.2-4.9
			c-0.4-1.8-3.8-2.5-5-2.7c-0.2,0-0.4,0.1-0.4,0.3c0,0,0,0,0,0.1l0,0c0,0.2-0.2,0.4-0.4,0.4c-0.1,0-0.1,0-0.2,0
			c-0.5-0.2-1.3-0.4-1.6,0.3c-0.5,1.1,0,1.6,0,1.6s-4.9-2.7-5.5-2.2s-0.5-0.5-0.5-0.5s-2.7-1.6-2.7,0.5c0,2.7,2.2,1.6,2.2,1.6
			l7.1,4.4c0,0,0,3.3,5.5,4.4c1.1,3.3,4.9,3.8,4.9,3.8c3.2,1,6.5,1.8,9.9,2.2c4.9,0.5,2.2,1.6,2.2,1.6s2.2,1.6,2.2,0
			s-0.5-2.2-1.1-2.2c-0.6-0.1-1.1-0.3-1.6-0.5l-2.2-3.3l-1.1,1.1C74.3,127.5,68.9,123.1,67.2,123.1z"/>
	</g>
</g>
<g class="st3">
	<path class="st2" d="M34.6,44.2c0.5,0,1.1,0,1.6,0.1c0.5,0.1,1,0.2,1.5,0.3c0.4,0.1,0.8,0.3,1.1,0.5c0.3,0.2,0.4,0.5,0.4,0.8
		c0,0.3-0.1,0.5-0.2,0.7c-0.1,0.2-0.3,0.5-0.5,0.7c-0.2,0.2-0.4,0.3-0.6,0.5s-0.4,0.2-0.5,0.2c-0.2,0-0.4,0-0.6-0.1
		c-0.1-0.1-0.3-0.1-0.5-0.2s-0.4-0.1-0.8-0.2c-0.3-0.1-0.8-0.1-1.3-0.1c-0.5,0-1,0-1.5,0s-0.9,0-1.3,0c-0.4,0-0.7,0.1-0.9,0.1
		c-0.2,0-0.3,0.1-0.3,0.2c0,0.1,0.3,0.3,0.8,0.4c0.5,0.1,1.4,0.4,2.5,0.7c0.8,0.2,1.6,0.5,2.2,0.8c0.6,0.3,1.2,0.6,1.6,0.9
		c0.4,0.3,0.7,0.7,1,1c0.2,0.3,0.3,0.7,0.3,1c0,0.7-0.3,1.3-0.8,1.9s-1.1,1-1.9,1.4c-0.8,0.4-1.6,0.7-2.5,0.9
		c-0.9,0.2-1.8,0.3-2.6,0.3c-1,0-1.8-0.1-2.7-0.3c-0.8-0.2-1.5-0.5-2.1-0.8c-0.6-0.3-1.1-0.6-1.4-0.9c-0.3-0.3-0.5-0.6-0.5-0.8
		c0-0.2,0-0.4,0.1-0.6s0.2-0.4,0.4-0.6c0.2-0.2,0.3-0.4,0.6-0.5c0.2-0.1,0.5-0.2,0.7-0.2c0.3,0,0.5,0.1,0.7,0.2s0.3,0.3,0.5,0.4
		c0.1,0.1,0.2,0.2,0.4,0.3c0.2,0.1,0.4,0.2,0.7,0.3c0.3,0.1,0.7,0.2,1.2,0.3c0.5,0.1,1.1,0.1,1.8,0.1c0.4,0,0.8,0,1.3-0.1
		c0.5-0.1,0.9-0.1,1.3-0.2c0.4-0.1,0.7-0.2,1-0.3s0.4-0.3,0.4-0.4c0-0.1-0.1-0.1-0.3-0.2c-0.2-0.1-0.5-0.2-0.8-0.3
		c-0.3-0.1-0.7-0.2-1-0.3c-0.4-0.1-0.7-0.2-1.1-0.3c-1.2-0.3-2.2-0.7-2.9-1c-0.7-0.3-1.2-0.6-1.6-0.9c-0.4-0.3-0.6-0.6-0.7-0.9
		c-0.1-0.3-0.1-0.6-0.1-0.9c0-0.4,0.1-0.8,0.4-1.2c0.2-0.4,0.7-0.9,1.3-1.2s1.4-0.7,2.4-0.9S33.1,44.2,34.6,44.2z"/>
	<path class="st2" d="M51.5,44.4c0.8,0,1.4,0.1,1.6,0.4c0.3,0.3,0.4,0.7,0.4,1.1c0,0.2,0,0.5,0,0.7c0,0.3-0.1,0.6-0.1,0.9
		c-0.1,0.4-0.2,0.8-0.3,1.3s-0.3,1.1-0.5,1.8c-0.2,0.8-0.5,1.5-0.9,2.2c-0.4,0.7-0.8,1.3-1.4,1.9c-0.6,0.5-1.2,1-2,1.3
		c-0.8,0.3-1.7,0.5-2.8,0.5c-0.9,0-1.7-0.1-2.3-0.2c-0.7-0.1-1.2-0.4-1.7-0.7c-0.4-0.3-0.8-0.8-1-1.4c-0.2-0.6-0.3-1.3-0.3-2.2
		c0-0.5,0-0.9,0-1.2c0-0.4,0.1-0.7,0.1-1.1c0-0.4,0.1-0.7,0.2-1.1s0.2-0.8,0.3-1.3c0.1-0.6,0.3-1.1,0.4-1.5c0.1-0.4,0.3-0.7,0.4-0.9
		c0.2-0.2,0.4-0.4,0.6-0.5c0.2-0.1,0.5-0.1,0.9-0.1c0.7,0,1.2,0.1,1.5,0.4c0.3,0.3,0.4,0.6,0.4,1c0,0.1,0,0.2-0.1,0.3
		c0,0.1-0.1,0.3-0.1,0.4c-0.2,0.6-0.4,1.2-0.5,1.7c-0.1,0.5-0.3,1-0.3,1.5c-0.1,0.5-0.2,0.9-0.2,1.2c0,0.4-0.1,0.6-0.1,0.9
		c0,0.3,0,0.6,0.1,0.8c0.1,0.2,0.2,0.4,0.3,0.6c0.2,0.2,0.4,0.3,0.6,0.4c0.3,0.1,0.6,0.1,1,0.1c0.4,0,0.7-0.1,1.1-0.2
		c0.4-0.1,0.8-0.4,1.2-0.9c0.4-0.4,0.7-1.1,1-1.9c0.3-0.8,0.5-1.9,0.7-3.2c0.1-0.6,0.1-1.1,0.2-1.5s0.1-0.7,0.3-0.9
		c0.1-0.2,0.3-0.4,0.5-0.5S51.1,44.4,51.5,44.4z"/>
	<path class="st2" d="M60.4,44.3c1.4,0,2.6,0.1,3.5,0.3c0.9,0.2,1.6,0.5,2.2,0.8c0.5,0.3,0.9,0.7,1.1,1.2c0.2,0.5,0.3,0.9,0.3,1.4
		c0,0.9-0.2,1.7-0.7,2.3c-0.5,0.6-1.1,1.2-2,1.6c-0.9,0.4-1.9,0.8-3.1,1c-1.2,0.2-2.5,0.4-3.9,0.6c-0.1,0.5-0.2,0.9-0.2,1.3
		c0,0.4-0.1,0.7-0.1,0.9s0,0.4-0.1,0.6c0,0.1-0.1,0.3-0.2,0.3c-0.1,0.1-0.3,0.1-0.5,0.2c-0.2,0-0.5,0-0.9,0c-0.4,0-0.7,0-0.9-0.1
		c-0.2,0-0.4-0.1-0.6-0.2c-0.1-0.1-0.2-0.2-0.3-0.4c0-0.2-0.1-0.4-0.1-0.6c0-0.1,0.1-0.5,0.1-1c0.1-0.5,0.2-1.1,0.4-1.9
		c0.2-0.8,0.3-1.6,0.5-2.6c0.2-1,0.3-2,0.5-3.2c0-0.1-0.1-0.2-0.1-0.4c0-0.1,0-0.2,0-0.3c0-0.3,0.1-0.6,0.2-0.8s0.4-0.4,0.8-0.6
		s0.9-0.3,1.5-0.3S59.5,44.3,60.4,44.3z M60.6,47.2c-0.7,0-1.2,0.1-1.6,0.2c-0.2,0.8-0.4,1.8-0.7,2.9c0.6,0,1.3-0.1,1.9-0.2
		c0.7-0.1,1.4-0.2,2-0.4c0.6-0.2,1.1-0.4,1.5-0.7c0.4-0.3,0.6-0.7,0.6-1.1c0-0.2-0.1-0.3-0.4-0.4c-0.3-0.1-0.6-0.2-0.9-0.2
		c-0.4-0.1-0.8-0.1-1.2-0.1S61,47.2,60.6,47.2z"/>
	<path class="st2" d="M73.4,44.2c0.2,0,0.5,0,1,0c0.4,0,0.9,0,1.4,0.1c0.5,0,1.1,0.1,1.6,0.1s1.1,0.1,1.6,0.2
		c0.5,0.1,0.9,0.1,1.2,0.2c0.3,0.1,0.5,0.1,0.7,0.3c0.2,0.1,0.3,0.2,0.3,0.4c0,0.1,0.1,0.3,0.1,0.5c0,0.5,0,0.8-0.1,1.1
		c-0.1,0.3-0.2,0.5-0.3,0.6c-0.1,0.1-0.3,0.2-0.4,0.3c-0.2,0-0.3,0.1-0.5,0.1c-0.1,0-0.2,0-0.3,0c-0.1,0-0.2,0-0.3,0
		c-0.1,0-0.2,0-0.4-0.1c-0.1,0-0.3,0-0.5-0.1c-0.5,0-1-0.1-1.5-0.1s-1-0.1-1.5-0.1c-0.5,0-1.1-0.1-1.7-0.1c-0.6,0-1.2,0-2,0
		c0,0.1,0,0.2-0.1,0.4c0,0.2-0.1,0.5-0.1,0.9c0.2,0,0.6,0,1.2,0.1c0.5,0,1.2,0,1.9,0H75c0.2,0,0.4,0,0.7,0c0.3,0,0.6,0,0.9,0
		c0.3,0,0.6,0,0.9,0c0.3,0,0.5,0,0.7,0h0.5c0.3,0,0.5,0,0.7,0.1c0.2,0.1,0.3,0.2,0.4,0.3c0.1,0.1,0.1,0.3,0.2,0.5c0,0.2,0,0.3,0,0.5
		c0,0.4-0.1,0.7-0.2,0.9s-0.4,0.4-0.8,0.5c-0.4,0.1-1.1,0.2-2,0.2c-0.9,0-2,0-3.5,0h-1.6c-0.2,0-0.4,0-0.6,0s-0.3,0-0.3,0
		c-0.1,0.3-0.1,0.6-0.1,0.8c0,0.2-0.1,0.4-0.1,0.5c0.6,0.1,1.2,0.1,1.7,0.1c0.5,0,1.1,0,1.8,0c0.3,0,0.6,0,1,0c0.3,0,0.6,0,0.9-0.1
		c0.6-0.1,1-0.1,1.3-0.1c0.3,0,0.5-0.1,0.7-0.1c0.2,0,0.3,0,0.4,0c0.1,0,0.3,0,0.4,0c0.2,0,0.4,0,0.5,0.1c0.1,0,0.2,0.1,0.3,0.2
		c0.1,0.1,0.1,0.3,0.2,0.5c0,0.2,0.1,0.5,0.1,0.9c0,0.4-0.1,0.7-0.4,1c-0.2,0.2-0.6,0.4-1.1,0.5s-1,0.2-1.7,0.2c-0.7,0-1.4,0-2.3,0
		c-1.7,0-3.1,0-4.1-0.1c-1-0.1-1.8-0.1-2.3-0.2c-0.5-0.1-0.8-0.2-1-0.3c-0.1-0.1-0.2-0.3-0.2-0.4c0-0.1,0-0.1,0-0.2s0-0.2,0.1-0.3
		c0-0.1,0.1-0.4,0.1-0.8c0.1-0.5,0.2-1,0.3-1.7s0.2-1.3,0.4-2.1c0.1-0.7,0.3-1.4,0.4-2.1c0.1-0.6,0.2-1.2,0.3-1.6
		c0.1-0.5,0.1-0.7,0.1-0.8c0.1-0.3,0.1-0.5,0.2-0.7c0.1-0.2,0.2-0.3,0.3-0.4c0.1-0.1,0.2-0.2,0.4-0.2c0.1,0,0.3-0.1,0.4-0.1
		c0.1,0,0.3,0,0.6,0c0.3,0,0.6,0,0.9,0c0.3,0,0.6,0,1,0C72.9,44.2,73.2,44.2,73.4,44.2z"/>
	<path class="st2" d="M87.6,44.2c1.8,0,3.3,0.1,4.5,0.3s2.1,0.5,2.8,0.8c0.7,0.3,1.2,0.7,1.5,1.2s0.4,1,0.4,1.5c0,0.5-0.1,1-0.4,1.4
		s-0.7,0.8-1.2,1.1c-0.5,0.3-1,0.6-1.7,0.9s-1.3,0.5-2,0.6c0.5,0.5,1,1,1.4,1.3c0.4,0.3,0.7,0.6,1,0.8c0.3,0.2,0.5,0.3,0.7,0.4
		c0.2,0.1,0.3,0.2,0.4,0.2c0.1,0.1,0.2,0.1,0.2,0.2c0,0.1,0,0.2,0,0.4c0,0.3-0.1,0.5-0.2,0.7c-0.2,0.2-0.3,0.4-0.6,0.6
		c-0.2,0.2-0.4,0.3-0.7,0.4c-0.2,0.1-0.4,0.1-0.5,0.1c0,0-0.2,0-0.4-0.1s-0.6-0.3-1-0.5c-0.4-0.3-1-0.7-1.6-1.3
		c-0.6-0.6-1.3-1.4-2.1-2.4c-0.3,0-0.6,0-0.9,0.1c-0.3,0-0.6,0-0.9,0h-0.5c-0.1,0.6-0.2,1.1-0.2,1.4c0,0.3-0.1,0.5-0.1,0.7v0.3
		c0,0.1,0,0.3,0,0.5c0,0.2-0.1,0.3-0.2,0.4c-0.1,0.1-0.3,0.2-0.5,0.3c-0.2,0.1-0.5,0.1-0.8,0.1c-0.7,0-1.2-0.1-1.5-0.3
		s-0.4-0.5-0.4-1c0-0.2,0.1-0.6,0.2-1.2c0.1-0.6,0.3-1.3,0.4-2.1c0.2-0.8,0.3-1.6,0.5-2.5c0.2-0.9,0.3-1.7,0.5-2.5
		c-0.1-0.1-0.2-0.3-0.2-0.4c0-0.2-0.1-0.3-0.1-0.5c0-0.3,0-0.6,0.1-0.8c0.1-0.2,0.3-0.4,0.6-0.6c0.3-0.2,0.7-0.3,1.3-0.4
		S86.7,44.2,87.6,44.2z M88.3,47.3c-0.2,0-0.4,0-0.6,0c-0.2,0-0.4,0-0.7,0.1c-0.1,0.3-0.2,0.7-0.2,1c-0.1,0.4-0.2,0.9-0.3,1.6
		c0.9,0,1.8-0.1,2.7-0.2s1.5-0.3,2.2-0.4c0.6-0.2,1.1-0.4,1.4-0.6c0.4-0.2,0.5-0.5,0.5-0.7c0-0.2-0.4-0.4-1.1-0.5s-1.9-0.2-3.4-0.2
		H88.3z"/>
	<path class="st2" d="M110.1,44.2c0.6,0,1,0.1,1.4,0.3c0.4,0.2,0.6,0.5,0.6,0.9c0,0.4,0,0.8,0,1.2c0,0.4,0,0.8,0,1.1
		c0,1.2,0.1,2.3,0.2,3.1s0.2,1.5,0.4,2c0.1,0.5,0.3,1,0.4,1.3c0.1,0.3,0.2,0.6,0.2,0.9c0,0.2-0.1,0.5-0.2,0.7
		c-0.2,0.2-0.3,0.4-0.6,0.6s-0.4,0.3-0.7,0.4c-0.2,0.1-0.4,0.1-0.5,0.1c-0.2,0-0.4-0.1-0.6-0.4s-0.4-0.6-0.6-1.1
		c-0.2-0.5-0.4-1.1-0.5-1.8c-0.2-0.7-0.3-1.5-0.4-2.3c-0.7,1.3-1.3,2.3-1.8,3.1c-0.5,0.8-0.9,1.3-1.3,1.7s-0.6,0.6-0.9,0.7
		c-0.2,0.1-0.5,0.2-0.8,0.2c-0.5,0-0.9-0.1-1.1-0.4c-0.3-0.3-0.5-0.7-0.6-1.3c-0.2-0.5-0.3-1.2-0.4-1.9c-0.1-0.8-0.3-1.6-0.5-2.5
		c-0.3,0.6-0.5,1.2-0.8,1.7c-0.2,0.5-0.5,1-0.6,1.4c-0.2,0.4-0.3,0.8-0.5,1c-0.1,0.3-0.2,0.5-0.2,0.6c-0.1,0.4-0.2,0.7-0.5,1
		c-0.2,0.3-0.6,0.4-1.1,0.4c-0.1,0-0.3,0-0.5-0.1c-0.2,0-0.4-0.1-0.6-0.2c-0.2-0.1-0.4-0.3-0.5-0.5s-0.2-0.4-0.3-0.7
		c0-0.2,0.1-0.6,0.2-1c0.2-0.5,0.4-1,0.6-1.6c0.3-0.6,0.5-1.2,0.8-1.8c0.3-0.6,0.6-1.3,0.9-1.8s0.5-1.1,0.8-1.6s0.4-0.8,0.5-1.1
		c0.2-0.5,0.4-0.9,0.5-1.2c0.1-0.3,0.3-0.5,0.4-0.7c0.1-0.2,0.3-0.3,0.5-0.3c0.2-0.1,0.5-0.1,0.8-0.1c0.3,0,0.6,0.1,0.9,0.2
		c0.3,0.2,0.5,0.5,0.6,0.9c0.1,0.3,0.3,1,0.5,2.1c0.2,1.1,0.5,2.4,0.8,4.1c0.6-0.8,1.1-1.7,1.7-2.7c0.5-0.9,1.1-2,1.6-3.2
		c0.1-0.1,0.1-0.3,0.2-0.4s0.2-0.3,0.3-0.5s0.3-0.3,0.5-0.4C109.6,44.2,109.8,44.2,110.1,44.2z"/>
	<path class="st2" d="M123.2,43.9c0.4,0,0.6,0.1,0.7,0.2s0.3,0.3,0.4,0.5c0.1,0.2,0.3,0.6,0.5,1.1c0.2,0.6,0.4,1.2,0.7,2
		c0.2,0.8,0.5,1.6,0.7,2.4c0.2,0.8,0.5,1.6,0.7,2.4c0.2,0.7,0.4,1.3,0.5,1.8c0.1,0.5,0.2,0.8,0.2,0.9c0,0.3-0.1,0.5-0.3,0.7
		c-0.2,0.2-0.4,0.4-0.6,0.5c-0.3,0.1-0.5,0.2-0.8,0.3c-0.3,0.1-0.4,0.1-0.6,0.1c-0.5,0-0.8-0.1-0.9-0.4c0,0,0-0.1-0.1-0.1
		c0-0.1,0-0.2-0.1-0.3c0-0.1-0.1-0.4-0.2-0.6c-0.1-0.3-0.1-0.6-0.2-1.1c-0.5,0-1,0-1.6,0c-0.6,0-1.1,0-1.6,0s-1,0-1.5,0
		c-0.5,0-0.8,0-1.1,0c-0.5,0.7-0.9,1.3-1.3,1.7s-0.7,0.6-0.9,0.6c-0.2,0-0.4,0-0.6-0.1c-0.2-0.1-0.5-0.2-0.7-0.3
		c-0.2-0.1-0.4-0.3-0.6-0.4s-0.3-0.3-0.3-0.4c0-0.2,0-0.3,0.1-0.5s0.2-0.4,0.4-0.7c0.2-0.3,0.5-0.7,0.8-1.2c0.4-0.5,0.8-1.1,1.4-1.9
		c0.7-1,1.6-2,2.5-3.1c0.9-1.1,2-2.3,3.1-3.5c0.1-0.1,0.2-0.2,0.3-0.3S122.8,43.9,123.2,43.9z M123.1,51.2c-0.2-0.5-0.3-1-0.4-1.5
		c-0.1-0.5-0.3-0.9-0.4-1.2c-0.4,0.4-0.8,0.9-1.1,1.3c-0.4,0.5-0.7,0.9-1,1.4c0.5,0,1,0,1.5,0C122.2,51.2,122.7,51.2,123.1,51.2z"/>
	<path class="st2" d="M141.9,44.7c0.7,0,1.2,0.1,1.5,0.3c0.3,0.2,0.4,0.5,0.4,0.8c0,0.3-0.1,0.6-0.2,0.8s-0.2,0.6-0.3,1
		c0,0.1-0.1,0.3-0.1,0.7s-0.1,0.8-0.2,1.4c-0.1,0.5-0.2,1.1-0.3,1.7c-0.1,0.6-0.2,1.2-0.3,1.7c-0.1,0.5-0.2,1-0.2,1.4
		s-0.1,0.6-0.1,0.7c-0.1,0.5-0.3,0.9-0.6,1.2s-0.7,0.4-1.3,0.4c-0.1,0-0.3,0-0.5-0.1c-0.2,0-0.4-0.1-0.7-0.2
		c-0.2-0.1-0.5-0.2-0.7-0.3c-0.2-0.1-0.4-0.3-0.6-0.4c-0.4-0.3-0.7-0.7-1.1-1.2c-0.4-0.5-0.8-1-1.2-1.5c-0.4-0.5-0.7-1.1-1.1-1.6
		c-0.4-0.6-0.7-1.1-1-1.6c-0.2,0.6-0.3,1.2-0.4,1.7s-0.2,0.9-0.3,1.3c-0.1,0.4-0.2,0.7-0.2,1s-0.1,0.7-0.1,1c0,0.3-0.1,0.6-0.1,0.8
		c0,0.2-0.1,0.4-0.2,0.5s-0.3,0.2-0.5,0.2c-0.2,0-0.5,0.1-0.8,0.1c-0.7,0-1.2-0.1-1.5-0.3c-0.3-0.2-0.5-0.6-0.5-1.1
		c0-0.1,0-0.4,0.1-0.8c0.1-0.4,0.2-1,0.4-1.6v0c0.1-0.5,0.3-1.1,0.4-1.7c0.1-0.6,0.3-1.2,0.5-1.9c0.2-0.6,0.3-1.2,0.4-1.8
		c0.1-0.6,0.2-1.1,0.3-1.6c0-0.3,0.2-0.6,0.6-0.9c0.4-0.2,0.9-0.4,1.6-0.4c1,0,1.6,0.3,1.6,0.8c0.3,0.6,0.6,1.2,1,1.8
		c0.4,0.6,0.7,1.3,1.1,1.9c0.4,0.6,0.8,1.2,1.2,1.8s0.7,1.1,1.1,1.5c0.1-0.6,0.2-1.2,0.3-1.8c0.1-0.6,0.2-1.2,0.3-1.8
		s0.2-1.1,0.3-1.7c0.1-0.5,0.2-1,0.3-1.5c0.1-0.3,0.2-0.6,0.5-0.8C141,44.8,141.4,44.7,141.9,44.7z"/>
</g>
</svg>
