<?xml version="1.0" encoding="utf-8"?>
<!-- Generator: Adobe Illustrator 21.0.0, SVG Export Plug-In . SVG Version: 6.00 Build 0)  -->
<svg version="1.1" id="Layer_1" xmlns="http://www.w3.org/2000/svg" xmlns:xlink="http://www.w3.org/1999/xlink" x="0px" y="0px"
	 viewBox="0 0 267 406" style="enable-background:new 0 0 267 406;" xml:space="preserve">
<style type="text/css">
	.st0{fill:#EEE8D7;}
	.st1{fill:#2D0048;}
	.st2{opacity:0.3;clip-path:url(#SVGID_2_);}
	.st3{fill:#231F20;}
	.st4{fill:#FEFEFE;}
	.st5{fill:#2C0147;}
	.st6{fill:#2B0541;}
	.st7{fill:#2A063E;}
	.st8{fill:#2A063F;}
	.st9{fill:#2A053E;}
	.st10{fill:#941011;}
	.st11{fill:#FEFDFE;}
	.st12{fill:#2A093C;}
	.st13{fill:#EFEDF2;}
	.st14{fill:#F1F1F4;}
	.st15{fill:#F2F2F5;}
	.st16{fill:#F6F6F8;}
	.st17{fill:#F3F2F5;}
	.st18{fill:#D5D3DD;}
	.st19{fill:#FAFAFB;}
	.st20{fill:#D8D6DE;}
	.st21{fill:#240C30;}
	.st22{fill:#BEBBCA;}
	.st23{fill:#26132D;}
	.st24{fill:#BDBACB;}
	.st25{fill:#EBE9EE;}
	.st26{fill:#F1F1F2;}
	.st27{fill:#5C4E6E;}
	.st28{fill:#F2F3F4;}
	.st29{fill:#6A5D7C;}
	.st30{fill:#7C6E8B;}
	.st31{fill:#7B6D87;}
	.st32{fill:#746886;}
	.st33{fill:#534367;}
	.st34{fill:#786A87;}
	.st35{fill:#271831;}
	.st36{fill:#140C14;}
	.st37{fill:#CDCCDA;}
	.st38{fill:#DDDDE6;}
	.st39{fill:#6D5E7E;}
	.st40{fill:#CECFDB;}
	.st41{fill:#ECECEE;}
	.st42{fill:#D5CCD5;}
	.st43{fill:#E8EFF8;}
	.st44{fill:#E9EAEF;}
	.st45{fill:#FFFFFF;}
</style>
<g>
	<g>
		<path class="st0" d="M14.6,406.1c-7.8,0-14.2-6.4-14.2-14.2V14.7c0-7.8,6.4-14.2,14.2-14.2h238.3c7.8,0,14.2,6.4,14.2,14.2v377.3
			c0,7.8-6.4,14.2-14.2,14.2L14.6,406.1L14.6,406.1z"/>
	</g>
	<g>
		<path class="st1" d="M260,391.9c0,3.9-3.2,7.1-7.1,7.1H14.6c-3.9,0-7.1-3.2-7.1-7.1V14.7c0-3.9,3.2-7.1,7.1-7.1h238.3
			c3.9,0,7.1,3.2,7.1,7.1V391.9z"/>
	</g>
	<g>
		<g>
			<defs>
				<path id="SVGID_1_" d="M260,391.9c0,3.9-3.2,7.1-7.1,7.1H14.6c-3.9,0-7.1-3.2-7.1-7.1V14.7c0-3.9,3.2-7.1,7.1-7.1h238.3
					c3.9,0,7.1,3.2,7.1,7.1V391.9z"/>
			</defs>
			<clipPath id="SVGID_2_">
				<use xlink:href="#SVGID_1_"  style="overflow:visible;"/>
			</clipPath>
			<g class="st2">
				<g>
					
						<rect x="-120" y="-114.8" transform="matrix(0.7075 -0.7068 0.7068 0.7075 119.9946 61.0732)" class="st3" width="507.5" height="0.7"/>
				</g>
				<g>
					
						<rect x="-120" y="-69.4" transform="matrix(0.7075 -0.7068 0.7068 0.7075 87.9169 74.3525)" class="st3" width="507.5" height="0.7"/>
				</g>
				<g>
					
						<rect x="-120" y="-24" transform="matrix(0.7075 -0.7067 0.7067 0.7075 55.825 87.622)" class="st3" width="507.5" height="0.7"/>
				</g>
				<g>
					
						<rect x="-120" y="21.4" transform="matrix(0.7075 -0.7068 0.7068 0.7075 23.7618 100.9113)" class="st3" width="507.5" height="0.7"/>
				</g>
				<g>
					
						<rect x="-120" y="66.8" transform="matrix(0.7075 -0.7067 0.7067 0.7075 -8.3216 114.1727)" class="st3" width="507.5" height="0.7"/>
				</g>
				<g>
					
						<rect x="-120" y="112.2" transform="matrix(0.7075 -0.7067 0.7067 0.7075 -40.3951 127.4478)" class="st3" width="507.5" height="0.7"/>
				</g>
				<g>
					
						<rect x="-120" y="157.6" transform="matrix(0.7075 -0.7068 0.7068 0.7075 -72.4712 140.7498)" class="st3" width="507.5" height="0.7"/>
				</g>
				<g>
					
						<rect x="-120" y="202.9" transform="matrix(0.7075 -0.7067 0.7067 0.7075 -104.5415 153.9982)" class="st3" width="507.5" height="0.7"/>
				</g>
				<g>
					
						<rect x="-120" y="248.3" transform="matrix(0.7075 -0.7068 0.7068 0.7075 -136.6259 167.3081)" class="st3" width="507.5" height="0.7"/>
				</g>
				<g>
					
						<rect x="-120" y="293.7" transform="matrix(0.7075 -0.7067 0.7067 0.7075 -168.6888 180.5485)" class="st3" width="507.5" height="0.7"/>
				</g>
				<g>
					
						<rect x="-120" y="339.1" transform="matrix(0.7075 -0.7068 0.7068 0.7075 -200.7807 193.8671)" class="st3" width="507.5" height="0.7"/>
				</g>
				<g>
					
						<rect x="-120" y="384.5" transform="matrix(0.7075 -0.7067 0.7067 0.7075 -232.8351 207.0984)" class="st3" width="507.5" height="0.7"/>
				</g>
				<g>
					
						<rect x="-120" y="429.9" transform="matrix(0.7075 -0.7067 0.7067 0.7075 -264.9086 220.3745)" class="st3" width="507.5" height="0.7"/>
				</g>
				<g>
					
						<rect x="-119.9" y="475.3" transform="matrix(0.7075 -0.7068 0.7068 0.7075 -297.0128 233.7048)" class="st3" width="507.5" height="0.7"/>
				</g>
				<g>
					
						<rect x="-120" y="520.6" transform="matrix(0.7075 -0.7067 0.7067 0.7075 -329.055 246.9245)" class="st3" width="507.5" height="0.7"/>
				</g>
			</g>
		</g>
	</g>
</g>
<g>
	<path class="st1" d="M60.4,245.7c-0.5-0.2-1.1-0.2-1.3-0.5c-2.7-3.7-5.7-7.1-8.1-11c-1.3-2-3.3-3.6-4.8-5.6
		c-2.2-3.1-4.6-6.1-7.1-9.1c-1.1-1.4-0.7-1.8,0.8-2.5c4.7-2.2,9.7-3.9,14.5-5.7c5.6-2.1,11-4.3,16.6-6.4c9.5-3.6,19.1-7.2,28.6-10.7
		c3.4-1.3,6.7-3,10.4-3.6c1.5-0.2,1.6-2.5,1.6-4c-0.5-10.5-1.6-21.1-1.6-31.6c0-8.9,3-16.8,11.6-21.2c6-3,12.3-3,19-1.9
		c7.5,1.3,12.8,4.8,16.2,11.4c2.6,5,2.8,10.6,2.3,16c-0.8,8.7-1,17.4-1.3,26.1c-0.2,4.5-0.2,4.4,4,5.9c1.6,0.6,3.9,0.4,4.3,2.8
		c2.1-1.6,3.6,0.4,5.3,1c7.6,2.8,15.3,5.6,22.9,8.4c7.4,2.7,14.8,5.4,22.2,8.1c4.5,1.6,8.8,3.4,13.3,5.1c1.6,0.6,1.9,1,0.9,2.7
		c-2.4,3.9-5.8,7-8.5,10.7c-1.4,1.9-2.8,4-4.3,5.9c-4.7,5.7-9.2,11.6-13.7,17.5c-0.2,0.3-0.7,0.4-1,0.6c-1.2,0.2-1.9-0.7-2.5-1.4
		c-5-6.5-11-11.9-17.9-16.4c-0.7-0.4-1.3-1-1.6-1.8c-0.4-1.3-1.3-1-2.2-0.8c-0.8,0.2-1.6,1-2.5,0.4c-0.8-4.4,1.1-6.2,5.3-4.9
		c8.3,2.7,15.5,7.4,21.8,12.5c-6.4-9.6-16.1-15.8-26.6-20.9c-2.9-1.4-3-1.4-3.6,1.9c-1.5,7.3-3.4,14.5-6,21.5
		c-1.4,3.6-2.4,3.9-5.6,1.8c-2.5-1.7-5-3.3-7.7-4.8c-2.2-1.2-3.7-1.1-5,1.2c-1.3,2.2-3,4.3-4.8,6.2c-0.8,0.9-1.7,2.3-3.3,1.4
		c-1.4-0.8-1-2.2-0.6-3.5c0.1-0.3,0.1-0.6-0.1-1.1c-1.6,1.9-3.8,1.6-5.9,1.4c-2-0.2-4.6,1.5-5.7-1.8c-0.8,0.8-0.4,1.6-0.4,2.4
		c0.1,1,0.1,2.1-1,2.6c-1.1,0.5-1.9-0.2-2.7-0.9c-2.1-2.1-3.7-4.5-5.3-6.9c-1.2-1.9-2.7-2.2-4.6-1.1c-2.8,1.6-5.5,3.3-8.1,5.1
		c-3,2-3.9,1.7-5.1-1.5c-2.9-7.3-5.2-14.8-6.5-22.6c-0.4-2-1-2.3-2.8-1.4c-9.1,4.5-17.6,9.8-24.4,17.4c-1.8,2.1-3.4,4.2-4.6,6.7
		C62.7,245.8,61.6,245.9,60.4,245.7z"/>
	<path class="st4" d="M62.8,244.6c-0.3-1.9,1.2-3.1,2.2-4.4c5.1-7.1,12-12.1,19.4-16.5c3.5-2.1,7.1-4,11.2-5.7
		c1.3,8.6,3.6,16.7,6.5,24.6c1.6,4.4,1.6,4.4,5.5,1.8c2.8-1.9,5.8-3.6,8.8-5.1c1.4-0.7,2.2-0.6,3.1,0.8c2,3,4.2,5.9,6.4,8.8
		c0.4,0.4,0.7,1.5,1.6,0.8c0.6-0.5,1-1,0.5-2.1c-1.3-2.7-1.3-2.8,2.1-4.9c-1,3.1-0.3,4.3,2.9,3.2c1.1-0.4,2.4-0.2,3.6,0
		c3.1,0.5,3.3,0.2,2.5-2.9c3.4,1.6,3.4,1.6,1.9,4.8c-0.5,1,0.2,1.3,0.6,1.8c0.7,0.7,1-0.1,1.4-0.5c2.2-2.8,4.6-5.6,6.6-8.6
		c1.1-1.8,1.9-1.6,3.4-0.8c4.2,2.1,8.2,4.6,12.3,7.7c4-9.4,6.2-19.1,8.3-29.1c13.5,6.1,25.7,13.3,32.9,26.7
		c-5.4-4.1-10.8-8.2-16.9-11.3c-2.6-1.3-5.3-2.4-8-3.3c-2.4-0.8-4.1-0.7-4.2,2.4c-0.1,0.6-0.2,1.1-0.3,1.8c0.8,1.2,0.2,2.4-0.2,3.4
		c-1.6,4.7-3.8,9.1-6.6,13.2c-2.3,3.3-3.7,3.4-6.5,0.7c-2-1.9-4.2-3.4-6.7-4.6c-2.4-1.1-4.6-1-6.6,0.9c-1.4,1.4-3,2.8-4.8,4.3
		c2.4-1.1,4-2.4,5.7-3.7c1.6-1.3,3.2-1.4,5-0.3c2.9,1.8,5.9,3.6,8.3,6c2.1,2.1,2.1,2.1,3.9-0.4c3.7-5.1,7.2-10.4,9.6-16.4
		c0.4-0.9,0.7-1.9,1.4-2.7c0.7-0.8,1.4-1.6,2.4-0.2c8.6,5.1,15.3,12.1,21.5,19.7c0.5,1.6-1.1,2.1-1.6,3.1c-1.6,0.3-2.6-0.8-3.6-1.8
		c-3.5-3.1-7.2-6.2-11.2-8.7c-2.9-1.8-3.2-1.8-5,1c-3.1,4.9-6.6,9.6-11,13.5c-3.7,3.2-4.6,3.2-8-0.2c-1.9-2-4.1-3.6-6.2-5.3
		c-2-1.6-3.9-1.9-5.9-0.1c-0.8,0.7-1.8,1.2-2.7,1.5c0.2-0.1,0.5-0.1,0.7-0.3c4.8-2.5,5.1-2.4,9,1.3c2.4,2.2,4.6,4.5,6.8,6.8
		c1.1,1.2,2,1.2,3.3,0.2c4.9-4.1,9.5-8.6,13.2-13.9c1.9-2.8,2.9-3,5.6-1c3.7,2.7,6.8,6.2,9.6,10c0.8,1.1,1,2.4,0.4,3.7
		c-1.2,0.8-1.5,2.5-3,3c-2.1-0.1-2.9-2-4.2-3.3c-4.6-4.5-5.1-4.5-9.6,0.1c-3.6,3.6-7.6,6.8-12.1,9.4c-2.8,1.7-3.8,1.4-5.9-1.1
		c-1.6-2.1-3-4.2-4.9-6.1c-2.7-2.7-5.5-4.8-8.7-3.4c2.1-0.7,4.3,0.5,6.5,2.5c2.8,2.7,5.3,5.5,7.3,8.8c1.3,2.1,2.7,2.3,4.8,1.2
		c5.1-2.6,10.2-5.2,14.5-9c2.2-1.9,3.4-1.8,5.4,0.4c1.4,1.6,2.7,3.2,3.1,5.4c-1.2,1.7-2.4,3.3-3.7,5c-0.5,0.1-1.1,0.2-1.4,0
		c-2.5-2.1-4.5-0.7-6.8,0.7c-4.3,2.6-8.8,4.9-13.5,6.6c-4,1.4-4.6,1.1-6.3-2.6c-1.8-3.9-3.8-7.5-6.5-10.9c-1.8-2.3-4.3-2.8-6.9-3
		c-1-0.1-1.8,0.3-2.2,1.2s0.2,1.5,0.7,2.2c1.6,2,3.2,3.9,5,5.7c1.4,1.4,2.2,3.1,2.3,5.1c0.2,13.8-1,27.3-4.8,40.6
		c-0.7,2.3-1.5,4.6-2.7,6.7c-0.9,1.6-1.9,1.9-3.1,0.1c-2.1-2.9-7.8-3.5-10.4-1.2c-2.6,2.4-3.2,2.2-4.5-1.1
		c-2.9-7.2-4.8-14.7-5.9-22.4c-1-6.9-0.9-13.8-1.4-20.8c-0.2-2.7,0.7-4.9,2.6-6.8c1.8-1.8,3.3-3.9,5-5.6c0.7-0.7,1.3-1.3,0.7-2.4
		c-0.5-0.8-1.3-1.3-2.2-1.3c-2.7,0.2-5.1,0.6-6.9,3c-2.4,3.3-4.5,6.6-6,10.4c-1.9,4.7-2.6,4.9-7.2,3c-4.6-1.8-9.1-3.9-13.2-6.6
		c-2.5-1.7-4.7-1.9-7.2-0.8c-1.5-1.6-3.3-2.9-3.6-5.3c0.3-1,0.5-2.1,1.1-3c2.9-4.2,4.2-4.3,8-1.1c4.3,3.6,9.2,6,14.2,8.4
		c1.5,0.7,2.4,0.3,3.2-1.1c2.2-3.9,5.6-6.8,8.6-10c1.5-1.5,3.3-2.3,5.4-1.9c-4-0.5-4.3-0.4-7.4,2.5c-2.2,2.1-4.2,4.2-6,6.7
		c-2.1,3-3.1,3.1-6.2,1.1c-4.8-3.1-9.4-6.6-13.5-10.6c-2.7-2.6-3-2.7-5.9-0.1c-1.2,1-2.4,2.2-3.5,3.3c-0.8,0.8-1.6,1.6-2.9,0.9
		c-0.8-1-1.6-2.1-2.5-3.1c-0.8-1.5-0.1-2.7,0.7-3.9c2.5-3.6,5.6-6.6,9.1-9.1c2.5-1.8,3.4-1.7,5.3,0.8c3.6,5,8.2,9.1,12.6,13.4
		c1.8,1.8,3.2,1.9,4.9-0.2c2.1-2.6,4.7-4.6,7.3-6.8c3.5-2.9,3.7-3,7.7-0.8c0.5,0.3,1,0.6,1.4,0.7c-0.2-0.1-0.5-0.2-0.8-0.4
		c-5.6-3-4.6-3.9-10.9,1.3c-1.4,1.2-2.7,2.7-4.2,4c-2.5,2.3-3.9,2.4-6.6,0.2c-4.5-3.7-8-8.2-11-13.1c-2.7-4.3-2.7-4.3-6.8-1.6
		c-3.6,2.3-6.8,5.1-10,7.8c-0.9,0.8-1.8,1.6-3.1,1.8c-1-0.7-1.6-1.7-2.2-2.8c0.2-1.1,0.4-2.1,1.1-3c4.9-6.2,10.4-11.6,17.3-15.8
		c4-2.4,4.9-2.2,6.8,2c2.7,5.9,6.2,11.3,9.8,16.6c1.1,1.7,2.1,1.8,3.5,0.3c2.3-2.5,5-4.3,7.8-6.1c2.2-1.4,4.2-1.4,6.3,0.5
		c1.3,1.3,3,2.3,5.3,3.6c-2.2-2.5-4.5-3.9-6.3-5.7c-1.2-1.1-2.6-0.8-3.9-0.3c-3.1,1.2-5.9,3-8.3,5.3c-2.5,2.3-3.5,2.3-5.7-0.2
		c-3.1-3.6-5-8-6.6-12.4c-0.7-1.8-1.2-3.6-1.8-5.4c-0.8-2.8-1.3-3.1-4.1-2.1c-4.3,1.4-8.3,3.6-12.1,6c-3.1,1.9-6,4-8.9,6.2
		C65.1,244.4,64.2,245.5,62.8,244.6z"/>
	<path class="st5" d="M83.3,276.5c1.9-2.5,3.7-3,6.6-0.9c4.8,3.4,10.3,5.8,15.8,8.1c1.9,0.8,2.8,0.7,3.7-1.5
		c1.9-5.1,4.3-10,8.2-13.9c2.7-2.7,8-2.4,10.3,0.3c0.7,0.8,0.7,1.2-0.1,1.9c-1.3,1.3-2.3,2.8-3.7,3.9c-4.4,3.4-5.3,7.7-5,13.2
		c0.7,13.8,2.3,27.2,7.6,40c0.2,0.7,0.5,1.3,0.8,2c1.4-3.6,3.2-4.4,8.4-4.2c2.9,0.1,5.2,0.9,5.4,4.7c1.8-2.5,2.7-5.1,3.5-7.7
		c4-13.5,4.9-27.4,5.1-41.4c0-1.3-0.5-2.1-1.3-2.9c-2.2-2.3-4.5-4.6-6.6-6.9c-0.5-0.6-1.9-1.3-1.2-2.1c0.9-1,1.4-2.8,3.3-2.7
		c3.7,0.2,7,0.7,9.4,4.1c2.6,3.7,5,7.5,6.5,11.8c0.5,1.7,1.3,1.9,2.8,1.4c5.9-2.1,11.5-4.7,16.7-8.3c2.3-1.6,3.9-2,5.7,0.4
		c0.3,0.4,1,0.6,1.5,0.9c-3.1,2.4-4.9,6-7.5,8.9c-4.6,5.4-9,11-13.3,16.6c-5.7,7.3-11.6,14.4-17,22c-2.8,3.9-5.8,7.8-9.3,11.2
		c-1.3,1.3-1.9,3.1-3.1,4.5c-0.9,1.1-1.6,2.5-3.1,0c-2.2-3.5-5.4-6.3-7.8-9.8c-1.5-2.1-3-4.2-4.6-6.3c-2.1-2.8-4.4-5.4-6.5-8.2
		c-2.1-2.8-4-6-6.3-8.4c-2.9-3-5.1-6.5-7.8-9.7c-3-3.5-5.7-7.2-8.6-10.8C88.9,283.4,86.1,279.9,83.3,276.5z"/>
	<path class="st6" d="M62.8,244.6c3.2-2.2,6.3-4.5,9.6-6.7c4.8-3.2,9.7-5.9,15.2-7.8c2.4-0.8,3.7-0.6,4.3,2.4
		c1.2,5.3,3.1,10.4,5.9,15c0.8,1.4,1.8,2.7,2.8,3.9c1.1,1.4,2,1.8,3.4,0.1c2.8-3.3,6.4-5.4,10.6-6.6c1.1-0.4,2.1-0.5,3,0.4
		c2.4,2.2,4.7,4.3,7.1,6.5c0.5,0.5,1.1,1,0.6,1.8c-0.6,1-1.2,0.2-1.8-0.1c-2.4-1.3-4.8-2.7-6.6-4.6c-1.1-1.2-1.9-1-3-0.3
		c-3.9,2.4-7.8,4.6-10.4,8.5c-1.2,1.8-1.6,0.1-2-0.5c-4.6-6.3-9-12.9-11.8-20.2c-0.8-2.2-1.6-1.9-3.1-1c-8.3,4.8-14.9,11.4-20.6,19
		c-1.8-2.3-3.5-4.5-5.3-6.8c-0.5-0.7-0.7-1.1-0.2-1.9C60.7,244.3,62.2,245.4,62.8,244.6z"/>
	<path class="st7" d="M196.8,263.8c0.1-0.6,0.2-1.1-0.2-1.7c-3.3-4.6-7.1-8.7-11.6-12.1c-1.4-1-1.8-0.2-2.4,0.8
		c-3.9,6.3-9.4,11.2-15,16c-1.4,1.1-2.1,1-3.1-0.3c-3-3.7-6.5-6.9-10.1-9.8c-1.1-0.8-1.9-1-3.1-0.2c-1.4,1-3.2,1.7-4.8,2.4
		c-0.5,0.2-1.1,0.7-1.5-0.2c-0.2-0.5,0.1-1,0.7-1.1c2.7-1.1,5.2-2.7,7.5-4.5c1-0.8,1.7,0.2,2.4,0.7c3.4,2.3,6.6,4.9,9.2,8.1
		c1.3,1.6,2.3,1.4,3.7,0.4c5.5-4,9.3-9.4,12.9-15c2.3-3.6,2.2-3.6,5.9-1.3c5.4,3.3,9.8,7.6,14.6,11.5
		C199.5,259.1,198.2,261.5,196.8,263.8z"/>
	<path class="st8" d="M68.2,257.1c4.5-4.6,9.5-8.6,15-12c1.8-1.1,2.8-1.3,4.1,1c3.3,5.7,7.1,10.9,12.1,15.3c2,1.8,3.5,2.5,5.6-0.1
		c2.2-2.7,5.1-4.8,7.8-7c1.6-1.3,2.8-1.7,4.7-0.1c2,1.7,4.5,2.8,6.6,4.4c-2.2,0.2-3.9-1.1-5.6-2.1c-1.6-0.9-2.7-0.9-4.2,0.4
		c-3.6,3.2-7.5,6.1-10.4,10c-1,1.4-1.6,0.5-2.3-0.1C96,262,90.4,257,86.3,250.7c-0.5-0.8-0.8-1.9-2.2-0.8
		c-4.5,3.3-8.4,7.2-11.5,11.8c-0.2,0.4-0.1,1-0.2,1.4C71.1,261.1,70.1,258.8,68.2,257.1z"/>
	<path class="st7" d="M190.2,271.7c-1.7-2-3.4-3.9-5.1-6c-0.7-0.9-1.3-0.9-2.1,0c-4.9,5.1-11.2,8-17.5,10.9c-1.4,0.7-2.4,0.7-3-1
		c-0.5-1.1-1.2-2.1-2-3c-4.2-4.8-7.4-11.4-15.9-9.3c5.3-3.3,8.3-3.1,12.1,0.5c2.6,2.4,4.9,5.1,6.8,8.1c1,1.7,1.8,1.6,3.3,0.7
		c5.7-3.6,11-7.8,15.6-12.7c1.4-1.5,2.5-1.6,4-0.5c3,2,5.4,4.3,7.5,7.2C193.2,268.8,191,269.8,190.2,271.7z"/>
	<path class="st9" d="M75,266.3c2.7-1.4,4.3-4.1,6.6-5.9c2.2-1.6,3.6-2.1,5.7,0.2c4.3,4.6,9.3,8.6,14.8,11.8c1.7,1,2.6,1.1,3.7-0.8
		c2-3.4,4.8-6.2,7.8-8.8c1.9-1.6,3.8-2.4,6.3-1.4c1.4,0.5,3,0.7,4.3,1c-0.1,1-0.6,1-0.9,0.9c-5.3-1.1-8.7,1.7-11.7,5.4
		c-1.8,2.3-3.9,4.4-5.1,7.1c-0.8,1.7-1.6,1.6-3,0.8c-6.3-3-12.5-6-17.5-11c-1-1-1.6-0.8-2.3,0.2c-1.3,1.8-2.7,3.4-4,5.2
		C78.1,269.5,76.6,267.9,75,266.3z"/>
	<path class="st10" d="M145.5,217.4c0.4,3.1,0.3,6.5,1.9,9.4c1.6,2.8,4,4.4,7.3,4.5c4.6,0.1,9.1-0.2,12.3-4.6
		c1.2,2.2-0.3,3.7-1.4,4.8c-4.6,4.3-10.3,6.6-16.7,6c-5.6-0.5-9.2-3.7-11.2-8.7c-0.2-0.4-0.5-0.8-0.7-1.3c-0.6-0.6-1-1.3-0.6-2.2
		c0-2.1-0.7-4.1-1-6.2c-0.4-2.1-1.6-3.1-3.3-3.9c-2.1-1-4.5-1.8-3.6-4.9c1-3.3,4-5.4,7-4.9c4.2,0.7,6.8,3.1,8.2,7
		c0.4,1.1,0.7,2.3,1.6,3.2C146.2,216.2,145.8,216.8,145.5,217.4z"/>
	<path class="st11" d="M129.4,182.2c-2.5,0.2-4.1-1-4.8-3c-0.4-1.4-1-1.8-2.4-1.9c-6.8-0.6-11.9-8.7-9.7-15.1c0.5-1.4,0.7-2.7,0-4.3
		c-1.1-2.5-0.1-4.9,1-7.2c0.5-1.1,1.1-1,1.9-0.4c3.6,2.7,7.8,4.9,7.7,10.3c0,1.2,0.7,2.1,1.7,2.7c3.8,2.6,4.5,6.5,4.2,10.7
		C128.8,176.6,128.3,179.3,129.4,182.2z"/>
	<path class="st4" d="M140.2,182.2c1.3-3.3,0.5-6.3,0.4-9.2c-0.2-4,0.7-7.4,4.1-9.8c1.2-0.8,1.8-2.1,1.9-3.6c0.2-3.4,4.7-8.8,8-9.8
		c0.8-0.2,1.1-0.1,1.4,0.6c0.9,2.4,2.2,4.7,1,7.2c-0.8,1.6-0.5,3.1,0,4.6c1.4,3.9,0.4,7.2-2.4,10.3c-2.3,2.6-4.4,5.3-8.4,4.8
		c-1.1-0.1-1,1.1-1.3,1.8C144.3,181.1,142.8,182.3,140.2,182.2z"/>
	<path class="st12" d="M181.7,234.4c-1.9-0.8-1.9,1-2.2,1.9c-3.1,7.9-7.7,14.9-13.2,21.5c-2.9-4-6.8-6.7-10.8-9.1
		c-1.4-0.8-2.3-1-3.6,0.3c-1.9,2-4.3,3.3-6.8,4.5c-0.4,0.2-0.9,0.7-1.3,0.1c-0.4-0.5-0.4-1.1,0.1-1.6c2.7-2.3,5.3-4.6,7.9-6.9
		c0.7-0.7,1.5-0.2,2.3-0.1c4.3,1,8,3.3,10.9,6.6c1.5,1.8,2.3,1.1,3.4-0.2c3.3-4.1,5.5-8.8,7.2-13.8c0.4-1.1,0.8-2.2,1.2-3.4
		c0.8-2.1,2.8-1.2,4.3-1.8C181.8,232.3,181.9,232.5,181.7,234.4z"/>
	<path class="st13" d="M126.9,200.3c-0.8-2.9-1.6-5.8-1.9-8.8c-0.8-0.7-1.3-1.5-0.6-2.5c0.1-1.1,0.1-2.3,0.2-3.7
		c2.8,1,2.7,3.3,3,5.5c1.4,2.9,0.8,5.9,0.5,8.8C128,200.1,127.5,200.4,126.9,200.3z"/>
	<path class="st14" d="M141.3,199.9c-0.4,0.4-0.8,0.7-1.1,1c-0.7-0.5-0.8-1.1-0.7-1.9c0.5-2.2,0.2-4.4,0.3-6.6
		c0.1-1.2-0.1-2.4,0.8-3.4c0.2-0.7,0.4-1.3,0.7-1.9c0.4-0.8,1-1.9,1.9-1.5c0.8,0.3,0.1,1.4,0.3,2.2c0.5,2.3,0.5,4.6-0.2,6.8
		C143.4,196.5,143.1,198.5,141.3,199.9z"/>
	<path class="st15" d="M130.5,196.9c-0.1,1.6,0.1,3.3-0.2,4.9c-0.3,1.3-0.6-0.4-1-0.2c-1.6-1.7-1.3-3.8-1.3-5.8c0-1.7-0.1-3.3,0.1-5
		c0.2-1.4-0.2-3.5,2.4-1.8c1.2,0.5,1.7,1.5,1.4,2.6C131.4,193.4,131.8,195.4,130.5,196.9z"/>
	<path class="st16" d="M137.2,189.6c0.7-0.7,1.3-1.8,2.5-0.7c1,1.7,0.4,3.6,0.5,5.4c0.1,2.4,0,4.6-1.3,6.8c-0.2,0.4-0.5,0.8-0.7,1.3
		c-0.2,0-0.4,0-0.5,0.1c0-1.8,0-3.6,0-5.4C136.4,194.5,135.3,192.2,137.2,189.6z"/>
	<path class="st17" d="M136.6,197.5c-0.1,1.6-0.3,3.1-1,4.8c-1-1.6-0.6-3.3-1-4.8c-0.5-2.7-1.6-5.3,0.1-7.9c0.4-0.6,0.4-1.8,1.3-1.8
		c1,0.1,0.3,1.1,0.6,1.7C136.6,192.2,137.6,194.8,136.6,197.5z"/>
	<path class="st18" d="M124.4,188.9c0.2,0.8,0.4,1.7,0.6,2.5c-1.4,2.3,0.3,4.9-0.7,7.2c-1.9-2.2-3-7.9-2.2-12.3
		C123.9,186.3,123.3,188.4,124.4,188.9z"/>
	<path class="st19" d="M131.6,188.3c2.2-1,1.3,1.2,1.9,1.8c0.8,1.9,0.8,3.7,0,5.6c-0.2,2.2-0.4,4.4-0.7,7.1c-1-1.8-1.1-3.3-1.3-4.7
		C130.6,194.8,131.4,191.6,131.6,188.3z"/>
	<path class="st20" d="M144.2,188.3c0.3-0.8,0.5-1.8,1.7-2.1c1.1,2.8,0.3,5.5-0.2,8.1c0.8,1.6-0.3,2.9-0.8,4.2
		c-0.4,1.1-1.2,0.7-1.7-0.2C143.3,195,142.8,191.5,144.2,188.3z"/>
	<path class="st21" d="M143.6,198.7c1.1-0.9,1.1-0.9,2-4.3c0.2,0,0.4,0,0.5,0c0.5,0.4,1,0.8,0.5,1.5c-0.8,1-1,2.3-0.8,3.6
		c0.2,1,0.1,1.8-0.8,2.3c-1,0.5-1.3-0.5-1.9-1c-0.5-0.4-1-0.9-1.8-0.9c0.4-1.8,0.8-3.6,1.3-5.4C144.3,195.6,142.8,197.4,143.6,198.7
		z"/>
	<path class="st22" d="M149.2,187.3c1-0.2,1.8-0.1,1.8,1.2c-0.1,2,0.2,4-0.7,5.9c-0.9-0.4-0.1-1.3-0.7-1.8c-0.9,0.6,0.2,3-2.1,2.5
		c-0.7-0.6-0.4-1.3-0.2-1.9C148.2,191.3,146.9,188.7,149.2,187.3z"/>
	<path class="st23" d="M133.4,225.2c0.7-1,1.4-0.6,2.1,0.1c0.7,0.9-0.1,1.7-0.2,2.5c-0.4,2.6-3,0.9-3,0.8c-1.4-1.4-2.7-1.2-4.2,0.1
		c-0.5-1.5-0.8-2.7,0-3.9c0.4,0.3,0.7,0.7,1.1,1c0.9-0.6,1.6-0.1,2.3,0.4c0.1,0.1,0.2,0.2,0.4,0.3
		C133,226.9,133.2,226.1,133.4,225.2z"/>
	<path class="st24" d="M119.1,194.3c-0.1-0.5-0.2-1.1-0.5-1.9c-0.2,0.8-0.4,1.4-0.5,1.9c-0.2-0.1-0.4-0.1-0.4-0.2
		c-0.8-1.8-0.5-3.7-0.6-5.6c0-1.8,0.8-1.7,2-1c1,1.3,1.3,2.8,1.3,4.5C120.4,193,120.6,194.1,119.1,194.3z"/>
	<path class="st25" d="M127.9,218.4c0.9,1.4,0.8,2.7,0.8,3.9c0,0.7,0.4,1.9-0.9,1.8c-1-0.1-1.9-1-1.6-2.1
		C126.3,220.6,126.7,219.4,127.9,218.4z"/>
	<path class="st26" d="M120.3,186.7c2.3,3,1.3,6.2,0.8,9.4c-0.1-0.1-0.2-0.1-0.2-0.1c-0.1-0.1-0.1-0.1-0.2-0.2
		C119.5,192.7,119.3,189.7,120.3,186.7z"/>
	<path class="st27" d="M128.1,190.8c0.6,1.6,0.5,3.3,0.4,4.9c-0.7,1.8,0.5,3.6-0.3,5.3c-0.9,0.5-1.1-0.1-1.3-0.8
		c1.4-1.9,0.2-4,0.5-6c0.2-1.1,0.1-2.4,0.1-3.6C127.7,190.7,127.9,190.7,128.1,190.8z"/>
	<path class="st28" d="M147.8,193.2c-0.6,0.5-0.7,1.2-0.4,2c-0.2,0.2-0.5,0.5-0.7,0.7c-0.2-0.5-0.4-1-0.5-1.5
		c0.8-1.4,0.3-2.9,0.4-4.3c0.1-1.3-0.1-2.6,1.3-3.4C148.9,188.8,148.3,191,147.8,193.2z"/>
	<path class="st29" d="M139.6,194.5c0-1.9,0-3.7,0-5.6c0.4,0,0.7,0,1.1,0c0.1,3.5,0.2,7-0.4,10.4C139,197.9,140.4,196.1,139.6,194.5
		z"/>
	<path class="st30" d="M131.6,188.3c0,3.3-0.1,6.5-0.1,9.8c-0.4-0.4-0.7-0.8-1-1.2c-0.7-2.7,1.2-5.3-0.1-7.9
		C131,189.1,131.2,188.7,131.6,188.3z"/>
	<path class="st31" d="M120.3,186.7c-0.2,3-0.1,6,0.4,9.1c-1.1,0.1-1.4-0.5-1.6-1.4c1.6-2.2-0.5-4.4,0.1-6.6
		C119.5,187.3,119.9,187,120.3,186.7z"/>
	<path class="st32" d="M133.5,195.7c0-1.9,0-3.7,0-5.6c0.4-0.2,0.7-0.4,1.1-0.6c0,2.7,0,5.3-0.1,7.9
		C134.3,196.9,133.9,196.3,133.5,195.7z"/>
	<path class="st33" d="M143.6,198.7c-1.1-1.2,0.2-3-1-4.2c0.3-2.3,0.7-4.6,1-6.9c0.2,0.2,0.4,0.5,0.6,0.7
		C143.5,191.7,143.7,195.2,143.6,198.7z"/>
	<path class="st34" d="M136.6,197.5c0-2.7,0-5.3,0-8c0.2,0,0.4,0.1,0.5,0.1c0.1,2.4,0.3,4.9,0.4,7.3
		C137.2,197.1,136.9,197.3,136.6,197.5z"/>
	<path class="st35" d="M139.6,194.5c1,1.6,0.2,3.3,0.7,4.9c0,0.5-0.1,1-0.1,1.4c-0.4,0.7-0.8,0.4-1.3,0.2
		C139.1,198.9,139.3,196.7,139.6,194.5z"/>
	<path class="st36" d="M128.2,201.1c0-1.8-0.5-3.6,0.3-5.3c0.2,1.9,0.5,3.9,0.8,5.9c-0.1,0.4-0.2,0.8-0.4,1.4
		C128.6,202.2,128.4,201.7,128.2,201.1z"/>
	<path class="st37" d="M123,212.1c0.8,1.6,0.9,3.4,0.7,5.3C121.8,215.7,122.3,213.9,123,212.1z"/>
	<path class="st38" d="M145.5,217.4c-0.1-0.6-0.2-1.1-0.3-1.8c0.1-1.2,0.2-2.4,0.5-4.4C147.2,214,147,215.7,145.5,217.4z"/>
	<path class="st39" d="M147.8,193.2c0-2.2,0-4.3-0.1-6.5c0.5,0.2,1,0.4,1.4,0.6C148.4,189.2,149,191.4,147.8,193.2z"/>
	<path class="st40" d="M148.3,208.6c0.5,2.3,0.5,2.3-0.6,4.3C147.1,210.7,147.1,210.7,148.3,208.6z"/>
	<path class="st41" d="M131.5,226.2c-0.9,0.5-1.6-0.2-2.3-0.4c-0.2-0.9,0-1.8,1-1.8C131.6,224,131.1,225.4,131.5,226.2z"/>
	<path class="st42" d="M135.3,227.8c-1-0.9,0-1.7,0.2-2.5c0.3,0,0.7,0.1,1,0.1c0.2,0.7,0.8,1.3,0.6,2.2
		C136.4,227.6,135.8,227.7,135.3,227.8z"/>
	<path class="st43" d="M121.3,208.8c0.2,1.4,0.4,2.8,0.7,4.7C120.3,211.8,120.3,210.4,121.3,208.8z"/>
	<path class="st44" d="M133.4,225.2c0.4,0.7,1.3,1.6,0.4,2.3c-0.8,0.6-1.6,0.1-2-1C132.3,226.1,132.9,225.7,133.4,225.2z"/>
</g>
<g>
	<path class="st45" d="M69.3,80.6c0.5,0,0.9,0.1,1.2,0.4c0.3,0.3,0.5,0.7,0.7,1.2c0.1,0.2,0.2,0.7,0.5,1.4c0.2,0.7,0.5,1.5,0.8,2.5
		c0.3,1,0.6,2,0.9,3c0.3,1.1,0.6,2.1,0.9,3c0.3,0.9,0.6,1.8,0.8,2.5c0.2,0.7,0.4,1.2,0.5,1.4c1.7-1.9,3.2-3.9,4.6-5.9
		c1.4-2,2.7-4.3,4.1-6.7c0.3-0.5,0.6-1,0.8-1.3c0.2-0.3,0.4-0.6,0.6-0.7c0.2-0.2,0.4-0.3,0.7-0.3c0.2-0.1,0.5-0.1,0.8-0.1
		c0.2,0,0.4,0.1,0.9,0.2c0.4,0.1,0.8,0.3,1.3,0.5s0.8,0.5,1.1,0.8c0.3,0.3,0.5,0.7,0.5,1c0,0.2-0.1,0.5-0.2,0.8
		c-0.1,0.3-0.4,0.8-0.7,1.3c-0.3,0.5-0.7,1.2-1.2,1.9c-0.5,0.7-1.1,1.7-1.9,2.7c-1.3,1.9-2.9,4.1-4.7,6.5c-1.8,2.4-3.9,5-6.2,7.6
		c-0.1,0.2-0.3,0.3-0.6,0.5c-0.3,0.2-0.8,0.2-1.4,0.2c-0.8,0-1.4-0.1-1.7-0.4c-0.3-0.2-0.6-0.5-0.7-0.9c-0.2-0.4-0.5-1.1-0.8-2.2
		c-0.4-1.1-0.8-2.4-1.3-3.8c-0.5-1.5-1-3-1.5-4.6c-0.5-1.6-1-3.1-1.5-4.5c-0.4-1.4-0.8-2.5-1.1-3.5c-0.3-1-0.4-1.5-0.4-1.7
		c0-0.5,0.2-1,0.5-1.3c0.4-0.4,0.8-0.7,1.3-1c0.5-0.3,1-0.5,1.4-0.6C68.7,80.6,69.1,80.6,69.3,80.6z"/>
	<path class="st45" d="M101.1,81c0.4,0,1,0,1.8,0c0.8,0,1.7,0.1,2.7,0.1c1,0.1,2,0.1,3.1,0.2c1.1,0.1,2.1,0.2,3,0.3
		c0.9,0.1,1.7,0.3,2.3,0.4c0.6,0.1,1,0.3,1.3,0.5c0.3,0.2,0.5,0.4,0.6,0.7c0.1,0.3,0.1,0.6,0.1,1c0,0.9-0.1,1.6-0.2,2.1
		c-0.1,0.5-0.3,0.9-0.5,1.2s-0.5,0.5-0.8,0.6c-0.3,0.1-0.6,0.1-1,0.1c-0.2,0-0.4,0-0.6,0c-0.2,0-0.3,0-0.5-0.1s-0.4-0.1-0.7-0.1
		c-0.3,0-0.6-0.1-1-0.1c-1-0.1-1.9-0.1-2.8-0.2c-0.9-0.1-1.9-0.1-2.9-0.2c-1-0.1-2.1-0.1-3.2-0.1c-1.1,0-2.4,0-3.7,0
		c0,0.1-0.1,0.4-0.1,0.8c-0.1,0.4-0.1,1-0.2,1.7c0.5,0.1,1.2,0.1,2.2,0.1c1,0,2.2,0.1,3.6,0.1h0.8c0.4,0,0.8,0,1.4,0
		c0.6,0,1.1,0,1.7,0c0.6,0,1.1,0,1.7,0c0.6,0,1,0,1.4,0h0.9c0.5,0,1,0.1,1.3,0.2c0.3,0.2,0.6,0.4,0.7,0.6c0.2,0.3,0.3,0.5,0.3,0.9
		c0.1,0.3,0.1,0.7,0.1,1c0,0.7-0.1,1.3-0.3,1.7s-0.7,0.7-1.6,0.9c-0.8,0.2-2.1,0.3-3.7,0.3c-1.6,0-3.9,0.1-6.7,0.1h-3
		c-0.4,0-0.8,0-1.1,0c-0.3,0-0.5,0-0.7-0.1c-0.1,0.6-0.2,1.2-0.2,1.6c-0.1,0.4-0.1,0.7-0.2,0.9c1.2,0.1,2.2,0.2,3.2,0.2
		c1,0,2.1,0,3.4,0c0.6,0,1.2,0,1.8,0c0.6,0,1.1-0.1,1.7-0.1c1.1-0.1,1.9-0.2,2.4-0.3c0.6-0.1,1-0.1,1.3-0.2c0.3,0,0.6-0.1,0.8-0.1
		c0.2,0,0.5,0,0.8,0c0.4,0,0.7,0,1,0.1c0.3,0.1,0.5,0.2,0.6,0.4c0.2,0.2,0.3,0.5,0.3,0.9c0.1,0.4,0.1,1,0.1,1.6
		c0,0.8-0.2,1.4-0.7,1.9c-0.5,0.5-1.1,0.8-2,1s-1.9,0.4-3.2,0.4c-1.3,0.1-2.7,0.1-4.3,0.1c-3.3,0-5.9-0.1-7.8-0.2
		c-1.9-0.1-3.4-0.2-4.3-0.4c-1-0.2-1.6-0.4-1.8-0.6c-0.3-0.3-0.4-0.5-0.4-0.8c0-0.1,0-0.3,0-0.4c0-0.2,0.1-0.4,0.1-0.6
		c0-0.2,0.1-0.7,0.3-1.6c0.2-0.9,0.4-1.9,0.6-3.2c0.2-1.2,0.4-2.5,0.7-3.9c0.3-1.4,0.5-2.7,0.7-3.9c0.2-1.2,0.4-2.3,0.6-3.1
		c0.2-0.9,0.2-1.4,0.3-1.5c0.1-0.5,0.2-0.9,0.4-1.3c0.2-0.3,0.4-0.6,0.6-0.8s0.5-0.3,0.7-0.4c0.3-0.1,0.5-0.1,0.7-0.2
		c0.2,0,0.6-0.1,1.1-0.1c0.5,0,1.1,0,1.7-0.1s1.2,0,1.9,0C100.1,81,100.6,81,101.1,81z"/>
	<path class="st45" d="M141.4,81.8c1.4,0,2.3,0.2,2.8,0.5c0.5,0.4,0.7,0.9,0.7,1.6c0,0.6-0.1,1.1-0.3,1.6c-0.2,0.5-0.4,1.1-0.6,1.8
		c-0.1,0.2-0.1,0.6-0.2,1.4c-0.1,0.7-0.3,1.6-0.4,2.6c-0.2,1-0.4,2.1-0.5,3.2c-0.2,1.1-0.4,2.2-0.5,3.2c-0.2,1-0.3,1.9-0.5,2.6
		c-0.1,0.7-0.2,1.2-0.2,1.4c-0.2,1-0.6,1.7-1.1,2.3s-1.3,0.8-2.4,0.8c-0.3,0-0.6,0-1-0.1c-0.4-0.1-0.8-0.2-1.3-0.3
		c-0.4-0.1-0.9-0.3-1.3-0.6s-0.8-0.5-1.1-0.8c-0.7-0.6-1.4-1.4-2.1-2.3c-0.7-0.9-1.5-1.8-2.2-2.8c-0.7-1-1.4-2-2.1-3.1
		c-0.7-1.1-1.3-2.1-1.8-3.1c-0.3,1.2-0.6,2.3-0.8,3.2c-0.2,0.9-0.4,1.7-0.6,2.4c-0.2,0.7-0.3,1.4-0.4,2c-0.1,0.6-0.2,1.3-0.3,1.9
		c-0.1,0.7-0.2,1.2-0.2,1.6c-0.1,0.4-0.2,0.7-0.4,1s-0.5,0.4-0.9,0.5c-0.4,0.1-0.9,0.1-1.5,0.1c-1.3,0-2.2-0.2-2.9-0.5
		c-0.6-0.4-0.9-1.1-0.9-2.1c0-0.2,0.1-0.7,0.3-1.6s0.4-1.9,0.7-3.1v0c0.2-1,0.5-2.1,0.8-3.2c0.3-1.2,0.6-2.4,0.9-3.6
		c0.3-1.2,0.6-2.3,0.8-3.5c0.2-1.1,0.4-2.1,0.6-3.1c0-0.6,0.4-1.2,1.1-1.6c0.7-0.5,1.7-0.7,3-0.7c1.9,0,3,0.5,3.1,1.5
		c0.5,1.1,1.1,2.2,1.8,3.5c0.7,1.2,1.4,2.4,2.1,3.6c0.7,1.2,1.5,2.3,2.2,3.4c0.7,1.1,1.4,2.1,2.1,2.9c0.2-1.1,0.3-2.2,0.5-3.3
		c0.2-1.1,0.4-2.3,0.6-3.4c0.2-1.1,0.4-2.2,0.6-3.2c0.2-1,0.4-1.9,0.6-2.8c0.1-0.6,0.4-1.1,0.9-1.4C139.6,82,140.3,81.8,141.4,81.8z
		"/>
	<path class="st45" d="M164.1,81c1.6,0,3,0.2,4.4,0.6c1.3,0.4,2.4,1,3.3,1.8c0.9,0.8,1.6,1.7,2.1,2.8s0.8,2.3,0.8,3.6
		c0,2-0.5,3.9-1.5,5.6c-1,1.8-2.4,3.3-4,4.7c-1.7,1.3-3.6,2.4-5.8,3.2c-2.2,0.8-4.5,1.2-6.8,1.2c-3.3,0-5.8-0.7-7.5-2
		c-1.7-1.3-2.6-3.4-2.6-6c0-2.2,0.5-4.3,1.6-6.2c1.1-1.9,2.5-3.5,4.2-4.9c1.7-1.4,3.6-2.5,5.7-3.2C160,81.4,162.1,81,164.1,81z
		 M163.8,87.1c-1.2,0-2.4,0.3-3.7,0.9c-1.3,0.6-2.5,1.3-3.6,2.2c-1.1,0.9-2,1.9-2.7,3c-0.7,1.1-1.1,2.1-1.1,3.1
		c0,1.5,1.4,2.3,4.3,2.3c1.3,0,2.6-0.2,3.9-0.7c1.3-0.5,2.5-1.1,3.5-1.9c1-0.8,1.9-1.7,2.5-2.7c0.6-1,1-2,1-3.1c0-1-0.4-1.7-1.1-2.3
		C166.2,87.4,165.2,87.1,163.8,87.1z"/>
	<path class="st45" d="M199.8,80.9c1.1,0,2,0.2,2.7,0.5c0.7,0.3,1.1,0.9,1.1,1.8c0,0.7,0,1.5-0.1,2.2c-0.1,0.7-0.1,1.4-0.1,2.1
		c0,2.4,0.1,4.3,0.3,5.8s0.5,2.8,0.7,3.8c0.3,1,0.5,1.8,0.7,2.5s0.3,1.2,0.3,1.8c0,0.5-0.1,0.9-0.4,1.3c-0.3,0.4-0.6,0.8-1,1.1
		c-0.4,0.3-0.8,0.5-1.3,0.7c-0.4,0.2-0.8,0.3-1,0.3c-0.4,0-0.8-0.3-1.2-0.8c-0.4-0.5-0.8-1.2-1.2-2.2c-0.4-1-0.7-2.1-1-3.4
		c-0.3-1.3-0.6-2.8-0.8-4.5c-1.4,2.5-2.6,4.4-3.5,5.9c-0.9,1.4-1.7,2.5-2.4,3.2c-0.7,0.7-1.2,1.2-1.7,1.4c-0.5,0.2-0.9,0.3-1.4,0.3
		c-0.9,0-1.7-0.3-2.1-0.8c-0.5-0.6-0.9-1.3-1.2-2.4c-0.3-1-0.6-2.3-0.8-3.7c-0.2-1.4-0.5-3-0.9-4.8c-0.5,1.1-1,2.2-1.5,3.2
		c-0.5,1-0.9,1.9-1.2,2.7c-0.4,0.8-0.6,1.5-0.9,2c-0.2,0.5-0.4,0.9-0.4,1.1c-0.1,0.7-0.4,1.4-0.9,1.9c-0.5,0.5-1.2,0.8-2.1,0.8
		c-0.3,0-0.6,0-1-0.1c-0.4-0.1-0.8-0.2-1.2-0.5c-0.4-0.2-0.7-0.5-1-0.9c-0.3-0.4-0.4-0.8-0.5-1.3c0-0.4,0.2-1.1,0.5-2
		c0.3-0.9,0.7-1.9,1.2-3c0.5-1.1,1-2.3,1.6-3.5c0.6-1.2,1.1-2.4,1.7-3.5c0.5-1.1,1-2.1,1.5-3c0.4-0.9,0.7-1.6,1-2
		c0.4-0.9,0.7-1.7,1-2.2c0.3-0.6,0.5-1,0.8-1.3c0.3-0.3,0.6-0.6,1-0.7c0.4-0.1,0.9-0.2,1.5-0.2c0.6,0,1.2,0.1,1.7,0.4
		c0.5,0.3,0.9,0.9,1.2,1.7c0.2,0.7,0.5,2,1,4c0.5,2,1,4.6,1.6,7.8c1.1-1.6,2.1-3.3,3.2-5.1c1-1.8,2-3.8,3-6c0.1-0.2,0.2-0.5,0.4-0.8
		c0.2-0.3,0.4-0.6,0.6-0.9c0.3-0.3,0.6-0.5,1-0.7C198.7,81,199.2,80.9,199.8,80.9z"/>
</g>
</svg>
