<?xml version="1.0" encoding="utf-8"?>
<!-- Generator: Adobe Illustrator 21.0.0, SVG Export Plug-In . SVG Version: 6.00 Build 0)  -->
<svg version="1.1" id="Layer_1" xmlns="http://www.w3.org/2000/svg" xmlns:xlink="http://www.w3.org/1999/xlink" x="0px" y="0px"
	 viewBox="0 0 167.1 223.3" style="enable-background:new 0 0 167.1 223.3;" xml:space="preserve">
<style type="text/css">
	.st0{fill:#EEE8D7;}
	.st1{fill:#E41601;}
	.st2{fill:#F6D30A;}
	.st3{enable-background:new    ;}
</style>
<title>Asset 3</title>
<g>
	<path class="st0" d="M8.9,223.3c-4.9,0-8.9-3.5-8.9-7.8V7.8C0,3.5,4,0,8.9,0h149.3c4.9,0,8.9,3.5,8.9,7.8v207.7
		c0,4.3-4,7.8-8.9,7.8L8.9,223.3L8.9,223.3z"/>
</g>
<path class="st1" d="M163.7,215.5c0,2.2-2,3.9-4.4,3.9H9.9c-2.5,0-4.4-1.8-4.4-3.9V7.8c0-2.2,2-3.9,4.4-3.9h149.3
	c2.5,0,4.4,1.8,4.4,3.9v207.7H163.7z"/>
<g id="Layer_2">
	<g id="Layer_2-2">
		<path class="st2" d="M81.7,134.4c0.9-0.8,2.2-1,3.3-0.5c1.4-1.9,6.2-4.3,9.9-2.4c1.4-1.9,3.8-0.9,3.8-0.9l-32.7,16.6l8.1,16.1
			l10.4-18.5L95,163.3c0,0,10.9-20.4,14.2-26.5c3.3-6.2,2.8-5.2,18-5.2c5.2-1.4,6.6-5.7,7.1-9c6.2-0.9,9-7.1,8.5-9.5
			c2.4-0.9,9-7.6,8.1-10.9c-55.4,0-45-3.3-56.1,16.3c0.2,0.2-9.9-18.9-9.9-18.9l-10.3,18.9c-11.1-19.7-0.7-16.3-56.1-16.3
			c-0.9,3.3,5.7,9.9,8.1,10.9c-0.5,2.4,2.4,8.5,8.5,9.5c0.5,3.3,1.9,7.6,7.1,9c15.2,0,15.1-1.4,18.4,4.7c0,0,5.7-0.9,7.1,0.9
			C68.9,133.9,76,130.6,81.7,134.4z"/>
	</g>
</g>
<path class="st1" d="M105.4,129.2l12.5-6.8c0,0-0.4-1.7,1.7-1.6c1.8-0.6,1.6-2.1,1.5-3c0-0.2-0.2-0.4-0.4-0.4
	c-0.5,0-1.3-0.2-0.8-0.9c0.2-0.3,0.3-0.7,0.4-0.9c0.1-0.5,0.4-0.9,0.9-1.1c0.7-0.3,1.5-0.8,1.5-1.5c0-1,3.6-0.5,5.1-0.1
	c0.4,0.1,0.7,0.2,1,0.5c0.3,0.3,1.2,0.8,1.7,0.3c1.2-1.2-0.5-1.2-0.5-1.2s-4.4-1.3-6.2-0.9c-0.8-0.4,0.7-4-1.3-3.8
	c-0.4,0-0.5-0.2-0.6-0.6c0.1-1.9-3.7-2.2-3.7,0.6c-1.7-0.1-2.2,1.1-1.8,2c0.1,1.1-6.7,0.5-6.7,0.5s-1.9,0-1.8,1.5
	c0.1,1.5,1.9-0.4,1.9-0.4s3.9,0.5,5.4,0.2c-0.9,0.7-1,1.2-0.9,1.9c0.1,0.2-0.1,0.5-0.4,0.4c-1.6-0.1-1.3,1.4-0.2,2.2
	c0.2,0.2,0.3,0.5,0,0.7c-1.8,1.4-1,2.1,0.1,3.3c0.2,0.2,0.1,0.6-0.2,0.6c-2.1,0.2-2,1.3-3,3.3c-1.1,2.2-1.8,0.7-1.8,1.6
	c0,0.8-2.2,0.2-2.2,1C106.6,127.1,105.4,127.2,105.4,129.2z"/>
<g class="st3">
	<path class="st2" d="M56.8,55.4c-0.2,0-0.5,0-0.6-0.1c-0.2,0-0.3-0.2-0.4-0.4c-0.1-0.2-0.2-0.4-0.2-0.8c-0.1-0.4-0.1-0.8-0.1-1.2
		c0-0.5-0.1-1-0.1-1.6s0-1.2-0.1-1.8c-0.3,0.6-0.6,1.2-0.9,1.8c-0.3,0.6-0.5,1.1-0.7,1.5c-0.2,0.5-0.4,0.8-0.5,1.2
		c-0.1,0.3-0.2,0.5-0.3,0.6c-0.1,0.2-0.3,0.4-0.5,0.5c-0.2,0.2-0.5,0.3-0.8,0.3c-0.3,0-0.6,0-0.8-0.1c-0.2-0.1-0.4-0.1-0.5-0.3
		c-0.1-0.1-0.2-0.2-0.3-0.4c0-0.1-0.1-0.3-0.1-0.5c0-0.1,0-0.3,0-0.4c0-0.2,0-0.3,0-0.6c0-0.7,0-1.3-0.1-2c-0.1-0.6-0.2-1.2-0.3-1.8
		c-0.1-0.5-0.2-1.1-0.4-1.5c-0.1-0.5-0.3-0.9-0.4-1.3c0-0.2,0.1-0.4,0.2-0.5s0.3-0.3,0.4-0.4c0.2-0.1,0.3-0.2,0.5-0.3
		c0.2-0.1,0.3-0.1,0.4-0.1c0.3,0,0.7,0.5,1,1.3c0.4,0.8,0.7,2,0.9,3.6c0.4-1,0.9-1.8,1.3-2.5c0.4-0.7,0.8-1.2,1-1.6
		c0.2-0.3,0.4-0.5,0.6-0.6c0.2-0.1,0.4-0.1,0.6-0.1c0.4,0,0.7,0,0.9,0.1c0.2,0.1,0.3,0.3,0.4,0.5c0,0.1,0.1,0.3,0.1,0.5
		s0.1,0.4,0.2,0.8c0.1,0.3,0.1,0.7,0.2,1.2c0.1,0.5,0.1,1.1,0.2,1.8c0.7-1.4,1.1-2.3,1.4-2.7c0.1-0.2,0.2-0.5,0.3-0.7
		c0.1-0.2,0.1-0.4,0.2-0.6s0.2-0.3,0.4-0.5c0.2-0.1,0.4-0.2,0.8-0.2c0.1,0,0.2,0,0.4,0.1c0.2,0,0.3,0.1,0.5,0.2
		c0.2,0.1,0.3,0.2,0.4,0.4c0.1,0.2,0.2,0.3,0.2,0.6c0,0.2-0.1,0.5-0.2,0.8s-0.3,0.7-0.6,1.1c-0.2,0.4-0.5,0.8-0.7,1.2
		c-0.3,0.4-0.5,0.8-0.7,1.1c-0.5,0.9-0.9,1.6-1.2,2.2c-0.3,0.6-0.5,1.1-0.7,1.4c-0.2,0.4-0.4,0.6-0.6,0.7
		C57.4,55.3,57.1,55.4,56.8,55.4z"/>
	<path class="st2" d="M68.8,45.1c0.7,0,1.3,0.1,1.8,0.3c0.5,0.2,1,0.4,1.4,0.8c0.4,0.3,0.7,0.7,0.9,1.2c0.2,0.5,0.3,1,0.3,1.5
		c0,0.8-0.2,1.6-0.6,2.4c-0.4,0.7-1,1.4-1.7,2c-0.7,0.6-1.5,1-2.4,1.3c-0.9,0.3-1.9,0.5-2.9,0.5c-1.4,0-2.4-0.3-3.2-0.8
		s-1.1-1.4-1.1-2.5c0-0.9,0.2-1.8,0.7-2.6c0.5-0.8,1-1.5,1.8-2.1c0.7-0.6,1.5-1,2.4-1.4C67.1,45.3,67.9,45.1,68.8,45.1z M68.7,47.7
		c-0.5,0-1,0.1-1.6,0.4c-0.5,0.2-1,0.6-1.5,0.9c-0.5,0.4-0.8,0.8-1.1,1.2c-0.3,0.5-0.4,0.9-0.4,1.3c0,0.6,0.6,1,1.8,1
		c0.6,0,1.1-0.1,1.7-0.3c0.5-0.2,1-0.5,1.5-0.8s0.8-0.7,1.1-1.1c0.3-0.4,0.4-0.9,0.4-1.3c0-0.4-0.2-0.7-0.5-1
		C69.7,47.8,69.3,47.7,68.7,47.7z"/>
	<path class="st2" d="M84.1,45.5c0.6,0,1,0.1,1.2,0.2c0.2,0.2,0.3,0.4,0.3,0.7c0,0.2,0,0.5-0.1,0.7c-0.1,0.2-0.2,0.5-0.2,0.8
		c0,0.1-0.1,0.3-0.1,0.6s-0.1,0.7-0.2,1.1c-0.1,0.4-0.2,0.9-0.2,1.4c-0.1,0.5-0.1,0.9-0.2,1.4c-0.1,0.4-0.1,0.8-0.2,1.1
		s-0.1,0.5-0.1,0.6c-0.1,0.4-0.2,0.7-0.4,1c-0.2,0.2-0.5,0.4-1,0.4c-0.1,0-0.3,0-0.4,0c-0.2,0-0.3-0.1-0.5-0.1
		c-0.2-0.1-0.4-0.1-0.5-0.2c-0.2-0.1-0.3-0.2-0.5-0.3c-0.3-0.3-0.6-0.6-0.9-1c-0.3-0.4-0.6-0.8-0.9-1.2c-0.3-0.4-0.6-0.8-0.9-1.3
		c-0.3-0.4-0.5-0.9-0.8-1.3c-0.1,0.5-0.2,1-0.3,1.3c-0.1,0.4-0.2,0.7-0.2,1c-0.1,0.3-0.1,0.6-0.2,0.8c0,0.3-0.1,0.5-0.1,0.8
		c0,0.3-0.1,0.5-0.1,0.7c0,0.2-0.1,0.3-0.2,0.4c-0.1,0.1-0.2,0.2-0.4,0.2c-0.2,0-0.4,0-0.6,0c-0.5,0-0.9-0.1-1.2-0.2
		s-0.4-0.4-0.4-0.9c0-0.1,0-0.3,0.1-0.7c0.1-0.4,0.2-0.8,0.3-1.3v0c0.1-0.4,0.2-0.9,0.3-1.4s0.2-1,0.4-1.5c0.1-0.5,0.2-1,0.3-1.5
		c0.1-0.5,0.2-0.9,0.2-1.3c0-0.3,0.2-0.5,0.5-0.7c0.3-0.2,0.7-0.3,1.3-0.3c0.8,0,1.2,0.2,1.3,0.6c0.2,0.5,0.5,0.9,0.8,1.5
		c0.3,0.5,0.6,1,0.9,1.5c0.3,0.5,0.6,1,0.9,1.4c0.3,0.5,0.6,0.9,0.9,1.2c0.1-0.5,0.1-0.9,0.2-1.4c0.1-0.5,0.2-1,0.2-1.4
		c0.1-0.5,0.2-0.9,0.3-1.3c0.1-0.4,0.2-0.8,0.3-1.2c0.1-0.2,0.2-0.4,0.4-0.6S83.6,45.5,84.1,45.5z"/>
	<path class="st2" d="M90.1,45.1c1.2,0,2.2,0.1,3.2,0.2c1,0.1,1.8,0.3,2.5,0.7s1.2,0.7,1.6,1.3c0.4,0.5,0.6,1.2,0.6,2
		c0,0.8-0.2,1.5-0.6,2.2c-0.4,0.7-1,1.4-1.7,1.9c-0.7,0.6-1.7,1-2.7,1.4c-1.1,0.3-2.3,0.5-3.6,0.5c-0.7,0-1.2,0-1.6-0.1
		S87.1,55,87,54.9c-0.2-0.1-0.3-0.2-0.3-0.4c0-0.1,0-0.3,0-0.5c0-0.4,0.1-0.9,0.2-1.5c0.1-0.6,0.2-1.2,0.3-1.8
		c0.1-0.6,0.2-1.2,0.3-1.8c0.1-0.6,0.2-1.1,0.4-1.5c-0.1-0.1-0.2-0.2-0.3-0.3c0-0.1-0.1-0.3-0.1-0.5c0-0.3,0.1-0.6,0.2-0.8
		c0.1-0.2,0.3-0.4,0.5-0.5c0.2-0.1,0.5-0.2,0.8-0.2C89.3,45.1,89.7,45.1,90.1,45.1z M90.7,47.5c0,0-0.1,0-0.1,0s-0.1,0-0.1,0
		c-0.1,0.4-0.2,0.9-0.3,1.4c-0.1,0.5-0.2,0.9-0.3,1.4c-0.1,0.5-0.2,0.9-0.2,1.4s-0.1,0.9-0.2,1.2c0.7,0,1.4-0.1,2.1-0.3
		s1.3-0.4,1.8-0.7c0.5-0.3,0.9-0.6,1.2-1s0.5-0.9,0.5-1.4c0-0.7-0.4-1.2-1.1-1.5c-0.7-0.3-1.7-0.5-3.1-0.5H90.7z"/>
	<path class="st2" d="M103.6,45.1c0.2,0,0.4,0,0.8,0c0.3,0,0.7,0,1.1,0s0.9,0,1.3,0.1s0.9,0.1,1.3,0.1c0.4,0.1,0.7,0.1,1,0.2
		s0.4,0.1,0.5,0.2c0.1,0.1,0.2,0.2,0.2,0.3c0,0.1,0.1,0.3,0.1,0.4c0,0.4,0,0.7-0.1,0.9s-0.1,0.4-0.2,0.5c-0.1,0.1-0.2,0.2-0.3,0.2
		c-0.1,0-0.3,0.1-0.4,0.1c-0.1,0-0.2,0-0.2,0c-0.1,0-0.1,0-0.2,0c-0.1,0-0.2,0-0.3,0c-0.1,0-0.3,0-0.4-0.1c-0.4,0-0.8-0.1-1.2-0.1
		s-0.8-0.1-1.2-0.1s-0.9,0-1.4-0.1c-0.5,0-1,0-1.6,0c0,0.1,0,0.2-0.1,0.3c0,0.2-0.1,0.4-0.1,0.7c0.2,0,0.5,0,0.9,0.1
		c0.4,0,0.9,0,1.5,0h0.3c0.2,0,0.4,0,0.6,0c0.2,0,0.5,0,0.7,0c0.2,0,0.5,0,0.7,0c0.2,0,0.4,0,0.6,0h0.4c0.2,0,0.4,0,0.5,0.1
		s0.2,0.2,0.3,0.3s0.1,0.2,0.1,0.4c0,0.1,0,0.3,0,0.4c0,0.3,0,0.6-0.1,0.7s-0.3,0.3-0.7,0.4c-0.3,0.1-0.9,0.1-1.6,0.1
		c-0.7,0-1.6,0-2.8,0h-1.3c-0.2,0-0.3,0-0.5,0c-0.1,0-0.2,0-0.3,0c0,0.3-0.1,0.5-0.1,0.7c0,0.2,0,0.3-0.1,0.4c0.5,0,0.9,0.1,1.4,0.1
		c0.4,0,0.9,0,1.4,0c0.3,0,0.5,0,0.8,0c0.2,0,0.5,0,0.7-0.1c0.4-0.1,0.8-0.1,1-0.1c0.2,0,0.4,0,0.6-0.1c0.1,0,0.2,0,0.3,0
		c0.1,0,0.2,0,0.4,0c0.2,0,0.3,0,0.4,0c0.1,0,0.2,0.1,0.3,0.2c0.1,0.1,0.1,0.2,0.1,0.4c0,0.2,0,0.4,0,0.7c0,0.3-0.1,0.6-0.3,0.8
		c-0.2,0.2-0.5,0.3-0.8,0.4s-0.8,0.2-1.3,0.2c-0.5,0-1.1,0-1.8,0c-1.4,0-2.5,0-3.3-0.1c-0.8,0-1.4-0.1-1.8-0.2
		c-0.4-0.1-0.7-0.2-0.8-0.3s-0.2-0.2-0.2-0.3c0-0.1,0-0.1,0-0.2c0-0.1,0-0.2,0-0.3c0-0.1,0.1-0.3,0.1-0.7c0.1-0.4,0.1-0.8,0.2-1.3
		c0.1-0.5,0.2-1.1,0.3-1.7c0.1-0.6,0.2-1.1,0.3-1.6c0.1-0.5,0.2-0.9,0.2-1.3c0.1-0.4,0.1-0.6,0.1-0.6c0-0.2,0.1-0.4,0.2-0.5
		c0.1-0.1,0.2-0.2,0.3-0.3c0.1-0.1,0.2-0.1,0.3-0.2c0.1,0,0.2-0.1,0.3-0.1c0.1,0,0.3,0,0.5,0s0.5,0,0.7,0c0.3,0,0.5,0,0.8,0
		C103.2,45.1,103.4,45.1,103.6,45.1z"/>
	<path class="st2" d="M115,45.1c1.4,0,2.6,0.1,3.6,0.2c0.9,0.2,1.7,0.4,2.3,0.6c0.6,0.3,1,0.6,1.2,1s0.3,0.8,0.3,1.2
		c0,0.4-0.1,0.8-0.3,1.1s-0.5,0.6-0.9,0.9c-0.4,0.3-0.8,0.5-1.3,0.7c-0.5,0.2-1,0.4-1.6,0.5c0.4,0.4,0.8,0.8,1.1,1
		c0.3,0.3,0.6,0.5,0.8,0.6c0.2,0.1,0.4,0.3,0.5,0.3s0.2,0.1,0.3,0.2c0.1,0.1,0.1,0.1,0.2,0.2c0,0.1,0,0.2,0,0.3
		c0,0.2-0.1,0.4-0.2,0.6c-0.1,0.2-0.3,0.3-0.4,0.5c-0.2,0.1-0.3,0.2-0.5,0.3c-0.2,0.1-0.3,0.1-0.4,0.1c0,0-0.1,0-0.3-0.1
		s-0.5-0.2-0.8-0.4c-0.4-0.2-0.8-0.6-1.3-1.1c-0.5-0.5-1-1.1-1.7-2c-0.2,0-0.4,0-0.7,0c-0.3,0-0.5,0-0.7,0h-0.4
		c-0.1,0.5-0.1,0.9-0.2,1.1c0,0.2,0,0.4,0,0.6V54c0,0.1,0,0.2,0,0.4c0,0.1-0.1,0.2-0.2,0.3c-0.1,0.1-0.2,0.2-0.4,0.3
		c-0.2,0.1-0.4,0.1-0.7,0.1c-0.6,0-1-0.1-1.2-0.2c-0.2-0.1-0.4-0.4-0.4-0.8c0-0.1,0-0.5,0.1-1s0.2-1,0.3-1.7c0.1-0.6,0.3-1.3,0.4-2
		c0.1-0.7,0.3-1.4,0.4-2c-0.1-0.1-0.2-0.2-0.2-0.4s0-0.3,0-0.4c0-0.3,0-0.5,0.1-0.7s0.2-0.3,0.4-0.5c0.2-0.1,0.6-0.2,1-0.3
		C113.6,45.1,114.2,45.1,115,45.1z M115.5,47.6c-0.2,0-0.3,0-0.5,0c-0.1,0-0.3,0-0.6,0c-0.1,0.2-0.1,0.5-0.2,0.8
		c-0.1,0.3-0.1,0.7-0.2,1.2c0.8,0,1.5-0.1,2.1-0.2c0.7-0.1,1.2-0.2,1.7-0.4s0.9-0.3,1.2-0.5c0.3-0.2,0.4-0.4,0.4-0.6
		c0-0.2-0.3-0.3-0.9-0.4c-0.6-0.1-1.5-0.2-2.7-0.2H115.5z"/>
	<path class="st2" d="M62.6,74.6c-0.2,0-0.5,0-0.6-0.1c-0.2,0-0.3-0.2-0.4-0.4c-0.1-0.2-0.2-0.4-0.2-0.8c-0.1-0.4-0.1-0.8-0.1-1.2
		c0-0.5-0.1-1-0.1-1.6s0-1.2-0.1-1.8c-0.3,0.6-0.6,1.2-0.9,1.8c-0.3,0.6-0.5,1.1-0.7,1.5c-0.2,0.5-0.4,0.8-0.5,1.2
		c-0.1,0.3-0.2,0.5-0.3,0.6c-0.1,0.2-0.3,0.4-0.5,0.5c-0.2,0.2-0.5,0.3-0.8,0.3c-0.3,0-0.6,0-0.8-0.1c-0.2-0.1-0.4-0.1-0.5-0.3
		c-0.1-0.1-0.2-0.2-0.3-0.4c0-0.1-0.1-0.3-0.1-0.5c0-0.1,0-0.3,0-0.4c0-0.2,0-0.3,0-0.6c0-0.7,0-1.3-0.1-2c-0.1-0.6-0.2-1.2-0.3-1.8
		c-0.1-0.5-0.2-1.1-0.4-1.5c-0.1-0.5-0.3-0.9-0.4-1.3c0-0.2,0.1-0.4,0.2-0.5s0.3-0.3,0.4-0.4c0.2-0.1,0.3-0.2,0.5-0.3
		c0.2-0.1,0.3-0.1,0.4-0.1c0.3,0,0.7,0.5,1,1.3c0.4,0.8,0.7,2,0.9,3.6c0.4-1,0.9-1.8,1.3-2.5c0.4-0.7,0.8-1.2,1-1.6
		c0.2-0.3,0.4-0.5,0.6-0.6c0.2-0.1,0.4-0.1,0.6-0.1c0.4,0,0.7,0,0.9,0.1c0.2,0.1,0.3,0.3,0.4,0.5c0,0.1,0.1,0.3,0.1,0.5
		s0.1,0.4,0.2,0.8c0.1,0.3,0.1,0.7,0.2,1.2c0.1,0.5,0.1,1.1,0.2,1.8c0.7-1.4,1.1-2.3,1.4-2.7c0.1-0.2,0.2-0.5,0.3-0.7
		c0.1-0.2,0.1-0.4,0.2-0.6s0.2-0.3,0.4-0.5c0.2-0.1,0.4-0.2,0.8-0.2c0.1,0,0.2,0,0.4,0.1c0.2,0,0.3,0.1,0.5,0.2
		c0.2,0.1,0.3,0.2,0.4,0.4c0.1,0.2,0.2,0.3,0.2,0.6c0,0.2-0.1,0.5-0.2,0.8s-0.3,0.7-0.6,1.1c-0.2,0.4-0.5,0.8-0.7,1.2
		c-0.3,0.4-0.5,0.8-0.7,1.1c-0.5,0.9-0.9,1.6-1.2,2.2c-0.3,0.6-0.5,1.1-0.7,1.4c-0.2,0.4-0.4,0.6-0.6,0.7
		C63.3,74.5,63,74.6,62.6,74.6z"/>
	<path class="st2" d="M74.6,64.3c0.7,0,1.3,0.1,1.8,0.3c0.5,0.2,1,0.4,1.4,0.8c0.4,0.3,0.7,0.7,0.9,1.2c0.2,0.5,0.3,1,0.3,1.5
		c0,0.8-0.2,1.6-0.6,2.4c-0.4,0.7-1,1.4-1.7,2c-0.7,0.6-1.5,1-2.4,1.3c-0.9,0.3-1.9,0.5-2.9,0.5c-1.4,0-2.4-0.3-3.2-0.8
		s-1.1-1.4-1.1-2.5c0-0.9,0.2-1.8,0.7-2.6c0.5-0.8,1-1.5,1.8-2.1s1.5-1,2.4-1.4C72.9,64.5,73.8,64.3,74.6,64.3z M74.5,66.9
		c-0.5,0-1,0.1-1.6,0.4c-0.5,0.2-1,0.6-1.5,0.9c-0.5,0.4-0.8,0.8-1.1,1.2c-0.3,0.5-0.4,0.9-0.4,1.3c0,0.6,0.6,1,1.8,1
		c0.6,0,1.1-0.1,1.7-0.3c0.5-0.2,1-0.5,1.5-0.8s0.8-0.7,1.1-1.1c0.3-0.4,0.4-0.9,0.4-1.3c0-0.4-0.2-0.7-0.5-1
		C75.5,67,75.1,66.9,74.5,66.9z"/>
	<path class="st2" d="M89.7,64.3c0.4,0,0.8,0.1,1.1,0.2c0.3,0.1,0.5,0.4,0.5,0.7c0,0.3,0,0.6,0,0.9c0,0.3,0,0.6,0,0.9
		c0,1,0,1.8,0.1,2.5c0.1,0.6,0.2,1.2,0.3,1.6s0.2,0.8,0.3,1c0.1,0.3,0.1,0.5,0.1,0.8c0,0.2-0.1,0.4-0.2,0.5
		c-0.1,0.2-0.3,0.3-0.4,0.4s-0.3,0.2-0.5,0.3c-0.2,0.1-0.3,0.1-0.4,0.1c-0.2,0-0.3-0.1-0.5-0.3c-0.2-0.2-0.3-0.5-0.5-0.9
		c-0.2-0.4-0.3-0.9-0.4-1.4c-0.1-0.6-0.2-1.2-0.3-1.9c-0.6,1-1.1,1.9-1.5,2.5c-0.4,0.6-0.7,1.1-1,1.4c-0.3,0.3-0.5,0.5-0.7,0.6
		c-0.2,0.1-0.4,0.1-0.6,0.1c-0.4,0-0.7-0.1-0.9-0.4s-0.4-0.6-0.5-1c-0.1-0.4-0.2-0.9-0.3-1.6c-0.1-0.6-0.2-1.3-0.4-2
		c-0.2,0.5-0.4,0.9-0.6,1.4c-0.2,0.4-0.4,0.8-0.5,1.1s-0.3,0.6-0.4,0.8c-0.1,0.2-0.1,0.4-0.2,0.5c-0.1,0.3-0.2,0.6-0.4,0.8
		s-0.5,0.3-0.9,0.3c-0.1,0-0.2,0-0.4-0.1c-0.2,0-0.3-0.1-0.5-0.2c-0.2-0.1-0.3-0.2-0.4-0.4c-0.1-0.2-0.2-0.3-0.2-0.6
		c0-0.2,0.1-0.5,0.2-0.8s0.3-0.8,0.5-1.2c0.2-0.5,0.4-1,0.7-1.5c0.2-0.5,0.5-1,0.7-1.5c0.2-0.5,0.4-0.9,0.6-1.3
		c0.2-0.4,0.3-0.7,0.4-0.8c0.2-0.4,0.3-0.7,0.4-0.9c0.1-0.2,0.2-0.4,0.3-0.6c0.1-0.1,0.3-0.2,0.4-0.3s0.4-0.1,0.6-0.1
		c0.3,0,0.5,0.1,0.7,0.2c0.2,0.1,0.4,0.4,0.5,0.7c0.1,0.3,0.2,0.8,0.4,1.7c0.2,0.8,0.4,1.9,0.7,3.3c0.5-0.7,0.9-1.4,1.3-2.1
		c0.4-0.8,0.9-1.6,1.3-2.5c0-0.1,0.1-0.2,0.2-0.3c0.1-0.1,0.2-0.2,0.3-0.4c0.1-0.1,0.3-0.2,0.4-0.3C89.2,64.3,89.4,64.3,89.7,64.3z"
		/>
	<path class="st2" d="M100.1,64.1c0.3,0,0.5,0,0.6,0.1c0.1,0.1,0.2,0.2,0.3,0.4c0.1,0.1,0.2,0.5,0.4,0.9c0.2,0.5,0.4,1,0.6,1.6
		s0.4,1.2,0.6,1.9s0.4,1.3,0.5,1.9c0.2,0.6,0.3,1.1,0.4,1.5s0.2,0.6,0.2,0.7c0,0.2-0.1,0.4-0.2,0.6c-0.1,0.2-0.3,0.3-0.5,0.4
		c-0.2,0.1-0.4,0.2-0.6,0.2c-0.2,0-0.4,0.1-0.5,0.1c-0.4,0-0.6-0.1-0.7-0.3c0,0,0-0.1-0.1-0.1c0,0,0-0.1-0.1-0.2s-0.1-0.3-0.1-0.5
		c0-0.2-0.1-0.5-0.2-0.9c-0.4,0-0.8,0-1.3,0c-0.4,0-0.9,0-1.3,0c-0.4,0-0.8,0-1.2,0c-0.4,0-0.7,0-0.9,0c-0.4,0.6-0.7,1-1,1.4
		c-0.3,0.3-0.6,0.5-0.7,0.5c-0.1,0-0.3,0-0.5-0.1c-0.2-0.1-0.4-0.2-0.6-0.3s-0.3-0.2-0.5-0.3s-0.2-0.2-0.2-0.3c0-0.1,0-0.3,0.1-0.4
		c0.1-0.1,0.2-0.3,0.3-0.6c0.2-0.3,0.4-0.6,0.7-1s0.7-0.9,1.1-1.5c0.6-0.8,1.2-1.6,2-2.5c0.8-0.9,1.6-1.8,2.5-2.8
		c0.1-0.1,0.2-0.1,0.3-0.2C99.6,64.1,99.8,64.1,100.1,64.1z M100.1,69.9c-0.1-0.4-0.2-0.8-0.3-1.2c-0.1-0.4-0.2-0.7-0.3-1
		c-0.3,0.3-0.6,0.7-0.9,1.1c-0.3,0.4-0.6,0.7-0.8,1.2c0.4,0,0.8,0,1.2,0C99.3,69.9,99.7,69.9,100.1,69.9z"/>
	<path class="st2" d="M115.1,64.7c0.6,0,1,0.1,1.2,0.2c0.2,0.2,0.3,0.4,0.3,0.7c0,0.2,0,0.5-0.1,0.7c-0.1,0.2-0.2,0.5-0.2,0.8
		c0,0.1-0.1,0.3-0.1,0.6c0,0.3-0.1,0.7-0.2,1.1c-0.1,0.4-0.1,0.9-0.2,1.4c-0.1,0.5-0.1,0.9-0.2,1.4c-0.1,0.4-0.1,0.8-0.2,1.1
		c-0.1,0.3-0.1,0.5-0.1,0.6c-0.1,0.4-0.2,0.7-0.4,1c-0.2,0.2-0.5,0.4-1,0.4c-0.1,0-0.3,0-0.4,0s-0.3-0.1-0.5-0.1s-0.4-0.1-0.5-0.2
		s-0.3-0.2-0.5-0.3c-0.3-0.3-0.6-0.6-0.9-1c-0.3-0.4-0.6-0.8-0.9-1.2s-0.6-0.8-0.9-1.3c-0.3-0.4-0.5-0.9-0.8-1.3
		c-0.1,0.5-0.2,1-0.3,1.3c-0.1,0.4-0.2,0.7-0.2,1c-0.1,0.3-0.1,0.6-0.2,0.8c0,0.3-0.1,0.5-0.1,0.8c0,0.3-0.1,0.5-0.1,0.7
		c0,0.2-0.1,0.3-0.2,0.4c-0.1,0.1-0.2,0.2-0.4,0.2c-0.2,0-0.4,0-0.6,0c-0.5,0-0.9-0.1-1.2-0.2c-0.3-0.1-0.4-0.4-0.4-0.9
		c0-0.1,0-0.3,0.1-0.7c0.1-0.4,0.2-0.8,0.3-1.3v0c0.1-0.4,0.2-0.9,0.3-1.4s0.2-1,0.4-1.5c0.1-0.5,0.2-1,0.3-1.5s0.2-0.9,0.2-1.3
		c0-0.3,0.2-0.5,0.5-0.7s0.7-0.3,1.3-0.3c0.8,0,1.2,0.2,1.3,0.6c0.2,0.5,0.5,0.9,0.8,1.5c0.3,0.5,0.6,1,0.9,1.5s0.6,1,0.9,1.4
		c0.3,0.5,0.6,0.9,0.9,1.2c0.1-0.5,0.1-0.9,0.2-1.4c0.1-0.5,0.2-1,0.2-1.4s0.2-0.9,0.3-1.3c0.1-0.4,0.2-0.8,0.3-1.2
		c0.1-0.2,0.2-0.4,0.4-0.6C114.4,64.8,114.7,64.7,115.1,64.7z"/>
</g>
</svg>
