<svg xmlns="http://www.w3.org/2000/svg" viewBox="0 0 171.39 183.33"><defs><style>.cls-1{fill:#2c0141;}.cls-2{fill:#fff;}.cls-3{fill:#7e7e7e;}.cls-4{fill:#10a128;}.cls-5{fill:#feb180;}.cls-6{fill:#040509;}</style></defs><title>Asset 10</title><g id="Layer_2" data-name="Layer 2"><g id="Layer_1-2" data-name="Layer 1"><polygon class="cls-1" points="84.8 183.33 0 74.02 64.7 49.17 77.34 65.23 92.98 65.45 106.69 49.17 171.39 73.8 84.8 183.33"/><path class="cls-2" d="M64.7,49.17,77.34,65.23,93,65.45l13.71-16.28L85.35,179.94c-.1,4.44-1,4.62-1.06,0Z"/><path class="cls-3" d="M75.12,118.76l10.14,9.89,10.07-9.89-10,61.39c-.17,4.44-1,4.06-1,0Z"/><polygon class="cls-4" points="79.91 67.38 90.84 67.38 86.5 74.07 91.9 122.14 85.27 128.65 79.08 122.62 84.41 73.91 79.91 67.38"/><path class="cls-5" d="M77.34,65.23,64.7,49.17l-.64-9.75s-5.57.43-4.28-10.71h3.64S60.6,0,84.8,0s22.88,23.81,22.88,28.31l3.4.13s2.79,9.64-4.39,10.77v10L93,65.45Z"/><path class="cls-6" d="M66.95,28.39l4.5-1s8.68,3.21,11.25,2.68L72.2,24.21Z"/><path class="cls-6" d="M104.7,28.39l-4.5-1S91.53,30.64,89,30.1l10.5-5.89Z"/></g></g></svg>