<svg xmlns="http://www.w3.org/2000/svg" viewBox="0 0 192.91 210.12"><defs><style>.cls-1{fill:#2d0048;}.cls-2{fill:#fefefe;}.cls-3{fill:#2c0147;}.cls-4{fill:#2b0541;}.cls-5{fill:#2a063e;}.cls-6{fill:#2a063f;}.cls-7{fill:#2a053e;}.cls-8{fill:#941011;}.cls-9{fill:#fefdfe;}.cls-10{fill:#2a093c;}.cls-11{fill:#efedf2;}.cls-12{fill:#f1f1f4;}.cls-13{fill:#f2f2f5;}.cls-14{fill:#f6f6f8;}.cls-15{fill:#f3f2f5;}.cls-16{fill:#d5d3dd;}.cls-17{fill:#fafafb;}.cls-18{fill:#d8d6de;}.cls-19{fill:#240c30;}.cls-20{fill:#bebbca;}.cls-21{fill:#26132d;}.cls-22{fill:#bdbacb;}.cls-23{fill:#ebe9ee;}.cls-24{fill:#f1f1f2;}.cls-25{fill:#5c4e6e;}.cls-26{fill:#f2f3f4;}.cls-27{fill:#6a5d7c;}.cls-28{fill:#7c6e8b;}.cls-29{fill:#7b6d87;}.cls-30{fill:#746886;}.cls-31{fill:#534367;}.cls-32{fill:#786a87;}.cls-33{fill:#271831;}.cls-34{fill:#140c14;}.cls-35{fill:#cdccda;}.cls-36{fill:#dddde6;}.cls-37{fill:#6d5e7e;}.cls-38{fill:#cecfdb;}.cls-39{fill:#ececee;}.cls-40{fill:#d5ccd5;}.cls-41{fill:#e8eff8;}.cls-42{fill:#e9eaef;}</style></defs><title>Asset 7</title><g id="Layer_2" data-name="Layer 2"><g id="Layer_1-2" data-name="Layer 1"><path class="cls-1" d="M21.94,114.38c-.48-.18-1.09-.18-1.33-.48-2.72-3.68-5.67-7.12-8.15-11-1.27-2-3.32-3.56-4.77-5.55C5.47,94.28,3.05,91.26.64,88.3c-1.15-1.39-.66-1.81.78-2.47C6.13,83.59,11.08,81.9,16,80.09c5.55-2.05,11-4.29,16.6-6.4Q46.87,68.26,61.18,63c3.44-1.27,6.7-3,10.44-3.62,1.51-.24,1.63-2.47,1.57-4-.54-10.5-1.57-21.07-1.57-31.57,0-8.87,3-16.84,11.59-21.19,6-3,12.31-3,19-1.93,7.54,1.27,12.8,4.83,16.18,11.41,2.6,5,2.78,10.56,2.29,16-.78,8.69-1,17.44-1.27,26.14-.18,4.53-.18,4.41,4,5.92,1.57.6,3.92.36,4.35,2.84,2.11-1.57,3.56.36,5.25,1,7.61,2.78,15.27,5.61,22.88,8.39,7.42,2.72,14.85,5.43,22.21,8.15,4.47,1.63,8.81,3.44,13.28,5.07,1.57.6,1.93,1,.91,2.72-2.41,3.92-5.79,7-8.51,10.68-1.45,1.93-2.78,4-4.35,5.85-4.71,5.73-9.17,11.65-13.7,17.5a3.24,3.24,0,0,1-1,.6c-1.21.18-1.87-.66-2.47-1.45A73.41,73.41,0,0,0,144.47,105a4.16,4.16,0,0,1-1.63-1.75c-.36-1.27-1.27-1-2.17-.85s-1.57,1-2.54.36c-.78-4.41,1.09-6.22,5.31-4.89,8.33,2.66,15.51,7.36,21.85,12.49-6.4-9.6-16.12-15.75-26.62-20.88-2.9-1.45-3-1.39-3.62,1.87a140.27,140.27,0,0,1-6,21.49c-1.39,3.56-2.35,3.86-5.55,1.75-2.54-1.69-5-3.32-7.67-4.83-2.17-1.21-3.68-1.09-5,1.21a33.93,33.93,0,0,1-4.83,6.16c-.85.91-1.69,2.29-3.26,1.45s-1-2.23-.6-3.5A1.62,1.62,0,0,0,102,114c-1.63,1.87-3.8,1.57-5.92,1.39s-4.59,1.51-5.73-1.75c-.85.78-.42,1.57-.36,2.35.06,1,.12,2.11-1,2.6s-1.93-.24-2.66-.91A37.13,37.13,0,0,1,81,110.7c-1.21-1.93-2.66-2.17-4.59-1.15-2.84,1.57-5.49,3.32-8.15,5.13-3,2-3.86,1.69-5.13-1.51A112.4,112.4,0,0,1,56.59,90.6c-.36-2-1-2.29-2.78-1.39C44.76,93.73,36.25,99,29.43,106.65a30,30,0,0,0-4.59,6.7C24.18,114.5,23.15,114.62,21.94,114.38Z"/><path class="cls-2" d="M24.3,113.35c-.3-1.93,1.21-3.08,2.17-4.41,5.07-7.12,12-12.07,19.38-16.48A84.26,84.26,0,0,1,57,86.73a123.69,123.69,0,0,0,6.52,24.57c1.63,4.41,1.63,4.41,5.49,1.81A76.05,76.05,0,0,1,77.84,108c1.39-.66,2.17-.6,3.08.85,2,3,4.23,5.85,6.4,8.75.36.42.66,1.51,1.57.78a1.42,1.42,0,0,0,.48-2.05c-1.33-2.72-1.27-2.78,2.11-4.95-1,3.14-.3,4.35,2.9,3.2a7.88,7.88,0,0,1,3.56,0c3.08.48,3.26.24,2.54-2.9,3.38,1.57,3.44,1.63,1.87,4.83-.48,1,.24,1.33.6,1.75.66.72,1-.12,1.39-.54a101.68,101.68,0,0,0,6.58-8.63c1.15-1.81,1.93-1.63,3.44-.85a76.71,76.71,0,0,1,12.25,7.73c4-9.36,6.22-19.07,8.27-29.09,13.46,6.1,25.65,13.28,32.9,26.68-5.43-4.1-10.8-8.21-16.9-11.35a57.7,57.7,0,0,0-8-3.32c-2.35-.85-4.1-.72-4.23,2.35-.06.6-.24,1.15-.3,1.75.78,1.21.18,2.35-.24,3.44a50.88,50.88,0,0,1-6.64,13.16c-2.29,3.26-3.68,3.38-6.52.66a23.21,23.21,0,0,0-6.7-4.59c-2.41-1.15-4.59-1-6.64.91-1.45,1.39-3,2.78-4.77,4.35a27.7,27.7,0,0,0,5.73-3.74,3.92,3.92,0,0,1,5-.3,45.08,45.08,0,0,1,8.27,6c2.11,2.05,2.11,2.11,3.92-.36,3.74-5.13,7.24-10.38,9.6-16.36a9.32,9.32,0,0,1,1.39-2.66c.66-.78,1.45-1.57,2.35-.24,8.63,5.07,15.33,12.13,21.55,19.74.54,1.57-1.09,2.11-1.57,3.14-1.63.3-2.6-.85-3.62-1.75a86.5,86.5,0,0,0-11.17-8.69c-2.9-1.81-3.2-1.75-5,1a59.22,59.22,0,0,1-11,13.46c-3.74,3.2-4.59,3.2-8-.24a73.25,73.25,0,0,0-6.16-5.31c-2-1.63-3.86-1.93-5.92-.12a7.6,7.6,0,0,1-2.72,1.51,2.32,2.32,0,0,0,.72-.3c4.83-2.47,5.07-2.41,9,1.33,2.35,2.23,4.65,4.47,6.82,6.82,1.15,1.21,2,1.21,3.32.18a70.62,70.62,0,0,0,13.22-13.94c1.93-2.78,2.9-3,5.61-1a45.57,45.57,0,0,1,9.6,10,3.4,3.4,0,0,1,.42,3.68c-1.21.78-1.51,2.54-3,3-2.11-.12-2.9-2-4.16-3.26-4.65-4.47-5.07-4.47-9.6.06a59,59,0,0,1-12.07,9.42c-2.84,1.69-3.8,1.45-5.92-1.09a67.54,67.54,0,0,0-4.89-6.1c-2.66-2.66-5.49-4.77-8.69-3.38,2.05-.72,4.35.54,6.46,2.54a44,44,0,0,1,7.3,8.75c1.27,2.05,2.66,2.29,4.77,1.21,5.13-2.6,10.2-5.19,14.55-9,2.17-1.87,3.38-1.75,5.37.42a11.06,11.06,0,0,1,3.14,5.37c-1.21,1.69-2.41,3.32-3.68,5-.48.12-1.15.24-1.45,0-2.54-2.05-4.53-.66-6.76.66A71.75,71.75,0,0,1,126,152.89c-4,1.39-4.59,1.09-6.28-2.6a50.63,50.63,0,0,0-6.46-10.86c-1.81-2.29-4.29-2.84-6.94-3a2.19,2.19,0,0,0-2.23,1.21c-.48.91.18,1.51.66,2.17a56.1,56.1,0,0,0,5,5.67,7.1,7.1,0,0,1,2.29,5.07c.24,13.76-1,27.28-4.83,40.56a30.59,30.59,0,0,1-2.72,6.7c-.91,1.63-1.87,1.93-3.08.12-2.05-2.9-7.85-3.5-10.38-1.21s-3.2,2.23-4.53-1.15a95.77,95.77,0,0,1-5.92-22.39c-1-6.88-.91-13.82-1.45-20.76a8.18,8.18,0,0,1,2.6-6.76c1.81-1.75,3.26-3.86,5-5.61.66-.66,1.27-1.33.66-2.35a2.34,2.34,0,0,0-2.23-1.27c-2.66.18-5.13.6-6.94,3a47.07,47.07,0,0,0-6,10.38c-1.93,4.71-2.6,4.89-7.24,3a65.62,65.62,0,0,1-13.16-6.64,6.79,6.79,0,0,0-7.24-.78c-1.51-1.57-3.32-2.9-3.62-5.31a9.72,9.72,0,0,1,1.15-3c2.9-4.16,4.23-4.35,8-1.15,4.29,3.56,9.23,6,14.24,8.39,1.51.72,2.41.3,3.2-1.09,2.17-3.92,5.55-6.82,8.63-10a5.77,5.77,0,0,1,5.43-1.87c-4-.48-4.35-.42-7.42,2.47a49.22,49.22,0,0,0-6,6.7c-2.11,3-3.08,3.14-6.22,1.15A84.38,84.38,0,0,1,48.5,131.1c-2.72-2.6-3-2.66-5.92-.12a45.5,45.5,0,0,0-3.5,3.32c-.78.78-1.63,1.57-2.9.91-.85-1-1.63-2.05-2.47-3.14-.78-1.51-.12-2.72.72-3.86a37.35,37.35,0,0,1,9.11-9.11c2.47-1.75,3.44-1.69,5.25.78,3.62,5,8.21,9.05,12.55,13.4,1.81,1.81,3.2,1.87,4.89-.24a48.51,48.51,0,0,1,7.3-6.76c3.5-2.9,3.74-3,7.67-.85a8.06,8.06,0,0,0,1.45.72c-.18-.12-.54-.24-.85-.42-5.55-3-4.59-3.92-10.92,1.27-1.45,1.21-2.72,2.66-4.16,4-2.47,2.29-3.86,2.41-6.58.24a53.54,53.54,0,0,1-11-13.1c-2.72-4.29-2.66-4.29-6.76-1.57a88.92,88.92,0,0,0-10,7.85,6.07,6.07,0,0,1-3.08,1.75,7.56,7.56,0,0,1-2.17-2.78,6.18,6.18,0,0,1,1.15-3c4.95-6.16,10.44-11.65,17.26-15.81,4-2.41,4.89-2.17,6.82,2a117.37,117.37,0,0,0,9.78,16.6c1.15,1.69,2.05,1.81,3.5.3a36.53,36.53,0,0,1,7.85-6.1c2.23-1.39,4.23-1.45,6.28.54a23.11,23.11,0,0,0,5.31,3.56c-2.23-2.54-4.47-3.92-6.34-5.73-1.21-1.15-2.6-.85-3.92-.3a26,26,0,0,0-8.33,5.25c-2.47,2.29-3.5,2.29-5.67-.24-3.14-3.62-5-8-6.64-12.43-.66-1.81-1.21-3.62-1.81-5.43-.85-2.78-1.33-3.08-4.1-2.11a56.44,56.44,0,0,0-12.07,6,101.51,101.51,0,0,0-8.87,6.22C26.59,113.11,25.69,114.2,24.3,113.35Z"/><path class="cls-3" d="M44.82,145.16c1.87-2.54,3.68-3,6.58-.91,4.83,3.44,10.32,5.79,15.75,8.09,1.93.85,2.84.72,3.68-1.51,1.87-5.13,4.29-10,8.21-13.88,2.66-2.66,8-2.41,10.32.3.72.85.66,1.21-.06,1.87A38.32,38.32,0,0,1,85.56,143c-4.41,3.38-5.25,7.73-5,13.16.66,13.76,2.29,27.22,7.61,40,.24.66.54,1.27.85,2,1.39-3.62,3.2-4.41,8.39-4.16,2.9.12,5.19.91,5.43,4.71a25.15,25.15,0,0,0,3.5-7.73c4-13.52,4.95-27.4,5.13-41.41a4,4,0,0,0-1.33-2.9c-2.23-2.29-4.47-4.59-6.64-6.94-.54-.6-1.93-1.27-1.21-2.05.91-1,1.39-2.78,3.32-2.66,3.68.18,7,.66,9.42,4.1A48,48,0,0,1,121.48,151c.54,1.69,1.33,1.87,2.84,1.39A68.12,68.12,0,0,0,141,144.13c2.29-1.57,3.92-2,5.67.42.3.42,1,.6,1.51.91-3.14,2.41-4.95,6-7.48,8.87-4.65,5.37-9,11-13.34,16.6-5.67,7.3-11.65,14.43-17,22a78.47,78.47,0,0,1-9.3,11.23c-1.27,1.27-1.93,3.08-3.08,4.53-.91,1.15-1.57,2.47-3.14,0-2.23-3.5-5.37-6.34-7.79-9.78-1.51-2.11-3-4.23-4.59-6.28-2.11-2.78-4.41-5.43-6.46-8.21s-4-6-6.34-8.39c-2.9-3-5.13-6.52-7.79-9.66-3-3.5-5.73-7.18-8.63-10.8S47.6,148.6,44.82,145.16Z"/><path class="cls-4" d="M24.3,113.35c3.2-2.23,6.34-4.53,9.6-6.7a64.65,64.65,0,0,1,15.21-7.79c2.41-.78,3.68-.6,4.35,2.35a51.37,51.37,0,0,0,5.92,15,45.79,45.79,0,0,0,2.78,3.92c1.09,1.45,2,1.81,3.44.12a21.42,21.42,0,0,1,10.56-6.64c1.09-.36,2.05-.54,3,.36,2.35,2.23,4.71,4.35,7.12,6.52.54.48,1.09,1,.6,1.81-.6,1-1.21.18-1.75-.06a24.36,24.36,0,0,1-6.64-4.65c-1.09-1.21-1.87-1-3-.3C71.62,119.69,67.7,122,65,125.78c-1.21,1.81-1.57.12-2-.48-4.65-6.34-9-12.86-11.77-20.22-.85-2.17-1.57-1.87-3.08-1-8.33,4.77-14.91,11.41-20.64,19-1.75-2.29-3.5-4.53-5.31-6.76a1.41,1.41,0,0,1-.24-1.87C22.25,113,23.69,114.08,24.3,113.35Z"/><path class="cls-5" d="M158.35,132.48a2.07,2.07,0,0,0-.18-1.69,52.68,52.68,0,0,0-11.65-12.07c-1.39-1-1.81-.24-2.41.78-3.92,6.28-9.36,11.23-15,16-1.39,1.15-2.05,1-3.08-.3a65.16,65.16,0,0,0-10.14-9.84,2.26,2.26,0,0,0-3.14-.18A27.75,27.75,0,0,1,108,127.6c-.48.24-1.15.66-1.51-.18-.24-.54.12-1,.66-1.15a33.65,33.65,0,0,0,7.48-4.47c1-.78,1.69.18,2.35.66a41.07,41.07,0,0,1,9.23,8.15c1.33,1.63,2.29,1.39,3.68.36,5.49-4,9.3-9.42,12.86-15,2.29-3.62,2.23-3.56,5.92-1.33,5.37,3.26,9.84,7.61,14.61,11.53C161,127.84,159.74,130.19,158.35,132.48Z"/><path class="cls-6" d="M29.67,125.78a80.1,80.1,0,0,1,15-12c1.81-1.15,2.84-1.27,4.1,1A58.14,58.14,0,0,0,60.94,130c2,1.75,3.5,2.54,5.55-.12s5.07-4.83,7.85-7c1.57-1.27,2.84-1.69,4.71-.12s4.47,2.78,6.58,4.41c-2.17.18-3.86-1.09-5.55-2.05s-2.72-.91-4.23.42c-3.56,3.2-7.48,6.1-10.38,10-1,1.45-1.63.54-2.29-.06-5.67-4.83-11.23-9.78-15.39-16.06-.54-.78-.78-1.87-2.17-.85a46.43,46.43,0,0,0-11.47,11.83c-.24.36-.12,1-.18,1.45C32.57,129.83,31.6,127.47,29.67,125.78Z"/><path class="cls-5" d="M151.71,140.39c-1.69-2-3.38-3.92-5.07-6-.72-.91-1.27-.91-2.11,0-4.89,5.13-11.23,8-17.5,10.92-1.45.66-2.35.66-3-1a12.46,12.46,0,0,0-2-3c-4.23-4.83-7.42-11.41-15.93-9.3,5.25-3.32,8.27-3.08,12.13.54a39.46,39.46,0,0,1,6.76,8.09c1,1.69,1.81,1.63,3.32.66a77.24,77.24,0,0,0,15.57-12.74c1.39-1.51,2.47-1.57,4-.48a29.68,29.68,0,0,1,7.54,7.24C154.73,137.55,152.5,138.46,151.71,140.39Z"/><path class="cls-7" d="M36.49,135c2.72-1.39,4.29-4.1,6.64-5.92,2.17-1.57,3.56-2.05,5.73.24a66.73,66.73,0,0,0,14.79,11.83c1.69,1,2.6,1.09,3.68-.85a35.75,35.75,0,0,1,7.79-8.75c1.93-1.63,3.8-2.35,6.28-1.45a28.33,28.33,0,0,0,4.35,1c-.06,1-.6,1-.91.91-5.31-1.09-8.69,1.69-11.71,5.43-1.81,2.29-3.86,4.41-5.13,7.06-.78,1.69-1.57,1.57-3,.85-6.28-3-12.49-6-17.5-11-1-1-1.57-.78-2.29.24-1.33,1.75-2.72,3.44-4,5.19C39.63,138.22,38.06,136.65,36.49,135Z"/><path class="cls-8" d="M107,86.13c.36,3.14.3,6.46,1.93,9.36a8.36,8.36,0,0,0,7.3,4.53c4.59.12,9.05-.24,12.31-4.59,1.21,2.23-.3,3.68-1.45,4.77a21.18,21.18,0,0,1-16.72,6c-5.61-.48-9.17-3.68-11.23-8.69a13.57,13.57,0,0,0-.72-1.27,1.79,1.79,0,0,1-.6-2.17,37.1,37.1,0,0,0-1-6.22A5,5,0,0,0,93.53,84c-2.11-1-4.53-1.75-3.62-4.89a6.52,6.52,0,0,1,7-4.89,9.87,9.87,0,0,1,8.21,7,8.8,8.8,0,0,0,1.57,3.2C107.71,84.86,107.35,85.53,107,86.13Z"/><path class="cls-9" d="M90.93,50.88c-2.54.18-4.1-1-4.77-3a2.26,2.26,0,0,0-2.41-1.93c-6.76-.6-11.89-8.69-9.66-15.15a5.55,5.55,0,0,0,0-4.29C73,24,74,21.61,75.06,19.25c.48-1.09,1.09-1,1.87-.42,3.56,2.72,7.79,4.89,7.73,10.32a3.21,3.21,0,0,0,1.69,2.72c3.8,2.6,4.47,6.46,4.16,10.68C90.27,45.33,89.79,48,90.93,50.88Z"/><path class="cls-2" d="M101.74,50.94c1.27-3.26.54-6.28.42-9.23-.18-4,.72-7.36,4.1-9.78a4.51,4.51,0,0,0,1.87-3.62c.24-3.38,4.71-8.75,8-9.84.78-.24,1.15-.06,1.39.6.91,2.35,2.23,4.71,1,7.18a5.53,5.53,0,0,0,0,4.59c1.45,3.92.36,7.18-2.35,10.26-2.29,2.6-4.41,5.25-8.39,4.83-1.15-.12-1,1.09-1.27,1.75A4.48,4.48,0,0,1,101.74,50.94Z"/><path class="cls-10" d="M143.2,103.15c-1.93-.78-1.87,1-2.23,1.87a78.8,78.8,0,0,1-13.22,21.55c-2.9-4-6.76-6.7-10.8-9.11-1.39-.78-2.29-1-3.56.3a23.11,23.11,0,0,1-6.76,4.47c-.36.18-.91.66-1.33.06a1.15,1.15,0,0,1,.12-1.63c2.66-2.29,5.25-4.65,7.91-6.94.72-.66,1.51-.24,2.29-.12a20.07,20.07,0,0,1,10.86,6.64c1.51,1.75,2.29,1.15,3.38-.18a45.57,45.57,0,0,0,7.24-13.76c.42-1.15.78-2.23,1.21-3.38.85-2.05,2.84-1.21,4.29-1.75C143.26,101,143.39,101.22,143.2,103.15Z"/><path class="cls-11" d="M88.4,69a54.62,54.62,0,0,1-1.93-8.81c-.85-.72-1.33-1.51-.6-2.54.06-1.15.12-2.29.18-3.68,2.78,1,2.72,3.32,3,5.49,1.39,2.9.78,5.85.48,8.81C89.49,68.81,89,69.11,88.4,69Z"/><path class="cls-12" d="M102.82,68.57c-.36.36-.78.66-1.15,1a1.81,1.81,0,0,1-.66-1.93c.54-2.17.24-4.41.3-6.58.06-1.21-.06-2.41.85-3.38a18.26,18.26,0,0,1,.72-1.93c.36-.85,1-1.87,1.93-1.51s.06,1.45.3,2.17a12.47,12.47,0,0,1-.18,6.82C104.88,65.19,104.57,67.18,102.82,68.57Z"/><path class="cls-13" d="M92,65.61a26.29,26.29,0,0,1-.24,4.89c-.3,1.27-.6-.36-1-.24-1.57-1.69-1.27-3.8-1.27-5.79,0-1.69-.06-3.32.06-5,.18-1.39-.18-3.5,2.35-1.75a2.09,2.09,0,0,1,1.39,2.6C92.87,62.11,93.29,64.1,92,65.61Z"/><path class="cls-14" d="M98.66,58.3c.66-.66,1.27-1.81,2.47-.66,1,1.69.36,3.56.54,5.37.06,2.35,0,4.65-1.27,6.76L99.69,71a1.67,1.67,0,0,0-.54.06V65.67C97.94,63.25,96.85,60.9,98.66,58.3Z"/><path class="cls-15" d="M98.12,66.21a14.46,14.46,0,0,1-1,4.83c-1-1.57-.6-3.26-1-4.83-.54-2.66-1.57-5.31.06-7.91.42-.6.36-1.81,1.33-1.75s.3,1.15.6,1.69C98.12,60.9,99.08,63.56,98.12,66.21Z"/><path class="cls-16" d="M85.86,57.64c.18.85.36,1.69.6,2.54-1.45,2.29.3,4.89-.66,7.18-1.93-2.23-3-7.91-2.17-12.31C85.44,55,84.84,57.1,85.86,57.64Z"/><path class="cls-17" d="M93.11,57c2.17-1,1.33,1.21,1.93,1.81a6.61,6.61,0,0,1,0,5.55c-.24,2.23-.42,4.41-.72,7.06A11,11,0,0,1,93,66.75C92.08,63.56,92.87,60.3,93.11,57Z"/><path class="cls-18" d="M105.66,57c.3-.85.48-1.75,1.69-2.05,1.09,2.78.3,5.49-.24,8.15.85,1.63-.3,2.9-.78,4.23-.42,1.15-1.21.66-1.69-.18C104.76,63.74,104.27,60.24,105.66,57Z"/><path class="cls-19" d="M105.12,67.42c1.09-.91,1.09-.91,2-4.29h.54c.54.36,1,.78.54,1.51a4.43,4.43,0,0,0-.85,3.56c.18,1,.12,1.81-.85,2.29s-1.33-.48-1.93-1a2.9,2.9,0,0,0-1.81-.91c.42-1.81.85-3.62,1.27-5.37C105.84,64.28,104.33,66.09,105.12,67.42Z"/><path class="cls-20" d="M110.73,56c1-.18,1.75-.12,1.75,1.21-.06,2,.18,4-.72,5.85-.91-.36-.12-1.33-.72-1.75-.91.6.18,3-2.05,2.54-.72-.6-.42-1.27-.18-1.93C109.71,60.05,108.44,57.4,110.73,56Z"/><path class="cls-21" d="M94.86,93.92c.72-1,1.45-.6,2.11.06.66.91-.12,1.69-.24,2.54-.36,2.6-3,.91-3,.78-1.39-1.45-2.72-1.21-4.16.12-.54-1.51-.78-2.72,0-3.86.36.3.72.66,1.09,1,.91-.6,1.63-.12,2.29.42a1.6,1.6,0,0,0,.36.3C94.56,95.61,94.68,94.76,94.86,93.92Z"/><path class="cls-22" d="M80.61,63c-.12-.54-.24-1.09-.48-1.87-.18.78-.36,1.39-.48,1.93-.18-.06-.36-.12-.42-.24-.85-1.75-.54-3.68-.6-5.55s.85-1.69,2-1a6.92,6.92,0,0,1,1.27,4.47C81.88,61.74,82.06,62.83,80.61,63Z"/><path class="cls-23" d="M89.36,87.1A6.29,6.29,0,0,1,90.15,91c0,.66.36,1.93-.91,1.75a1.8,1.8,0,0,1-1.63-2.11A5.3,5.3,0,0,1,89.36,87.1Z"/><path class="cls-24" d="M81.76,55.41c2.29,3,1.27,6.22.85,9.42-.06-.06-.18-.06-.24-.12a.83.83,0,0,1-.18-.24A13.37,13.37,0,0,1,81.76,55.41Z"/><path class="cls-25" d="M89.61,59.51A12.46,12.46,0,0,1,90,64.46c-.66,1.75.48,3.62-.3,5.31-.91.54-1.15-.06-1.27-.78,1.45-1.87.24-4,.48-6a23.16,23.16,0,0,0,.12-3.56A1.67,1.67,0,0,1,89.61,59.51Z"/><path class="cls-26" d="M109.34,61.93a1.74,1.74,0,0,0-.42,2l-.72.72c-.18-.48-.36-1-.54-1.51.78-1.39.3-2.9.42-4.35.06-1.27-.06-2.6,1.27-3.44C110.37,57.52,109.83,59.69,109.34,61.93Z"/><path class="cls-27" d="M101.07,63.19V57.64h1.09a50.27,50.27,0,0,1-.42,10.44C100.47,66.63,101.92,64.76,101.07,63.19Z"/><path class="cls-28" d="M93.11,57c0,3.26-.06,6.52-.06,9.78l-1-1.21c-.66-2.66,1.21-5.31-.12-7.91C92.5,57.82,92.74,57.4,93.11,57Z"/><path class="cls-29" d="M81.76,55.41a35.08,35.08,0,0,0,.42,9.05c-1.09.12-1.39-.54-1.57-1.45,1.57-2.23-.48-4.41.06-6.64C81,56,81.4,55.71,81.76,55.41Z"/><path class="cls-30" d="M95,64.4V58.85c.36-.18.72-.42,1.09-.6,0,2.66,0,5.25-.06,7.91C95.76,65.61,95.4,65,95,64.4Z"/><path class="cls-31" d="M105.12,67.42c-1.09-1.21.18-3-1-4.23.3-2.29.66-4.59,1-6.88a3.16,3.16,0,0,0,.6.66C105,60.42,105.24,63.92,105.12,67.42Z"/><path class="cls-32" d="M98.12,66.21v-8a1.76,1.76,0,0,1,.54.12c.12,2.41.3,4.89.42,7.3C98.72,65.85,98.42,66,98.12,66.21Z"/><path class="cls-33" d="M101.07,63.19c1,1.57.18,3.32.66,4.95,0,.48-.06,1-.06,1.45-.36.72-.85.36-1.33.18C100.59,67.6,100.83,65.37,101.07,63.19Z"/><path class="cls-34" d="M89.67,69.77c0-1.81-.48-3.62.3-5.31.24,1.93.54,3.92.78,5.85-.12.42-.18.85-.36,1.39C90.15,70.92,89.91,70.38,89.67,69.77Z"/><path class="cls-35" d="M84.48,80.82a9.24,9.24,0,0,1,.66,5.31C83.33,84.44,83.81,82.63,84.48,80.82Z"/><path class="cls-36" d="M107,86.13c-.12-.6-.18-1.15-.3-1.75.12-1.21.24-2.35.48-4.41C108.74,82.69,108.5,84.44,107,86.13Z"/><path class="cls-37" d="M109.34,61.93c0-2.17,0-4.35-.06-6.52.48.18,1,.42,1.39.6C109.89,57.88,110.55,60.11,109.34,61.93Z"/><path class="cls-38" d="M109.77,77.32c.48,2.29.48,2.29-.6,4.29C108.62,79.37,108.62,79.37,109.77,77.32Z"/><path class="cls-39" d="M93,94.94c-.91.48-1.57-.18-2.29-.42-.24-.91,0-1.75,1-1.75C93.11,92.71,92.62,94.16,93,94.94Z"/><path class="cls-40" d="M96.79,96.51c-1-.91,0-1.69.24-2.54.3,0,.66.06,1,.06.24.72.78,1.33.6,2.17C97.94,96.33,97.33,96.39,96.79,96.51Z"/><path class="cls-41" d="M82.85,77.5c.18,1.39.42,2.84.66,4.71C81.82,80.52,81.76,79.07,82.85,77.5Z"/><path class="cls-42" d="M94.86,93.92c.36.72,1.33,1.63.42,2.29s-1.63.06-2-1A16.58,16.58,0,0,0,94.86,93.92Z"/></g></g></svg>