<?xml version="1.0" encoding="UTF-8" standalone="no"?>
<!-- Generator: Adobe Illustrator 21.0.0, SVG Export Plug-In . SVG Version: 6.00 Build 0)  -->

<svg
   xmlns:dc="http://purl.org/dc/elements/1.1/"
   xmlns:cc="http://creativecommons.org/ns#"
   xmlns:rdf="http://www.w3.org/1999/02/22-rdf-syntax-ns#"
   xmlns:svg="http://www.w3.org/2000/svg"
   xmlns="http://www.w3.org/2000/svg"
   xmlns:sodipodi="http://sodipodi.sourceforge.net/DTD/sodipodi-0.dtd"
   xmlns:inkscape="http://www.inkscape.org/namespaces/inkscape"
   version="1.1"
   id="Layer_1"
   x="0px"
   y="0px"
   viewBox="0 0 201.86171 188.68941"
   xml:space="preserve"
   inkscape:version="0.91 r13725"
   sodipodi:docname="Hat.svg"
   width="201.86171"
   height="188.68941"><metadata
     id="metadata59"><rdf:RDF><cc:Work
         rdf:about=""><dc:format>image/svg+xml</dc:format><dc:type
           rdf:resource="http://purl.org/dc/dcmitype/StillImage" /><dc:title></dc:title></cc:Work></rdf:RDF></metadata><defs
     id="defs57" /><sodipodi:namedview
     pagecolor="#ffffff"
     bordercolor="#000000"
     borderopacity="0"
     objecttolerance="10"
     gridtolerance="10"
     guidetolerance="10"
     inkscape:pageopacity="0"
     inkscape:pageshadow="2"
     inkscape:window-width="1301"
     inkscape:window-height="744"
     id="namedview55"
     showgrid="false"
     fit-margin-top="0"
     fit-margin-left="0"
     fit-margin-right="0"
     fit-margin-bottom="0"
     inkscape:zoom="0.96335937"
     inkscape:cx="141.4959"
     inkscape:cy="199.02212"
     inkscape:window-x="65"
     inkscape:window-y="24"
     inkscape:window-maximized="1"
     inkscape:current-layer="Layer_1" /><style
     type="text/css"
     id="style3">
.st0{fill:#663300;stroke:#2F2507;stroke-miterlimit:10;}
  .st1{fill:#9C9264;}
  .st2{fill:#42270A;}
</style><g
     id="g5"
     transform="translate(-58.504105,-310.33272)"><g
       id="g7"><path
         class="st0"
         d="m 189.6,389.8 c 0,0 0.4,2.9 3.3,5.4 2.9,2.5 2.1,6.2 1.7,7.4 -0.4,1.2 -1.2,3.7 0,8.3 1.2,4.6 1.7,7.4 8.3,19.8 6.6,12.4 9.5,15.7 9.5,15.7 0,0 2.5,2.5 2.9,5.8 0.4,3.3 4.1,4.5 7.9,2.5 3.8,-2 10.3,-5.4 23.2,-6.2 14.1,-1.2 19.8,14.9 3.3,19 -16.5,4.1 -27.3,9.9 -38.5,10.3 -11.2,0.4 -18.6,-1.7 -64.1,14.1 -59.1,14.9 -81.9,0 -81.9,0 0,0 -19,-9.1 9.5,-20.3 11.6,-2.5 24.4,1.2 24.4,1.2 0,0 18.6,5.4 14.9,-11.6 -3.7,-17 2.9,-20.3 2.9,-20.3 0,0 3.3,-1.7 4.1,-9.5 0.8,-7.9 2.9,-10.8 2.9,-10.8 0,0 2.5,-4.5 -0.4,-13.2 -2.9,-8.7 12.5,-32 12.5,-32 l 2.3,-7.2 c 0,0 1.7,-2.1 -3.7,-4.5 -4.2,-2 -4.2,-5.6 -3.5,-6.8 3.1,-6 -2.3,-5.2 -2.3,-5.2 l -6.2,0 c -42.2,-0.4 -6.6,-14.1 3.7,-16.5 10.3,-2.5 7.4,-2.1 9.9,-5 2.5,-2.9 15.3,0 15.3,0 0,0 8.7,2.9 12,3.7 3.3,0.8 5,5.8 5,5.8 l 3.3,11.6 c 1.6,11.2 17.8,38.5 17.8,38.5 z"
         id="path9"
         inkscape:connector-curvature="0"
         style="fill:#493716;stroke:#2f2507;stroke-miterlimit:10" /><path
         class="st1"
         d="m 156.6,423.5 c 0,0 13.6,-6.2 0,-7.4 -6.2,-1.2 -7,-5 -7,-5.8 0,-0.8 -2.1,-4.5 -5,-5.8 -2.9,-1.2 -5.8,-1.7 -1.7,-4.5 4.1,-2.9 0.8,-4.1 0,-4.5 -0.8,-0.4 -8.6,-2.4 0.2,-4.5 0.1,0 0.3,-0.1 0.4,-0.1 9.4,-1 18,11.2 24.2,18.6 6.2,7.4 8.7,5 13.6,0.8 4.9,-4.2 13.6,-9.1 10.8,-0.8 -2.5,6.2 -5.8,7.4 -5.8,7.4 0,0 -5,2.1 -1.2,5 3.7,2.9 0.4,2.5 -1.2,1.7 -1.6,-0.8 -5.8,-3.3 -5.8,-3.3 0,0 -3.3,-5.4 -12.4,0.4 -9.1,5.8 -9.1,5.8 -9.1,5.8 0,0 -9.5,3.7 0,-3 z"
         id="path11"
         inkscape:connector-curvature="0"
         style="fill:#9c9264" /><path
         class="st2"
         d="m 231.4,458.7 c 0,0 14.5,-7 21.9,-1.7 7.4,5.4 -7,9.1 -7,9.1 0,0 -13.6,2.5 -16.1,4.1 -2.5,1.7 -11.2,3.3 -16.1,4.1 -5,0.8 -11.6,1.2 -11.6,1.2 0,0 -7.9,0.8 0,-3.3 7.9,-4.1 28.9,-13.5 28.9,-13.5 z"
         id="path13"
         inkscape:connector-curvature="0"
         style="fill:#42270a" /></g><path
       class="st1"
       d="m 124.8,454.5 c 0,0 2.5,2.5 7.4,0 5,-2.5 30.2,-19 45.5,-19.4 15.3,-0.4 17,-0.8 19.4,2.9 2.5,3.7 3.7,5 3.7,5 0,0 3.7,2.9 3.3,-0.4 -0.4,-3.3 1.7,0 1.7,0 l 3.3,4.5 c 0,0 2.5,4.1 -2.5,1.7 -5,-2.5 -8.7,-5 -17.8,-4.5 -9.1,0.4 -33.9,5 -33.9,5 0,0 -12,2.5 -16.1,5 l -9.9,4.1 c 0,0 -2.9,2.9 -5,0.4 -2,-2.7 -3.6,-6.8 0.9,-4.3 z"
       id="path15"
       inkscape:connector-curvature="0"
       style="fill:#9c9264" /><path
       class="st1"
       d="m 152.4,347.5 c 0,0 3.3,9.1 -9.5,18.6 -4.1,4.1 2.1,-0.4 2.1,-0.4 0,0 4.5,-2.9 2.1,1.7 -2.5,4.5 -1.7,3.7 -1.7,3.7 0,0 1.2,0.4 4.1,-4.5 2.9,-5 4.1,-1.2 4.1,-1.2 l 2.1,4.1 c 0,0 1.7,-5.8 3.3,-7 1.7,-1.2 2.5,-1.2 2.5,-1.2 0,0 0.4,-0.8 0,-1.2 -0.4,-0.4 -0.8,-2.1 1.2,-6.6 2,-4.5 2.1,-3.3 2.9,-6.2 0.8,-2.9 -1.2,-2.1 -1.7,-0.8 -0.4,1.2 -5,11.6 -6.2,13.2 -1.2,1.6 -3.3,2.9 -3.3,0 0,-2.9 0,-9.5 0,-9.5 0,0 0.1,-4.8 -2,-2.7 z"
       id="path17"
       inkscape:connector-curvature="0"
       style="fill:#9c9264" /></g></svg>