<?xml version="1.0" encoding="UTF-8" standalone="no"?>
<!-- Created with Inkscape (http://www.inkscape.org/) -->

<svg
   xmlns:dc="http://purl.org/dc/elements/1.1/"
   xmlns:cc="http://creativecommons.org/ns#"
   xmlns:rdf="http://www.w3.org/1999/02/22-rdf-syntax-ns#"
   xmlns:svg="http://www.w3.org/2000/svg"
   xmlns="http://www.w3.org/2000/svg"
   xmlns:sodipodi="http://sodipodi.sourceforge.net/DTD/sodipodi-0.dtd"
   xmlns:inkscape="http://www.inkscape.org/namespaces/inkscape"
   width="179.14064mm"
   height="264.86554mm"
   viewBox="0 0 634.7503 938.49994"
   id="svg6972"
   version="1.1"
   inkscape:version="0.91 r13725"
   sodipodi:docname="house_h.svg">
  <defs
     id="defs6974" />
  <sodipodi:namedview
     id="base"
     pagecolor="#ffffff"
     bordercolor="#000000"
     borderopacity="0"
     inkscape:pageopacity="0.0"
     inkscape:pageshadow="2"
     inkscape:zoom="0.52488384"
     inkscape:cx="283.65773"
     inkscape:cy="368.81056"
     inkscape:document-units="px"
     inkscape:current-layer="layer1"
     showgrid="false"
     inkscape:window-width="1301"
     inkscape:window-height="744"
     inkscape:window-x="65"
     inkscape:window-y="24"
     inkscape:window-maximized="1"
     fit-margin-top="0"
     fit-margin-left="0"
     fit-margin-right="0"
     fit-margin-bottom="0" />
  <metadata
     id="metadata6977">
    <rdf:RDF>
      <cc:Work
         rdf:about="">
        <dc:format>image/svg+xml</dc:format>
        <dc:type
           rdf:resource="http://purl.org/dc/dcmitype/StillImage" />
        <dc:title></dc:title>
      </cc:Work>
    </rdf:RDF>
  </metadata>
  <g
     inkscape:label="Layer 1"
     inkscape:groupmode="layer"
     id="layer1"
     transform="translate(616.01266,184.47948)">
    <path
       style="opacity:1;fill:#fbbe1e;fill-opacity:1;fill-rule:evenodd;stroke:#fbbe1e;stroke-width:1px;stroke-linecap:butt;stroke-linejoin:miter;stroke-opacity:1"
       d="m -615.51233,-183.97948 633.749992,0 0,937.49995 -633.124992,0 z"
       id="path6646-5"
       inkscape:connector-curvature="0" />
    <path
       id="path4138"
       style="fill:#2a2828;fill-opacity:1"
       d="m -126.12894,14.150673 3.125,-0.86788 0.3451,-19.0075298 0.345,-19.0075202 -3.1575,0 c -1.7367,0 -3.1576,-0.54495 -3.1576,-1.211 0,-0.68328 3.6769,-1.11594 8.4375,-0.99286 15.7898,0.40822 20.0796,-0.10647 20.700802,-2.48364 0.3145,-1.20313 0.637,1.04687 0.7167,5 0.082,4.055 -0.3998,7.1875 -1.105,7.1875 -0.687502,0 -1.250002,-1.0918 -1.250002,-2.42623 0,-3.15803 -1.166,-3.78356 -8.7202,-4.67825 l -6.2798,-0.74375 0,8.92411 0,8.9241202 5.4725,0 c 4.2485,0 5.9205,-0.62907 7.4753,-2.8125002 1.912,-2.68519 1.9714,-2.50199 1.3134,4.0473402 -0.7345,7.31121 -1.7612,10.0558 -1.7612,4.70837 0,-2.79916 -0.6739,-3.33732 -5.1199,-4.08846 -2.855,-0.48236 -5.6469,-0.33791 -6.3114,0.32654 -0.6553,0.65534 -1.0233,5.06961999 -0.8176,9.80951 0.3668,8.4538098 0.4453,8.6331798 4.1239,9.4156998 2.1914,0.46616 -0.6659,0.8074 -6.875,0.82101 -6.0905,0.0134 -9.2913,-0.3471 -7.5,-0.84458 z m -38.75,0.19582 c 1.7188,-0.31944 3.4063,-1.03468 3.75,-1.58941 0.3438,-0.55474 0.625,-9.0673198 0.625,-18.9168398 0,-16.9237402 -0.1374,-17.9331502 -2.5,-18.3616902 -1.375,-0.24941 -3.041,-0.96801 -3.7022,-1.59689 -0.7306,-0.69484 3.1925,-1.0578 10,-0.92516 17.0237,0.33168 19.0672,0.0859 19.7545,-2.37626 0.3359,-1.20313 0.5621,1.04687 0.5028,5 -0.059,3.95312 -0.5742,7.1875 -1.144,7.1875 -0.5699,0 -1.0361,-1.13892 -1.0361,-2.53094 0,-2.95171 -4.3466,-4.96906 -10.7064,-4.96906 l -4.2936,0 0,8.75 0,8.7500002 5.4725,0 c 4.2227,0 5.9499,-0.64236 7.5625,-2.8125002 l 2.09,-2.8125 -0.6704,3.1250002 c -0.3688,1.71875 -0.7342,5.09375 -0.8121,7.5 -0.1243,3.83677 -0.2473,3.99615 -1.0002,1.29558999 -0.8511,-3.05307999 -4.097,-4.66938999 -9.8824,-4.92098999 -2.7805,-0.12093 -2.8543,0.16096 -2.5,9.55416 0.3635,9.6360498 0.3817,9.6822898 4.1151,10.4770998 2.0933,0.44566 -1.22,0.78849 -7.5,0.77601 -6.1875,-0.0125 -9.8437,-0.28368 -8.125,-0.60312 z m -88.125,-0.17507 3.75,-0.80054 0.3451,-19.0515698 c 0.3301,-18.2287402 0.2388,-19.0515702 -2.1138,-19.0515702 -1.3523,0 -2.8553,-0.64166 -3.34,-1.42591 -1.4771,-2.38992 23.6132,-0.68196 27.5124,1.87283 7.1429,4.68022 4.5698,14.6851902 -4.9686,19.3193002 -6.4087,3.11355 -6.8101,3.20102 -6.8101,1.48378 0,-0.6875 0.8029,-1.25 1.7843,-1.25 2.8801,0 6.9657,-6.2496102 6.9657,-10.6551002 0,-5.17282 -3.3179,-9.08595 -8.125,-9.58252 l -3.75,-0.38738 -0.3448,19.0183802 -0.3448,19.0183998 4.0948,1.18137 c 3.305,0.95353 1.9249,1.1746 -7.1552,1.14622 -6.448,-0.0201 -9.6494,-0.37686 -7.5,-0.8357 z m -110.4923,0.21835 c 3.1818,-0.49165 3.2741,-0.77613 3.9551,-12.1906398 0.3835,-6.42799 0.3938,-15.0333902 0.023,-19.1231402 -0.5987,-6.60214 -1.0422,-7.57185 -3.9551,-8.64849 -2.4569,-0.9081 0.3015,-1.22517 10.9841,-1.26263 11.9809,-0.042 14.5152,-0.39241 15.8286,-2.18854 1.3141,-1.79706 1.5312,-1.02803 1.3601,4.81629 -0.112,3.82515 -0.6254,6.95938 -1.141,6.96497 -0.5157,0.006 -0.9375,-1.12877 -0.9375,-2.52079 0,-2.95171 -4.3466,-4.96906 -10.7064,-4.96906 l -4.2936,0 0,8.75 0,8.7500002 4.6875,-0.0191 c 5.1572,-0.0211 7.0729,-0.8979 8.1513,-3.7308602 0.3926,-1.03125 0.7582,1.3925802 0.8125,5.3862802 0.062,4.54518 -0.3689,6.9723 -1.1513,6.48871999 -0.6875,-0.42489 -1.25,-1.79403 -1.25,-3.04251999 0,-1.54237 -1.2521,-2.52039 -3.9063,-3.05123 -7.5637,-1.51273 -7.4804,-1.61725 -7.0838,8.89752 0.3634,9.6360498 0.3816,9.6822798 4.1151,10.4770998 2.0783,0.44246 -1.2651,0.78078 -7.5,0.75895 -6.1875,-0.0216 -9.7841,-0.26593 -7.9923,-0.54279 z m -37.6327,-0.2391 3.125,-0.86788 0.345,-19.0075298 0.3451,-19.0075202 -3.1576,0 c -1.7366,0 -3.1575,-0.46301 -3.1575,-1.02891 0,-0.5659 6.75,-1.02829 15,-1.02752 l 15,0.001 -0.1247,5.09002 c -0.1007,4.11529 -0.289,4.50032 -0.9831,2.01061 -0.9005,-3.23026 -4.1726,-4.70546 -10.9152,-4.92099 -3.6612,-0.11704 -3.9408,0.19501 -4.6037,5.13786 -0.3883,2.89435 -0.392,6.83185 -0.01,8.75 0.6103,3.0519202 1.2634,3.4851402 5.2287,3.4683902 5.006,-0.0212 6.9236,-0.91597 7.9952,-3.7308502 0.3925,-1.03125 0.7581,1.0781202 0.8124,4.6875002 0.055,3.60939 -0.4634,6.56250999 -1.1509,6.56250999 -0.6875,0 -1.25,-1.07556 -1.25,-2.39012999 0,-1.81067 -1.2011,-2.59305 -4.9541,-3.22712 -2.7248,-0.46035 -5.3967,-0.56522 -5.9375,-0.23305 -0.5409,0.33216 -0.7995,4.84492999 -0.5747,10.02837 0.3959,9.1298198 0.5131,9.4404298 3.75,9.9358898 1.8377,0.2813 -1.4399,0.53966 -7.2837,0.57415 -6.0189,0.0355 -9.2703,-0.31355 -7.5,-0.80518 z m -108.4375,0.22176 c 2.5226,-0.38215 3.4494,-1.24718 3.4825,-3.25022 0.1065,-6.4582498 0.1362,-24.45594 0.049,-29.91697 -0.08,-5.01157 -0.4728,-5.9375 -2.5206,-5.9375 -1.3345,0 -2.7412,-0.5096 -3.1262,-1.13244 -0.3939,-0.6374 3.6721,-1.17924 9.3013,-1.23949 5.8495,-0.0626 10.0011,0.40747 10.0011,1.13244 0,0.68172 -1.432,1.23949 -3.1821,1.23949 -3.1279,0 -3.1759,0.14187 -2.8125,8.32252 0.4321,9.7302902 0.1835,9.5918202 15.0571,8.3884502 l 9.6875,-0.78378 0,-7.9636002 c 0,-7.66116 -0.1187,-7.96359 -3.125,-7.96359 -1.7188,0 -3.125,-0.50765 -3.125,-1.12811 0,-0.62047 4.2187,-1.0706 9.375,-1.0003 5.1562,0.0703 9.375,0.57795 9.375,1.12811 0,0.55017 -1.4209,1.0003 -3.1576,1.0003 l -3.1575,0 0.345,19.0075202 0.3451,19.0075298 3.125,0.86787 c 1.8571,0.51575 -0.9323,0.87839 -6.875,0.89379 -8.1244,0.0211 -9.3553,-0.20956 -6.5625,-1.22956 3.3281,-1.21555 3.4375,-1.55038 3.4375,-10.5263198 l 0,-9.27083 -5.9375,0.0109 c -3.2657,0.006 -8.9137,0.3683 -12.5511,0.80516 l -6.6137,0.79431 0.3637,8.82992 c 0.3383,8.2169898 0.5805,8.8899898 3.4886,9.6952298 1.7637,0.48838 -1.5033,0.838 -7.5,0.80262 -5.8438,-0.0345 -9.0782,-0.29702 -7.1875,-0.58342 z m 307.7436,0.85722 c -5.985,-1.81348 -9.2334,-6.2099698 -10.5457,-14.27283981 -0.6448,-3.96179999 -1.1255,-7.56569999 -1.0683,-8.00866999 0.057,-0.44297 0.037,-4.6022702 -0.044,-9.2429002 -0.1159,-6.60088 -0.5562,-8.4375 -2.0231,-8.4375 -1.0312,0 -1.875,-0.46442 -1.875,-1.03205 0,-0.56762 3.9375,-1.08205 8.75,-1.14318 4.8125,-0.0611 8.75,0.40329 8.75,1.03204 0,0.62875 -1.4062,1.14319 -3.125,1.14319 l -3.125,0 0,14.0625 c 0,17.2629802 1.8444,22.18768 8.9561,23.94492 6.2587,1.5465 11.7172,-0.81035 13.4608,-5.8119898 0.7316,-2.10017 1.3306,-10.2033 1.3306,-18.0069602 l 0,-14.18847 -3.125,0 c -1.7187,0 -3.125,-0.47406 -3.125,-1.05346 0,-0.57941 3.6549,-1.00128 8.1219,-0.9375 4.467,0.0638 8.1233,0.53783 8.125,1.05346 0,0.51562 -1.1219,0.9375 -2.4969,0.9375 -2.3489,0 -2.5,0.83333 -2.5,13.79015 0,15.1851802 -1.4926,20.6932002 -6.4958,23.97147 -3.9399,2.58149 -13.0173,3.69432 -17.9481,2.20029 z m -237.4311,-0.55926 c -2.75,-1.02575 -5.1292,-1.87347 -5.2871,-1.88382 -0.1579,-0.01 -1.4236,-2.24642 -2.8125,-4.9690298 -2.0825,-4.08192 -2.5254,-7.37073001 -2.5254,-18.7500002 0,-11.18196 -0.3417,-13.7998 -1.8013,-13.7998 -0.9906,0 -2.0923,-0.47103 -2.4481,-1.04674 -0.3558,-0.57571 3.5969,-1.07409 8.7837,-1.10751 8.5607,-0.0552 11.1313,1.20684 4.8407,2.37638 -2.3588,0.43852 -2.4753,1.27534 -2.0621,14.8088302 0.2408,7.88922 1.0897,15.74517 1.8863,17.45765 2.1082,4.5316298 7.6897,6.8545298 13.1987,5.4929398 6.9939,-1.72861 8.8477,-6.7388698 8.8501,-23.91905 l 0,-14.0625 -3.125,0 c -1.7187,0 -3.125,-0.51971 -3.125,-1.15491 0,-0.6352 3.3735,-1.05708 7.4967,-0.9375 4.1232,0.11957 7.4982,0.63928 7.5,1.15491 0,0.51562 -0.8404,0.9375 -1.8717,0.9375 -1.5466,0 -1.8855,2.35307 -1.935,13.4375 -0.066,14.7632602 -1.6991,20.0330502 -7.5482,24.35598 -4.3405,3.20801 -11.9164,3.88464 -18.0168,1.60917 z m 173.125,2.72235 c 0,-1.86298 -1.734,-2.1481 -14.0625,-2.31229 -7.7344,-0.103 -12.5676,-0.41661 -10.7404,-0.6969 3.2797,-0.5031 3.3333,-0.67405 4.2012,-13.40704981 1.1302,-16.58222019 0,-25.70876019 -3.1919,-25.70876019 -1.2699,0 -2.5943,-0.46183 -2.9432,-1.02628 -0.3488,-0.56446 5.574,-1.03374 13.1619,-1.04285 10.4814,-0.0126 14.0868,-0.44176 15.0053,-1.78621 0.8236,-1.20544 0.9904,-0.0122 0.5232,3.74231 -0.6859,5.51136 -1.9536,8.58762 -1.9536,4.74034 0,-2.72046 -3.8295,-4.62731 -9.2929,-4.62731 l -4.4571,0 0,8.50599 0,8.5060002 5.7482,-0.1941 c 3.3778,-0.11406 6.2074,-0.91551 6.8616,-1.94349 0.7353,-1.1552702 0.9532,-0.2635602 0.6416,2.6256 -0.7385,6.84540999 -0.8403,7.04815999 -2.0404,4.0625 -0.9103,-2.26475 -2.1121,-2.8125 -6.1708,-2.8125 l -5.0402,0 0,9.41423 c 0,10.7476598 0.5652,11.3601098 8.959,9.7075098 4.2389,-0.83459 5.5028,-1.66998 5.8154,-3.8440298 0.7264,-5.05167 2.1759,-2.88161 1.6931,2.5347898 -0.4663,5.231 -2.7175,9.83901 -2.7175,5.5625 z m -34.8631,1.9375 -0.1369,-4.0625 -14.0625,-0.18729 c -7.7344,-0.103 -12.588,-0.41465 -10.7857,-0.69252 2.8394,-0.43779 3.3817,-1.27045 4.0625,-6.2371798 0.9972,-7.27547001 0.9874,-17.89747 -0.024,-26.3205102 -0.6346,-5.283 -1.2417,-6.5625 -3.1141,-6.5625 -1.2793,0 -2.3259,-0.5625 -2.3259,-1.25 0,-0.72917 4.1666,-1.25 10,-1.25 5.8333,0 10,0.52083 10,1.25 0,0.6875 -1.7022,1.25 -3.7826,1.25 l -3.7825,0 0.345,19.0625002 c 0.2908,16.0670398 0.6397,19.0303898 2.2201,18.8581098 9.4542,-1.03057 11.4781,-1.91905 13.2278,-5.8068898 l 1.7951,-3.98872 -0.6825,4.375 c -0.3754,2.4062498 -1.1627,6.9062498 -1.7495,9.9999998 -0.9408,4.95981 -1.0832,5.14459 -1.204,1.5625 z m 89.1667,366.846997 c 2.4083,-3.67565 1.2964,-7.73483 -2.606,-9.51285 -3.9541,-1.8016 -7.6278,0.0192 -8.706,4.31482 -1.6828,6.70496 7.5459,10.94573 11.3119,5.19803 z m -177.9715,1.54655 c 3.6165,-1.93547 3.2068,-8.13144 -0.7071,-10.69598 -2.8949,-1.89676 -3.3552,-1.89676 -6.25,0 -3.5931,2.35429 -4.1367,7.04968 -1.1608,10.02566 2.2836,2.28354 4.7266,2.48528 8.1179,0.67032 z m 111.7929,113.57521 c -2.0625,-0.68963 -14.4375,-1.25388 -27.5,-1.25388 -13.0625,0 -25.4375,0.56425 -27.5,1.25388 -2.7068,0.90507 4.9433,1.25387 27.5,1.25387 22.5566,0 30.2068,-0.3488 27.5,-1.25387 z m -42.8125,57.58641 c -3.2893,-0.78309 -5.3125,-1.96981 -5.3125,-3.11601 0,-3.3115 7.3527,-16.27926 12.1875,-21.49469 2.9545,-3.1872 1.5429,-4.00695 -6.9002,-4.00695 -7.2394,0 -19.294,-2.4369 -28.4123,-5.74369 -2.2346,-0.81037 -2.1796,-0.55496 0.5183,2.40575 2.9345,3.22031 14.2758,8.31849 18.591,8.35708 1.1774,0.01 2.9335,0.52107 3.9026,1.13455 2.2141,1.4016 0.2605,6.85305 -5.2745,14.71851 l -3.6925,5.2472 -7.221,-3.64518 c -9.2975,-4.69336 -21.8678,-16.30066 -23.7152,-21.8985 -0.8145,-2.46808 -1.0882,-7.0929 -0.6433,-10.87285 0.6322,-5.37118 -0.017,-9.21492 -3.5376,-20.95287 -2.3715,-7.90625 -4.9605,-16.04251 -5.7533,-18.08058 l -1.4415,-3.70557 -3.3665,4.20978 c -5.2136,6.51953 -8.9915,14.05863 -8.9915,17.94331 0,5.84483 -2.2311,2.6402 -5.6112,-8.05988 -4.9686,-15.72821 -6.0121,-25.79725 -3.7188,-35.88043 1.2289,-5.40286 1.7955,-12.93232 1.5655,-20.8016 l -0.3605,-12.33364 -8.125,-2.01055 c -18.3299,-4.53578 -26.0689,-15.78763 -24.7331,-35.95955 0.472,-7.1267 -0.066,-10.30155 -3.4435,-20.32129 -6.0369,-17.90867 -13.4112,-35.86383 -22.6408,-55.12583 l -8.3126,-17.34827 6.2806,-14.07545 c 16.71,-37.44916 25.1664,-66.76246 23.7538,-82.34059 -1.408,-15.52709 -14.8901,-29.79075 -39.6544,-41.95317 -3.1755,-1.55955 -4.6328,-2.79397 -3.3465,-2.83464 4.3839,-0.13863 23.2391,5.10196 29.8258,8.28975 17.5315,8.48479 21.8967,9.57851 39.0496,9.78412 l 16.1539,0.19366 7.882,8.64271 c 4.3351,4.75348 7.8939,9.02441 7.9086,9.49092 0.015,0.46653 0.75,1.59153 1.6341,2.5 4.2206,4.33665 14.6452,21.57345 14.1343,23.37072 -1.1071,3.89546 -4.3856,22.10062 -5.6557,31.40607 -1.6991,12.4481 -3.4115,33.08719 -5.7032,68.73689 -1.8603,28.93857 -1.8502,29.47401 0.7008,37.1399 1.4236,4.27791 3.8244,9.62756 5.335,11.88811 10.6432,15.92714 23.3935,41.18765 28.205,55.87905 3.2429,9.9018 3.3179,11.85061 0.2688,6.98105 -1.2915,-2.0625 -5.2013,-6.84375 -8.6886,-10.625 -6.7332,-7.30083 -7.7554,-6.81636 -5.2753,2.5 0.6405,2.40625 1.4529,6.34375 1.8053,8.75 0.3523,2.40625 1.5619,10.5625 2.6879,18.125 1.1705,7.86059 2.0748,21.94361 2.1115,32.87959 0.057,17.07552 0.2803,19.04294 2.0778,18.32266 5.294,-2.12126 24.7739,-4.31732 38.2639,-4.31365 13.6546,0.004 34.5634,2.27123 39.4705,4.2805 1.742,0.71328 1.9057,-0.76713 1.4114,-12.76424 -0.5368,-13.02808 2.2259,-45.3288 4.7282,-55.27986 0.605,-2.40625 1.4316,-6.625 1.8369,-9.375 0.4052,-2.75 1.0427,-5.98438 1.4166,-7.1875 0.3739,-1.20312 0.3167,-2.1875 -0.1271,-2.1875 -1.2617,0 -10.5252,10.11366 -14.0488,15.33791 -1.7482,2.5921 -3.3903,4.50122 -3.649,4.24247 -0.9298,-0.92973 7.4884,-22.92852 12.89,-33.68508 3.0326,-6.03884 8.9321,-16.72634 13.11,-23.75 13.6681,-22.97815 13.7426,-23.45484 10.4816,-67.1453 -4.069,-54.51759 -4.2828,-56.41315 -9.4629,-83.92026 -1.4906,-7.91574 -1.428,-8.51623 1.3694,-13.125 5.7242,-9.43058 16.5967,-23.67996 23.4051,-30.67431 l 6.9059,-7.09458 10.7769,0.6982 c 13.2618,0.8592 20.7148,-0.64657 36.3084,-7.33562 12.9492,-5.55473 23.7292,-8.94315 32.5519,-10.23189 l 5.625,-0.82164 -8.75,4.70298 c -13.6713,7.34808 -20.0801,12.27143 -26.8962,20.66201 -7.6418,9.40705 -10.5767,18.02969 -9.3669,27.5194 1.5602,12.23771 5.6415,27.32706 12.011,44.40667 6.6371,17.79698 6.8917,18.41672 14.1213,34.3739 l 4.4331,9.78487 -5.6992,11.34772 c -8.7978,17.51746 -15.0858,32.29209 -22.9024,53.81299 -6.3923,17.59937 -7.068,20.3671 -6.2563,25.625 1.3374,8.6627 -0.7835,20.00361 -4.8427,25.89456 -4.1081,5.96203 -13.5323,11.40736 -21.6826,12.52831 l -5.8676,0.80702 -0.8909,8.31877 c -0.5607,5.23549 -0.2913,11.79859 0.7269,17.70734 0.8897,5.16371 1.8669,12.04806 2.1714,15.29855 0.6491,6.92871 -2.3627,22.9433 -6.2014,32.97441 l -2.7015,7.05959 -2.0068,-6.1559 c -2.2628,-6.94118 -6.2579,-13.87966 -9.8783,-17.15601 -2.3804,-2.15424 -2.5098,-1.95708 -5.799,8.83225 -1.8504,6.06962 -4.384,14.31431 -5.6302,18.32152 -1.5633,5.02711 -2.0525,9.35226 -1.5778,13.95135 0.8613,8.34568 -0.02,11.91359 -4.1586,16.83184 -3.9722,4.72069 -17.2915,14.37344 -23.2934,16.88119 l -4.3737,1.82746 -3.9772,-6.39791 c -2.1874,-3.51885 -4.2826,-7.92518 -4.656,-9.79183 -0.6501,-3.25066 -0.3174,-3.50446 7.8831,-6.01321 8.4596,-2.58802 17.9369,-7.96734 17.9369,-10.18101 0,-0.62764 -2.1094,-0.25923 -4.6875,0.81868 -8.3978,3.51113 -17.7641,5.41259 -26.6616,5.41259 l -8.7271,0 6.0823,9.0625 c 3.3452,4.98437 6.7069,10.88714 7.4703,13.11726 1.2461,3.64004 1.1074,4.2062 -1.3567,5.53536 -3.5488,1.91433 -27.4196,2.5423 -34.3072,0.90253 z"
       inkscape:connector-curvature="0" />
  </g>
</svg>
