<?xml version="1.0" encoding="UTF-8" standalone="no"?>
<!-- Created with Inkscape (http://www.inkscape.org/) -->

<svg
   xmlns:dc="http://purl.org/dc/elements/1.1/"
   xmlns:cc="http://creativecommons.org/ns#"
   xmlns:rdf="http://www.w3.org/1999/02/22-rdf-syntax-ns#"
   xmlns:svg="http://www.w3.org/2000/svg"
   xmlns="http://www.w3.org/2000/svg"
   xmlns:sodipodi="http://sodipodi.sourceforge.net/DTD/sodipodi-0.dtd"
   xmlns:inkscape="http://www.inkscape.org/namespaces/inkscape"
   width="179.14062mm"
   height="264.86554mm"
   viewBox="0 0 634.75025 938.49994"
   id="svg6972"
   version="1.1"
   inkscape:version="0.91 r13725"
   sodipodi:docname="house_g.svg">
  <defs
     id="defs6974" />
  <sodipodi:namedview
     id="base"
     pagecolor="#ffffff"
     bordercolor="#000000"
     borderopacity="0"
     inkscape:pageopacity="0.0"
     inkscape:pageshadow="2"
     inkscape:zoom="0.85722656"
     inkscape:cx="226.41013"
     inkscape:cy="476.26249"
     inkscape:document-units="px"
     inkscape:current-layer="layer1"
     showgrid="false"
     inkscape:window-width="1301"
     inkscape:window-height="744"
     inkscape:window-x="65"
     inkscape:window-y="24"
     inkscape:window-maximized="1"
     fit-margin-top="0"
     fit-margin-left="0"
     fit-margin-right="0"
     fit-margin-bottom="0" />
  <metadata
     id="metadata6977">
    <rdf:RDF>
      <cc:Work
         rdf:about="">
        <dc:format>image/svg+xml</dc:format>
        <dc:type
           rdf:resource="http://purl.org/dc/dcmitype/StillImage" />
        <dc:title></dc:title>
      </cc:Work>
    </rdf:RDF>
  </metadata>
  <g
     inkscape:label="Layer 1"
     inkscape:groupmode="layer"
     id="layer1"
     transform="translate(11.738315,-104.82558)">
    <path
       style="opacity:0.81999966;fill:#9b0808;fill-opacity:1;fill-rule:evenodd;stroke:#9b080e;stroke-width:1px;stroke-linecap:butt;stroke-linejoin:miter;stroke-opacity:1"
       d="m -11.238012,105.32558 633.749992,0 0,937.50002 -633.124992,0 z"
       id="path6646-6"
       inkscape:connector-curvature="0" />
    <path
       inkscape:connector-curvature="0"
       id="path4470-2"
       style="opacity:0.81999966;fill:#f39f19;fill-opacity:1"
       d="m 152.86538,554.21618 c -1.7543,-0.8877 -3.5905,-3.3302 -4.2609,-5.6678 -3.1568,-11.0073 13.9648,-16.1835 17.7371,-5.3622 1.4145,4.0575 0.041,7.9933 -3.7068,10.618 -3.4293,2.402 -5.6515,2.4957 -9.7694,0.412 z m 42.8961,151.2843 c -1.3139,-26.4863 3.0479,-54.4346 11.6069,-74.371 8.9846,-20.9277 32.5939,-60.9214 42.0631,-71.254 3.1848,-3.4753 2.1503,-3.5005 -7.9232,-0.1936 -8.0111,2.6299 -19.3786,8.1276 -24.6226,11.9083 -2.7587,1.9888 -2.8145,1.9469 -2.9153,-2.1873 -0.2469,-10.1232 -4.9199,-28.751 -9.4603,-37.7111 -4.7473,-9.3683 -7.7843,-13.0203 -14.3105,-17.2081 -12.6727,-8.132 -46.1808,-7.7697 -79.1334,0.8556 -9.8851,2.5875 -27.262193,1.7665 -37.606293,-1.7765 -4.1186,-1.4107 -7.7131,-2.3402 -7.9877,-2.0655 -0.2747,0.2747 1.8686,3.6359 4.7629,7.4693 5.3889,7.1376 9.788,9.9123 17.715,11.1737 l 4.501897,0.7163 -0.5993,6.2373 c -1.2658,13.1726 3.8356,22.0212 18.723396,32.4765 11.7912,8.2806 18.9403,10.5669 32.8721,10.5126 11.7537,-0.046 18.5199,-2.0707 26.9299,-8.0592 5.6793,-4.044 4.4191,-4.8175 -3.4924,-2.1436 -16.4793,5.5697 -33.3068,-0.1996 -42.4663,-14.5595 -3.5654,-5.5897 -7.8462,-17.3137 -7.8462,-21.4885 0,-3.0117 -0.9328,-2.7766 19.0625,-4.8057 4.9659,-0.5039 5.8869,0.4849 2.8214,3.029 -3.1919,2.6491 -4.6182,10.4703 -3.0471,16.7094 3.3376,13.2549 19.6999,19.8482 32.956,13.2799 6.6542,-3.2971 9.5832,-7.5509 10.5462,-15.3163 l 0.786,-6.3372 3.3758,4.8983 c 1.8568,2.6941 4.9343,8.2734 6.8389,12.3984 3.2679,7.0774 3.4566,8.4508 3.3494,24.375 -0.094,13.9631 -0.5581,17.9776 -2.6902,23.2651 -6.0499,15.0042 -8.1153,38.1814 -5.2015,58.3704 1.9171,13.2833 5.9417,36.5091 8.0557,46.4895 1.0194,4.8125 1.8632,9.1718 1.8752,9.6875 0.013,0.5156 0.2912,0.9375 0.6207,0.9375 0.3294,0 0.2571,-6.8907 -0.1607,-15.3125 z m 238.8798,-152.7557 c -3.7496,-3.7496 -3.9141,-8.0192 -0.4774,-12.3882 3.2462,-4.127 9.9372,-4.5157 13.6593,-0.7936 3.722,3.7221 3.3333,10.413 -0.7936,13.6592 -4.3691,3.4368 -8.6386,3.2722 -12.3883,-0.4774 z m -27.0462,145.5682 c 5.8864,-32.688 6.8536,-40.5506 6.8424,-55.625 -0.011,-15.818 -1.8064,-26.821 -6.0968,-37.3798 -2.5976,-6.3928 -3.0134,-9.4402 -2.9877,-21.8982 0.037,-17.9471 0.852,-21.5056 7.6571,-33.4308 4.4405,-7.7814 5.5082,-8.9803 5.8202,-6.5354 0.7357,5.764 3.0735,11.7691 5.7093,14.6658 7.4023,8.1349 24.4949,8.6341 33.1322,0.9677 6.8767,-6.1038 8.5158,-18.5496 3.43,-26.044 l -2.9714,-4.3786 5.7839,0.5007 c 3.1811,0.2755 8.7718,0.8059 12.4238,1.1788 l 6.6399,0.678 -0.7729,3.9629 c -3.014,15.4538 -12.305,28.8202 -23.7316,34.1412 -7.7668,3.6168 -18.4631,3.8364 -27.9116,0.573 l -6.6363,-2.2921 3.3458,3.4922 c 7.9116,8.258 26.8614,11.9811 41.6609,8.1852 13.4435,-3.4481 31.6836,-17.2505 36.2065,-27.3976 0.9779,-2.194 1.7822,-7.7416 1.7873,-12.3281 0.01,-8.908 0.6763,-9.7229 7.9886,-9.7689 3.3214,-0.021 9.5628,-5.1213 14.3445,-11.7223 4.456,-6.1513 4.4829,-7.3458 0.1265,-5.6252 -14.1791,5.6003 -29.7314,6.149 -48.0454,1.6952 -27.5052,-6.6892 -61.3931,-6.949 -71.7468,-0.5501 -11.9627,7.3934 -20.7541,25.3717 -24.3148,49.7235 l -1.481,10.129 -4.1281,-3.1487 c -4.4481,-3.3927 -22.2972,-10.9783 -29.2115,-12.4144 l -4.2401,-0.8807 2.7696,2.9509 c 3.5701,3.8035 15.6313,21.5626 22.8033,33.5758 19.233,32.2152 26.5622,51.231 29.8282,77.3901 1.674,13.4075 2.043,41.0852 0.6349,47.6099 -0.5912,2.7393 -0.5056,3.9076 0.2289,3.125 0.6452,-0.6875 2.9457,-11.0938 5.1122,-23.125 z m -97.5236,127.9843 c 2.6871,-5.2581 11.4046,-13.8216 21.2688,-20.8933 l 5.5321,-3.966 -5.2559,-0.7232 c -6.0629,-0.8342 -7.4976,-2.5114 -7.5242,-8.7958 -0.037,-8.8051 14.8362,-22.2341 24.7304,-22.3286 4.1041,-0.039 9.8251,3.2109 10.5532,5.9953 0.7682,2.9377 -1.8659,9.388 -6.1018,14.9415 -1.7619,2.31 -2.9725,4.4309 -2.6903,4.713 0.8461,0.8462 26.2268,-16.4633 31.622,-21.5661 13.2786,-12.5588 22.0044,-25.0689 23.5743,-33.7986 0.8319,-4.626 0.7102,-4.6705 -6.0819,-2.2236 -8.4023,3.027 -17.6606,2.3771 -29.4483,-2.0673 -8.9698,-3.382 -12.2384,-3.9821 -21.8017,-4.003 -10.9536,-0.024 -11.6288,0.1493 -25.625,6.5755 -9.6598,4.4351 -16.6505,6.8226 -21.312,7.2788 -7.3102,0.7154 -7.2332,0.7393 -31.188,-9.6933 -8.0669,-3.5133 -10.8576,-4.0947 -20,-4.1673 -10.3534,-0.082 -14.1731,0.7845 -26.5224,6.0181 -5.8792,2.4916 -18.4415,2.5405 -24.2954,0.095 -5.9761,-2.4969 -6.6822,-2.3859 -6.6822,1.0504 0,10.1093 19.0814,33.3613 37.1696,45.2938 6.0255,3.9749 12.4795,8.2517 14.3422,9.504 4.2828,2.8792 5.681,2.9179 3.2304,0.089 -3.5319,-4.0765 -8.4922,-13.643 -8.4922,-16.3782 0,-3.1245 6.5008,-7.6723 10.9776,-7.6796 4.5489,-0.01 10.8324,3.1285 16.4652,8.2174 6.1025,5.5132 8.8072,10.2157 8.8072,15.3128 0,4.5813 -2.2656,6.5039 -8.6776,7.3639 l -5.0256,0.6741 10.4685,7.8963 c 5.7578,4.3429 11.6692,9.5823 13.1365,11.643 2.5908,3.6384 9.3192,19.3725 12.6207,29.5128 l 1.6278,5 3.9854,-11.875 c 2.192,-6.5312 5.1676,-14.1883 6.6126,-17.0157 z" />
    <path
       inkscape:connector-curvature="0"
       id="path4444-9"
       style="opacity:0.81999966;fill:#f39f19;fill-opacity:1"
       d="m 377.08058,337.83248 c -0.3652,-0.9518 -0.4882,-8.6862 -0.2732,-17.1875 0.3897,-15.4138 0.3995,-15.4583 3.5158,-15.898 1.7187,-0.2425 6.0496,0.2134 9.6243,1.0131 21.9329,4.9065 17.1476,33.7821 -5.6011,33.7982 -4.4735,0 -6.8158,-0.5532 -7.2658,-1.7258 z m 15.8685,2.7677 c 16.4487,-5.6625 23.508,-21.3729 14.043,-31.2523 -1.8837,-1.9661 -5.4204,-4.1106 -7.8594,-4.7655 -5.5032,-1.4777 -35.0595,-2.3089 -35.0595,-0.986 0,0.5316 1.4062,0.9666 3.125,0.9666 l 3.125,0 0,18.0419 0,18.042 -3.4375,0.5208 c -1.8907,0.2864 2.2441,0.605 9.1884,0.708 6.9443,0.103 14.5381,-0.471 16.875,-1.2755 z m -87.9384,0.5675 -3.4375,-0.5208 0,-18.042 0,-18.0419 3.3333,0 c 1.8333,0 3.0097,-0.3237 2.6141,-0.7192 -1.0342,-1.0343 -18.4496,-1.3224 -18.4484,-0.3053 5e-4,0.4678 1.2666,1.0303 2.8135,1.25 2.7632,0.3925 2.8125,0.7051 2.8125,17.8431 l 0,17.4437 -3.125,0.8692 c -1.8124,0.5041 1.0755,0.8429 6.875,0.8066 5.5,-0.034 8.4531,-0.297 6.5625,-0.5834 z m 131.5625,-1.2566 c -12.6045,-4.7363 -17.3456,-21.1356 -8.8569,-30.636 4.7474,-5.3133 13.8509,-6.2296 19.9798,-2.011 11.5761,7.9678 11.9337,26.284 0.6181,31.6537 -4.0414,1.9177 -8.3179,2.2795 -11.741,0.9933 z m 10.4009,2.0617 c 11.3868,-3.1619 19.0645,-15.6513 15.8234,-25.7399 -2.0071,-6.2476 -4.486,-9.0118 -10.5993,-11.819 -9.4784,-4.3525 -23.9794,-1.778 -29.9496,5.3171 -14.494,17.2252 1.8856,38.5841 24.7255,32.2418 z m -174.4816,-0.4125 c 0.411,-0.411 -0.7527,-0.7473 -2.586,-0.7473 -3.291,0 -3.3333,-0.1103 -3.3333,-8.6763 0,-4.7719 0.4218,-8.9237 0.9375,-9.2261 0.5156,-0.3025 2.8377,-0.2612 5.1602,0.092 2.9188,0.4434 4.4505,1.459 4.9602,3.2886 0.542,1.9456 0.9543,1.1564 1.5557,-2.9779 0.9423,-6.4771 0.5141,-7.5863 -1.7389,-4.5051 -1.1645,1.5926 -2.9456,2.0776 -6.5496,1.7838 -4.7874,-0.3904 -4.9442,-0.5475 -4.7702,-4.7787 0.099,-2.4062 0.2396,-5.9218 0.3125,-7.8125 0.1489,-3.8609 1.6693,-4.2117 9.1951,-2.1217 3.5329,0.9811 4.6875,1.9544 4.6875,3.9513 0,4.5394 1.0683,1.8391 1.8487,-4.6729 0.6229,-5.1975 0.4809,-5.8917 -0.8642,-4.2261 -1.2642,1.5654 -4.2504,2.0158 -13.9168,2.0989 -6.769,0.058 -12.6284,0.427 -13.0208,0.8195 -0.3925,0.3924 0.5051,0.7135 1.9947,0.7135 2.8138,0 3.125,1.8051 3.125,18.125 0,16.9933 -0.2257,18.125 -3.6154,18.125 -1.7593,0 -2.9384,0.4219 -2.6202,0.9375 0.6735,1.0914 18.1294,0.9188 19.2383,-0.1902 z m -35.9193,0.5896 c 0,-0.6397 -1.2657,-1.3428 -2.8125,-1.5625 -2.5346,-0.3599 -2.8498,-1.1897 -3.1895,-8.3975 -0.2073,-4.3989 0.087,-8.4623 0.6548,-9.0298 0.5674,-0.5674 3.1277,-0.6916 5.6894,-0.2759 3.4462,0.5593 4.6578,1.3637 4.6578,3.0923 0,1.2851 0.5625,2.3365 1.25,2.3365 0.6875,0 1.2329,-2.6719 1.2119,-5.9375 -0.03,-4.6418 -0.316,-5.4601 -1.3121,-3.75 -0.9114,1.5648 -2.8577,2.1875 -6.837,2.1875 l -5.5628,0 0,-7.5393 c 0,-8.6168 1.0494,-9.5977 8.4067,-7.8578 2.9491,0.6975 5.2246,2.1858 6.1356,4.0132 1.3153,2.6382 1.4887,2.3189 1.8904,-3.4816 0.2432,-3.5123 0.02,-6.3857 -0.4952,-6.3853 -0.5157,4e-4 -0.9375,0.8864 -0.9375,1.9689 0,1.6859 -2.0165,1.9398 -14.0625,1.7706 -17.3051,-0.2432 -27.2791,0.114 -24.375,0.8729 2.9666,0.7753 2.8702,1.1512 -2.5623,9.9831 l -4.7484,7.7196 -4.9384,-7.7196 c -6.3491,-9.9248 -6.2473,-9.5947 -2.9593,-9.5947 1.5469,0 2.4651,-0.3475 2.0405,-0.7721 -1.0061,-1.0061 -15.7832,-1.0061 -16.7893,0 -0.4246,0.4246 0.3061,0.7813 1.6238,0.7925 1.5364,0.013 4.7501,3.3153 8.9584,9.2049 6.431,9.0006 6.5625,9.3614 6.5625,18.0176 0,8.1665 -0.2123,8.8741 -2.8125,9.3749 -1.5469,0.2979 1.4062,0.5531 6.5625,0.5669 5.1562,0.014 8.25,-0.2558 6.875,-0.5993 -3.5792,-0.8943 -4.3343,-2.6227 -4.3559,-9.971 -0.017,-5.8152 0.6874,-7.5508 6.5962,-16.25 6.3293,-9.3184 6.8427,-9.756 11.875,-10.1238 l 5.2597,-0.3844 0,18.1969 0,18.1969 -3.4375,0.2252 c -1.8907,0.1239 0.7812,0.585 5.9375,1.0248 5.1562,0.4398 9.5156,0.9009 9.6875,1.0248 0.1718,0.1238 0.3125,-0.2982 0.3125,-0.9379 z m -114.0625,0.3531 6.5625,-0.7883 0,-7.0845 c 0,-6.5774 0.2461,-7.1785 3.4375,-8.3963 2.9377,-1.1209 2.1144,-1.3291 -5.6621,-1.4318 -5.4748,-0.072 -8.8064,0.3541 -8.3637,1.0703 0.4047,0.6548 1.5757,1.1906 2.6024,1.1906 1.4663,0 1.7855,1.407 1.4887,6.5625 -0.3719,6.4589 -0.4447,6.5689 -4.6133,6.9671 -5.8972,0.5633 -9.3193,-0.5008 -13.8381,-4.3032 -10.496696,-8.8324 -10.458996,-24.4695 0.072,-29.9153 8.1329,-4.2057 22.3764,-0.9619 22.3764,5.096 0,1.7011 0.5625,3.0929 1.25,3.0929 0.7186,0 1.2127,-3.5873 1.1622,-8.4375 -0.056,-5.4258 -0.4361,-7.5452 -1.0636,-5.9375 -0.8621,2.209 -1.922,2.4514 -9.1058,2.083 -10.1176,-0.519 -17.6402,1.6558 -22.905996,6.6221 -11.383897,10.7364 -7.1622,27.7927 8.037996,32.4746 6.6412,2.0456 9.519,2.2216 18.5627,1.1353 z m 359.0625,-29.0265 0,-8.9135 3.8068,0 c 5.4334,0 10.461,5.2397 9.3556,9.7504 -1.15,4.6926 -3.2176,6.4629 -8.5615,7.3301 l -4.6009,0.7466 0,-8.9136 z m 27.5,30.3288 c 0,-0.4166 -1.5921,-2.8073 -3.538,-5.3124 -1.9459,-2.5052 -5.3899,-7.2879 -7.6534,-10.6281 l -4.1154,-6.0732 3.2639,-3.0265 c 5.8371,-5.4125 5.932,-12.0106 0.204,-14.1884 -3.9631,-1.5067 -26.8733,-2.3362 -27.6974,-1.0028 -0.3362,0.544 0.8282,0.9891 2.5875,0.9891 l 3.1988,0 0,18.0419 0,18.042 -3.4375,0.5208 c -1.8907,0.2864 1.0625,0.5489 6.5625,0.5834 5.7623,0.036 8.6757,-0.3037 6.875,-0.8019 -2.8475,-0.7878 -3.1581,-1.5538 -3.4972,-8.6254 l -0.3721,-7.7608 3.7054,0 c 2.0381,0 3.893,0.543 4.1222,1.2067 0.2292,0.6636 4.2914,5.1636 9.0273,10 7.7998,7.9652 10.7644,10.1783 10.7644,8.0356 z m -155.1237,-25.2201 c 0.1164,-12.1044 0.2874,-12.9186 2.9362,-13.9833 3.3721,-1.3554 3.3108,-1.376 -5.001,-1.6766 -3.6098,-0.1305 -6.563,0.1845 -6.5625,0.7002 5e-4,0.5156 1.0915,0.9375 2.4244,0.9375 3.0068,0 4.1623,6.3797 3.5919,19.8318 l -0.3903,9.2068 -8.7317,-10.4568 c -4.8024,-5.7513 -9.8649,-11.8189 -11.25,-13.4836 -5.7381,-6.8965 -6.0617,-7.0623 -12.5497,-6.4287 -4.1981,0.4099 -5.1018,0.7517 -2.7811,1.0519 3.414,0.4416 3.4374,0.5101 3.4286,10.0491 0,5.2825 -0.3648,13.3725 -0.7998,17.9779 -0.6827,7.2283 -1.1517,8.4357 -3.4286,8.8283 -1.4508,0.25 0.8789,0.7007 5.177,1.0015 4.2982,0.3007 7.8138,0.164 7.8125,-0.3038 -10e-4,-0.4678 -1.2679,-1.0303 -2.8147,-1.25 -2.7257,-0.3871 -2.8223,-0.8819 -3.1271,-16.0244 l -0.3146,-15.625 4.4837,5 c 7.4249,8.2798 22.268,25.7197 24.2705,28.5166 1.7784,2.4839 1.9169,2.2676 2.6888,-4.1989 0.4477,-3.7498 0.8695,-12.6015 0.9375,-19.6705 z m -202.2349,-5.2722 c 0.1322,-8.684 0.1592,-8.75 3.5773,-8.75 6.7619,0 11.4787,6.0236 9.2548,11.819 -0.9371,2.4419 -6.8709,5.681 -10.4073,5.681 -2.3464,0 -2.547,-0.7239 -2.4248,-8.75 z m 27.3586,30.4923 c 0,-0.4166 -1.5921,-2.8073 -3.538,-5.3124 -1.9459,-2.5052 -5.3192,-7.1852 -7.4964,-10.3999 l -3.9584,-5.845 3.8267,-3.8267 c 5.0273,-5.0272 4.8155,-11.1196 -0.4741,-13.6426 -3.9599,-1.8887 -26.8217,-2.9432 -27.8469,-1.2844 -0.3633,0.5878 0.779,1.0687 2.5383,1.0687 l 3.1988,0 0,18.125 0,18.125 -3.1988,0 c -1.7593,0 -2.9397,0.4219 -2.623,0.9375 0.3167,0.5156 4.7092,0.7053 9.7613,0.4215 5.052,-0.2839 8.0605,-0.7708 6.6855,-1.0822 -3.5612,-0.8063 -4.3342,-2.5487 -4.3559,-9.8185 -0.016,-5.4302 0.3756,-6.52 2.5482,-7.0881 1.9974,-0.5224 4.81,1.6648 12.6722,9.8542 9.1142,9.4935 12.2605,12.0002 12.2605,9.7679 z" />
  </g>
</svg>
