<?xml version="1.0" encoding="UTF-8"?>
<svg width="413.6" height="271.89" version="1.1" viewBox="0 0 413.60022 271.88739" xmlns="http://www.w3.org/2000/svg" xmlns:cc="http://creativecommons.org/ns#" xmlns:dc="http://purl.org/dc/elements/1.1/" xmlns:rdf="http://www.w3.org/1999/02/22-rdf-syntax-ns#">
<metadata>
<rdf:RDF>
<cc:Work rdf:about="">
<dc:format>image/svg+xml</dc:format>
<dc:type rdf:resource="http://purl.org/dc/dcmitype/StillImage"/>
<dc:title/>
</cc:Work>
</rdf:RDF>
</metadata>
<style>
	#mark_hp{ animation: 2s mark-anim  infinite; transform-origin: 50% 50%; }
	@keyframes mark-anim{ 
	0%{ transform: rotate(0deg);}
	50%{ transform: rotate(360deg);}
	100%{ transform: rotate(360deg);}
	}
	</style>
<path d="m96.485 118.74c-6.6927 0.0482-13.106 0.6165-17.18 1.7344-28.147 7.7232-49.021 29.149-54.924 56.379-1.1923 5.5-2.3496 10.619-2.5723 11.373-0.22265 0.75449-4.5245 1.7165-9.5606 2.1387-6.5967 0.55304-9.5993 1.3721-10.738 2.9297-2.5094 3.4318-1.8504 7.8038 1.668 11.064 2.6261 2.4338 4.827 3.0805 11.475 3.377l8.2226 0.36719 1.9844 8.125c1.0915 4.4688 3.0607 10.375 4.375 13.125 4.8813 10.213 18.079 24.547 30.07 32.658 4.2193 2.854 19.606 7.9762 28.125 9.3633 7.7482 1.2616 25.445 0.0793 32.383-2.1641 15.266-4.9364 23.715-10.12 34.352-21.068 11.01-11.333 16.843-23.346 20.742-42.729 1.3264-6.5936 3.2918-12.962 4.3691-14.152 1.0774-1.1904 4.8999-3.7954 8.4941-5.7871 6.147-3.4062 7.3888-3.6211 20.91-3.6211 13.617 0 14.693 0.19066 20.393 3.6035 7.7853 4.6617 9.1701 7.0616 10.188 17.646 1.0552 10.978 2.536 16.73 6.3984 24.846 8.8898 18.68 25.541 33.359 45.561 40.168 7.6883 2.6149 11.477 3.1113 23.729 3.1113 12.282 0 16.234-0.52044 25.08-3.3047 13.17-4.1453 18.152-7.3341 29.93-19.152 10.316-10.351 19.542-26.308 20.85-36.059l0.70118-5.2344h6.127c12.02 0 18.461-5.5769 15.061-13.039-1.4212-3.1192-5.8705-4.4609-14.797-4.4609-4.8852 0-5.4688-0.30856-5.4688-2.8965 0-5.1397-4.5583-20.067-7.8945-25.854-1.7838-3.0938-3.9654-7.0312-4.8477-8.75-0.88221-1.7188-2.3001-3.8547-3.1523-4.748-0.85222-0.89331-1.9848-2.3096-2.5156-3.1465-1.8312-2.8872-15.844-14.605-17.465-14.605-0.89402 0-1.625-0.51816-1.625-1.1524 0-0.63418-2.1094-1.8317-4.6875-2.6621-2.5781-0.83041-5.25-1.9324-5.9375-2.4473-6.3643-4.7666-34.931-6.6294-48.125-3.1387-12.365 3.2714-24.499 10.397-34.48 20.25-5.0981 5.0323-9.2695 9.672-9.2695 10.311 0 0.63859-0.7829 1.945-1.7402 2.9024-2.5099 2.5099-7.8029 13.374-8.8301 18.125-0.48309 2.2344-1.1533 4.0625-1.4883 4.0625-0.33499 0-2.4791-1.4259-4.7656-3.1699-4.209-3.2104-5.1136-3.5338-16.301-5.8262-13.125-2.6895-35.312 1.1823-42.129 7.3516-2.3798 2.1537-2.5384 2.1455-4.2344-0.17383-0.96915-1.3254-1.7617-3.1277-1.7617-4.0059 0-0.87817-2.3066-6.1084-5.125-11.623-9.0014-17.613-25.953-31.288-46.75-37.715-5.1485-1.591-14.215-2.3881-22.82-2.3262zm1.5703 15.684c6.1875-0.0385 13.781 0.67454 16.875 1.584 16.874 4.9603 31.985 17.857 39.516 33.727l4.3633 9.1953-0.42774 17.088c-0.35102 13.998-0.92377 18.313-3.1641 23.871-1.5041 3.7317-3.1671 7.1067-3.6973 7.5s-3.0668 3.3338-5.6367 6.5332c-5.1942 6.4666-17.766 15.943-25.359 19.115-5.5494 2.3187-29.592 3.706-36.844 2.127-6.2602-1.3631-17.512-6.8896-21.758-10.688-1.9976-1.7866-4.0161-3.248-4.4863-3.248-1.5337 0-12.306-14.688-15.76-21.488-2.9642-5.837-3.4239-8.3823-3.8262-21.15-0.54527-17.307 1.6234-26.043 9.0332-36.365 14.099-19.642 28.862-27.662 51.172-27.801zm216.88 0.17383c21.523-0.0802 32.326 4.8126 48.898 22.143 7.48 7.8221 14.317 30.353 13.053 43.01-2.3636 23.654-14.729 41.059-37.188 52.34-5.4307 2.7277-8.3645 3.2631-19.637 3.584-19.351 0.55077-25.325-0.8977-37.908-9.1934-10.221-6.7384-16.106-13.702-22.236-26.311-11.031-22.688-5.9892-50.518 12.369-68.275 8.682-8.3979 11.898-10.495 22.031-14.377 6.0511-2.318 10.018-2.8804 20.617-2.9199z"/>
<path id="mark_hp" d="m187.15 104.28c-2.252-2.4474-6.3446-6.8587-9.0946-9.803-2.75-2.9443-8.0938-8.9067-11.875-13.25-3.7812-4.3431-7.7188-8.8142-8.75-9.9357s-3.9224-4.5474-6.4249-7.613c-2.5024-3.0656-6.0174-7.2613-7.811-9.3238-1.7936-2.0625-3.2618-4.4841-3.2626-5.3813-1e-3 -1.7555 10.556-6.861 17.169-8.3028l4.0452-0.88194-2.1702-3.8177c-1.1936-2.0998-2.8076-4.9155-3.5867-6.2573-0.77909-1.3418-2.4413-4.9246-3.6938-7.9618-1.2525-3.0372-2.7244-5.5222-3.271-5.5222-0.54655 0-0.99373-0.76789-0.99373-1.7064 0-0.93853-1.0901-3.0923-2.4225-4.7861-1.3324-1.6938-2.7996-4.5822-3.2605-6.4186-0.73169-2.9153-0.464-3.3357 2.11-3.3143 3.514 0.0294 22.381 3.276 22.715 3.9089 0.12826 0.24284 0.9614 1.7397 1.8514 3.3263 0.89002 1.5866 3.3178 6.3679 5.3952 10.625s4.5322 9.1465 5.4554 10.865c0.92312 1.7188 1.7306 3.5465 1.7943 4.0616 0.0638 0.51512 2.0829 5.1949 4.487 10.4 6.7792 14.677 6.7794 14.661-0.25014 16.679-3.3 0.94765-6.6641 2.2403-7.4758 2.8725-1.6621 1.2945 1.288 10.073 9.6391 28.684 7.9852 17.795 7.8867 21.77-0.31855 12.853z"/>
</svg>
