<?xml version="1.0" encoding="UTF-8" standalone="no"?>
<!-- Created with Inkscape (http://www.inkscape.org/) -->

<svg
   xmlns:dc="http://purl.org/dc/elements/1.1/"
   xmlns:cc="http://creativecommons.org/ns#"
   xmlns:rdf="http://www.w3.org/1999/02/22-rdf-syntax-ns#"
   xmlns:svg="http://www.w3.org/2000/svg"
   xmlns="http://www.w3.org/2000/svg"
   xmlns:sodipodi="http://sodipodi.sourceforge.net/DTD/sodipodi-0.dtd"
   xmlns:inkscape="http://www.inkscape.org/namespaces/inkscape"
   width="20mm"
   height="35.000355mm"
   viewBox="0 0 20 35.000355"
   version="1.1"
   id="svg7209"
   inkscape:version="0.91 r13725"
   sodipodi:docname="wand1.svg">
  <defs
     id="defs7203" />
  <sodipodi:namedview
     id="base"
     pagecolor="#ffffff"
     bordercolor="#666666"
     borderopacity="1.0"
     inkscape:pageopacity="0.0"
     inkscape:pageshadow="2"
     inkscape:zoom="1.0776562"
     inkscape:cx="254.64096"
     inkscape:cy="-3.3216386"
     inkscape:document-units="mm"
     inkscape:current-layer="layer1"
     showgrid="false"
     inkscape:window-width="1301"
     inkscape:window-height="744"
     inkscape:window-x="65"
     inkscape:window-y="24"
     inkscape:window-maximized="1"
     inkscape:showpageshadow="false"
     fit-margin-top="0"
     fit-margin-left="0"
     fit-margin-right="0"
     fit-margin-bottom="0" />
  <metadata
     id="metadata7206">
    <rdf:RDF>
      <cc:Work
         rdf:about="">
        <dc:format>image/svg+xml</dc:format>
        <dc:type
           rdf:resource="http://purl.org/dc/dcmitype/StillImage" />
        <dc:title></dc:title>
      </cc:Work>
    </rdf:RDF>
  </metadata>
  <g
     inkscape:label="Layer 1"
     inkscape:groupmode="layer"
     id="layer1"
     transform="translate(35.054102,-185.38478)">
    <path
       inkscape:connector-curvature="0"
       id="path7237"
       d="m -18.47486,220.33329 c -0.08392,-0.0307 -0.214036,-0.07 -0.28914,-0.0874 -0.07511,-0.0172 -0.234223,-0.0807 -0.3536,-0.14079 -0.183027,-0.0922 -0.221721,-0.12247 -0.246854,-0.19319 -0.05179,-0.14576 -0.150803,-0.23018 -0.31858,-0.27164 -0.132963,-0.0328 -0.15599,-0.0476 -0.202517,-0.13001 -0.06766,-0.11978 -0.06619,-0.16112 0.007,-0.19745 0.112722,-0.056 0.145736,-0.085 0.157634,-0.13871 0.0066,-0.0296 0.03029,-0.0655 0.05273,-0.0796 0.03221,-0.0205 0.02874,-0.0356 -0.01656,-0.072 -0.04553,-0.0365 -0.04993,-0.0561 -0.02136,-0.0951 0.01981,-0.027 0.0458,-0.0853 0.0578,-0.12954 0.04312,-0.15907 0.141922,-0.26826 0.242725,-0.26826 0.05255,0 0.05532,-0.006 0.06058,-0.152 0.0022,-0.059 0.01577,-0.12501 0.03029,-0.14663 0.01914,-0.0286 0.0077,-0.0491 -0.04156,-0.0751 -0.06358,-0.0335 -0.173628,-0.13059 -0.173628,-0.15332 0,-0.006 0.03826,-0.006 0.08504,0.002 0.103158,0.0136 0.107331,0.002 0.01577,-0.0469 -0.0381,-0.02 -0.0608,-0.0437 -0.05046,-0.0525 0.01035,-0.009 -0.01081,-0.0269 -0.04692,-0.0403 -0.08132,-0.0299 -0.207534,-0.2135 -0.207534,-0.30182 0,-0.0361 0.02384,-0.0955 0.053,-0.13218 0.05402,-0.0681 0.05437,-0.0658 -0.04301,-0.27579 -0.0137,-0.0295 -0.0011,-0.0503 0.0408,-0.0664 0.05678,-0.0218 0.0571,-0.0262 0.0049,-0.0682 -0.03067,-0.0246 -0.05577,-0.0571 -0.05577,-0.0722 0,-0.0151 -0.0189,-0.0254 -0.04197,-0.0229 -0.02666,0.003 -0.05004,-0.0283 -0.06409,-0.085 -0.01215,-0.0492 -0.06271,-0.15379 -0.112331,-0.23248 -0.04962,-0.0786 -0.152654,-0.24366 -0.228963,-0.36662 -0.226275,-0.36456 -0.279029,-0.4223 -0.467167,-0.51122 -0.09464,-0.0448 -0.186552,-0.10735 -0.208186,-0.1418 -0.0213,-0.0339 -0.08441,-0.0787 -0.140222,-0.0997 -0.06858,-0.0256 -0.09812,-0.0503 -0.0911,-0.0762 0.01431,-0.0529 0.240972,-0.0642 0.341977,-0.0172 0.06845,0.0319 0.0694,0.0315 0.04969,-0.0121 -0.01188,-0.0264 -3.3e-5,-0.059 0.02893,-0.0795 0.05562,-0.0394 0.06671,-0.19885 0.015,-0.21565 -0.01873,-0.006 -0.03402,-0.0425 -0.03402,-0.0808 0,-0.0384 -0.05185,-0.15259 -0.115206,-0.25379 -0.06337,-0.1012 -0.1311,-0.21618 -0.150526,-0.25553 -0.01942,-0.0394 -0.07473,-0.14042 -0.122907,-0.2246 -0.04818,-0.0842 -0.08759,-0.15944 -0.08759,-0.16721 0,-0.007 -0.06919,-0.10505 -0.15375,-0.21618 -0.08457,-0.11111 -0.182593,-0.26926 -0.217842,-0.35141 -0.108043,-0.25182 -0.205685,-0.45162 -0.239066,-0.48918 -0.01749,-0.0197 -0.04185,-0.0706 -0.05411,-0.11299 -0.01516,-0.0525 -0.03635,-0.0744 -0.06606,-0.0684 -0.04842,0.01 -0.18761,-0.0349 -0.18761,-0.0603 0,-0.009 -0.03945,-0.0465 -0.08765,-0.084 -0.07277,-0.0563 -0.08588,-0.0845 -0.07727,-0.16621 0.0056,-0.0541 -0.0011,-0.10792 -0.01506,-0.11957 -0.014,-0.0117 -0.01069,-0.0557 0.0074,-0.0981 0.03179,-0.0744 0.02907,-0.0785 -0.08437,-0.12764 -0.06447,-0.0279 -0.11722,-0.0658 -0.11722,-0.0842 0,-0.0185 -0.01528,-0.0384 -0.03402,-0.0444 -0.0187,-0.006 -0.03402,-0.035 -0.03402,-0.0643 0,-0.0651 -0.08274,-0.17303 -0.170028,-0.22189 -0.03561,-0.0198 -0.08725,-0.0804 -0.114758,-0.13436 -0.06832,-0.13403 -0.120908,-0.21671 -0.164257,-0.25829 -0.02641,-0.0252 -0.02583,-0.0368 0.0022,-0.0417 0.02125,-0.004 0.03865,-0.0149 0.03865,-0.0247 0,-0.01 -0.01895,-0.0146 -0.0421,-0.0105 -0.03716,0.006 -0.08604,-0.0428 -0.151648,-0.15285 -0.01058,-0.0176 0.009,-0.0596 0.04327,-0.0932 0.06921,-0.0675 0.04516,-0.099 -0.05149,-0.0672 -0.06848,0.0226 -0.104169,0.0133 -0.104169,-0.0269 0,-0.0155 0.02022,-0.0216 0.05102,-0.0155 0.03526,0.006 0.05102,-0.002 0.05102,-0.0269 0,-0.0273 -0.01498,-0.034 -0.0568,-0.0256 -0.05747,0.0116 -0.111791,-0.0159 -0.112757,-0.0568 -2.49e-4,-0.0122 0.02246,-0.0224 0.0505,-0.0224 0.082,0 0.06044,-0.0706 -0.02691,-0.088 -0.127251,-0.0254 -0.170388,-0.0656 -0.145487,-0.13535 0.01404,-0.0393 0.0091,-0.0629 -0.01315,-0.0629 -0.01953,0 -0.03556,-0.0205 -0.03556,-0.0453 0,-0.0249 -0.02276,-0.0636 -0.05056,-0.086 -0.18071,-0.14501 -0.276888,-0.50222 -0.169306,-0.62882 0.120036,-0.14124 0.15082,-0.19798 0.151325,-0.27888 2.49e-4,-0.0592 0.01953,-0.0912 0.06854,-0.11456 0.03742,-0.0178 0.06804,-0.0445 0.06804,-0.0594 0,-0.0149 -0.06134,-0.14224 -0.136322,-0.28296 -0.07498,-0.14072 -0.132955,-0.26208 -0.12884,-0.26969 0.0041,-0.007 -0.0092,-0.03 -0.0295,-0.0496 -0.05135,-0.0497 -0.215583,-0.41984 -0.215583,-0.48591 0,-0.0569 -0.04264,-0.1378 -0.122419,-0.23214 -0.02621,-0.031 -0.04766,-0.0636 -0.04766,-0.0725 0,-0.009 -0.05223,-0.10022 -0.116064,-0.20296 -0.147979,-0.23819 -0.332458,-0.64871 -0.445038,-0.99036 -0.06195,-0.18802 -0.121478,-0.30705 -0.201189,-0.40236 -0.06225,-0.0745 -0.168086,-0.23999 -0.235165,-0.36786 -0.341741,-0.65143 -0.44848,-0.84508 -0.602974,-1.09397 -0.09263,-0.14922 -0.168419,-0.29562 -0.168419,-0.32532 0,-0.0296 -0.01491,-0.0589 -0.03313,-0.0647 -0.05224,-0.017 -0.131991,-0.17733 -0.209073,-0.42035 -0.03984,-0.12558 -0.145107,-0.34414 -0.239955,-0.49815 -0.107595,-0.17471 -0.179631,-0.32863 -0.198278,-0.42364 -0.01609,-0.0821 -0.0444,-0.16408 -0.06285,-0.18222 -0.0793,-0.0779 -0.313125,-0.51717 -0.295237,-0.55463 0.01359,-0.0285 0.04442,-0.0405 0.103733,-0.0405 0.06798,0 0.08439,-0.009 0.08439,-0.046 0,-0.0554 -0.09111,-0.25531 -0.296902,-0.65144 -0.164987,-0.3176 -0.287517,-0.56083 -0.533483,-1.05903 -0.08604,-0.17427 -0.295226,-0.58871 -0.464859,-0.92101 -0.169632,-0.33228 -0.344278,-0.6806 -0.388101,-0.77404 -0.08918,-0.19014 -0.182364,-0.37283 -0.624872,-1.22502 -0.168546,-0.3246 -0.392464,-0.74673 -0.497601,-0.93808 -0.241154,-0.43878 -0.361802,-0.67533 -0.702894,-1.37793 -0.150273,-0.30988 -0.331104,-0.68007 -0.401705,-0.82269 -0.0706,-0.14261 -0.253292,-0.51281 -0.40598,-0.82264 -0.411216,-0.83442 -0.683524,-1.38368 -0.775799,-1.56482 -0.0451,-0.0886 -0.135449,-0.26958 -0.200777,-0.40237 -0.06533,-0.13279 -0.178369,-0.35812 -0.251201,-0.50075 -0.167865,-0.32871 -0.771735,-1.54857 -0.947269,-1.91354 -0.07332,-0.15245 -0.18032,-0.36169 -0.237764,-0.46497 -0.232048,-0.4172 -0.380168,-0.70243 -0.380168,-0.73207 0,-0.0173 -0.03117,-0.0788 -0.06927,-0.13696 -0.09012,-0.13744 -0.434885,-0.81606 -0.594247,-1.16971 -0.0687,-0.15245 -0.230293,-0.50254 -0.359092,-0.77794 -0.144992,-0.31002 -0.226259,-0.51777 -0.213387,-0.54544 0.02644,-0.0568 0.140505,-0.12412 0.24711,-0.14574 0.10671,-0.0216 0.419221,0.0422 0.49189,0.10052 0.05489,0.044 0.390175,0.60485 0.973274,1.62792 0.201817,0.35409 0.499304,0.87228 0.661079,1.15155 0.652367,1.1261 1.475807,2.63662 1.843627,3.38194 0.06553,0.13278 0.180734,0.35813 0.256009,0.50074 0.179322,0.33976 0.221849,0.42149 0.45133,0.86736 0.286107,0.55587 1.125575,2.12721 1.447443,2.70936 0.07342,0.13279 0.15834,0.29374 0.188718,0.35768 0.05691,0.11975 0.986905,1.91594 1.189848,2.29804 0.06269,0.11804 0.152359,0.29105 0.199264,0.38449 0.0469,0.0935 0.230389,0.44754 0.407737,0.78689 0.177352,0.33933 0.447125,0.86645 0.5995,1.17137 0.297932,0.5962 0.507516,1.00238 0.715127,1.38598 0.467333,0.86347 0.652107,1.18764 0.712296,1.24966 0.09383,0.0967 0.250291,0.30501 0.444924,0.59235 0.08994,0.13278 0.186229,0.2696 0.213975,0.30403 0.04889,0.0606 0.261754,0.48225 0.377179,0.74704 0.03119,0.0715 0.126404,0.23249 0.2116,0.35767 0.243127,0.35725 0.387161,0.61029 0.424745,0.74624 0.08406,0.30404 0.108676,0.36375 0.238251,0.57801 0.07542,0.12472 0.205142,0.35551 0.288275,0.5129 0.08313,0.15736 0.195758,0.36257 0.250277,0.45602 0.194507,0.33335 0.421881,0.80341 0.546105,1.12899 0.08791,0.23038 0.196132,0.41128 0.262735,0.43915 0.03413,0.0142 0.07734,0.0159 0.132334,0.006 0.146275,-0.0292 0.319499,0.0442 0.319499,0.13564 0,0.0142 0.05536,0.0582 0.123015,0.0975 0.107768,0.0628 0.141421,0.0717 0.271482,0.0717 0.134276,0 0.150446,0.006 0.169144,0.0492 0.01138,0.0271 0.04173,0.0854 0.06747,0.12966 0.09214,0.15844 0.245705,0.70411 0.271779,0.96571 0.0054,0.0541 0.02451,0.11848 0.04249,0.14307 0.01796,0.0246 0.04392,0.097 0.05764,0.16095 0.01373,0.064 0.05963,0.17259 0.102008,0.24142 0.101801,0.16545 0.136166,0.35467 0.08701,0.47917 -0.03731,0.0945 -0.02958,0.11738 0.204418,0.60527 0.13376,0.27889 0.294684,0.57953 0.357611,0.66809 0.06293,0.0885 0.147248,0.21736 0.187382,0.28621 0.04012,0.0688 0.122769,0.16141 0.183643,0.20567 0.06086,0.0442 0.144725,0.13494 0.186344,0.20151 0.06782,0.10848 0.07128,0.13006 0.03334,0.20789 -0.03712,0.0762 -0.03293,0.11082 0.03394,0.28135 0.04195,0.10696 0.104169,0.24679 0.138267,0.31072 0.0341,0.064 0.09475,0.2026 0.134794,0.30814 0.04004,0.10555 0.146822,0.30272 0.237293,0.43815 0.09047,0.13544 0.190647,0.31063 0.222615,0.38932 0.0938,0.2309 0.316722,0.64919 0.614731,1.15349 0.121145,0.20503 0.263212,0.38344 0.319985,0.40189 0.01987,0.006 0.118337,0.0695 0.218853,0.14023 0.16679,0.1173 0.262954,0.17338 0.50837,0.29655 0.08787,0.044 0.205646,0.2158 0.246601,0.35954 0.01657,0.0582 0.05354,0.0957 0.133609,0.13541 0.06086,0.0302 0.135352,0.08 0.165515,0.11069 0.03017,0.0306 0.08312,0.0663 0.11767,0.0792 0.08714,0.0325 0.14157,0.0917 0.174663,0.19005 0.01549,0.0461 0.05358,0.12803 0.08461,0.18212 0.03104,0.0541 0.07183,0.13458 0.09066,0.17884 0.01884,0.0442 0.05607,0.11669 0.08274,0.16095 0.08302,0.13776 0.02202,0.20152 -0.230572,0.24096 -0.09323,0.0146 -0.229204,0.0549 -0.302169,0.0895 -0.07296,0.0346 -0.155057,0.063 -0.182433,0.063 -0.02737,0 -0.102135,0.0132 -0.166141,0.0292 -0.0912,0.0229 -0.141108,0.0567 -0.230764,0.15629 -0.103802,0.11535 -0.13283,0.13251 -0.313615,0.18543 -0.109573,0.0321 -0.225746,0.0582 -0.258167,0.0582 -0.03242,0 -0.07574,0.0194 -0.09626,0.043 -0.03173,0.0365 -0.06699,0.0442 -0.23507,0.0514 -0.280077,0.0118 -0.421185,0.0354 -0.604442,0.10178 -0.108434,0.0393 -0.180349,0.0828 -0.223165,0.13536 -0.03475,0.0426 -0.101514,0.0907 -0.148359,0.10682 -0.04817,0.0166 -0.08975,0.0501 -0.0957,0.0771 -0.01489,0.0676 -0.11547,0.0677 -0.299163,6e-4 z m 0.237627,-0.015 c 0.04108,-0.0137 0.04312,-0.0237 0.01046,-0.0515 -0.04531,-0.0384 -0.02707,-0.0561 0.05792,-0.0561 0.07861,0 0.182331,-0.0642 0.15787,-0.0977 -0.03973,-0.0544 -0.182127,-0.0311 -0.309783,0.0508 -0.106066,0.0681 -0.117618,0.0844 -0.08817,0.12518 0.03555,0.0492 0.08629,0.0578 0.171647,0.0293 z m -0.850405,-0.32366 c 0,-0.0437 -0.07949,-0.0375 -0.09604,0.006 -0.0066,0.0176 0.01081,0.0299 0.04251,0.0299 0.03156,0 0.05353,-0.0152 0.05353,-0.0374 z m 0.561265,-0.0608 c 0,-0.0635 -0.09995,-0.0853 -0.128481,-0.0279 -0.01,0.0202 -0.04262,0.0366 -0.07243,0.0366 -0.06915,0 -0.06825,-0.006 0.01368,-0.0756 0.08351,-0.072 0.08525,-0.0885 0.0086,-0.0817 -0.04843,0.005 -0.05748,-0.006 -0.04856,-0.0541 0.01318,-0.071 -0.08225,-0.16077 -0.139155,-0.13086 -0.02026,0.0107 -0.04134,0.0817 -0.04686,0.15787 -0.0115,0.1583 0.03288,0.21301 0.182812,0.22539 0.190932,0.0159 0.230352,0.006 0.230352,-0.0498 z m 0.56127,-0.0196 c 0,-0.0505 -0.0166,-0.0653 -0.08975,-0.0799 -0.108503,-0.0217 -0.131,-0.0134 -0.08269,0.0305 0.01997,0.0183 0.05164,0.0556 0.07032,0.0833 0.04391,0.065 0.102123,0.0456 0.102123,-0.0339 z m -0.340163,-0.08 c 0,-0.009 -0.01531,-0.0169 -0.03402,-0.0169 -0.0187,0 -0.03402,0.0126 -0.03402,0.0279 0,0.0153 0.01532,0.0229 0.03402,0.0169 0.01873,-0.006 0.03402,-0.0186 0.03402,-0.0279 z m 0.500248,-0.16901 c 0.07715,-0.0851 0.03083,-0.10932 -0.166961,-0.0874 -0.163484,0.018 -0.210522,0.0692 -0.111562,0.12119 0.09683,0.0509 0.214703,0.0366 0.278521,-0.0337 z m 0.894419,-0.0188 c 0,-0.0141 -0.03061,-0.0258 -0.06804,-0.0258 -0.07424,0 -0.09413,0.0457 -0.0255,0.0587 0.05754,0.0109 0.09355,-0.002 0.09355,-0.0328 z m -0.460275,0.0108 c 0.02461,-0.0209 -0.08861,-0.0546 -0.183794,-0.0546 -0.09351,0 -0.08964,0.0328 0.0062,0.0531 0.102019,0.0216 0.153405,0.0219 0.177534,0.002 z m -2.060257,-0.093 c 0.04876,-0.0735 0.04722,-0.10469 -0.0052,-0.10436 -0.0947,6.1e-4 -0.125514,0.0283 -0.105112,0.0944 0.02503,0.0812 0.06095,0.0844 0.110297,0.01 z m 2.785859,0.0349 c 0.07368,-0.0387 0.04884,-0.0859 -0.04528,-0.0859 -0.09116,0 -0.138256,0.0359 -0.105687,0.0805 0.02357,0.0323 0.09494,0.0349 0.150977,0.006 z m -2.204253,-0.0902 c 0,-0.01 -0.02255,-0.007 -0.05102,0.005 -0.02806,0.0122 -0.05103,0.0303 -0.05103,0.0402 0,0.01 0.02254,0.007 0.05103,-0.005 0.02806,-0.0122 0.05102,-0.0303 0.05102,-0.0402 z m -0.850408,0.005 c 0,-0.01 -0.01619,-0.0178 -0.03602,-0.0178 -0.01981,0 -0.02658,0.007 -0.015,0.0178 0.01155,0.01 0.02778,0.0178 0.03602,0.0178 0.0083,0 0.015,-0.007 0.015,-0.0178 z m 0.608146,-0.0876 c 0.02946,-0.01 0.03618,-0.0247 0.01807,-0.04 -0.01585,-0.0134 -0.02439,-0.072 -0.01895,-0.13042 0.0085,-0.0914 0.003,-0.10307 -0.03992,-0.0843 -0.08876,0.0387 -0.139325,0.12412 -0.09144,0.15446 0.02307,0.0147 0.03255,0.0396 0.02105,0.0553 -0.03739,0.0513 0.0213,0.075 0.111216,0.0451 z m 2.695435,-0.0352 c 0.01158,-0.006 0.03017,-0.0369 0.04135,-0.0684 0.01746,-0.0493 0.0016,-0.068 -0.113781,-0.13291 -0.07376,-0.0416 -0.139025,-0.0834 -0.145027,-0.0928 -0.0067,-0.0106 -0.03932,-0.009 -0.08336,0.004 -0.03985,0.0112 -0.09659,0.0155 -0.126093,0.01 -0.06512,-0.0132 -0.141506,-0.0987 -0.171627,-0.19219 -0.01242,-0.0385 -0.05878,-0.0868 -0.105043,-0.10935 -0.04555,-0.0223 -0.08281,-0.0494 -0.08281,-0.0607 0,-0.0112 -0.01225,-0.0203 -0.02721,-0.0203 -0.04848,0 -0.108848,0.042 -0.108848,0.0759 0,0.0181 -0.03265,0.0561 -0.07255,0.0845 -0.06161,0.0439 -0.08214,0.0484 -0.136068,0.0307 -0.08518,-0.028 -0.08028,-0.0458 0.02908,-0.10581 0.07254,-0.0398 0.08489,-0.0573 0.057,-0.0805 -0.02685,-0.0224 -0.01829,-0.0439 0.03497,-0.0879 0.07894,-0.0652 0.127956,-0.0679 0.154665,-0.007 0.02329,0.0518 0.08269,0.0509 0.09758,-0.002 0.0063,-0.0225 0.03132,-0.053 0.05542,-0.0677 0.02412,-0.0148 0.0672,-0.0512 0.09577,-0.0808 0.04499,-0.0467 0.04564,-0.0618 0.0048,-0.11287 -0.02589,-0.0324 -0.04359,-0.0764 -0.03934,-0.098 0.0067,-0.0339 -0.0078,-0.0387 -0.109055,-0.0362 -0.07646,0.002 -0.136581,0.0168 -0.174103,0.043 -0.03858,0.0269 -0.08013,0.0368 -0.127118,0.0304 -0.04069,-0.006 -0.150981,0.0119 -0.264395,0.0419 -0.107032,0.0285 -0.213527,0.0517 -0.236662,0.0517 -0.08474,0 -0.12322,0.0464 -0.07989,0.0964 0.05586,0.0644 0.02884,0.0707 -0.137741,0.0314 l -0.143355,-0.0339 0.09448,-0.0363 c 0.08136,-0.0312 0.08818,-0.0402 0.04908,-0.065 -0.07587,-0.048 -0.169106,-0.0344 -0.231005,0.0339 -0.03122,0.0344 -0.07508,0.0627 -0.09746,0.0627 -0.04992,0 -0.21927,0.11384 -0.21771,0.14635 8.46e-4,0.0144 0.02467,0.009 0.06142,-0.0144 0.03317,-0.0209 0.09189,-0.0432 0.130506,-0.0496 0.05809,-0.01 0.07376,-0.002 0.09079,0.0424 0.02196,0.0576 0.111814,0.0742 0.146361,0.0269 0.01469,-0.02 0.04897,-0.0244 0.131102,-0.0161 0.06587,0.006 0.120553,0.003 0.134126,-0.009 0.02799,-0.0238 0.222993,-0.0262 0.222993,-0.003 0,0.009 -0.01533,0.0217 -0.03402,0.0279 -0.0187,0.006 -0.03402,0.0266 -0.03402,0.0458 0,0.0425 -0.06294,0.0453 -0.118651,0.006 -0.0226,-0.0162 -0.05874,-0.0238 -0.08029,-0.0169 -0.05898,0.0192 -0.04707,0.0641 0.02036,0.0765 0.03274,0.006 0.08804,0.0239 0.122888,0.0396 0.03485,0.0157 0.09608,0.0286 0.136064,0.0286 0.04195,0 0.0727,0.0113 0.0727,0.0269 0,0.0148 -0.01912,0.0248 -0.04253,0.0223 -0.02337,-0.002 -0.04253,0.0111 -0.04253,0.03 0,0.0217 -0.02732,0.0365 -0.07388,0.0402 -0.155513,0.0121 -0.09303,0.0427 0.08986,0.0439 0.102733,7.1e-4 0.208688,0.0109 0.23545,0.0227 0.03458,0.015 0.05528,0.0156 0.07155,0.002 0.01259,-0.0107 0.0484,-0.0152 0.07957,-0.0101 0.0382,0.006 0.07607,-0.007 0.116234,-0.0454 0.05783,-0.0532 0.126644,-0.0621 0.153422,-0.0199 0.0072,0.0114 -0.02725,0.0419 -0.07661,0.068 -0.0984,0.0517 -0.09274,0.10997 0.0085,0.0874 0.20805,-0.0464 0.275763,0.0218 0.124887,0.12579 -0.06943,0.0479 -0.108572,0.0607 -0.159705,0.052 -0.06671,-0.0111 -0.06678,-0.0106 -0.0038,0.0335 0.04883,0.0342 0.103997,0.0469 0.233973,0.0536 0.194182,0.0102 0.223981,0.005 0.139635,-0.0283 -0.04299,-0.0166 -0.05325,-0.036 -0.03697,-0.07 0.03339,-0.07 0.243774,-0.0862 0.3884,-0.0299 0.116279,0.0453 0.129403,0.072 0.05176,0.10594 -0.03974,0.0173 -0.06201,0.0178 -0.09184,0.002 -0.05914,-0.0311 -0.127821,-0.0249 -0.127821,0.0116 0,0.0491 0.06971,0.0755 0.167529,0.0633 0.04817,-0.006 0.09704,-0.0159 0.108595,-0.022 z m -1.330635,-0.7175 c 0,-0.01 0.0153,-0.0178 0.03402,-0.0178 0.01873,0 0.03402,0.007 0.03402,0.0178 0,0.01 -0.0153,0.0178 -0.03402,0.0178 -0.0187,0 -0.03402,-0.007 -0.03402,-0.0178 z m 0.104077,-0.0255 c -0.03145,-0.0198 -0.02844,-0.0376 0.0137,-0.0805 0.05783,-0.0588 0.182335,-0.0804 0.136161,-0.0236 -0.014,0.0173 -0.03268,0.0534 -0.04151,0.0805 -0.01793,0.055 -0.04848,0.0616 -0.108354,0.0236 z m 0.321128,-0.11754 c -0.01158,-0.01 -0.0048,-0.0179 0.01501,-0.0179 0.01981,0 0.03602,0.007 0.03602,0.0179 0,0.01 -0.0068,0.0178 -0.01501,0.0178 -0.0083,0 -0.02448,-0.007 -0.03602,-0.0178 z m -0.221109,0.8489 c 0,-0.0285 -0.0904,-0.0563 -0.124725,-0.0382 -0.01081,0.006 -0.01069,0.0229 5.57e-4,0.038 0.02607,0.0358 0.124325,0.036 0.124325,2.2e-4 z m -0.510243,-0.0799 c 0,-0.01 -0.0068,-0.0178 -0.015,-0.0178 -0.0083,0 -0.02448,0.007 -0.03603,0.0178 -0.01155,0.01 -0.0048,0.0178 0.015,0.0178 0.01981,0 0.03602,-0.007 0.03602,-0.0178 z m 1.326634,-0.0258 c 0,-0.005 -0.01531,-0.0129 -0.03402,-0.0189 -0.0187,-0.006 -0.03402,-0.002 -0.03402,0.007 0,0.0104 0.01531,0.0189 0.03402,0.0189 0.0187,0 0.03402,-0.004 0.03402,-0.007 z m -2.74195,-0.074 c 0.02918,-0.04 0.02689,-0.0433 -0.03037,-0.0433 -0.02834,0 -0.05102,0.0159 -0.05102,0.0358 0,0.0426 0.05224,0.0475 0.08141,0.006 z m 0.811661,-0.0169 c 0.002,-0.01 -0.0221,-0.0201 -0.05346,-0.0232 -0.04039,-0.005 -0.05085,0.003 -0.03591,0.0231 0.02205,0.0302 0.08326,0.0303 0.08937,1.4e-4 z m 1.22412,-0.0171 c 0.01741,-0.0479 -1.77e-4,-0.0676 -0.04694,-0.0526 -0.03859,0.0126 -0.0379,0.0968 9.11e-4,0.0968 0.01654,0 0.03729,-0.0198 0.04616,-0.0442 z m -1.414126,-0.0951 c -0.0127,-0.0248 -0.01997,-0.0229 -0.0401,0.01 -0.01354,0.0222 -0.04576,0.0402 -0.07163,0.0402 -0.05808,0 -0.06053,0.0215 -0.0057,0.0503 0.03241,0.0171 0.05119,0.0118 0.08715,-0.0243 0.02522,-0.0252 0.03886,-0.0596 0.03033,-0.0763 z m 1.044184,0.0318 c -0.0453,-0.0238 -0.131311,0.0254 -0.09635,0.0552 0.01701,0.0146 0.03966,0.0122 0.078,-0.007 0.03773,-0.0198 0.04327,-0.034 0.01835,-0.0473 z m 0.505207,0.0151 c -0.05185,-0.0273 -0.08344,-0.0107 -0.05468,0.0288 0.01581,0.0216 0.03289,0.0249 0.05862,0.0116 0.02575,-0.0135 0.02459,-0.0251 -0.004,-0.0403 z m -0.837012,-0.13215 c -0.02205,-0.0302 -0.142755,-0.034 -0.17617,-0.006 -0.01284,0.0109 0.02058,0.0383 0.07453,0.0611 0.0951,0.0402 0.0982,0.0403 0.109078,0.006 0.0062,-0.0196 0.0028,-0.0472 -0.0075,-0.0611 z m 2.113399,0.0504 c -0.09122,-0.17004 -0.149126,-0.2548 -0.174074,-0.25482 -0.01644,-2e-5 -0.01981,0.033 -0.0075,0.0734 0.01412,0.0464 0.0077,0.0828 -0.01737,0.0987 -0.03136,0.0198 -0.02264,0.034 0.04151,0.0676 0.09821,0.0514 0.181176,0.0592 0.157413,0.0149 z m -0.297287,-0.1846 c 0,-0.029 0.01912,-0.069 0.04253,-0.0888 0.03646,-0.0307 0.02619,-0.0524 -0.07174,-0.15177 -0.108687,-0.11026 -0.184546,-0.1427 -0.218812,-0.0936 -0.0119,0.0171 -0.02559,0.0173 -0.05779,0.002 -0.03345,-0.0165 -0.03082,-0.0294 0.01277,-0.0621 0.07019,-0.0528 0.07065,-0.12069 9.11e-4,-0.13475 -0.08013,-0.0161 -0.260585,0.0859 -0.260585,0.14733 0,0.0273 0.02193,0.0584 0.04875,0.069 0.05432,0.0215 0.163857,0.15592 0.163857,0.20112 0,0.0317 0.27298,0.1794 0.314647,0.17033 0.01404,-0.003 0.0255,-0.0293 0.0255,-0.0583 z m -1.63916,0.0203 c 0.0085,-0.0134 -0.0043,-0.02 -0.02976,-0.0156 -0.02457,0.005 -0.05134,0.0184 -0.05953,0.0312 -0.0085,0.0134 0.0043,0.02 0.02976,0.0156 0.02453,-0.005 0.05134,-0.0184 0.05953,-0.0312 z m -0.887256,-0.0119 c -0.01127,-0.006 -0.04064,-0.006 -0.0652,-0.002 -0.02713,0.006 -0.01906,0.01 0.02056,0.0109 0.03586,7e-4 0.05595,-0.004 0.04464,-0.009 z m -0.241688,-0.32479 c 0.04189,-0.0144 0.002,-0.0936 -0.04734,-0.0936 -0.06556,0 -0.106468,0.0416 -0.07314,0.0743 0.03637,0.0358 0.06119,0.0397 0.120491,0.0194 z m 3.516459,-0.0838 c 0,-0.0142 -0.01912,-0.0324 -0.04251,-0.0402 -0.02337,-0.007 -0.05947,-0.0304 -0.08019,-0.0501 -0.04328,-0.0411 -0.140743,-0.0563 -0.190964,-0.0301 -0.02307,0.0122 6.6e-5,0.0273 0.07063,0.0466 0.05772,0.0157 0.121247,0.0445 0.14117,0.0642 0.04224,0.0416 0.101859,0.0472 0.101859,0.01 z m -3.05891,-0.0148 c -0.0014,-0.006 -0.0024,-0.025 -0.0024,-0.0398 0,-0.0148 -0.01533,-0.0269 -0.03402,-0.0269 -0.01873,0 -0.03402,0.0208 -0.03402,0.0462 0,0.0254 0.01646,0.0433 0.03657,0.0398 0.02012,-0.004 0.03542,-0.0121 0.03402,-0.0194 z m -0.478778,-0.0949 c 0,-0.0156 -0.01818,-0.0251 -0.0404,-0.0212 -0.06307,0.011 -0.07353,0.0495 -0.01345,0.0495 0.02963,0 0.05386,-0.0128 0.05386,-0.0284 z m 0.979575,-0.22097 c -0.0059,-0.0263 -0.03516,-0.048 -0.06965,-0.0515 -0.04989,-0.006 -0.05953,0.007 -0.05953,0.0786 0,0.084 5.56e-4,0.0843 0.06964,0.0515 0.0433,-0.0206 0.06582,-0.0504 0.05953,-0.0785 z m -0.690437,0.0503 c 0.02254,-0.0117 0.0053,-0.0292 -0.05102,-0.0519 -0.111286,-0.0451 -0.150668,-0.0365 -0.164056,0.0354 -0.01058,0.0567 -0.007,0.0585 0.08504,0.0465 0.05281,-0.006 0.111332,-0.0205 0.130039,-0.03 z m 1.152253,-0.10954 c 0.09954,-0.11591 0.100662,-0.13641 0.0082,-0.14863 -0.08944,-0.0118 -0.156941,6e-4 -0.156941,0.0289 0,0.009 0.02296,0.0169 0.05102,0.0169 0.05777,0 0.06843,0.028 0.01699,0.0447 -0.04339,0.014 -0.04478,0.11624 -0.0017,0.11624 0.01784,0 0.05488,-0.0262 0.08234,-0.0582 z m -0.335118,-0.1487 c 0.03878,-0.12468 0.04335,-0.24987 0.0098,-0.26753 -0.03456,-0.0182 -0.203929,0.118 -0.182792,0.14696 0.0115,0.0157 -1.69e-4,0.0415 -0.02583,0.0573 -0.09012,0.0554 -0.0902,0.0891 -2.49e-4,0.14521 0.04832,0.0302 0.104215,0.0519 0.124236,0.0485 0.02,-0.004 0.05376,-0.0622 0.07497,-0.1304 z m -0.507513,0.0859 c 0.0839,-0.0294 0.157309,-0.1464 0.134423,-0.2142 -0.01246,-0.0369 -0.02639,-0.12477 -0.03091,-0.19514 -0.0079,-0.12278 -0.06168,-0.19632 -0.127853,-0.17484 -0.0166,0.006 -0.03063,0.0355 -0.0312,0.0669 -0.0017,0.0859 -0.05407,0.0236 -0.08171,-0.0969 -0.03235,-0.14108 -0.0022,-0.19332 0.108918,-0.18883 0.07709,0.003 0.09336,0.0157 0.131507,0.10163 0.02396,0.054 0.04418,0.12423 0.04497,0.1562 0.002,0.0779 0.112884,0.13784 0.20632,0.11156 0.08409,-0.0236 0.08394,-0.0365 -0.0014,-0.11247 -0.04003,-0.0357 -0.07078,-0.0975 -0.07391,-0.14857 -0.0029,-0.0481 -0.02431,-0.0995 -0.04749,-0.11429 -0.05906,-0.0376 -0.07535,-0.16514 -0.02229,-0.17443 0.0232,-0.005 0.04217,-0.0202 0.04217,-0.0357 0,-0.0156 0.01012,-0.023 0.02249,-0.0166 0.0231,0.0122 0.02974,0.0346 0.06412,0.21662 0.02075,0.10986 0.116374,0.20672 0.204093,0.20672 0.02636,0 0.07299,0.02 0.10364,0.0447 0.08249,0.0662 0.109159,0.0549 0.09426,-0.0402 l -0.01329,-0.085 0.06391,0.0721 c 0.03555,0.0401 0.103675,0.0816 0.153552,0.0935 0.08311,0.0198 0.08965,0.0184 0.08965,-0.0209 0,-0.0667 -0.103927,-0.33969 -0.13587,-0.35695 -0.01591,-0.009 -0.03936,0.0214 -0.05238,0.067 -0.02371,0.083 -0.08388,0.11531 -0.08388,0.045 0,-0.10108 -0.118317,-0.36338 -0.188412,-0.41769 -0.07637,-0.0592 -0.09179,-0.0797 -0.132714,-0.17606 -0.01669,-0.0394 -0.03537,-0.0479 -0.08634,-0.0394 -0.05387,0.009 -0.06916,-5.9e-4 -0.08904,-0.0563 -0.01351,-0.0379 -0.0069,-0.1009 0.01514,-0.14422 0.05313,-0.10443 0.04921,-0.18781 -0.01081,-0.22951 -0.04519,-0.0313 -0.05006,-0.0318 -0.05102,-0.004 -0.0029,0.0856 -0.136206,-0.0363 -0.13696,-0.12519 -2.49e-4,-0.0439 -0.06393,-0.0215 -0.07641,0.0268 l -0.0127,0.0492 -0.04402,-0.0536 c -0.0242,-0.0295 -0.05222,-0.0841 -0.06224,-0.1214 -0.02105,-0.0783 -0.08533,-0.0797 -0.111895,-0.002 -0.01483,0.0432 -0.02219,0.0465 -0.04252,0.0195 -0.0442,-0.059 -0.0279,-0.15052 0.02883,-0.16196 0.06154,-0.0124 0.05259,-0.0937 -0.0097,-0.0873 -0.04223,0.005 -0.05919,-0.0183 -0.09316,-0.1242 -0.02743,-0.0856 -0.07506,-0.10049 -0.103502,-0.0324 -0.0177,0.0423 -0.03772,0.0521 -0.09632,0.0472 -0.05096,-0.005 -0.07035,-0.0168 -0.06232,-0.04 0.0064,-0.0185 0.01104,-0.0537 0.01035,-0.0784 -8.46e-4,-0.0246 8.45e-4,-0.13725 0.0033,-0.25037 0.0077,-0.34076 -0.0022,-0.38431 -0.131252,-0.56518 -0.06686,-0.0939 -0.112849,-0.17521 -0.102192,-0.18082 0.02922,-0.0154 0.223151,0.20878 0.247013,0.2855 0.03409,0.10961 0.08787,0.0786 0.06085,-0.0349 -0.02439,-0.1026 -0.169381,-0.31092 -0.267862,-0.38485 -0.02913,-0.0219 -0.05295,-0.074 -0.05295,-0.11589 0,-0.0657 0.01127,-0.0776 0.08253,-0.0871 0.04539,-0.006 0.109504,-0.0265 0.142454,-0.0457 0.05334,-0.0309 0.05491,-0.0421 0.01431,-0.10112 -0.02509,-0.0364 -0.04317,-0.1002 -0.04018,-0.14162 0.0041,-0.0569 -0.01283,-0.0842 -0.06924,-0.11188 -0.04107,-0.02 -0.08655,-0.0365 -0.101065,-0.0365 -0.03335,0 -0.09352,0.0556 -0.183586,0.16989 -0.03878,0.0492 -0.09208,0.0895 -0.118434,0.0895 -0.06336,0 -0.133846,-0.0757 -0.134474,-0.14436 -8.45e-4,-0.0825 0.09943,-0.22039 0.175815,-0.24189 0.06427,-0.0182 0.06465,-0.0207 0.0083,-0.0532 -0.03251,-0.0189 -0.08837,-0.0343 -0.124116,-0.0343 -0.117882,0 -0.202031,-0.0377 -0.272956,-0.12224 -0.03848,-0.0459 -0.09827,-0.0939 -0.132864,-0.10679 -0.03459,-0.0129 -0.06323,-0.041 -0.06365,-0.0627 -5.57e-4,-0.0215 -0.03102,-0.0743 -0.06803,-0.1172 -0.03701,-0.0429 -0.06729,-0.0915 -0.06729,-0.10819 0,-0.039 -0.07711,-0.12649 -0.111745,-0.12666 -0.01469,0 -0.01,0.0163 0.01046,0.0364 0.04443,0.0437 0.03097,0.16383 -0.01934,0.1725 -0.02042,0.004 -0.06062,-0.0643 -0.09447,-0.15957 -0.0324,-0.0911 -0.06792,-0.1838 -0.07896,-0.20594 -0.01481,-0.0298 -0.0054,-0.0402 0.03601,-0.0402 0.05777,0 0.06715,0.009 0.103766,0.096 0.0439,0.10473 0.05862,0.0266 0.01616,-0.0858 -0.0336,-0.0889 -0.05409,-0.1123 -0.08603,-0.0984 -0.05315,0.0232 -0.0737,0.006 -0.102238,-0.0884 -0.01248,-0.041 -0.03525,-0.0787 -0.05056,-0.0837 -0.04642,-0.015 -0.09913,0.0565 -0.101881,0.13832 l -0.0024,0.0772 -0.04388,-0.0627 c -0.03335,-0.0476 -0.06129,-0.0616 -0.11647,-0.0582 -0.05869,0.004 -0.07259,-0.006 -0.07259,-0.0456 0,-0.0493 -0.05271,-0.0928 -0.112492,-0.0928 -0.01696,0 -0.02191,0.0123 -0.01092,0.0272 0.01092,0.015 0.01035,0.0637 -0.0014,0.10831 -0.01532,0.0589 -0.03136,0.0758 -0.05847,0.0614 -0.04609,-0.0243 -0.02898,-0.25021 0.02138,-0.28248 0.02506,-0.016 0.02408,-0.0362 -0.0032,-0.068 -0.02146,-0.0248 -0.03902,-0.0603 -0.03902,-0.0791 0,-0.0397 -0.06887,-0.12518 -0.100893,-0.12518 -0.01205,0 -0.01831,0.12256 -0.0139,0.27236 0.0086,0.29115 -0.0072,0.32481 -0.144235,0.30673 -0.06531,-0.009 -0.08115,-0.004 -0.08115,0.0251 0,0.0306 0.02028,0.0351 0.136064,0.0323 0.117916,-0.004 0.136067,0.002 0.136067,0.034 0,0.0207 0.01516,0.0457 0.03372,0.0554 0.01853,0.01 0.04788,0.0576 0.06521,0.10635 0.0271,0.0763 0.02509,0.084 -0.01445,0.0556 -0.05535,-0.0398 -0.117979,-0.0243 -0.119857,0.0298 -0.0014,0.035 -0.0077,0.0335 -0.05953,-0.0146 l -0.05817,-0.0537 -0.01046,0.0663 c -0.0057,0.0365 0.0057,0.0822 0.0255,0.10166 0.01981,0.0195 0.03598,0.0727 0.03598,0.11827 0,0.0499 0.02036,0.0936 0.05102,0.10977 0.02844,0.015 0.05102,0.0586 0.05102,0.0987 0,0.0572 0.01412,0.0739 0.06882,0.0814 0.05745,0.007 0.06809,0.0231 0.06445,0.0922 -0.0039,0.0743 0.01459,0.14391 0.05699,0.21443 0.01152,0.0192 0.02514,0.0197 0.06387,0.003 0.04057,-0.0176 0.05286,-0.0126 0.06999,0.0292 0.0115,0.0279 0.04223,0.083 0.06846,0.12228 0.05595,0.0839 0.06398,0.17014 0.03102,0.33289 -0.01638,0.0808 -0.01185,0.12219 0.01434,0.13069 0.02107,0.006 0.03829,0.0296 0.03829,0.0504 0,0.0464 0.05972,0.14851 0.126356,0.21574 0.02729,0.0276 0.04144,0.0613 0.03142,0.0751 -0.02205,0.0302 0.05714,0.0446 0.210129,0.0383 0.139073,-0.006 0.184387,0.0307 0.169748,0.1368 l -0.01035,0.0753 -0.05691,-0.0537 c -0.05133,-0.0484 -0.05939,-0.0503 -0.08223,-0.0195 -0.02676,0.0361 0.03243,0.21639 0.09456,0.28808 0.02026,0.0233 0.05938,0.047 0.08699,0.0526 0.03905,0.007 0.04545,1.4e-4 0.02875,-0.0348 -0.0118,-0.0248 -0.02958,-0.0831 -0.03951,-0.12986 l -0.01807,-0.0849 0.104491,0.11176 c 0.05747,0.0615 0.110366,0.11179 0.117545,0.11179 0.0072,0 0.0051,-0.0504 -0.0048,-0.11179 -0.0166,-0.1041 -0.01394,-0.10981 0.03915,-0.0834 0.0347,0.0172 0.0647,0.0697 0.0767,0.13411 0.01081,0.058 0.03256,0.11429 0.04825,0.12484 0.01569,0.0105 0.04583,0.11917 0.06698,0.24143 0.02116,0.12224 0.06894,0.28261 0.106227,0.35638 0.03728,0.0738 0.08295,0.2468 0.101491,0.3845 0.03165,0.23513 0.0381,0.29259 0.05499,0.49031 0.0076,0.0884 0.03306,0.0855 0.09608,-0.0109 0.03064,-0.0469 0.03424,-0.0986 0.01276,-0.18297 -0.04922,-0.1933 -0.07403,-0.48833 -0.04013,-0.47732 0.0309,0.0101 0.07596,0.12056 0.08588,0.21062 0.0029,0.0262 0.01675,0.0537 0.03076,0.0611 0.03839,0.0202 0.03064,-0.2634 -0.01104,-0.40472 -0.05079,-0.17211 -0.02655,-0.20828 0.05937,-0.0886 0.05429,0.0757 0.0753,0.15827 0.091,0.35768 0.01127,0.14262 0.03042,0.30449 0.04263,0.3597 0.01394,0.063 0.009,0.10467 -0.01331,0.11192 -0.04141,0.0135 -0.09138,-0.0856 -0.05767,-0.1143 0.02401,-0.0205 -0.03993,-0.0711 -0.08961,-0.0711 -0.04956,0 -0.03356,0.10532 0.02506,0.1649 0.05054,0.0514 0.05054,0.0597 0,0.1047 -0.05998,0.0533 -0.07565,0.21327 -0.02089,0.21327 0.0187,0 0.03402,-0.0273 0.03402,-0.0607 0,-0.064 0.08119,-0.101 0.116241,-0.053 0.01092,0.0149 0.01983,0.12161 0.01983,0.23706 0,0.13899 0.01813,0.24194 0.05361,0.30478 0.03705,0.0656 0.05041,0.1485 0.04327,0.26843 -0.01127,0.19039 0.02925,0.25118 0.194061,0.29065 0.04579,0.011 0.08323,0.0276 0.08323,0.037 0,0.009 0.03008,0.0129 0.06685,0.007 0.04553,-0.006 0.07338,0.002 0.08733,0.0248 0.02125,0.0352 0.07381,0.0429 0.138434,0.0202 z m -0.425005,-0.25457 c -0.02241,-0.0373 -0.02332,-0.25156 -0.0014,-0.27039 0.05295,-0.045 0.06337,-0.005 0.03502,0.13721 -0.01567,0.0782 -0.03089,0.1381 -0.03384,0.13318 z m 0.94878,-0.46498 c 0,-0.0197 0.01531,-0.0358 0.03402,-0.0358 0.01873,0 0.03402,0.0161 0.03402,0.0358 0,0.0197 -0.01531,0.0358 -0.03402,0.0358 -0.01871,0 -0.03402,-0.0161 -0.03402,-0.0358 z m -0.809757,-0.0805 c 8.46e-4,-0.0296 0.0083,-0.0395 0.01693,-0.0219 0.0086,0.0173 0.008,0.0416 -0.0014,0.0537 -0.0093,0.0121 -0.01638,-0.002 -0.01569,-0.0317 z m 0.732216,-0.1937 c -0.01349,-0.018 -0.02404,-0.0462 -0.02345,-0.0627 0.0011,-0.0266 0.0048,-0.0264 0.03631,0.002 0.01939,0.0175 0.02996,0.0456 0.02349,0.0627 -0.01081,0.0281 -0.01392,0.0279 -0.03631,-0.002 z m -0.59708,-0.0467 c -0.02113,-0.0319 -0.02304,-0.0546 -0.0046,-0.0546 0.03519,0 0.0849,0.086 0.05792,0.1001 -0.0094,0.006 -0.03344,-0.0155 -0.05334,-0.0455 z m 0.342137,-0.067 c -0.01989,-0.0274 -0.04493,-0.0714 -0.05565,-0.0974 -0.01177,-0.0285 -0.04078,-0.0462 -0.0732,-0.0447 -0.0661,0.003 -0.139545,-0.10039 -0.169076,-0.23821 -0.01166,-0.0544 -0.04298,-0.16233 -0.06959,-0.23965 -0.0266,-0.0773 -0.04776,-0.16181 -0.04702,-0.18777 0.0014,-0.045 0.004,-0.0441 0.05586,0.0154 0.02998,0.0344 0.06384,0.0941 0.07521,0.13267 0.01138,0.0385 0.04142,0.0737 0.06678,0.0782 0.03528,0.006 0.04064,-0.006 0.02282,-0.0477 -0.01613,-0.0386 -0.01058,-0.0557 0.01818,-0.0557 0.07822,0 0.13185,0.0627 0.132931,0.15531 5.56e-4,0.051 0.01589,0.1132 0.03398,0.13822 0.0181,0.025 0.03528,0.0759 0.03819,0.11295 0.0029,0.0371 0.02144,0.1179 0.04116,0.17961 0.02467,0.0772 0.02492,0.11795 8.45e-4,0.13065 -0.02418,0.0127 -0.04642,0.003 -0.07129,-0.0318 z m -0.126756,-0.30949 -0.04522,-0.0984 -0.0029,0.0814 c -0.0017,0.0448 0.01522,0.0909 0.03736,0.10254 0.05934,0.0312 0.06045,0.0225 0.01081,-0.0856 z m -0.06178,-0.14641 c -0.01081,-0.0142 -0.01892,-0.01 -0.02056,0.0109 -0.0017,0.0189 0.0066,0.0294 0.01784,0.0235 0.01127,-0.006 0.01251,-0.0213 0.0028,-0.0342 z m -0.481395,0.27785 c -0.01254,-0.0969 -0.04597,-0.27674 -0.07429,-0.39968 -0.02833,-0.12295 -0.0568,-0.25574 -0.06329,-0.29508 -0.01215,-0.0738 -0.09292,-0.2808 -0.146441,-0.37556 -0.01666,-0.0295 -0.01833,-0.0697 -0.0037,-0.0895 0.01528,-0.0205 0.02771,-0.025 0.02908,-0.0103 0.0014,0.014 0.02918,0.041 0.06192,0.0599 0.03274,0.019 0.0627,0.0559 0.06658,0.0819 0.02116,0.14195 0.12508,0.41097 0.173721,0.4497 0.106801,0.085 0.142386,0.12946 0.142386,0.17787 0,0.0268 0.01757,0.0947 0.03906,0.1509 0.02941,0.077 0.02941,0.10735 0,0.12282 -0.02941,0.0155 -0.03944,0.003 -0.04059,-0.0501 -8.46e-4,-0.0388 -0.02188,-0.0948 -0.04671,-0.12429 l -0.04518,-0.0536 -0.02284,0.0447 c -0.02689,0.0527 -0.02682,0.0652 0.0014,0.28299 0.01359,0.10534 0.0086,0.17351 -0.01335,0.18509 -0.02382,0.0126 -0.0421,-0.0376 -0.05767,-0.15781 z m 0.279573,0.1309 c -0.01404,-0.018 -0.02453,-0.0582 -0.02335,-0.0895 0.0022,-0.0553 0.0029,-0.0555 0.03558,-0.0127 0.01837,0.0242 0.02889,0.0645 0.02334,0.0895 -0.0086,0.0389 -0.01373,0.0406 -0.03558,0.0127 z m 0.382683,-0.58423 c 0,-0.01 0.01442,-0.0178 0.03201,-0.0178 0.0176,0 0.04147,0.007 0.05303,0.0178 0.01155,0.01 -0.0029,0.0178 -0.03201,0.0178 -0.02917,0 -0.05303,-0.007 -0.05303,-0.0178 z m -0.201413,-0.11772 c 0.0017,-0.0209 0.0097,-0.025 0.02055,-0.0108 0.0099,0.0129 0.0086,0.0284 -0.0028,0.0342 -0.01127,0.006 -0.01934,-0.006 -0.01788,-0.0235 z m -0.490252,-0.3413 c -0.01246,-0.006 -0.02268,-0.0353 -0.02268,-0.0641 0,-0.0712 0.0818,-0.0548 0.0957,0.0193 0.01,0.0531 -0.02103,0.0721 -0.07303,0.0449 z m -0.311974,-0.35865 c -0.01127,-0.0373 -0.02597,-0.0817 -0.03255,-0.0988 -0.016,-0.0419 0.04005,-0.0582 0.06245,-0.0183 0.04669,0.0836 0.05858,0.1625 0.02605,0.17307 -0.02103,0.006 -0.04371,-0.0159 -0.05595,-0.0561 z m -0.118899,-0.25536 c 0,-0.0197 0.0153,-0.0358 0.03402,-0.0358 0.0187,0 0.03402,0.0161 0.03402,0.0358 0,0.0197 -0.01531,0.0358 -0.03402,0.0358 -0.01873,0 -0.03402,-0.0161 -0.03402,-0.0358 z m 0.224932,-0.18075 c -0.03904,-0.0657 -0.04586,-0.10618 -0.01937,-0.1148 0.03325,-0.0109 0.08538,0.11279 0.05444,0.12907 -0.01115,0.006 -0.02694,-5.9e-4 -0.03508,-0.0142 z m -0.268796,-0.13991 c -0.07878,-0.13152 -0.07221,-0.17123 0.01215,-0.0734 0.03786,0.0439 0.06371,0.10022 0.05744,0.12519 -0.0091,0.0363 -0.0231,0.0259 -0.0696,-0.0517 z m -0.642491,-0.004 c -0.07187,-0.0581 -0.122872,-0.18734 -0.06671,-0.16909 0.0213,0.006 0.03872,0.0239 0.03872,0.0375 0,0.0137 0.02414,0.0319 0.05361,0.0406 0.03642,0.0107 0.05006,0.0351 0.04253,0.0764 l -0.01115,0.0606 z m 0.859122,-0.0261 c 0.0017,-0.0208 0.0097,-0.0251 0.02056,-0.0108 0.0099,0.0129 0.0086,0.0284 -0.0028,0.0342 -0.01127,0.006 -0.01934,-0.006 -0.01788,-0.0235 z m -0.306148,-0.16096 c 0.0017,-0.0209 0.0097,-0.025 0.02056,-0.0109 0.0099,0.0129 0.0086,0.0284 -0.0028,0.0342 -0.01127,0.006 -0.01934,-0.006 -0.01788,-0.0235 z m -1.025419,-0.0731 c -0.01904,-0.0262 -0.02495,-0.0709 -0.01319,-0.0991 0.01685,-0.0403 0.03524,-0.049 0.08644,-0.0404 0.03631,0.006 0.06503,0.002 0.06503,-0.007 0,-0.0106 0.01531,-0.0191 0.03402,-0.0191 0.01873,0 0.03402,0.0217 0.03402,0.0483 0,0.0376 -0.0091,0.0436 -0.04081,0.0269 -0.07742,-0.0406 -0.103066,-0.0218 -0.08001,0.059 0.02595,0.091 -0.02836,0.11169 -0.08551,0.0326 z m 1.199744,-0.22125 c -0.02284,-0.0193 -0.06436,-0.0349 -0.09226,-0.0349 -0.0279,0 -0.05074,-0.007 -0.05074,-0.0178 0,-0.01 0.01266,-0.0179 0.02809,-0.0179 0.03791,0 0.191689,0.0872 0.172023,0.0975 -0.0086,0.005 -0.03428,-0.006 -0.05711,-0.0268 z m -1.149787,-0.1135 c -0.05918,-0.0987 -0.04684,-0.16272 0.02885,-0.14947 0.02823,0.006 0.04273,0.0475 0.04317,0.12668 2.49e-4,0.0656 -0.0028,0.11922 -0.0068,0.11922 -0.0041,0 -0.03344,-0.0434 -0.06524,-0.0964 z m 0.876386,0.0553 c -0.02017,-0.0129 -0.04689,-0.0591 -0.05938,-0.10285 -0.0203,-0.0711 -0.01721,-0.0767 0.02919,-0.0528 0.04769,0.0247 0.118993,0.17883 0.08271,0.17883 -0.0087,0 -0.03234,-0.0105 -0.05253,-0.0232 z m -1.410378,-1.61004 c -0.07129,-0.0573 -0.07369,-0.0836 -0.0076,-0.0836 0.02771,0 0.05982,0.0198 0.07136,0.0439 0.03329,0.0697 -1.95e-4,0.0906 -0.06375,0.0397 z m 3.445699,5.03904 c 0,-0.0153 -0.01532,-0.0228 -0.03402,-0.0169 -0.0187,0.006 -0.03402,0.0186 -0.03402,0.0279 0,0.009 0.01534,0.0169 0.03402,0.0169 0.0187,0 0.03402,-0.0126 0.03402,-0.0279 z m -1.700815,-0.20397 c 0,-0.0517 -0.01774,-0.0759 -0.06579,-0.0895 -0.158843,-0.0447 -0.212823,0.006 -0.104813,0.0973 0.101065,0.086 0.170614,0.0828 0.170614,-0.007 z m 0.850405,-0.22416 c 0,-0.0148 -0.01531,-0.0269 -0.03402,-0.0269 -0.01871,0 -0.03402,0.0121 -0.03402,0.0269 0,0.0148 0.01531,0.0268 0.03402,0.0268 0.01873,0 0.03402,-0.0121 0.03402,-0.0268 z m -1.012269,-0.18333 c -0.0085,-0.0122 -0.02789,-0.0224 -0.04304,-0.0224 -0.04126,0 -0.05563,0.0351 -0.03889,0.0951 l 0.01495,0.0536 0.04124,-0.0519 c 0.02268,-0.0286 0.03426,-0.062 0.02575,-0.0743 z m 0.19536,0.009 c 2.48e-4,-0.0171 -0.01481,-0.0312 -0.03349,-0.0312 -0.01873,0 -0.03379,0.0262 -0.0335,0.0581 5.57e-4,0.044 0.0085,0.0516 0.0335,0.0312 0.01815,-0.0148 0.0332,-0.0408 0.03349,-0.0581 z m 1.353284,-0.62494 c -0.01481,-0.0233 -0.196211,-0.0551 -0.196211,-0.0342 0,0.0243 0.08198,0.0556 0.145704,0.0556 0.03524,0 0.05796,-0.01 0.0505,-0.0213 z m -1.859817,-0.69946 c -0.02694,-0.0141 -0.0372,-0.009 -0.0372,0.0169 0,0.0474 0.04757,0.0724 0.06272,0.033 0.0064,-0.0167 -0.0051,-0.0391 -0.0255,-0.0499 z m -0.275321,-0.54892 c 0,-0.01 -0.01619,-0.0179 -0.03602,-0.0179 -0.01981,0 -0.02657,0.007 -0.015,0.0179 0.01155,0.01 0.02777,0.0178 0.03602,0.0178 0.0083,0 0.015,-0.007 0.015,-0.0178 z m 1.276699,-0.18331 c 0.0087,-0.0122 -2.49e-4,-0.0786 -0.02032,-0.14754 -0.01995,-0.0688 -0.0391,-0.14654 -0.04254,-0.17265 -0.0034,-0.0262 -0.01823,-0.0437 -0.03282,-0.0388 -0.01461,0.006 -0.01957,0.0785 -0.01104,0.16372 0.0085,0.0853 0.01669,0.16916 0.01807,0.18638 0.0029,0.036 0.06488,0.0422 0.08864,0.009 z m -0.05211,-0.45513 c 0,-0.036 -0.0099,-0.043 -0.03854,-0.0281 -0.02121,0.0111 -0.02933,0.0328 -0.01807,0.0483 0.03114,0.0427 0.05661,0.0336 0.05661,-0.0203 z m -0.12349,-0.20656 c 0.03253,-0.0638 0.02517,-0.0849 -0.02958,-0.0849 -0.03564,0 -0.05102,0.0189 -0.05102,0.0627 0,0.0703 0.04924,0.0839 0.0806,0.0223 z m -1.900482,-0.44261 c -0.01155,-0.01 -0.03542,-0.0178 -0.05303,-0.0178 -0.0176,0 -0.03201,0.007 -0.03201,0.0178 0,0.01 0.02387,0.0178 0.05303,0.0178 0.02917,0 0.04357,-0.007 0.03201,-0.0178 z m 2.126021,-0.17885 c 0,-0.01 -0.01622,-0.0179 -0.03602,-0.0179 -0.01981,0 -0.02657,0.007 -0.015,0.0179 0.01155,0.01 0.02778,0.0178 0.03602,0.0178 0.0083,0 0.015,-0.007 0.015,-0.0178 z m -0.850407,-0.39343 c 0,-0.01 -0.01531,-0.0178 -0.03402,-0.0178 -0.0187,0 -0.03402,0.007 -0.03402,0.0178 0,0.01 0.01533,0.0178 0.03402,0.0178 0.01871,0 0.03402,-0.007 0.03402,-0.0178 z m -0.561942,-0.66281 c -0.02068,-0.0342 -0.02905,-0.0362 -0.05446,-0.0122 -0.03818,0.036 1.37e-4,0.0942 0.04602,0.07 0.01809,-0.01 0.02188,-0.0355 0.0085,-0.0577 z m -1.240923,0.0173 c 0,-0.0339 -0.103261,-0.14676 -0.124198,-0.13574 -0.0316,0.0166 0.05974,0.1741 0.09443,0.16282 0.01638,-0.006 0.02978,-0.0174 0.02978,-0.0271 z m -0.510242,-0.0242 c 0,-0.005 -0.01533,-0.0128 -0.03402,-0.0189 -0.01873,-0.006 -0.03402,-0.002 -0.03402,0.007 0,0.0104 0.0153,0.0189 0.03402,0.0189 0.0187,0 0.03402,-0.004 0.03402,-0.007 z m 1.996179,-0.1743 c -0.01081,-0.0142 -0.01892,-0.01 -0.02056,0.0109 -0.0017,0.0189 0.0066,0.0294 0.01788,0.0235 0.01127,-0.006 0.01251,-0.0213 0.0028,-0.0342 z m -1.633168,-0.32605 c -0.05769,-0.23459 -0.106767,-0.27374 -0.14453,-0.11531 -0.01487,0.0624 -0.02365,0.12029 -0.01953,0.1287 0.0041,0.007 -0.0094,0.026 -0.03011,0.0391 -0.02894,0.0184 -0.0076,0.0406 0.09235,0.0964 0.07148,0.0399 0.134237,0.0659 0.139458,0.0576 0.0052,-0.007 -0.01172,-0.10116 -0.03766,-0.20662 z m -0.466893,-0.006 c -0.0137,-0.11966 -0.0057,-0.13306 0.06646,-0.11271 0.07514,0.0211 0.118565,-0.0126 0.0697,-0.0542 -0.02346,-0.0198 -0.03805,-0.0205 -0.07169,-0.003 -0.05734,0.0302 -0.09666,0.0279 -0.09666,-0.006 0,-0.0152 0.04058,-0.046 0.09019,-0.0684 0.07185,-0.0326 0.08556,-0.0505 0.06738,-0.0886 -0.0307,-0.0644 -0.09585,-0.0602 -0.16529,0.0103 -0.04439,0.0451 -0.05457,0.0942 -0.04547,0.21908 0.01349,0.18487 0.0085,0.16988 0.05611,0.16988 0.02138,0 0.03371,-0.0283 0.02927,-0.067 z m 1.109555,0.0447 c -0.04159,-0.0733 -0.05613,-0.0862 -0.08661,-0.0762 -0.02097,0.006 -0.01309,0.0277 0.02069,0.0548 0.05963,0.0479 0.08574,0.0562 0.06593,0.0214 z m 0.491039,-0.15648 c 0,-0.01 -0.02296,-0.0179 -0.05102,-0.0179 -0.02807,0 -0.05103,0.007 -0.05103,0.0179 0,0.01 0.02296,0.0178 0.05103,0.0178 0.02806,0 0.05102,-0.007 0.05102,-0.0178 z m -0.460273,-0.0827 c 0.03354,-0.0241 0.0536,-0.0253 0.117214,-0.006 0.101571,0.0286 0.121106,0.0146 0.06527,-0.047 -0.03011,-0.0332 -0.07647,-0.0525 -0.13497,-0.056 -0.04901,-0.003 -0.124276,-0.0251 -0.167255,-0.0492 -0.113286,-0.0633 -0.202358,-0.058 -0.202358,0.0121 0,0.12333 0.217271,0.22277 0.322103,0.14739 z m 0.614267,0.0104 c 0.02715,-0.0231 -0.04839,-0.0741 -0.08981,-0.0606 -0.0166,0.006 -0.03017,0.0254 -0.03017,0.0445 0,0.0366 0.08274,0.0477 0.119977,0.016 z m 0.31081,-0.0273 c 0.01127,-0.0154 0.0031,-0.0372 -0.01807,-0.0483 -0.02811,-0.0148 -0.03854,-0.0148 -0.03854,-2.3e-4 0,0.011 -0.0093,0.0327 -0.02067,0.0483 -0.01138,0.0156 -0.0032,0.0283 0.01807,0.0283 0.0213,0 0.04793,-0.0126 0.05917,-0.0281 z m -1.673182,-0.20383 c -0.01296,-0.0348 -0.02842,-0.13031 -0.03437,-0.21229 -0.01293,-0.17823 -0.03105,-0.21226 -0.09748,-0.18326 -0.03496,0.0152 -0.03936,0.0374 -0.01744,0.0869 0.04582,0.10371 0.03995,0.26616 -0.0087,0.24058 -0.04051,-0.0212 -0.12143,-0.12428 -0.1539,-0.19586 -0.0099,-0.0218 -0.03927,-0.049 -0.06527,-0.0604 -0.03864,-0.0169 -0.04823,-0.01 -0.05255,0.0397 -0.0029,0.0331 -0.0022,0.0785 0.0014,0.10048 0.0092,0.056 -0.05893,0.1167 -0.117642,0.10486 -0.03498,-0.007 -0.04841,0.005 -0.04841,0.0418 0,0.0661 0.0326,0.11076 0.0716,0.0981 0.01675,-0.006 0.03045,-0.0325 0.03045,-0.0599 0,-0.0447 0.01,-0.0492 0.09355,-0.0418 0.194746,0.0173 0.280791,0.0465 0.274325,0.094 -0.0033,0.0247 0.01469,0.065 0.04018,0.0896 l 0.04631,0.0447 0.03081,-0.062 c 0.01696,-0.034 0.02022,-0.0904 0.0072,-0.12519 z m 1.029808,-0.0229 c -0.0077,-0.0122 -0.04169,-0.0251 -0.07535,-0.0286 -0.053,-0.006 -0.05491,-0.002 -0.01417,0.0217 0.05684,0.0339 0.109089,0.0378 0.08953,0.006 z m -0.586607,-0.0851 c 0.02738,-0.0232 -0.01215,-0.0893 -0.0535,-0.0893 -0.01744,0 -0.03172,0.0242 -0.03172,0.0536 0,0.0528 0.04362,0.0709 0.08522,0.0356 z m 0.816202,-0.0535 c 0.03424,-0.0349 0.03944,-0.0536 0.01483,-0.0536 -0.04862,0 -0.166685,0.076 -0.145742,0.0938 0.0317,0.027 0.07925,0.0124 0.130912,-0.0402 z m -1.853886,-0.0594 c 0,-0.0229 -0.03827,-0.0605 -0.08504,-0.0836 -0.09644,-0.0477 -0.11101,-0.0266 -0.0477,0.0689 0.04366,0.0659 0.132738,0.0758 0.132738,0.0147 z m 0.717789,-0.0531 c -0.06164,-0.0325 -0.08504,0.002 -0.03648,0.0545 l 0.04605,0.0493 0.01337,-0.0423 c 0.0074,-0.0232 -0.0029,-0.0509 -0.02294,-0.0614 z m 0.608844,0.059 c 0,-0.01 -0.01619,-0.0178 -0.03602,-0.0178 -0.01981,0 -0.02656,0.007 -0.015,0.0178 0.01155,0.01 0.02777,0.0178 0.03602,0.0178 0.0083,0 0.015,-0.007 0.015,-0.0178 z m -0.490793,-0.17438 c -0.01235,-0.0271 -0.03521,-0.0797 -0.05076,-0.11719 -0.01555,-0.0374 -0.06197,-0.0868 -0.103169,-0.10992 -0.05285,-0.0295 -0.07163,-0.0591 -0.06377,-0.10011 0.01035,-0.0542 0.0014,-0.0599 -0.133423,-0.0838 -0.152659,-0.0271 -0.166462,-0.0392 -0.108665,-0.096 0.04858,-0.0477 0.01211,-0.0994 -0.07904,-0.11189 -0.07112,-0.01 -0.07177,-0.0116 -0.01304,-0.034 0.04944,-0.019 0.05708,-0.0373 0.03806,-0.0904 -0.01309,-0.0366 -0.04978,-0.0765 -0.08156,-0.0886 -0.04716,-0.0178 -0.05756,-0.0515 -0.05664,-0.18286 0.0014,-0.16871 -0.03763,-0.23446 -0.177832,-0.30117 -0.09191,-0.0438 -0.176381,-0.0324 -0.249645,0.0336 -0.05431,0.049 -0.05567,0.0633 -0.01376,0.14679 0.03958,0.0788 0.03942,0.0956 -0.0011,0.11333 -0.06253,0.0273 -0.06192,0.16726 8.46e-4,0.20027 0.06907,0.0362 0.03239,0.17615 -0.04449,0.16957 -0.03836,-0.004 -0.05499,0.009 -0.05499,0.04 0,0.0246 -0.01731,0.0529 -0.03848,0.0627 -0.02116,0.01 -0.04807,0.0518 -0.05977,0.0934 -0.02617,0.0928 0.01967,0.089 0.164307,-0.0135 0.05504,-0.0389 0.118435,-0.0709 0.140882,-0.0709 0.05817,0 0.08813,-0.0788 0.04999,-0.13164 -0.03564,-0.0492 -0.0115,-0.16857 0.04131,-0.20381 0.02597,-0.0173 0.05333,-0.0122 0.119699,0.0227 0.07558,0.0397 0.0809,0.0503 0.04385,0.0867 -0.05484,0.0539 0.0061,0.18403 0.09165,0.1961 0.04968,0.006 0.04712,0.0102 -0.01636,0.0211 -0.07059,0.0119 -0.07416,0.0207 -0.05821,0.14048 0.02113,0.15875 0.04272,0.20048 0.09068,0.17527 0.02473,-0.013 0.02268,-0.035 -0.0067,-0.0722 -0.04074,-0.0517 -0.02757,-0.0915 0.03026,-0.0915 0.01534,0 0.0469,0.0242 0.07015,0.0536 0.04643,0.059 0.09099,0.0693 0.108055,0.0252 0.0074,-0.0192 0.04716,-0.002 0.121551,0.0542 0.128361,0.0959 0.136119,0.11735 0.04251,0.11735 -0.09712,0 -0.08411,0.0285 0.03402,0.0744 0.05612,0.0218 0.102042,0.053 0.102042,0.0691 0,0.0363 0.03017,0.0532 0.09467,0.0532 0.03658,0 0.04351,-0.0127 0.02682,-0.0492 z m -0.66576,-0.48838 c 0,-0.0104 0.0153,-0.0139 0.03402,-0.007 0.01871,0.006 0.03402,0.0146 0.03402,0.0189 0,0.005 -0.01531,0.007 -0.03402,0.007 -0.0187,0 -0.03402,-0.007 -0.03402,-0.0189 z m 1.02028,0.48838 c -1.03e-4,-0.0172 -0.02205,-0.0532 -0.04871,-0.0802 -0.02816,-0.0284 -0.0352,-0.0532 -0.0168,-0.0592 0.05645,-0.0183 0.03358,-0.0884 -0.03634,-0.11132 -0.04671,-0.0153 -0.06804,-0.0417 -0.06804,-0.0841 0,-0.0436 -0.02014,-0.0674 -0.06802,-0.0809 -0.03909,-0.011 -0.06804,-0.0375 -0.06804,-0.0622 0,-0.0516 -0.06015,-0.0767 -0.08892,-0.0373 -0.02437,0.0333 -0.08125,0.0373 -0.08095,0.006 1.02e-4,-0.0121 0.02351,-0.0459 0.05202,-0.0746 0.03081,-0.031 0.03936,-0.0588 0.02111,-0.0684 -0.01827,-0.01 -0.03891,0.002 -0.05096,0.0263 -0.01201,0.0251 -0.06906,0.0547 -0.140377,0.0725 -0.06607,0.0166 -0.120117,0.0382 -0.120117,0.0479 0,0.01 0.06123,0.0342 0.136063,0.0542 0.124591,0.0335 0.136067,0.0426 0.136067,0.10823 0,0.0519 0.01644,0.075 0.05953,0.0834 0.09219,0.0183 0.142601,0.063 0.108549,0.0964 -0.02119,0.0209 -0.0094,0.0389 0.04059,0.0629 0.03873,0.0184 0.0922,0.0555 0.118837,0.0827 0.05465,0.0556 0.114803,0.065 0.114493,0.0178 z m 0.333567,-0.007 c 0.05676,-0.0299 0.05103,-0.0681 -0.01023,-0.0681 -0.02806,0 -0.05102,0.006 -0.05102,0.0164 0,0.009 -0.0093,0.0292 -0.02067,0.0447 -0.02437,0.0333 0.02373,0.0374 0.08188,0.006 z m -1.198678,-0.0805 c -0.01581,-0.0216 -0.03126,-0.0239 -0.0596,-0.009 -0.02834,0.0149 -0.02616,0.0277 0.0084,0.0496 0.05276,0.0335 0.08601,0.006 0.05122,-0.0406 z m 1.398801,0.009 c -0.01081,-0.0142 -0.01892,-0.01 -0.02056,0.0109 -0.0017,0.0189 0.0066,0.0294 0.01788,0.0235 0.01127,-0.006 0.01251,-0.0213 0.0028,-0.0342 z m 0.465292,0.0121 c -0.01081,-0.0148 -0.02558,-0.0268 -0.03295,-0.0268 -0.0074,0 -0.01337,0.0121 -0.01337,0.0268 0,0.0148 0.01483,0.0269 0.03295,0.0269 0.01812,0 0.02414,-0.0121 0.01337,-0.0269 z m -2.019262,-0.0234 c 0,-0.0325 -0.09387,-0.0797 -0.13312,-0.0669 -0.03104,0.0101 -0.02676,0.0219 0.01713,0.0474 0.06075,0.0351 0.115998,0.0446 0.115998,0.0196 z m -0.530653,-0.0899 c -0.01713,-0.10505 -0.0163,-0.10391 -0.04763,-0.0656 -0.04415,0.054 -0.03977,0.10235 0.0085,0.0939 0.02337,-0.005 0.04098,-0.0169 0.03912,-0.0284 z m 2.060181,0.0194 c -8.46e-4,-0.006 -0.02307,-0.0337 -0.04982,-0.0581 -0.02674,-0.0246 -0.04915,-0.0796 -0.04981,-0.12189 -0.0014,-0.0886 -0.04934,-0.14636 -0.12146,-0.14636 -0.06579,0 -0.06393,0.0609 0.0028,0.0901 0.02892,0.0127 0.04369,0.035 0.03282,0.05 -0.0356,0.0488 0.01992,0.17935 0.07977,0.18772 0.0918,0.0129 0.10702,0.0127 0.105756,-0.002 z m 0.399808,-0.22334 c 0.03744,-0.0738 0.0068,-0.13316 -0.0579,-0.11215 -0.06543,0.0212 -0.06862,0.18795 -0.0036,0.18795 0.01268,0 0.04034,-0.0341 0.06151,-0.0759 z m -0.976881,0.006 c 0,-0.009 -0.0153,-0.0217 -0.03402,-0.0279 -0.01871,-0.006 -0.03402,0.002 -0.03402,0.0169 0,0.0153 0.01531,0.0279 0.03402,0.0279 0.0187,0 0.03402,-0.006 0.03402,-0.0169 z m -1.156552,-0.11836 c 0,-0.0141 -0.0153,-0.0258 -0.03402,-0.0258 -0.01871,0 -0.03402,0.0166 -0.03402,0.0368 0,0.0202 0.0153,0.0319 0.03402,0.0259 0.01871,-0.006 0.03402,-0.0227 0.03402,-0.0368 z m 1.42617,-0.051 c 0.02725,-0.0173 0.02855,-0.0288 0.0041,-0.0368 -0.0475,-0.0155 -0.103709,0.005 -0.103709,0.0363 0,0.0328 0.04814,0.033 0.09954,5.8e-4 z m -0.385154,-0.0944 -0.05181,-0.0503 -0.0014,0.0456 c -8.45e-4,0.0251 0.01758,0.0555 0.04073,0.0677 0.06381,0.0336 0.07156,-0.006 0.01244,-0.0631 z m -1.517244,-0.0324 c 0,-0.0246 -0.01531,-0.0447 -0.03402,-0.0447 -0.01871,0 -0.03402,-0.0283 -0.03402,-0.0627 0,-0.0549 0.01058,-0.0627 0.08504,-0.0627 0.101468,0 0.109377,-0.0192 0.02003,-0.0485 -0.05327,-0.0174 -0.06159,-0.0352 -0.04603,-0.0982 0.01046,-0.0423 0.0397,-0.0833 0.06501,-0.0911 0.05882,-0.0183 0.06023,-0.0841 0.002,-0.0841 -0.02432,0 -0.06259,0.01 -0.08504,0.0215 -0.03175,0.0167 -0.04082,0.0135 -0.04082,-0.0146 0,-0.0198 0.04351,-0.0595 0.09667,-0.0886 0.05317,-0.0289 0.106549,-0.0793 0.118632,-0.11182 0.02144,-0.0578 0.01939,-0.0591 -0.08621,-0.0536 -0.08997,0.006 -0.112952,0.0154 -0.136614,0.0636 -0.0341,0.0696 -0.07017,0.0737 -0.122358,0.0134 -0.02558,-0.0295 -0.06635,-0.0447 -0.119998,-0.0447 -0.07649,0 -0.08087,0.006 -0.07477,0.0972 0.0036,0.0534 0.02585,0.10945 0.04951,0.12444 0.02735,0.0173 0.03454,0.0476 0.01973,0.0831 -0.01282,0.0306 -0.01321,0.084 -8.45e-4,0.11861 0.01992,0.0557 0.03177,0.0617 0.105342,0.0519 0.05854,-0.007 0.08291,-0.004 0.08291,0.0144 0,0.0138 -0.02075,0.0294 -0.0461,0.0346 -0.02536,0.006 -0.05557,0.0401 -0.06717,0.0776 -0.01837,0.0595 -0.0092,0.0734 0.07161,0.10821 0.121838,0.0525 0.177731,0.0514 0.177731,-0.004 z m 2.492492,-0.0492 c 0.0097,-0.0328 -0.0014,-0.0697 -0.02497,-0.0849 -0.0231,-0.0148 -0.05249,-0.0423 -0.0653,-0.0611 -0.0164,-0.0242 -0.03395,-0.0287 -0.05934,-0.0153 -0.02528,0.0133 -0.02536,0.0295 -2.31e-4,0.0541 0.01969,0.0194 0.02676,0.0645 0.01569,0.10028 -0.01754,0.0569 -0.01138,0.0651 0.04853,0.0651 0.05125,0 0.07293,-0.0147 0.08565,-0.058 z m -1.030313,-0.009 c -8.45e-4,-0.054 -0.05824,-0.088 -0.106112,-0.0629 -0.03256,0.0172 -0.0281,0.0295 0.02086,0.058 0.07609,0.0442 0.08591,0.0447 0.08525,0.006 z m -0.12704,-0.0904 c 0.08368,-0.0378 0.07401,-0.0729 -0.0255,-0.0929 -0.107457,-0.0215 -0.106986,-0.0323 0.0022,-0.0541 0.119737,-0.0239 0.105101,-0.0979 -0.01937,-0.0979 -0.08679,0 -0.100249,-0.0222 -0.05148,-0.0845 0.01815,-0.0232 -0.0067,-0.0404 -0.1001,-0.0694 -0.09981,-0.0309 -0.122181,-0.0478 -0.113883,-0.0854 0.0098,-0.0443 0.01995,-0.0467 0.191157,-0.0442 0.146574,0.002 0.177176,-0.002 0.161578,-0.0238 -0.01058,-0.0146 -0.01923,-0.0426 -0.01923,-0.0623 0,-0.0323 -0.01453,-0.0346 -0.14457,-0.0232 -0.07951,0.006 -0.156809,0.0237 -0.171769,0.0374 -0.01495,0.0135 -0.04828,0.0248 -0.07405,0.0248 -0.06619,0 -0.07971,0.053 -0.03001,0.11772 0.02329,0.0303 0.05281,0.0966 0.06559,0.14723 0.01959,0.0777 0.01409,0.094 -0.03536,0.10393 -0.04485,0.009 -0.05372,0.0247 -0.03782,0.0664 0.02601,0.0683 0.114746,0.14136 0.155638,0.12808 0.01696,-0.006 0.04765,0.006 0.06824,0.0268 0.03806,0.0374 0.0694,0.0349 0.178582,-0.0146 z m 0.832063,-0.0759 c 0.04226,-0.0589 0.02207,-0.17196 -0.03393,-0.19015 -0.01904,-0.006 -0.05292,0.002 -0.07531,0.018 -0.05189,0.0374 -0.08502,0.0198 -0.08502,-0.0445 0,-0.0312 -0.02607,-0.0591 -0.06804,-0.0729 -0.03742,-0.0122 -0.06804,-0.0393 -0.06804,-0.06 0,-0.0515 -0.06739,-0.15305 -0.124693,-0.18804 -0.02586,-0.0159 -0.03785,-0.0413 -0.0266,-0.0567 0.01127,-0.0154 -0.0055,-0.0488 -0.03711,-0.0741 -0.05678,-0.0456 -0.05638,-0.0462 0.03144,-0.0462 0.04893,0 0.08895,-0.002 0.08895,-0.006 0,-0.003 -0.03632,-0.0452 -0.0807,-0.0935 -0.07349,-0.08 -0.07616,-0.0915 -0.02998,-0.12861 0.04113,-0.0329 0.0426,-0.0459 0.0078,-0.068 -0.03825,-0.0242 -0.04979,-0.0238 -0.106077,0.003 -0.03473,0.0166 -0.06315,0.0489 -0.06315,0.0719 0,0.0229 -0.03062,0.0518 -0.06804,0.0641 -0.09901,0.0325 -0.09378,0.14321 0.0085,0.17984 0.07277,0.0262 0.07363,0.0289 0.01746,0.0594 -0.05612,0.0304 -0.05546,0.034 0.01351,0.0726 0.06167,0.0345 0.06575,0.0449 0.02725,0.0693 -0.03794,0.024 -0.03736,0.0314 0.0036,0.0451 0.02686,0.009 0.07189,0.0163 0.100065,0.0166 0.02874,1.3e-4 0.08619,0.0415 0.130919,0.0942 0.167536,0.19737 0.216102,0.24589 0.246095,0.24589 0.01705,0 0.03098,-0.009 0.03098,-0.0201 0,-0.0134 0.0181,-0.0122 0.0541,0.004 0.04922,0.0215 0.04871,0.0256 -0.0057,0.0465 -0.04992,0.0192 -0.05337,0.0305 -0.02083,0.0681 0.05131,0.0592 0.08513,0.0568 0.132674,-0.01 z m -0.44386,-0.0931 c -0.0094,-0.0121 -0.01715,-0.002 -0.01715,0.0224 0,0.0246 0.0077,0.0346 0.01715,0.0223 0.0094,-0.0122 0.0094,-0.0324 0,-0.0447 z m -2.123033,-0.076 c -0.01254,-0.0264 -0.119449,-0.0217 -0.137022,0.006 -0.01035,0.0163 0.01012,0.022 0.0652,0.0178 0.04418,-0.004 0.0765,-0.014 0.07182,-0.0239 z m -0.156057,-0.29956 c -0.0094,-0.0122 -0.01715,-0.002 -0.01715,0.0223 0,0.0246 0.0077,0.0346 0.01715,0.0224 0.0094,-0.0122 0.0094,-0.0325 0,-0.0447 z m 0.181568,-0.0949 c 0,-0.0141 -0.02296,-0.0258 -0.05102,-0.0258 -0.05723,0 -0.05954,0.004 -0.03045,0.0431 0.02389,0.0327 0.08148,0.0206 0.08148,-0.0173 z m 0.884425,-0.0139 c 0,-0.0385 -0.03687,-0.0471 -0.105721,-0.0245 -0.08874,0.0291 -0.08054,0.0483 0.02068,0.0483 0.04819,0 0.08504,-0.0103 0.08504,-0.0239 z m -0.238115,-0.14823 c 0,-0.0419 -0.01569,-0.0605 -0.05134,-0.0605 -0.03935,0 -0.04929,0.0184 -0.04251,0.0788 0.0068,0.0606 0.01865,0.0745 0.05134,0.0605 0.02337,-0.0101 0.04253,-0.0456 0.04253,-0.0788 z m 0.816392,-0.0728 c 0,-0.0462 -0.0022,-0.0467 -0.04995,-0.0134 -0.06428,0.0446 -0.06458,0.0616 -0.0011,0.0616 0.03271,0 0.05102,-0.0173 0.05102,-0.0481 z m -0.952456,-0.0503 c -0.02329,-0.0148 -0.06344,-0.0269 -0.08921,-0.0269 -0.02577,0 -0.04686,0.012 -0.04686,0.0269 0,0.0171 0.03259,0.0269 0.0892,0.0269 0.07544,0 0.08267,-0.005 0.04686,-0.0269 z m 0.498374,-0.14922 c -0.01304,-0.0738 -0.0633,-0.175 -0.126566,-0.25484 -0.05771,-0.0729 -0.125322,-0.18073 -0.150256,-0.23975 -0.02495,-0.059 -0.06457,-0.15156 -0.08808,-0.20567 -0.02437,-0.056 -0.08054,-0.12018 -0.130632,-0.14913 l -0.08788,-0.0508 0.08504,0.006 c 0.05778,0.005 0.08852,0.0189 0.0959,0.0463 0.006,0.0222 0.03387,0.0402 0.06197,0.0402 0.03306,0 0.0478,-0.0142 0.04179,-0.0402 -0.0052,-0.0222 0.01876,-0.0784 0.05307,-0.12499 0.04257,-0.0579 0.05168,-0.0919 0.02866,-0.1073 -0.01853,-0.0124 -0.06146,-0.0629 -0.09537,-0.11196 -0.03392,-0.0492 -0.07234,-0.0975 -0.08538,-0.10732 -0.01304,-0.01 -0.03378,-0.0474 -0.04607,-0.0832 -0.02365,-0.069 -0.09685,-0.1151 -0.153631,-0.0967 -0.0187,0.006 -0.02533,0.0229 -0.01469,0.0376 0.02526,0.0346 -0.04746,0.0796 -0.128513,0.0796 -0.08887,0 -0.08243,-0.0627 0.0099,-0.0967 0.06755,-0.0249 0.07043,-0.033 0.03402,-0.097 -0.02189,-0.0384 -0.04003,-0.10106 -0.04035,-0.13926 -2.49e-4,-0.0385 -0.05441,-0.13715 -0.121471,-0.22148 -0.311878,-0.39213 -0.359852,-0.487 -0.376666,-0.74488 -0.01205,-0.18498 -0.03049,-0.25682 -0.08087,-0.31517 -0.03588,-0.0416 -0.06606,-0.10773 -0.06705,-0.14708 -0.0011,-0.0434 -0.03481,-0.0997 -0.08561,-0.14307 -0.0461,-0.0394 -0.08437,-0.0876 -0.08506,-0.10731 -8.46e-4,-0.0197 -0.02371,-0.0514 -0.0512,-0.0705 -0.02745,-0.0191 -0.04994,-0.0533 -0.04994,-0.0761 0,-0.0228 -0.03062,-0.0714 -0.06803,-0.10808 -0.03742,-0.0366 -0.06804,-0.0852 -0.06804,-0.10782 0,-0.0226 -0.02395,-0.0709 -0.05324,-0.10757 -0.04846,-0.0606 -0.05723,-0.0636 -0.09757,-0.035 -0.03917,0.0279 -0.04927,0.0284 -0.08683,0.005 -0.02337,-0.0149 -0.03439,-0.0433 -0.02448,-0.0631 0.02028,-0.0407 -0.06415,-0.14276 -0.118184,-0.14276 -0.01934,0 -0.02741,-0.0106 -0.01791,-0.0236 0.0095,-0.013 -0.0038,-0.0662 -0.0294,-0.11815 -0.03926,-0.0796 -0.06673,-0.23205 -0.08076,-0.44838 -0.0021,-0.0333 -0.01058,-0.0383 -0.03325,-0.0196 -0.01669,0.0139 -0.02225,0.038 -0.01231,0.0537 0.0285,0.0451 -0.08683,-0.0425 -0.131172,-0.0994 -0.02183,-0.0281 -0.04371,-0.0792 -0.04862,-0.11356 -0.0048,-0.0344 -0.01988,-0.0968 -0.03327,-0.1386 -0.01506,-0.0471 -0.0115,-0.076 0.0095,-0.076 0.07812,0 -0.03867,-0.19999 -0.245793,-0.42088 -0.161317,-0.17205 -0.265704,-0.25871 -0.398525,-0.33086 -0.09897,-0.0538 -0.252007,-0.13998 -0.340069,-0.19162 -0.15559,-0.0913 -0.231077,-0.11526 -0.231077,-0.0735 0,0.0112 -0.03298,0.0551 -0.0733,0.0976 -0.07214,0.0759 -0.07237,0.079 -0.01493,0.19866 0.0321,0.0669 0.06336,0.14566 0.06945,0.17518 0.03995,0.19338 0.06608,0.25521 0.123653,0.29253 0.03678,0.0239 0.08648,0.0379 0.114367,0.0323 0.06501,-0.0132 0.130661,-0.14449 0.104042,-0.20819 -0.01828,-0.0438 -0.0066,-0.0541 0.08924,-0.0792 0.06066,-0.0159 0.121718,-0.0228 0.135713,-0.0152 0.03181,0.0171 0.04546,0.13334 0.03674,0.31324 -0.0066,0.13496 -0.009,0.13859 -0.09175,0.13859 -0.132317,0 -0.109365,0.0503 0.142537,0.31296 0.09879,0.10297 0.189445,0.26919 0.214586,0.39345 0.02931,0.14486 0.220557,0.54721 0.297081,0.62501 0.03174,0.0323 0.06961,0.15857 0.09682,0.32294 0.0818,0.49402 0.249334,0.86724 0.389311,0.86724 0.01829,0 0.03324,0.0111 0.03324,0.0247 0,0.0135 0.02294,0.0346 0.051,0.0469 0.04393,0.0192 0.04819,0.0149 0.03071,-0.0311 -0.01715,-0.0451 -0.0043,-0.0593 0.0833,-0.0922 l 0.103606,-0.0388 0.03804,0.0374 c 0.02091,0.0206 0.02802,0.0613 0.01575,0.0907 -0.01345,0.0323 -0.006,0.0636 0.0189,0.0795 0.03226,0.0205 0.0319,0.0378 -0.0017,0.0804 -0.02713,0.0344 -0.03497,0.0885 -0.02141,0.14755 0.07071,0.30857 0.09252,0.37153 0.161359,0.46575 0.0702,0.0961 0.07207,0.10798 0.02402,0.15202 -0.03995,0.0365 -0.046,0.0708 -0.02583,0.14612 0.07778,0.29082 0.239608,0.4282 0.40929,0.34746 0.08532,-0.0406 0.121477,-0.0206 0.07004,0.0388 -0.04777,0.0551 -0.02779,0.128 0.08415,0.30708 0.04471,0.0715 0.08128,0.14207 0.08128,0.15681 0,0.0147 0.03662,0.0819 0.08138,0.14924 0.0591,0.0889 0.07651,0.14513 0.06361,0.20532 -0.01585,0.074 -0.01046,0.0829 0.0501,0.0829 0.03733,0 0.104376,0.015 0.148991,0.0332 0.04462,0.0184 0.111733,0.0384 0.149157,0.0448 0.03741,0.006 0.102617,0.0396 0.144881,0.074 0.04227,0.0344 0.09076,0.0626 0.107779,0.0626 0.01699,0 0.06404,0.0283 0.104503,0.0627 0.114021,0.097 0.148943,0.0801 0.124198,-0.0597 z m -0.794389,-0.9372 c -0.09007,-0.0518 -0.143643,-0.26379 -0.06671,-0.26379 0.05884,0 0.09736,0.1066 0.04978,0.13775 -0.04356,0.0285 -0.0017,0.0947 0.06011,0.0947 0.0268,0 0.04873,0.016 0.04873,0.0358 0,0.0451 -0.0066,0.0447 -0.09191,-0.005 z m -0.05437,-0.33409 c -0.04343,-0.0386 -0.04838,-0.0558 -0.01884,-0.0654 0.04458,-0.0146 0.165113,0.0534 0.165113,0.093 0,0.043 -0.08495,0.027 -0.146277,-0.0276 z m -0.837506,-1.80154 c -0.0017,-0.0115 -0.01152,-0.0356 -0.02227,-0.0536 -0.01862,-0.0312 -0.01765,-0.0312 0.01942,-7e-4 0.02144,0.0175 0.03147,0.0418 0.02227,0.0536 -0.01207,0.0157 -0.01746,0.0159 -0.01942,7.1e-4 z m -0.09411,-0.15794 c -0.02152,-0.0394 -0.081,-0.12385 -0.132201,-0.18778 -0.09535,-0.11906 -0.252602,-0.41072 -0.252602,-0.46851 0,-0.0695 0.05965,-0.0273 0.07827,0.0553 0.01081,0.0481 0.05124,0.11842 0.08977,0.15622 0.03854,0.0378 0.07007,0.0795 0.07007,0.0925 0,0.0306 0.09285,0.19048 0.15892,0.27381 0.02814,0.0355 0.04571,0.0838 0.03902,0.1073 -0.01012,0.0358 -0.01857,0.031 -0.05125,-0.0288 z m 2.370517,3.26928 c 0,-0.0256 -0.08765,-0.0323 -0.11541,-0.009 -0.0095,0.007 -0.008,0.0335 0.0032,0.0563 0.01961,0.0395 0.0229,0.0399 0.06639,0.009 0.02517,-0.0182 0.04574,-0.0435 0.04574,-0.0563 z m -1.859483,-0.0175 c 0.0306,-0.0161 -0.08061,-0.0792 -0.118101,-0.067 -0.01624,0.006 -0.01368,0.0252 0.0057,0.0442 0.03657,0.036 0.07316,0.0433 0.112355,0.0228 z m 0.192682,-0.0573 c 0,-0.0264 -0.09676,-0.0596 -0.136223,-0.0469 -0.02655,0.009 -0.02581,0.0193 0.0028,0.0373 0.04397,0.0279 0.133548,0.0342 0.133548,0.009 z m -1.918352,-5.9257 c -0.01208,-0.0317 -0.0808,-0.11019 -0.152726,-0.17438 -0.141248,-0.12601 -0.229233,-0.26548 -0.344341,-0.54587 -0.07566,-0.18428 -0.151018,-0.33686 -0.27383,-0.55438 -0.03887,-0.0688 -0.114746,-0.21372 -0.168611,-0.32193 -0.05387,-0.10818 -0.152596,-0.30133 -0.219405,-0.42919 -0.1801,-0.3447 -0.315279,-0.62997 -0.356636,-0.75259 -0.02017,-0.0598 -0.08288,-0.1837 -0.139334,-0.27527 -0.105859,-0.17171 -0.277109,-0.51158 -0.36065,-0.71579 -0.04564,-0.11157 -0.07452,-0.15977 -0.166097,-0.2772 -0.02302,-0.0296 -0.06083,-0.10193 -0.08403,-0.16095 -0.0232,-0.059 -0.06214,-0.13949 -0.08651,-0.17885 -0.09219,-0.14878 -0.321669,-0.61194 -0.321669,-0.64923 0,-0.0213 -0.03078,-0.0812 -0.0684,-0.13298 -0.03763,-0.0517 -0.0984,-0.1601 -0.135058,-0.24079 -0.03666,-0.0807 -0.104963,-0.20946 -0.15179,-0.28615 -0.04684,-0.0767 -0.107204,-0.1877 -0.134172,-0.24671 -0.02697,-0.059 -0.08266,-0.1717 -0.123751,-0.25037 -0.04109,-0.0786 -0.132901,-0.25977 -0.204018,-0.40238 -0.07112,-0.14263 -0.177476,-0.33978 -0.236352,-0.43815 -0.05887,-0.0984 -0.165743,-0.29553 -0.237486,-0.43815 -0.07174,-0.14262 -0.21625,-0.42685 -0.321136,-0.63163 -0.104882,-0.20478 -0.1907,-0.38514 -0.1907,-0.40082 0,-0.0157 -0.02253,-0.0695 -0.05008,-0.11947 -0.07538,-0.13698 -0.327099,-0.65279 -0.36025,-0.73823 -0.016,-0.0413 -0.07006,-0.14585 -0.120146,-0.23249 -0.05008,-0.0867 -0.127131,-0.22995 -0.171216,-0.31847 -0.04409,-0.0886 -0.125687,-0.24142 -0.181337,-0.33979 -0.172571,-0.30503 -0.512098,-0.96425 -0.511865,-0.99383 1.38e-4,-0.0155 -0.02146,-0.0637 -0.04796,-0.10729 -0.0265,-0.0436 -0.0574,-0.10133 -0.06868,-0.12837 -0.02314,-0.0555 -0.09019,-0.0636 -0.1596,-0.0194 -0.04158,0.0265 -0.04855,0.0222 -0.06369,-0.0403 -0.01353,-0.0556 -0.0327,-0.0711 -0.09355,-0.0758 -0.06376,-0.006 -0.07661,0.003 -0.077,0.0447 -2.49e-4,0.0277 -0.0089,0.0668 -0.01908,0.0869 -0.01231,0.0241 0.01661,0.0596 0.08551,0.10528 0.0703,0.0465 0.104111,0.0888 0.104111,0.13004 0,0.0894 0.11979,0.36292 0.190355,0.43467 0.02419,0.0246 0.06973,0.097 0.101203,0.16095 0.03147,0.0641 0.09452,0.18867 0.140118,0.2772 0.04558,0.0886 0.09606,0.19716 0.112171,0.24142 0.01609,0.0442 0.07019,0.14888 0.120171,0.23249 0.05,0.0836 0.105664,0.18822 0.123719,0.23248 0.135297,0.33172 0.250944,0.55949 0.317861,0.62607 0.02481,0.0247 0.07912,0.12124 0.120731,0.21461 0.04161,0.0934 0.0984,0.20194 0.126208,0.24128 0.02781,0.0394 0.06281,0.10372 0.07777,0.14307 0.01496,0.0394 0.06545,0.13916 0.112182,0.2218 0.04673,0.0826 0.102628,0.20337 0.124192,0.26825 0.02157,0.0649 0.07792,0.17835 0.125231,0.25212 0.13252,0.20665 0.175488,0.28948 0.317832,0.61263 0.0726,0.16483 0.154357,0.34187 0.181681,0.39344 0.02731,0.0516 0.07621,0.1501 0.108618,0.21896 0.03241,0.0688 0.126252,0.26199 0.208526,0.42921 0.212571,0.43204 0.431699,0.9003 0.518856,1.10878 0.04112,0.0984 0.127431,0.26846 0.191803,0.37801 0.06437,0.10955 0.131222,0.23429 0.148558,0.2772 0.04992,0.12357 0.09298,0.20626 0.118911,0.22831 0.01317,0.0112 0.08281,0.14696 0.154745,0.30166 0.07193,0.1547 0.145795,0.30542 0.164142,0.33494 0.01835,0.0296 0.05764,0.11603 0.08733,0.1923 0.11756,0.30202 0.167857,0.41696 0.194494,0.44449 0.02879,0.0298 0.265135,0.49123 0.292097,0.57034 0.0084,0.0246 0.05387,0.11312 0.101088,0.19672 0.04722,0.0837 0.09768,0.17616 0.112159,0.20566 0.06716,0.13693 0.118979,0.21679 0.156644,0.24143 0.02256,0.0148 0.05736,0.071 0.07732,0.12518 0.08027,0.21739 0.174929,0.41229 0.224943,0.46315 0.02906,0.0295 0.05283,0.0747 0.05283,0.10048 0,0.0258 0.01835,0.0644 0.04078,0.0859 0.04684,0.0449 0.06084,0.11276 0.05971,0.28943 -7.81e-4,0.12488 -2.5e-4,0.12546 0.178964,0.2405 0.288362,0.18496 0.517104,0.30941 0.53034,0.28854 0.01814,-0.0286 0.107768,-0.0235 0.130364,0.006 0.0377,0.0516 0.08924,0.0279 0.0669,-0.0308 z m -6.143512,-11.71173 c 0,-0.0196 -0.02055,-0.0613 -0.04569,-0.0929 -0.02512,-0.0316 -0.06556,-0.11389 -0.08986,-0.18275 -0.06615,-0.18747 -0.19379,-0.4547 -0.343188,-0.7185 -0.0734,-0.12962 -0.156128,-0.29057 -0.183833,-0.35767 -0.02771,-0.0671 -0.09641,-0.19044 -0.152668,-0.27404 -0.05626,-0.0836 -0.102503,-0.17001 -0.102755,-0.19206 -2.33e-4,-0.022 -0.02963,-0.0804 -0.06527,-0.12972 -0.03565,-0.0493 -0.05716,-0.10504 -0.04783,-0.12385 0.0098,-0.0195 -0.02064,-0.0633 -0.07126,-0.10243 -0.04854,-0.0376 -0.08825,-0.092 -0.08825,-0.12091 0,-0.0289 -0.06133,-0.15785 -0.136304,-0.28645 -0.07497,-0.1286 -0.158445,-0.27406 -0.185502,-0.32324 -0.02706,-0.0492 -0.120628,-0.21014 -0.207934,-0.35768 -0.0873,-0.14753 -0.21238,-0.38496 -0.277945,-0.52757 -0.06556,-0.14262 -0.195735,-0.38808 -0.289272,-0.54545 -0.09353,-0.15736 -0.197719,-0.33845 -0.23152,-0.40238 -0.129615,-0.24515 -0.207403,-0.38646 -0.24119,-0.43814 -0.04357,-0.0667 -0.08434,-0.14764 -0.144035,-0.28615 -0.12991,-0.30141 -0.343324,-0.70077 -0.402796,-0.75377 -0.07311,-0.0651 -0.151837,-0.0776 -0.186888,-0.0294 -0.03774,0.0517 0.08468,0.43235 0.156066,0.48524 0.07869,0.0584 0.23906,0.28674 0.278321,0.39646 0.04123,0.11521 0.237205,0.51062 0.326042,0.65783 0.02543,0.0421 0.04624,0.0913 0.04624,0.10901 0,0.0178 0.06692,0.14428 0.148714,0.28104 0.0818,0.13677 0.151228,0.27941 0.154299,0.31698 0.0031,0.0376 0.02697,0.0979 0.0531,0.13412 0.106227,0.14713 0.405165,0.70109 0.566296,1.04942 0.07279,0.15738 0.164103,0.3465 0.2029,0.42027 0.117678,0.22376 0.131629,0.25707 0.132474,0.31638 10e-4,0.063 0.0541,0.092 0.11263,0.0612 0.02081,-0.0109 0.06586,-0.0198 0.1001,-0.0198 0.058,0 0.05732,0.004 -0.01,0.0514 -0.06875,0.049 -0.07017,0.058 -0.02947,0.1907 0.0268,0.0873 0.06608,0.15161 0.105226,0.17218 0.03436,0.0181 0.06195,0.0428 0.06135,0.0553 -5.15e-4,0.0122 0.0636,0.14071 0.142694,0.28534 0.14066,0.25724 0.142436,0.26381 0.08081,0.29961 -0.0616,0.0358 -0.06087,0.0387 0.03234,0.13044 0.05245,0.0516 0.11424,0.10592 0.137326,0.12067 0.0231,0.0148 0.05914,0.0912 0.08011,0.16989 0.02097,0.0786 0.04561,0.15916 0.05472,0.17883 0.0091,0.0197 0.03424,0.08 0.05581,0.13414 0.02159,0.0541 0.05884,0.11041 0.0828,0.12518 0.02395,0.0148 0.05476,0.0509 0.06845,0.0805 0.03089,0.0666 0.04682,0.0721 0.217254,0.0758 0.116016,0.002 0.137329,-0.003 0.137329,-0.0326 z"
       style="fill:#000000;stroke-width:0.12312638" />
  </g>
</svg>
