<?xml version="1.0" encoding="UTF-8"?>
<svg width="20" height="34.999" version="1.1" viewBox="0 0 5.6444433 9.8773896" xmlns="http://www.w3.org/2000/svg" xmlns:cc="http://creativecommons.org/ns#" xmlns:dc="http://purl.org/dc/elements/1.1/" xmlns:rdf="http://www.w3.org/1999/02/22-rdf-syntax-ns#">
<metadata>
<rdf:RDF>
<cc:Work rdf:about="">
<dc:format>image/svg+xml</dc:format>
<dc:type rdf:resource="http://purl.org/dc/dcmitype/StillImage"/>
<dc:title/>
</cc:Work>
</rdf:RDF>
</metadata>
<g transform="translate(35.054 -183.56)">
<path d="m-30.375 193.42c-0.02368-8e-3 -0.06042-0.0197-0.0816-0.0246-0.0212-6e-3 -0.0661-0.0229-0.0998-0.0398-0.05167-0.026-0.06258-0.0345-0.06968-0.0546-0.01467-0.0411-0.04257-0.065-0.08992-0.0765-0.03752-9e-3 -0.04402-0.014-0.05717-0.0368-0.019-0.0338-0.0186-0.0455 2e-3 -0.0558 0.0318-0.0159 0.04113-0.024 0.04448-0.0391 0.0018-8e-3 0.0087-0.0184 0.01483-0.0224 9e-3 -6e-3 0.0082-9e-3 -0.0047-0.0203-0.01283-9e-3 -0.014-0.0159-6e-3 -0.0268 0.0057-7e-3 0.013-0.024 0.01633-0.0365 0.01217-0.0449 0.04007-0.0756 0.0685-0.0756 0.01483 0 0.01567-1e-3 0.017-0.0429 6.2e-4 -0.0167 0.0043-0.0352 0.0087-0.0413 0.0053-8e-3 0.0022-0.014-0.01183-0.0211-0.018-9e-3 -0.049-0.0369-0.049-0.0433 0-1e-3 0.01083-1e-3 0.024 5.9e-4 0.0291 5e-3 0.03028 5.6e-4 0.0043-0.0126-0.01083-6e-3 -0.0172-0.0126-0.01417-0.0148 3e-3 -2e-3 -3e-3 -7e-3 -0.01317-0.0117-0.02293-8e-3 -0.05857-0.0602-0.05857-0.0853 0-9e-3 0.0068-0.0271 0.015-0.0372 0.01517-0.0194 0.01533-0.0187-0.01217-0.0778-0.0038-8e-3 -3.12e-4 -0.0142 0.01167-0.0188 0.016-6e-3 0.01617-7e-3 0.0013-0.0194-0.0087-7e-3 -0.01583-0.0161-0.01583-0.0203 0-5e-3 -0.0053-7e-3 -0.01183-6e-3 -0.0077 8.4e-4 -0.01417-8e-3 -0.018-0.024-0.0033-0.014-0.0178-0.0434-0.0317-0.0657-0.014-0.0223-0.04308-0.0687-0.06462-0.10349-0.06387-0.1029-0.07873-0.11914-0.13184-0.14431-0.02672-0.0126-0.05263-0.0302-0.05877-0.0399-6e-3 -9e-3 -0.02382-0.0223-0.03957-0.0282-0.0194-7e-3 -0.02768-0.0142-0.02572-0.0215 4e-3 -0.0149 0.06802-0.0182 0.09652-5e-3 0.0194 8e-3 0.0196 8e-3 0.014-5e-3 -0.0033-7e-3 -1e-5 -0.0167 0.0082-0.0224 0.01583-0.0117 0.0188-0.0561 0.0042-0.0609-0.0052-1e-3 -0.0097-0.0126-0.0097-0.0229 0-0.0117-0.01467-0.0429-0.03252-0.0716-0.0178-0.0286-0.037-0.061-0.04248-0.0721-0.0053-0.0117-0.0211-0.0397-0.03468-0.0635-0.01367-0.0238-0.02472-0.045-0.02472-0.0471 0-2e-3 -0.0196-0.0296-0.0434-0.061-0.02387-0.0314-0.05153-0.0761-0.06148-0.0993-0.0305-0.0712-0.05803-0.1274-0.06748-0.13804-5e-3 -6e-3 -0.01183-0.0201-0.01517-0.032-0.0042-0.0148-0.01017-0.021-0.0186-0.0192-0.01367 2e-3 -0.05293-9e-3 -0.05293-0.017 0-2e-3 -0.01117-0.0126-0.02473-0.0237-0.02053-0.016-0.02423-0.0239-0.0218-0.047 0.0016-0.0153-3.13e-4 -0.0303-0.0042-0.0337-4e-3 -5e-3 -3e-3 -0.0156 2e-3 -0.0278 9e-3 -0.021 0.0082-0.0223-0.0238-0.0359-0.0182-7e-3 -0.03308-0.0184-0.03308-0.0238 0-6e-3 -0.0042-0.0117-0.0097-0.0126-0.0052-1e-3 -0.0097-9e-3 -0.0097-0.0182 0-0.0183-0.02337-0.0489-0.04798-0.0628-0.01-6e-3 -0.02462-0.0226-0.0324-0.0379-0.0192-0.0378-0.03412-0.0611-0.04637-0.0728-0.0073-7e-3 -0.0073-9e-3 6.2e-4 -0.0126 6e-3 -1e-3 0.011-5e-3 0.011-7e-3s-0.0053-5e-3 -0.01183-2e-3c-0.01033 1e-3 -0.02428-0.0126-0.0428-0.0432-3e-3 -6e-3 0.0027-0.0168 0.01217-0.0264 0.0196-0.019 0.01283-0.028-0.01467-0.019-0.0194 6e-3 -0.0294 5e-3 -0.0294-7e-3 0-6e-3 0.0058-6e-3 0.01433-6e-3 0.01 1e-3 0.01433-5.8e-4 0.01433-7e-3 0-7e-3 -0.0042-9e-3 -0.016-7e-3 -0.01617 5e-3 -0.03153-6e-3 -0.03182-0.0161-7e-5 -5e-3 0.0063-6e-3 0.01417-6e-3 0.02313 0 0.017-0.0198-0.0077-0.025-0.03592-7e-3 -0.04808-0.0184-0.04107-0.038 4e-3 -0.0117 0.0027-0.0177-0.0038-0.0177-0.0057 0-0.01-6e-3 -0.01-0.0126 0-7e-3 -0.0063-0.018-0.01417-0.0244-0.051-0.0408-0.07813-0.14175-0.04778-0.17748 0.03388-0.0399 0.04257-0.056 0.0427-0.0786 7e-5 -0.0167 0.0057-0.0258 0.0194-0.0323 0.01067-6e-3 0.0192-0.0126 0.0192-0.0168 0-5e-3 -0.0174-0.04-0.03848-0.0798-0.02117-0.0398-0.03752-0.074-0.03637-0.0762 0.0012-2e-3 -0.0027-8e-3 -0.0083-0.014-0.01433-0.014-0.06083-0.11846-0.06083-0.13722 0-0.0161-0.012-0.039-0.03453-0.0656-0.0073-8e-3 -0.01333-0.018-0.01333-0.0204 0-2e-3 -0.01483-0.0282-0.03277-0.0573-0.04177-0.0672-0.09382-0.1831-0.1256-0.27954-0.0174-0.0531-0.03428-0.0867-0.05678-0.11353-0.0176-0.021-0.04743-0.0677-0.06638-0.10383-0.09643-0.18387-0.12658-0.23853-0.17018-0.30877-0.02613-0.042-0.04753-0.0834-0.04753-0.0918 0-8e-3 -0.0042-0.0167-0.0093-0.0183-0.01483-5e-3 -0.03727-0.0499-0.059-0.11859-0.01117-0.0355-0.04097-0.0972-0.06772-0.1406-0.03038-0.0492-0.0507-0.0926-0.05597-0.11958-0.0047-0.0231-0.01267-0.0463-0.0178-0.0513-0.02238-0.0219-0.08837-0.14598-0.08332-0.15655 0.0038-8e-3 0.01267-0.0117 0.02928-0.0117 0.0192 0 0.02382-2e-3 0.02382-0.0126 0-0.0156-0.02572-0.0721-0.08378-0.18388-0.04657-0.0896-0.08113-0.15829-0.15057-0.29892-0.02428-0.0491-0.08332-0.16616-0.1312-0.25995-0.04788-0.0938-0.09717-0.1921-0.10954-0.21848-0.02517-0.0538-0.05147-0.10524-0.17636-0.34577-0.04757-0.0916-0.11077-0.21078-0.14043-0.26478-0.06807-0.12377-0.1021-0.19061-0.19836-0.38893-0.04242-0.0874-0.09343-0.19194-0.11338-0.23219-0.02-0.0401-0.07148-0.14476-0.11458-0.2322-0.11607-0.23553-0.1929-0.39056-0.21895-0.4417-0.01283-0.0251-0.03822-0.0761-0.05667-0.11352-0.0184-0.0376-0.05033-0.10115-0.0709-0.14135-0.04738-0.0926-0.2178-0.43708-0.26734-0.54009-0.02068-0.0429-0.05088-0.10209-0.0671-0.1312-0.06548-0.11776-0.1073-0.19827-0.1073-0.20664 0-6e-3 -0.0088-0.0223-0.0196-0.0386-0.02543-0.0387-0.12273-0.23034-0.1677-0.33015-0.0194-0.0432-0.065-0.14184-0.10133-0.21958-0.04092-0.0875-0.06387-0.14614-0.06022-0.15396 0.0073-0.0161 0.03967-0.035 0.06973-0.0411 0.03012-6e-3 0.11832 0.0126 0.13882 0.0282 0.01533 0.0126 0.11012 0.17073 0.27468 0.45949 0.05697 0.1 0.14092 0.24621 0.18658 0.32503 0.18412 0.31785 0.41651 0.74421 0.52031 0.95458 0.0184 0.0376 0.051 0.10103 0.07227 0.14133 0.0506 0.0959 0.0626 0.11901 0.12738 0.24483 0.08073 0.15688 0.31766 0.6004 0.4085 0.76472 0.02072 0.0376 0.04468 0.083 0.05327 0.10092 0.016 0.0338 0.27853 0.54077 0.3358 0.64863 0.0176 0.0334 0.043 0.0821 0.05623 0.1085 0.01317 0.0264 0.06502 0.1263 0.11508 0.22211 0.05003 0.0958 0.12618 0.24456 0.1692 0.33062 0.08408 0.16829 0.14323 0.28293 0.20182 0.3912 0.1319 0.24373 0.18404 0.33521 0.20103 0.35272 0.02648 0.0273 0.07063 0.0861 0.12557 0.16719 0.02538 0.0376 0.05257 0.0761 0.0604 0.0859 0.01383 0.0173 0.07388 0.13609 0.10643 0.21084 0.0088 0.0203 0.03568 0.0657 0.05972 0.10092 0.06862 0.10081 0.10927 0.17226 0.11988 0.21064 0.02372 0.0859 0.03068 0.10267 0.06723 0.16314 0.02128 0.0351 0.0579 0.10034 0.08137 0.14476 0.02347 0.0443 0.05527 0.10232 0.07063 0.12868 0.0549 0.094 0.11907 0.22676 0.15412 0.31865 0.02482 0.065 0.05533 0.1162 0.07417 0.12392 0.0097 5e-3 0.02182 5e-3 0.03733 1e-3 0.04128-8e-3 0.09018 0.0126 0.09018 0.0383 0 5e-3 0.01567 0.0163 0.03472 0.0274 0.03042 0.0177 0.03992 0.0203 0.07662 0.0203 0.0379 0 0.04247 1e-3 0.04773 0.014 0.0032 7e-3 0.01183 0.0243 0.019 0.0365 0.026 0.0448 0.06933 0.19875 0.0767 0.27258 0.0015 0.0153 0.0068 0.0335 0.012 0.0404 5e-3 7e-3 0.01233 0.0273 0.01617 0.0454 0.0038 0.0181 0.0168 0.0488 0.02878 0.0681 0.02873 0.0468 0.03842 0.1001 0.02457 0.13526-0.01067 0.0266-0.0083 0.0331 0.0577 0.17083 0.03773 0.0786 0.08317 0.16357 0.10092 0.18858 0.0178 0.0251 0.04157 0.0614 0.05288 0.0807 0.01133 0.0194 0.03467 0.0455 0.05182 0.058 0.0172 0.0126 0.04083 0.0383 0.05258 0.0568 0.0192 0.0307 0.02012 0.0366 0.0093 0.0587-0.01033 0.0215-0.0092 0.0313 0.0097 0.0796 0.01183 0.0301 0.0294 0.0696 0.03902 0.0876 0.0097 0.0181 0.02673 0.0572 0.03803 0.0869 0.01133 0.0299 0.04143 0.0855 0.06698 0.12364 0.02553 0.0383 0.0538 0.0876 0.06282 0.1099 0.02648 0.0651 0.08938 0.18325 0.1735 0.32558 0.03418 0.0579 0.07428 0.10827 0.0903 0.1134 0.0057 1e-3 0.0334 0.0196 0.06177 0.0397 0.04708 0.0331 0.07422 0.0489 0.14348 0.0835 0.0248 0.0126 0.05803 0.0609 0.0696 0.1015 0.0047 0.0163 0.01517 0.0271 0.03772 0.0383 0.0172 8e-3 0.0382 0.0225 0.04672 0.0313 0.0083 8e-3 0.02347 0.0187 0.03322 0.0224 0.0246 8e-3 0.03997 0.0259 0.0493 0.0537 0.0043 0.0126 0.01517 0.0362 0.02388 0.0513 0.0088 0.0154 0.02027 0.038 0.02558 0.0504 0.0052 0.0126 0.01583 0.033 0.02337 0.0454 0.02343 0.039 0.0062 0.0568-0.06507 0.068-0.02632 5e-3 -0.06468 0.0154-0.08528 0.0252-0.02058 9e-3 -0.04377 0.0177-0.05148 0.0177-0.0077 0-0.02882 5e-3 -0.0469 8e-3 -0.02573 6e-3 -0.03982 0.016-0.06513 0.0441-0.0293 0.0327-0.03748 0.0373-0.0885 0.0524-0.03092 8e-3 -0.0637 0.0163-0.07287 0.0163-0.0092 0-0.02138 6e-3 -0.02717 0.0126-9e-3 9e-3 -0.019 0.0126-0.06633 0.0145-0.07903 5e-3 -0.11887 9e-3 -0.17058 0.0287-0.0306 0.0117-0.0509 0.0233-0.06298 0.038-0.0098 0.0126-0.02867 0.0257-0.04187 0.0302-0.01367 6e-3 -0.02532 0.0141-0.027 0.0217-0.0042 0.0191-0.03258 0.0191-0.08443 1.8e-4zm0.06707-5e-3c0.01167-5e-3 0.01217-6e-3 3e-3 -0.0146-0.01283-0.0117-0.0077-0.0159 0.01633-0.0159 0.02218 0 0.05147-0.0182 0.04457-0.0275-0.01117-0.0154-0.0514-8e-3 -0.08742 0.0142-0.02993 0.0194-0.0332 0.0238-0.02488 0.0352 0.01 0.014 0.02437 0.0163 0.04843 8e-3zm-0.24-0.0915c0-0.0126-0.02242-0.0117-0.0271 1e-3 -0.0018 6e-3 3e-3 8e-3 0.012 8e-3s0.01517-6e-3 0.01517-0.0117zm0.1584-0.0173c0-0.018-0.0282-0.024-0.03627-7e-3 -0.0028 6e-3 -0.012 9e-3 -0.02043 9e-3 -0.0196 0-0.0192-1e-3 0.0038-0.0212 0.02357-0.0203 0.02407-0.0251 0.0023-0.0231-0.01367 1e-3 -0.01617-1e-3 -0.01383-0.0154 0.0038-0.0201-0.0232-0.0454-0.03928-0.037-0.0058 2e-3 -0.01167 0.0231-0.01317 0.0446-0.0032 0.0447 0.0092 0.0601 0.0516 0.0637 0.05388 6e-3 0.06502 1e-3 0.06502-0.0141zm0.1584-6e-3c0-0.0142-0.0047-0.0183-0.02532-0.0225-0.03062-6e-3 -0.03697-5e-3 -0.02333 8e-3 0.0057 6e-3 0.01467 0.0156 0.0198 0.0236 0.01233 0.0183 0.02882 0.0126 0.02882-9e-3zm-0.096-0.0225c0-2e-3 -0.0042-6e-3 -0.0097-6e-3 -0.0052 0-0.0097 5e-3 -0.0097 7e-3 0 6e-3 0.0042 6e-3 0.0097 6e-3 0.0052-1e-3 0.0097-6e-3 0.0097-7e-3zm0.14118-0.0477c0.02178-0.024 0.0087-0.0309-0.04712-0.0246-0.04613 6e-3 -0.05942 0.0195-0.03148 0.0342 0.02732 0.0142 0.0606 9e-3 0.0786-9e-3zm0.25243-6e-3c0-5e-3 -0.0087-7e-3 -0.0192-7e-3 -0.02097 0-0.02657 0.0126-0.0072 0.0166 0.01617 5e-3 0.0264-5.6e-4 0.0264-9e-3zm-0.1299 2e-3c7e-3 -6e-3 -0.025-0.0154-0.05187-0.0154-0.0264 0-0.0253 9e-3 0.0018 0.0149 0.02878 6e-3 0.0433 6e-3 0.0501 5.7e-4zm-0.58145-0.0261c0.01383-0.0208 0.01333-0.0295-0.0014-0.0294-0.02672 1.9e-4 -0.03542 8e-3 -0.02967 0.0266 7e-3 0.023 0.0172 0.0238 0.03113 2e-3zm0.78624 9e-3c0.0208-0.0117 0.01383-0.0244-0.01283-0.0244-0.02572 0-0.03902 9e-3 -0.02982 0.0228 0.0067 8e-3 0.0268 9e-3 0.0426 1e-3zm-0.62209-0.0253c0-2e-3 -0.0063-2e-3 -0.01433 1e-3 -8e-3 5e-3 -0.01433 8e-3 -0.01433 0.0117 0 2e-3 0.0063 2e-3 0.01433-1e-3 8e-3 -5e-3 0.01433-8e-3 0.01433-0.0117zm-0.24 1e-3c0-2e-3 -0.0047-5e-3 -0.01017-5e-3 -0.0057 0-0.0077 2e-3 -0.0042 5e-3 0.0032 2e-3 0.0078 6e-3 0.01017 6e-3 0.0023 0 0.0042-2e-3 0.0042-6e-3zm0.17164-0.0247c0.0083-2e-3 0.01017-7e-3 5e-3 -0.0117-0.0043-5e-3 -0.0068-0.0203-0.0053-0.0369 0.0023-0.0258 8.47e-4 -0.0292-0.01117-0.0238-0.02503 0.0117-0.03932 0.0351-0.0258 0.0435 0.0067 5e-3 0.0092 0.0117 6e-3 0.0155-0.01067 0.0145 6e-3 0.0212 0.03138 0.0126zm0.76071-9e-3c0.0033-1e-3 0.0083-9e-3 0.01167-0.0194 5e-3 -0.014 4.52e-4 -0.0191-0.03212-0.0376-0.02082-0.0126-0.03923-0.0236-0.04093-0.0263-0.0018-2e-3 -0.011-2e-3 -0.02352 1e-3 -0.01117 5e-3 -0.02727 6e-3 -0.03558 2e-3 -0.0184-5e-3 -0.03993-0.0279-0.04843-0.0541-0.0033-0.0117-0.01667-0.0245-0.02963-0.0309-0.01283-6e-3 -0.02337-0.014-0.02337-0.0173 0-5e-3 -0.0033-6e-3 -0.0077-6e-3 -0.01367 0-0.03072 0.0126-0.03072 0.0215 0 6e-3 -0.0092 0.0159-0.02048 0.0238-0.0174 0.0126-0.02318 0.014-0.0384 8e-3 -0.02403-7e-3 -0.02267-0.0126 0.0082-0.03 0.02048-0.0117 0.02397-0.0162 0.016-0.0226-0.0077-6e-3 -0.0052-0.0126 0.0098-0.0247 0.02228-0.0183 0.0361-0.0191 0.04363-2e-3 0.0067 0.0146 0.02333 0.0145 0.02753-5.6e-4 0.0018-6e-3 0.0088-0.0149 0.01567-0.0191 0.0068-5e-3 0.019-0.0145 0.02702-0.0229 0.01267-0.0126 0.01283-0.0174 0.0013-0.032-0.0073-8e-3 -0.01233-0.0216-0.01117-0.0277 0.0018-9e-3 -0.0022-0.0117-0.03078-9e-3 -0.02158 5.6e-4 -0.03857 6e-3 -0.04913 0.0126-0.01083 7e-3 -0.02262 9e-3 -0.03588 8e-3 -0.01133-1e-3 -0.0426 5e-3 -0.07462 0.0126-0.03022 8e-3 -0.06027 0.0146-0.0668 0.0146-0.02392 0-0.03478 0.0126-0.02253 0.0273 0.01583 0.0182 0.0082 0.0201-0.03888 8e-3l-0.04047-9e-3 0.02667-9e-3c0.02297-8e-3 0.02488-0.0117 0.01383-0.0183-0.02142-0.014-0.04772-9e-3 -0.0652 9e-3 -0.0088 9e-3 -0.02118 0.0176-0.02752 0.0176-0.014 0-0.06188 0.0322-0.06143 0.0413 2.4e-4 5e-3 7e-3 2e-3 0.0174-5e-3 0.0093-6e-3 0.02593-0.0126 0.03683-0.014 0.01633-2e-3 0.02082-5.6e-4 0.02562 0.0126 0.0062 0.0163 0.03157 0.021 0.0413 7e-3 0.0042-6e-3 0.01383-7e-3 0.037-6e-3 0.0186 1e-3 0.03402 8.5e-4 0.03787-2e-3 0.0078-6e-3 0.06292-7e-3 0.06292-8.4e-4 0 2e-3 -0.0042 6e-3 -0.0097 7e-3 -0.0052 1e-3 -0.0097 7e-3 -0.0097 0.0126 0 0.0126-0.0178 0.0126-0.0335 1e-3 -0.0063-6e-3 -0.01667-6e-3 -0.02267-6e-3 -0.01667 6e-3 -0.01317 0.0181 0.0058 0.0216 0.0092 1e-3 0.02483 7e-3 0.03468 0.0117 0.0098 6e-3 0.02712 8e-3 0.0384 8e-3 0.01183 0 0.02052 5e-3 0.02052 7e-3 0 5e-3 -0.0053 7e-3 -0.012 6e-3 -0.0067-5.8e-4 -0.012 5e-3 -0.012 8e-3 0 6e-3 -0.0077 9e-3 -0.02083 0.0117-0.04388 5e-3 -0.02627 0.0126 0.02537 0.0126 0.029 1.9e-4 0.0589 5e-3 0.06647 6e-3 0.0098 5e-3 0.01567 6e-3 0.0202 5.6e-4 0.0037-2e-3 0.01367-5e-3 0.02247-2e-3 0.01083 1e-3 0.02147-2e-3 0.0328-0.0126 0.01633-0.0149 0.03573-0.0175 0.0433-6e-3 2e-3 5e-3 -0.0077 0.0126-0.02162 0.0194-0.02777 0.0146-0.02617 0.031 0.0023 0.0246 0.05872-0.0126 0.07782 6e-3 0.03523 0.0355-0.0196 0.014-0.03063 0.0173-0.04508 0.0147-0.0188-5e-3 -0.0188-2e-3 -0.0011 9e-3 0.01383 9e-3 0.02937 0.0126 0.06603 0.0152 0.0548 2e-3 0.06322 1e-3 0.0394-8e-3 -0.01217-6e-3 -0.015-9e-3 -0.01033-0.0197 0.0093-0.0197 0.0688-0.0243 0.10962-8e-3 0.03282 0.0126 0.03652 0.0203 0.01467 0.03-0.01117 6e-3 -0.0174 6e-3 -0.02592 5.6e-4 -0.01667-8e-3 -0.03608-7e-3 -0.03608 5e-3 0 0.014 0.0196 0.0212 0.04728 0.018 0.01367-1e-3 0.02738-6e-3 0.03063-6e-3zm-0.37554-0.20253c0-2e-3 0.0042-6e-3 0.0097-6e-3 0.0052 0 0.0097 2e-3 0.0097 6e-3 0 2e-3 -0.0042 6e-3 -0.0097 6e-3 -0.0052 0-0.0097-2e-3 -0.0097-6e-3zm0.02938-7e-3c-0.0088-6e-3 -8e-3 -0.0117 0.0038-0.0226 0.01633-0.0166 0.05147-0.0226 0.03842-6e-3 -4e-3 6e-3 -0.0092 0.0152-0.01183 0.0226-5e-3 0.0155-0.01367 0.0174-0.03058 6e-3zm0.09062-0.0331c-0.0033-2e-3 -0.0013-6e-3 0.0042-6e-3 0.0057 0 0.01017 2e-3 0.01017 6e-3 0 2e-3 -0.0018 6e-3 -0.0042 6e-3 -0.0023 0-0.0068-2e-3 -0.01017-6e-3zm-0.0624 0.2396c0-8e-3 -0.02552-0.016-0.0352-0.0117-3e-3 1e-3 -3e-3 6e-3 1.58e-4 0.0117 0.0073 9e-3 0.03508 9e-3 0.03508 7e-5zm-0.144-0.0225c0-2e-3 -0.0018-6e-3 -0.0042-6e-3 -0.0023 0-0.0068 2e-3 -0.01017 6e-3 -0.0032 2e-3 -0.0013 6e-3 0.0042 6e-3 0.0057 0 0.01017-2e-3 0.01017-6e-3zm0.37441-7e-3c0-1e-3 -0.0042-5e-3 -0.0097-6e-3 -0.0052-1e-3 -0.0097-5.7e-4 -0.0097 2e-3 0 2e-3 0.0042 5e-3 0.0097 5e-3 0.0052 0 0.0097-1e-3 0.0097-2e-3zm-0.77384-0.0209c0.0082-0.0117 0.0077-0.0126-0.0087-0.0126-8e-3 0-0.01433 6e-3 -0.01433 9e-3 0 0.0126 0.01483 0.014 0.02298 1e-3zm0.22907-6e-3c5.63e-4 -2e-3 -0.0062-6e-3 -0.015-6e-3 -0.01133-1e-3 -0.01433 8.5e-4 -0.01017 6e-3 0.0062 8e-3 0.0235 8e-3 0.02522 5e-5zm0.34547-5e-3c5e-3 -0.014-5e-5 -0.0191-0.01317-0.0148-0.01083 5e-3 -0.01067 0.0273 2.58e-4 0.0273 0.0047 0 0.01067-6e-3 0.013-0.0126zm-0.3991-0.0268c-0.0037-7e-3 -0.0057-6e-3 -0.01133 2e-3 -0.0038 6e-3 -0.013 0.0117-0.02022 0.0117-0.01633 0-0.017 6e-3 -0.0016 0.0142 0.0092 6e-3 0.01433 5e-3 0.0246-7e-3 0.0072-7e-3 0.011-0.0168 0.0087-0.0216zm0.29469 8e-3c-0.01283-6e-3 -0.03707 7e-3 -0.0272 0.0155 0.0048 5e-3 0.01117 5e-3 0.02202-2e-3 0.01067-6e-3 0.01217-9e-3 0.0052-0.014zm0.14258 5e-3c-0.01467-7e-3 -0.02353-2e-3 -0.01533 8e-3 0.0043 6e-3 0.0092 7e-3 0.01667 5e-3 0.0072-5e-3 7e-3 -7e-3 -0.0012-0.0117zm-0.23622-0.0372c-0.0062-8e-3 -0.04028-9e-3 -0.04972-1e-3 -0.0037 5e-3 0.0058 0.0117 0.02103 0.0173 0.02683 0.0117 0.02772 0.0117 0.03078 1e-3 0.0018-6e-3 7.9e-4 -0.014-0.0022-0.0173zm0.59645 0.0142c-0.02573-0.0481-0.04208-0.0719-0.04912-0.072-0.0047 0-0.0057 9e-3 -0.0022 0.0208 4e-3 0.0126 0.0022 0.0232-5e-3 0.0279-0.0088 6e-3 -0.0063 9e-3 0.01183 0.0191 0.02772 0.0145 0.05113 0.0167 0.04442 5e-3zm-0.0839-0.052c0-8e-3 0.0053-0.0195 0.012-0.0251 0.01017-8e-3 0.0073-0.0148-0.02023-0.0428-0.03068-0.0313-0.05208-0.0401-0.06177-0.0264-0.0033 6e-3 -0.0072 6e-3 -0.01633 5.6e-4 -0.0093-5e-3 -0.0087-8e-3 0.0037-0.0175 0.0198-0.0148 0.02-0.0341 2.55e-4 -0.0379-0.02262-6e-3 -0.07353 0.0243-0.07353 0.0415 0 7e-3 0.0062 0.0163 0.01383 0.0195 0.01533 6e-3 0.04623 0.0441 0.04623 0.0568 0 8e-3 0.07703 0.0506 0.0888 0.0481 4e-3 -8.5e-4 0.0072-8e-3 0.0072-0.0163zm-0.46261 6e-3c0.0023-5e-3 -0.0013-6e-3 -0.0083-6e-3 -7e-3 1e-3 -0.01433 6e-3 -0.0168 8e-3 -0.0023 5e-3 0.0013 6e-3 0.0083 6e-3 0.0068-1e-3 0.01433-6e-3 0.0168-8e-3zm-0.2504-5e-3c-0.0032-1e-3 -0.01133-1e-3 -0.0184-5.6e-4 -0.0077 1e-3 -0.0053 2e-3 0.0058 5e-3 0.01017 2e-4 0.01583-1e-3 0.01267-2e-3zm-0.06822-0.0917c0.01183-5e-3 5.67e-4 -0.0264-0.01333-0.0264-0.0184 0-0.03003 0.0126-0.02063 0.021 0.01017 9e-3 0.0172 0.0117 0.034 6e-3zm0.99243-0.0237c0-5e-3 -0.0053-8e-3 -0.012-0.0117-0.0067-2e-3 -0.0168-8e-3 -0.02262-0.0141-0.01217-0.0117-0.03972-0.016-0.0539-8e-3 -0.0067 5e-3 1.9e-5 7e-3 0.02 0.0126 0.01617 6e-3 0.03422 0.0126 0.03983 0.0182 0.012 0.0126 0.02877 0.014 0.02877 2e-3zm-0.8633-5e-3c-3.95e-4 -1e-3 -6.75e-4 -7e-3 -6.75e-4 -0.0117 0-5e-3 -0.0042-7e-3 -0.0097-7e-3 -0.0052 0-0.0097 6e-3 -0.0097 0.0126 0 7e-3 0.0047 0.0126 0.01033 0.0117 0.0058-1e-3 0.01-5e-3 0.0097-6e-3zm-0.13512-0.0267c0-6e-3 -5e-3 -7e-3 -0.01133-6e-3 -0.0178 5e-3 -0.02077 0.014-0.0038 0.014 0.0083 0 0.01517-5e-3 0.01517-8e-3zm0.27646-0.0624c-0.0017-7e-3 -0.01-0.014-0.0196-0.0146-0.014-1e-3 -0.0168 2e-3 -0.0168 0.0223 0 0.0237 1.55e-4 0.0238 0.0196 0.0146 0.01217-6e-3 0.0186-0.0142 0.0168-0.0223zm-0.19486 0.0142c0.0063-5e-3 0.0015-8e-3 -0.01433-0.0146-0.0314-0.0126-0.04252-9e-3 -0.0463 9e-3 -3e-3 0.016-2e-3 0.0166 0.024 0.0126 0.015-1e-3 0.03142-6e-3 0.0367-8e-3zm0.32519-0.0309c0.0281-0.0328 0.02842-0.0385 0.0023-0.0419-0.02523-5e-3 -0.0443 1.6e-4 -0.0443 8e-3 0 2e-3 0.0063 6e-3 0.01433 6e-3 0.01633 0 0.0194 7e-3 0.0048 0.0126-0.01217 5e-3 -0.01267 0.0329-4.79e-4 0.0329 5e-3 0 0.01533-7e-3 0.02323-0.0163zm-0.09458-0.0419c0.011-0.0351 0.01217-0.0706 0.0028-0.0756-0.0098-6e-3 -0.05753 0.0334-0.05158 0.0414 0.0032 6e-3 -4.7e-5 0.0126-0.0073 0.0162-0.02543 0.0155-0.02547 0.0251-7e-5 0.041 0.01367 8e-3 0.02942 0.0146 0.03507 0.014 0.0057-1e-3 0.01517-0.0175 0.02117-0.0369zm-0.14324 0.0243c0.02368-8e-3 0.0444-0.0413 0.03793-0.0606-0.0033-9e-3 -0.0073-0.0351-0.0088-0.0551-0.0022-0.0345-0.0174-0.0554-0.03608-0.0492-0.0047 1e-3 -0.0087 9e-3 -0.0088 0.0189-4.8e-4 0.0243-0.01517 6e-3 -0.02307-0.0273-0.0092-0.0399-6.2e-4 -0.0546 0.03073-0.0533 0.02177 8.5e-4 0.02633 6e-3 0.0371 0.0287 0.0068 0.0153 0.01233 0.035 0.01267 0.0441 5.64e-4 0.0219 0.03187 0.039 0.05822 0.0315 0.02373-6e-3 0.0237-9e-3 -3.97e-4 -0.0317-0.01133-9e-3 -0.02-0.0274-0.02087-0.042-8.18e-4 -0.014-0.0068-0.0281-0.01333-0.0322-0.01667-0.0117-0.02128-0.0467-0.0062-0.0491 0.0067-1e-3 0.01183-6e-3 0.01183-9e-3 0-6e-3 0.0028-6e-3 0.0063-6e-3 0.0067 5e-3 0.0083 9e-3 0.018 0.061 0.0058 0.031 0.03283 0.0583 0.0576 0.0583 0.0073 0 0.0206 6e-3 0.02927 0.0126 0.02328 0.0187 0.0308 0.0154 0.0266-0.0117l-0.0038-0.024 0.018 0.0203c0.01 0.0117 0.02927 0.0231 0.04333 0.0264 0.02347 6e-3 0.0253 6e-3 0.0253-6e-3 0-0.0188-0.02933-0.0959-0.03833-0.10069-0.0043-2e-3 -0.01117 6e-3 -0.01483 0.0189-0.0068 0.0233-0.02368 0.0324-0.02368 0.0126 0-0.0286-0.0334-0.10255-0.05318-0.11789-0.02157-0.0167-0.0259-0.0224-0.03747-0.0497-0.0048-0.0117-0.01-0.014-0.02438-0.0117-0.01517 2e-3 -0.0196-1.8e-4 -0.02513-0.0159-0.0038-0.0117-2e-3 -0.0285 0.0042-0.0407 0.015-0.0294 0.01383-0.053-3e-3 -0.0649-0.01283-8e-3 -0.01417-8e-3 -0.01433-1e-3 -8.2e-4 0.0243-0.03843-9e-3 -0.03867-0.0352-7e-5 -0.0126-0.018-6e-3 -0.02157 7e-3l-0.0037 0.014-0.01233-0.0152c-0.0068-8e-3 -0.01483-0.0238-0.0176-0.0342-0.0058-0.0222-0.02408-0.0224-0.03158-5.7e-4 -0.0042 0.0126-0.0062 0.0126-0.012 6e-3 -0.01233-0.0167-0.0078-0.0425 0.0082-0.0457 0.0174-5e-3 0.01483-0.0265-0.0028-0.0246-0.012 1e-3 -0.0168-6e-3 -0.0263-0.035-0.0078-0.0243-0.02118-0.0282-0.0292-8e-3 -5e-3 0.0126-0.01067 0.0147-0.02718 0.014-0.01433-1e-3 -0.0198-6e-3 -0.0176-0.0117 0.0018-6e-3 0.0032-0.0153 3e-3 -0.0222-2.4e-4 -7e-3 2.38e-4 -0.0388 8.95e-4 -0.0707 0.0022-0.0961-6.24e-4 -0.10839-0.03703-0.15953-0.0188-0.0265-0.03183-0.0495-0.02883-0.051 0.0082-6e-3 0.06298 0.0588 0.06972 0.0805 0.0097 0.0309 0.0248 0.0223 0.0172-9e-3 -0.0068-0.0289-0.0478-0.0879-0.0756-0.10862-0.0082-6e-3 -0.015-0.0209-0.015-0.0328 0-0.0184 0.0032-0.0219 0.0233-0.0245 0.01283-1e-3 0.0309-7e-3 0.0402-0.0126 0.015-8e-3 0.01533-0.0126 4e-3 -0.0286-7e-3 -9e-3 -0.01217-0.0282-0.01133-0.0399 0.0012-0.0161-0.0037-0.0238-0.0196-0.0316-0.01167-6e-3 -0.02442-9e-3 -0.02852-9e-3 -0.0093 0-0.0264 0.0156-0.0518 0.0478-0.011 0.014-0.02598 0.0252-0.03342 0.0252-0.0178 0-0.03778-0.0212-0.03797-0.0407-2.39e-4 -0.0232 0.02807-0.0622 0.04962-0.0684 0.0182-6e-3 0.0182-6e-3 0.0023-0.0149-0.0092-6e-3 -0.02493-9e-3 -0.03502-9e-3 -0.03327 0-0.05702-0.0117-0.07703-0.0344-0.01083-0.0126-0.02773-0.0265-0.0375-0.0301-0.0098-5e-3 -0.0178-0.0117-0.018-0.0176-1.58e-4 -6e-3 -0.0088-0.021-0.0192-0.0331-0.01033-0.0126-0.019-0.0259-0.019-0.0306 0-0.0117-0.02177-0.0357-0.03153-0.0357-0.0042 0-0.0028 6e-3 3e-3 9e-3 0.01267 0.0126 0.0088 0.0462-0.0053 0.0488-0.0058 1e-3 -0.0172-0.0182-0.02667-0.045-0.0092-0.0258-0.0192-0.0518-0.02228-0.0581-0.0042-8e-3 -0.0015-0.0117 0.01017-0.0117 0.01633 0 0.019 2e-3 0.02928 0.0272 0.01233 0.0295 0.01667 7e-3 0.0047-0.0243-0.0093-0.0252-0.01517-0.0317-0.02428-0.0279-0.015 6e-3 -0.0208 1e-3 -0.02887-0.025-0.0033-0.0117-0.01-0.0223-0.01417-0.0237-0.013-5e-3 -0.02798 0.016-0.02877 0.0391l-6.78e-4 0.0218-0.01233-0.0176c-0.0093-0.014-0.0174-0.0174-0.03288-0.0163-0.01667 1e-3 -0.02048-1e-3 -0.02048-0.0126 0-0.014-0.01483-0.0264-0.03173-0.0264-0.0048 0-0.0062 5e-3 -3e-3 7e-3 3e-3 5e-3 3e-3 0.0181-3.97e-4 0.0306-0.0042 0.0167-0.0088 0.0212-0.01667 0.0173-0.013-7e-3 -0.0082-0.0707 6e-3 -0.0797 7e-3 -6e-3 0.0068-9e-3 -8.93e-4 -0.0191-6e-3 -7e-3 -0.011-0.017-0.011-0.0223 0-0.0117-0.0194-0.0352-0.02848-0.0352-0.0033 0-0.0052 0.0345-4e-3 0.0769 0.0023 0.0821-2e-3 0.0916-0.0407 0.0866-0.0184-2e-3 -0.0229-1e-3 -0.0229 7e-3s0.0058 9e-3 0.0384 8e-3c0.03328-1e-3 0.0384 5.6e-4 0.0384 9e-3 0 6e-3 0.0042 0.0126 0.0097 0.0155 0.0052 2e-3 0.01367 0.0163 0.0184 0.0301 0.0077 0.0216 7e-3 0.0237-0.0042 0.0156-0.01567-0.0117-0.0333-7e-3 -0.03383 8e-3 -3.97e-4 9e-3 -0.0022 9e-3 -0.0168-5e-3l-0.01633-0.0153-3e-3 0.0188c-0.0016 9e-3 0.0016 0.0232 0.0072 0.0287 0.0057 6e-3 0.01017 0.0204 0.01017 0.0334 0 0.0141 0.0058 0.0264 0.01433 0.031 8e-3 5e-3 0.01433 0.0166 0.01433 0.0279 0 0.0162 4e-3 0.0209 0.0194 0.023 0.01617 2e-3 0.0192 6e-3 0.0182 0.026-0.0011 0.021 0.0042 0.0406 0.016 0.0606 0.0032 6e-3 7e-3 6e-3 0.018 8.5e-4 0.01133-6e-3 0.015-5e-3 0.0198 8e-3 0.0032 7e-3 0.012 0.0233 0.0194 0.0344 0.01583 0.0237 0.018 0.0481 0.0088 0.0939-0.0047 0.0229-0.0033 0.0344 4e-3 0.037 6e-3 1e-3 0.01083 8e-3 0.01083 0.0142 0 0.0126 0.0168 0.042 0.03567 0.0609 0.0077 7e-3 0.01167 0.0173 0.0088 0.0212-0.0062 8e-3 0.01617 0.0126 0.0593 0.0117 0.03923-1e-3 0.05203 8e-3 0.0479 0.0386l-3e-3 0.0212-0.016-0.0153c-0.01433-0.014-0.0168-0.0142-0.02322-6e-3 -0.0077 9e-3 0.0092 0.061 0.02668 0.0813 0.0058 6e-3 0.0168 0.0126 0.02457 0.0148 0.011 2e-3 0.01283 4e-5 0.0082-9e-3 -0.0033-7e-3 -0.0083-0.0233-0.01117-0.0366l-5e-3 -0.0239 0.0295 0.0315c0.01617 0.0174 0.03113 0.0315 0.03318 0.0315 2e-3 0 0.0014-0.0142-0.0013-0.0315-0.0047-0.0294-4e-3 -0.031 0.011-0.0236 0.0098 6e-3 0.0182 0.0196 0.02163 0.0379 3e-3 0.0163 0.0092 0.0322 0.01367 0.0351 0.0043 2e-3 0.013 0.0336 0.019 0.0681 6e-3 0.0344 0.0194 0.0797 0.02998 0.10057 0.01067 0.0209 0.02342 0.0695 0.02863 0.10851 9e-3 0.0664 0.01083 0.0826 0.01567 0.13834 0.0022 0.025 0.0093 0.0243 0.02712-5e-3 0.0087-0.0126 0.0097-0.0279 0.0037-0.0517-0.01383-0.0546-0.0209-0.13776-0.01133-0.13468 0.0088 2e-3 0.02143 0.0341 0.02423 0.0595 8.2e-4 7e-3 0.0048 0.0153 0.0087 0.0174 0.01083 6e-3 0.0087-0.0743-0.0032-0.11422-0.01433-0.0487-0.0077-0.0588 0.0168-0.0251 0.01533 0.0212 0.02127 0.0447 0.02568 0.10092 0.0032 0.0401 0.0087 0.086 0.012 0.1015 4e-3 0.0177 0.0027 0.0295-0.0038 0.0316-0.01167 5e-3 -0.0258-0.0243-0.01617-0.0322 0.0068-6e-3 -0.01117-0.0202-0.0253-0.0202-0.014 0-0.0093 0.0296 7e-3 0.0467 0.01417 0.0145 0.01417 0.0168 0 0.0295-0.017 0.0152-0.02133 0.0602-0.0058 0.0602 0.0052 0 0.0097-7e-3 0.0097-0.0173 0-0.0181 0.02292-0.0285 0.0328-0.0149 3e-3 5e-3 0.0057 0.0343 0.0057 0.067 0 0.0392 5e-3 0.0684 0.01517 0.086 0.01033 0.0184 0.01417 0.042 0.01217 0.0757-0.0032 0.0538 0.0082 0.0708 0.05477 0.082 0.013 5e-3 0.02348 7e-3 0.02348 0.0117 0 2e-3 0.0083 5e-3 0.0188 2e-3 0.01283-1e-3 0.0207 5.6e-4 0.02463 7e-3 6e-3 9e-3 0.02083 0.0126 0.03907 6e-3zm-0.11993-0.0719c-0.0063-0.0117-0.0067-0.0709-3.95e-4 -0.0763 0.015-0.0126 0.0178-1e-3 0.0098 0.0387-0.0043 0.0222-0.0088 0.0391-0.0097 0.0377zm0.26777-0.13119c0-6e-3 0.0042-9e-3 0.0097-9e-3 0.0052 0 0.0097 6e-3 0.0097 9e-3 0 6e-3 -0.0042 9e-3 -0.0097 9e-3 -0.0052 0-0.0097-6e-3 -0.0097-9e-3zm-0.22853-0.0226c2.38e-4 -8e-3 0.0023-0.0117 0.0048-6e-3 0.0023 6e-3 0.0022 0.0126-3.93e-4 0.0153-0.0027 5e-3 -0.0047-5.6e-4 -0.0043-8e-3zm0.20665-0.0547c-0.0038-5e-3 -0.0068-0.0126-0.0067-0.0176 3.1e-4 -7e-3 0.0013-7e-3 0.01017 5.6e-4 0.0053 6e-3 0.0083 0.0126 0.0067 0.0176-3e-3 7e-3 -4e-3 7e-3 -0.01017-5.6e-4zm-0.1685-0.0126c-6e-3 -8e-3 -0.0067-0.0154-0.0013-0.0154 0.01 0 0.02397 0.0244 0.01633 0.0282-0.0027 1e-3 -0.0093-6e-3 -0.015-0.0126zm0.09657-0.0189c-0.0057-7e-3 -0.01267-0.0202-0.01583-0.0274-0.0033-8e-3 -0.01167-0.0126-0.02067-0.0126-0.0186 8.4e-4 -0.03938-0.0282-0.04772-0.0672-0.0033-0.0154-0.01217-0.046-0.0196-0.0677-0.0077-0.0218-0.01333-0.0456-0.01317-0.053 3.93e-4 -0.0126 0.0012-0.0126 0.01583 6e-3 0.0083 9e-3 0.018 0.0266 0.02122 0.0373 0.0032 0.0117 0.01167 0.0209 0.0188 0.0222 0.01 1e-3 0.01133-1e-3 0.0063-0.014-0.0047-0.0117-3e-3 -0.0156 5e-3 -0.0156 0.02208 0 0.03722 0.0176 0.03752 0.0439 1.59e-4 0.0145 0.0043 0.032 0.0097 0.0391 5e-3 7e-3 0.01 0.0215 0.01083 0.032 8.18e-4 0.0117 6e-3 0.0331 0.01167 0.0506 7e-3 0.0218 7e-3 0.0331 2.39e-4 0.037-0.0068 5e-3 -0.013 8.5e-4 -0.02012-8e-3zm-0.03577-0.0874-0.01283-0.0278-8.2e-4 0.023c-4.79e-4 0.0126 0.0042 0.0257 0.01067 0.0289 0.0168 8e-3 0.017 6e-3 3e-3 -0.0243zm-0.0174-0.0413c-3e-3 -5e-3 -0.0053-2e-3 -0.0058 5e-3 -4.8e-4 6e-3 0.0018 8e-3 5e-3 6e-3 0.0032-1e-3 0.0033-6e-3 7.91e-4 -9e-3zm-0.13587 0.0784c-0.0037-0.0273-0.013-0.0782-0.02097-0.11282-8e-3 -0.0348-0.016-0.0722-0.0178-0.0833-0.0033-0.0209-0.02622-0.0792-0.04133-0.10594-0.0048-8e-3 -0.0052-0.0196-0.0011-0.0252 0.0042-6e-3 0.0078-7e-3 0.0082-2e-3 3.95e-4 5e-3 0.0082 0.0117 0.0174 0.0169 0.0092 6e-3 0.0176 0.0159 0.0188 0.0231 6e-3 0.04 0.0353 0.11609 0.04902 0.12699 0.03013 0.024 0.04018 0.0365 0.04018 0.0502 0 7e-3 5e-3 0.0267 0.011 0.0426 0.0083 0.0217 0.0083 0.0302 0 0.0348-0.0083 6e-3 -0.01117 8.5e-4 -0.01133-0.0141-2.4e-4 -0.0117-0.0062-0.0267-0.01317-0.035l-0.01283-0.0152-0.0063 0.0126c-0.0077 0.0148-0.0077 0.0183 3.95e-4 0.0798 0.0038 0.0296 0.0023 0.0489-0.0038 0.0523-0.0068 5e-3 -0.01183-0.0117-0.01617-0.0446zm0.0789 0.037c-4e-3 -5e-3 -0.0068-0.0163-0.0067-0.0252 6.2e-4 -0.0155 8.18e-4 -0.0156 0.01-5e-3 0.0052 7e-3 0.0082 0.0182 0.0067 0.0253-0.0023 0.0117-0.0038 0.0117-0.01 5e-3zm0.108-0.16491c0-2e-3 0.0042-6e-3 9e-3 -6e-3 5e-3 0 0.01183 2e-3 0.015 6e-3 0.0032 2e-3 -8.19e-4 6e-3 -9e-3 6e-3 -0.0082 0-0.015-2e-3 -0.015-6e-3zm-0.05683-0.0331c4.8e-4 -6e-3 0.0028-7e-3 0.0058-2e-3 0.0028 5e-3 0.0023 8e-3 -7.9e-4 9e-3 -0.0032 1e-3 -0.0053-1e-3 -5e-3 -6e-3zm-0.13837-0.0964c-0.0033-1e-3 -0.0063-9e-3 -0.0063-0.0181 0-0.0202 0.02308-0.0154 0.027 5e-3 0.0028 0.0149-0.0058 0.0203-0.0206 0.0126zm-0.08803-0.10127c-0.0032-0.0117-0.0073-0.0231-0.0092-0.0279-0.0047-0.0126 0.01117-0.0163 0.0176-6e-3 0.01317 0.0236 0.01667 0.046 0.0073 0.0489-6e-3 1e-3 -0.01233-6e-3 -0.01583-0.0159zm-0.03357-0.0721c0-6e-3 0.0042-9e-3 0.0097-9e-3 0.0052 0 0.0097 6e-3 0.0097 9e-3 0 6e-3 -0.0042 9e-3 -0.0097 9e-3 -0.0052 0-0.0097-6e-3 -0.0097-9e-3zm0.06348-0.051c-0.011-0.0184-0.013-0.03-0.0053-0.0323 0.0093-5e-3 0.0241 0.0317 0.01533 0.0364-0.0032 1e-3 -0.0077-1.6e-4 -0.0098-5e-3zm-0.07587-0.0394c-0.02223-0.0371-0.02038-0.0483 0.0033-0.0208 0.01067 0.0126 0.018 0.0282 0.01617 0.0352-0.0027 9e-3 -0.0067 7e-3 -0.0196-0.0146zm-0.18132-1e-3c-0.02028-0.0163-0.03468-0.0527-0.0188-0.0477 6e-3 1e-3 0.011 7e-3 0.011 0.0117 0 5e-3 0.0068 8e-3 0.01517 0.0117 0.01017 2e-3 0.01417 9e-3 0.012 0.0216l-0.0032 0.017zm0.24246-7e-3c4.78e-4 -6e-3 0.0028-7e-3 0.0058-2e-3 0.0028 5e-3 0.0023 8e-3 -7.9e-4 9e-3 -0.0032 1e-3 -0.0053-1e-3 -5e-3 -6e-3zm-0.0864-0.0454c4.8e-4 -6e-3 0.0028-7e-3 0.0058-5e-3 0.0028 5e-3 0.0023 8e-3 -7.9e-4 9e-3 -0.0032 1e-3 -0.0053-1e-3 -5e-3 -6e-3zm-0.2894-0.0205c-0.0053-7e-3 -7e-3 -0.0201-0.0038-0.028 0.0048-0.0117 0.01-0.014 0.0244-0.0117 0.01017 1e-3 0.0184 5.6e-4 0.0184-2e-3 0-2e-3 0.0042-6e-3 0.0097-6e-3 0.0052 0 0.0097 6e-3 0.0097 0.014 0 0.0117-0.0027 0.0126-0.01167 7e-3 -0.02187-0.0117-0.0291-6e-3 -0.02258 0.0167 0.0073 0.0257-8e-3 0.0315-0.02412 8e-3zm0.33859-0.0624c-0.0063-6e-3 -0.0182-9e-3 -0.02603-9e-3 -0.0078 0-0.01433-2e-3 -0.01433-6e-3 0-2e-3 0.0037-6e-3 8e-3 -6e-3 0.01067 0 0.0541 0.0246 0.04853 0.0274-0.0023 1e-3 -0.0097-1e-3 -0.01617-7e-3zm-0.3245-0.0321c-0.0168-0.0279-0.01317-0.046 0.0082-0.0421 8e-3 1e-3 0.012 0.014 0.01217 0.0357 7e-5 0.0184-7.9e-4 0.0336-0.0018 0.0336-0.0012 0-0.0093-0.0126-0.0184-0.0272zm0.24734 0.0155c-0.0058-5e-3 -0.01317-0.0167-0.0168-0.0292-0.0058-0.0202-0.0048-0.0217 0.0082-0.0148 0.01333 7e-3 0.03358 0.0505 0.02333 0.0505-0.0023 0-0.0092-2e-3 -0.01483-6e-3zm-0.39804-0.45444c-0.02012-0.0162-0.0208-0.0236-0.0022-0.0236 0.0078 0 0.0168 6e-3 0.02013 0.0126 0.0093 0.0196-5.5e-5 0.0256-0.018 0.0117zm0.97246 1.4223c0-6e-3 -0.0042-6e-3 -0.0097-6e-3 -0.0052 1e-3 -0.0097 6e-3 -0.0097 7e-3 0 2e-3 0.0042 6e-3 0.0097 6e-3 0.0052 0 0.0097-5e-3 0.0097-7e-3zm-0.48001-0.0575c0-0.0146-5e-3 -0.0215-0.0186-0.0252-0.04482-0.0126-0.06007 1e-3 -0.02958 0.0274 0.02852 0.0243 0.04817 0.0232 0.04817-2e-3zm0.24-0.0632c0-5e-3 -0.0042-7e-3 -0.0097-7e-3 -0.0052 0-0.0097 5e-3 -0.0097 7e-3 0 5e-3 0.0042 7e-3 0.0097 7e-3 0.0052 0 0.0097-5e-3 0.0097-7e-3zm-0.28569-0.0518c-0.0023-5e-3 -0.0078-6e-3 -0.01217-6e-3 -0.01167 0-0.01567 9e-3 -0.011 0.0268l0.0042 0.0152 0.01167-0.0146c0.0063-8e-3 0.0097-0.0175 0.0072-0.021zm0.05513 2e-3c6.8e-5 -6e-3 -0.0042-8e-3 -0.0093-8e-3 -0.0052 0-0.0097 7e-3 -0.0093 0.0163 1.58e-4 0.0126 0.0023 0.0146 0.0093 8e-3 5e-3 -5e-3 0.0093-0.0117 0.0093-0.0163zm0.38193-0.1764c-0.0042-6e-3 -0.05538-0.0155-0.05538-9e-3 0 7e-3 0.02313 0.0156 0.04112 0.0156 0.01 0 0.01633-2e-3 0.01417-6e-3zm-0.52488-0.19742c-0.0077-5e-3 -0.01033-2e-3 -0.01033 5e-3 0 0.014 0.01333 0.0204 0.0178 9e-3 0.0018-6e-3 -0.0014-0.0117-0.0072-0.0141zm-0.0777-0.15494c0-2e-3 -0.0047-5e-3 -0.01017-5e-3 -0.0057 0-0.0077 2e-3 -0.0042 5e-3 0.0032 2e-3 0.0078 6e-3 0.01017 6e-3 0.0023 0 0.0042-2e-3 0.0042-6e-3zm0.36031-0.0518c0.0023-5e-3 -7e-5 -0.0223-0.0058-0.0418-0.0057-0.0194-0.011-0.0413-0.012-0.0488-9.83e-4 -7e-3 -0.0052-0.0126-0.0092-0.0117-0.0042 1e-3 -0.0057 0.0223-0.0032 0.0462 0.0023 0.024 0.0048 0.0477 5e-3 0.0526 8.18e-4 9e-3 0.0184 0.0126 0.02502 2e-3zm-0.01483-0.12839c0-9e-3 -0.0028-0.0126-0.01083-7e-3 -6e-3 5e-3 -0.0083 9e-3 -5e-3 0.014 0.0088 0.0126 0.016 9e-3 0.016-6e-3zm-0.03487-0.0582c0.0092-0.0181 7e-3 -0.0239-0.0083-0.0239-0.01 0-0.01433 6e-3 -0.01433 0.0176 0 0.0198 0.01383 0.0237 0.02273 6e-3zm-0.53636-0.12488c-0.0032-2e-3 -0.01-6e-3 -0.015-6e-3s-9e-3 2e-3 -9e-3 6e-3c0 2e-3 0.0068 6e-3 0.015 6e-3s0.01217-2e-3 9e-3 -6e-3zm0.60001-0.0505c0-2e-3 -0.0047-6e-3 -0.01017-6e-3 -0.0057 0-0.0077 2e-3 -0.0042 6e-3 0.0032 2e-3 0.0078 6e-3 0.01017 6e-3 0.0023 0 0.0042-2e-3 0.0042-6e-3zm-0.24-0.11107c0-2e-3 -0.0042-6e-3 -0.0097-6e-3 -0.0052 0-0.0097 2e-3 -0.0097 6e-3 0 2e-3 0.0042 6e-3 0.0097 6e-3 0.0052 0 0.0097-2e-3 0.0097-6e-3zm-0.1586-0.18707c-0.0058-9e-3 -0.0082-9e-3 -0.01533-5e-3 -0.01083 9e-3 4e-5 0.0266 0.013 0.0197 5e-3 -2e-3 0.0062-9e-3 0.0023-0.0162zm-0.35022 5e-3c0-9e-3 -0.02913-0.0414-0.03507-0.0383-9e-3 6e-3 0.0168 0.0491 0.02667 0.046 0.0047-1e-3 0.0083-6e-3 0.0083-7e-3zm-0.144-7e-3c0-1e-3 -0.0042-5e-3 -0.0097-6e-3 -0.0052-1e-3 -0.0097-5.6e-4 -0.0097 2e-3 0 2e-3 0.0042 6e-3 0.0097 6e-3 0.0052 0 0.0097-1e-3 0.0097-2e-3zm0.56337-0.0491c-3e-3 -5e-3 -0.0053-2e-3 -0.0058 5e-3 -4.8e-4 6e-3 0.0018 8e-3 5e-3 6e-3 0.0032-1e-3 0.0033-6e-3 7.9e-4 -9e-3zm-0.46092-0.0919c-0.01617-0.0663-0.03012-0.0772-0.04078-0.0324-0.0042 0.0176-0.0068 0.0341-0.0057 0.0363 0.0012 2e-3 -0.0027 7e-3 -0.0083 0.0117-0.0082 6e-3 -0.0022 0.0117 0.02607 0.0273 0.02018 0.0117 0.03788 0.0187 0.03937 0.0162 0.0014-2e-3 -0.0033-0.0286-0.01067-0.0583zm-0.13177-1e-3c-0.0038-0.0337-0.0016-0.0376 0.0188-0.0317 0.0212 6e-3 0.03347-5e-3 0.0196-0.0153-0.0067-6e-3 -0.01083-6e-3 -0.02023-8.4e-4 -0.01617 8e-3 -0.02728 7e-3 -0.02728-1e-3 0-6e-3 0.01133-0.0126 0.02547-0.0191 0.02028-9e-3 0.02413-0.0142 0.019-0.0251-0.0087-0.0182-0.02707-0.017-0.04663 2e-3 -0.01267 0.0126-0.01533 0.0266-0.01283 0.0618 0.0038 0.0523 0.0023 0.0478 0.01583 0.0478 6e-3 0 0.0097-8e-3 0.0082-0.0189zm0.31314 0.0126c-0.01183-0.0208-0.01583-0.0243-0.02443-0.0215-0.0058 1e-3 -0.0037 7e-3 0.0058 0.0154 0.0168 0.014 0.0242 0.0159 0.0186 6e-3zm0.13858-0.0441c0-2e-3 -0.0063-6e-3 -0.01433-6e-3 -8e-3 0-0.01433 2e-3 -0.01433 6e-3 0 2e-3 0.0063 6e-3 0.01433 6e-3 8e-3 0 0.01433-2e-3 0.01433-6e-3zm-0.1299-0.0232c0.0093-7e-3 0.01517-7e-3 0.03308-1e-3 0.02867 8e-3 0.03418 5e-3 0.0184-0.0126-0.0083-9e-3 -0.02158-0.0148-0.0381-0.0159-0.01383-8.5e-4 -0.03508-7e-3 -0.0472-0.014-0.03198-0.018-0.05712-0.0163-0.05712 5e-3 0 0.0349 0.06132 0.0629 0.0909 0.0415zm0.17336 2e-3c0.0077-6e-3 -0.01367-0.021-0.02533-0.017-0.0047 1e-3 -0.0083 7e-3 -0.0083 0.0126 0 9e-3 0.02337 0.014 0.03387 6e-3zm0.08772-7e-3c0.0032-6e-3 8.76e-4 -0.0117-5e-3 -0.014-8e-3 -5e-3 -0.01083-5e-3 -0.01083-5e-5 0 5e-3 -0.0027 9e-3 -0.0058 0.014-0.0032 6e-3 -8.93e-4 8e-3 5e-3 8e-3 6e-3 0 0.01367-5e-3 0.0168-7e-3zm-0.47221-0.0575c-0.0037-9e-3 -8e-3 -0.0369-0.0098-0.0597-0.0037-0.0503-0.0088-0.06-0.0275-0.0518-0.0098 5e-3 -0.01117 0.0117-5e-3 0.0245 0.013 0.0293 0.01117 0.0751-0.0023 0.0679-0.01133-6e-3 -0.03427-0.035-0.04343-0.0553-0.0028-6e-3 -0.011-0.014-0.0184-0.017-0.011-6e-3 -0.01367-2e-3 -0.01483 0.0117-8.18e-4 9e-3 -6.2e-4 0.0223 3.93e-4 0.0282 0.0027 0.0159-0.01667 0.033-0.0332 0.0295-0.0098-2e-3 -0.01367 1e-3 -0.01367 0.0126 0 0.0187 0.0092 0.0313 0.0202 0.0278 0.0048-1e-3 0.0087-8e-3 0.0087-0.0169 0-0.0126 0.0028-0.014 0.0264-0.0126 0.05497 6e-3 0.07923 0.0126 0.07742 0.0265-8.94e-4 7e-3 0.0042 0.0183 0.01133 0.0252l0.013 0.0126 0.0087-0.0175c0.0048-9e-3 0.0058-0.0254 2e-3 -0.0352zm0.29064-6e-3c-0.0022-5e-3 -0.01183-7e-3 -0.02128-8e-3 -0.015-1e-3 -0.01533-5.6e-4 -4e-3 6e-3 0.016 9e-3 0.03078 0.0117 0.02527 1e-3zm-0.16557-0.024c0.0077-6e-3 -0.0033-0.0252-0.015-0.0252-5e-3 0-9e-3 7e-3 -9e-3 0.0152 0 0.0149 0.01233 0.0201 0.02403 9e-3zm0.23035-0.0152c0.0097-9e-3 0.01117-0.0152 0.0042-0.0152-0.01383 0-0.04703 0.0215-0.04113 0.0265 9e-3 7e-3 0.02237 5e-3 0.03697-0.0117zm-0.52321-0.0168c0-6e-3 -0.01083-0.017-0.024-0.0236-0.02722-0.014-0.03132-7e-3 -0.01333 0.0195 0.01233 0.0187 0.03747 0.0215 0.03747 5e-3zm0.20258-0.0149c-0.0174-8e-3 -0.024 5.6e-4 -0.01033 0.0154l0.013 0.014 0.0038-0.0126c2e-3 -6e-3 -8.18e-4 -0.0142-0.0063-0.0174zm0.17182 0.0167c0-2e-3 -0.0047-5e-3 -0.01017-5e-3 -0.0057 0-0.0077 2e-3 -0.0042 5e-3 0.0032 2e-3 0.0078 6e-3 0.01017 6e-3 0.0023 0 0.0042-2e-3 0.0042-6e-3zm-0.13852-0.0491c-0.0033-7e-3 -0.01-0.0224-0.01433-0.0331-0.0043-0.0117-0.0174-0.0245-0.02912-0.031-0.015-8e-3 -0.02022-0.0167-0.018-0.0282 3e-3 -0.0153 3.95e-4 -0.0169-0.03767-0.0237-0.04308-7e-3 -0.04698-0.0117-0.03067-0.0272 0.01383-0.014 0.0033-0.0281-0.0223-0.0316-0.02008-2e-3 -0.02027-5e-3 -0.0037-9e-3 0.014-6e-3 0.01617-0.0117 0.01083-0.0254-0.0037-9e-3 -0.014-0.0216-0.02302-0.0251-0.01333-6e-3 -0.01617-0.0146-0.016-0.0517 3.95e-4 -0.0476-0.01067-0.0663-0.0502-0.0849-0.02593-0.0126-0.04978-8e-3 -0.07047 9e-3 -0.01533 0.014-0.01583 0.018-0.0038 0.0414 0.01117 0.0223 0.01117 0.0271-3.1e-4 0.0321-0.0176 7e-3 -0.0174 0.0473 2.38e-4 0.0566 0.0194 9e-3 0.0092 0.0497-0.01267 0.0478-0.01083-1e-3 -0.01567 2e-3 -0.01567 0.0117 0 7e-3 -5e-3 0.0149-0.01083 0.0176-6e-3 2e-3 -0.01367 0.0146-0.0168 0.0264-0.0073 0.0264 0.0057 0.0252 0.04638-5e-3 0.01567-0.0117 0.03342-0.0201 0.03977-0.0201 0.01633 0 0.02488-0.0223 0.01417-0.0371-0.01-0.014-0.0032-0.0476 0.01167-0.0575 0.0073-6e-3 0.015-5e-3 0.03378 6e-3 0.02133 0.0117 0.02283 0.0142 0.01233 0.0245-0.01533 0.0153 0.0017 0.0519 0.02587 0.0553 0.014 1e-3 0.01317 2e-3 -0.0047 6e-3 -0.02 5e-3 -0.02092 6e-3 -0.01633 0.0397 6e-3 0.0448 0.012 0.0566 0.0256 0.0495 7e-3 -5e-3 0.0063-9e-3 -0.0018-0.0203-0.01133-0.0146-0.0078-0.0259 0.0087-0.0259 0.0042 0 0.01317 7e-3 0.0198 0.0152 0.01317 0.0167 0.02568 0.0195 0.0305 7e-3 2e-3 -6e-3 0.01333-5.6e-4 0.0343 0.0153 0.03622 0.0272 0.03842 0.0333 0.012 0.0333-0.02742 0-0.02373 8e-3 0.0097 0.021 0.01583 6e-3 0.0288 0.0149 0.0288 0.0195 0 9e-3 0.0083 0.0149 0.02672 0.0149 0.01033 0 0.01217-5e-3 0.0077-0.014zm-0.1879-0.13778c0-2e-3 0.0042-5e-3 0.0097-2e-3 0.0052 1e-3 0.0097 5e-3 0.0097 6e-3s-0.0042 2e-3 -0.0097 2e-3c-0.0052 0-0.0097-2e-3 -0.0097-6e-3zm0.28795 0.13778c-2.8e-5 -6e-3 -0.0062-0.0149-0.01383-0.0226-8e-3 -8e-3 -0.01-0.0149-0.0048-0.0167 0.016-6e-3 0.0093-0.025-0.01017-0.0314-0.01317-6e-3 -0.0192-0.0126-0.0192-0.0238 0-0.0126-0.0058-0.019-0.0192-0.0229-0.011-5e-3 -0.0192-0.0117-0.0192-0.0175 0-0.0146-0.017-0.0217-0.0251-0.0117-0.0068 9e-3 -0.02293 0.0117-0.02283 1e-3 2.6e-5 -5e-3 0.0067-0.0126 0.01467-0.0211 0.0087-8e-3 0.01117-0.0166 6e-3 -0.0194-0.0052-2e-3 -0.011 5.8e-4 -0.01433 7e-3 -0.0033 7e-3 -0.0194 0.0154-0.03962 0.0204-0.0186 6e-3 -0.0339 0.0117-0.0339 0.014 0 2e-3 0.0172 9e-3 0.0384 0.0154 0.03517 9e-3 0.0384 0.0126 0.0384 0.0306 0 0.0146 0.0047 0.0212 0.0168 0.0236 0.02602 5e-3 0.04023 0.0177 0.03063 0.0272-6e-3 6e-3 -0.0027 0.0117 0.01133 0.0177 0.011 5e-3 0.02602 0.0156 0.03353 0.0232 0.01533 0.0156 0.0324 0.0183 0.03232 6e-3zm0.09413-2e-3c0.016-8e-3 0.01433-0.0191-0.0028-0.0191-8e-3 0-0.01433 1e-3 -0.01433 6e-3 0 2e-3 -0.0027 8e-3 -0.0058 0.0126-0.0068 9e-3 0.0068 0.0117 0.02312 1e-3zm-0.3383-0.0226c-0.0043-6e-3 -0.0088-7e-3 -0.0168-2e-3s-0.0073 7e-3 0.0023 0.014c0.01483 9e-3 0.02428 1e-3 0.01433-0.0117zm0.39478 2e-3c-3e-3 -5e-3 -0.0053-2e-3 -0.0058 5e-3 -4.8e-4 6e-3 0.0018 8e-3 5e-3 6e-3 0.0032-1e-3 0.0033-6e-3 7.91e-4 -9e-3zm0.13132 5e-3c-3e-3 -5e-3 -0.0072-7e-3 -0.0092-7e-3s-0.0038 5e-3 -0.0038 7e-3c0 5e-3 0.0042 7e-3 0.0092 7e-3s0.0068-5e-3 0.0038-7e-3zm-0.56988-6e-3c0-8e-3 -0.02648-0.0224-0.03757-0.0189-0.0088 2e-3 -0.0077 6e-3 0.0048 0.014 0.0172 9e-3 0.03273 0.0126 0.03273 6e-3zm-0.14977-0.0253c-0.0048-0.0297-0.0047-0.0293-0.01333-0.0185-0.01233 0.0153-0.01117 0.0289 0.0023 0.0265 0.0067-1e-3 0.01167-6e-3 0.011-8e-3zm0.58143 6e-3c-2.36e-4 -1e-3 -0.0067-9e-3 -0.014-0.0163-0.0077-7e-3 -0.01383-0.0224-0.014-0.0344-3.95e-4 -0.0251-0.014-0.0413-0.03428-0.0413-0.0186 0-0.018 0.0173 7.9e-4 0.0253 0.0082 5e-3 0.01233 9e-3 0.0092 0.0141-0.01 0.014 0.0057 0.0507 0.02252 0.053 0.0259 5e-3 0.0302 5e-3 0.02987-5.6e-4zm0.11284-0.063c0.01067-0.0209 0.0018-0.0376-0.01633-0.0316-0.0184 6e-3 -0.0194 0.0531-9.83e-4 0.0531 0.0037 0 0.01133-9e-3 0.0174-0.0215zm-0.2757 1e-3c0-2e-3 -0.0042-6e-3 -0.0097-7e-3 -0.0052-1e-3 -0.0097 5.7e-4 -0.0097 6e-3 0 6e-3 0.0042 7e-3 0.0097 7e-3 0.0052 0 0.0097-1e-3 0.0097-6e-3zm-0.32641-0.0334c0-5e-3 -0.0042-7e-3 -0.0097-7e-3 -0.0052 0-0.0097 6e-3 -0.0097 9e-3 0 6e-3 0.0042 8e-3 0.0097 7e-3 0.0052-1e-3 0.0097-6e-3 0.0097-9e-3zm0.4025-0.0142c0.0077-6e-3 8e-3 -8e-3 0.0012-9e-3 -0.01333-6e-3 -0.02928 1e-3 -0.02928 9e-3 0 9e-3 0.01367 9e-3 0.02808 1.5e-4zm-0.1087-0.0266-0.01467-0.0142-3.95e-4 0.0126c-2.4e-4 7e-3 5e-3 0.0156 0.01133 0.0191 0.018 9e-3 0.0202-1e-3 0.0033-0.0177zm-0.4282-8e-3c0-7e-3 -0.0042-0.0126-0.0097-0.0126-0.0052 0-0.0097-8e-3 -0.0097-0.0176 0-0.0154 3e-3 -0.0176 0.024-0.0176 0.02863 0 0.03088-6e-3 0.0057-0.014-0.015-6e-3 -0.0174-9e-3 -0.013-0.0278 3e-3 -0.0126 0.01117-0.0236 0.0184-0.0258 0.01667-6e-3 0.017-0.0238 5.63e-4 -0.0238-0.0068 0-0.0176 2e-3 -0.024 6e-3 -9e-3 6e-3 -0.01167 5e-3 -0.01167-5e-3 0-6e-3 0.01217-0.0168 0.02728-0.0251 0.015-8e-3 0.03008-0.0223 0.03348-0.0315 6e-3 -0.0164 0.0053-0.0167-0.02432-0.0152-0.0254 1e-3 -0.03188 6e-3 -0.03855 0.018-0.0097 0.0196-0.0198 0.0209-0.03452 5e-3 -0.0072-8e-3 -0.0188-0.0126-0.03387-0.0126-0.0216 0-0.02282 1e-3 -0.0211 0.0274 9.84e-4 0.0152 0.0073 0.0309 0.014 0.0351 0.0077 6e-3 0.0098 0.014 0.0057 0.0233-0.0037 8e-3 -0.0038 0.0237-2.38e-4 0.0335 0.0057 0.0156 9e-3 0.0174 0.02972 0.0146 0.01667-2e-3 0.0234-1e-3 0.0234 5e-3 0 5e-3 -0.0058 8e-3 -0.013 9e-3s-0.01567 0.0117-0.019 0.0219c-0.0052 0.0168-0.0027 0.0208 0.02022 0.0306 0.03438 0.0148 0.05017 0.0145 0.05017-1e-3zm0.70344-0.014c0.0028-9e-3 -3.95e-4 -0.0196-7e-3 -0.0239-0.0067-5e-3 -0.01483-0.0126-0.0184-0.0173-0.0047-7e-3 -0.0097-8e-3 -0.0168-6e-3 -0.0072 5e-3 -0.0072 8e-3 -6.5e-5 0.0153 0.0057 6e-3 0.0077 0.0182 0.0043 0.0282-5e-3 0.0161-0.0032 0.0183 0.01367 0.0183 0.01433 0 0.02058-5e-3 0.02418-0.0163zm-0.29078-2e-3c-2.38e-4 -0.0153-0.01633-0.025-0.02993-0.0177-0.0092 6e-3 -8e-3 8e-3 0.0058 0.0163 0.02148 0.0126 0.02423 0.0126 0.02407 1e-3zm-0.03587-0.0254c0.02362-0.0117 0.02088-0.0205-0.0072-0.0264-0.03032-6e-3 -0.0302-8e-3 6.2e-4 -0.0154 0.0338-6e-3 0.02967-0.0275-0.0053-0.0275-0.0245 0-0.0283-6e-3 -0.01467-0.0238 5e-3 -6e-3 -0.0018-0.0117-0.02823-0.0196-0.02818-8e-3 -0.03448-0.014-0.03213-0.0243 0.0028-0.0126 0.0057-0.0126 0.05393-0.0126 0.04137 5.7e-4 0.05-5.6e-4 0.0456-6e-3 -3e-3 -5e-3 -0.0053-0.0126-0.0053-0.0175 0-8e-3 -0.0042-9e-3 -0.0408-6e-3 -0.02243 1e-3 -0.04427 6e-3 -0.04848 0.0117-0.0042 5e-3 -0.01367 7e-3 -0.0209 7e-3 -0.0186 0-0.0225 0.0149-0.0083 0.0331 0.0067 8e-3 0.015 0.0272 0.0186 0.0415 0.0057 0.0219 4e-3 0.0265-0.01 0.0293-0.01267 2e-3 -0.01517 7e-3 -0.01067 0.0188 0.0073 0.0191 0.03238 0.0399 0.04392 0.0362 0.0048-1e-3 0.01333 1e-3 0.0192 7e-3 0.01083 0.0117 0.0196 9e-3 0.0504-5e-3zm0.23483-0.0215c0.012-0.0167 0.0062-0.0485-0.0097-0.0538-0.0053-1e-3 -0.015 5.6e-4 -0.02127 6e-3 -0.01467 0.0117-0.024 6e-3 -0.024-0.0126 0-8e-3 -0.0073-0.0167-0.0192-0.0205-0.01067-5e-3 -0.0192-0.0117-0.0192-0.0169 0-0.0146-0.019-0.0432-0.03518-0.0531-0.0073-6e-3 -0.01067-0.0126-0.0077-0.016 0.0032-6e-3 -0.0015-0.014-0.01033-0.021-0.016-0.0126-0.016-0.0126 0.0088-0.0126 0.01383 0 0.0251-5.7e-4 0.0251-1e-3 0-8.4e-4 -0.01017-0.0126-0.02278-0.0264-0.02073-0.0225-0.0215-0.0259-0.0083-0.0363 0.01167-9e-3 0.012-0.0126 0.0022-0.0191-0.01083-7e-3 -0.014-6e-3 -0.02993 8.5e-4 -0.0098 5e-3 -0.0178 0.014-0.0178 0.0202 0 6e-3 -0.0087 0.0146-0.0192 0.0181-0.02793 8e-3 -0.02647 0.0405 0.0023 0.0509 0.02053 7e-3 0.02078 8e-3 5e-3 0.0168-0.01583 8e-3 -0.01567 9e-3 0.0038 0.0204 0.0174 9e-3 0.0186 0.0126 0.0077 0.0196-0.01083 7e-3 -0.01067 8e-3 9.84e-4 0.0126 0.0077 2e-3 0.02028 6e-3 0.02823 6e-3 0.0082 4e-5 0.02432 0.0126 0.03693 0.0266 0.04728 0.0558 0.061 0.0694 0.06947 0.0694 0.0048 0 0.0088-2e-3 0.0088-6e-3 0-5e-3 5e-3 -5e-3 0.01517 1e-3 0.01383 6e-3 0.01383 7e-3 -0.0016 0.0126-0.014 6e-3 -0.015 8e-3 -0.0058 0.0191 0.01433 0.0167 0.02402 0.0161 0.03743-2e-3zm-0.12527-0.0264c-0.0027-5e-3 -0.0048-5.6e-4 -0.0048 6e-3 0 7e-3 0.0022 9e-3 0.0048 6e-3 0.0027-5e-3 0.0027-8e-3 0-0.0126zm-0.59917-0.0215c-0.0037-7e-3 -0.03372-6e-3 -0.03867 1e-3 -3e-3 5e-3 0.0028 6e-3 0.0184 5e-3 0.01233-1e-3 0.0216-5e-3 0.02027-7e-3zm-0.04403-0.0845c-0.0027-5e-3 -0.0048-5.6e-4 -0.0048 6e-3 0 7e-3 0.0022 9e-3 0.0048 6e-3 0.0027-5e-3 0.0027-8e-3 0-0.0126zm0.05123-0.0267c0-5e-3 -0.0063-7e-3 -0.01433-7e-3 -0.01617 0-0.0168 1e-3 -0.0087 0.0126 0.0068 9e-3 0.023 6e-3 0.023-6e-3zm0.2496-5e-3c0-0.0117-0.01033-0.0126-0.02983-7e-3 -0.02503 8e-3 -0.02272 0.014 0.0058 0.014 0.01367 0 0.024-2e-3 0.024-7e-3zm-0.0672-0.0419c0-0.0126-0.0043-0.017-0.01433-0.017-0.01117 0-0.014 5e-3 -0.012 0.0223 0.0018 0.017 0.0052 0.021 0.01433 0.017 0.0067-2e-3 0.012-0.0126 0.012-0.0223zm0.23041-0.0205c0-0.0126-6.23e-4 -0.0126-0.014-5e-3 -0.0182 0.0126-0.0182 0.0174-3.1e-4 0.0174 0.0092 0 0.01433-6e-3 0.01433-0.014zm-0.2688-0.0142c-0.0067-5e-3 -0.018-7e-3 -0.02518-7e-3 -0.0072 0-0.01317 5e-3 -0.01317 7e-3 0 6e-3 0.0092 7e-3 0.02518 7e-3 0.02128 0 0.02333-1e-3 0.01317-7e-3zm0.14067-0.042c-0.0037-0.0209-0.0178-0.0495-0.03572-0.0719-0.01617-0.0207-0.03537-0.051-0.0424-0.0677-7e-3 -0.0167-0.0182-0.0428-0.02487-0.058-0.0068-0.0159-0.02272-0.0341-0.03687-0.0421l-0.0248-0.0142 0.024 1e-3c0.01633 1e-3 0.02498 6e-3 0.02707 0.0126 0.0017 6e-3 0.0097 0.0117 0.0174 0.0117 0.0093 0 0.01333-5e-3 0.01183-0.0117-0.0014-6e-3 0.0052-0.0222 0.015-0.0352 0.012-0.0163 0.01467-0.026 8e-3 -0.0302-0.0052-5e-3 -0.0174-0.0177-0.02692-0.0316-0.0097-0.014-0.02042-0.0274-0.0241-0.0302-0.0037-2e-3 -0.0097-0.014-0.013-0.0233-0.0068-0.0195-0.02733-0.0324-0.04337-0.0273-0.0052 1e-3 -0.0072 6e-3 -0.0042 0.0117 0.0072 9e-3 -0.01333 0.0224-0.03628 0.0224-0.02508 0-0.02327-0.0176 0.0028-0.0273 0.019-7e-3 0.0198-9e-3 0.0097-0.0273-0.0062-0.0117-0.01133-0.0286-0.01133-0.0392-7e-5 -0.0117-0.01533-0.0387-0.03428-0.0625-0.08802-0.1106-0.10157-0.13749-0.1063-0.21026-0.0033-0.0523-0.0087-0.0726-0.02282-0.0889-0.01017-0.0126-0.0186-0.0303-0.019-0.0415-3.1e-4 -0.0126-0.0098-0.0281-0.02417-0.0404-0.013-0.0117-0.0238-0.0247-0.024-0.0302-2.38e-4 -6e-3 -0.0068-0.0145-0.01433-0.0198-0.0078-6e-3 -0.014-0.0152-0.014-0.0215 0-6e-3 -0.0087-0.0202-0.0192-0.0306-0.01067-9e-3 -0.0192-0.024-0.0192-0.0303 0-6e-3 -0.0068-0.0201-0.015-0.0303-0.01367-0.017-0.01617-0.018-0.02753-9e-3 -0.011 7e-3 -0.014 8e-3 -0.0245 1e-3 -0.0067-5e-3 -0.0098-0.0126-0.0068-0.0177 0.0058-0.0117-0.0182-0.0404-0.03337-0.0404-0.0053 0-0.0078-2e-3 -5e-3 -6e-3 0.0027-5e-3 -0.0011-0.0187-0.0083-0.0334-0.011-0.0224-0.0188-0.0656-0.02278-0.12657-5.93e-4 -9e-3 -3e-3 -0.0117-0.0093-6e-3 -0.0048 5e-3 -0.0062 0.0117-0.0033 0.0153 8e-3 0.0126-0.0245-0.0126-0.03702-0.0281-0.0062-7e-3 -0.01233-0.0223-0.01383-0.0321-0.0013-9e-3 -0.0057-0.0273-0.0093-0.0391-0.0042-0.0126-0.0032-0.0215 0.0027-0.0215 0.02203 0-0.011-0.0565-0.06937-0.11888-0.04552-0.0485-0.07498-0.0729-0.11248-0.0936-0.02792-0.0153-0.07112-0.0394-0.09598-0.054-0.04392-0.0258-0.0652-0.0325-0.0652-0.0208 0 5e-3 -0.0093 0.0155-0.02068 0.0276-0.02037 0.0215-0.02042 0.0223-0.0042 0.056 9e-3 0.0189 0.0178 0.0411 0.0196 0.0495 0.01117 0.0546 0.0186 0.072 0.0349 0.0826 0.01033 7e-3 0.0244 0.0117 0.03228 8e-3 0.0184-5e-3 0.03688-0.0407 0.02937-0.0588-0.0052-0.0126-0.0018-0.0154 0.02518-0.0224 0.0172-6e-3 0.03433-6e-3 0.0383-6e-3 9e-3 6e-3 0.01283 0.0377 0.01033 0.0886-0.0018 0.038-0.0027 0.0391-0.02588 0.0391-0.03733 0-0.03087 0.0142 0.04022 0.0883 0.02788 0.0292 0.05347 0.0758 0.06057 0.11119 0.0083 0.0408 0.06223 0.15446 0.08383 0.1764 9e-3 8e-3 0.0196 0.0448 0.02732 0.0911 0.02308 0.13944 0.07037 0.24477 0.10988 0.24477 0.0052 0 0.0093 5e-3 0.0093 7e-3 0 5e-3 0.0063 9e-3 0.01433 0.0126 0.01233 6e-3 0.01367 5e-3 0.0087-8e-3 -0.0048-0.0126-0.0013-0.0167 0.02352-0.026l0.02923-0.0117 0.01083 0.0117c0.0058 6e-3 0.0078 0.0173 0.0043 0.0257-0.0038 8e-3 -0.0017 0.018 0.0053 0.0224 0.0092 6e-3 9e-3 0.0117-4.8e-4 0.0226-0.0077 9e-3 -0.0098 0.0251-6e-3 0.0418 0.02 0.087 0.02612 0.10489 0.04553 0.13147 0.0198 0.0272 0.02033 0.0303 0.0068 0.0431-0.01117 9e-3 -0.013 0.0201-0.0073 0.0412 0.02193 0.082 0.06762 0.12097 0.11552 0.0981 0.02408-0.0117 0.03428-6e-3 0.0198 0.0117-0.01333 0.0155-0.0078 0.0359 0.02373 0.0867 0.01267 0.0203 0.02293 0.04 0.02293 0.0442 0 5e-3 0.01033 0.0231 0.02297 0.0421 0.01667 0.0251 0.0216 0.0408 0.018 0.0579-0.0043 0.0209-3e-3 0.0233 0.01417 0.0233 0.01067 0 0.02945 5e-3 0.04203 9e-3 0.01267 6e-3 0.03153 0.0117 0.0421 0.0126 0.01067 1e-3 0.02897 0.0117 0.0409 0.0209 0.012 9e-3 0.02562 0.0176 0.03042 0.0176s0.018 8e-3 0.0295 0.0176c0.03218 0.0273 0.04203 0.0225 0.03507-0.0168zm-0.2242-0.26452c-0.02542-0.0146-0.04053-0.0744-0.0188-0.0744 0.01667 0 0.02748 0.0301 0.014 0.039-0.01217 8e-3 -4.8e-4 0.0267 0.017 0.0267 0.0077 0 0.01383 6e-3 0.01383 9e-3 0 0.0126-0.0018 0.0126-0.02593-1e-3zm-0.01533-0.0944c-0.01217-0.0117-0.01367-0.0156-0.0052-0.0184 0.01267-5e-3 0.0466 0.0152 0.0466 0.0261 0 0.0126-0.02398 7e-3 -0.04128-7e-3zm-0.23636-0.5085c-4.8e-4 -5e-3 -0.0032-9e-3 -0.0062-0.0152-0.0052-8e-3 -5e-3 -8e-3 0.0053-2e-4 6e-3 6e-3 0.0088 0.0126 0.0062 0.0152-0.0033 6e-3 -5e-3 6e-3 -0.0053 2e-4zm-0.02657-0.0446c-6e-3 -0.0117-0.02287-0.035-0.0373-0.053-0.02692-0.0336-0.0713-0.11598-0.0713-0.13217 0-0.0196 0.0168-7e-3 0.0221 0.0155 3e-3 0.014 0.01433 0.0335 0.02533 0.0441 0.01083 0.0117 0.0198 0.0224 0.0198 0.0261 0 8e-3 0.0262 0.0538 0.04487 0.0772 8e-3 9e-3 0.013 0.0237 0.011 0.0302-0.0028 9e-3 -0.0052 8e-3 -0.01433-8e-3zm0.66902 0.92278c0-7e-3 -0.02473-8e-3 -0.03258-2e-3 -0.0027 2e-3 -0.0022 9e-3 8.94e-4 0.0159 0.0057 0.0117 0.0063 0.0117 0.0188 2e-3 7e-3 -6e-3 0.013-0.0126 0.013-0.0159zm-0.52479-6e-3c0.0087-6e-3 -0.02277-0.0224-0.03332-0.0189-0.0047 1e-3 -0.0038 7e-3 0.0016 0.0126 0.01033 9e-3 0.02063 0.0126 0.03172 6e-3zm0.05438-0.0162c0-7e-3 -0.0273-0.0168-0.03843-0.0126-0.0077 2e-3 -0.0072 6e-3 7.9e-4 0.0117 0.01233 7e-3 0.0377 9e-3 0.0377 2e-3zm-0.5414-1.6725c-0.0033-8e-3 -0.0228-0.0313-0.0431-0.0491-0.03987-0.0356-0.0647-0.0749-0.09718-0.15409-0.02133-0.0519-0.04262-0.0951-0.07728-0.15646-0.011-0.0194-0.03238-0.0603-0.04758-0.0909-0.01517-0.0306-0.04307-0.0852-0.06192-0.12111-0.05082-0.0973-0.08898-0.17782-0.10067-0.21244-0.0058-0.0169-0.02338-0.0518-0.03932-0.0776-0.02988-0.0484-0.0782-0.14441-0.10178-0.20204-0.01283-0.0315-0.02102-0.045-0.04688-0.0783-0.0067-8e-3 -0.0172-0.0287-0.02372-0.0454-0.0067-0.0167-0.0176-0.0393-0.02442-0.0505-0.02602-0.042-0.09078-0.17272-0.09078-0.18325 0-6e-3 -0.0087-0.023-0.0194-0.0376-0.01067-0.0146-0.02777-0.045-0.03812-0.0679-0.01033-0.0229-0.02962-0.059-0.04283-0.0807-0.01317-0.0217-0.03027-0.053-0.03787-0.0698-0.0077-0.0167-0.02332-0.0484-0.03492-0.0706-0.01167-0.0223-0.0375-0.0734-0.05758-0.11352-0.02008-0.0401-0.05008-0.0959-0.0667-0.12363-0.01667-0.0278-0.04678-0.0834-0.06702-0.12364-0.02027-0.0401-0.06102-0.1204-0.09063-0.17827-0.0296-0.0576-0.05382-0.10862-0.05382-0.11317 0-6e-3 -0.0063-0.0196-0.01417-0.0337-0.02127-0.0386-0.09232-0.18426-0.10167-0.20836-0.0047-0.0126-0.0198-0.0412-0.03392-0.0657-0.01417-0.0245-0.03588-0.0649-0.04832-0.09-0.01233-0.0251-0.03548-0.0681-0.05118-0.0959-0.0487-0.0861-0.14452-0.27216-0.14447-0.28052 4e-5 -6e-3 -6e-3 -0.0181-0.01367-0.0302-0.0077-0.0126-0.01617-0.0286-0.0194-0.0362-0.0067-0.0156-0.02547-0.018-0.04503-6e-3 -0.01183 7e-3 -0.01383 6e-3 -0.018-0.0117-0.0038-0.0156-0.0092-0.0202-0.0264-0.0212-0.018-1e-3 -0.02162 8.4e-4 -0.02173 0.0126-7e-5 7e-3 -0.0027 0.0189-0.0053 0.0245-0.0033 7e-3 0.0047 0.0168 0.02412 0.0296 0.0198 0.0126 0.02938 0.0251 0.02938 0.0366 0 0.0252 0.0338 0.10232 0.05372 0.12265 0.0068 7e-3 0.0196 0.0273 0.02857 0.0454 0.0088 0.0181 0.02668 0.0532 0.03953 0.0783 0.01283 0.0251 0.0271 0.0558 0.03167 0.0681 0.0047 0.0126 0.0198 0.042 0.0339 0.0657 0.01417 0.0236 0.02982 0.0531 0.03492 0.0657 0.03818 0.0936 0.07082 0.15793 0.0897 0.17672 7e-3 7e-3 0.02233 0.0342 0.03408 0.0607 0.01183 0.0264 0.02777 0.0569 0.03562 0.068 0.0078 0.0117 0.0178 0.0293 0.02193 0.0404 0.0042 0.0117 0.0184 0.0392 0.03167 0.0628 0.01317 0.0233 0.02897 0.0574 0.03503 0.0757 6e-3 0.0182 0.022 0.0503 0.03533 0.0712 0.0374 0.0583 0.04952 0.0817 0.0897 0.17292 0.02048 0.0464 0.04357 0.0965 0.05128 0.11107 0.0077 0.0146 0.02152 0.0422 0.03067 0.0618 0.0092 0.0194 0.03562 0.074 0.05887 0.1211 0.05998 0.12196 0.12184 0.25414 0.14644 0.31298 0.01167 0.0278 0.03597 0.0757 0.05413 0.10663 0.0182 0.0309 0.03703 0.066 0.04193 0.0783 0.014 0.0349 0.02623 0.0582 0.03357 0.0644 0.0038 5e-3 0.02337 0.0414 0.04368 0.0852 0.0203 0.0436 0.04113 0.0862 0.04632 0.0945 0.0052 8e-3 0.01617 0.0328 0.02463 0.0544 0.03318 0.0853 0.04738 0.11774 0.0549 0.12544 0.0082 8e-3 0.07482 0.13862 0.08243 0.161 0.0023 7e-3 0.01517 0.032 0.02852 0.0555 0.01333 0.0237 0.02757 0.0497 0.03167 0.058 0.019 0.0386 0.03358 0.0611 0.0442 0.0683 0.0063 5e-3 0.01617 0.0201 0.02182 0.0352 0.02267 0.0614 0.04938 0.11632 0.06348 0.13076 0.0082 8e-3 0.015 0.0211 0.015 0.0282 0 7e-3 0.0052 0.0182 0.01167 0.0243 0.01317 0.0126 0.0172 0.0317 0.0168 0.0817-2.2e-4 0.0351-7e-5 0.0355 0.0505 0.0679 0.08138 0.0523 0.14593 0.0874 0.14968 0.0815 5e-3 -8e-3 0.03042-6e-3 0.03678 1e-3 0.01067 0.0146 0.02518 7e-3 0.0188-8e-3zm-1.7338-3.3057c0-6e-3 -0.0058-0.0173-0.01283-0.0261-7e-3 -8e-3 -0.0186-0.0322-0.02537-0.0517-0.0186-0.053-0.05468-0.1284-0.09687-0.20281-0.02072-0.0365-0.04407-0.082-0.05188-0.10092-0.0078-0.0189-0.0272-0.0538-0.04308-0.0775-0.01583-0.0236-0.02893-0.0481-0.029-0.0541-6.4e-5 -6e-3 -0.0083-0.0228-0.0184-0.0365-0.01-0.014-0.01617-0.0296-0.01367-0.035 0.0028-6e-3 -0.0058-0.018-0.0201-0.0289-0.01367-0.0117-0.0249-0.026-0.0249-0.0341 0-8e-3 -0.0174-0.0446-0.03848-0.0807-0.02117-0.0363-0.04472-0.0775-0.05237-0.0914-0.0077-0.014-0.03403-0.0594-0.05868-0.10092-0.02463-0.0418-0.05993-0.10862-0.07843-0.14891-0.0186-0.0401-0.05523-0.10955-0.08163-0.15396-0.0264-0.0443-0.0558-0.0954-0.06533-0.11352-0.03658-0.0692-0.05853-0.10909-0.06808-0.12362-0.01217-0.0188-0.0238-0.0418-0.04067-0.0807-0.03667-0.0852-0.0969-0.19779-0.11368-0.21275-0.02063-0.0183-0.04287-0.0221-0.05273-8e-3 -0.01067 0.0146 0.0239 0.12209 0.04403 0.13693 0.0222 0.0163 0.06748 0.081 0.07857 0.11189 0.01167 0.0324 0.06693 0.14411 0.09202 0.18567 0.0072 0.0126 0.013 0.0258 0.013 0.0308 0 6e-3 0.0188 0.0407 0.04198 0.0793 0.02308 0.0386 0.04268 0.0789 0.04353 0.0896 8.74e-4 0.0117 0.0077 0.0275 0.015 0.0379 0.02998 0.0415 0.11433 0.1979 0.15982 0.29619 0.02053 0.0443 0.0463 0.0978 0.05727 0.1186 0.03322 0.0631 0.03713 0.0727 0.03738 0.0894 2.83e-4 0.0177 0.01517 0.026 0.03178 0.0173 6e-3 -5e-3 0.0186-6e-3 0.02823-6e-3 0.01633 0 0.01617 1e-3 -0.0028 0.0145-0.0194 0.014-0.0198 0.0163-0.0083 0.0539 0.0077 0.0246 0.0186 0.0428 0.0297 0.0485 0.0098 6e-3 0.0174 0.0126 0.0174 0.0155-1.44e-4 5e-3 0.018 0.0398 0.04028 0.0805 0.0397 0.0727 0.0402 0.0744 0.0228 0.0846-0.0174 9e-3 -0.0172 0.0117 0.0092 0.0369 0.01483 0.0146 0.03223 0.03 0.03877 0.0341 0.0067 5e-3 0.01667 0.0258 0.0226 0.0478 6e-3 0.0223 0.01283 0.0449 0.01533 0.0505 0.0027 6e-3 0.0097 0.0225 0.01583 0.0379 6e-3 0.0154 0.01667 0.031 0.02337 0.0352 0.0068 5e-3 0.01533 0.0145 0.0194 0.0226 0.0088 0.0188 0.01317 0.0203 0.06132 0.0212 0.03273 5.6e-4 0.03877-8.4e-4 0.03877-9e-3z" stroke-width=".12313"/>
</g>
</svg>
