<?xml version="1.0" encoding="UTF-8" standalone="no"?>
<!-- Created with Inkscape (http://www.inkscape.org/) -->

<svg
   xmlns:dc="http://purl.org/dc/elements/1.1/"
   xmlns:cc="http://creativecommons.org/ns#"
   xmlns:rdf="http://www.w3.org/1999/02/22-rdf-syntax-ns#"
   xmlns:svg="http://www.w3.org/2000/svg"
   xmlns="http://www.w3.org/2000/svg"
   xmlns:sodipodi="http://sodipodi.sourceforge.net/DTD/sodipodi-0.dtd"
   xmlns:inkscape="http://www.inkscape.org/namespaces/inkscape"
   width="11.999908"
   height="24.998638"
   viewBox="0 0 3.3866408 7.0551708"
   version="1.1"
   id="svg7209"
   inkscape:version="0.91 r13725"
   sodipodi:docname="wand2.svg">
  <defs
     id="defs7203" />
  <sodipodi:namedview
     id="base"
     pagecolor="#ffffff"
     bordercolor="#000000"
     borderopacity="0"
     inkscape:pageopacity="0.0"
     inkscape:pageshadow="2"
     inkscape:zoom="2.6394158"
     inkscape:cx="114.26989"
     inkscape:cy="-68.4835"
     inkscape:document-units="mm"
     inkscape:current-layer="layer1"
     showgrid="false"
     inkscape:window-width="1301"
     inkscape:window-height="744"
     inkscape:window-x="65"
     inkscape:window-y="24"
     inkscape:window-maximized="1"
     inkscape:showpageshadow="false"
     fit-margin-top="0"
     fit-margin-left="0"
     fit-margin-right="0"
     fit-margin-bottom="0"
     units="px" />
  <metadata
     id="metadata7206">
    <rdf:RDF>
      <cc:Work
         rdf:about="">
        <dc:format>image/svg+xml</dc:format>
        <dc:type
           rdf:resource="http://purl.org/dc/dcmitype/StillImage" />
        <dc:title></dc:title>
      </cc:Work>
    </rdf:RDF>
  </metadata>
  <g
     inkscape:label="Layer 1"
     inkscape:groupmode="layer"
     id="layer1"
     transform="translate(35.054357,-186.38576)">
    <path
       inkscape:connector-curvature="0"
       id="path7237"
       d="m -32.246747,193.42931 c -0.01421,-0.006 -0.03625,-0.0141 -0.04896,-0.0176 -0.01272,-0.004 -0.03966,-0.0163 -0.05988,-0.0284 -0.031,-0.0186 -0.03755,-0.0247 -0.04181,-0.039 -0.0088,-0.0293 -0.02554,-0.0464 -0.05395,-0.0547 -0.02251,-0.007 -0.02641,-0.01 -0.0343,-0.0262 -0.0114,-0.0242 -0.01116,-0.0325 0.0012,-0.0398 0.01908,-0.0113 0.02468,-0.0172 0.02669,-0.0279 0.0011,-0.006 0.0052,-0.0132 0.0089,-0.016 0.0054,-0.004 0.0049,-0.007 -0.0028,-0.0145 -0.0077,-0.007 -0.0084,-0.0113 -0.0036,-0.0192 0.0034,-0.005 0.0078,-0.0172 0.0098,-0.0261 0.0073,-0.0321 0.02404,-0.054 0.0411,-0.054 0.0089,0 0.0094,-8.8e-4 0.0102,-0.0307 3.72e-4,-0.0119 0.0026,-0.0252 0.0052,-0.0295 0.0032,-0.006 0.0013,-0.01 -0.0071,-0.0151 -0.0108,-0.007 -0.0294,-0.0263 -0.0294,-0.0309 0,-8.7e-4 0.0065,-8.7e-4 0.0144,4.1e-4 0.01746,0.003 0.01817,4e-4 0.0026,-0.009 -0.0065,-0.004 -0.01032,-0.009 -0.0085,-0.0106 0.0018,-0.002 -0.0018,-0.005 -0.0079,-0.008 -0.01376,-0.006 -0.03514,-0.043 -0.03514,-0.0609 0,-0.007 0.0041,-0.0193 0.009,-0.0266 0.0091,-0.0138 0.0092,-0.0133 -0.0073,-0.0556 -0.0023,-0.006 -1.87e-4,-0.0102 0.007,-0.0134 0.0096,-0.004 0.0097,-0.005 8.06e-4,-0.0138 -0.0052,-0.005 -0.0095,-0.0115 -0.0095,-0.0145 0,-0.003 -0.0032,-0.005 -0.0071,-0.004 -0.0046,6e-4 -0.0085,-0.006 -0.0108,-0.0172 -0.002,-0.01 -0.01068,-0.031 -0.01902,-0.0469 -0.0084,-0.0159 -0.02585,-0.0491 -0.03877,-0.0739 -0.03832,-0.0735 -0.04724,-0.0851 -0.0791,-0.10307 -0.01603,-0.009 -0.03158,-0.0216 -0.03526,-0.0285 -0.0036,-0.007 -0.01429,-0.0159 -0.02374,-0.0202 -0.01164,-0.005 -0.01661,-0.0102 -0.01543,-0.0153 0.0024,-0.0107 0.04081,-0.013 0.05791,-0.003 0.01164,0.006 0.01176,0.006 0.0084,-0.003 -0.002,-0.005 -6e-6,-0.0119 0.0049,-0.016 0.0095,-0.008 0.01128,-0.0401 0.0025,-0.0435 -0.0031,-8.7e-4 -0.0058,-0.009 -0.0058,-0.0163 0,-0.008 -0.0088,-0.0307 -0.01951,-0.0512 -0.01068,-0.0204 -0.0222,-0.0436 -0.02549,-0.0515 -0.0032,-0.008 -0.01266,-0.0283 -0.02081,-0.0453 -0.0082,-0.017 -0.01483,-0.0322 -0.01483,-0.0337 0,-0.002 -0.01176,-0.0212 -0.02604,-0.0436 -0.01432,-0.0224 -0.03092,-0.0543 -0.03689,-0.0709 -0.0183,-0.0508 -0.03482,-0.091 -0.04049,-0.0986 -0.003,-0.004 -0.0071,-0.0143 -0.0091,-0.0228 -0.0025,-0.0106 -0.0061,-0.015 -0.01116,-0.0137 -0.0082,0.002 -0.03176,-0.007 -0.03176,-0.0122 0,-0.002 -0.0067,-0.009 -0.01484,-0.0169 -0.01232,-0.0114 -0.01454,-0.0171 -0.01308,-0.0336 9.64e-4,-0.0109 -1.88e-4,-0.0217 -0.0025,-0.0241 -0.0024,-0.003 -0.0018,-0.0112 0.0012,-0.0198 0.0054,-0.015 0.0049,-0.0159 -0.01428,-0.0257 -0.01092,-0.005 -0.01985,-0.0132 -0.01985,-0.017 0,-0.004 -0.0025,-0.008 -0.0058,-0.009 -0.0031,-8.7e-4 -0.0058,-0.007 -0.0058,-0.013 0,-0.0131 -0.01402,-0.0349 -0.02879,-0.0448 -0.006,-0.004 -0.01477,-0.0162 -0.01944,-0.0271 -0.01152,-0.027 -0.02047,-0.0437 -0.02782,-0.052 -0.0044,-0.005 -0.0044,-0.007 3.72e-4,-0.009 0.0036,-8e-4 0.0066,-0.003 0.0066,-0.005 0,-0.002 -0.0032,-0.003 -0.0071,-0.002 -0.0062,8.8e-4 -0.01457,-0.009 -0.02568,-0.0308 -0.0018,-0.004 0.0016,-0.012 0.0073,-0.0188 0.01176,-0.0136 0.0077,-0.02 -0.0088,-0.0136 -0.01164,0.004 -0.01764,0.003 -0.01764,-0.005 0,-0.004 0.0035,-0.004 0.0086,-0.004 0.006,8.7e-4 0.0086,-4.1e-4 0.0086,-0.005 0,-0.005 -0.0025,-0.007 -0.0096,-0.005 -0.0097,0.003 -0.01892,-0.004 -0.01909,-0.0115 -4.2e-5,-0.003 0.0038,-0.004 0.0085,-0.004 0.01388,0 0.0102,-0.0142 -0.0046,-0.0178 -0.02155,-0.005 -0.02885,-0.0132 -0.02464,-0.0272 0.0024,-0.008 0.0016,-0.0127 -0.0023,-0.0127 -0.0034,0 -0.006,-0.004 -0.006,-0.009 0,-0.005 -0.0038,-0.0128 -0.0085,-0.0174 -0.0306,-0.0292 -0.04688,-0.10124 -0.02867,-0.12676 0.02033,-0.0285 0.02554,-0.04 0.02562,-0.0562 4.2e-5,-0.0119 0.0034,-0.0184 0.01164,-0.0231 0.0064,-0.004 0.01152,-0.009 0.01152,-0.012 0,-0.003 -0.01044,-0.0286 -0.02309,-0.057 -0.0127,-0.0284 -0.02251,-0.0528 -0.02182,-0.0544 6.97e-4,-0.002 -0.0016,-0.006 -0.005,-0.01 -0.0086,-0.01 -0.0365,-0.0846 -0.0365,-0.098 0,-0.0115 -0.0072,-0.0278 -0.02072,-0.0468 -0.0044,-0.006 -0.008,-0.0128 -0.008,-0.0146 0,-0.002 -0.0089,-0.0202 -0.01966,-0.0409 -0.02506,-0.048 -0.05629,-0.13078 -0.07536,-0.19966 -0.01044,-0.0379 -0.02057,-0.0619 -0.03407,-0.0811 -0.01056,-0.015 -0.02846,-0.0483 -0.03983,-0.0742 -0.05786,-0.13132 -0.07595,-0.17036 -0.102108,-0.22053 -0.01568,-0.03 -0.02852,-0.0596 -0.02852,-0.0656 0,-0.006 -0.0025,-0.0119 -0.0056,-0.0131 -0.0089,-0.003 -0.02236,-0.0357 -0.0354,-0.0847 -0.0067,-0.0253 -0.02458,-0.0694 -0.04063,-0.10042 -0.01823,-0.0352 -0.03042,-0.0662 -0.03358,-0.0854 -0.0028,-0.0165 -0.0076,-0.0331 -0.01068,-0.0367 -0.01343,-0.0157 -0.05302,-0.10426 -0.04999,-0.11181 0.0023,-0.006 0.0076,-0.008 0.01757,-0.008 0.01152,0 0.01429,-0.002 0.01429,-0.009 0,-0.0112 -0.01543,-0.0515 -0.05027,-0.13133 -0.02794,-0.064 -0.04868,-0.11306 -0.09034,-0.21349 -0.01457,-0.0351 -0.04999,-0.11868 -0.07872,-0.18567 -0.02873,-0.067 -0.0583,-0.1372 -0.06572,-0.15604 -0.0151,-0.0384 -0.03088,-0.0752 -0.105816,-0.24695 -0.02854,-0.0654 -0.06646,-0.15054 -0.08426,-0.18911 -0.04084,-0.0884 -0.06126,-0.13614 -0.119016,-0.27778 -0.02545,-0.0624 -0.05606,-0.13709 -0.06803,-0.16584 -0.012,-0.0287 -0.04289,-0.10338 -0.06875,-0.16584 -0.06964,-0.16821 -0.11574,-0.27894 -0.131369,-0.31546 -0.0077,-0.0179 -0.02293,-0.0543 -0.034,-0.0811 -0.01104,-0.0268 -0.0302,-0.0722 -0.04254,-0.10095 -0.02843,-0.0662 -0.13068,-0.31218 -0.160402,-0.38575 -0.01241,-0.0307 -0.03053,-0.0729 -0.04026,-0.0937 -0.03929,-0.0841 -0.06438,-0.14161 -0.06438,-0.14758 0,-0.004 -0.0053,-0.0159 -0.01176,-0.0276 -0.01526,-0.0277 -0.07364,-0.16451 -0.10062,-0.2358 -0.01164,-0.0308 -0.039,-0.1013 -0.0608,-0.15682 -0.02455,-0.0625 -0.03832,-0.10438 -0.03613,-0.10996 0.0044,-0.0115 0.0238,-0.025 0.04184,-0.0293 0.01807,-0.004 0.07099,0.009 0.08329,0.0202 0.0092,0.009 0.06607,0.12193 0.164806,0.32817 0.03418,0.0714 0.08455,0.17585 0.111948,0.23215 0.110472,0.22701 0.249903,0.53152 0.312186,0.68177 0.01104,0.0268 0.0306,0.0722 0.04336,0.10094 0.03036,0.0685 0.03756,0.085 0.07643,0.17486 0.04844,0.11205 0.190597,0.42882 0.2451,0.54618 0.01243,0.0268 0.02681,0.0592 0.03196,0.0721 0.0096,0.0242 0.167116,0.38623 0.20148,0.46326 0.01056,0.0238 0.0258,0.0587 0.03374,0.0775 0.0079,0.0188 0.03901,0.0902 0.06905,0.15863 0.03002,0.0684 0.07571,0.17467 0.10152,0.23614 0.05045,0.12019 0.08594,0.20207 0.121094,0.2794 0.07914,0.17407 0.110424,0.23941 0.120616,0.25192 0.01589,0.0195 0.04238,0.0615 0.07534,0.11941 0.01523,0.0268 0.03154,0.0543 0.03624,0.0613 0.0083,0.0123 0.04433,0.0972 0.06386,0.15059 0.0053,0.0145 0.02141,0.0469 0.03583,0.0721 0.04117,0.072 0.06556,0.12303 0.07193,0.15044 0.01423,0.0613 0.01841,0.0733 0.04034,0.11652 0.01277,0.0251 0.03474,0.0717 0.04882,0.10339 0.01408,0.0317 0.03316,0.0731 0.04238,0.0919 0.03294,0.0672 0.07144,0.16196 0.09247,0.22759 0.01489,0.0464 0.0332,0.083 0.0445,0.0885 0.0058,0.003 0.01309,0.003 0.0224,8.7e-4 0.02477,-0.006 0.05411,0.009 0.05411,0.0273 0,0.003 0.0094,0.0117 0.02083,0.0196 0.01825,0.0127 0.02395,0.0145 0.04597,0.0145 0.02274,0 0.02548,8.7e-4 0.02864,0.01 0.0019,0.005 0.0071,0.0173 0.0114,0.0261 0.0156,0.032 0.0416,0.14195 0.04602,0.19468 9.12e-4,0.0109 0.0041,0.0239 0.0072,0.0288 0.003,0.005 0.0074,0.0195 0.0097,0.0324 0.0023,0.0129 0.01008,0.0348 0.01727,0.0487 0.01724,0.0334 0.02305,0.0715 0.01474,0.0966 -0.0064,0.019 -0.005,0.0237 0.03462,0.12201 0.02264,0.0562 0.0499,0.11683 0.06055,0.13469 0.01068,0.0179 0.02494,0.0438 0.03173,0.0577 0.0068,0.0138 0.0208,0.0325 0.03109,0.0414 0.01032,0.009 0.0245,0.0273 0.03155,0.0406 0.01152,0.0219 0.01207,0.0262 0.0056,0.0419 -0.0062,0.0153 -0.0055,0.0223 0.0058,0.0568 0.0071,0.0215 0.01764,0.0497 0.02341,0.0626 0.0058,0.0129 0.01604,0.0408 0.02282,0.0621 0.0068,0.0213 0.02486,0.0611 0.04019,0.0883 0.01532,0.0273 0.03228,0.0626 0.03769,0.0785 0.01589,0.0465 0.05363,0.13087 0.1041,0.23253 0.02051,0.0413 0.04457,0.0773 0.05418,0.081 0.0034,8.7e-4 0.02004,0.014 0.03706,0.0283 0.02825,0.0237 0.04453,0.0349 0.08609,0.0597 0.01488,0.009 0.03482,0.0435 0.04176,0.0725 0.0028,0.0117 0.0091,0.0193 0.02263,0.0273 0.01032,0.006 0.02292,0.0161 0.02803,0.0223 0.005,0.006 0.01408,0.0133 0.01993,0.016 0.01476,0.006 0.02398,0.0185 0.02958,0.0383 0.0026,0.009 0.0091,0.0258 0.01433,0.0367 0.0053,0.011 0.01216,0.0272 0.01535,0.036 0.0031,0.009 0.0095,0.0236 0.01402,0.0324 0.01406,0.0278 0.0037,0.0406 -0.03904,0.0486 -0.01579,0.003 -0.03881,0.011 -0.05117,0.018 -0.01235,0.007 -0.02626,0.0127 -0.03089,0.0127 -0.0046,0 -0.01729,0.003 -0.02814,0.006 -0.01544,0.004 -0.02389,0.0114 -0.03908,0.0315 -0.01758,0.0233 -0.02249,0.0267 -0.0531,0.0374 -0.01855,0.006 -0.03822,0.0117 -0.04372,0.0117 -0.0055,0 -0.01283,0.004 -0.0163,0.009 -0.0054,0.007 -0.0114,0.009 -0.0398,0.0103 -0.04742,0.003 -0.07132,0.007 -0.102348,0.0205 -0.01836,0.008 -0.03054,0.0167 -0.03779,0.0272 -0.0059,0.009 -0.0172,0.0183 -0.02512,0.0216 -0.0082,0.004 -0.01519,0.0101 -0.0162,0.0155 -0.0025,0.0137 -0.01955,0.0137 -0.05066,1.3e-4 z m 0.04024,-0.003 c 0.007,-0.003 0.0073,-0.004 0.0018,-0.0104 -0.0077,-0.008 -0.0046,-0.0113 0.0098,-0.0113 0.01331,0 0.03088,-0.013 0.02674,-0.0197 -0.0067,-0.011 -0.03084,-0.006 -0.05245,0.0102 -0.01796,0.0138 -0.01992,0.017 -0.01493,0.0252 0.006,0.01 0.01462,0.0117 0.02906,0.006 z m -0.144001,-0.0653 c 0,-0.009 -0.01345,-0.008 -0.01626,8.8e-4 -0.0011,0.004 0.0018,0.006 0.0072,0.006 0.0054,0 0.0091,-0.004 0.0091,-0.008 z m 0.09504,-0.0123 c 0,-0.0128 -0.01692,-0.0172 -0.02176,-0.005 -0.0017,0.004 -0.0072,0.007 -0.01226,0.007 -0.01176,0 -0.01152,-8.8e-4 0.0023,-0.0152 0.01414,-0.0145 0.01444,-0.0179 0.0014,-0.0165 -0.0082,8.8e-4 -0.0097,-8.8e-4 -0.0083,-0.011 0.0023,-0.0143 -0.01392,-0.0324 -0.02357,-0.0264 -0.0035,0.002 -0.007,0.0165 -0.0079,0.0318 -0.0019,0.0319 0.0055,0.0429 0.03096,0.0455 0.03233,0.004 0.03901,8.8e-4 0.03901,-0.0101 z m 0.09504,-0.004 c 0,-0.0102 -0.0028,-0.0131 -0.01519,-0.0161 -0.01837,-0.004 -0.02218,-0.003 -0.014,0.006 0.0034,0.004 0.0088,0.0112 0.01188,0.0168 0.0074,0.0131 0.01729,0.009 0.01729,-0.007 z m -0.0576,-0.0161 c 0,-0.002 -0.0025,-0.004 -0.0058,-0.004 -0.0031,0 -0.0058,0.003 -0.0058,0.005 0,0.004 0.0025,0.004 0.0058,0.004 0.0031,-8.8e-4 0.0058,-0.004 0.0058,-0.005 z m 0.08471,-0.0341 c 0.01307,-0.0172 0.0052,-0.0221 -0.02827,-0.0176 -0.02768,0.004 -0.03565,0.0139 -0.01889,0.0244 0.01639,0.0102 0.03636,0.007 0.04716,-0.007 z m 0.151455,-0.004 c 0,-0.003 -0.0052,-0.005 -0.01152,-0.005 -0.01258,0 -0.01594,0.009 -0.0043,0.0118 0.0097,0.003 0.01584,-4e-4 0.01584,-0.007 z m -0.07794,0.002 c 0.0042,-0.004 -0.015,-0.011 -0.03112,-0.011 -0.01584,0 -0.01518,0.007 0.0011,0.0107 0.01727,0.004 0.02598,0.004 0.03006,4.1e-4 z m -0.348868,-0.0187 c 0.0083,-0.0148 0.008,-0.0211 -8.59e-4,-0.021 -0.01603,1.3e-4 -0.02125,0.006 -0.0178,0.019 0.0042,0.0164 0.01032,0.017 0.01868,0.002 z m 0.471737,0.007 c 0.01248,-0.008 0.0083,-0.0174 -0.0077,-0.0174 -0.01543,0 -0.02341,0.007 -0.01789,0.0162 0.004,0.006 0.01608,0.007 0.02556,8.7e-4 z m -0.373252,-0.0181 c 0,-0.002 -0.0038,-0.002 -0.0086,8.8e-4 -0.0048,0.003 -0.0086,0.006 -0.0086,0.008 0,0.002 0.0038,0.002 0.0086,-8.7e-4 0.0048,-0.003 0.0086,-0.006 0.0086,-0.008 z m -0.144002,8.8e-4 c 0,-0.002 -0.0028,-0.003 -0.0061,-0.003 -0.0034,0 -0.0046,0.002 -0.0025,0.003 0.0019,0.002 0.0047,0.004 0.0061,0.004 0.0014,0 0.0025,-0.002 0.0025,-0.004 z m 0.102984,-0.0177 c 0.005,-0.002 0.0061,-0.005 0.003,-0.008 -0.0026,-0.003 -0.0041,-0.0145 -0.0032,-0.0263 0.0014,-0.0184 5.08e-4,-0.0208 -0.0067,-0.017 -0.01502,0.008 -0.02359,0.0251 -0.01548,0.0311 0.004,0.003 0.0055,0.008 0.0036,0.0111 -0.0064,0.0103 0.0036,0.0152 0.01883,0.009 z m 0.456425,-0.007 c 0.002,-8.8e-4 0.005,-0.007 0.007,-0.0138 0.003,-0.01 2.71e-4,-0.0137 -0.01927,-0.0268 -0.01249,-0.009 -0.02354,-0.0168 -0.02456,-0.0187 -0.0011,-0.002 -0.0066,-0.002 -0.01411,8e-4 -0.0067,0.003 -0.01636,0.004 -0.02135,0.002 -0.01104,-0.003 -0.02396,-0.0199 -0.02906,-0.0387 -0.002,-0.008 -0.01,-0.0175 -0.01778,-0.0221 -0.0077,-0.004 -0.01402,-0.01 -0.01402,-0.0123 0,-0.003 -0.002,-0.004 -0.0046,-0.004 -0.0082,0 -0.01843,0.009 -0.01843,0.0153 0,0.004 -0.0055,0.0113 -0.01229,0.017 -0.01044,0.009 -0.01391,0.01 -0.02304,0.006 -0.01442,-0.005 -0.0136,-0.009 0.0049,-0.0214 0.01229,-0.008 0.01438,-0.0116 0.0096,-0.0162 -0.0046,-0.004 -0.0031,-0.009 0.0059,-0.0177 0.01337,-0.0131 0.02166,-0.0137 0.02618,-0.002 0.004,0.0104 0.014,0.0103 0.01652,-4e-4 0.0011,-0.004 0.0053,-0.0107 0.0094,-0.0137 0.0041,-0.003 0.0114,-0.0103 0.01621,-0.0163 0.0076,-0.009 0.0077,-0.0124 8.05e-4,-0.0228 -0.0044,-0.006 -0.0074,-0.0154 -0.0067,-0.0197 0.0011,-0.007 -0.0013,-0.008 -0.01847,-0.007 -0.01295,4e-4 -0.02314,0.004 -0.02948,0.009 -0.0065,0.005 -0.01357,0.007 -0.02153,0.006 -0.0068,-8.8e-4 -0.02556,0.003 -0.04477,0.009 -0.01813,0.006 -0.03616,0.0104 -0.04008,0.0104 -0.01435,0 -0.02087,0.009 -0.01352,0.0195 0.0095,0.013 0.0049,0.0143 -0.02333,0.006 l -0.02428,-0.007 0.016,-0.007 c 0.01378,-0.006 0.01493,-0.008 0.0083,-0.0131 -0.01285,-0.01 -0.02863,-0.007 -0.03912,0.007 -0.0053,0.007 -0.01271,0.0126 -0.01651,0.0126 -0.0084,0 -0.03713,0.023 -0.03686,0.0295 1.44e-4,0.003 0.0042,0.002 0.01044,-0.003 0.0056,-0.004 0.01556,-0.009 0.0221,-0.01 0.0098,-0.002 0.01249,-4e-4 0.01537,0.009 0.0037,0.0117 0.01894,0.015 0.02478,0.005 0.0025,-0.004 0.0083,-0.005 0.0222,-0.004 0.01116,8.8e-4 0.02041,6.1e-4 0.02272,-0.002 0.0047,-0.004 0.03775,-0.005 0.03775,-6e-4 0,0.002 -0.0025,0.004 -0.0058,0.005 -0.0031,8.8e-4 -0.0058,0.005 -0.0058,0.009 0,0.009 -0.01068,0.009 -0.0201,8.7e-4 -0.0038,-0.004 -0.01,-0.004 -0.0136,-0.004 -0.01,0.004 -0.0079,0.0129 0.0035,0.0154 0.0055,8.7e-4 0.0149,0.005 0.02081,0.008 0.0059,0.004 0.01627,0.006 0.02304,0.006 0.0071,0 0.01231,0.003 0.01231,0.005 0,0.003 -0.0032,0.005 -0.0072,0.004 -0.004,-4.1e-4 -0.0072,0.003 -0.0072,0.006 0,0.004 -0.0046,0.007 -0.0125,0.008 -0.02633,0.003 -0.01576,0.009 0.01522,0.009 0.0174,1.4e-4 0.03534,0.003 0.03988,0.004 0.0059,0.003 0.0094,0.004 0.01212,4e-4 0.0022,-0.002 0.0082,-0.003 0.01348,-0.002 0.0065,8.8e-4 0.01288,-0.002 0.01968,-0.009 0.0098,-0.0107 0.02144,-0.0125 0.02598,-0.004 0.0012,0.003 -0.0046,0.009 -0.01297,0.0138 -0.01666,0.0104 -0.0157,0.0222 0.0014,0.0176 0.03523,-0.009 0.04669,0.004 0.02114,0.0253 -0.01176,0.01 -0.01838,0.0123 -0.02705,0.0105 -0.01128,-0.003 -0.01128,-0.002 -6.45e-4,0.007 0.0083,0.007 0.01762,0.009 0.03962,0.0108 0.03288,0.002 0.03793,8.7e-4 0.02364,-0.006 -0.0073,-0.004 -0.009,-0.007 -0.0062,-0.0141 0.0056,-0.0141 0.04128,-0.0173 0.06577,-0.006 0.01969,0.009 0.02191,0.0145 0.0088,0.0214 -0.0067,0.004 -0.01044,0.004 -0.01555,4e-4 -0.01,-0.006 -0.02165,-0.005 -0.02165,0.003 0,0.01 0.01176,0.0152 0.02837,0.0128 0.0082,-8.8e-4 0.01643,-0.004 0.01838,-0.004 z m -0.225321,-0.14465 c 0,-0.002 0.0025,-0.004 0.0058,-0.004 0.0031,0 0.0058,0.002 0.0058,0.004 0,0.002 -0.0025,0.004 -0.0058,0.004 -0.0031,0 -0.0058,-0.002 -0.0058,-0.004 z m 0.01763,-0.005 c -0.0053,-0.004 -0.0048,-0.008 0.0023,-0.0162 0.0098,-0.0118 0.03088,-0.0162 0.02305,-0.004 -0.0024,0.004 -0.0055,0.0108 -0.0071,0.0162 -0.003,0.0111 -0.0082,0.0124 -0.01835,0.004 z m 0.05437,-0.0237 c -0.002,-0.002 -8.04e-4,-0.004 0.0025,-0.004 0.0034,0 0.0061,0.002 0.0061,0.004 0,0.002 -0.0011,0.004 -0.0025,0.004 -0.0014,0 -0.0041,-0.002 -0.0061,-0.004 z m -0.03744,0.17113 c 0,-0.006 -0.01531,-0.0114 -0.02112,-0.008 -0.0018,8.7e-4 -0.0018,0.004 9.5e-5,0.008 0.0044,0.007 0.02105,0.007 0.02105,5e-5 z m -0.0864,-0.0161 c 0,-0.002 -0.0011,-0.004 -0.0025,-0.004 -0.0014,0 -0.0041,0.002 -0.0061,0.004 -0.0019,0.002 -8.05e-4,0.004 0.0025,0.004 0.0034,0 0.0061,-0.002 0.0061,-0.004 z m 0.224643,-0.005 c 0,-8.8e-4 -0.0025,-0.003 -0.0058,-0.004 -0.0031,-8.8e-4 -0.0058,-4.1e-4 -0.0058,0.002 0,0.002 0.0025,0.003 0.0058,0.003 0.0031,0 0.0058,-8e-4 0.0058,-0.002 z m -0.464302,-0.0149 c 0.0049,-0.008 0.0046,-0.009 -0.0052,-0.009 -0.0048,0 -0.0086,0.004 -0.0086,0.007 0,0.009 0.0089,0.01 0.01379,8.7e-4 z m 0.137441,-0.004 c 3.38e-4,-0.002 -0.0037,-0.004 -0.009,-0.004 -0.0068,-8.7e-4 -0.0086,6.1e-4 -0.0061,0.004 0.0037,0.006 0.0141,0.006 0.01513,3e-5 z m 0.207283,-0.003 c 0.003,-0.01 -3e-5,-0.0137 -0.0079,-0.0106 -0.0065,0.003 -0.0064,0.0195 1.55e-4,0.0195 0.0028,0 0.0064,-0.004 0.0078,-0.009 z m -0.239457,-0.0192 c -0.0022,-0.005 -0.0034,-0.004 -0.0068,0.002 -0.0023,0.004 -0.0078,0.008 -0.01213,0.008 -0.0098,0 -0.0102,0.004 -9.66e-4,0.0102 0.0055,0.004 0.0086,0.003 0.01476,-0.005 0.0043,-0.005 0.0066,-0.012 0.0052,-0.0154 z m 0.176813,0.006 c -0.0077,-0.004 -0.02224,0.005 -0.01632,0.0111 0.0029,0.003 0.0067,0.003 0.01321,-0.002 0.0064,-0.004 0.0073,-0.007 0.0031,-0.01 z m 0.08555,0.003 c -0.0088,-0.005 -0.01412,-0.002 -0.0092,0.006 0.0026,0.004 0.0055,0.005 0.01,0.003 0.0043,-0.003 0.0042,-0.005 -6.97e-4,-0.008 z m -0.141733,-0.0266 c -0.0037,-0.006 -0.02417,-0.007 -0.02983,-8.8e-4 -0.0022,0.003 0.0035,0.008 0.01262,0.0123 0.0161,0.008 0.01663,0.008 0.01847,8.8e-4 0.0011,-0.004 4.74e-4,-0.01 -0.0013,-0.0123 z m 0.357868,0.0102 c -0.01544,-0.0343 -0.02525,-0.0513 -0.02947,-0.0514 -0.0028,0 -0.0034,0.007 -0.0013,0.0148 0.0024,0.009 0.0013,0.0166 -0.003,0.0199 -0.0053,0.004 -0.0038,0.007 0.0071,0.0137 0.01663,0.0103 0.03068,0.0119 0.02665,0.003 z m -0.05034,-0.0372 c 0,-0.006 0.0032,-0.0139 0.0072,-0.0179 0.0061,-0.006 0.0044,-0.0106 -0.01214,-0.0306 -0.01841,-0.0223 -0.03125,-0.0287 -0.03706,-0.0188 -0.002,0.004 -0.0043,0.004 -0.0098,4e-4 -0.0056,-0.003 -0.0052,-0.006 0.0022,-0.0125 0.01188,-0.0106 0.012,-0.0243 1.53e-4,-0.0271 -0.01357,-0.004 -0.04412,0.0173 -0.04412,0.0297 0,0.005 0.0037,0.0117 0.0083,0.0139 0.0092,0.004 0.02774,0.0315 0.02774,0.0406 0,0.006 0.04622,0.0362 0.05328,0.0343 0.0024,-6.1e-4 0.0043,-0.006 0.0043,-0.0117 z m -0.277564,0.004 c 0.0014,-0.003 -7.51e-4,-0.004 -0.005,-0.004 -0.0042,8.7e-4 -0.0086,0.004 -0.01008,0.006 -0.0014,0.003 7.51e-4,0.004 0.005,0.004 0.0041,-8.7e-4 0.0086,-0.004 0.01008,-0.006 z m -0.150241,-0.003 c -0.0019,-8.7e-4 -0.0068,-8.7e-4 -0.01104,-4e-4 -0.0046,8.8e-4 -0.0032,0.002 0.0035,0.003 0.0061,1.4e-4 0.0095,-8.1e-4 0.0076,-0.002 z m -0.04093,-0.0655 c 0.0071,-0.003 3.4e-4,-0.0188 -0.008,-0.0188 -0.01104,0 -0.01802,0.009 -0.01238,0.015 0.0061,0.007 0.01032,0.008 0.0204,0.004 z m 0.595451,-0.0169 c 0,-0.003 -0.0032,-0.006 -0.0072,-0.008 -0.004,-0.002 -0.01008,-0.006 -0.01357,-0.0101 -0.0073,-0.008 -0.02383,-0.0114 -0.03234,-0.006 -0.004,0.003 1.1e-5,0.005 0.012,0.009 0.0097,0.004 0.02053,0.009 0.0239,0.013 0.0072,0.009 0.01726,0.01 0.01726,0.002 z m -0.517973,-0.003 c -2.37e-4,-8.8e-4 -4.05e-4,-0.005 -4.05e-4,-0.008 0,-0.003 -0.0025,-0.005 -0.0058,-0.005 -0.0031,0 -0.0058,0.004 -0.0058,0.009 0,0.005 0.0028,0.009 0.0062,0.008 0.0035,-8.1e-4 0.006,-0.003 0.0058,-0.004 z m -0.08107,-0.0191 c 0,-0.004 -0.003,-0.005 -0.0068,-0.004 -0.01068,0.003 -0.01246,0.01 -0.0023,0.01 0.005,0 0.0091,-0.003 0.0091,-0.006 z m 0.165874,-0.0446 c -10e-4,-0.005 -0.006,-0.01 -0.01176,-0.0104 -0.0084,-8.7e-4 -0.01008,0.002 -0.01008,0.0159 0,0.0169 9.3e-5,0.017 0.01176,0.0104 0.0073,-0.004 0.01116,-0.0102 0.01008,-0.0159 z m -0.116916,0.0102 c 0.0038,-0.003 9.12e-4,-0.006 -0.0086,-0.0104 -0.01884,-0.009 -0.02551,-0.007 -0.02778,0.007 -0.0018,0.0114 -0.0012,0.0118 0.0144,0.009 0.009,-8.7e-4 0.01885,-0.004 0.02202,-0.006 z m 0.195114,-0.0221 c 0.01686,-0.0234 0.01705,-0.0275 0.0014,-0.0299 -0.01514,-0.003 -0.02658,1.1e-4 -0.02658,0.006 0,0.002 0.0038,0.004 0.0086,0.004 0.0098,0 0.01164,0.005 0.0029,0.009 -0.0073,0.003 -0.0076,0.0235 -2.87e-4,0.0235 0.003,0 0.0092,-0.005 0.01394,-0.0117 z m -0.05675,-0.0299 c 0.0066,-0.0251 0.0073,-0.0504 0.0017,-0.054 -0.0059,-0.004 -0.03452,0.0238 -0.03095,0.0296 0.0019,0.004 -2.8e-5,0.009 -0.0044,0.0116 -0.01526,0.0111 -0.01528,0.0179 -4.2e-5,0.0292 0.0082,0.006 0.01765,0.0104 0.02104,0.01 0.0034,-8e-4 0.0091,-0.0125 0.0127,-0.0263 z m -0.08594,0.0173 c 0.01421,-0.006 0.02664,-0.0295 0.02276,-0.0432 -0.002,-0.007 -0.0044,-0.0251 -0.0053,-0.0393 -0.0013,-0.0247 -0.01044,-0.0396 -0.02165,-0.0352 -0.0028,8.8e-4 -0.0052,0.007 -0.0053,0.0135 -2.88e-4,0.0173 -0.0091,0.004 -0.01384,-0.0195 -0.0055,-0.0285 -3.72e-4,-0.039 0.01844,-0.0381 0.01306,6.1e-4 0.0158,0.004 0.02226,0.0205 0.0041,0.0109 0.0074,0.025 0.0076,0.0315 3.38e-4,0.0157 0.01912,0.0278 0.03493,0.0225 0.01424,-0.004 0.01422,-0.007 -2.38e-4,-0.0227 -0.0068,-0.007 -0.012,-0.0196 -0.01252,-0.03 -4.91e-4,-0.01 -0.0041,-0.0201 -0.008,-0.023 -0.01,-0.008 -0.01277,-0.0333 -0.0037,-0.0351 0.004,-8.7e-4 0.0071,-0.004 0.0071,-0.007 0,-0.004 0.0017,-0.004 0.0038,-0.004 0.004,0.003 0.005,0.007 0.0108,0.0436 0.0035,0.0222 0.0197,0.0417 0.03456,0.0417 0.0044,0 0.01236,0.004 0.01756,0.009 0.01397,0.0133 0.01848,0.011 0.01596,-0.008 l -0.0023,-0.0172 0.0108,0.0145 c 0.006,0.008 0.01756,0.0165 0.026,0.0188 0.01408,0.004 0.01518,0.004 0.01518,-0.004 0,-0.0134 -0.0176,-0.0685 -0.023,-0.0719 -0.0026,-0.002 -0.0067,0.004 -0.0089,0.0135 -0.0041,0.0167 -0.01421,0.0232 -0.01421,0.009 0,-0.0204 -0.02004,-0.0732 -0.03191,-0.0842 -0.01294,-0.0119 -0.01554,-0.016 -0.02248,-0.0355 -0.0029,-0.008 -0.006,-0.01 -0.01463,-0.008 -0.0091,0.002 -0.01176,-1.2e-4 -0.01508,-0.0113 -0.0023,-0.008 -0.0012,-0.0203 0.0025,-0.0291 0.009,-0.021 0.0083,-0.0378 -0.0018,-0.0463 -0.0077,-0.006 -0.0085,-0.006 -0.0086,-8.2e-4 -4.92e-4,0.0173 -0.02306,-0.007 -0.0232,-0.0252 -4.2e-5,-0.009 -0.0108,-0.004 -0.01294,0.005 l -0.0022,0.01 -0.0074,-0.0108 c -0.0041,-0.006 -0.0089,-0.017 -0.01056,-0.0244 -0.0035,-0.0158 -0.01445,-0.016 -0.01895,-4.1e-4 -0.0025,0.009 -0.0037,0.009 -0.0072,0.004 -0.0074,-0.0119 -0.0047,-0.0303 0.0049,-0.0327 0.01044,-0.003 0.0089,-0.0189 -0.0017,-0.0176 -0.0072,8.7e-4 -0.01008,-0.004 -0.01578,-0.025 -0.0047,-0.0173 -0.01271,-0.0202 -0.01752,-0.006 -0.003,0.009 -0.0064,0.0105 -0.01631,0.01 -0.0086,-8.7e-4 -0.01188,-0.004 -0.01056,-0.008 0.0011,-0.004 0.0019,-0.0109 0.0018,-0.0158 -1.44e-4,-0.005 1.43e-4,-0.0277 5.37e-4,-0.0505 0.0013,-0.0687 -3.74e-4,-0.0774 -0.02222,-0.11394 -0.01128,-0.0189 -0.0191,-0.0353 -0.0173,-0.0364 0.0049,-0.004 0.03779,0.042 0.04183,0.0575 0.0058,0.0221 0.01488,0.0159 0.01032,-0.007 -0.0041,-0.0207 -0.02868,-0.0627 -0.04536,-0.0776 -0.0049,-0.004 -0.009,-0.0149 -0.009,-0.0234 0,-0.0132 0.0019,-0.0157 0.01398,-0.0175 0.0077,-8.8e-4 0.01854,-0.005 0.02412,-0.009 0.009,-0.006 0.0092,-0.009 0.0024,-0.0204 -0.0042,-0.007 -0.0073,-0.0202 -0.0068,-0.0285 6.98e-4,-0.0115 -0.0022,-0.017 -0.01176,-0.0226 -0.007,-0.004 -0.01465,-0.007 -0.01711,-0.007 -0.0056,0 -0.01584,0.0112 -0.03108,0.0342 -0.0066,0.01 -0.01559,0.018 -0.02005,0.018 -0.01068,0 -0.02267,-0.0152 -0.02278,-0.0291 -1.43e-4,-0.0166 0.01684,-0.0444 0.02977,-0.0488 0.01092,-0.004 0.01092,-0.004 0.0014,-0.0107 -0.0055,-0.004 -0.01496,-0.007 -0.02101,-0.007 -0.01996,0 -0.03421,-0.008 -0.04622,-0.0246 -0.0065,-0.009 -0.01664,-0.0189 -0.0225,-0.0215 -0.0059,-0.003 -0.01068,-0.008 -0.0108,-0.0126 -9.5e-5,-0.004 -0.0053,-0.015 -0.01152,-0.0237 -0.0062,-0.009 -0.0114,-0.0185 -0.0114,-0.0218 0,-0.008 -0.01306,-0.0255 -0.01892,-0.0255 -0.0025,0 -0.0017,0.004 0.0018,0.007 0.0076,0.009 0.0053,0.033 -0.0032,0.0348 -0.0035,8.1e-4 -0.01032,-0.013 -0.016,-0.0322 -0.0055,-0.0184 -0.01152,-0.037 -0.01337,-0.0415 -0.0025,-0.006 -9.12e-4,-0.008 0.0061,-0.008 0.0098,0 0.0114,0.002 0.01757,0.0194 0.0074,0.0211 0.01,0.005 0.0028,-0.0173 -0.0056,-0.018 -0.0091,-0.0227 -0.01457,-0.0199 -0.009,0.004 -0.01248,8.7e-4 -0.01732,-0.0178 -0.002,-0.008 -0.006,-0.0159 -0.0085,-0.0169 -0.0078,-0.003 -0.01679,0.0114 -0.01726,0.0279 l -4.07e-4,0.0156 -0.0074,-0.0126 c -0.0056,-0.01 -0.01044,-0.0124 -0.01973,-0.0117 -0.01,8e-4 -0.01229,-8.8e-4 -0.01229,-0.009 0,-0.01 -0.0089,-0.0188 -0.01904,-0.0188 -0.0029,0 -0.0037,0.003 -0.0018,0.005 0.0018,0.003 0.0018,0.0129 -2.38e-4,0.0218 -0.0025,0.0119 -0.0053,0.0152 -0.01,0.0123 -0.0078,-0.005 -0.0049,-0.0505 0.0036,-0.0569 0.0042,-0.004 0.0041,-0.007 -5.36e-4,-0.0137 -0.0036,-0.005 -0.0066,-0.0122 -0.0066,-0.0159 0,-0.008 -0.01164,-0.0252 -0.01709,-0.0252 -0.002,0 -0.0031,0.0247 -0.0024,0.0549 0.0014,0.0587 -0.0012,0.0654 -0.02442,0.0618 -0.01104,-0.002 -0.01374,-8e-4 -0.01374,0.005 0,0.006 0.0035,0.007 0.02304,0.006 0.01997,-8e-4 0.02304,4e-4 0.02304,0.007 0,0.004 0.0025,0.009 0.0058,0.0111 0.0031,0.002 0.0082,0.0117 0.01104,0.0215 0.0046,0.0154 0.0042,0.0169 -0.0025,0.0112 -0.0094,-0.008 -0.01998,-0.005 -0.0203,0.006 -2.38e-4,0.007 -0.0013,0.007 -0.01008,-0.003 l -0.0098,-0.0109 -0.0018,0.0134 c -9.65e-4,0.007 9.66e-4,0.0166 0.0043,0.0205 0.0034,0.004 0.0061,0.0146 0.0061,0.0238 0,0.0101 0.0035,0.0188 0.0086,0.0222 0.0048,0.003 0.0086,0.0118 0.0086,0.0199 0,0.0116 0.0024,0.0149 0.01164,0.0164 0.0097,0.002 0.01152,0.004 0.01092,0.0186 -6.45e-4,0.015 0.0025,0.029 0.0096,0.0432 0.0019,0.004 0.0042,0.004 0.0108,6.1e-4 0.0068,-0.004 0.009,-0.003 0.01188,0.006 0.0019,0.005 0.0072,0.0167 0.01164,0.0246 0.0095,0.0169 0.0108,0.0343 0.0053,0.0671 -0.0028,0.0163 -0.002,0.0246 0.0024,0.0264 0.0036,8.7e-4 0.0065,0.006 0.0065,0.0102 0,0.009 0.01008,0.03 0.0214,0.0435 0.0046,0.005 0.007,0.0123 0.0053,0.0152 -0.0037,0.006 0.0097,0.009 0.03558,0.008 0.02354,-8.7e-4 0.03122,0.006 0.02874,0.0276 l -0.0018,0.0152 -0.0096,-0.0109 c -0.0086,-0.01 -0.01008,-0.0102 -0.01393,-0.004 -0.0046,0.007 0.0055,0.0436 0.01601,0.0581 0.0035,0.004 0.01008,0.009 0.01474,0.0106 0.0066,0.002 0.0077,3e-5 0.0049,-0.007 -0.002,-0.005 -0.005,-0.0167 -0.0067,-0.0262 l -0.003,-0.0171 0.0177,0.0225 c 0.0097,0.0124 0.01868,0.0225 0.01991,0.0225 0.0012,0 8.58e-4,-0.0102 -8.04e-4,-0.0225 -0.0028,-0.021 -0.0024,-0.0222 0.0066,-0.0168 0.0059,0.004 0.01092,0.014 0.01298,0.0271 0.0018,0.0117 0.0055,0.023 0.0082,0.0251 0.0026,0.002 0.0078,0.024 0.0114,0.0487 0.0036,0.0246 0.01164,0.0569 0.01799,0.0718 0.0064,0.0149 0.01405,0.0497 0.01718,0.0775 0.0054,0.0474 0.0065,0.059 0.0094,0.0988 0.0013,0.0178 0.0056,0.0173 0.01627,-0.003 0.0052,-0.009 0.0058,-0.0199 0.0022,-0.0369 -0.0083,-0.039 -0.01254,-0.0984 -0.0068,-0.0962 0.0053,0.002 0.01286,0.0243 0.01454,0.0425 4.92e-4,0.005 0.0029,0.0109 0.0052,0.0124 0.0065,0.004 0.0052,-0.0531 -0.0019,-0.0816 -0.0086,-0.0347 -0.0046,-0.042 0.01008,-0.0179 0.0092,0.0152 0.01276,0.0319 0.01541,0.0721 0.0019,0.0287 0.0052,0.0614 0.0072,0.0725 0.0024,0.0127 0.0016,0.0211 -0.0023,0.0226 -0.007,0.003 -0.01548,-0.0173 -0.0097,-0.023 0.0041,-0.004 -0.0067,-0.0144 -0.01518,-0.0144 -0.0084,0 -0.0056,0.0212 0.0042,0.0333 0.0085,0.0103 0.0085,0.012 0,0.0211 -0.0102,0.0108 -0.0128,0.043 -0.0035,0.043 0.0031,0 0.0058,-0.005 0.0058,-0.0123 0,-0.0129 0.01375,-0.0203 0.01968,-0.0107 0.0018,0.003 0.0034,0.0245 0.0034,0.0478 0,0.028 0.003,0.0488 0.0091,0.0614 0.0062,0.0132 0.0085,0.03 0.0073,0.0541 -0.0019,0.0384 0.0049,0.0506 0.03286,0.0586 0.0078,0.003 0.01409,0.005 0.01409,0.008 0,0.002 0.005,0.003 0.01128,0.002 0.0077,-8.8e-4 0.01242,4e-4 0.01478,0.005 0.0036,0.007 0.0125,0.009 0.02344,0.004 z m -0.07196,-0.0513 c -0.0038,-0.008 -0.004,-0.0507 -2.37e-4,-0.0545 0.009,-0.009 0.01068,-8.8e-4 0.0059,0.0277 -0.0026,0.0158 -0.0053,0.0279 -0.0058,0.0269 z m 0.160659,-0.0937 c 0,-0.004 0.0025,-0.007 0.0058,-0.007 0.0031,0 0.0058,0.004 0.0058,0.007 0,0.004 -0.0025,0.007 -0.0058,0.007 -0.0031,0 -0.0058,-0.004 -0.0058,-0.007 z m -0.137118,-0.0162 c 1.43e-4,-0.006 0.0014,-0.008 0.0029,-0.004 0.0014,0.004 0.0013,0.009 -2.36e-4,0.0109 -0.0016,0.003 -0.0028,-4e-4 -0.0026,-0.006 z m 0.123988,-0.0391 c -0.0023,-0.003 -0.0041,-0.009 -0.004,-0.0126 1.86e-4,-0.005 8.05e-4,-0.005 0.0061,4e-4 0.0032,0.004 0.005,0.009 0.004,0.0126 -0.0018,0.005 -0.0024,0.005 -0.0061,-4e-4 z m -0.1011,-0.009 c -0.0036,-0.006 -0.004,-0.011 -8.05e-4,-0.011 0.006,0 0.01438,0.0174 0.0098,0.0202 -0.0016,8.8e-4 -0.0056,-0.004 -0.009,-0.009 z m 0.05794,-0.0135 c -0.0034,-0.005 -0.0076,-0.0144 -0.0095,-0.0196 -0.002,-0.006 -0.007,-0.009 -0.0124,-0.009 -0.01116,6e-4 -0.02363,-0.0202 -0.02863,-0.048 -0.002,-0.011 -0.0073,-0.0328 -0.01176,-0.0483 -0.0046,-0.0156 -0.008,-0.0326 -0.0079,-0.0378 2.36e-4,-0.009 6.97e-4,-0.009 0.0095,0.004 0.005,0.007 0.0108,0.019 0.01273,0.0267 0.0019,0.008 0.007,0.0149 0.01128,0.0158 0.006,8.7e-4 0.0068,-8.8e-4 0.0038,-0.01 -0.0028,-0.008 -0.0018,-0.0112 0.003,-0.0112 0.01325,0 0.02233,0.0126 0.02251,0.0313 9.5e-5,0.0103 0.0026,0.0228 0.0058,0.0279 0.003,0.005 0.006,0.0153 0.0065,0.0228 4.91e-4,0.008 0.0036,0.0237 0.007,0.0362 0.0042,0.0156 0.0042,0.0237 1.43e-4,0.0264 -0.0041,0.003 -0.0078,6.1e-4 -0.01207,-0.006 z m -0.02146,-0.0624 -0.0077,-0.0198 -4.92e-4,0.0164 c -2.87e-4,0.009 0.0025,0.0183 0.0064,0.0207 0.01008,0.006 0.0102,0.004 0.0018,-0.0173 z m -0.01044,-0.0295 c -0.0018,-0.003 -0.0032,-0.002 -0.0035,0.003 -2.88e-4,0.004 0.0011,0.006 0.003,0.004 0.0019,-8.7e-4 0.002,-0.004 4.74e-4,-0.007 z m -0.08152,0.056 c -0.0022,-0.0195 -0.0078,-0.0558 -0.01258,-0.0806 -0.0048,-0.0248 -0.0096,-0.0516 -0.01068,-0.0595 -0.002,-0.0149 -0.01573,-0.0566 -0.0248,-0.0757 -0.0029,-0.006 -0.0031,-0.014 -6.43e-4,-0.018 0.0025,-0.004 0.0047,-0.005 0.0049,-0.002 2.37e-4,0.003 0.0049,0.008 0.01044,0.0121 0.0055,0.004 0.01056,0.0113 0.01128,0.0165 0.0036,0.0286 0.02118,0.0829 0.02941,0.0907 0.01808,0.0172 0.02411,0.0261 0.02411,0.0358 0,0.005 0.003,0.0191 0.0066,0.0304 0.005,0.0155 0.005,0.0216 0,0.0248 -0.005,0.004 -0.0067,6.1e-4 -0.0068,-0.0101 -1.44e-4,-0.008 -0.0037,-0.0191 -0.0079,-0.025 l -0.0077,-0.0108 -0.0038,0.009 c -0.0046,0.0106 -0.0046,0.0131 2.37e-4,0.057 0.0023,0.0212 0.0014,0.0349 -0.0023,0.0373 -0.0041,0.003 -0.0071,-0.008 -0.0097,-0.0318 z m 0.04734,0.0264 c -0.0024,-0.003 -0.0041,-0.0117 -0.004,-0.018 3.72e-4,-0.0111 4.91e-4,-0.0112 0.006,-0.003 0.0031,0.005 0.0049,0.013 0.004,0.0181 -0.0014,0.008 -0.0023,0.008 -0.006,0.003 z m 0.0648,-0.11778 c 0,-0.002 0.0025,-0.004 0.0054,-0.004 0.003,0 0.0071,0.002 0.009,0.004 0.0019,0.002 -4.91e-4,0.004 -0.0054,0.004 -0.0049,0 -0.009,-0.002 -0.009,-0.004 z m -0.0341,-0.0237 c 2.88e-4,-0.004 0.0017,-0.005 0.0035,-0.002 0.0017,0.003 0.0014,0.006 -4.74e-4,0.007 -0.0019,8.8e-4 -0.0032,-8.7e-4 -0.003,-0.004 z m -0.08302,-0.0688 c -0.002,-8.8e-4 -0.0038,-0.007 -0.0038,-0.0129 0,-0.0144 0.01385,-0.011 0.0162,0.003 0.0017,0.0107 -0.0035,0.0145 -0.01236,0.009 z m -0.05282,-0.0723 c -0.0019,-0.008 -0.0044,-0.0165 -0.0055,-0.0199 -0.0028,-0.009 0.0067,-0.0117 0.01056,-0.004 0.0079,0.0168 0.01,0.0328 0.0044,0.0349 -0.0036,8.8e-4 -0.0074,-0.004 -0.0095,-0.0113 z m -0.02014,-0.0515 c 0,-0.004 0.0025,-0.007 0.0058,-0.007 0.0031,0 0.0058,0.004 0.0058,0.007 0,0.004 -0.0025,0.007 -0.0058,0.007 -0.0031,0 -0.0058,-0.004 -0.0058,-0.007 z m 0.03809,-0.0364 c -0.0066,-0.0132 -0.0078,-0.0214 -0.0032,-0.0231 0.0056,-0.003 0.01446,0.0227 0.0092,0.026 -0.0019,8.7e-4 -0.0046,-1.2e-4 -0.0059,-0.003 z m -0.04552,-0.0282 c -0.01334,-0.0265 -0.01223,-0.0345 0.002,-0.0148 0.0064,0.009 0.0108,0.0202 0.0097,0.0252 -0.0016,0.007 -0.004,0.005 -0.01176,-0.0104 z m -0.108792,-8.1e-4 c -0.01217,-0.0117 -0.02081,-0.0377 -0.01128,-0.0341 0.0036,8.7e-4 0.0066,0.005 0.0066,0.008 0,0.003 0.0041,0.006 0.0091,0.008 0.0061,0.002 0.0085,0.007 0.0072,0.0154 l -0.0019,0.0122 z m 0.145477,-0.005 c 2.87e-4,-0.004 0.0017,-0.005 0.0035,-0.002 0.0017,0.003 0.0014,0.006 -4.74e-4,0.007 -0.0019,8.8e-4 -0.0032,-8.7e-4 -0.003,-0.004 z m -0.05184,-0.0324 c 2.88e-4,-0.004 0.0017,-0.005 0.0035,-0.003 0.0017,0.003 0.0014,0.006 -4.74e-4,0.007 -0.0019,8.7e-4 -0.0032,-8.8e-4 -0.003,-0.004 z m -0.173636,-0.0147 c -0.0032,-0.005 -0.0042,-0.0143 -0.0023,-0.02 0.0029,-0.008 0.006,-0.01 0.01464,-0.008 0.0061,8.7e-4 0.01104,4e-4 0.01104,-0.002 0,-0.002 0.0025,-0.004 0.0058,-0.004 0.0031,0 0.0058,0.004 0.0058,0.01 0,0.008 -0.0016,0.009 -0.007,0.005 -0.01312,-0.008 -0.01746,-0.004 -0.01355,0.0119 0.0044,0.0183 -0.0048,0.0225 -0.01447,0.006 z m 0.203155,-0.0446 c -0.0038,-0.004 -0.01092,-0.007 -0.01562,-0.007 -0.0047,0 -0.0086,-0.002 -0.0086,-0.004 0,-0.002 0.0022,-0.004 0.0048,-0.004 0.0064,0 0.03246,0.0176 0.02912,0.0196 -0.0014,8.8e-4 -0.0058,-8.7e-4 -0.0097,-0.005 z m -0.194696,-0.0229 c -0.01008,-0.0199 -0.0079,-0.0328 0.0049,-0.0301 0.0048,8.8e-4 0.0072,0.01 0.0073,0.0255 4.2e-5,0.0132 -4.74e-4,0.024 -0.0011,0.024 -6.97e-4,0 -0.0056,-0.009 -0.01104,-0.0194 z m 0.1484,0.0111 c -0.0035,-0.003 -0.0079,-0.0119 -0.01008,-0.0208 -0.0035,-0.0144 -0.0029,-0.0155 0.0049,-0.0106 0.008,0.005 0.02015,0.0361 0.014,0.0361 -0.0014,0 -0.0055,-0.002 -0.0089,-0.004 z m -0.238823,-0.32457 c -0.01207,-0.0116 -0.01248,-0.0168 -0.0013,-0.0168 0.0047,0 0.01008,0.004 0.01208,0.009 0.0056,0.014 -3.3e-5,0.0182 -0.0108,0.008 z m 0.58347,1.01582 c 0,-0.004 -0.0025,-0.004 -0.0058,-0.004 -0.0031,8.8e-4 -0.0058,0.004 -0.0058,0.005 0,0.002 0.0025,0.004 0.0058,0.004 0.0031,0 0.0058,-0.003 0.0058,-0.005 z m -0.288003,-0.0411 c 0,-0.0104 -0.003,-0.0153 -0.01116,-0.018 -0.02689,-0.009 -0.03604,8.7e-4 -0.01775,0.0196 0.01711,0.0173 0.0289,0.0166 0.0289,-0.002 z m 0.144001,-0.0452 c 0,-0.003 -0.0025,-0.005 -0.0058,-0.005 -0.0031,0 -0.0058,0.003 -0.0058,0.005 0,0.003 0.0025,0.005 0.0058,0.005 0.0031,0 0.0058,-0.003 0.0058,-0.005 z m -0.171411,-0.037 c -0.0014,-0.003 -0.0047,-0.004 -0.0073,-0.004 -0.007,0 -0.0094,0.007 -0.0066,0.0192 l 0.0025,0.0108 0.007,-0.0104 c 0.0038,-0.006 0.0058,-0.0125 0.0043,-0.015 z m 0.03308,0.002 c 4.1e-5,-0.004 -0.0025,-0.006 -0.0056,-0.006 -0.0031,0 -0.0058,0.005 -0.0056,0.0117 9.5e-5,0.009 0.0014,0.0104 0.0056,0.006 0.003,-0.003 0.0056,-0.008 0.0056,-0.0117 z m 0.229155,-0.12598 c -0.0025,-0.004 -0.03323,-0.0111 -0.03323,-0.007 0,0.005 0.01388,0.0112 0.02467,0.0112 0.006,0 0.0098,-0.002 0.0085,-0.004 z m -0.314927,-0.141 c -0.0046,-0.003 -0.0062,-0.002 -0.0062,0.003 0,0.01 0.008,0.0146 0.01068,0.007 0.0011,-0.004 -8.58e-4,-0.008 -0.0043,-0.0101 z m -0.04662,-0.11066 c 0,-0.002 -0.0028,-0.003 -0.0061,-0.003 -0.0034,0 -0.0046,0.002 -0.0025,0.003 0.0019,0.002 0.0047,0.004 0.0061,0.004 0.0014,0 0.0025,-0.002 0.0025,-0.004 z m 0.216186,-0.037 c 0.0014,-0.003 -4.2e-5,-0.0159 -0.0035,-0.0298 -0.0034,-0.0138 -0.0066,-0.0295 -0.0072,-0.0348 -5.9e-4,-0.005 -0.0031,-0.009 -0.0055,-0.008 -0.0025,8.8e-4 -0.0034,0.0159 -0.0019,0.033 0.0014,0.0172 0.0029,0.0341 0.003,0.0376 4.91e-4,0.007 0.01104,0.009 0.01501,0.002 z m -0.0089,-0.0917 c 0,-0.007 -0.0017,-0.009 -0.0065,-0.005 -0.0036,0.003 -0.005,0.007 -0.003,0.01 0.0053,0.009 0.0096,0.007 0.0096,-0.004 z m -0.02092,-0.0416 c 0.0055,-0.0129 0.0042,-0.0171 -0.005,-0.0171 -0.006,0 -0.0086,0.004 -0.0086,0.0126 0,0.0142 0.0083,0.0169 0.01364,0.004 z m -0.321814,-0.0892 c -0.0019,-0.002 -0.006,-0.004 -0.009,-0.004 -0.003,0 -0.0054,0.002 -0.0054,0.004 0,0.002 0.0041,0.004 0.009,0.004 0.0049,0 0.0073,-0.002 0.0054,-0.004 z m 0.360005,-0.0361 c 0,-0.002 -0.0028,-0.004 -0.0061,-0.004 -0.0034,0 -0.0046,0.002 -0.0025,0.004 0.0019,0.002 0.0047,0.004 0.0061,0.004 0.0014,0 0.0025,-0.002 0.0025,-0.004 z m -0.144001,-0.0793 c 0,-0.002 -0.0025,-0.004 -0.0058,-0.004 -0.0031,0 -0.0058,0.002 -0.0058,0.004 0,0.002 0.0025,0.004 0.0058,0.004 0.0031,0 0.0058,-0.002 0.0058,-0.004 z m -0.09516,-0.13361 c -0.0035,-0.007 -0.0049,-0.007 -0.0092,-0.003 -0.0065,0.007 2.4e-5,0.019 0.0078,0.0141 0.003,-0.002 0.0037,-0.007 0.0014,-0.0116 z m -0.21013,0.003 c 0,-0.007 -0.01748,-0.0296 -0.02104,-0.0273 -0.0054,0.004 0.01008,0.0351 0.016,0.0328 0.0028,-8.8e-4 0.005,-0.004 0.005,-0.005 z m -0.0864,-0.005 c 0,-8.7e-4 -0.0025,-0.003 -0.0058,-0.004 -0.0031,-8.8e-4 -0.0058,-4e-4 -0.0058,0.002 0,0.002 0.0025,0.004 0.0058,0.004 0.0031,0 0.0058,-8.1e-4 0.0058,-0.002 z m 0.338019,-0.0351 c -0.0018,-0.003 -0.0032,-0.002 -0.0035,0.003 -2.88e-4,0.004 0.0011,0.006 0.003,0.004 0.0019,-8.8e-4 0.002,-0.004 4.74e-4,-0.007 z m -0.276549,-0.0657 c -0.0097,-0.0473 -0.01807,-0.0552 -0.02447,-0.0232 -0.0025,0.0126 -0.0041,0.0243 -0.0034,0.0259 6.98e-4,0.002 -0.0016,0.005 -0.005,0.008 -0.0049,0.004 -0.0013,0.008 0.01564,0.0195 0.01211,0.008 0.02273,0.0133 0.02362,0.0116 8.58e-4,-0.002 -0.002,-0.0204 -0.0064,-0.0417 z m -0.07906,-8.7e-4 c -0.0023,-0.0241 -9.66e-4,-0.0268 0.01128,-0.0227 0.01272,0.004 0.02008,-0.003 0.01176,-0.0109 -0.004,-0.004 -0.0065,-0.004 -0.01214,-6e-4 -0.0097,0.006 -0.01637,0.005 -0.01637,-8.8e-4 0,-0.004 0.0068,-0.009 0.01528,-0.0137 0.01217,-0.007 0.01448,-0.0102 0.0114,-0.0179 -0.0052,-0.013 -0.01624,-0.0122 -0.02798,0.002 -0.0076,0.009 -0.0092,0.019 -0.0077,0.0442 0.0023,0.0373 0.0014,0.0342 0.0095,0.0342 0.0036,0 0.0058,-0.006 0.0049,-0.0135 z m 0.187884,0.009 c -0.0071,-0.0148 -0.0095,-0.0173 -0.01466,-0.0153 -0.0035,8.8e-4 -0.0022,0.005 0.0035,0.011 0.01008,0.01 0.01452,0.0113 0.01116,0.004 z m 0.08315,-0.0315 c 0,-0.002 -0.0038,-0.004 -0.0086,-0.004 -0.0048,0 -0.0086,0.002 -0.0086,0.004 0,0.002 0.0038,0.004 0.0086,0.004 0.0048,0 0.0086,-0.002 0.0086,-0.004 z m -0.07794,-0.0166 c 0.0056,-0.005 0.0091,-0.005 0.01985,-8.7e-4 0.0172,0.006 0.02051,0.003 0.01104,-0.009 -0.005,-0.007 -0.01295,-0.0106 -0.02286,-0.0113 -0.0083,-6.1e-4 -0.02105,-0.005 -0.02832,-0.01 -0.01919,-0.0128 -0.03427,-0.0117 -0.03427,0.003 0,0.0249 0.03679,0.0449 0.05454,0.0297 z m 0.104016,0.002 c 0.0046,-0.004 -0.0082,-0.015 -0.0152,-0.0122 -0.0028,8.7e-4 -0.005,0.005 -0.005,0.009 0,0.007 0.01402,0.01 0.02032,0.004 z m 0.05263,-0.005 c 0.0019,-0.004 5.26e-4,-0.008 -0.003,-0.01 -0.0048,-0.003 -0.0065,-0.003 -0.0065,-4e-5 0,0.003 -0.0016,0.007 -0.0035,0.01 -0.0019,0.004 -5.36e-4,0.006 0.003,0.006 0.0036,0 0.0082,-0.003 0.01008,-0.005 z m -0.283324,-0.0411 c -0.0022,-0.007 -0.0048,-0.0263 -0.0059,-0.0427 -0.0022,-0.0359 -0.0053,-0.0428 -0.0165,-0.037 -0.0059,0.003 -0.0067,0.008 -0.003,0.0175 0.0078,0.0209 0.0067,0.0537 -0.0014,0.0485 -0.0068,-0.004 -0.02056,-0.025 -0.02606,-0.0395 -0.0017,-0.004 -0.0066,-0.01 -0.01104,-0.0122 -0.0066,-0.004 -0.0082,-0.002 -0.0089,0.008 -4.91e-4,0.007 -3.72e-4,0.0159 2.36e-4,0.0202 0.0016,0.0113 -0.01,0.0236 -0.01992,0.0211 -0.0059,-0.002 -0.0082,8.7e-4 -0.0082,0.009 0,0.0133 0.0055,0.0223 0.01212,0.0198 0.0029,-8.7e-4 0.0052,-0.006 0.0052,-0.0121 0,-0.009 0.0017,-0.01 0.01584,-0.009 0.03298,0.004 0.04754,0.009 0.04645,0.0189 -5.36e-4,0.005 0.0025,0.0131 0.0068,0.018 l 0.0078,0.009 0.0052,-0.0125 c 0.0029,-0.007 0.0035,-0.0182 0.0012,-0.0252 z m 0.174381,-0.004 c -0.0013,-0.003 -0.0071,-0.005 -0.01277,-0.006 -0.009,-8.7e-4 -0.0092,-4e-4 -0.0024,0.004 0.0096,0.007 0.01847,0.008 0.01516,8.8e-4 z m -0.09934,-0.0172 c 0.0046,-0.004 -0.002,-0.018 -0.009,-0.018 -0.003,0 -0.0054,0.005 -0.0054,0.0108 0,0.0107 0.0074,0.0143 0.01442,0.007 z m 0.13821,-0.0108 c 0.0058,-0.007 0.0067,-0.0108 0.0025,-0.0108 -0.0083,0 -0.02822,0.0153 -0.02468,0.0189 0.0054,0.005 0.01342,0.003 0.02218,-0.008 z m -0.313923,-0.012 c 0,-0.004 -0.0065,-0.0122 -0.0144,-0.0168 -0.01633,-0.01 -0.01879,-0.005 -0.008,0.0139 0.0074,0.0133 0.02248,0.0153 0.02248,0.003 z m 0.121545,-0.0107 c -0.01044,-0.006 -0.0144,4e-4 -0.0062,0.011 l 0.0078,0.01 0.0023,-0.009 c 0.0012,-0.004 -4.91e-4,-0.0102 -0.0038,-0.0124 z m 0.103092,0.0119 c 0,-0.002 -0.0028,-0.003 -0.0061,-0.003 -0.0034,0 -0.0046,0.002 -0.0025,0.003 0.0019,0.002 0.0047,0.004 0.0061,0.004 0.0014,0 0.0025,-0.002 0.0025,-0.004 z m -0.08311,-0.0351 c -0.002,-0.005 -0.006,-0.016 -0.0086,-0.0237 -0.0026,-0.008 -0.01044,-0.0175 -0.01747,-0.0222 -0.009,-0.006 -0.01213,-0.0119 -0.0108,-0.0202 0.0018,-0.0109 2.37e-4,-0.0121 -0.0226,-0.0169 -0.02585,-0.005 -0.02819,-0.008 -0.0184,-0.0194 0.0083,-0.01 0.002,-0.0201 -0.01338,-0.0226 -0.01205,-0.002 -0.01216,-0.003 -0.0022,-0.007 0.0084,-0.004 0.0097,-0.008 0.0065,-0.0182 -0.0022,-0.007 -0.0084,-0.0154 -0.01381,-0.0179 -0.008,-0.004 -0.0097,-0.0104 -0.0096,-0.0369 2.37e-4,-0.034 -0.0064,-0.0473 -0.03012,-0.0607 -0.01556,-0.009 -0.02987,-0.006 -0.04228,0.007 -0.0092,0.01 -0.0095,0.0128 -0.0023,0.0296 0.0067,0.0159 0.0067,0.0193 -1.86e-4,0.0229 -0.01056,0.005 -0.01044,0.0337 1.43e-4,0.0404 0.01164,0.007 0.0055,0.0355 -0.0076,0.0342 -0.0065,-8e-4 -0.0094,0.002 -0.0094,0.008 0,0.005 -0.003,0.0107 -0.0065,0.0126 -0.0036,0.002 -0.0082,0.0104 -0.01008,0.0188 -0.0044,0.0188 0.0034,0.018 0.02783,-0.003 0.0094,-0.008 0.02005,-0.0143 0.02386,-0.0143 0.0098,0 0.01493,-0.0159 0.0085,-0.0265 -0.006,-0.01 -0.0019,-0.034 0.007,-0.0411 0.0044,-0.004 0.009,-0.003 0.02027,0.004 0.0128,0.008 0.0137,0.0102 0.0074,0.0175 -0.0092,0.0109 10e-4,0.0371 0.01552,0.0395 0.0084,8.7e-4 0.0079,0.002 -0.0028,0.004 -0.012,0.003 -0.01255,0.004 -0.0098,0.0283 0.0036,0.032 0.0072,0.0404 0.01536,0.0353 0.0042,-0.003 0.0038,-0.007 -0.0011,-0.0145 -0.0068,-0.0104 -0.0047,-0.0185 0.0052,-0.0185 0.0025,0 0.0079,0.005 0.01188,0.0108 0.0079,0.0119 0.01541,0.0139 0.0183,0.005 0.0012,-0.004 0.008,-4e-4 0.02058,0.0109 0.02173,0.0194 0.02305,0.0237 0.0072,0.0237 -0.01645,0 -0.01424,0.006 0.0058,0.015 0.0095,0.004 0.01728,0.0107 0.01728,0.0139 0,0.007 0.005,0.0107 0.01603,0.0107 0.0062,0 0.0073,-0.003 0.0046,-0.01 z m -0.11274,-0.0984 c 0,-0.002 0.0025,-0.003 0.0058,-0.002 0.0031,8.8e-4 0.0058,0.003 0.0058,0.004 0,8.7e-4 -0.0025,0.002 -0.0058,0.002 -0.0031,0 -0.0058,-0.002 -0.0058,-0.004 z m 0.172767,0.0984 c -1.7e-5,-0.004 -0.0037,-0.0107 -0.0083,-0.0162 -0.0048,-0.006 -0.006,-0.0107 -0.0029,-0.0119 0.0096,-0.004 0.0056,-0.0178 -0.0061,-0.0224 -0.0079,-0.004 -0.01152,-0.009 -0.01152,-0.017 0,-0.009 -0.0035,-0.0136 -0.01152,-0.0163 -0.0066,-0.003 -0.01152,-0.008 -0.01152,-0.0125 0,-0.0104 -0.0102,-0.0155 -0.01506,-0.008 -0.0041,0.007 -0.01376,0.008 -0.0137,8.7e-4 1.6e-5,-0.003 0.004,-0.009 0.0088,-0.0151 0.0052,-0.006 0.0067,-0.0118 0.0036,-0.0138 -0.0031,-0.002 -0.0066,4.1e-4 -0.0086,0.005 -0.002,0.005 -0.01164,0.011 -0.02377,0.0146 -0.01116,0.004 -0.02034,0.008 -0.02034,0.01 0,0.002 0.01032,0.007 0.02304,0.011 0.0211,0.007 0.02304,0.009 0.02304,0.0218 0,0.0104 0.0028,0.0152 0.01008,0.0168 0.01561,0.003 0.02414,0.0127 0.01838,0.0194 -0.0036,0.004 -0.0016,0.008 0.0068,0.0127 0.0066,0.003 0.01561,0.0112 0.02012,0.0166 0.0092,0.0112 0.01944,0.0131 0.01939,0.004 z m 0.05648,-0.002 c 0.0096,-0.006 0.0086,-0.0137 -0.0017,-0.0137 -0.0048,0 -0.0086,8.8e-4 -0.0086,0.004 0,0.002 -0.0016,0.006 -0.0035,0.009 -0.0041,0.007 0.0041,0.008 0.01387,8.7e-4 z m -0.202976,-0.0162 c -0.0026,-0.004 -0.0053,-0.005 -0.01008,-0.002 -0.0048,0.003 -0.0044,0.005 0.0014,0.01 0.0089,0.007 0.01457,8.8e-4 0.0086,-0.008 z m 0.236864,0.002 c -0.0018,-0.003 -0.0032,-0.002 -0.0035,0.003 -2.88e-4,0.004 0.0011,0.006 0.003,0.004 0.0019,-8.8e-4 0.002,-0.004 4.74e-4,-0.007 z m 0.07879,0.003 c -0.0018,-0.003 -0.0043,-0.005 -0.0055,-0.005 -0.0012,0 -0.0023,0.003 -0.0023,0.005 0,0.003 0.0025,0.005 0.0055,0.005 0.003,0 0.0041,-0.003 0.0023,-0.005 z m -0.341927,-0.004 c 0,-0.006 -0.01589,-0.016 -0.02254,-0.0135 -0.0053,0.002 -0.0046,0.004 0.0029,0.01 0.01032,0.007 0.01964,0.009 0.01964,0.004 z m -0.08986,-0.0181 c -0.0029,-0.0212 -0.0028,-0.0209 -0.008,-0.0132 -0.0074,0.0109 -0.0067,0.0207 0.0014,0.0189 0.004,-8.8e-4 0.007,-0.004 0.0066,-0.006 z m 0.348855,0.004 c -1.42e-4,-8.8e-4 -0.004,-0.007 -0.0084,-0.0117 -0.0046,-0.005 -0.0083,-0.016 -0.0084,-0.0246 -2.37e-4,-0.0179 -0.0084,-0.0295 -0.02057,-0.0295 -0.01116,0 -0.0108,0.0123 4.74e-4,0.0181 0.0049,0.003 0.0074,0.007 0.0055,0.0101 -0.006,0.01 0.0034,0.0362 0.01351,0.0378 0.01554,0.003 0.01812,0.003 0.01792,-4e-4 z m 0.0677,-0.045 c 0.0064,-0.0149 0.0011,-0.0268 -0.0098,-0.0226 -0.01104,0.004 -0.01164,0.0379 -5.9e-4,0.0379 0.0022,0 0.0068,-0.007 0.01044,-0.0153 z m -0.165418,8.8e-4 c 0,-0.002 -0.0025,-0.004 -0.0058,-0.005 -0.0031,-8.7e-4 -0.0058,4.1e-4 -0.0058,0.004 0,0.004 0.0025,0.005 0.0058,0.005 0.0031,0 0.0058,-8.7e-4 0.0058,-0.004 z m -0.195842,-0.0238 c 0,-0.003 -0.0025,-0.005 -0.0058,-0.005 -0.0031,0 -0.0058,0.004 -0.0058,0.007 0,0.004 0.0025,0.006 0.0058,0.005 0.0031,-8.7e-4 0.0058,-0.004 0.0058,-0.007 z m 0.241497,-0.0102 c 0.0046,-0.004 0.0048,-0.006 6.98e-4,-0.007 -0.008,-0.004 -0.01757,8.7e-4 -0.01757,0.007 0,0.007 0.0082,0.007 0.01685,1.1e-4 z m -0.06522,-0.019 -0.0088,-0.0102 -2.37e-4,0.009 c -1.44e-4,0.005 0.003,0.0112 0.0068,0.0137 0.0108,0.007 0.01212,-8.8e-4 0.002,-0.0127 z m -0.256919,-0.006 c 0,-0.005 -0.0025,-0.009 -0.0058,-0.009 -0.0031,0 -0.0058,-0.006 -0.0058,-0.0126 0,-0.011 0.0018,-0.0126 0.0144,-0.0126 0.01718,0 0.01853,-0.004 0.0034,-0.01 -0.009,-0.004 -0.01044,-0.007 -0.0078,-0.0198 0.0018,-0.009 0.0067,-0.0168 0.01104,-0.0184 0.01,-0.004 0.0102,-0.017 3.38e-4,-0.017 -0.0041,0 -0.01056,0.002 -0.0144,0.004 -0.0054,0.004 -0.007,0.003 -0.007,-0.003 0,-0.004 0.0073,-0.012 0.01637,-0.0179 0.009,-0.006 0.01805,-0.0159 0.02009,-0.0225 0.0036,-0.0117 0.0032,-0.0119 -0.01459,-0.0108 -0.01524,8.7e-4 -0.01913,0.004 -0.02313,0.0128 -0.0058,0.014 -0.01188,0.0149 -0.02071,0.003 -0.0043,-0.006 -0.01128,-0.009 -0.02032,-0.009 -0.01296,0 -0.01369,8.8e-4 -0.01266,0.0196 5.9e-4,0.0108 0.0044,0.0221 0.0084,0.0251 0.0046,0.004 0.0059,0.01 0.0034,0.0167 -0.0022,0.006 -0.0023,0.0169 -1.43e-4,0.0239 0.0034,0.0112 0.0054,0.0124 0.01783,0.0104 0.01,-0.002 0.01404,-8e-4 0.01404,0.003 0,0.003 -0.0035,0.006 -0.0078,0.007 -0.0043,8.7e-4 -0.0094,0.008 -0.0114,0.0157 -0.0031,0.012 -0.0016,0.0148 0.01213,0.0218 0.02063,0.0106 0.0301,0.0103 0.0301,-8.1e-4 z m 0.42206,-0.01 c 0.0017,-0.007 -2.37e-4,-0.014 -0.0042,-0.0171 -0.004,-0.003 -0.0089,-0.009 -0.01104,-0.0123 -0.0028,-0.005 -0.0058,-0.006 -0.01008,-0.004 -0.0043,0.003 -0.0043,0.006 -3.9e-5,0.0109 0.0034,0.004 0.0046,0.013 0.0026,0.0202 -0.003,0.0115 -0.0019,0.0131 0.0082,0.0131 0.0086,0 0.01235,-0.003 0.01451,-0.0117 z m -0.174465,-0.002 c -1.43e-4,-0.0109 -0.0098,-0.0178 -0.01796,-0.0127 -0.0055,0.004 -0.0048,0.006 0.0035,0.0117 0.01289,0.009 0.01454,0.009 0.01444,8.8e-4 z m -0.02152,-0.0182 c 0.01417,-0.008 0.01253,-0.0147 -0.0043,-0.0188 -0.01819,-0.004 -0.01812,-0.006 3.72e-4,-0.011 0.02028,-0.004 0.0178,-0.0197 -0.0032,-0.0197 -0.0147,0 -0.01698,-0.004 -0.0088,-0.017 0.003,-0.004 -0.0011,-0.008 -0.01694,-0.014 -0.01691,-0.006 -0.02069,-0.01 -0.01928,-0.0173 0.0017,-0.009 0.0034,-0.009 0.03236,-0.009 0.02482,4.1e-4 0.03,-4e-4 0.02736,-0.004 -0.0018,-0.003 -0.0032,-0.009 -0.0032,-0.0125 0,-0.006 -0.0025,-0.007 -0.02448,-0.004 -0.01346,8.7e-4 -0.02656,0.004 -0.02909,0.008 -0.0025,0.003 -0.0082,0.005 -0.01254,0.005 -0.01116,0 -0.0135,0.0107 -0.005,0.0237 0.004,0.006 0.009,0.0194 0.01116,0.0297 0.0034,0.0157 0.0024,0.0189 -0.006,0.0209 -0.0076,0.002 -0.0091,0.005 -0.0064,0.0134 0.0044,0.0137 0.01943,0.0285 0.02635,0.0258 0.0029,-8.8e-4 0.008,8.7e-4 0.01152,0.005 0.0065,0.008 0.01176,0.007 0.03024,-0.003 z m 0.140895,-0.0153 c 0.0072,-0.0119 0.0037,-0.0347 -0.0058,-0.0384 -0.0032,-8.8e-4 -0.009,4e-4 -0.01276,0.004 -0.0088,0.008 -0.0144,0.004 -0.0144,-0.009 0,-0.006 -0.0044,-0.0119 -0.01152,-0.0147 -0.0064,-0.003 -0.01152,-0.008 -0.01152,-0.0121 0,-0.0104 -0.0114,-0.0308 -0.02111,-0.0379 -0.0044,-0.004 -0.0064,-0.009 -0.0046,-0.0114 0.0019,-0.004 -9.12e-4,-0.01 -0.0062,-0.015 -0.0096,-0.009 -0.0096,-0.009 0.0053,-0.009 0.0083,0 0.01506,-4.1e-4 0.01506,-8.8e-4 0,-6e-4 -0.0061,-0.009 -0.01367,-0.0188 -0.01244,-0.0161 -0.0129,-0.0185 -0.005,-0.0259 0.007,-0.007 0.0072,-0.009 0.0013,-0.0137 -0.0065,-0.005 -0.0084,-0.004 -0.01796,6.1e-4 -0.0059,0.003 -0.01068,0.01 -0.01068,0.0144 0,0.004 -0.0052,0.0104 -0.01152,0.0129 -0.01676,0.006 -0.01588,0.0289 0.0014,0.0363 0.01232,0.005 0.01247,0.006 0.003,0.012 -0.0095,0.006 -0.0094,0.007 0.0023,0.0146 0.01044,0.007 0.01116,0.009 0.0046,0.014 -0.0065,0.005 -0.0064,0.006 5.9e-4,0.009 0.0046,0.002 0.01217,0.004 0.01694,0.004 0.0049,3e-5 0.01459,0.009 0.02216,0.019 0.02837,0.0398 0.0366,0.0496 0.04168,0.0496 0.0029,0 0.0053,-0.002 0.0053,-0.004 0,-0.003 0.003,-0.003 0.0091,8e-4 0.0083,0.004 0.0083,0.005 -9.66e-4,0.009 -0.0084,0.004 -0.009,0.006 -0.0035,0.0137 0.0086,0.0119 0.01441,0.0115 0.02246,-0.002 z m -0.07516,-0.0188 c -0.0016,-0.003 -0.0029,-4e-4 -0.0029,0.004 0,0.005 0.0013,0.007 0.0029,0.004 0.0016,-0.003 0.0016,-0.006 0,-0.009 z m -0.359498,-0.0153 c -0.0022,-0.005 -0.02023,-0.004 -0.0232,8.8e-4 -0.0018,0.003 0.0017,0.004 0.01104,0.003 0.0074,-8e-4 0.01296,-0.003 0.01216,-0.005 z m -0.02642,-0.0603 c -0.0016,-0.003 -0.0029,-4e-4 -0.0029,0.004 0,0.005 0.0013,0.007 0.0029,0.004 0.0016,-0.003 0.0016,-0.006 0,-0.009 z m 0.03074,-0.0191 c 0,-0.003 -0.0038,-0.005 -0.0086,-0.005 -0.0097,0 -0.01008,8e-4 -0.0052,0.009 0.0041,0.007 0.0138,0.004 0.0138,-0.004 z m 0.149761,-0.003 c 0,-0.008 -0.0062,-0.009 -0.0179,-0.005 -0.01502,0.006 -0.01363,0.01 0.0035,0.01 0.0082,0 0.0144,-0.002 0.0144,-0.005 z m -0.04032,-0.0299 c 0,-0.009 -0.0026,-0.0122 -0.0086,-0.0122 -0.0067,0 -0.0084,0.003 -0.0072,0.0159 0.0011,0.0122 0.0031,0.015 0.0086,0.0122 0.004,-0.002 0.0072,-0.009 0.0072,-0.0159 z m 0.138243,-0.0147 c 0,-0.009 -3.74e-4,-0.009 -0.0084,-0.003 -0.01092,0.009 -0.01092,0.0124 -1.86e-4,0.0124 0.0055,0 0.0086,-0.004 0.0086,-0.01 z m -0.161282,-0.0102 c -0.004,-0.003 -0.0108,-0.005 -0.01511,-0.005 -0.0043,0 -0.0079,0.003 -0.0079,0.005 0,0.004 0.0055,0.005 0.01511,0.005 0.01277,0 0.014,-8.8e-4 0.0079,-0.005 z m 0.0844,-0.03 c -0.0022,-0.0149 -0.01068,-0.0353 -0.02143,-0.0513 -0.0097,-0.0147 -0.02122,-0.0364 -0.02544,-0.0483 -0.0042,-0.0119 -0.01092,-0.0306 -0.01492,-0.0414 -0.0041,-0.0113 -0.01363,-0.0243 -0.02212,-0.0301 l -0.01488,-0.0102 0.0144,8.7e-4 c 0.0098,8.8e-4 0.01499,0.004 0.01624,0.009 10e-4,0.004 0.0058,0.008 0.01044,0.008 0.0056,0 0.008,-0.003 0.0071,-0.008 -8.58e-4,-0.004 0.0031,-0.0158 0.009,-0.0252 0.0072,-0.0117 0.0088,-0.0186 0.0048,-0.0216 -0.0031,-0.003 -0.01044,-0.0127 -0.01615,-0.0226 -0.0058,-0.01 -0.01225,-0.0196 -0.01446,-0.0216 -0.0022,-0.002 -0.0058,-0.01 -0.0078,-0.0167 -0.0041,-0.0139 -0.0164,-0.0232 -0.02602,-0.0195 -0.0031,8.8e-4 -0.0043,0.004 -0.0025,0.008 0.0043,0.007 -0.008,0.016 -0.02177,0.016 -0.01505,0 -0.01396,-0.0126 0.0017,-0.0195 0.0114,-0.005 0.01188,-0.007 0.0058,-0.0195 -0.0037,-0.008 -0.0068,-0.0204 -0.0068,-0.028 -4.2e-5,-0.008 -0.0092,-0.0277 -0.02057,-0.0447 -0.05281,-0.079 -0.06094,-0.0982 -0.06378,-0.15017 -0.002,-0.0373 -0.0052,-0.0518 -0.01369,-0.0635 -0.0061,-0.009 -0.01116,-0.0217 -0.0114,-0.0297 -1.86e-4,-0.009 -0.0059,-0.0201 -0.0145,-0.0288 -0.0078,-0.008 -0.01428,-0.0177 -0.0144,-0.0216 -1.43e-4,-0.004 -0.0041,-0.0103 -0.0086,-0.0142 -0.0047,-0.004 -0.0084,-0.0108 -0.0084,-0.0153 0,-0.004 -0.0052,-0.0144 -0.01152,-0.0218 -0.0064,-0.007 -0.01152,-0.0172 -0.01152,-0.0217 0,-0.004 -0.0041,-0.0143 -0.009,-0.0217 -0.0082,-0.0122 -0.0097,-0.0128 -0.01652,-0.007 -0.0066,0.005 -0.0084,0.006 -0.0147,8.8e-4 -0.004,-0.003 -0.0059,-0.009 -0.0041,-0.0127 0.0035,-0.008 -0.01092,-0.0288 -0.02002,-0.0288 -0.0032,0 -0.0047,-0.002 -0.003,-0.004 0.0016,-0.003 -6.45e-4,-0.0133 -0.005,-0.0238 -0.0066,-0.016 -0.01128,-0.0468 -0.01367,-0.0904 -3.56e-4,-0.007 -0.0018,-0.008 -0.0056,-0.004 -0.0029,0.003 -0.0037,0.008 -0.002,0.0109 0.0048,0.009 -0.0147,-0.009 -0.02221,-0.0201 -0.0037,-0.005 -0.0074,-0.0159 -0.0083,-0.0229 -8.04e-4,-0.007 -0.0034,-0.0195 -0.0056,-0.0279 -0.0025,-0.009 -0.0019,-0.0153 0.0016,-0.0153 0.01322,0 -0.0066,-0.0403 -0.04162,-0.0849 -0.02731,-0.0347 -0.04499,-0.0521 -0.06749,-0.0668 -0.01675,-0.0109 -0.04267,-0.0282 -0.05759,-0.0386 -0.02635,-0.0184 -0.03912,-0.0232 -0.03912,-0.0148 0,0.003 -0.0056,0.0111 -0.01241,0.0197 -0.01222,0.0153 -0.01225,0.0159 -0.0025,0.04 0.0054,0.0135 0.01068,0.0293 0.01176,0.0353 0.0067,0.039 0.01116,0.0514 0.02094,0.059 0.0062,0.005 0.01464,0.008 0.01937,0.006 0.01104,-0.003 0.02213,-0.0291 0.01762,-0.042 -0.0031,-0.009 -0.0011,-0.011 0.01511,-0.016 0.01032,-0.004 0.0206,-0.004 0.02298,-0.004 0.0054,0.004 0.0077,0.0269 0.0062,0.0632 -0.0011,0.0272 -0.0016,0.0279 -0.01553,0.0279 -0.0224,0 -0.01852,0.0102 0.02413,0.0631 0.01673,0.0208 0.03208,0.0542 0.03634,0.0794 0.005,0.0292 0.03734,0.11032 0.0503,0.12599 0.0054,0.006 0.01176,0.032 0.01639,0.0651 0.01385,0.0996 0.04222,0.17483 0.06593,0.17483 0.0031,0 0.0056,0.003 0.0056,0.005 0,0.003 0.0038,0.007 0.0086,0.009 0.0074,0.004 0.0082,0.003 0.0052,-0.006 -0.0029,-0.009 -7.52e-4,-0.0119 0.01411,-0.0186 l 0.01754,-0.008 0.0065,0.008 c 0.0035,0.004 0.0047,0.0123 0.0026,0.0183 -0.0023,0.006 -0.001,0.0128 0.0032,0.016 0.0055,0.004 0.0054,0.008 -2.88e-4,0.0162 -0.0046,0.007 -0.0059,0.0179 -0.0036,0.0298 0.012,0.0622 0.01567,0.0749 0.02732,0.0939 0.01188,0.0194 0.0122,0.0217 0.0041,0.0307 -0.0067,0.007 -0.0078,0.0143 -0.0044,0.0294 0.01316,0.0586 0.04057,0.0864 0.06931,0.0701 0.01445,-0.008 0.02057,-0.004 0.01188,0.008 -0.008,0.0111 -0.0047,0.0257 0.01424,0.0619 0.0076,0.0145 0.01376,0.0286 0.01376,0.0316 0,0.003 0.0062,0.0165 0.01378,0.0301 0.01,0.0179 0.01296,0.0292 0.0108,0.0413 -0.0026,0.0149 -0.0018,0.0167 0.0085,0.0167 0.0064,0 0.01767,0.003 0.02522,0.007 0.0076,0.004 0.01892,0.008 0.02526,0.009 0.0064,8.8e-4 0.01738,0.008 0.02454,0.0149 0.0072,0.007 0.01537,0.0126 0.01825,0.0126 0.0029,0 0.0108,0.006 0.0177,0.0126 0.01931,0.0195 0.02522,0.0161 0.02104,-0.012 z m -0.134516,-0.18892 c -0.01525,-0.0104 -0.02432,-0.0532 -0.01128,-0.0532 0.01,0 0.01649,0.0215 0.0084,0.0278 -0.0073,0.006 -2.88e-4,0.0191 0.0102,0.0191 0.0046,0 0.0083,0.004 0.0083,0.007 0,0.009 -0.0011,0.009 -0.01556,-8.8e-4 z m -0.0092,-0.0674 c -0.0073,-0.008 -0.0082,-0.0112 -0.0031,-0.0132 0.0076,-0.003 0.02796,0.0108 0.02796,0.0187 0,0.009 -0.01439,0.005 -0.02477,-0.005 z m -0.141817,-0.36318 c -2.88e-4,-0.003 -0.0019,-0.007 -0.0037,-0.0108 -0.0031,-0.006 -0.003,-0.006 0.0032,-1.4e-4 0.0036,0.004 0.0053,0.009 0.0037,0.0108 -0.002,0.004 -0.003,0.004 -0.0032,1.4e-4 z m -0.01594,-0.0318 c -0.0036,-0.008 -0.01372,-0.025 -0.02238,-0.0378 -0.01615,-0.024 -0.04278,-0.0828 -0.04278,-0.0944 0,-0.014 0.01008,-0.005 0.01326,0.0111 0.0018,0.01 0.0086,0.0239 0.0152,0.0315 0.0065,0.008 0.01188,0.016 0.01188,0.0187 0,0.006 0.01572,0.0384 0.02692,0.0552 0.0048,0.007 0.0078,0.0169 0.0066,0.0216 -0.0017,0.007 -0.0031,0.006 -0.0086,-0.006 z m 0.401406,0.65907 c 0,-0.005 -0.01484,-0.006 -0.01955,-0.002 -0.0016,0.002 -0.0013,0.007 5.36e-4,0.0113 0.0034,0.008 0.0038,0.008 0.01128,0.002 0.0042,-0.004 0.0078,-0.009 0.0078,-0.0113 z m -0.314872,-0.004 c 0.0052,-0.004 -0.01366,-0.016 -0.01999,-0.0135 -0.0028,8.7e-4 -0.0023,0.005 9.65e-4,0.009 0.0062,0.007 0.01238,0.009 0.01903,0.004 z m 0.03263,-0.0116 c 0,-0.005 -0.01638,-0.012 -0.02306,-0.009 -0.0046,0.002 -0.0043,0.004 4.74e-4,0.008 0.0074,0.005 0.02262,0.007 0.02262,0.002 z m -0.32484,-1.19456 c -0.002,-0.006 -0.01368,-0.0223 -0.02586,-0.0351 -0.02392,-0.0254 -0.03882,-0.0535 -0.05831,-0.11005 -0.0128,-0.0371 -0.02557,-0.0679 -0.04637,-0.11175 -0.0066,-0.0138 -0.01943,-0.0431 -0.02855,-0.0649 -0.0091,-0.0218 -0.02584,-0.0608 -0.03715,-0.0865 -0.03049,-0.0695 -0.05339,-0.127 -0.0604,-0.15172 -0.0035,-0.0121 -0.01403,-0.037 -0.02359,-0.0554 -0.01793,-0.0346 -0.04692,-0.10313 -0.06107,-0.1443 -0.0077,-0.0225 -0.01261,-0.0322 -0.02813,-0.0559 -0.004,-0.006 -0.01032,-0.0205 -0.01423,-0.0324 -0.004,-0.0119 -0.01056,-0.0281 -0.01465,-0.0361 -0.01561,-0.03 -0.05447,-0.12336 -0.05447,-0.13088 0,-0.004 -0.0052,-0.0164 -0.01164,-0.0268 -0.0064,-0.0104 -0.01666,-0.0322 -0.02287,-0.0485 -0.0062,-0.0163 -0.01777,-0.0422 -0.0257,-0.0577 -0.0079,-0.0155 -0.01816,-0.0378 -0.02272,-0.0498 -0.0046,-0.0119 -0.01399,-0.0346 -0.02095,-0.0504 -0.007,-0.0159 -0.0225,-0.0524 -0.03455,-0.0811 -0.01205,-0.0287 -0.03005,-0.0685 -0.04002,-0.0883 -0.01,-0.0198 -0.02807,-0.0596 -0.04021,-0.0883 -0.01216,-0.0287 -0.03661,-0.086 -0.05438,-0.12733 -0.01776,-0.0412 -0.03229,-0.0776 -0.03229,-0.0808 0,-0.004 -0.0038,-0.014 -0.0085,-0.0241 -0.01276,-0.0276 -0.05539,-0.1316 -0.061,-0.14882 -0.0028,-0.009 -0.01188,-0.0294 -0.02035,-0.0469 -0.0085,-0.0175 -0.02153,-0.0463 -0.02899,-0.0642 -0.0074,-0.0179 -0.02129,-0.0487 -0.03071,-0.0685 -0.02922,-0.0615 -0.08671,-0.19438 -0.08668,-0.20035 2.4e-5,-0.004 -0.0036,-0.0129 -0.0082,-0.0216 -0.0046,-0.009 -0.0097,-0.0204 -0.01164,-0.0258 -0.004,-0.0112 -0.01528,-0.0128 -0.02702,-0.004 -0.0071,0.005 -0.0083,0.004 -0.0108,-0.008 -0.0023,-0.0112 -0.0055,-0.0144 -0.01584,-0.0152 -0.0108,-8.8e-4 -0.01297,6e-4 -0.01304,0.009 -4.2e-5,0.005 -0.0016,0.0135 -0.0032,0.0175 -0.002,0.005 0.0028,0.012 0.01447,0.0212 0.01188,0.009 0.01763,0.0179 0.01763,0.0262 0,0.018 0.02028,0.0731 0.03223,0.0876 0.0041,0.005 0.01176,0.0195 0.01714,0.0324 0.0053,0.0129 0.01601,0.038 0.02372,0.0559 0.0077,0.0179 0.01626,0.0398 0.019,0.0487 0.0028,0.009 0.01188,0.03 0.02034,0.0469 0.0085,0.0168 0.01789,0.0379 0.02095,0.0469 0.02291,0.0668 0.04249,0.11279 0.05382,0.12621 0.0042,0.005 0.0134,0.0244 0.02045,0.0433 0.0071,0.0188 0.01666,0.0407 0.02137,0.0486 0.0047,0.008 0.01068,0.0209 0.01316,0.0288 0.0025,0.008 0.01104,0.028 0.019,0.0448 0.0079,0.0167 0.01738,0.041 0.02102,0.0541 0.0036,0.013 0.0132,0.0359 0.0212,0.0508 0.02244,0.0417 0.02971,0.0583 0.05382,0.1235 0.01229,0.0332 0.02614,0.0689 0.03077,0.0793 0.0046,0.0104 0.01291,0.0302 0.0184,0.0442 0.0055,0.0138 0.02137,0.0528 0.03532,0.0865 0.03599,0.0871 0.0731,0.1815 0.08786,0.22353 0.007,0.0198 0.02158,0.0541 0.03248,0.0762 0.01092,0.0221 0.02222,0.0472 0.02516,0.0559 0.0084,0.0249 0.01574,0.0416 0.02014,0.046 0.0023,0.003 0.01402,0.0296 0.02621,0.0608 0.01218,0.0312 0.02468,0.0616 0.02779,0.0675 0.0031,0.006 0.0097,0.0234 0.01478,0.0388 0.01991,0.0609 0.02843,0.0841 0.03294,0.0896 0.0049,0.006 0.04489,0.099 0.04946,0.11498 0.0014,0.005 0.0091,0.0228 0.01711,0.0397 0.008,0.0169 0.01654,0.0355 0.019,0.0414 0.0114,0.0276 0.02015,0.0437 0.02652,0.0487 0.0038,0.003 0.0097,0.0143 0.01309,0.0252 0.0136,0.0438 0.02963,0.0831 0.03809,0.0934 0.0049,0.006 0.009,0.0151 0.009,0.0202 0,0.005 0.0031,0.013 0.007,0.0173 0.0079,0.009 0.01032,0.0227 0.01008,0.0583 -1.32e-4,0.0251 -4.2e-5,0.0253 0.0303,0.0485 0.04883,0.0373 0.08756,0.0624 0.08981,0.0582 0.003,-0.006 0.01825,-0.004 0.02207,8.8e-4 0.0064,0.0104 0.01511,0.005 0.01128,-0.006 z m -1.040296,-2.36099 c 0,-0.004 -0.0035,-0.0123 -0.0077,-0.0187 -0.0042,-0.006 -0.01116,-0.023 -0.01522,-0.0369 -0.01116,-0.0378 -0.03281,-0.0917 -0.05812,-0.14485 -0.01243,-0.0261 -0.02644,-0.0586 -0.03113,-0.0721 -0.0047,-0.0135 -0.01632,-0.0384 -0.02585,-0.0553 -0.0095,-0.0168 -0.01736,-0.0343 -0.0174,-0.0387 -3.8e-5,-0.004 -0.005,-0.0162 -0.01104,-0.0261 -0.006,-0.01 -0.0097,-0.0212 -0.0082,-0.025 0.0017,-0.004 -0.0035,-0.0128 -0.01206,-0.0207 -0.0082,-0.008 -0.01494,-0.0186 -0.01494,-0.0243 0,-0.006 -0.01044,-0.0318 -0.02309,-0.0577 -0.0127,-0.0259 -0.02683,-0.0553 -0.03142,-0.0652 -0.0046,-0.01 -0.02042,-0.0424 -0.03521,-0.0721 -0.01478,-0.0298 -0.03596,-0.0776 -0.04706,-0.10635 -0.01116,-0.0287 -0.03314,-0.0782 -0.04898,-0.10996 -0.01584,-0.0317 -0.03348,-0.0682 -0.0392,-0.0811 -0.02195,-0.0494 -0.03512,-0.0779 -0.04085,-0.0883 -0.0073,-0.0134 -0.01428,-0.0298 -0.0244,-0.0577 -0.022,-0.0608 -0.05814,-0.14126 -0.06821,-0.15195 -0.01238,-0.0131 -0.02572,-0.0157 -0.03164,-0.006 -0.0064,0.0104 0.01434,0.0872 0.02642,0.0978 0.01332,0.0117 0.04049,0.0578 0.04714,0.0799 0.007,0.0232 0.04016,0.10293 0.05521,0.13261 0.0043,0.009 0.0078,0.0184 0.0078,0.022 0,0.004 0.01128,0.0291 0.02519,0.0567 0.01385,0.0276 0.02561,0.0563 0.02612,0.064 5.24e-4,0.008 0.0046,0.0197 0.009,0.0271 0.01799,0.0297 0.0686,0.14134 0.09589,0.21155 0.01232,0.0317 0.02778,0.0698 0.03436,0.0847 0.01993,0.0451 0.02228,0.0519 0.02243,0.0638 1.7e-4,0.0127 0.0091,0.0186 0.01907,0.0123 0.0036,-0.003 0.01116,-0.004 0.01694,-0.004 0.0098,0 0.0097,8e-4 -0.0017,0.0103 -0.01164,0.01 -0.01188,0.0117 -0.005,0.0385 0.0046,0.0176 0.01116,0.0306 0.01782,0.0347 0.0059,0.004 0.01044,0.009 0.01044,0.0111 -8.6e-5,0.003 0.0108,0.0284 0.02417,0.0575 0.02382,0.0519 0.02412,0.0532 0.01368,0.0604 -0.01044,0.007 -0.01032,0.008 0.0055,0.0263 0.0089,0.0104 0.01934,0.0214 0.02326,0.0243 0.004,0.003 0.01,0.0184 0.01356,0.0342 0.0036,0.0159 0.0077,0.0321 0.0092,0.0361 0.0016,0.004 0.0058,0.0161 0.0095,0.0271 0.0036,0.011 0.01,0.0222 0.01402,0.0252 0.0041,0.003 0.0092,0.0103 0.01164,0.0162 0.0053,0.0134 0.0079,0.0145 0.03679,0.0152 0.01964,4e-4 0.02326,-6e-4 0.02326,-0.007 z"
       style="fill:#000000;stroke-width:0.12312638" />
  </g>
</svg>
