<svg xmlns="http://www.w3.org/2000/svg" viewBox="0 0 71.4 85.58"><defs><style>.cls-1{fill:#11532c;}.cls-2{fill:#fff;}</style></defs><title>Asset 3</title><g id="Layer_2" data-name="Layer 2"><g id="Layer_1-2" data-name="Layer 1"><path class="cls-1" d="M24.5,85.58c-14-48.9,39.2-44,21.9,0,12.8-7.9,25-24.6,25-24.6S62.5,31.38,43,7c-6.5-8.9-8.1-9.7-14.6,0C28.4,7,8.1,35.78,0,61l1.2.8,3.7-1.6s-1.2-7.3,7.7-8.5c0-2,2.4-2.4,2.4-2.4s0-3.2,4.5-5.7c.8-1.6,3.7-4.1,3.7-4.1L7.8,69.08A89.73,89.73,0,0,0,24.5,85.58Z"/><circle class="cls-2" cx="21.8" cy="37.58" r="0.4"/><circle class="cls-2" cx="18.4" cy="38.48" r="1.8"/><circle class="cls-2" cx="16.9" cy="41.98" r="0.9"/><circle class="cls-2" cx="15.5" cy="40.08" r="0.6"/><circle class="cls-2" cx="19.7" cy="41.28" r="0.8"/><circle class="cls-2" cx="24.1" cy="44.28" r="1.7"/><circle class="cls-2" cx="22.1" cy="47.38" r="0.7"/><circle class="cls-2" cx="24.7" cy="40.48" r="0.6"/><path class="cls-2" d="M24.3,36.28s-1.6,4.1,1.2.8,3.2-1.2,3.2-1.2-2,3.7-1.2,3.7c-.4,3.7,2.4,4.1,4.5-.8a11.59,11.59,0,0,0,.4-4.9s2-3.7,2-.4.4,3.7.4,3.7l.8-1.6V33s1.6-3.2,1.2,0-.8,3.2-.8,3.2-1.2,1.6-1.2,6.5c1.2-.4,2.4-6.9,2.4-6.9s1.6-4.5.4,1.2-1.1,5-1.1,5,3.7-2.4,2.4-6.5c-.8-1.2-.4-4.5-.4-4.5s2-2,.4-3.2l.4-1.2s2,0,.4-2c.4-1.6.8-3.7.8-3.7h-.8l-.8,3.2s-4.1-4.9-5.7-2.8c-1.6-1.2-2.8,0-2.8,2.8-4.5,2-4.1,3.2-3.2,7.3C26.3,34.18,24.3,31.78,24.3,36.28Z"/><path class="cls-1" d="M36.5,24.48l-1,4.4a.37.37,0,0,0,.1.3h.2l2-1,.4-1.2C38.1,24.48,36.5,24.48,36.5,24.48Z"/></g></g></svg>