<?xml version="1.0" encoding="utf-8"?>
<!-- Generator: Adobe Illustrator 21.0.0, SVG Export Plug-In . SVG Version: 6.00 Build 0)  -->
<svg version="1.1" id="Layer_1" xmlns="http://www.w3.org/2000/svg" xmlns:xlink="http://www.w3.org/1999/xlink" x="0px" y="0px"
	 viewBox="0 0 133.5 67" style="enable-background:new 0 0 133.5 67;" xml:space="preserve">
<style type="text/css">
	.st0{fill:#F6D30A;}
</style>
<title>Asset 2</title>
<g id="Layer_2">
	<g id="Layer_1-2">
		<g id="Layer_2-2">
			<g id="Layer_2-2-2">
				<path class="st0" d="M74.9,50.5l-3-6c1.3-0.3,2.6,0.5,2.9,1.8c0.1,0.2,0.1,0.5,0.1,0.7c1.5-0.5,2.5-0.5,3,1.5
					c6.5-5,12,3.5,13.5,5.5c15.5-13.5,26-6.5,17,9.5c51-25.9,13.1-54-14.9-60c7.5,8,5.5,22-7.5,22c-14,0-11.5-18-12-25.5
					c0,0-3,8-4.3,7.8C67.9,7,65.8,7,64,7.8C62.5,8.5,59.6,0,59.6,0c-0.5,7.5,2,25.5-12,25.5c-13,0-15-14-7.5-22
					c-28,6-66,33.9-15.1,60c-9-16,1.5-23,17-9.5c1.5-2,6.7-10.5,13.5-5.5c0,0,4.7,3,11.2,18.5C72.4,52,74.9,50.5,74.9,50.5z"/>
				<path d="M64.7,15.5v-1l0.5,0.5c0.2-0.3,0.7-0.3,0.9-0.1c0,0,0,0,0.1,0.1l0,0c0.5,0,0.5-1,0.5-1l0.5,1v2.5c0,0,1,0.5,1,1
					s0.5,0,1,0.5s1,0,1.5,0.5l2.8,2.8c0.1,0.1,0.2,0.1,0.4,0.1c0.5-0.2,1.1,0.1,1.3,0.6l0,0c0.8,1.1,1.3,2.4,1.5,3.7
					c0,0.1,0.1,0.3,0.2,0.3c0,0,0,0,0.1,0c0.6,0.2,0.2,1,0.2,1c-1.5,1.2-1.6-0.1-1.5-0.7c0-0.2-0.1-0.4-0.2-0.5
					c-0.7-0.5-2.7-1.9-2.7-2.3s-2-1-2.5-2c-0.5-0.5-1.5,2-1.5,2c0.6,1.3,0.9,2.6,1,4c0,2,1,0,1,1.5v4c0,0,1.5,0.5,1.5,1.5V40
					c0,0.5,0.5,0,0.5,0c0.2,1.4-0.1,2.9-1,4c-1,0-0.5-1.5-0.5-1.5s-1,0.5-1-1v-3c-2.4-2.2-4.3-4.9-5.5-8c-0.5-2.5-0.7-3.5-0.4-3.6
					c0.1,0,0.2-0.2,0.2-0.3l0,0c-0.4-0.8-0.5-1.7-0.3-2.6c0-1.5-1.5-1-1.5-1c-0.5,0.5-1.1,0.8-1.8,1c-0.1,0-0.2,0.1-0.3,0.2
					C60.2,25,59.8,25,59.8,25c0,1-2.5,1-1.5-0.5c0.3-0.6,0.6-0.7,0.8-0.6c0.1,0,0.3,0,0.4-0.1c0.4-0.6,1.6-2.3,2.8-2.7
					c1.2-0.4,1.8-1.5,2.8-1.9c0.1,0,0.2-0.1,0.1-0.2c0,0,0,0,0-0.1s0-0.1-0.1-0.1c-0.7-0.4-0.4-0.7-0.4-0.7S63.7,16.5,64.7,15.5z"/>
			</g>
		</g>
	</g>
</g>
</svg>
