<svg xmlns="http://www.w3.org/2000/svg" viewBox="0 0 344.14 320.16"><defs><style>.cls-1{fill:#231f20;}.cls-2{fill:#f2efdb;}</style></defs><title>Asset 1</title><g id="Layer_2" data-name="Layer 2"><g id="Layer_1-2" data-name="Layer 1"><g id="DC-Comics-logo"><g id="Dc-Comics-logo-2" data-name="Dc-Comics-logo"><path class="cls-1" d="M202.64,245.92c7.2,0,53.7,3.6,68.6-49.1,13.8-50.1,38-141.1,38-141.1h-62.9c-17.9,0-54.7,3.6-65,35.8s-29.6,104.7-32.2,117.1c-6.1,29.2,13.8,36.8,26.6,36.8C188.34,245.42,195.44,245.92,202.64,245.92Z"/><path class="cls-1" d="M76.74,55.72l-50.1,190.2h62.9c17.9,0,54.7-3.6,65-35.8s29.6-104.7,32.2-117.1c6.1-29.2-13.8-36.8-26.6-36.8C141.24,56.22,76.74,55.72,76.74,55.72Z"/><path class="cls-2" d="M150.84,221.92a13.44,13.44,0,0,1-1.4-1.1c-5.1,8.1-12.4,13.6-20.3,17.4.2.2.5.3.7.5,6.6,4.6,132,93.1,181.1,22C263.94,303.72,186.74,248.42,150.84,221.92Z"/><path class="cls-2" d="M245.24,98.22c-1.2,3.8-4.6,16.9-8.7,32.6h43.3c9-34.4,17.7-68.3,17.7-68.3s-39.5.2-55.2,0c-23-.2-50.6,12.6-58.3,37.7-9,29.3-24.4,90.2-26.9,101.4-1.3,5.8-3.4,12.3-3.8,17.2-1.1,11.2,19.6,16.3,27.2,16.3,9.6,0,19.5.2,39.9.2,10.7,0,33.7-13.8,40.9-36.3,2.2-6.9,6.9-24.3,12.3-44.4h-43.2c-6.1,23.4-12.3,46.2-14.7,50.7-4.9,9.2-12.6,12.1-25.6,11.6,5.4-2,6.4-5.8,9.6-15.6s19.5-72,25.5-94,18.5-27.2,30.9-26.2C249,84.82,246.84,93.12,245.24,98.22Z"/><path class="cls-2" d="M153,63c-16.6,0-71.7-.2-71.7-.2L36,235.42h55.2c15.7,0,48-3.3,56.9-32.5s26.1-95.2,28.3-106.5C183.14,61.32,164.24,63,153,63Zm-19.3,35.2c-2.8,11.3-24.7,97.6-29.6,106.8s-12.6,12.1-25.6,11.6c5.4-2,6.4-5.8,9.6-15.6s19.5-72,25.5-94,5.9-19.9,1.1-25C132.44,80.92,137.94,81.32,133.74,98.22Z"/><path class="cls-1" d="M31.74,33.72c-.1.4-.1.9-.2,1.3v.1a4.87,4.87,0,0,0-.1,1.2v.3c0,.3-.1.7-.1.9v.4a2.77,2.77,0,0,1-.1.9v7.1a1.7,1.7,0,0,0,.1.7,2,2,0,0,0,.1.7,2,2,0,0,0,.1.7c0,.2.1.4.1.7s.1.4.1.7.1.4.1.7.1.4.1.7.1.4.1.7.1.4.1.7.1.4.1.7.1.4.1.7.1.4.1.7.1.4.1.7a1.85,1.85,0,0,0,.2.7,6.37,6.37,0,0,1,.2.7c.1.3.1.4.2.7s.1.4.2.7a6.37,6.37,0,0,1,.2.7,6.37,6.37,0,0,1,.2.7,6.37,6.37,0,0,0,.2.7c.1.2.1.4.2.6s.1.5.2.7.1.4.2.6a1.85,1.85,0,0,1,.2.7c.1.2.1.4.2.6a1.85,1.85,0,0,1,.2.7c.1.2.1.4.2.6a1.85,1.85,0,0,1,.2.7c.1.2.1.4.2.6a1.85,1.85,0,0,1,.2.7c.1.2.1.4.2.6a1.85,1.85,0,0,1,.2.7,1.42,1.42,0,0,1,.2.6,1.85,1.85,0,0,1,.2.7,1.42,1.42,0,0,1,.2.6,1.85,1.85,0,0,1,.2.7,1.07,1.07,0,0,1,.2.6,1.85,1.85,0,0,1,.2.7c.1.2.2.3.2.5s.2.5.3.7.2.3.2.5.2.5.3.7.2.3.2.5.2.5.3.7.2.3.2.5.2.5.3.7.2.3.2.5.2.5.3.7.2.3.2.5.2.5.3.7.2.3.2.5a2.51,2.51,0,0,0,.4.7c.1.2.2.3.2.5.2.2.2.5.4.8s.2.3.2.4c.2.2.2.5.4.7s.2.3.2.5c.2.2.2.5.4.8s.2.3.2.4a3,3,0,0,1,.4.8c.1.2.2.2.2.4a3,3,0,0,1,.4.8c.1.2.2.2.2.4a3,3,0,0,1,.4.8c.1.2.2.2.2.4.2.2.3.6.5.8s.2.2.2.4c.2.2.3.6.5.8s.2.2.2.3c.2.3.3.6.5.9.1.1.2.2.2.3a5.58,5.58,0,0,0,.5.8c.1.1.2.2.2.3.2.3.3.6.5.9.1.1.2.2.2.3a4.7,4.7,0,0,0,.6.9c.1.1.2.2.2.3a4.7,4.7,0,0,0,.6.9c.1.1.2.2.2.3l.6.9c.1.1.2.2.2.3l.6.9c.1.1.1.2.2.2a6.07,6.07,0,0,0,.7,1c.1.1.1.2.2.2a6.07,6.07,0,0,0,.7,1c.1.1.1.2.2.2a6.07,6.07,0,0,0,.7,1c.1.1.1.2.2.2a6.07,6.07,0,0,0,.7,1c.1.1.1.2.2.2.2.3.5.7.7,1,0,.1.1.1.1.2.2.3.5.7.7,1,0,.1.1.1.1.2.2.3.5.7.7,1l.1.1a10.54,10.54,0,0,1,.7,1.1l.1.1a10.54,10.54,0,0,1,.7,1.1v.1c1.1,1.5,2.1,2.9,3.3,4.4l2.5-9.6c-11.7-28.9-13.1-55.1,5.2-68.5,3.4-2.5,43-26.1,131.4,30.1.5.3,1.1.7,1.6,1a60.35,60.35,0,0,1,13.4-5.6c-72.7-60.9-156.5-79.3-195.8-40-35.5,35.5-23.9,106.9,23.1,173.8l.2-.8s-1.6-9.7,3.1-10.7c11-2.5,19.5.6,28.6,6.8-1-1.1-2-2.1-3-3.2C2.64,110.32,6.74,57.72,31.74,33.72Zm254.7,106.6c-1,3.7-2,7.4-2.9,11,19,37.3,19.7,71.2,9.2,86.3-13,18.6-45.2,21.9-83.8,8.2h-1c-12.9-5-36.4-15.1-55.9-29.2-.7,1.4-1.5,2.8-2.3,4.1a13.44,13.44,0,0,1,1.4,1.1c13.2,9.8,32.1,23.6,53.1,34.8.5.2,1,.6,1.6.8.1,0,.1.1.2.1,1.6.9,3.3,1.7,4.9,2.5a.35.35,0,0,1,.2.1c.5.2,1,.5,1.5.7a.35.35,0,0,1,.2.1,8,8,0,0,1,1.6.8h0c.6.2,1.1.6,1.7.8h0c.5.2,1.1.5,1.6.7.1.1.2.1.3.2a9.14,9.14,0,0,1,1.4.7c.1.1.2.1.3.2l3.3,1.5a.35.35,0,0,1,.2.1c.5.2,1,.4,1.4.6l.4.2c.4.2.9.3,1.3.5.1.1.2.1.3.2,1.1.4,2.2.9,3.3,1.3.1,0,.2.1.3.1.4.2.9.3,1.3.5.2.1.3.1.4.2.4.2.8.3,1.3.5l.4.2c1.1.4,2.2.7,3.3,1.1l.4.2c.4.2.8.2,1.2.4.2.1.3.1.5.2.4.2.8.2,1.2.4.2,0,.2.1.4.1.6.2,1.1.3,1.6.5h.1c.5.2,1,.2,1.6.4.2.1.3.1.5.2l1.1.3c.2.1.3.1.5.2l1.2.3c.2,0,.2.1.4.1a11,11,0,0,0,1.6.3c.1,0,.2,0,.2.1a5.85,5.85,0,0,0,1.3.2c.2,0,.3.1.5.1a4.25,4.25,0,0,0,1.1.2c.2,0,.3.1.6.1a5,5,0,0,0,1.2.2c.2,0,.2.1.4.1a10,10,0,0,0,1.6.2.6.6,0,0,1,.4.1c.4.1.8.1,1.2.2.2,0,.3.1.6.1s.7.1,1.1.2a1.49,1.49,0,0,1,.6.1c.4.1.8.1,1.2.2h.3a8.6,8.6,0,0,0,1.6.1h.5c.4,0,.7.1,1.1.1h7.6a4.49,4.49,0,0,0,1.1-.1h.5c.5,0,1-.1,1.5-.1h.2c.5-.1,1-.1,1.5-.2a.9.9,0,0,0,.5-.1,5.16,5.16,0,0,0,1.1-.2c.2,0,.4-.1.6-.1s.7-.1,1.1-.2c.2,0,.3-.1.5-.1a7.72,7.72,0,0,1,1.5-.2c.1,0,.2,0,.2-.1a5,5,0,0,1,1.2-.2c.2,0,.3-.1.5-.1a3.55,3.55,0,0,1,1-.2,4.18,4.18,0,0,1,.6-.2,3.6,3.6,0,0,1,1.1-.2c.2,0,.3-.1.4-.1.5-.2,1-.2,1.5-.4.1,0,.2-.1.3-.1a4.87,4.87,0,0,0,1.1-.4c.2-.1.3-.1.5-.2l1-.3c.2-.1.3-.2.5-.2.3-.2.7-.2,1.1-.4l.4-.2c.5-.2,1-.4,1.4-.6.1-.1.2-.1.3-.2a11.73,11.73,0,0,1,1.1-.5c.2-.1.3-.2.5-.2.3-.2.7-.3,1-.5s.3-.2.5-.2c.4-.2.7-.4,1.1-.6.1-.1.2-.1.3-.2a10,10,0,0,0,1.4-.8c.2-.1.2-.2.4-.2.3-.2.7-.4,1-.6s.3-.2.5-.3a7,7,0,0,0,.9-.6,1.38,1.38,0,0,0,.4-.3,10.48,10.48,0,0,0,1.1-.8l.2-.2,1.3-1c.2-.1.2-.2.4-.3a7.05,7.05,0,0,0,.9-.7c.2-.1.3-.2.5-.3s.6-.5.9-.7.2-.2.4-.3a15,15,0,0,1,1.3-1.1c-49.3,70.6-174.6-17.9-181.3-22.5-.2-.2-.4-.2-.6-.4l-.1-.1h0c-13.9,6.5-29.7,7.7-39.7,7.7h-.7c75.8,71.3,168.6,95.4,210.7,53.3C332.44,266.42,325,202.82,286.44,140.32Z"/><path class="cls-1" d="M325.64,220.22c-5.1-35-16.9-46.2-16.9-46.2-1.9,29.8-2,29.4-2.6,32.4-23.4-12.2-37.4-10.3-37.4-10.3s26.1,36.9,27.9,39.1c-3.8,12.3-23.9,32.5-23.9,32.5,9.6,1.7,18.7,4.6,40-7.2,5.8,8.6,10.7,18,18.1,31.5,0,0,.6-40,.3-43,4.7-3.3,13-12.4,13-12.4S328.64,222.32,325.64,220.22Z"/><path class="cls-2" d="M324,223.82c-1.6-11.3-4.9-25.3-10.5-33.2a107.89,107.89,0,0,1-3.6,23.5c-15.7-8.5-21.9-10-28.2-10.9,9.2,10.7,19,25.2,22.6,28.8-3.1,14.3-17.7,29.3-20.3,31.3,12.7,3.1,25.9-6.8,30-9.8,6.1,7.8,9.8,15.6,13.4,23.5,1.1-12.3,1.1-23,.2-30.6,8.2-5.1,8.9-7.8,11.5-10.4A129.17,129.17,0,0,0,324,223.82Z"/><path class="cls-1" d="M327.64,278.12l-.4-.9c-3.3-7.2-6.9-15.3-13.2-23.3-3.7,2.7-14,10.3-24.8,10.3a21,21,0,0,1-5.1-.6l-.5-.2.4-.3c2-1.6,17-16.5,20.1-31a107.35,107.35,0,0,1-8.3-10.6c-4.2-5.6-9.3-12.4-14.2-18.1l-.4-.5.7.1c6,.8,12.2,2.3,28,10.9a118,118,0,0,0,3.5-23.1v-.9l.4.6c6.6,9.3,9.6,26.2,10.5,33.2a112.08,112.08,0,0,1,15,12.3l.2.2-.2.2c-.7.7-1.2,1.3-1.8,2-1.6,2-3.7,4.6-9.6,8.3.9,7.7.8,18.1-.2,30.4l-.1,1ZM314,253.22l.2.2c6.1,7.8,9.8,15.7,13,22.7,1-11.9,1-22.1.1-29.5v-.2l.2-.1c6-3.8,8-6.3,9.6-8.3.6-.7,1.1-1.3,1.6-1.9a120,120,0,0,0-14.9-12.2l-.1-.1v.1c-.9-6.7-3.7-23-10-32.4a126.25,126.25,0,0,1-3.5,22.8l-.1.3-.2-.2c-15.4-8.3-21.7-10-27.5-10.9,4.8,5.6,9.7,12.3,13.8,17.6,3.8,5,6.7,9,8.3,10.6l.1.1v.2c-3,14-16.8,28.4-19.9,31.1a22.16,22.16,0,0,0,4.5.5c11,.1,21.4-7.7,24.8-10.4Z"/><path class="cls-2" d="M49.64,158.62c3.8,5,10.9,13.8,22.6,26.9-2.9-6.5-12.5-28.8-18-44.3l7.6-29c-17.3-23.5-33.7-51.1-30.1-78.6-21.3,20.4-27.5,61.7,14.1,119.9v.1s.9,1.3,2.9,4c.4.4.6.7.9,1Z"/></g></g></g></g></svg>