<svg xmlns="http://www.w3.org/2000/svg" viewBox="0 0 82.6 100.8"><defs><style>.cls-1{fill:#01340d;}.cls-2{fill:#fff;}</style></defs><title>Asset 2</title><g id="Layer_2" data-name="Layer 2"><g id="Layer_1-2" data-name="Layer 1"><g id="Layer_2-2" data-name="Layer 2"><g id="Layer_2-2-2" data-name="Layer 2-2"><path class="cls-1" d="M29.1,100.7,45.8,65c1.7,2.8,0,5-1.7,6.7,1.7,3.4,2.8,6.7-2.2,9.5,1.1,2.2.6,3.9-1.1,4.5,6.7,8.9-.6,15.1-.6,15.1H82.6V84.6H62.5c32.9-18.4,20.1-60.9-1.1-69.2H82.6L82.3,0H0V15.3H23.2C2,23.7-10.9,66.1,22.1,84.5H.6v16.2Z"/><path class="cls-2" d="M48.6,56.6s-2.2,3.9-1.1,5.6S50.3,60,50.3,60s1.1-2.2.6-3.4,2.8-1.1,2.2-6.1c2.2-2.2,1.7-3.4,2.8-5s0,2.8,0,2.8-1.7,1.7-.6,3.4,2.2-2.2,2.2-2.2V46.1s0-1.7,1.1-2.2c0-.6,1.1,1.1,1.7-4.5.6-4.5,1.7-1.1,1.7-1.1s1.7,1.7,5.6.6c2.8-1.1,1.1-3.4,0-2.8a1.21,1.21,0,0,0-.7,1.2c0,.1-.1.2-.2.3h-.1a7.32,7.32,0,0,0-2.5-.8.43.43,0,0,1-.4-.4c0-1.4-.3-4.7-3.4-4.7-1.7-.6-1.1-1.7-1.1-1.7s1.7-3.4-1.7-3.4c-3.4.6-.6,3.4-.6,3.4s0,1.1-1.7,1.1-1.1-.6-2.8.6-3.9-.6-5,1.1S45.7,35,48,35s2.8-1.1,2.8-1.1,2.2,1.1,3.4,0,.6,2.2,1.1,3.4S51.9,42.9,51.4,49C50.9,48.8,49.7,48.3,48.6,56.6Z"/></g></g></g></g></svg>