<svg xmlns="http://www.w3.org/2000/svg" viewBox="0 0 145.9 104.3"><defs><style>.cls-1{fill:#f11712;}.cls-2{fill:#f6d30a;}</style></defs><title>Asset 1</title><g id="Layer_2" data-name="Layer 2"><g id="Layer_1-2" data-name="Layer 1"><g id="Layer_2-2" data-name="Layer 2"><g id="Layer_2-2-2" data-name="Layer 2-2"><path class="cls-1" d="M0,24.7,28,0h88.3l29.6,24.7-17,18.7s-5.5-.5-7.7,1.6c-6.6-7.7-17-6-21.4-1.6-1.1-.5-2.7-2.2-6,0-1.1-2.2-7.7-6.6-13.7-2.2C77.9,39,73,40.1,73,40.1l43.9,16.5L73,104.3Z"/><path class="cls-2" d="M56.6,30.2s3.8,0,4.4.5c9.9.5,13.7,7.7,13.7,7.7-.5-6.6-4.9-9.3-9.3-9.9-3.3-4.9-10.4-6-13.2-4.9-.4-1.8-3.8-2.5-5-2.7-.2,0-.4.1-.4.3v.1h0a.43.43,0,0,1-.4.4h-.2c-.5-.2-1.3-.4-1.6.3-.5,1.1,0,1.6,0,1.6s-4.9-2.7-5.5-2.2-.5-.5-.5-.5-2.7-1.6-2.7.5c0,2.7,2.2,1.6,2.2,1.6l7.1,4.4s0,3.3,5.5,4.4c1.1,3.3,4.9,3.8,4.9,3.8a54.61,54.61,0,0,0,9.9,2.2c4.9.5,2.2,1.6,2.2,1.6s2.2,1.6,2.2,0-.5-2.2-1.1-2.2a7.49,7.49,0,0,1-1.6-.5L65,33.4l-1.1,1.1C63.7,34.6,58.3,30.2,56.6,30.2Z"/></g></g></g></g></svg>