<svg xmlns="http://www.w3.org/2000/svg" viewBox="0 0 93.58 129.85"><defs><style>.cls-1{isolation:isolate;}.cls-2{fill:#c9c9c9;}.cls-3{fill:#fff;stroke:#000;stroke-miterlimit:10;stroke-width:0.25px;}.cls-4{fill:#d66142;}.cls-5{fill:#333;}.cls-6{fill:#616161;opacity:0.2;mix-blend-mode:color-burn;}.cls-7{fill:#353137;}.cls-8{fill:#f5e51c;}.cls-9{fill:#faad7b;}.cls-10{fill:#f3f3f3;}</style></defs><title>Asset 3</title><g class="cls-1"><g id="Layer_2" data-name="Layer 2"><g id="Layer_1-2" data-name="Layer 1"><path class="cls-2" d="M10.31,129.8a10,10,0,0,1-10-9.92L0,9.84A9.94,9.94,0,0,1,10,.21L82.74.34a9.9,9.9,0,0,1,9.93,9.82V120a9.84,9.84,0,0,1-9.89,9.75Z"/><path class="cls-3" d="M11.11,129.72a9.87,9.87,0,0,1-10-9.75L.87,9.93A9.85,9.85,0,0,1,10.81.13L83.53.26a9.9,9.9,0,0,1,9.93,9.82V119.89a9.84,9.84,0,0,1-9.89,9.75Z"/><path class="cls-4" d="M82.87,127.47H11.2a7.59,7.59,0,0,1-7.6-7.56V10.13a7.59,7.59,0,0,1,7.6-7.56H82.87a7.59,7.59,0,0,1,7.59,7.56V119.91A7.59,7.59,0,0,1,82.87,127.47ZM11.2,5.56a4.58,4.58,0,0,0-4.6,4.56V119.91a4.58,4.58,0,0,0,4.6,4.56H82.87a4.58,4.58,0,0,0,4.59-4.56V10.13a4.58,4.58,0,0,0-4.59-4.56Z"/><path class="cls-5" d="M14.1,19a6.86,6.86,0,0,1-1.44.06V18a1.45,1.45,0,0,0,1.62-1.48A1.44,1.44,0,0,0,12.8,15l-.14.1v4H9.73V7.93h2.92v5.58A1.9,1.9,0,0,0,14,13a2,2,0,0,0,.35-1.38,1.7,1.7,0,0,0-.71-1,2.55,2.55,0,0,0-1-.22V7.93l4,1.39a2.6,2.6,0,0,1,.23,1,3.23,3.23,0,0,1-.16.91,4.23,4.23,0,0,1-.42,1,5.65,5.65,0,0,1-.72,1c-.44.45-.67.69-.7.74A10.81,10.81,0,0,1,16,15a3,3,0,0,1,.47,1.11,3.87,3.87,0,0,1-.92,1.7A11,11,0,0,1,14.1,19Z"/><path class="cls-4" d="M20.43,26.36c-.16,3-6.17,7.55-6.17,7.55s-6.17-4.59-6.17-7.59a3.74,3.74,0,0,1,3.75-3.72,4.85,4.85,0,0,1,2.45,1,4.42,4.42,0,0,1,2.42-1A3.69,3.69,0,0,1,20.43,26.36Z"/><path class="cls-6" d="M16.71,22.61a4.42,4.42,0,0,0-2.42,1l0,0V33.9h0s6-4.55,6.17-7.55A3.69,3.69,0,0,0,16.71,22.61Z"/><path class="cls-4" d="M74.09,104.14c.16-3,6.17-7.55,6.17-7.55s6.17,4.59,6.17,7.59a3.74,3.74,0,0,1-3.75,3.72,4.85,4.85,0,0,1-2.45-1,4.42,4.42,0,0,1-2.42,1A3.69,3.69,0,0,1,74.09,104.14Z"/><path class="cls-6" d="M77.82,107.89a4.42,4.42,0,0,0,2.42-1l0,0V96.61h0s-6,4.55-6.17,7.55A3.69,3.69,0,0,0,77.82,107.89Z"/><path class="cls-5" d="M77.43,121.48a3.87,3.87,0,0,1-.92-1.7,3,3,0,0,1,.47-1.11,10.81,10.81,0,0,1,1.1-1.15s-.26-.29-.7-.74a5.65,5.65,0,0,1-.72-1,4.23,4.23,0,0,1-.42-1,3.23,3.23,0,0,1-.16-.91,2.6,2.6,0,0,1,.23-1l4-1.39V114a2.55,2.55,0,0,0-1,.22,1.7,1.7,0,0,0-.71,1,2,2,0,0,0,.35,1.38,1.9,1.9,0,0,0,1.31.54V111.6h2.92v11.14H80.29v-4l-.14-.1a1.53,1.53,0,1,0,.14,3.05v1a6.86,6.86,0,0,1-1.44-.06A11,11,0,0,1,77.43,121.48Z"/><path class="cls-7" d="M61.09,46.82l8.13-10.38s.34-.39,0-.56-10-4-10-4-.85-.25-.78-1S58.23,30,58.1,30s-5.4-1.6-5.4-1.6a.8.8,0,0,1-.49-.76c0-.55,1.2-10.68.08-14.2l-.95,3.1s-4.79-2.46-9.24,0l-.73-3.13a30.19,30.19,0,0,0-.22,14s0,.91-.69,1-5.23,1.5-5.23,1.5-.81.14-.67,1.17-1.06,1.21-1.06,1.21l-9.1,3.56s-.71.12,0,.84l7.73,9.88"/><path class="cls-8" d="M46.54,45.25c.78-1.67,2.21-2,3.75-2.11.41,0,.94.17,1.24,0s.21-.73.33-1.11a1.73,1.73,0,0,1,.31-.63c.7-.86.9-.9,1.8-.29,2.34,1.61,4.66,3.24,7,4.83.43.29.41.47.1.88-2,2.54-4,5.09-6,7.64-2.21,2.81-4.44,5.6-6.65,8.41L47,64.67c-.23.3-.39.46-.71,0-2-2.67-4.11-5.32-6.18-8-2.67-3.41-5.32-6.83-8-10.23-.36-.44-.29-.63.16-.93,2.35-1.6,4.68-3.22,7-4.85a.77.77,0,0,1,.91,0,2.27,2.27,0,0,1,1.18,1.84c.06.54.21.68.8.63a5.08,5.08,0,0,1,3.21.67A3.54,3.54,0,0,1,46.54,45.25Z"/><path class="cls-9" d="M51.86,26.46c-.24,1.42-.39,2.74-.72,4-.14.6-.84.93-1.19,1.45a3.32,3.32,0,0,1-3,1.39,4.27,4.27,0,0,1-4-1.73,4.05,4.05,0,0,1-1-2c-.13-1-.37-2.07-.56-3.2,1.62.51,3.15,1,4.65,1.48a2.11,2.11,0,0,0,1.35,0C48.79,27.39,50.25,27,51.86,26.46Z"/><path class="cls-8" d="M53,40.52c-1.19,0-2.21,0-3.23,0-.47,0-.72.06-.87.53s-.75.6-1.28.63-.5-.43-.63-.75c-.25.38-.42.46-.75,0-.06.16.09.66-.34.72s-1.14.1-1.32-.37c-.37-1-1.14-.67-1.82-.69-.91,0-2.22,0-3.15,0l.89-.54c1.83-1.28,3.69-2.52,5.53-3.8a.62.62,0,0,1,.88,0c1.8,1.29,3.62,2.52,5.44,3.78A6.23,6.23,0,0,1,53,40.52Z"/><path class="cls-10" d="M48.09,24.79l3.71-1a4.67,4.67,0,0,1-2.39,2.14c-.2.1-.3-.07-.41-.18C48.72,25.46,48.45,25.17,48.09,24.79Z"/><path class="cls-10" d="M42.1,23.78l3.57,1a1.53,1.53,0,0,1,0,.18c-.42.3-.65,1.11-1.17.94A3.86,3.86,0,0,1,42.1,23.78Z"/><path class="cls-7" d="M61.09,83.11,69.22,93.5s.34.39,0,.56-10,4-10,4-.85.25-.78,1-.21.87-.35.92-5.4,1.6-5.4,1.6a.8.8,0,0,0-.49.76c0,.55,1.2,10.68.08,14.2l-.95-3.1s-4.79,2.46-9.24,0l-.73,3.13a30.19,30.19,0,0,1-.22-14s0-.91-.69-1-5.23-1.5-5.23-1.5-.81-.14-.67-1.17-1.06-1.21-1.06-1.21l-9.1-3.56s-.71-.12,0-.84l7.73-9.88"/><path class="cls-8" d="M45.42,86.09a5.08,5.08,0,0,1-3.21.67c-.58-.06-.74.09-.8.63a2.27,2.27,0,0,1-1.18,1.84.77.77,0,0,1-.91,0c-2.34-1.63-4.66-3.25-7-4.85-.44-.3-.51-.48-.16-.93,2.7-3.39,5.35-6.82,8-10.23,2.07-2.64,4.14-5.29,6.18-8,.33-.43.48-.27.71,0l1.4,1.8c2.21,2.81,4.44,5.6,6.65,8.41,2,2.55,4,5.11,6,7.64.31.41.33.6-.1.88-2.35,1.6-4.68,3.22-7,4.83-.9.61-1.1.57-1.8-.29a1.73,1.73,0,0,1-.31-.63c-.11-.39-.09-1-.33-1.11s-.83,0-1.24,0c-1.54-.09-3-.44-3.75-2.11A3.54,3.54,0,0,1,45.42,86.09Z"/><path class="cls-9" d="M47.37,102.06a2.11,2.11,0,0,0-1.35,0c-1.5.51-3,1-4.65,1.48.2-1.14.44-2.16.56-3.2a4.05,4.05,0,0,1,1-2,4.27,4.27,0,0,1,4-1.73,3.32,3.32,0,0,1,3,1.39c.35.52,1.05.84,1.19,1.45.32,1.28.48,2.6.72,4C50.25,103,48.79,102.54,47.37,102.06Z"/><path class="cls-8" d="M52.4,89.87c-1.82,1.26-3.64,2.49-5.44,3.78a.62.62,0,0,1-.88,0c-1.83-1.28-3.69-2.52-5.53-3.8l-.89-.54c.92,0,2.24,0,3.15,0,.67,0,1.45.34,1.82-.69.18-.47.84-.43,1.32-.37s.28.56.34.72c.33-.45.5-.37.75,0,.13-.32,0-.77.63-.75s1.09,0,1.28.63.4.56.87.53c1,0,2,0,3.23,0A6.23,6.23,0,0,1,52.4,89.87Z"/><path class="cls-10" d="M49,104.2c.11-.11.21-.28.41-.18a4.67,4.67,0,0,1,2.39,2.14l-3.71-1C48.45,104.76,48.72,104.46,49,104.2Z"/><path class="cls-10" d="M44.49,104.06c.52-.17.74.65,1.17.94a1.53,1.53,0,0,1,0,.18l-3.57,1A3.86,3.86,0,0,1,44.49,104.06Z"/></g></g></g></svg>