<?xml version="1.0" encoding="utf-8"?>
<!-- Generator: Adobe Illustrator 21.0.0, SVG Export Plug-In . SVG Version: 6.00 Build 0)  -->
<svg version="1.1" id="Layer_1" xmlns="http://www.w3.org/2000/svg" xmlns:xlink="http://www.w3.org/1999/xlink" x="0px" y="0px"
	 viewBox="0 0 703.1 295.6" style="enable-background:new 0 0 703.1 295.6;" xml:space="preserve" preserveAspectRatio="none">
<style type="text/css">
	.st0{fill:#FFFFFF;stroke:#000000;stroke-miterlimit:10;}
	.st1{fill:#3F3D3D;}
</style>
<g>
	<path class="st0" d="M673.2,219.2c17.9-0.3,22.9-15.7,24-33.6l5-117c1.1-17.9,1.9-27-16-28l-673-40c-17.9-1-11.8,13.1-11,31l15,152
		c0.8,17.9,14,38.5,32,38.3l424.3,3l7.7,7.7l-43.9-0.2l120.9,61.7l-43.4-55.2h36.6l-21.2-20.3l30.2-0.1L673.2,219.2z"/>
	<path class="st1" d="M673.2,205.4c17.9-0.2,16.9-10.1,18-28l5-111c1.1-17.9-1.1-19-19-20l-655-39c-17.9-1-15.8,12.1-15,30l14,136
		c0.8,17.9,15.1,35.2,33,35l412.9,2.7l20.2,23.9h-36.4l66.9,23l-23.2-29.5h34.8l-23.2-21l36.8-0.2L673.2,205.4z"/>
</g>
</svg>
