<svg xmlns="http://www.w3.org/2000/svg" viewBox="0 0 92.82 129.6"><defs><style>.cls-1{fill:#c9c9c9;}.cls-2{fill:#fff;stroke:#000;stroke-miterlimit:10;stroke-width:0.25px;}.cls-3{fill:#333;}.cls-4{fill:#d66142;}.cls-5{fill:#460185;}.cls-6{fill:#fea900;}.cls-7{fill:#cbcbcb;}.cls-8{fill:#0b7914;}.cls-9{fill:#04780f;}.cls-10{fill:#027810;}.cls-11{fill:#d6931d;}.cls-12{fill:#d29860;}.cls-13{fill:#feeba4;}.cls-14{fill:#ce1409;}.cls-15{fill:#0a7a15;}.cls-16{fill:#087913;}.cls-17{fill:#cc170c;}</style></defs><title>Asset 4</title><g id="Layer_2" data-name="Layer 2"><g id="Layer_1-2" data-name="Layer 1"><path class="cls-1" d="M10.24,129.6a9.87,9.87,0,0,1-10-9.75L0,9.8A9.86,9.86,0,0,1,9.94,0L82.67.14A9.9,9.9,0,0,1,92.59,10V119.76a9.84,9.84,0,0,1-9.89,9.75Z"/><path class="cls-2" d="M11.23,129.46a9.8,9.8,0,0,1-9.8-9.77V9.91A9.8,9.8,0,0,1,11.23.14H82.89a9.79,9.79,0,0,1,9.8,9.77V119.69a9.79,9.79,0,0,1-9.8,9.77Z"/><path class="cls-3" d="M13,7.32a2.32,2.32,0,0,1-.8.84,1.84,1.84,0,0,1-1,.29,8.24,8.24,0,0,1-1.1-.24,3.31,3.31,0,0,0-.81-.11,1.92,1.92,0,0,0-.46.06,1,1,0,0,0-.4.19H8.38V8.2a2.42,2.42,0,0,1,.77-1,2,2,0,0,1,1.18-.31,3,3,0,0,1,1,.17,2.78,2.78,0,0,0,.93.17h.34l.42,0Zm0,6.08A2,2,0,0,1,12.28,15a3,3,0,0,1-2,.62,2.41,2.41,0,0,1-1.23-.29,1.08,1.08,0,0,1-.59-1,.87.87,0,0,1,.17-.53.77.77,0,0,1,.66-.31.74.74,0,0,1,.49.18.57.57,0,0,1,.21.45.59.59,0,0,1-.37.6q-.37.16-.37.22a.62.62,0,0,0,.13.2.92.92,0,0,0,.63.2,1.25,1.25,0,0,0,.71-.2.62.62,0,0,0,.29-.55V8.8l1-.35a2.46,2.46,0,0,0,.83-.5h.18Z"/><path class="cls-3" d="M12.6,21.35a2.51,2.51,0,0,1-.19,1,2.26,2.26,0,0,1-.3.53q-.33.46-.52.68-.56.68-.74.68A.6.6,0,0,1,10.5,24l-.39-.34a3.05,3.05,0,0,1-.8-.94A2.45,2.45,0,0,1,9,21.6,2.62,2.62,0,0,1,9.56,20q1.15-1.51,1.32-1.51c.05,0,.24.17.56.5a5,5,0,0,1,.75.91,3.19,3.19,0,0,1,.3.69A2.6,2.6,0,0,1,12.6,21.35Zm-1,1.24A3.29,3.29,0,0,0,11.22,21q-.63-1.13-1.07-1.13c-.08,0-.14.06-.17.19a1.68,1.68,0,0,0,0,.4,2.65,2.65,0,0,0,.36,1.47,5.77,5.77,0,0,0,1.19,1.14.49.49,0,0,0,.13-.19A.94.94,0,0,0,11.64,22.6Z"/><path class="cls-3" d="M12.65,33.21l-.35.38c-.26.26-.45.38-.57.38q-.47,0-.72-1.35a2.47,2.47,0,0,0-.34-1h-.13a.14.14,0,0,0,0,.1v2.21H9V27a1.42,1.42,0,0,1,.38-.22l.84-.35h.22v2.8a2,2,0,0,0,.76-.37l.59-.38c.08,0,.2.11.34.34a1.54,1.54,0,0,1,.26.84,1.15,1.15,0,0,1-.43.91c-.29.25-.43.41-.43.48a1.57,1.57,0,0,0,.25.39,2.39,2.39,0,0,1,.29.44c0,.07.08.31.16.72a1.24,1.24,0,0,0,.05.21.65.65,0,0,0,.19.26C12.6,33.12,12.65,33.18,12.65,33.21Zm-1.42-3a.85.85,0,0,0-.12-.44c-.11-.19-.22-.28-.32-.28l-.13.05a.24.24,0,0,0-.13.2V31.1a.74.74,0,0,0,.54-.35A.89.89,0,0,0,11.23,30.26Z"/><path class="cls-3" d="M12.34,39.65c0,.21-.27.56-.82,1s-.82.74-.82.81.45.63,1.34,1.32a3.47,3.47,0,0,1-.51.49,2.12,2.12,0,0,1-.53.39.83.83,0,0,1-.32-.18,4.5,4.5,0,0,1-.52-.46,3.07,3.07,0,0,1-.7-1.11,2.82,2.82,0,0,1-.2-1,2.19,2.19,0,0,1,.14-.71,3.79,3.79,0,0,1,.4-.82,7.15,7.15,0,0,1,.66-.77c.39-.41.64-.62.75-.62a1.27,1.27,0,0,1,.25.29l.36.5s.11.15.26.36A1.63,1.63,0,0,1,12.34,39.65Zm-1.14.59a1.29,1.29,0,0,0-.2-.37c-.18-.28-.33-.51-.46-.68h-.1c-.07.18-.13.35-.18.52a1.6,1.6,0,0,0-.07.38,2.09,2.09,0,0,0,.08.6c.05.18.12.26.21.26s.22-.1.42-.31S11.2,40.3,11.2,40.24Z"/><path class="cls-3" d="M12.27,48.65a.68.68,0,0,1-.2.32c-.26.3-.42.45-.48.45s-.1,0-.19-.14a1.44,1.44,0,0,0-.33-.3v4.5H9.64V49a.53.53,0,0,0-.11-.26.92.92,0,0,0-.21-.24,1.68,1.68,0,0,1,.43-.4,1.17,1.17,0,0,1,.53-.29.51.51,0,0,1,.31.2l.38.39c.05,0,.18-.1.38-.29a2.32,2.32,0,0,1,.32-.3A2.38,2.38,0,0,1,12,48,.92.92,0,0,1,12.27,48.65Z"/><path class="cls-3" d="M80.93,116a2,2,0,0,1,.77-1.64,3,3,0,0,1,2-.62,2.41,2.41,0,0,1,1.23.29,1.08,1.08,0,0,1,.59,1,.87.87,0,0,1-.17.53.77.77,0,0,1-.66.31.74.74,0,0,1-.49-.18.57.57,0,0,1-.21-.45.59.59,0,0,1,.37-.6q.38-.16.37-.22a.63.63,0,0,0-.13-.2.92.92,0,0,0-.63-.2,1.25,1.25,0,0,0-.71.2.63.63,0,0,0-.29.55v5.85l-1,.35a2.48,2.48,0,0,0-.83.5h-.18Zm0,6.08a2.31,2.31,0,0,1,.8-.84,1.84,1.84,0,0,1,1-.29,8.2,8.2,0,0,1,1.1.24,3.29,3.29,0,0,0,.81.11,1.92,1.92,0,0,0,.46-.06,1,1,0,0,0,.4-.19h.11v.14a2.41,2.41,0,0,1-.77,1,2,2,0,0,1-1.18.31,3,3,0,0,1-1-.17,2.77,2.77,0,0,0-.93-.17h-.34l-.42,0Z"/><path class="cls-3" d="M81.39,108a2.51,2.51,0,0,1,.19-1,2.26,2.26,0,0,1,.3-.53c.22-.3.39-.53.52-.68q.56-.68.74-.68a.6.6,0,0,1,.35.17l.39.34a3.05,3.05,0,0,1,.8.94,2.44,2.44,0,0,1,.28,1.17,2.61,2.61,0,0,1-.53,1.59q-1.15,1.51-1.32,1.51c-.05,0-.24-.17-.56-.5a5,5,0,0,1-.75-.91,3.21,3.21,0,0,1-.3-.69A2.61,2.61,0,0,1,81.39,108Zm1-1.24a3.29,3.29,0,0,0,.42,1.62q.63,1.13,1.07,1.13c.08,0,.14-.06.17-.19a1.68,1.68,0,0,0,0-.4,2.65,2.65,0,0,0-.36-1.47,5.8,5.8,0,0,0-1.19-1.14.5.5,0,0,0-.12.19A1,1,0,0,0,82.35,106.79Z"/><path class="cls-3" d="M81.34,96.18l.35-.38c.26-.26.45-.38.57-.38q.47,0,.72,1.35a2.47,2.47,0,0,0,.34,1h.13a.14.14,0,0,0,0-.1V95.44h1.44v7a1.43,1.43,0,0,1-.38.22l-.84.35H83.5v-2.8a2,2,0,0,0-.76.37l-.59.38c-.08,0-.2-.11-.34-.34a1.54,1.54,0,0,1-.26-.84,1.14,1.14,0,0,1,.43-.91c.29-.25.43-.41.43-.48a1.58,1.58,0,0,0-.25-.39,2.38,2.38,0,0,1-.29-.44c0-.07-.08-.31-.16-.72a1.26,1.26,0,0,0-.05-.21.66.66,0,0,0-.19-.26C81.38,96.27,81.34,96.21,81.34,96.18Zm1.42,3a.85.85,0,0,0,.12.44c.11.19.22.28.32.28l.13-.05a.23.23,0,0,0,.13-.2V98.29a.74.74,0,0,0-.54.35A.89.89,0,0,0,82.76,99.13Z"/><path class="cls-3" d="M81.65,89.74c0-.21.27-.56.82-1s.82-.74.82-.81-.45-.63-1.34-1.32a3.43,3.43,0,0,1,.51-.49A2.11,2.11,0,0,1,83,85.7a.84.84,0,0,1,.32.18,4.61,4.61,0,0,1,.52.46,3.06,3.06,0,0,1,.7,1.11,2.82,2.82,0,0,1,.2,1,2.19,2.19,0,0,1-.14.72,3.82,3.82,0,0,1-.4.82,7,7,0,0,1-.66.77c-.39.42-.64.62-.75.62a1.27,1.27,0,0,1-.25-.29l-.36-.5s-.11-.15-.26-.36A1.63,1.63,0,0,1,81.65,89.74Zm1.14-.59a1.29,1.29,0,0,0,.2.37q.27.42.46.68h.1c.07-.18.13-.35.18-.52a1.61,1.61,0,0,0,.07-.38,2.07,2.07,0,0,0-.08-.6c-.05-.18-.12-.26-.21-.26s-.22.1-.42.31S82.79,89.09,82.79,89.15Z"/><path class="cls-3" d="M81.71,80.74a.68.68,0,0,1,.2-.32c.26-.3.42-.45.48-.45s.1,0,.19.14a1.44,1.44,0,0,0,.33.3v-4.5h1.44v4.5a.53.53,0,0,0,.11.26.92.92,0,0,0,.21.24,1.68,1.68,0,0,1-.43.4,1.17,1.17,0,0,1-.53.29.51.51,0,0,1-.31-.2L83,81c-.05,0-.18.1-.38.3a2.32,2.32,0,0,1-.32.3,2.38,2.38,0,0,1-.3-.24A.92.92,0,0,1,81.71,80.74Z"/><path class="cls-4" d="M82.13,127.25H10.46a7.59,7.59,0,0,1-7.6-7.56V9.91a7.59,7.59,0,0,1,7.6-7.56H82.13a7.59,7.59,0,0,1,7.59,7.56V119.69A7.59,7.59,0,0,1,82.13,127.25ZM10.46,5.35a4.58,4.58,0,0,0-4.6,4.56V119.69a4.58,4.58,0,0,0,4.6,4.56H82.13a4.58,4.58,0,0,0,4.59-4.56V9.91a4.58,4.58,0,0,0-4.59-4.56Z"/><path class="cls-5" d="M45.73,62.08c-1.42-1.57-2.63-3.31-4-5L30.11,42.21c-2.22-2.85-4.44-5.71-6.67-8.56-.34-.43-.23-.56.23-.73,3.15-1.23,6.29-2.49,9.45-3.69.57-.21.9-.5.8-1.13-.11-.79.24-1.1,1-1.29,1.69-.42,3.34-1,5-1.43.4-.11.62-.31.59-.73.33,0,.36,0,.42.43.09.6-.07,1.2,0,1.82-.21.46.06.87.13,1.3.23,1.39.46,2.76.63,4.17.13.73.16,1.46.3,2.19.63,4,1.19,8,1.78,11.94.56,3.75,1.12,7.49,1.66,11.24.16,1.09.34,2.16.46,3.25C46,61.35,46.2,61.79,45.73,62.08Z"/><path class="cls-5" d="M51.91,24.48c-.09.62.23.84.8,1,1.63.43,3.24,1,4.87,1.4.52.14.73.37.67.89-.09.67.21,1,.86,1.23,3.26,1.26,6.5,2.58,9.76,3.85.56.21.62.4.24.87L56.72,49.49q-4.72,6-9.48,12c-.16.2-.36.39-.53.57-.44-.23-.27-.63-.23-.94.2-1.7.49-3.39.73-5.08q1.18-8.16,2.42-16.31c.26-1.68.4-3.35.76-5,0-.62.31-1.17.34-1.78A34.26,34.26,0,0,1,51.61,27c.09-.37-.11-.72-.11-1.07,0-.52-.19-1.09.29-1.53.07-.07,0,0,.07,0S51.87,24.45,51.91,24.48Z"/><path class="cls-6" d="M50.68,34.68c-.42,2.85-.82,5.71-1.23,8.56L46.7,62.05c-.13.26-.23.62-.53.62s-.34-.34-.46-.59L43.78,48.81l-2.1-14.33a.94.94,0,0,1,.54-.53c.74-.26,1.49-.52,2.23-.74.26-.07.53-.13.73.11s0,.44-.14.64c-.5.93-1.07,1.83-1.62,2.75a1.32,1.32,0,0,0,.5-.72c.24-.57.67-1.06.87-1.63.31-.84.93-1,1.68-1,.37,0,.49.27.62.52.54.94,1.17,1.83,1.63,2.83a11.56,11.56,0,0,0-1.07-1.88c-.2-.37-.44-.73-.64-1.1s0-.73.37-.62a8.81,8.81,0,0,1,3.22,1.26C50.68,34.49,50.74,34.58,50.68,34.68Z"/><path class="cls-7" d="M51.91,24.48a6,6,0,0,0-.07,1.6,2.28,2.28,0,0,1-.11.93,5.66,5.66,0,0,1-1,1.78c-.7.93-1.42,1.85-2.09,2.79a1.47,1.47,0,0,1-1.6.64,5.28,5.28,0,0,0-1.78,0,1.08,1.08,0,0,1-1.07-.4c-1.07-1.27-2.08-2.59-3.08-3.92-.23-.31-.24-.72-.44-1-.17-.73.14-1.49-.1-2.22,0-.21.07-.46-.19-.63-1-.62-.82-1.59-.8-2.52,0-.44.43-.23.66-.34a.61.61,0,0,0,0-.54A11.36,11.36,0,0,1,40.19,17a3,3,0,0,1,.67-1.7,1.84,1.84,0,0,1,2.31-.56,9.57,9.57,0,0,1,2.22,1.42c.77.63.87.63,1.66,0a11.3,11.3,0,0,1,2.22-1.43,1.87,1.87,0,0,1,2.51.83,4.48,4.48,0,0,1,.54,2,22.41,22.41,0,0,1-.11,3.54c.62-.06.82.21.77.83-.06.84,0,1.69-1,2.13C51.93,24.14,51.94,24.35,51.91,24.48Z"/><path class="cls-8" d="M52.2,21.15a24.32,24.32,0,0,1-.2-3.38,4.72,4.72,0,0,0-.34-1.66,1.65,1.65,0,0,0-2.51-.89A11.28,11.28,0,0,0,46.66,17a.52.52,0,0,1-.83,0,11.49,11.49,0,0,0-2.56-1.8,1.66,1.66,0,0,0-2.49.92,7.4,7.4,0,0,0-.37,2.73c0,.64,0,1.29-.06,1.92,0,.13.11.34-.16.37-.31-1.35-.64-2.68-.94-4a21.06,21.06,0,0,1-.64-4.88c.16-.13.23,0,.29,0a2.06,2.06,0,0,0,2.41.53c.87-.3,1.76-.6,2.63-.87a8.81,8.81,0,0,1,5.53.31c.44.16.9.3,1.35.47a2.31,2.31,0,0,0,2.92-.53C53.82,15.29,52.94,18.2,52.2,21.15Z"/><path class="cls-6" d="M40.63,26.86c1.17,1.5,2.35,3,3.49,4.5a1.16,1.16,0,0,0,1.12.57,3.26,3.26,0,0,1,1,0A2.46,2.46,0,0,0,49,30.58c.82-1.27,1.8-2.45,2.72-3.67a.09.09,0,0,1,.13,0c-.29,2-.59,4-.87,6-.2.1-.37,0-.54-.07-.73-.36-1.45,0-2.16,0a3.36,3.36,0,0,1-1.8-.16.53.53,0,0,0-.49,0c-1,.5-2,.13-2.94,0a3.14,3.14,0,0,1-1.56-.37A44.74,44.74,0,0,1,40.63,26.86Z"/><path class="cls-9" d="M41.46,32.4c.17-.23.39-.11.59-.09.83.1,1.65.21,2.48.3.42,0,.82.14,1.17-.26a.62.62,0,0,1,.86,0c.34.39.72.29,1.12.23.83-.1,1.65-.2,2.48-.29.21,0,.47-.17.63.13-.06.53.06,1.06,0,1.59,0,.19,0,.37-.26.43L47.13,33.3s-.07.07-.1.11c.42.6.83,1.22,1.26,1.82.3.43.59.87.93,1.27s.23.57-.16.83-.5-.13-.62-.34C48,36,47.5,35,47,34c-.13-.29-.24-.59-.63-.26-.09.07-.33.13-.4.06-.64-.52-.72.07-.89.44-.46.94-.89,1.9-1.35,2.85-.1.21-.19.5-.5.24s-.64-.3-.3-.76a31.2,31.2,0,0,0,2.18-3.29L41.7,34.45A6.92,6.92,0,0,1,41.46,32.4Z"/><path class="cls-10" d="M57.84,36.68a2.79,2.79,0,0,1-2.41,2.62,2.86,2.86,0,0,1-2.63-2.46,2.76,2.76,0,0,1,2.49-2.59A2.69,2.69,0,0,1,57.84,36.68Z"/><path class="cls-11" d="M50.49,34.49c.31-.64,0-1.36.29-2l.17.47a6.44,6.44,0,0,1-.27,1.73Z"/><path class="cls-12" d="M51.83,26.92l-.06,0h-.06a1.72,1.72,0,0,1,.13-.84C52.08,26.37,51.93,26.64,51.83,26.92Z"/><path class="cls-13" d="M45.48,25.74c.17.46.29,1.1.77,1.16.67.07.6-.77,1-1.13a2.17,2.17,0,0,1,1.25-.36A6.05,6.05,0,0,0,50.15,25c.19-.09.37-.24.59-.1s0,.43.06.64c-.19.56-.31,1.15-.52,1.7a2,2,0,0,1-.64,1,5.22,5.22,0,0,1-6.72-.09,1.1,1.1,0,0,1-.36-.44,12.55,12.55,0,0,1-.82-2.58c-.06-.27,0-.5.3-.34C43.12,25.43,44.38,25.28,45.48,25.74Z"/><path class="cls-14" d="M45.48,25.74a6.57,6.57,0,0,1-3.62-.87c.43,2.63,1.43,3.71,4,4.14a5,5,0,0,0,3.74-1.07,2.17,2.17,0,0,0,.62-1.1c.17-.44.34-.89.5-1.33.29,0,.17.2.14.34a4.4,4.4,0,0,1-6.34,3.58,3.71,3.71,0,0,1-2.61-3.15c-.09-.73-.31-1.43-.52-2.35A5.65,5.65,0,0,0,45,25.33C45.33,25.36,45.5,25.44,45.48,25.74Z"/><path class="cls-15" d="M41.19,19.83c.59-1.07,1-1.17,1.78-.44.57.57,1.1,1.19,1.65,1.78a1.62,1.62,0,0,0,.49.4c.14.07.44-.06.3.27s-.31.36-.57.19a2,2,0,0,1-.36-.34l-.69-.82C43.12,20.07,42.49,19.2,41.19,19.83Z"/><path class="cls-16" d="M51.28,20c-.77-.56-1.26-.54-1.89.1-.49.49-.9,1-1.36,1.55a1.62,1.62,0,0,1-.49.4c-.2.1-.37,0-.44-.23s.1-.2.24-.26c.5-.2.76-.7,1.13-1.06s.66-.74,1-1.1C50.32,18.6,50.87,18.75,51.28,20Z"/><path class="cls-17" d="M50.82,25.84a3.5,3.5,0,0,0-.14-.34c0-.17.07-.36.13-.63a7.06,7.06,0,0,1-3.59.9c-.1-.44.2-.46.5-.49a9,9,0,0,0,2.22-.49,6.5,6.5,0,0,0,1.33-.86C51.11,24.65,51,25.25,50.82,25.84Z"/><path class="cls-5" d="M45.9,64.36c-.11,1.09-.3,2.16-.46,3.25-.54,3.75-1.1,7.49-1.66,11.24-.59,4-1.15,8-1.78,11.94-.14.73-.17,1.46-.3,2.19-.17,1.4-.4,2.78-.63,4.17-.07.43-.34.84-.13,1.3-.09.62.07,1.22,0,1.82-.06.43-.09.46-.42.43,0-.42-.19-.62-.59-.73-1.68-.47-3.32-1-5-1.43-.76-.19-1.12-.5-1-1.29.1-.63-.23-.92-.8-1.13-3.16-1.2-6.3-2.46-9.45-3.69-.46-.17-.57-.3-.23-.73,2.23-2.85,4.45-5.71,6.67-8.56l11.67-14.9c1.32-1.66,2.53-3.39,4-5C46.2,63.54,46,64,45.9,64.36Z"/><path class="cls-5" d="M51.85,101c-.09,0,0,.06-.07,0-.47-.44-.24-1-.29-1.53,0-.36.2-.7.11-1.07a34.26,34.26,0,0,1-.87-5.91c0-.6-.33-1.16-.34-1.78-.36-1.66-.5-3.34-.76-5q-1.25-8.14-2.42-16.31c-.24-1.69-.53-3.38-.73-5.08,0-.31-.21-.72.23-.94.17.19.37.37.53.57q4.75,6,9.48,12L69.12,91.6c.37.47.31.66-.24.87-3.26,1.27-6.5,2.59-9.76,3.85-.64.24-.94.56-.86,1.23.06.52-.16.74-.67.89-1.63.44-3.24,1-4.87,1.4-.57.16-.89.39-.8,1C51.87,100.88,52,101,51.85,101Z"/><path class="cls-6" d="M50.59,90.92a8.81,8.81,0,0,1-3.22,1.26c-.4.11-.59-.24-.37-.62s.44-.73.64-1.1a11.56,11.56,0,0,0,1.07-1.88c-.46,1-1.09,1.89-1.63,2.83-.13.24-.24.52-.62.52-.74,0-1.36-.11-1.68-1-.2-.57-.63-1.06-.87-1.63a1.32,1.32,0,0,0-.5-.72c.54.92,1.12,1.82,1.62,2.75.1.2.34.39.14.64s-.47.19-.73.11c-.74-.23-1.49-.49-2.23-.74a.94.94,0,0,1-.54-.53l2.1-14.33,1.93-13.27c.11-.24.23-.59.46-.59s.4.36.53.62L49.45,82.1c.42,2.85.82,5.71,1.23,8.56C50.74,90.76,50.68,90.84,50.59,90.92Z"/><path class="cls-7" d="M52,101.24c.93.44.9,1.29,1,2.13,0,.62-.16.89-.77.83a22.41,22.41,0,0,1,.11,3.54,4.48,4.48,0,0,1-.54,2,1.87,1.87,0,0,1-2.51.83A11.3,11.3,0,0,1,47,109.11c-.79-.6-.89-.6-1.66,0a9.57,9.57,0,0,1-2.22,1.42,1.84,1.84,0,0,1-2.31-.56,3,3,0,0,1-.67-1.7,11.36,11.36,0,0,1,.06-3.55.61.61,0,0,0,0-.54c-.23-.11-.64.1-.66-.34,0-.93-.19-1.9.8-2.52.26-.17.17-.42.19-.63.24-.73-.07-1.49.1-2.22.2-.33.21-.73.44-1,1-1.33,2-2.65,3.08-3.92a1.08,1.08,0,0,1,1.07-.4,5.28,5.28,0,0,0,1.78,0,1.47,1.47,0,0,1,1.6.64c.67.94,1.39,1.86,2.09,2.79a5.66,5.66,0,0,1,1,1.78,2.28,2.28,0,0,1,.11.93,6,6,0,0,0,.07,1.6C51.94,101,51.93,101.2,52,101.24Z"/><path class="cls-8" d="M53.72,113.15a2.31,2.31,0,0,0-2.92-.53c-.44.17-.9.31-1.35.47a8.81,8.81,0,0,1-5.53.31c-.87-.27-1.76-.57-2.63-.87a2.06,2.06,0,0,0-2.41.53c-.06.06-.13.16-.29,0a21.06,21.06,0,0,1,.64-4.88c.3-1.35.63-2.68.94-4,.27,0,.16.24.16.37,0,.63,0,1.27.06,1.92a7.4,7.4,0,0,0,.37,2.73,1.66,1.66,0,0,0,2.49.92,11.49,11.49,0,0,0,2.56-1.8.52.52,0,0,1,.83,0,11.28,11.28,0,0,0,2.49,1.78,1.65,1.65,0,0,0,2.51-.89,4.72,4.72,0,0,0,.34-1.66,24.32,24.32,0,0,1,.2-3.38C52.94,107.14,53.82,110,53.72,113.15Z"/><path class="cls-6" d="M41.46,92.95A3.14,3.14,0,0,1,43,92.58c1-.09,2-.46,2.94,0a.53.53,0,0,0,.49,0,3.36,3.36,0,0,1,1.8-.16c.72,0,1.43.4,2.16,0,.17-.06.34-.17.54-.07.29,2,.59,4,.87,6a.09.09,0,0,1-.13,0C50.78,97.2,49.79,96,49,94.75a2.46,2.46,0,0,0-2.75-1.35,3.26,3.26,0,0,1-1,0,1.16,1.16,0,0,0-1.12.57c-1.15,1.5-2.32,3-3.49,4.5A44.74,44.74,0,0,1,41.46,92.95Z"/><path class="cls-9" d="M41.7,90.89,45.14,92A31.2,31.2,0,0,0,43,88.73c-.34-.46.07-.57.3-.76s.4,0,.5.24c.46.94.89,1.9,1.35,2.85.17.37.24,1,.89.44.07-.07.31,0,.4.06.39.33.5,0,.63-.26.47-1,.93-2,1.42-3,.11-.21.11-.67.62-.34s.46.46.16.83-.63.84-.93,1.27c-.43.6-.84,1.22-1.26,1.82,0,0,.07.07.1.11l3.35-1.16c.24.06.23.24.26.43.1.53,0,1.06,0,1.59-.16.3-.42.16-.63.13-.83-.09-1.65-.19-2.48-.29-.4-.06-.77-.16-1.12.23a.62.62,0,0,1-.86,0c-.36-.4-.76-.3-1.17-.26-.83.09-1.65.2-2.48.3-.2,0-.42.14-.59-.09A6.92,6.92,0,0,1,41.7,90.89Z"/><path class="cls-10" d="M37.12,91.09a2.76,2.76,0,0,1-2.49-2.59A2.86,2.86,0,0,1,37.26,86a2.79,2.79,0,0,1,2.41,2.62A2.69,2.69,0,0,1,37.12,91.09Z"/><path class="cls-11" d="M50.68,90.66A6.44,6.44,0,0,1,51,92.39l-.17.47c-.24-.66,0-1.37-.29-2Z"/><path class="cls-12" d="M51.84,99.25a1.72,1.72,0,0,1-.13-.84h.06l.06,0C51.93,98.69,52.08,99,51.84,99.25Z"/><path class="cls-13" d="M42,100.57c-.26.16-.36-.07-.3-.34a12.55,12.55,0,0,1,.82-2.58,1.1,1.1,0,0,1,.36-.44,5.22,5.22,0,0,1,6.72-.09,2,2,0,0,1,.64,1c.2.56.33,1.15.52,1.7,0,.21.21.46-.06.64s-.4,0-.59-.1a6.05,6.05,0,0,0-1.68-.46,2.17,2.17,0,0,1-1.25-.36c-.37-.36-.3-1.2-1-1.13-.49.06-.6.7-.77,1.16C44.38,100.05,43.12,99.91,42,100.57Z"/><path class="cls-14" d="M45,100a5.65,5.65,0,0,0-3.68,1.4c.2-.92.43-1.62.52-2.35a3.71,3.71,0,0,1,2.61-3.15,4.4,4.4,0,0,1,6.34,3.58c0,.14.14.33-.14.34-.16-.44-.33-.89-.5-1.33a2.17,2.17,0,0,0-.62-1.1,5,5,0,0,0-3.74-1.07c-2.53.43-3.54,1.5-4,4.14a6.57,6.57,0,0,1,3.62-.87C45.5,99.89,45.33,100,45,100Z"/><path class="cls-15" d="M43.78,104.48l.69-.82a2,2,0,0,1,.36-.34c.26-.17.46-.07.57.19s-.16.2-.3.27a1.62,1.62,0,0,0-.49.4c-.54.59-1.07,1.2-1.65,1.78-.73.73-1.19.63-1.78-.44C42.49,106.14,43.12,105.26,43.78,104.48Z"/><path class="cls-16" d="M49.49,105.92c-.36-.36-.66-.76-1-1.1s-.63-.86-1.13-1.06c-.14-.06-.34,0-.24-.26s.24-.33.44-.23a1.62,1.62,0,0,1,.49.4c.46.5.87,1.06,1.36,1.55.63.64,1.12.66,1.89.1C50.87,106.58,50.32,106.74,49.49,105.92Z"/><path class="cls-17" d="M51.27,101.4a6.5,6.5,0,0,0-1.33-.86,9,9,0,0,0-2.22-.49c-.3,0-.6,0-.5-.49a7.06,7.06,0,0,1,3.59.9c-.06-.27-.09-.46-.13-.63a3.5,3.5,0,0,0,.14-.34C51,100.08,51.11,100.68,51.27,101.4Z"/></g></g></svg>