<?xml version="1.0" encoding="UTF-8"?>
<svg id="sort" version="1.0" viewBox="0 0 492 423" xmlns="http://www.w3.org/2000/svg" xmlns:cc="http://creativecommons.org/ns#" xmlns:dc="http://purl.org/dc/elements/1.1/" xmlns:rdf="http://www.w3.org/1999/02/22-rdf-syntax-ns#">
	 <style>
    /* <![CDATA[ */
    #sort{ animation: float 2s ease-in-out infinite; }
	@keyframes float{
	0%{transform: translatey(0px);}
	50%{transform: translatey(10px);}
	100%{transform: translatey(0px);}
	}
    /* ]]> */
  </style>
<metadata>
<rdf:RDF>
<cc:Work rdf:about="">
<dc:format>image/svg+xml</dc:format>
<dc:type rdf:resource="http://purl.org/dc/dcmitype/StillImage"/>
</cc:Work>
</rdf:RDF>
</metadata>
<path d="m325.83 32.731c-33.388 0.11927-51.223 0.55293-52.719 1.2812-0.98802 0.48114-2.9817 3.1811-4.4062 6-1.4245 2.8189-4.4816 7.825-6.8125 11.125-2.3309 3.3-5.0543 7.575-6.0312 9.5-0.97695 1.925-4.4704 7.0532-7.7812 11.406-6.6861 8.791-9.0984 13.287-10.094 18.812-0.61202 3.3975-2.5938 6.3335-2.5938 3.8438 0-0.58846-1.9995-1.0625-4.5-1.0625-5.0129 0-8.5 2.5008-8.5 6.0938 0 1.1507-0.93131 3.2807-2.0625 4.7187-1.9565 2.4873-1.9516 2.6402-0.21875 3.2812 1.0019 0.37062 3.5894 0.3719 5.7812 0l4-0.6875-2.5-1.3438c-2.995-1.6224-3.9483-2.9447-3.9688-5.4062-0.01156-1.3902 1.0107-0.7773 4.2188 2.5 6.5394 6.6806 15.145 10.806 24.469 11.688 5.2841 0.49964 7.7012 1.1086 7.5312 1.9375-0.1375 0.67085 0.38983 1.2188 1.1875 1.2188s1.8102 0.62998 2.25 1.375c0.5113 0.86609 3.6281 1.5397 8.625 1.9062 4.7265 0.34668 8.8132 1.2472 10.344 2.25l2.5312 1.6562-2.0625 1.9062c-5.2842 4.923-33.912-0.87513-36.406-7.375-0.28508-0.74292-3.35-3.0624-6.8125-5.125-5.1647-3.0766-6.8923-3.6123-9.6562-3.0938-2.1566 0.40458-4.9866-0.0026-7.8438-1.0938-4.4262-1.6904-4.4927-1.6895-7.0625 0.6875-2.2299 2.0626-6.13 9.2842-6.7188 12.406-0.10372 0.55-1.3834 3.025-2.8125 5.5-1.429 2.475-3.3398 6.75-4.25 9.5-3.1996 9.6666-5.8107 13.876-8.6875 13.969-1.6547 0.05352-3.602 1.2543-5.2812 3.25-1.4666 1.7429-3.5076 3.435-4.5 3.75-2.7225 0.8641-4.3647 5.0668-2.5625 6.5625 0.78812 0.65408 1.2077 1.6061 0.90625 2.0938-0.27372 0.4429 0.43524 0.78135 1.5938 0.84375-0.47905 0.79861-1.112 2.0791-2 4-0.64582 1.3969-1.7278 2.662-1.4062 3.5 0.37052 0.96557 0.02798 1.5312-0.96875 1.5312-0.86449 0-2.0945 0.95862-2.7188 2.125-0.79769 1.4905-0.8042 1.9152-0.03125 1.4375 0.66051-0.40821 1.0938 0.1354 1.0938 1.3438 0 2.8898 2.1174 7.0938 3.5625 7.0938 3.5713 0 1.7278 5.5279-2.0625 6.1875-3.0034 0.52264-3.4651 9.4576-0.59375 11.469 2.6216 1.3477-0.0444 4.0595 2.3125 4.0938 1.9176-0.73588 4.8025 2.1774 4.7812 4.8438-1.6244-0.17274-4.612 6.3797-7 8.4062-1.8941 7.6606-4.9505 16.098-7.4062 23.719-3.0171-0.55241-7.3897 15.593-5.1875 19.156 1.0924 1.7675-3.1228 9.6858-6.9688 13.062-2.1035 1.8469-6.207 4.4108-9.0938 5.6875-5.5449 2.4522-7.3438 4.6116-7.3438 8.8125 1.5176 4.4362 1.2788 8.9191 0.125 13.375-1.1772 4.1389-0.42731 8.6294 0.34375 11.125 0.26201 2.7841 3.4329 6.5113 2 9 0.71207 1.1521-1.7343 7.2587-3.7188 9.2812-0.9625 0.98101-1.75 2.6069-1.75 3.5938 0 0.98684-1.8334 3.7345-4.0625 6.125-2.1821 2.3401-5.5607 5.8915-7.125 8.375-1.4503-0.22539-3.4574-0.31617-6.1562-0.3125-6.3225 0.0086-17.701-2.261-23.312-4.6562-1.7331-0.73972-3.7581-1.3358-4.5-1.3438-0.74187-0.00802-3.2949-0.69799-5.6875-1.5312-4.4394-1.5462-22.849-2.7633-26.906-1.7812-1.3387 0.32403-1.9713 1.0052-1.5625 1.6875 0.37677 0.62883-0.06942 0.50484-1-0.25-0.93056-0.75484-1.6875-1.9262-1.6875-2.625 1e-5 -0.69881-0.72377-1.5412-1.5938-1.875-2.2944-0.88043-2.4062-0.82713-2.4062 1.375 1e-5 2.0703-2.4125 2.7596-3.5 1-0.84079-1.3604-2.1072-1.2493-3.6875 0.3125-11.411 5.8296-37.776-4.0057-44.281 15.938-1.6867 6.9538-0.46952 21.39 4.4687 22.75 2.5666 3.709 30.047 18.465 40.063 20 40.306 23.532 83.797 15.506 127.44 11.938 17.269-2.8891 38.308-4.5637 54.938-9.8438 23.65-6.6384 48.081-10.231 72.062-15.562 24.956-3.6048 48.423-11.989 72.5-19 76.133-24.449 100.93-21.531 109.5-8.9062 4.7227-15.068-28.521-18.702-46.094-14.594-4.6149 1.0369-34.408 3.7341-51.312 4.6562-4.06 0.22148-6.656 0.32129-8.3125 0.28125 0.40534-2.466-2.9165-6.5124-4.2188-8.5-0.91948-1.4033-2.7791-3.043-4.125-3.6562-1.3459-0.61325-2.4375-1.507-2.4375-1.9688-1e-5 -1.2202 4.4122-1.0253 5.6875 0.25 1.6362 1.6362 7.3125-1.6186 7.3125-4.1875-0.19072-3.518-2.477-5.3795-4.5312-7.8125-3.1284-3.4628-4.3024-4.0938-7.625-4.0938-4.9856-1e-5 -10.91-3.0096-14.219-7.2188-2.1181-2.6945-2.3232-3.3451-1.0312-3.625 0.86436-0.18728 2.5616 0.53412 3.75 1.5938 2.5906 2.3098 12.333 8.25 13.531 8.25 1.1127-1e-5 -1.574-12.051-4.1875-18.75-2.867-7.7042-5.7145-15.014-11.031-21.844-2.8783-4.3349-5.2119-8.8422-5.875-13.969 0.4248-2.7575-1.015-6.9925-3.1562-11.219-1.6912-3.3379-2.6268-7.3289-3.1562-13.688-0.7248-8.705-0.78188-8.9176-2.3438-6.5625-2.1565 3.2518-5.4622 6.9179-4.5312 5.0312 0.40708-0.825 1.5527-2.6964 2.5625-4.1562 1.8404-2.6606 2.4519-5.8438 1.125-5.8438-0.38931 0-2.3796 1.6468-4.4375 3.6562-2.7652 2.7002-4.5476 3.6278-6.8438 3.5625-3.4599 3.4407-8.6893 3.3802-8.5625 5.6562 0.46486 1.3456 0.34896 1.3264-0.78125-0.125-1.1885-1.5263-11.274-3.6925-16.875-4.0625-4.4935-2.7943-7.0818-3.6676-8.1875-2.75-0.69621 0.57778-1.6437 0.72023-2.0938 0.3125-0.45009-0.40772-0.50358-0.19116-0.125 0.46875 1.04 1.8129-3.1982 3.6171-9.0312 3.875-2.9672 0.13118-6.3498 1.0037-7.9688 2.0625-1.5458 1.0109-2.4858 1.3238-2.0938 0.6875 0.67668-1.0983-0.94343-0.83215-8.2812 1.3438-0.825 0.24465-1.725 0.48893-2 0.53125-0.275 0.04233-1.85 0.49413-3.5 1-11.721 3.5935-14.836 4.101-25 4.1875-17.114-0.87132-21.26-4.2372-35.688-2.3438-4.5721 0.55996-9.1561 1.2809-10.188 1.5938-0.56184 0.29257-1.3313-0.71042-1.3438-1.3438-0.55952 0.34581-1.5816 2.7796-2.2812 5.4062-0.69966 2.6267-1.9139 5.8095-2.6875 7.0625-0.77364 1.253-1.1599 2.664-0.875 3.125 0.28489 0.46095-0.38172 1.6412-1.4688 2.625-1.913 1.7312-1.9688 1.7096-1.9688-0.46875 0-1.2378 0.84207-3.4464 1.875-4.9062 1.033-1.4599 2.2002-4.5812 2.5938-6.9375 0.8654-5.181 3.0591-9.8177 5-10.562 1.5809-0.60666 1.3609-3.3072-0.59375-6.8438-2.5981-4.7007-2.3275-7.9987 1.25-15.031 0.48583-0.95503 0.875-2.6125 0.875-3.6875s0.38856-2.2306 0.875-2.5312c0.48643-0.30063 1.4438-3.4836 2.125-7.0938 0.68118-3.6102 1.8676-7.1801 2.625-7.9375 0.75737-0.75737 1.375-1.8133 1.375-2.3438s0.675-1.2147 1.5-1.5312c0.825-0.31657 1.5-1.1981 1.5-1.9375s1.35-2.638 3-4.2188 3-3.2946 3-3.8125c0-1.1456 6.9537-9.0258 8.4375-9.5625 2.7316-0.9881 9.625-7.4688 8.8125-8.2812-1.5872-1.5872-5.0155-1.7139-6.9062-0.28125-2.7773 2.1045-3.8887 1.7038-1.7812-0.625 1.4818-1.6374 1.6218-2.3976 0.71875-3.8438-0.71781-1.1494-0.79011-2.1786-0.1875-2.7812 0.41085-0.41084 1.7172-1.7653 2.125-2.9375 0.49916 0.1401 0.90086 0.16164 1.0625 0 1.0194-1.0194 20.843-0.36568 25.656 0.84375 2.4366 0.61219 5.1366 1.6784 6 2.375 0.86338 0.6966 2.9968 2.4418 4.75 3.875 4.4655 3.6504 27.963 38.739 29.781 44.469 1.191 2.6979 4.6258 4.7939 5.1562 7.5938-0.26775 0.69774 0.8175 2.4282 2.4062 3.8438 3.3884 3.019 11.281 4.1652 13.156 1.9062 4.807-2.1326 9.4734-4.3478 14.469-7.6562 4.3104-2.9591 10.769-6.83 14.344-8.625s7.2875-4.1734 8.25-5.2812 1.75-1.6518 1.75-1.1875c0 0.46429 0.62609 0.02419 1.375-1 1.925-2.6326 0.98095-5.2056-4.2812-11.781-4.1729-5.2144-4.6444-5.5378-5.1562-3.5-0.9171 3.6516-2.1226-5.827-1.375-10.812 0.40093-2.6736 0.06571-6.2253-0.90625-9.5938-0.84853-2.9407-2.2484-9.678-3.0938-14.969-0.954-5.9707-2.6577-12.04-4.5312-16-1.6602-3.5093-3.0308-7.1504-3.0312-8.0938-4.4e-4 -0.94337-1.3868-3.3059-3.0938-5.25-3.354-3.82-7.3979-4.605-11.562-2.25l-2.125 1.2188 1.9375 5.1875c1.6487 4.3987 2.5934 5.5131 6.375 7.3438 5.4149 2.6213 5.9162 3.6173 0.71875 1.4375-2.0625-0.86499-5.55-1.8182-7.75-2.0938-2.2-0.27559-4.598-0.67135-5.3125-0.90625-0.8892-0.29232-0.73143 0.53199 0.5 2.6562 1.8872 3.2555 6.769 7.503 9.2812 8.0625 3.0367 0.67631 5.0424 4.4946 4.9375 9.4688l-0.125 4.8438-1.0938-3.5c-1.1882-3.7934-3.6976-6.3371-5-5.0625-1.0436 1.0214-1.5603 31.699-0.59375 35.25 0.93693 3.4425-1.3121 2.8547-2.9688-0.78125-0.62685-1.3758-1.5794-2.2435-2.125-1.9062-0.62137 0.38403-0.42202 1.7191 0.53125 3.5625 2.3107 4.4685 6.3078 4.0233 11.875-1.3125 2.4389-2.3375 5.5858-6.275 7-8.75 2.6993-4.7241 3.3357-4.3949 1.5312 0.78125-0.58844 1.688-1.7134 3.3232-2.5 3.625s-1.4375 1.0972-1.4375 1.7812c0 0.68411-1.2375 2.2737-2.75 3.5312-2.0583 1.7113-2.247 2.1105-0.75 1.5938 1.1-0.37975 3.575-2.1607 5.5-3.9688 2.1707-2.0388 3.639-2.8247 3.875-2.0625 0.20926 0.6759 1.0678 2.0062 1.9062 2.9688 3.6181 4.1533-5.8789 8.4956-15.719 7.1875-7.681-1.0212-10.036-2.8191-10.656-2.1875-0.96832-1.3296-6.8466-4.5714-8.3125-6.9062-3.0568-3.7582-5.5472-7.9107-8.0312-13.844 0.02903-9.7159 3.0641-24.929 3.4062-34.625-0.39935-1.2582-0.28472-1.881 0.28125-1.5312 1.2956 0.80071 1.3653-5.2178 0.09375-7.5938-1.4133-2.6407-6.1141-4.3792-14.219-5.2188-7.0438-0.72962-11.625-3.4411-11.625-6.875 0-2.6777 10.358-3.7884 11.344-1.2188 0.33826 0.88147 2.7367 1.6517 6.3438 2.0625 3.1966 0.36404 7.3875 1.3901 9.3125 2.2812 4.5576 2.1099 23.339 3.0119 25.5 1.2188 2.311-1.9179 1.9826-10.253-0.5-12.5-1.1-0.99549-2.013-2.304-2.0312-2.9062-0.04556-1.4997-3.5419-5.5938-4.7812-5.5938-0.55351 0-1.1984-0.50134-1.4062-1.125-0.23927-0.71778-1.0566-0.47469-2.2188 0.6875-1.7814 1.7814-1.7547 1.8901 0.3125 2.8125 2.6237 1.1707 2.7828 2.625 0.28125 2.625-1.082 0-6.2899-4.7884-12.5-11.5-10.353-11.189-12.416-14.092-9-12.781 1.4859 0.57018 1.5922-0.12856 1-6.5-0.73322-7.8892-3.2083-19.473-4.8438-22.656-0.58275-1.1341-1.9776-3.0554-3.0938-4.2812l-2.0312-2.2188 2.625 1.2188c2.5371 1.1842 6.6875 8.6777 6.6875 12.094 0 0.82808 0.39922 1.7684 0.875 2.0625s1.1091 2.3469 1.4062 4.5625c0.29718 2.2156 2.1743 7.2647 4.1875 11.25 5.0454 9.988 11.511 15.827 8.75 7.9062-0.77311-2.2177-0.68752-3.6082 0.375-5.6562 0.77612-1.496 1.4062-3.5302 1.4062-4.5 0-0.96979 0.70123-2.3477 1.5625-3.0625 2.1581-1.7911 4.0438-5.7367 4.8438-10.156 1.2817-7.0814 2.6025-5.1218 2.625 3.9062 0.02513 10.08 1.5808 14.583 7.6875 22.031 3.7155 4.5319 3.7977 4.7498 4.0938 14.188 0.16552 5.2769 0.54494 10.269 0.875 11.094 0.33005 0.825 0.75089 2.1363 0.90625 2.9062s0.78074 1.7072 1.4062 2.0938c2.1541 1.3313 9.1164-0.73675 12.188-3.625 5.2428-4.9307 11.117-20.375 7.75-20.375-0.58246 0-0.77742-0.45-0.4375-1 0.77122-1.2479 0.29012-1.2584-2.9375-0.03125-1.4346 0.54544-2.5625 1.7803-2.5625 2.7812 0 2.304-5.4931 13.594-7.375 15.156-1.226 1.0175-1.4174 0.39371-1.2812-4.2812 0.14266-4.8985-0.19114-5.8615-3-8.8125-4.9332-5.1828-14.116-19.305-15.281-23.5-2.222-8.0017-0.9543-14.886 3.7188-20.344 3.1412-3.6686 3.2323-1.9597 0.21875 3.6875-3.992 7.4808-3.9469 12.294 0.125 20.25 1.7132 3.3474 3.5132 6.0938 4 6.0938s0.875 0.62005 0.875 1.375c0 2.2046 8.6934 9.6429 11.219 9.5938 1.8925-0.036808 1.6545-0.38245-1.4688-2.0312-2.0625-1.0888-3.75-2.6569-3.75-3.4688 0-0.81186-0.5275-1.4688-1.1875-1.4688-0.91792 0-0.9284-0.2591-0.03125-1.1562 0.79418-0.79418 4.8014-1.096 12.438-0.90625 6.2024 0.15416 17.919 0.2769 26.031 0.28125s14.75 0.41968 14.75 0.90625 0.3375 0.81513 0.75 0.75c0.4125-0.06513 1.2 0.004244 1.75 0.15625 0.55 0.152 4.825 0.37774 9.5 0.46875 4.675 0.091011 10.075 0.67975 12 1.3125 4.7868 1.5734 13.853 2.2737 14.562 1.125 1.5766-2.551-1.6276-5.4005-14.875-13.25-19.395-11.492-19.119-11.365-34-15.125-18.848-4.7621-24.768-6.6107-24.219-7.5 0.26511-0.42897-0.68217-1.8388-2.0938-3.1562-1.4116-1.3174-3.4-4.007-4.4062-5.9688-2.6461-5.1588-3.9137-5.8674-10.531-5.8438zm0.78125 2.9062c0.93582 0-1.2442 4.4856-3.6562 7.5-0.99308 1.2411-0.7547 0.19758 0.625-2.75 1.2229-2.6125 2.5767-4.75 3.0312-4.75zm-56.625 6.2812c0.38717 0.045252 1.2974 0.63235 2.6562 1.9062 3.0466 2.8561 5.2337 6.8125 3.7812 6.8125-0.56935 0-1.0312-0.43771-1.0312-0.96875 0-0.53104-1.3766-2.3691-3.0625-4.0938-2.2362-2.2876-2.989-3.7317-2.3438-3.6562zm50.094 5.7188c1.752 0 1.6794 2.4712-0.125 3.9688-0.79606 0.66067-2.2426 3.3058-3.1875 5.875-2.3157 6.2968-3.3795 7.2898-3.375 3.125 0.00204-1.8975 0.91014-4.9312 2-6.7188 1.3371-2.1931 1.5836-3.2598 0.75-3.2812-1.6345-0.042081 2.2469-2.9688 3.9375-2.9688zm-45.562 16.219c0.41812-0.1201 0.98216 2.4966 1.5312 7.75 0.42822 4.0971 0.22069 5.888-0.78125 6.7188-1.1414 0.94641-1.3724-0.33101-1.375-7.7188-0.00154-4.413 0.25606-6.644 0.625-6.75zm3.5312 16.781c0.26043 0 2.085 1.6875 4.0312 3.75 3.9649 4.2017 7.6422 10.806 7.0312 12.594-0.22098 0.64642-0.69625 0.25625-1.0625-0.84375-0.36624-1.1-2.6651-4.2061-5.0938-6.9062-3.8675-4.2998-6.3187-8.5938-4.9062-8.5938zm12.688 19.375c1.1016-0.071141 8.6486 8.8964 8.6562 10.375 0.00917 1.7743-1.4441 1.5476-3.1875-0.5-2.4571-2.8857-6.0623-9.3127-5.5312-9.8438 0.02168-0.02168 0.02696-0.02895 0.0625-0.03125zm10.188 1.625c0.78133-0.00117 2.383 1.7321 4.5 5.0312 3.3245 5.1808 3.6276 6.7034 0.9375 4.6562-2.0386-1.5514-5.9688-7.2137-5.9688-8.5938 0-0.74454 0.17609-1.0932 0.53125-1.0938zm-27.688 1.125c0.7742-0.0062 1.6747 0.00252 2.7188 0.03125 6.7199 0.18492 15.266 3.1385 16.938 5.8438 0.94062 1.522-0.76598 1.2118-3.3438-0.59375-2.4294-1.7016-3.1908-1.8812-12.969-3.2812-7.5893-1.0867-8.7632-1.9566-3.3438-2zm-49.156 20.062c2.0022-0.02611 5.9763 0.41324 12.969 1.4062 2.291 0.32536 4.991 1.3638 6 2.2812 1.009 0.91745 4.2062 3.3677 7.0938 5.4688s5.25 4.1835 5.25 4.5938c0 0.41021 1.0604 1.2819 2.3438 1.9688 1.2833 0.68682 2.3125 1.9064 2.3125 2.6875 0 0.78111-0.01666 1.3562-0.0625 1.2812-0.04583-0.07489-1.1062-0.32415-2.3438-0.5625-1.2375-0.23835-2.25-1.067-2.25-1.8438 0-2.1689-6.5718-8.4688-8.8438-8.4688-1.1093 0-4.1947-1.3548-6.8438-3-3.3864-2.1031-6.6682-3.1672-11.062-3.625-3.4375-0.35816-6.25-1.0852-6.25-1.625 0-0.34729 0.48621-0.54683 1.6875-0.5625zm85.781 12.156c1.4928-0.21548 8.8283 2.7713 10.531 4.375 1.3013 1.2254 1.1296 1.2613-1.3125 0.34375-4.7512-1.7851-4.424-1.1777 1.0625 1.9688 4.9158 2.8192 6.2708 4.0004 4.5 3.9375-0.4125-0.01466-3.3475-1.429-6.5312-3.1562s-5.3056-3.4498-4.7188-3.8125c0.61409-0.37953-0.06425-1.1469-1.5938-1.8438-1.4617-0.66598-2.4337-1.4413-2.1562-1.7188 0.04413-0.04413 0.11922-0.07938 0.21875-0.09375zm-61.281 9.6875c0.20829-0.01691 0.41712-0.01597 0.65625 0 1.5942 0.10648 3.8601 0.93218 6.75 2.4688 2.586 1.375 5.3194 2.5 6.0625 2.5s1.3438 0.43015 1.3438 0.9375c0 1.4974 6.9428 3.3484 10.438 2.7812 1.7752-0.28807 3.8784-0.11734 4.6562 0.375 0.77779 0.49235 0.95625 0.95264 0.40625 1.0312-0.55 0.07863-1.9 0.2791-3 0.46875-8.6139 1.4851-11.073 1.4167-13.5-0.4375-1.375-1.0505-4.975-2.9681-8-4.25-5.8235-2.4677-8.3009-4.2616-7.2812-5.2812 0.34334-0.34334 0.84388-0.54303 1.4688-0.59375zm-5.3125 7.5938c6.8545 0.62064 11.998 6.381 16.625 11 4.5173 4.8583 5.4683 5.3929 9.7188 5.6562 3.1975 0.19809 5.4521 1.0183 7.0625 2.5312 11.484 6.984 20.616 17.287 26.406 29.875 0.56304-0.34798 1.5258 0.52262 2.1562 1.9062 2.4861 7.2507-0.51883 0.68994-0.8125 3.7812-0.01361 1.6549-0.56309 1.7859-4.7812 1.1562-6.7357-1.0054-9.0237-2.703-15.25-11.219-3.025-4.1373-6.2498-8.0441-7.1562-8.6875s-3.875-4.5662-6.625-8.7188c-5.974-9.0211-15.886-20.906-17.438-20.906-0.60975 0-1.8802-0.68753-2.8125-1.5312-0.9323-0.84373-4.5654-1.9993-8.0625-2.5625-6.8793-1.1079-9.0803-2.0441-4.3438-1.8438 1.6212 0.06858 4.0091-0.12983 5.3125-0.4375zm-45.25 1.5625c1.4783-0.22692 8.375 2.9223 8.375 3.9375 0 0.4492 0.62569 0.58078 1.4062 0.28125 0.4411-0.16927 1.1948-0.09684 2 0.15625-1.2819 0.39619-2.593 1.1578-3.6875 1.875-1.344 0.88063-3.16 1.3151-4.0625 0.96875-2.1498-0.82494-2.1095-2.1546 0.09375-2.625 1.3308-0.28414 0.9485-0.80758-1.5938-2.1562-1.8386-0.97539-3.0705-2.0232-2.75-2.3438 0.04675-0.04675 0.12019-0.07862 0.21875-0.09375zm-5.875 1.3438c0.3344 0.01303 0.04581 0.86037-1.0625 2.625-0.80721 1.2852-1.7733 4.1438-2.1562 6.3438s-1.5888 5.4625-2.6875 7.25c-1.0987 1.7875-1.5324 3.25-0.9375 3.25 1.8145 0 1.2279 3.4445-0.8125 4.7188-1.2087 0.75484-1.7556 1.9084-1.4375 3.125 0.70186 2.6839-1.3364 3.6577-2.625 1.25-0.85971-1.6064-0.56993-2.4613 1.4688-4.5 2.5603-2.5603 3.2516-4.5938 1.5625-4.5938-0.51842 0-0.77434-0.9-0.5625-2 0.19866-1.0316 0.59956-2.8851 0.6875-4.0625 1.0933-0.15207 2.091-0.58368 2.4062-1.0938 0.44208-0.7153 0.2778-0.87958-0.4375-0.4375-2.6612 1.6447-0.92582-3.8017 2.5312-7.9375 2.1647-2.5897 3.6326-3.9542 4.0625-3.9375zm12.969 9.7812c0.174 5e-5 0.28125 0.1223 0.28125 0.375 0 0.50945-1.6401 2.4796-3.6562 4.375l-3.6875 3.4375 2.125-3.0938c1.9901-2.9008 4.1835-5.094 4.9375-5.0938zm11.188 14c-0.71176 0.00164-1.6762 0.46823-2.7188 1.4375-0.74494 0.69257-1.7756 1.0313-2.2812 0.71875-0.50565-0.3125-0.90038-0.22621-0.90625 0.21875s-1.9636 2.9195-4.3438 5.5c-2.3801 2.5805-6.0985 7.3055-8.25 10.5-2.1515 3.1945-4.2438 5.9729-4.6562 6.1562-0.93901 0.41734-0.99716 6.1562-0.0625 6.1562 1.7708 0 14.567-12.012 19.031-17.875 0.70508-0.92596 1.2318-1.1105 1.25-0.4375 0.01749 0.6453-1.0589 2.4613-2.4062 4.0625-1.5 1.7827-2.2515 3.6743-1.9375 4.875 0.6273 2.3988-8.1158 11.072-14.406 14.281-2.2787 1.1625-4.6602 3.0584-5.2812 4.2188-1.1261 2.1042-1.1084 2.0989 1.9688 0.28125 1.6969-1.0024 6.508-4.6848 10.688-8.1875 4.1795-3.5027 7.7842-6.1533 8.0312-5.9062 0.85873 0.8587-13.348 13.211-17.719 15.406-3.4329 1.7239-4.8137 3.1724-6.2188 6.625-1.7654 4.3381-1.7428 4.497 0.3125 8.1562 2.1099 3.7564 3.517 11.5 2.0938 11.5-0.42114 0-0.75 0.72474-0.75 1.5938 0 1.2706 0.68083 1.4447 3.5625 0.90625 1.9708-0.36823 4.1018-1.0841 4.7188-1.5938 11.861-3.2919 16.861 1.7337 26.188 2.0312 2.0686 0.36743 1.7315 1.4152 4 1.5 1.4755-0.09162 3.6176-0.24158 4.75-0.3125 1.1324-0.07092 4.6782-1.7 7.875-3.625s6.3776-3.5 7.0938-3.5 2.7141-1.1699 4.4062-2.5938c2.4194-4.5246 11.441-4.5427 12.312-5.2812 1.0019-1.0158 0.86832-1.5392-0.6875-2.6875-1.0676-0.78797-2.7076-1.4375-3.625-1.4375s-3.7706-1.86-6.3438-4.125c-4.2033-3.6999-5.3191-4.159-11.125-4.625-3.9112-1.4381-5.3715 0.79642-8.0938 1.75-2.7042-0.39841 1.0577-2.6766 2.1875-3 3.6283 0 0.75244-8.5758-5.4688-16.375-1.7055-2.1381-3.0938-4.443-3.0938-5.125 0-1.9021-2.5561-3.6042-4.375-2.9062-1.1732 0.45019-1.625 1.899-1.625 5.1875 0 2.5078-0.26003 4.2712-0.59375 3.9375-0.76306-0.76307-1.5383-8.1215-1.8125-17.219-0.11607-3.85-0.3045-7.7875-0.40625-8.75-0.10218-0.96663-0.56949-1.4391-1.2812-1.4375zm100.72 17.188c0.21084-0.00183 0.41456 0.00825 0.625 0 1.2375 0.12972 3.4051 0.3048 4.8125 0.375 1.4074 0.0702 3.3534 0.70493 4.3125 1.4062 1.5661 1.1452 1.2638 1.5214-2.9375 3.5625-2.9553 1.4358-4.4907 1.7887-4.1562 0.96875 2.0123-4.9331 2.0295-4.8125-1.1875-4.8125-1.7088 0-3.0938-0.36884-3.0938-0.84374 0.37966-0.58795 0.99246-0.65077 1.625-0.65625zm-109.06 3.875c-0.22619 0.06443-1.2203 0.96517-3.1562 2.75-2.1517 1.9838-6.0438 5.0261-8.6562 6.7812-2.6125 1.7551-4.75 3.6627-4.75 4.2188 0 1.2661 1.1639 0.60365 7.7812-4.4062 2.9101-2.2032 6.2708-5.4218 7.4375-7.125 1.0496-1.5324 1.5699-2.2832 1.3438-2.2188zm5.0625 18.688c0.82544 0.05906 7.7482 8.9375 6.9688 8.9375-0.20636 0-1.2697-0.7875-2.375-1.75-2.5022-2.1789-5.7618-7.2711-4.5938-7.1875zm94.125 26.375c3.8884 1.416 7.5142 2.8106 8.2188 3.5312 2.8033 2.8677 5.5908 3.6402 12.031 3.2812 1.0977-0.06119 0.98307 0.30011-0.4375 1.3438-1.0676 0.78434-2.3051 1.4062-2.75 1.4062-1.9645 0-0.45202 2.7939 3.9062 7.2188 2.5918 2.6314 5.5168 4.7812 6.5 4.7812 0.98317-1e-5 1.7812 0.3501 1.7812 0.78125 0 0.91732 3.3163 2.8036 6.1562 3.375-0.81384 1.034-1.4501 2.867-1.2188 4.2188 0.08231 0.48096-1.0084 0.67346-2.4062 0.40625-1.7734-0.33899-2.5312-0.07054-2.5312 0.9375 0 2.6405-2.4094 0.70627-5.3125-4.2812-1.5768-2.709-3.9562-6.0949-5.2812-7.5-4.5364-8.0227-11.08-14.046-18.656-19.5zm-34.25 3.125c0.44466 0.02972 1.4944 0.24228 4.375 0.90625-1.186 1.1971-24.875 8.31-24.875 7.4688 0-0.46478-2.1375 0.08372-4.75 1.2188-2.6125 1.135-6.1 2.1758-7.75 2.3438-1.65 0.16799-4.575 0.55422-6.5 0.84375-1.925 0.28952-4.5562 0.22248-5.8438-0.15625-1.8697-0.54997-0.25926-1.3827 8-4.0938 11.419-3.7481 23.982-7.1607 27.844-7.5625 1.375-0.14308 4.3-0.55133 6.5-0.90625 3.1831 0.33892 2.2589-0.11203 3-0.0625zm-0.78125 14.812c2.1513-0.04415 3.5308 0.31138 5.375 0.9375 6.6193 2.0506 13.612 1.3959 20.406 2.25 1.65 0.26556 6.375 0.73358 10.5 1.0625 10.2 1.4165 15.873 1.1645 21.562 6.5312 6.4209 7.0174 10.919 13.244 9.0625 12.531-1.0082-0.38687 0.55554 2.0699 3.5 5.4688l5.375 6.1875 0.59375-3.6875c0.83417-5.1319 1.3208-5.2543 4.375-1.25l2.6875 3.5-3.1562 4.5938c-1.742 2.5319-3.4784 4.4841-3.8438 4.3125-0.36536-0.17158-3.4285-1.7668-6.8125-3.5312-7.0645-3.6835-12.649-4.7062-34.344-6.2812-8.525-0.61896-18.2-1.8853-21.5-2.8125-9.3656-2.6315-20.44-1.9652-31.625 1.875l-9.2188 3.1562-15-1.25c-16.072-1.3239-33.826-0.74311-46.719 1.5-7.6941 1.3386-15.108 4.5809-24.938 10.938l-5.5 3.5625-2.1875-2.7188c-1.7864-2.5715-4.6309-4.6308-5.6562-7.5625 0.20715-0.20715-0.63781-7.6579-1.4375-10.062 1.5427-0.46505 2.8729 0.68841 4.3438 1 1.737 0.26929 3.7628 2.9893 5.9688 4.3125 4.2066 2.3741 5.957 2.8671 7.3438 2.125 1.9894-1.0647 5.8349-1.9553 10.844-2.5312 1.7706-0.20358 3.6377-0.61704 4.1562-0.9375 0.51851-0.32044 3.4695-0.80197 6.5312-1.0625 4.0402-0.34379 6.6449-1.2842 9.5312-3.375 2.1873-1.5844 8.124-4.3256 13.188-6.0938 5.0635-1.7681 10.818-4.2907 12.781-5.625 1.9636-1.3343 4.2908-2.4375 5.1875-2.4375 0.89669-1e-5 3.2668-1.2989 5.25-2.875 4.5983-3.6543 6.6641-4.3922 20.656-7.5 13.425-2.9818 19.133-4.1764 22.719-4.25zm-67.219 6.5312l-2.5 2.1562c-5.1901 4.448-27.906 18.622-26.938 16.812 0.55398-1.0351 1.5135-1.875 2.125-1.875 0.61151-1e-5 2.9621-1.4791 5.2188-3.3125 4.7552-3.8633 13.903-9.8047 18.75-12.156l3.3438-1.625zm12.938 0.15625c0.40853 0.05009 0.17853 0.73227-0.96875 2-2.7042 2.9882-25.452 16.323-24.094 14.125 0.39049-0.63184 5.1017-3.7084 10.438-6.8438 5.3358-3.1354 10.615-6.5323 11.75-7.5312 1.405-1.2361 2.4665-1.8001 2.875-1.75zm51.688 26.375c10.517 2.4036 21.187 1.789 31.875 1.5625 11.939-0.26343 27.46 1.521 35.5 4.0938 3.7486 1.1995 10.827 7.4564 10.281 9.0938-0.31415 0.94245-0.58397 0.95721-1.1562 0.03125-0.40721-0.65888-3.1951-2.4098-6.1875-3.875-5.4189-2.6534-5.4708-2.6548-14.188-1.3125-13.827 2.1292-25.055 1.706-38.25-1.4375-6.325-1.5069-13.05-3.4852-14.938-4.4062-3.5923-1.7527-4.9424-3.7408-2.9375-3.75zm-24.812 2.75c0.13525-0.01245 0.20936 0.02186 0.25 0.0625 1.1612 1.1612-1.7072 4.8101-6.8438 8.6875-9.2961 7.0173-23.057 11.449-48.031 15.5-12.73 2.0651-17.054 3.8322-16.188 6.5625 0.61548 1.9392 0.23632 2.0057-9.1875 1.875-5.3996-0.07489-10.938-0.33543-12.312-0.5625-4.8918-0.80783-5.6893-1.3451-3.6875-2.4688 0.99589-0.55904 2.4923-0.75222 3.3125-0.4375 1.3486-1.04 3.0894-2.1391 4.6562-3.5312 3.9413-3.7844 9.7593-5.8232 14.625-5.1562 2.6823 0.36765 4.1686 0.23243 3.8125-0.34375 3.185-2.214 9.1699 0.10079 11.969-2.0938 9.8491 0.27207 15.296-5.0012 27.219-6.2812 3.7908-1e-5 13.372-3.5916 22.844-8.5625 3.4842-1.8286 6.6158-3.1629 7.5625-3.25zm-38.219 2.5938c1.5268-0.0795 3.084 0.2208 4.9062 1.3125-3.1128 2.794-8.1281 2.3446-11.75 4-2.0625 1.0155-9.825 3.4358-17.25 5.375s-16.365 4.4551-19.875 5.5938c-10.511 2.8859-7.8848 6.7999-16.25 2.9375 4.0635-1e-5 13.266-4.9086 18.625-9.9375 1.65-1.5484 4.0425-3.3472 5.3125-4 2.229-1.1456 13.18-2.5814 27.625-3.5938 3.6309-0.36421 6.1115-1.555 8.6562-1.6875zm106.84 19.344c0.98737 0.02237 3.2986 0.62225 7.5938 1.8125 3.844 1.0652 8.2378 2.1633 9.75 2.4375 3.7772 0.68494 7.1196 1.794 7.7188 2.5312 1.349 1.6599 9.3129 5.3251 14.031 6.375 0.26196 2.8604-35.463-1.381-47.031-2.3125-8.525-0.61813-15.699-1.3258-15.938-1.5625-1.5193-1.5087 3.1214-2.5354 12.938-2.875 12.02-0.41584 14.319-1.3938 11.281-4.75-1.0098-1.1158-1.3311-1.6786-0.34375-1.6562zm50.125 7.375c2.381 0.00494 5.6989 0.94928 9.0938 2.7188 4.24 1.2135-1.555 4.1016-3.6562 4.5-6.2239 0.2536-7.3326 2.4e-4 -10-2.2188-2.0999-1.7469-2.5142-2.4965-1.375-2.5 0.89515-0.00272 2.1691-0.65585 2.8438-1.4688 0.58105-0.70012 1.6652-1.0342 3.0938-1.0312zm-113.31 5.0625c26.203-0.01516 52.357 1.8862 78.531 2.9375 9.6975 0.23385 16.854 0.91214 19.719 1.8438l4.5 1.4688-10-0.0625c-5.5-0.03008-17.425-0.39032-26.5-0.8125-10.714-2.1835-20.643-0.18031-31.188-2.4375-22.521-0.59513-47.293-0.4242-70.312 0.03125-29.614 0.51529-33.742 0.43081-32-0.8125 1.5858-1.1318 7.3846-1.4884 28-1.6875 14.3-0.1381 29.6-0.32747 34-0.4375 1.7473-0.01885 3.5031-0.03024 5.25-0.03125zm9.9688 4.4688c2.3725 1.8e-4 4.2225 0.30219 4.4375 0.90625 0.18333 0.51518 5.0688 1.9416 10.844 3.1562 8.9353 1.8794 14.076 2.2438 34.5 2.4062 14.487 0.11527 25.025 0.59705 26.594 1.25 1.4295 0.59493 5.0295 1.2233 8 1.375 5.3665 0.27403 8.2012 0.92572 14.906 3.5 1.925 0.73908 5.3889 1.7593 7.6875 2.25 1.4897 0.31805 2.9107 0.97472 4.2188 1.5625-2.9336 1.0861-8.0412 0.37938-13.375-2.0625-34.915-7.714-47.195-6.5236-94.531-6.6875-17.911-0.14076-33.005 0.31227-42.781 0.84375-15.486-0.56954-30.947 0.55205-46.406 1.25-20.364 0.76743-24.918 0.4802-26.156 1.7188-0.82499 0.82499-2.2295 1.5-3.0938 1.5-0.86429-1e-5 -1.6188 0.45-1.6875 1-0.06875 0.54999-0.18125 1.556-0.25 2.2188s-1.25 1.5238-2.625 1.9062c-3.359 0.93435-5.4925 1.0238-4.6875 0.21875 0.36189-0.36191 0.18633-1.2235-0.40625-1.9375-1.4879-1.7928-0.36931-3.1894 3.4062-4.2812 2.4981-0.72244 2.6935-0.96086 0.9375-1.0312-1.2375-0.04961-2.25-0.54375-2.25-1.0938 0-0.62394 6.4873-1.0277 17.25-1.0938 9.4875-0.05825 21.3-0.43912 26.25-0.84375 7.0957-0.58001 4.0277-0.76927-14.5-0.90625-13.146-0.09718-24.161-0.61398-25-1.1562-1.0206-0.65958 1.8939-0.95833 9.125-0.96875 8.4672-0.01219 10.889-0.36206 11.938-1.625 0.86815-1.046 2.3577-1.4262 4.375-1.125 1.6813 0.251 7.9952 0.07478 14.031-0.40625 7.4663-0.595 12.046-0.51885 14.281 0.21875 1.8068 0.59632 6.0679 1.0847 9.5 1.0938 4.2704 0.01125 5.6187 0.27406 4.25 0.84375-3.9149 1.6295 27.427 1.0807 33.938-0.59375 3.3361-0.85801 7.6987-1.983 9.6875-2.5 2.3264-0.60476 5.2213-0.90643 7.5938-0.90625zm-206.69 11.125c0.3617 0.01645 0.63007 0.30768 1 0.90625 0.48801 0.78963 1.2549 1.2979 1.6875 1.125 1.3518-0.5404 7.1888 0.83465 7.8125 1.8438 0.67617 1.0941-0.83467 1.3216-1.875 0.28125-0.37649-0.37647-4.971-0.71638-10.188-0.78125-5.7602-0.07163-9.9451-0.60134-10.656-1.3125-0.89462-0.89464 0.06103-1.029 4-0.5625 3.5834 0.42439 5.6421 0.23196 6.75-0.6875 0.66455-0.55154 1.107-0.82895 1.4688-0.8125zm259 2.8125c1.6301-3.5e-4 3.5593 0.0656 5.9375 0.15625 2.1861 0.08335 3.7573 0.48992 3.5 0.90625-0.25731 0.41634 0.54755 0.96685 1.7812 1.2188 3.0092 0.61442 17.409 0.20135 21.562-0.625 2.1738-0.4325 3.1338-0.32788 2.7188 0.34375-0.41244 0.66734 1.8703 1.0312 6.5625 1.0312 3.9741-1e-5 6.976 0.27402 6.6562 0.59375-0.31973 0.31973-12.647 1.0052-27.406 1.5312-64.316 2.2922-80.139 2.9453-84.844 3.5312-2.75 0.3425-17.15 0.08988-32-0.5625-18.297-0.80381-36.186-0.92021-55.5-0.34375-15.675 0.46784-29.062 0.69486-29.75 0.46875-0.60733-0.19974-1.1081-0.8355-1.2188-1.4688 2.0701-0.58635 4.8724-1.3492 8.4688-1.4375 4.4-0.10811 10.25-0.46904 13-0.78125 2.75-0.31223 16.046-0.82645 29.562-1.1562 19.475-0.47517 28.089-0.24181 41.5 1.125 11.065 1.1277 19.534 1.4957 24.438 1.0312 4.125-0.39067 9.525-0.90679 12-1.125 2.475-0.21823 12.619-0.55186 22.531-0.75 13.639-0.27262 18.746-0.74978 21-1.9062 2.5257-1.296 4.6098-1.7802 9.5-1.7812zm-278.19 4.4688c1.6773-0.09499 2.4261 1.3368 1.3125 4.5312-0.59512 1.7072-0.81063 3.753-0.5 4.5625 0.33923 0.88404-0.0241 1.4688-0.90625 1.4688-0.80776-1e-5 -4.4548 1.35-8.0938 3-7.3201 3.3191-7.6562 3.4162-7.6562 2.0625 1e-5 -0.51883 0.8491-1.5313 1.875-2.25 1.0259-0.7187 3.2932-3.4407 5.0625-6.0625 3.0732-4.5538 6.7498-7.1904 8.9062-7.3125zm226.22 10.562c0.5867-1e-5 2.5236 1.1356 4.3125 2.5 1.94 1.4798 3.6323 2.0963 4.1875 1.5625 0.78536-0.75509 11.102-1.5322 15.188-1.1562 2.2494 0.20697 1.3093 1.8799-1 1.7812-1.2375-0.05284-6.075 0.23727-10.75 0.625-5.1695 0.42874-9.0877 0.31948-10-0.28125-1.4362-1.185 0.41053-0.88739-1.25-2.0938-1.9338-1.1263-2.3577-2.9375-0.6875-2.9375zm-166.19 0.0625c1.6122 0.05968 3.4524 0.6313 5.1875 1.6562 2.2942 1.3552 2.8191 2.3162 2.625 4.75-0.21891 2.744-0.64085 3.1055-4.2187 3.5938l0.1875 1c2.3333 0.2663 3.9359 0.0968 3.625-0.40625-0.3053-0.49395 0.0797-0.69251 0.84375-0.4375 0.76587 0.25562 1.3122 1.6552 1.25 3.125 1.4455 2.7206 0.76858 5.3546 2.1562 8.3438 0.86033 1.313 1.2298 2.9218 0.84375 3.5938-0.24922 1.1113 4.2606 1.1804 5.9375 1.7188 5.8249 2.6402 12.803 1.4837 18.531 4.0938 0.18372 0.4973 1.2106 0.43348 2.3125-0.15625 1.4372-0.76916 2.3656-0.73868 3.4062 0.125 2.1747 1.8048 1.7393 2.7298-1.625 3.4688-2.6348-0.18397-2.3738-1.3601-7.4375 0.46875-18.705-1.2538-15.555-2.6307-23.25-4.4688-3.9644-1.4065-12.13-9.8565-14.25-13.031 1e-5 -0.82501 0.45-1.5 1-1.5 1.47-0.7941 1.1131-2.1503 0-3-1.7113-1e-5 -1.1035-1.6152 1.625-4.3438 2.4348-2.4348 2.4882-2.6586 0.75-3.2812-3.4821-1.2475-4.4914-2.5042-3.25-4 0.77355-0.93208 2.1378-1.3722 3.75-1.3125zm41.281 4.3125c0.5136 0.04916 0.10168 0.22443-1.1562 0.53125-5.0109 1.2222-16.293 2.1918-12.719 1.0938 1.5361-0.47191 5.8111-1.0743 9.5-1.375 2.4106-0.19648 3.8614-0.29916 4.375-0.25zm98.594 5.6875c2.2091 0.07656 0.49775 1.0523-4.9062 2.5938-6.1554 1.7558-18.187 2.8492-15.844 1.4375 0.825-0.49695 3.75-1.033 6.5-1.1875 2.75-0.15449 5.2805-0.68226 5.625-1.1875 0.34448-0.50523 2.8195-1.1805 5.5-1.4688 0.75622-0.08133 1.3932-0.12615 1.9375-0.15625 0.47626-0.02633 0.87192-0.04219 1.1875-0.03125zm115.94 0.09375c-45.235 4.1656-77.335 10.001-115.97 23.625 3.9686-1.1696 41.865-21.278 115.97-23.625zm-278.19 33.281c14.662 6.9132 56.61-0.10856 102.19 1.75-34.131-0.86308-82.943 8.2563-102.19-1.75z" fill="#916f6f"/>
</svg>