<?xml version="1.0" encoding="utf-8"?>
<!-- Generator: Adobe Illustrator 21.0.0, SVG Export Plug-In . SVG Version: 6.00 Build 0)  -->
<svg version="1.1" id="Layer_1" xmlns="http://www.w3.org/2000/svg" xmlns:xlink="http://www.w3.org/1999/xlink" x="0px" y="0px"
	 viewBox="0 0 194.5 241.6" style="enable-background:new 0 0 194.5 241.6;" xml:space="preserve">
<style type="text/css">
	.st0{fill:#253944;}
	.st1{fill:#FFFFFF;}
</style>
<title>Asset 2</title>
<path class="st0" d="M0.5,241.6h194v-84c0,0-24.5-16.5-58.5-20.5c0,0-1-4-7-7c-2-6,0-21-1-32c20,2,23-35,12-31c10-22,1-64-42-67.1
	c-0.6,0.1-1.3,0.3-1.8,0.6C88.8,5.8,85.9,1.1,82,1.1s-16,6-17,10c-13,7-23,24-13,56c-13-3-6,37,12,32c-1,7,0,16,3,19c-1,6,1,19,1,19
	c2,1-39,7-68,30L0.5,241.6z"/>
<path class="st1" d="M89,56.1h-8c0,0-9-14,14-15c21,0,16,19,16,19c-2,7-15,7-14,18h-6c0,0-5-8,0-14s9-8,9-8s4-10-5-10
	C89,46.1,89,50.1,89,56.1z"/>
<circle class="st1" cx="94.5" cy="89.8" r="7.7"/>
</svg>
